<?xml version="1.0" encoding="UTF-8" standalone="no"?>
<!DOCTYPE svg PUBLIC "-//W3C//DTD SVG 1.1//EN"
 "http://www.w3.org/Graphics/SVG/1.1/DTD/svg11.dtd">
<!-- Generated by graphviz version 2.36.0 (20140111.2315)
 -->
<!-- Title: o2::monitoring::VariantVisitorRate Pages: 1 -->
<svg width="172pt" height="228pt"
 viewBox="0.00 0.00 172.00 228.00" xmlns="http://www.w3.org/2000/svg" xmlns:xlink="http://www.w3.org/1999/xlink">
<g id="graph0" class="graph" transform="scale(1 1) rotate(0) translate(4 224)">
<title>o2::monitoring::VariantVisitorRate</title>
<!-- Node1 -->
<g id="node1" class="node"><title>Node1</title>
<polygon fill="#bfbfbf" stroke="black" points="0,-1 0,-91 164,-91 164,-1 0,-1"/>
<text text-anchor="middle" x="82" y="-79" font-family="Helvetica,sans-Serif" font-size="10.00">o2::monitoring::VariantVisitorRate</text>
<polyline fill="none" stroke="black" points="0,-72 164,-72 "/>
<text text-anchor="middle" x="82" y="-60" font-family="Helvetica,sans-Serif" font-size="10.00"> </text>
<polyline fill="none" stroke="black" points="0,-53 164,-53 "/>
<text text-anchor="start" x="8" y="-41" font-family="Helvetica,sans-Serif" font-size="10.00">+ VariantVisitorRate()</text>
<text text-anchor="start" x="8" y="-30" font-family="Helvetica,sans-Serif" font-size="10.00">+ operator()()</text>
<text text-anchor="start" x="8" y="-19" font-family="Helvetica,sans-Serif" font-size="10.00">+ operator()()</text>
<text text-anchor="start" x="8" y="-8" font-family="Helvetica,sans-Serif" font-size="10.00">+ operator()()</text>
</g>
<!-- Node2 -->
<g id="node2" class="node"><title>Node2</title>
<polygon fill="none" stroke="#bfbfbf" points="28.5,-129 28.5,-219 135.5,-219 135.5,-129 28.5,-129"/>
<text text-anchor="start" x="36.5" y="-207" font-family="Helvetica,sans-Serif" font-size="10.00">boost::static_visitor</text>
<text text-anchor="start" x="36.5" y="-196" font-family="Helvetica,sans-Serif" font-size="10.00">&lt; boost::variant&lt; int,</text>
<text text-anchor="start" x="36.5" y="-185" font-family="Helvetica,sans-Serif" font-size="10.00"> std::string, double,</text>
<text text-anchor="middle" x="82" y="-174" font-family="Helvetica,sans-Serif" font-size="10.00"> uint64_t &gt; &gt;</text>
<polyline fill="none" stroke="#bfbfbf" points="28.5,-167 135.5,-167 "/>
<text text-anchor="middle" x="82" y="-155" font-family="Helvetica,sans-Serif" font-size="10.00"> </text>
<polyline fill="none" stroke="#bfbfbf" points="28.5,-148 135.5,-148 "/>
<text text-anchor="middle" x="82" y="-136" font-family="Helvetica,sans-Serif" font-size="10.00"> </text>
</g>
<!-- Node2&#45;&gt;Node1 -->
<g id="edge1" class="edge"><title>Node2&#45;&gt;Node1</title>
<path fill="none" stroke="midnightblue" d="M82,-118.726C82,-109.556 82,-100.133 82,-91.2568"/>
<polygon fill="none" stroke="midnightblue" points="78.5001,-118.931 82,-128.931 85.5001,-118.931 78.5001,-118.931"/>
</g>
</g>
</svg>
