<?xml version="1.0" encoding="UTF-8" standalone="no"?>
<!DOCTYPE svg PUBLIC "-//W3C//DTD SVG 1.1//EN"
 "http://www.w3.org/Graphics/SVG/1.1/DTD/svg11.dtd">
<!-- Generated by graphviz version 2.36.0 (20140111.2315)
 -->
<!-- Title: o2::monitoring::transports::TransportInterface Pages: 1 -->
<svg width="481pt" height="228pt"
 viewBox="0.00 0.00 481.00 228.00" xmlns="http://www.w3.org/2000/svg" xmlns:xlink="http://www.w3.org/1999/xlink">
<g id="graph0" class="graph" transform="scale(1 1) rotate(0) translate(4 224)">
<title>o2::monitoring::transports::TransportInterface</title>
<!-- Node1 -->
<g id="node1" class="node"><title>Node1</title>
<polygon fill="#bfbfbf" stroke="black" points="159,-129 159,-219 287,-219 287,-129 159,-129"/>
<text text-anchor="start" x="167" y="-207" font-family="Helvetica,sans-Serif" font-size="10.00">o2::monitoring::transports</text>
<text text-anchor="middle" x="223" y="-196" font-family="Helvetica,sans-Serif" font-size="10.00">::TransportInterface</text>
<polyline fill="none" stroke="black" points="159,-189 287,-189 "/>
<text text-anchor="middle" x="223" y="-177" font-family="Helvetica,sans-Serif" font-size="10.00"> </text>
<polyline fill="none" stroke="black" points="159,-170 287,-170 "/>
<text text-anchor="start" x="167" y="-158" font-family="Helvetica,sans-Serif" font-size="10.00">+ TransportInterface()</text>
<text text-anchor="start" x="167" y="-147" font-family="Helvetica,sans-Serif" font-size="10.00">+ ~TransportInterface()</text>
<text text-anchor="start" x="167" y="-136" font-family="Helvetica,sans-Serif" font-size="10.00">+ send()</text>
</g>
<!-- Node2 -->
<g id="node2" class="node"><title>Node2</title>
<g id="a_node2"><a xlink:href="../../d6/da3/classo2_1_1monitoring_1_1transports_1_1HTTP.html" target="_top" xlink:title="HTTP POST transport for Monitoring backends. ">
<polygon fill="none" stroke="black" points="0,-1 0,-91 128,-91 128,-1 0,-1"/>
<text text-anchor="start" x="8" y="-79" font-family="Helvetica,sans-Serif" font-size="10.00">o2::monitoring::transports</text>
<text text-anchor="middle" x="64" y="-68" font-family="Helvetica,sans-Serif" font-size="10.00">::HTTP</text>
<polyline fill="none" stroke="black" points="0,-61 128,-61 "/>
<text text-anchor="middle" x="64" y="-49" font-family="Helvetica,sans-Serif" font-size="10.00"> </text>
<polyline fill="none" stroke="black" points="0,-42 128,-42 "/>
<text text-anchor="start" x="8" y="-30" font-family="Helvetica,sans-Serif" font-size="10.00">+ HTTP()</text>
<text text-anchor="start" x="8" y="-19" font-family="Helvetica,sans-Serif" font-size="10.00">+ ~HTTP()</text>
<text text-anchor="start" x="8" y="-8" font-family="Helvetica,sans-Serif" font-size="10.00">+ send()</text>
</a>
</g>
</g>
<!-- Node1&#45;&gt;Node2 -->
<g id="edge1" class="edge"><title>Node1&#45;&gt;Node2</title>
<path fill="none" stroke="midnightblue" d="M159.296,-122.518C146.152,-112.102 132.407,-101.21 119.579,-91.0438"/>
<polygon fill="none" stroke="midnightblue" points="157.378,-125.464 167.39,-128.931 161.726,-119.977 157.378,-125.464"/>
</g>
<!-- Node3 -->
<g id="node3" class="node"><title>Node3</title>
<g id="a_node3"><a xlink:href="../../d9/d31/classo2_1_1monitoring_1_1transports_1_1TCP.html" target="_top" xlink:title="Transport that sends string formatted metrics via TCP. ">
<polygon fill="none" stroke="black" points="146,-1 146,-91 300,-91 300,-1 146,-1"/>
<text text-anchor="middle" x="223" y="-79" font-family="Helvetica,sans-Serif" font-size="10.00">o2::monitoring::transports::TCP</text>
<polyline fill="none" stroke="black" points="146,-72 300,-72 "/>
<text text-anchor="middle" x="223" y="-60" font-family="Helvetica,sans-Serif" font-size="10.00"> </text>
<polyline fill="none" stroke="black" points="146,-53 300,-53 "/>
<text text-anchor="start" x="154" y="-41" font-family="Helvetica,sans-Serif" font-size="10.00">+ TCP()</text>
<text text-anchor="start" x="154" y="-30" font-family="Helvetica,sans-Serif" font-size="10.00">+ ~TCP()</text>
<text text-anchor="start" x="154" y="-19" font-family="Helvetica,sans-Serif" font-size="10.00">+ send()</text>
<text text-anchor="start" x="154" y="-8" font-family="Helvetica,sans-Serif" font-size="10.00">+ read()</text>
</a>
</g>
</g>
<!-- Node1&#45;&gt;Node3 -->
<g id="edge2" class="edge"><title>Node1&#45;&gt;Node3</title>
<path fill="none" stroke="midnightblue" d="M223,-118.726C223,-109.556 223,-100.133 223,-91.2568"/>
<polygon fill="none" stroke="midnightblue" points="219.5,-118.931 223,-128.931 226.5,-118.931 219.5,-118.931"/>
</g>
<!-- Node4 -->
<g id="node4" class="node"><title>Node4</title>
<g id="a_node4"><a xlink:href="../../dd/df8/classo2_1_1monitoring_1_1transports_1_1UDP.html" target="_top" xlink:title="Transport that sends string formatted metrics via UDP. ">
<polygon fill="none" stroke="black" points="318.5,-6.5 318.5,-85.5 473.5,-85.5 473.5,-6.5 318.5,-6.5"/>
<text text-anchor="middle" x="396" y="-73.5" font-family="Helvetica,sans-Serif" font-size="10.00">o2::monitoring::transports::UDP</text>
<polyline fill="none" stroke="black" points="318.5,-66.5 473.5,-66.5 "/>
<text text-anchor="middle" x="396" y="-54.5" font-family="Helvetica,sans-Serif" font-size="10.00"> </text>
<polyline fill="none" stroke="black" points="318.5,-47.5 473.5,-47.5 "/>
<text text-anchor="start" x="326.5" y="-35.5" font-family="Helvetica,sans-Serif" font-size="10.00">+ UDP()</text>
<text text-anchor="start" x="326.5" y="-24.5" font-family="Helvetica,sans-Serif" font-size="10.00">+ ~UDP()</text>
<text text-anchor="start" x="326.5" y="-13.5" font-family="Helvetica,sans-Serif" font-size="10.00">+ send()</text>
</a>
</g>
</g>
<!-- Node1&#45;&gt;Node4 -->
<g id="edge3" class="edge"><title>Node1&#45;&gt;Node4</title>
<path fill="none" stroke="midnightblue" d="M291.789,-122.899C308.841,-110.48 326.853,-97.3611 343.018,-85.588"/>
<polygon fill="none" stroke="midnightblue" points="289.53,-120.215 283.507,-128.931 293.651,-125.873 289.53,-120.215"/>
</g>
</g>
</svg>
