<?xml version="1.0" encoding="UTF-8" standalone="no"?>
<!DOCTYPE svg PUBLIC "-//W3C//DTD SVG 1.1//EN"
 "http://www.w3.org/Graphics/SVG/1.1/DTD/svg11.dtd">
<!-- Generated by graphviz version 2.36.0 (20140111.2315)
 -->
<!-- Title: /home/travis/build/AliceO2Group/Monitoring/include/Monitoring/Backend.h Pages: 1 -->
<svg width="2789pt" height="296pt"
 viewBox="0.00 0.00 2789.00 296.00" xmlns="http://www.w3.org/2000/svg" xmlns:xlink="http://www.w3.org/1999/xlink">
<g id="graph0" class="graph" transform="scale(1 1) rotate(0) translate(4 292)">
<title>/home/travis/build/AliceO2Group/Monitoring/include/Monitoring/Backend.h</title>
<!-- Node1 -->
<g id="node1" class="node"><title>Node1</title>
<polygon fill="#bfbfbf" stroke="black" points="1852,-246.5 1852,-287.5 2000,-287.5 2000,-246.5 1852,-246.5"/>
<text text-anchor="start" x="1860" y="-275.5" font-family="Helvetica,sans-Serif" font-size="10.00">/home/travis/build</text>
<text text-anchor="start" x="1860" y="-264.5" font-family="Helvetica,sans-Serif" font-size="10.00">/AliceO2Group/Monitoring</text>
<text text-anchor="middle" x="1926" y="-253.5" font-family="Helvetica,sans-Serif" font-size="10.00">/include/Monitoring/Backend.h</text>
</g>
<!-- Node2 -->
<g id="node2" class="node"><title>Node2</title>
<g id="a_node2"><a xlink:href="../../d0/d98/Monitoring_8h.html" target="_top" xlink:title="/home/travis/build\l/AliceO2Group/Monitoring\l/include/Monitoring/Monitoring.h">
<polygon fill="none" stroke="black" points="1488.5,-168.5 1488.5,-209.5 1643.5,-209.5 1643.5,-168.5 1488.5,-168.5"/>
<text text-anchor="start" x="1496.5" y="-197.5" font-family="Helvetica,sans-Serif" font-size="10.00">/home/travis/build</text>
<text text-anchor="start" x="1496.5" y="-186.5" font-family="Helvetica,sans-Serif" font-size="10.00">/AliceO2Group/Monitoring</text>
<text text-anchor="middle" x="1566" y="-175.5" font-family="Helvetica,sans-Serif" font-size="10.00">/include/Monitoring/Monitoring.h</text>
</a>
</g>
</g>
<!-- Node1&#45;&gt;Node2 -->
<g id="edge1" class="edge"><title>Node1&#45;&gt;Node2</title>
<path fill="none" stroke="midnightblue" d="M1841.83,-249.406C1787.56,-238.558 1715.52,-223.875 1652,-210 1649.3,-209.411 1646.56,-208.806 1643.79,-208.191"/>
<polygon fill="midnightblue" stroke="midnightblue" points="1841.26,-252.861 1851.75,-251.386 1842.63,-245.996 1841.26,-252.861"/>
</g>
<!-- Node17 -->
<g id="node17" class="node"><title>Node17</title>
<g id="a_node17"><a xlink:href="../../db/df5/ApMonBackend_8h.html" target="_top" xlink:title="/home/travis/build\l/AliceO2Group/Monitoring\l/src/Backends/ApMonBackend.h">
<polygon fill="none" stroke="black" points="2145,-168.5 2145,-209.5 2305,-209.5 2305,-168.5 2145,-168.5"/>
<text text-anchor="start" x="2153" y="-197.5" font-family="Helvetica,sans-Serif" font-size="10.00">/home/travis/build</text>
<text text-anchor="start" x="2153" y="-186.5" font-family="Helvetica,sans-Serif" font-size="10.00">/AliceO2Group/Monitoring</text>
<text text-anchor="middle" x="2225" y="-175.5" font-family="Helvetica,sans-Serif" font-size="10.00">/src/Backends/ApMonBackend.h</text>
</a>
</g>
</g>
<!-- Node1&#45;&gt;Node17 -->
<g id="edge16" class="edge"><title>Node1&#45;&gt;Node17</title>
<path fill="none" stroke="midnightblue" d="M2010.25,-244.586C2053.58,-233.572 2106.01,-220.244 2148.22,-209.515"/>
<polygon fill="midnightblue" stroke="midnightblue" points="2009.12,-241.26 2000.29,-247.116 2010.85,-248.044 2009.12,-241.26"/>
</g>
<!-- Node20 -->
<g id="node20" class="node"><title>Node20</title>
<g id="a_node20"><a xlink:href="../../d4/d57/Flume_8h.html" target="_top" xlink:title="/home/travis/build\l/AliceO2Group/Monitoring\l/src/Backends/Flume.h">
<polygon fill="none" stroke="black" points="1862,-168.5 1862,-209.5 1990,-209.5 1990,-168.5 1862,-168.5"/>
<text text-anchor="start" x="1870" y="-197.5" font-family="Helvetica,sans-Serif" font-size="10.00">/home/travis/build</text>
<text text-anchor="start" x="1870" y="-186.5" font-family="Helvetica,sans-Serif" font-size="10.00">/AliceO2Group/Monitoring</text>
<text text-anchor="middle" x="1926" y="-175.5" font-family="Helvetica,sans-Serif" font-size="10.00">/src/Backends/Flume.h</text>
</a>
</g>
</g>
<!-- Node1&#45;&gt;Node20 -->
<g id="edge19" class="edge"><title>Node1&#45;&gt;Node20</title>
<path fill="none" stroke="midnightblue" d="M1926,-236.297C1926,-227.301 1926,-217.653 1926,-209.506"/>
<polygon fill="midnightblue" stroke="midnightblue" points="1922.5,-236.428 1926,-246.428 1929.5,-236.428 1922.5,-236.428"/>
</g>
<!-- Node23 -->
<g id="node23" class="node"><title>Node23</title>
<g id="a_node23"><a xlink:href="../../d1/d78/InfluxDB_8h.html" target="_top" xlink:title="/home/travis/build\l/AliceO2Group/Monitoring\l/src/Backends/InfluxDB.h">
<polygon fill="none" stroke="black" points="2494.5,-168.5 2494.5,-209.5 2623.5,-209.5 2623.5,-168.5 2494.5,-168.5"/>
<text text-anchor="start" x="2502.5" y="-197.5" font-family="Helvetica,sans-Serif" font-size="10.00">/home/travis/build</text>
<text text-anchor="start" x="2502.5" y="-186.5" font-family="Helvetica,sans-Serif" font-size="10.00">/AliceO2Group/Monitoring</text>
<text text-anchor="middle" x="2559" y="-175.5" font-family="Helvetica,sans-Serif" font-size="10.00">/src/Backends/InfluxDB.h</text>
</a>
</g>
</g>
<!-- Node1&#45;&gt;Node23 -->
<g id="edge24" class="edge"><title>Node1&#45;&gt;Node23</title>
<path fill="none" stroke="midnightblue" d="M2010.31,-255.877C2138.33,-240.507 2379,-211.611 2494.26,-197.773"/>
<polygon fill="midnightblue" stroke="midnightblue" points="2009.67,-252.429 2000.16,-257.096 2010.51,-259.379 2009.67,-252.429"/>
</g>
<!-- Node26 -->
<g id="node26" class="node"><title>Node26</title>
<g id="a_node26"><a xlink:href="../../d9/de4/InfoLoggerBackend_8h.html" target="_top" xlink:title="/home/travis/build\l/AliceO2Group/Monitoring\l/src/Backends/InfoLoggerBackend.h">
<polygon fill="none" stroke="black" points="1661.5,-168.5 1661.5,-209.5 1836.5,-209.5 1836.5,-168.5 1661.5,-168.5"/>
<text text-anchor="start" x="1669.5" y="-197.5" font-family="Helvetica,sans-Serif" font-size="10.00">/home/travis/build</text>
<text text-anchor="start" x="1669.5" y="-186.5" font-family="Helvetica,sans-Serif" font-size="10.00">/AliceO2Group/Monitoring</text>
<text text-anchor="middle" x="1749" y="-175.5" font-family="Helvetica,sans-Serif" font-size="10.00">/src/Backends/InfoLoggerBackend.h</text>
</a>
</g>
</g>
<!-- Node1&#45;&gt;Node26 -->
<g id="edge27" class="edge"><title>Node1&#45;&gt;Node26</title>
<path fill="none" stroke="midnightblue" d="M1871.2,-242.469C1846.56,-231.892 1817.84,-219.557 1794.43,-209.506"/>
<polygon fill="midnightblue" stroke="midnightblue" points="1869.85,-245.699 1880.42,-246.428 1872.61,-239.267 1869.85,-245.699"/>
</g>
<!-- Node3 -->
<g id="node3" class="node"><title>Node3</title>
<g id="a_node3"><a xlink:href="../../df/d4e/MonitoringFactory_8h.html" target="_top" xlink:title="/home/travis/build\l/AliceO2Group/Monitoring\l/include/Monitoring/Monitoring\lFactory.h">
<polygon fill="none" stroke="black" points="999,-79 999,-131 1145,-131 1145,-79 999,-79"/>
<text text-anchor="start" x="1007" y="-119" font-family="Helvetica,sans-Serif" font-size="10.00">/home/travis/build</text>
<text text-anchor="start" x="1007" y="-108" font-family="Helvetica,sans-Serif" font-size="10.00">/AliceO2Group/Monitoring</text>
<text text-anchor="start" x="1007" y="-97" font-family="Helvetica,sans-Serif" font-size="10.00">/include/Monitoring/Monitoring</text>
<text text-anchor="middle" x="1072" y="-86" font-family="Helvetica,sans-Serif" font-size="10.00">Factory.h</text>
</a>
</g>
</g>
<!-- Node2&#45;&gt;Node3 -->
<g id="edge2" class="edge"><title>Node2&#45;&gt;Node3</title>
<path fill="none" stroke="midnightblue" d="M1478.13,-173.414C1383.29,-157.672 1233.97,-132.886 1145.25,-118.159"/>
<polygon fill="midnightblue" stroke="midnightblue" points="1477.83,-176.912 1488.27,-175.097 1478.98,-170.007 1477.83,-176.912"/>
</g>
<!-- Node16 -->
<g id="node16" class="node"><title>Node16</title>
<g id="a_node16"><a xlink:href="../../d5/db4/Monitoring_8cxx.html" target="_top" xlink:title="/home/travis/build\l/AliceO2Group/Monitoring\l/src/Monitoring.cxx">
<polygon fill="none" stroke="black" points="1685,-84.5 1685,-125.5 1813,-125.5 1813,-84.5 1685,-84.5"/>
<text text-anchor="start" x="1693" y="-113.5" font-family="Helvetica,sans-Serif" font-size="10.00">/home/travis/build</text>
<text text-anchor="start" x="1693" y="-102.5" font-family="Helvetica,sans-Serif" font-size="10.00">/AliceO2Group/Monitoring</text>
<text text-anchor="middle" x="1749" y="-91.5" font-family="Helvetica,sans-Serif" font-size="10.00">/src/Monitoring.cxx</text>
</a>
</g>
</g>
<!-- Node2&#45;&gt;Node16 -->
<g id="edge15" class="edge"><title>Node2&#45;&gt;Node16</title>
<path fill="none" stroke="midnightblue" d="M1619.24,-164.144C1646.54,-151.909 1679.39,-137.19 1705.21,-125.623"/>
<polygon fill="midnightblue" stroke="midnightblue" points="1617.53,-161.076 1609.83,-168.359 1620.39,-167.464 1617.53,-161.076"/>
</g>
<!-- Node4 -->
<g id="node4" class="node"><title>Node4</title>
<g id="a_node4"><a xlink:href="../../d0/d18/1-Basic_8cxx.html" target="_top" xlink:title="/home/travis/build\l/AliceO2Group/Monitoring\l/examples/1&#45;Basic.cxx">
<polygon fill="none" stroke="black" points="1300,-0.5 1300,-41.5 1428,-41.5 1428,-0.5 1300,-0.5"/>
<text text-anchor="start" x="1308" y="-29.5" font-family="Helvetica,sans-Serif" font-size="10.00">/home/travis/build</text>
<text text-anchor="start" x="1308" y="-18.5" font-family="Helvetica,sans-Serif" font-size="10.00">/AliceO2Group/Monitoring</text>
<text text-anchor="middle" x="1364" y="-7.5" font-family="Helvetica,sans-Serif" font-size="10.00">/examples/1&#45;Basic.cxx</text>
</a>
</g>
</g>
<!-- Node3&#45;&gt;Node4 -->
<g id="edge3" class="edge"><title>Node3&#45;&gt;Node4</title>
<path fill="none" stroke="midnightblue" d="M1154.94,-80.7093C1200.84,-67.8182 1257.04,-52.0358 1299.61,-40.0823"/>
<polygon fill="midnightblue" stroke="midnightblue" points="1153.99,-77.3404 1145.31,-83.4138 1155.88,-84.0797 1153.99,-77.3404"/>
</g>
<!-- Node5 -->
<g id="node5" class="node"><title>Node5</title>
<g id="a_node5"><a xlink:href="../../dd/d84/10-Buffering_8cxx.html" target="_top" xlink:title="/home/travis/build\l/AliceO2Group/Monitoring\l/examples/10&#45;Buffering.cxx">
<polygon fill="none" stroke="black" points="1446,-0.5 1446,-41.5 1582,-41.5 1582,-0.5 1446,-0.5"/>
<text text-anchor="start" x="1454" y="-29.5" font-family="Helvetica,sans-Serif" font-size="10.00">/home/travis/build</text>
<text text-anchor="start" x="1454" y="-18.5" font-family="Helvetica,sans-Serif" font-size="10.00">/AliceO2Group/Monitoring</text>
<text text-anchor="middle" x="1514" y="-7.5" font-family="Helvetica,sans-Serif" font-size="10.00">/examples/10&#45;Buffering.cxx</text>
</a>
</g>
</g>
<!-- Node3&#45;&gt;Node5 -->
<g id="edge4" class="edge"><title>Node3&#45;&gt;Node5</title>
<path fill="none" stroke="midnightblue" d="M1155.29,-91.9366C1229.52,-80.6901 1340.96,-62.5896 1437,-42 1439.84,-41.392 1442.72,-40.7492 1445.64,-40.0813"/>
<polygon fill="midnightblue" stroke="midnightblue" points="1154.43,-88.526 1145.07,-93.4776 1155.48,-95.4478 1154.43,-88.526"/>
</g>
<!-- Node6 -->
<g id="node6" class="node"><title>Node6</title>
<g id="a_node6"><a xlink:href="../../d0/dfe/2-TaggedMetrics_8cxx.html" target="_top" xlink:title="/home/travis/build\l/AliceO2Group/Monitoring\l/examples/2&#45;TaggedMetrics.cxx">
<polygon fill="none" stroke="black" points="1600,-0.5 1600,-41.5 1756,-41.5 1756,-0.5 1600,-0.5"/>
<text text-anchor="start" x="1608" y="-29.5" font-family="Helvetica,sans-Serif" font-size="10.00">/home/travis/build</text>
<text text-anchor="start" x="1608" y="-18.5" font-family="Helvetica,sans-Serif" font-size="10.00">/AliceO2Group/Monitoring</text>
<text text-anchor="middle" x="1678" y="-7.5" font-family="Helvetica,sans-Serif" font-size="10.00">/examples/2&#45;TaggedMetrics.cxx</text>
</a>
</g>
</g>
<!-- Node3&#45;&gt;Node6 -->
<g id="edge5" class="edge"><title>Node3&#45;&gt;Node6</title>
<path fill="none" stroke="midnightblue" d="M1155.43,-96.8075C1258.31,-87.3021 1438.3,-68.5946 1591,-42 1593.9,-41.4948 1596.85,-40.9544 1599.83,-40.3868"/>
<polygon fill="midnightblue" stroke="midnightblue" points="1155.06,-93.3275 1145.42,-97.7265 1155.7,-100.298 1155.06,-93.3275"/>
</g>
<!-- Node7 -->
<g id="node7" class="node"><title>Node7</title>
<g id="a_node7"><a xlink:href="../../d7/d1d/3-UserDefinedTimestamp_8cxx.html" target="_top" xlink:title="/home/travis/build\l/AliceO2Group/Monitoring\l/examples/3&#45;UserDefinedTimestamp.cxx">
<polygon fill="none" stroke="black" points="-0.5,-0.5 -0.5,-41.5 194.5,-41.5 194.5,-0.5 -0.5,-0.5"/>
<text text-anchor="start" x="7.5" y="-29.5" font-family="Helvetica,sans-Serif" font-size="10.00">/home/travis/build</text>
<text text-anchor="start" x="7.5" y="-18.5" font-family="Helvetica,sans-Serif" font-size="10.00">/AliceO2Group/Monitoring</text>
<text text-anchor="middle" x="97" y="-7.5" font-family="Helvetica,sans-Serif" font-size="10.00">/examples/3&#45;UserDefinedTimestamp.cxx</text>
</a>
</g>
</g>
<!-- Node3&#45;&gt;Node7 -->
<g id="edge6" class="edge"><title>Node3&#45;&gt;Node7</title>
<path fill="none" stroke="midnightblue" d="M988.354,-101.239C833.049,-95.4032 489.842,-79.1673 203,-42 200.214,-41.639 197.391,-41.2517 194.544,-40.8423"/>
<polygon fill="midnightblue" stroke="midnightblue" points="988.635,-104.752 998.758,-101.625 988.895,-97.7571 988.635,-104.752"/>
</g>
<!-- Node8 -->
<g id="node8" class="node"><title>Node8</title>
<g id="a_node8"><a xlink:href="../../d2/dbd/4-RateDerivedMetric_8cxx.html" target="_top" xlink:title="/home/travis/build\l/AliceO2Group/Monitoring\l/examples/4&#45;RateDerivedMetric.cxx">
<polygon fill="none" stroke="black" points="212.5,-0.5 212.5,-41.5 385.5,-41.5 385.5,-0.5 212.5,-0.5"/>
<text text-anchor="start" x="220.5" y="-29.5" font-family="Helvetica,sans-Serif" font-size="10.00">/home/travis/build</text>
<text text-anchor="start" x="220.5" y="-18.5" font-family="Helvetica,sans-Serif" font-size="10.00">/AliceO2Group/Monitoring</text>
<text text-anchor="middle" x="299" y="-7.5" font-family="Helvetica,sans-Serif" font-size="10.00">/examples/4&#45;RateDerivedMetric.cxx</text>
</a>
</g>
</g>
<!-- Node3&#45;&gt;Node8 -->
<g id="edge7" class="edge"><title>Node3&#45;&gt;Node8</title>
<path fill="none" stroke="midnightblue" d="M988.783,-99.5161C860.536,-91.9027 607.094,-74.063 394,-42 391.25,-41.5862 388.46,-41.1427 385.646,-40.675"/>
<polygon fill="midnightblue" stroke="midnightblue" points="988.735,-103.019 998.923,-100.112 989.146,-96.0314 988.735,-103.019"/>
</g>
<!-- Node9 -->
<g id="node9" class="node"><title>Node9</title>
<g id="a_node9"><a xlink:href="../../d5/d3e/5-Benchmark_8cxx.html" target="_top" xlink:title="/home/travis/build\l/AliceO2Group/Monitoring\l/examples/5&#45;Benchmark.cxx">
<polygon fill="none" stroke="black" points="403.5,-0.5 403.5,-41.5 544.5,-41.5 544.5,-0.5 403.5,-0.5"/>
<text text-anchor="start" x="411.5" y="-29.5" font-family="Helvetica,sans-Serif" font-size="10.00">/home/travis/build</text>
<text text-anchor="start" x="411.5" y="-18.5" font-family="Helvetica,sans-Serif" font-size="10.00">/AliceO2Group/Monitoring</text>
<text text-anchor="middle" x="474" y="-7.5" font-family="Helvetica,sans-Serif" font-size="10.00">/examples/5&#45;Benchmark.cxx</text>
</a>
</g>
</g>
<!-- Node3&#45;&gt;Node9 -->
<g id="edge8" class="edge"><title>Node3&#45;&gt;Node9</title>
<path fill="none" stroke="midnightblue" d="M988.902,-97.4029C885.999,-88.4701 705.619,-70.3125 553,-42 550.218,-41.4839 547.388,-40.9263 544.536,-40.337"/>
<polygon fill="midnightblue" stroke="midnightblue" points="988.657,-100.895 998.921,-98.2646 989.257,-93.9204 988.657,-100.895"/>
</g>
<!-- Node10 -->
<g id="node10" class="node"><title>Node10</title>
<g id="a_node10"><a xlink:href="../../d5/d20/6-Increment_8cxx.html" target="_top" xlink:title="/home/travis/build\l/AliceO2Group/Monitoring\l/examples/6&#45;Increment.cxx">
<polygon fill="none" stroke="black" points="562.5,-0.5 562.5,-41.5 697.5,-41.5 697.5,-0.5 562.5,-0.5"/>
<text text-anchor="start" x="570.5" y="-29.5" font-family="Helvetica,sans-Serif" font-size="10.00">/home/travis/build</text>
<text text-anchor="start" x="570.5" y="-18.5" font-family="Helvetica,sans-Serif" font-size="10.00">/AliceO2Group/Monitoring</text>
<text text-anchor="middle" x="630" y="-7.5" font-family="Helvetica,sans-Serif" font-size="10.00">/examples/6&#45;Increment.cxx</text>
</a>
</g>
</g>
<!-- Node3&#45;&gt;Node10 -->
<g id="edge9" class="edge"><title>Node3&#45;&gt;Node10</title>
<path fill="none" stroke="midnightblue" d="M988.712,-91.9366C914.478,-80.6901 803.039,-62.5896 707,-42 703.894,-41.3341 700.724,-40.6264 697.528,-39.8898"/>
<polygon fill="midnightblue" stroke="midnightblue" points="988.524,-95.4478 998.934,-93.4776 989.567,-88.526 988.524,-95.4478"/>
</g>
<!-- Node11 -->
<g id="node11" class="node"><title>Node11</title>
<g id="a_node11"><a xlink:href="../../db/d78/7-Latency_8cxx.html" target="_top" xlink:title="/home/travis/build\l/AliceO2Group/Monitoring\l/examples/7&#45;Latency.cxx">
<polygon fill="none" stroke="black" points="716,-0.5 716,-41.5 844,-41.5 844,-0.5 716,-0.5"/>
<text text-anchor="start" x="724" y="-29.5" font-family="Helvetica,sans-Serif" font-size="10.00">/home/travis/build</text>
<text text-anchor="start" x="724" y="-18.5" font-family="Helvetica,sans-Serif" font-size="10.00">/AliceO2Group/Monitoring</text>
<text text-anchor="middle" x="780" y="-7.5" font-family="Helvetica,sans-Serif" font-size="10.00">/examples/7&#45;Latency.cxx</text>
</a>
</g>
</g>
<!-- Node3&#45;&gt;Node11 -->
<g id="edge10" class="edge"><title>Node3&#45;&gt;Node11</title>
<path fill="none" stroke="midnightblue" d="M989.062,-80.7093C943.157,-67.8182 886.957,-52.0358 844.391,-40.0823"/>
<polygon fill="midnightblue" stroke="midnightblue" points="988.119,-84.0797 998.693,-83.4138 990.012,-77.3404 988.119,-84.0797"/>
</g>
<!-- Node12 -->
<g id="node12" class="node"><title>Node12</title>
<g id="a_node12"><a xlink:href="../../d4/df8/8-Multiple_8cxx.html" target="_top" xlink:title="/home/travis/build\l/AliceO2Group/Monitoring\l/examples/8&#45;Multiple.cxx">
<polygon fill="none" stroke="black" points="862,-0.5 862,-41.5 990,-41.5 990,-0.5 862,-0.5"/>
<text text-anchor="start" x="870" y="-29.5" font-family="Helvetica,sans-Serif" font-size="10.00">/home/travis/build</text>
<text text-anchor="start" x="870" y="-18.5" font-family="Helvetica,sans-Serif" font-size="10.00">/AliceO2Group/Monitoring</text>
<text text-anchor="middle" x="926" y="-7.5" font-family="Helvetica,sans-Serif" font-size="10.00">/examples/8&#45;Multiple.cxx</text>
</a>
</g>
</g>
<!-- Node3&#45;&gt;Node12 -->
<g id="edge11" class="edge"><title>Node3&#45;&gt;Node12</title>
<path fill="none" stroke="midnightblue" d="M1018.47,-73.9376C999.33,-63.1852 978.257,-51.35 961.069,-41.6965"/>
<polygon fill="midnightblue" stroke="midnightblue" points="1016.97,-77.1064 1027.4,-78.9517 1020.4,-71.0031 1016.97,-77.1064"/>
</g>
<!-- Node13 -->
<g id="node13" class="node"><title>Node13</title>
<g id="a_node13"><a xlink:href="../../d6/d9f/9-Timer_8cxx.html" target="_top" xlink:title="/home/travis/build\l/AliceO2Group/Monitoring\l/examples/9&#45;Timer.cxx">
<polygon fill="none" stroke="black" points="1008,-0.5 1008,-41.5 1136,-41.5 1136,-0.5 1008,-0.5"/>
<text text-anchor="start" x="1016" y="-29.5" font-family="Helvetica,sans-Serif" font-size="10.00">/home/travis/build</text>
<text text-anchor="start" x="1016" y="-18.5" font-family="Helvetica,sans-Serif" font-size="10.00">/AliceO2Group/Monitoring</text>
<text text-anchor="middle" x="1072" y="-7.5" font-family="Helvetica,sans-Serif" font-size="10.00">/examples/9&#45;Timer.cxx</text>
</a>
</g>
</g>
<!-- Node3&#45;&gt;Node13 -->
<g id="edge12" class="edge"><title>Node3&#45;&gt;Node13</title>
<path fill="none" stroke="midnightblue" d="M1072,-68.7604C1072,-59.4912 1072,-49.8211 1072,-41.6965"/>
<polygon fill="midnightblue" stroke="midnightblue" points="1068.5,-68.9517 1072,-78.9517 1075.5,-68.9518 1068.5,-68.9517"/>
</g>
<!-- Node14 -->
<g id="node14" class="node"><title>Node14</title>
<g id="a_node14"><a xlink:href="../../d6/d98/MonitoringFactory_8cxx.html" target="_top" xlink:title="/home/travis/build\l/AliceO2Group/Monitoring\l/src/MonitoringFactory.cxx">
<polygon fill="none" stroke="black" points="1774.5,-0.5 1774.5,-41.5 1907.5,-41.5 1907.5,-0.5 1774.5,-0.5"/>
<text text-anchor="start" x="1782.5" y="-29.5" font-family="Helvetica,sans-Serif" font-size="10.00">/home/travis/build</text>
<text text-anchor="start" x="1782.5" y="-18.5" font-family="Helvetica,sans-Serif" font-size="10.00">/AliceO2Group/Monitoring</text>
<text text-anchor="middle" x="1841" y="-7.5" font-family="Helvetica,sans-Serif" font-size="10.00">/src/MonitoringFactory.cxx</text>
</a>
</g>
</g>
<!-- Node3&#45;&gt;Node14 -->
<g id="edge13" class="edge"><title>Node3&#45;&gt;Node14</title>
<path fill="none" stroke="midnightblue" d="M1155.16,-98.3212C1312.86,-87.2609 1649.88,-62.1493 1765,-42 1768.09,-41.459 1771.24,-40.8537 1774.41,-40.2001"/>
<polygon fill="midnightblue" stroke="midnightblue" points="1154.77,-94.84 1145.04,-99.0292 1155.26,-101.823 1154.77,-94.84"/>
</g>
<!-- Node15 -->
<g id="node15" class="node"><title>Node15</title>
<g id="a_node15"><a xlink:href="../../d7/dd5/testMonitoring_8cxx.html" target="_top" xlink:title="/home/travis/build\l/AliceO2Group/Monitoring\l/test/testMonitoring.cxx">
<polygon fill="none" stroke="black" points="1154,-0.5 1154,-41.5 1282,-41.5 1282,-0.5 1154,-0.5"/>
<text text-anchor="start" x="1162" y="-29.5" font-family="Helvetica,sans-Serif" font-size="10.00">/home/travis/build</text>
<text text-anchor="start" x="1162" y="-18.5" font-family="Helvetica,sans-Serif" font-size="10.00">/AliceO2Group/Monitoring</text>
<text text-anchor="middle" x="1218" y="-7.5" font-family="Helvetica,sans-Serif" font-size="10.00">/test/testMonitoring.cxx</text>
</a>
</g>
</g>
<!-- Node3&#45;&gt;Node15 -->
<g id="edge14" class="edge"><title>Node3&#45;&gt;Node15</title>
<path fill="none" stroke="midnightblue" d="M1125.53,-73.9376C1144.67,-63.1852 1165.74,-51.35 1182.93,-41.6965"/>
<polygon fill="midnightblue" stroke="midnightblue" points="1123.6,-71.0031 1116.6,-78.9517 1127.03,-77.1064 1123.6,-71.0031"/>
</g>
<!-- Node18 -->
<g id="node18" class="node"><title>Node18</title>
<g id="a_node18"><a xlink:href="../../dc/d7a/ApMonBackend_8cxx.html" target="_top" xlink:title="/home/travis/build\l/AliceO2Group/Monitoring\l/src/Backends/ApMonBackend.cxx">
<polygon fill="none" stroke="black" points="2307,-84.5 2307,-125.5 2477,-125.5 2477,-84.5 2307,-84.5"/>
<text text-anchor="start" x="2315" y="-113.5" font-family="Helvetica,sans-Serif" font-size="10.00">/home/travis/build</text>
<text text-anchor="start" x="2315" y="-102.5" font-family="Helvetica,sans-Serif" font-size="10.00">/AliceO2Group/Monitoring</text>
<text text-anchor="middle" x="2392" y="-91.5" font-family="Helvetica,sans-Serif" font-size="10.00">/src/Backends/ApMonBackend.cxx</text>
</a>
</g>
</g>
<!-- Node17&#45;&gt;Node18 -->
<g id="edge17" class="edge"><title>Node17&#45;&gt;Node18</title>
<path fill="none" stroke="midnightblue" d="M2274.24,-163.823C2299.02,-151.652 2328.68,-137.089 2352.04,-125.623"/>
<polygon fill="midnightblue" stroke="midnightblue" points="2272.43,-160.81 2265,-168.359 2275.52,-167.093 2272.43,-160.81"/>
</g>
<!-- Node19 -->
<g id="node19" class="node"><title>Node19</title>
<g id="a_node19"><a xlink:href="../../d2/d31/testApMon_8cxx.html" target="_top" xlink:title="/home/travis/build\l/AliceO2Group/Monitoring\l/test/testApMon.cxx">
<polygon fill="none" stroke="black" points="2161,-84.5 2161,-125.5 2289,-125.5 2289,-84.5 2161,-84.5"/>
<text text-anchor="start" x="2169" y="-113.5" font-family="Helvetica,sans-Serif" font-size="10.00">/home/travis/build</text>
<text text-anchor="start" x="2169" y="-102.5" font-family="Helvetica,sans-Serif" font-size="10.00">/AliceO2Group/Monitoring</text>
<text text-anchor="middle" x="2225" y="-91.5" font-family="Helvetica,sans-Serif" font-size="10.00">/test/testApMon.cxx</text>
</a>
</g>
</g>
<!-- Node17&#45;&gt;Node19 -->
<g id="edge18" class="edge"><title>Node17&#45;&gt;Node19</title>
<path fill="none" stroke="midnightblue" d="M2225,-157.881C2225,-147.133 2225,-135.309 2225,-125.667"/>
<polygon fill="midnightblue" stroke="midnightblue" points="2221.5,-158.15 2225,-168.15 2228.5,-158.15 2221.5,-158.15"/>
</g>
<!-- Node20&#45;&gt;Node14 -->
<g id="edge22" class="edge"><title>Node20&#45;&gt;Node14</title>
<path fill="none" stroke="midnightblue" d="M1886.37,-162.017C1876.32,-153.591 1866.53,-143.428 1860,-132 1843.75,-103.563 1840.68,-64.7327 1840.46,-41.6249"/>
<polygon fill="midnightblue" stroke="midnightblue" points="1884.41,-164.934 1894.43,-168.394 1888.76,-159.444 1884.41,-164.934"/>
</g>
<!-- Node20&#45;&gt;Node16 -->
<g id="edge21" class="edge"><title>Node20&#45;&gt;Node16</title>
<path fill="none" stroke="midnightblue" d="M1874.51,-164.144C1848.1,-151.909 1816.33,-137.19 1791.36,-125.623"/>
<polygon fill="midnightblue" stroke="midnightblue" points="1873.06,-167.331 1883.6,-168.359 1876,-160.98 1873.06,-167.331"/>
</g>
<!-- Node21 -->
<g id="node21" class="node"><title>Node21</title>
<g id="a_node21"><a xlink:href="../../d7/d21/Flume_8cxx.html" target="_top" xlink:title="/home/travis/build\l/AliceO2Group/Monitoring\l/src/Backends/Flume.cxx">
<polygon fill="none" stroke="black" points="2015,-84.5 2015,-125.5 2143,-125.5 2143,-84.5 2015,-84.5"/>
<text text-anchor="start" x="2023" y="-113.5" font-family="Helvetica,sans-Serif" font-size="10.00">/home/travis/build</text>
<text text-anchor="start" x="2023" y="-102.5" font-family="Helvetica,sans-Serif" font-size="10.00">/AliceO2Group/Monitoring</text>
<text text-anchor="middle" x="2079" y="-91.5" font-family="Helvetica,sans-Serif" font-size="10.00">/src/Backends/Flume.cxx</text>
</a>
</g>
</g>
<!-- Node20&#45;&gt;Node21 -->
<g id="edge20" class="edge"><title>Node20&#45;&gt;Node21</title>
<path fill="none" stroke="midnightblue" d="M1971.71,-163.501C1994.3,-151.396 2021.18,-136.988 2042.39,-125.623"/>
<polygon fill="midnightblue" stroke="midnightblue" points="1969.81,-160.55 1962.65,-168.359 1973.11,-166.72 1969.81,-160.55"/>
</g>
<!-- Node22 -->
<g id="node22" class="node"><title>Node22</title>
<g id="a_node22"><a xlink:href="../../dd/d7a/testFlume_8cxx.html" target="_top" xlink:title="/home/travis/build\l/AliceO2Group/Monitoring\l/test/testFlume.cxx">
<polygon fill="none" stroke="black" points="1869,-84.5 1869,-125.5 1997,-125.5 1997,-84.5 1869,-84.5"/>
<text text-anchor="start" x="1877" y="-113.5" font-family="Helvetica,sans-Serif" font-size="10.00">/home/travis/build</text>
<text text-anchor="start" x="1877" y="-102.5" font-family="Helvetica,sans-Serif" font-size="10.00">/AliceO2Group/Monitoring</text>
<text text-anchor="middle" x="1933" y="-91.5" font-family="Helvetica,sans-Serif" font-size="10.00">/test/testFlume.cxx</text>
</a>
</g>
</g>
<!-- Node20&#45;&gt;Node22 -->
<g id="edge23" class="edge"><title>Node20&#45;&gt;Node22</title>
<path fill="none" stroke="midnightblue" d="M1928.57,-157.881C1929.49,-147.133 1930.5,-135.309 1931.32,-125.667"/>
<polygon fill="midnightblue" stroke="midnightblue" points="1925.06,-157.889 1927.69,-168.15 1932.03,-158.484 1925.06,-157.889"/>
</g>
<!-- Node24 -->
<g id="node24" class="node"><title>Node24</title>
<g id="a_node24"><a xlink:href="../../d8/dd1/InfluxDB_8cxx.html" target="_top" xlink:title="/home/travis/build\l/AliceO2Group/Monitoring\l/src/Backends/InfluxDB.cxx">
<polygon fill="none" stroke="black" points="2641,-84.5 2641,-125.5 2781,-125.5 2781,-84.5 2641,-84.5"/>
<text text-anchor="start" x="2649" y="-113.5" font-family="Helvetica,sans-Serif" font-size="10.00">/home/travis/build</text>
<text text-anchor="start" x="2649" y="-102.5" font-family="Helvetica,sans-Serif" font-size="10.00">/AliceO2Group/Monitoring</text>
<text text-anchor="middle" x="2711" y="-91.5" font-family="Helvetica,sans-Serif" font-size="10.00">/src/Backends/InfluxDB.cxx</text>
</a>
</g>
</g>
<!-- Node23&#45;&gt;Node24 -->
<g id="edge25" class="edge"><title>Node23&#45;&gt;Node24</title>
<path fill="none" stroke="midnightblue" d="M2604.41,-163.501C2626.85,-151.396 2653.56,-136.988 2674.63,-125.623"/>
<polygon fill="midnightblue" stroke="midnightblue" points="2602.55,-160.531 2595.41,-168.359 2605.87,-166.691 2602.55,-160.531"/>
</g>
<!-- Node25 -->
<g id="node25" class="node"><title>Node25</title>
<g id="a_node25"><a xlink:href="../../de/df5/testInfluxDb_8cxx.html" target="_top" xlink:title="/home/travis/build\l/AliceO2Group/Monitoring\l/test/testInfluxDb.cxx">
<polygon fill="none" stroke="black" points="2495,-84.5 2495,-125.5 2623,-125.5 2623,-84.5 2495,-84.5"/>
<text text-anchor="start" x="2503" y="-113.5" font-family="Helvetica,sans-Serif" font-size="10.00">/home/travis/build</text>
<text text-anchor="start" x="2503" y="-102.5" font-family="Helvetica,sans-Serif" font-size="10.00">/AliceO2Group/Monitoring</text>
<text text-anchor="middle" x="2559" y="-91.5" font-family="Helvetica,sans-Serif" font-size="10.00">/test/testInfluxDb.cxx</text>
</a>
</g>
</g>
<!-- Node23&#45;&gt;Node25 -->
<g id="edge26" class="edge"><title>Node23&#45;&gt;Node25</title>
<path fill="none" stroke="midnightblue" d="M2559,-157.881C2559,-147.133 2559,-135.309 2559,-125.667"/>
<polygon fill="midnightblue" stroke="midnightblue" points="2555.5,-158.15 2559,-168.15 2562.5,-158.15 2555.5,-158.15"/>
</g>
<!-- Node26&#45;&gt;Node14 -->
<g id="edge30" class="edge"><title>Node26&#45;&gt;Node14</title>
<path fill="none" stroke="midnightblue" d="M1702.64,-162.565C1691.95,-154.313 1681.97,-144.101 1676,-132 1665.38,-110.476 1662.02,-97.5079 1676,-78 1682.19,-69.3632 1731.28,-53.3388 1774.33,-40.6373"/>
<polygon fill="midnightblue" stroke="midnightblue" points="1700.73,-165.506 1710.9,-168.492 1704.81,-159.818 1700.73,-165.506"/>
</g>
<!-- Node26&#45;&gt;Node16 -->
<g id="edge29" class="edge"><title>Node26&#45;&gt;Node16</title>
<path fill="none" stroke="midnightblue" d="M1749,-157.881C1749,-147.133 1749,-135.309 1749,-125.667"/>
<polygon fill="midnightblue" stroke="midnightblue" points="1745.5,-158.15 1749,-168.15 1752.5,-158.15 1745.5,-158.15"/>
</g>
<!-- Node27 -->
<g id="node27" class="node"><title>Node27</title>
<g id="a_node27"><a xlink:href="../../dc/d95/InfoLoggerBackend_8cxx.html" target="_top" xlink:title="/home/travis/build\l/AliceO2Group/Monitoring\l/src/Backends/InfoLoggerBackend.cxx">
<polygon fill="none" stroke="black" points="1444.5,-84.5 1444.5,-125.5 1629.5,-125.5 1629.5,-84.5 1444.5,-84.5"/>
<text text-anchor="start" x="1452.5" y="-113.5" font-family="Helvetica,sans-Serif" font-size="10.00">/home/travis/build</text>
<text text-anchor="start" x="1452.5" y="-102.5" font-family="Helvetica,sans-Serif" font-size="10.00">/AliceO2Group/Monitoring</text>
<text text-anchor="middle" x="1537" y="-91.5" font-family="Helvetica,sans-Serif" font-size="10.00">/src/Backends/InfoLoggerBackend.cxx</text>
</a>
</g>
</g>
<!-- Node26&#45;&gt;Node27 -->
<g id="edge28" class="edge"><title>Node26&#45;&gt;Node27</title>
<path fill="none" stroke="midnightblue" d="M1688.8,-164.714C1656.79,-152.336 1617.9,-137.29 1587.49,-125.529"/>
<polygon fill="midnightblue" stroke="midnightblue" points="1687.9,-168.12 1698.49,-168.463 1690.43,-161.591 1687.9,-168.12"/>
</g>
</g>
</svg>
