<?xml version="1.0" encoding="UTF-8" standalone="no"?>
<!DOCTYPE svg PUBLIC "-//W3C//DTD SVG 1.1//EN"
 "http://www.w3.org/Graphics/SVG/1.1/DTD/svg11.dtd">
<!-- Generated by graphviz version 2.36.0 (20140111.2315)
 -->
<!-- Title: o2::monitoring::VariantVisitorAdd Pages: 1 -->
<svg width="168pt" height="238pt"
 viewBox="0.00 0.00 168.00 238.00" xmlns="http://www.w3.org/2000/svg" xmlns:xlink="http://www.w3.org/1999/xlink">
<g id="graph0" class="graph" transform="scale(1 1) rotate(0) translate(4 234)">
<title>o2::monitoring::VariantVisitorAdd</title>
<!-- Node1 -->
<g id="node1" class="node"><title>Node1</title>
<polygon fill="#bfbfbf" stroke="black" points="0,-0.5 0,-101.5 160,-101.5 160,-0.5 0,-0.5"/>
<text text-anchor="middle" x="80" y="-89.5" font-family="Helvetica,sans-Serif" font-size="10.00">o2::monitoring::VariantVisitorAdd</text>
<polyline fill="none" stroke="black" points="0,-82.5 160,-82.5 "/>
<text text-anchor="middle" x="80" y="-70.5" font-family="Helvetica,sans-Serif" font-size="10.00"> </text>
<polyline fill="none" stroke="black" points="0,-63.5 160,-63.5 "/>
<text text-anchor="start" x="8" y="-51.5" font-family="Helvetica,sans-Serif" font-size="10.00">+ operator()()</text>
<text text-anchor="start" x="8" y="-40.5" font-family="Helvetica,sans-Serif" font-size="10.00">+ operator()()</text>
<text text-anchor="start" x="8" y="-29.5" font-family="Helvetica,sans-Serif" font-size="10.00">+ operator()()</text>
<text text-anchor="start" x="8" y="-18.5" font-family="Helvetica,sans-Serif" font-size="10.00">+ operator()()</text>
<text text-anchor="start" x="8" y="-7.5" font-family="Helvetica,sans-Serif" font-size="10.00">+ operator()()</text>
</g>
<!-- Node2 -->
<g id="node2" class="node"><title>Node2</title>
<polygon fill="none" stroke="#bfbfbf" points="26.5,-139 26.5,-229 133.5,-229 133.5,-139 26.5,-139"/>
<text text-anchor="start" x="34.5" y="-217" font-family="Helvetica,sans-Serif" font-size="10.00">boost::static_visitor</text>
<text text-anchor="start" x="34.5" y="-206" font-family="Helvetica,sans-Serif" font-size="10.00">&lt; boost::variant&lt; int,</text>
<text text-anchor="start" x="34.5" y="-195" font-family="Helvetica,sans-Serif" font-size="10.00"> std::string, double,</text>
<text text-anchor="middle" x="80" y="-184" font-family="Helvetica,sans-Serif" font-size="10.00"> uint64_t &gt; &gt;</text>
<polyline fill="none" stroke="#bfbfbf" points="26.5,-177 133.5,-177 "/>
<text text-anchor="middle" x="80" y="-165" font-family="Helvetica,sans-Serif" font-size="10.00"> </text>
<polyline fill="none" stroke="#bfbfbf" points="26.5,-158 133.5,-158 "/>
<text text-anchor="middle" x="80" y="-146" font-family="Helvetica,sans-Serif" font-size="10.00"> </text>
</g>
<!-- Node2&#45;&gt;Node1 -->
<g id="edge1" class="edge"><title>Node2&#45;&gt;Node1</title>
<path fill="none" stroke="midnightblue" d="M80,-128.422C80,-119.569 80,-110.442 80,-101.712"/>
<polygon fill="none" stroke="midnightblue" points="76.5001,-128.649 80,-138.649 83.5001,-128.649 76.5001,-128.649"/>
</g>
</g>
</svg>
