<?xml version="1.0" encoding="UTF-8" standalone="no"?>
<!DOCTYPE svg PUBLIC "-//W3C//DTD SVG 1.1//EN"
 "http://www.w3.org/Graphics/SVG/1.1/DTD/svg11.dtd">
<!-- Generated by graphviz version 2.36.0 (20140111.2315)
 -->
<!-- Title: /home/travis/build/AliceO2Group/Monitoring/examples/9&#45;Timer.cxx Pages: 1 -->
<!--zoomable 386 -->
<svg id="main" version="1.1" xmlns="http://www.w3.org/2000/svg" xmlns:xlink="http://www.w3.org/1999/xlink" xml:space="preserve" onload="init(evt)">
<style type="text/css"><![CDATA[
.edge:hover path { stroke: red; }
.edge:hover polygon { stroke: red; fill: red; }
]]></style>
<script type="text/javascript"><![CDATA[
var edges = document.getElementsByTagName('g');
if (edges && edges.length) {
  for (var i=0;i<edges.length;i++) {
    if (edges[i].id.substr(0,4)=='edge') {
      edges[i].setAttribute('class','edge');
    }
  }
}
]]></script>
        <defs>
                <circle id="rim" cx="0" cy="0" r="7"/>
                <circle id="rim2" cx="0" cy="0" r="3.5"/>
                <g id="zoomPlus">
                        <use xlink:href="#rim" fill="#404040">
                                <set attributeName="fill" to="#808080" begin="zoomplus.mouseover" end="zoomplus.mouseout"/>
                        </use>
                        <path d="M-4,0h8M0,-4v8" fill="none" stroke="white" stroke-width="1.5" pointer-events="none"/>
                </g>
                <g id="zoomMin">
                        <use xlink:href="#rim" fill="#404040">
                                <set attributeName="fill" to="#808080" begin="zoomminus.mouseover" end="zoomminus.mouseout"/>
                        </use>
                        <path d="M-4,0h8" fill="none" stroke="white" stroke-width="1.5" pointer-events="none"/>
                </g>
                <g id="dirArrow">
                        <path fill="none" stroke="white" stroke-width="1.5" d="M0,-3.0v7 M-2.5,-0.5L0,-3.0L2.5,-0.5"/>
                </g>
               <g id="resetDef">
                       <use xlink:href="#rim2" fill="#404040">
                               <set attributeName="fill" to="#808080" begin="reset.mouseover" end="reset.mouseout"/>
                       </use>
               </g>
        </defs>

<script type="text/javascript">
var viewWidth = 1158;
var viewHeight = 386;
var sectionId = 'dynsection-0';
</script>
<script xlink:href="../../svgpan.js"/>
<svg id="graph" class="graph">
<g id="viewport">
<title>/home/travis/build/AliceO2Group/Monitoring/examples/9&#45;Timer.cxx</title>
<!-- Node1 -->
<g id="node1" class="node"><title>Node1</title>
<polygon fill="#bfbfbf" stroke="black" points="62,-336.5 62,-377.5 190,-377.5 190,-336.5 62,-336.5"/>
<text text-anchor="start" x="70" y="-365.5" font-family="Helvetica,sans-Serif" font-size="10.00">/home/travis/build</text>
<text text-anchor="start" x="70" y="-354.5" font-family="Helvetica,sans-Serif" font-size="10.00">/AliceO2Group/Monitoring</text>
<text text-anchor="middle" x="126" y="-343.5" font-family="Helvetica,sans-Serif" font-size="10.00">/examples/9&#45;Timer.cxx</text>
</g>
<!-- Node2 -->
<g id="node2" class="node"><title>Node2</title>
<g id="a_node2"><a xlink:href="../../df/d4e/MonitoringFactory_8h.html" target="_top" xlink:title="Monitoring/MonitoringFactory.h">
<polygon fill="none" stroke="black" points="177.5,-280.5 177.5,-299.5 328.5,-299.5 328.5,-280.5 177.5,-280.5"/>
<text text-anchor="middle" x="253" y="-287.5" font-family="Helvetica,sans-Serif" font-size="10.00">Monitoring/MonitoringFactory.h</text>
</a>
</g>
</g>
<!-- Node1&#45;&gt;Node2 -->
<g id="edge1" class="edge"><title>Node1&#45;&gt;Node2</title>
<path fill="none" stroke="midnightblue" d="M164.104,-336.498C184.325,-326.149 208.658,-313.695 226.751,-304.435"/>
<polygon fill="midnightblue" stroke="midnightblue" points="228.787,-307.324 236.094,-299.652 225.598,-301.093 228.787,-307.324"/>
</g>
<!-- Node5 -->
<g id="node5" class="node"><title>Node5</title>
<polygon fill="none" stroke="#bfbfbf" points="27,-56.5 27,-75.5 73,-75.5 73,-56.5 27,-56.5"/>
<text text-anchor="middle" x="50" y="-63.5" font-family="Helvetica,sans-Serif" font-size="10.00">chrono</text>
</g>
<!-- Node1&#45;&gt;Node5 -->
<g id="edge38" class="edge"><title>Node1&#45;&gt;Node5</title>
<path fill="none" stroke="midnightblue" d="M82.6379,-336.31C46.1906,-316.451 0,-282.009 0,-235 0,-235 0,-235 0,-177 0,-141.184 22.2399,-104.214 37.0547,-83.5601"/>
<polygon fill="midnightblue" stroke="midnightblue" points="39.8779,-85.6289 43.0477,-75.5193 34.2654,-81.4456 39.8779,-85.6289"/>
</g>
<!-- Node3 -->
<g id="node3" class="node"><title>Node3</title>
<g id="a_node3"><a xlink:href="../../d0/d98/Monitoring_8h.html" target="_top" xlink:title="Monitoring/Monitoring.h">
<polygon fill="none" stroke="black" points="343,-224.5 343,-243.5 461,-243.5 461,-224.5 343,-224.5"/>
<text text-anchor="middle" x="402" y="-231.5" font-family="Helvetica,sans-Serif" font-size="10.00">Monitoring/Monitoring.h</text>
</a>
</g>
</g>
<!-- Node2&#45;&gt;Node3 -->
<g id="edge2" class="edge"><title>Node2&#45;&gt;Node3</title>
<path fill="none" stroke="midnightblue" d="M276.609,-280.444C301.458,-271.438 340.774,-257.189 368.754,-247.049"/>
<polygon fill="midnightblue" stroke="midnightblue" points="370.292,-250.214 378.501,-243.516 367.907,-243.633 370.292,-250.214"/>
</g>
<!-- Node4 -->
<g id="node4" class="node"><title>Node4</title>
<polygon fill="none" stroke="#bfbfbf" points="1104,-112.5 1104,-131.5 1150,-131.5 1150,-112.5 1104,-112.5"/>
<text text-anchor="middle" x="1127" y="-119.5" font-family="Helvetica,sans-Serif" font-size="10.00">atomic</text>
</g>
<!-- Node3&#45;&gt;Node4 -->
<g id="edge3" class="edge"><title>Node3&#45;&gt;Node4</title>
<path fill="none" stroke="midnightblue" d="M461.356,-232.068C558.395,-229.605 756.666,-220.64 921,-188 984.581,-175.372 1056.22,-150.163 1096.04,-135.12"/>
<polygon fill="midnightblue" stroke="midnightblue" points="1097.36,-138.363 1105.46,-131.529 1094.87,-131.823 1097.36,-138.363"/>
</g>
<!-- Node3&#45;&gt;Node5 -->
<g id="edge4" class="edge"><title>Node3&#45;&gt;Node5</title>
<path fill="none" stroke="midnightblue" d="M342.662,-233.98C254.331,-234.055 94.5994,-228.405 57,-188 31.2875,-160.369 38.171,-112.053 44.5952,-85.6053"/>
<polygon fill="midnightblue" stroke="midnightblue" points="48.0328,-86.2974 47.224,-75.7335 41.2685,-84.4961 48.0328,-86.2974"/>
</g>
<!-- Node6 -->
<g id="node6" class="node"><title>Node6</title>
<polygon fill="none" stroke="#bfbfbf" points="771.5,-168.5 771.5,-187.5 806.5,-187.5 806.5,-168.5 771.5,-168.5"/>
<text text-anchor="middle" x="789" y="-175.5" font-family="Helvetica,sans-Serif" font-size="10.00">map</text>
</g>
<!-- Node3&#45;&gt;Node6 -->
<g id="edge5" class="edge"><title>Node3&#45;&gt;Node6</title>
<path fill="none" stroke="midnightblue" d="M461.232,-229.196C530.982,-223.918 650.327,-212.388 761.391,-187.686"/>
<polygon fill="midnightblue" stroke="midnightblue" points="762.443,-191.036 771.423,-185.413 760.897,-184.209 762.443,-191.036"/>
</g>
<!-- Node7 -->
<g id="node7" class="node"><title>Node7</title>
<polygon fill="none" stroke="#bfbfbf" points="180,-112.5 180,-131.5 232,-131.5 232,-112.5 180,-112.5"/>
<text text-anchor="middle" x="206" y="-119.5" font-family="Helvetica,sans-Serif" font-size="10.00">memory</text>
</g>
<!-- Node3&#45;&gt;Node7 -->
<g id="edge6" class="edge"><title>Node3&#45;&gt;Node7</title>
<path fill="none" stroke="midnightblue" d="M381.741,-224.478C362.03,-215.96 331.419,-202.13 306,-188 277.436,-172.122 246.083,-151.116 226.237,-137.34"/>
<polygon fill="midnightblue" stroke="midnightblue" points="228.18,-134.428 217.98,-131.564 224.168,-140.164 228.18,-134.428"/>
</g>
<!-- Node8 -->
<g id="node8" class="node"><title>Node8</title>
<polygon fill="none" stroke="#bfbfbf" points="286.5,-0.5 286.5,-19.5 327.5,-19.5 327.5,-0.5 286.5,-0.5"/>
<text text-anchor="middle" x="307" y="-7.5" font-family="Helvetica,sans-Serif" font-size="10.00">string</text>
</g>
<!-- Node3&#45;&gt;Node8 -->
<g id="edge7" class="edge"><title>Node3&#45;&gt;Node8</title>
<path fill="none" stroke="midnightblue" d="M342.851,-226.315C286.875,-216.405 206.318,-191.966 171,-132 140.841,-80.7929 228.369,-39.5269 276.963,-21.2271"/>
<polygon fill="midnightblue" stroke="midnightblue" points="278.211,-24.4975 286.401,-17.7761 275.807,-17.9232 278.211,-24.4975"/>
</g>
<!-- Node9 -->
<g id="node9" class="node"><title>Node9</title>
<polygon fill="none" stroke="#bfbfbf" points="1042,-112.5 1042,-131.5 1086,-131.5 1086,-112.5 1042,-112.5"/>
<text text-anchor="middle" x="1064" y="-119.5" font-family="Helvetica,sans-Serif" font-size="10.00">thread</text>
</g>
<!-- Node3&#45;&gt;Node9 -->
<g id="edge8" class="edge"><title>Node3&#45;&gt;Node9</title>
<path fill="none" stroke="midnightblue" d="M461.284,-231.7C551.077,-228.75 726.522,-219.151 872,-188 930.977,-175.371 997.041,-150.519 1034.27,-135.47"/>
<polygon fill="midnightblue" stroke="midnightblue" points="1036.04,-138.526 1043.98,-131.503 1033.39,-132.047 1036.04,-138.526"/>
</g>
<!-- Node10 -->
<g id="node10" class="node"><title>Node10</title>
<polygon fill="none" stroke="#bfbfbf" points="825,-168.5 825,-187.5 863,-187.5 863,-168.5 825,-168.5"/>
<text text-anchor="middle" x="844" y="-175.5" font-family="Helvetica,sans-Serif" font-size="10.00">tuple</text>
</g>
<!-- Node3&#45;&gt;Node10 -->
<g id="edge9" class="edge"><title>Node3&#45;&gt;Node10</title>
<path fill="none" stroke="midnightblue" d="M461.032,-230.144C541.689,-225.432 690.533,-213.844 815,-188 815.1,-187.979 815.2,-187.958 815.3,-187.937"/>
<polygon fill="midnightblue" stroke="midnightblue" points="815.961,-191.38 824.792,-185.527 814.239,-184.596 815.961,-191.38"/>
</g>
<!-- Node11 -->
<g id="node11" class="node"><title>Node11</title>
<polygon fill="none" stroke="#bfbfbf" points="250.5,-112.5 250.5,-131.5 333.5,-131.5 333.5,-112.5 250.5,-112.5"/>
<text text-anchor="middle" x="292" y="-119.5" font-family="Helvetica,sans-Serif" font-size="10.00">unordered_map</text>
</g>
<!-- Node3&#45;&gt;Node11 -->
<g id="edge10" class="edge"><title>Node3&#45;&gt;Node11</title>
<path fill="none" stroke="midnightblue" d="M379.113,-224.41C361.859,-216.972 338.584,-204.762 323,-188 310.518,-174.575 302.164,-155.205 297.305,-141.105"/>
<polygon fill="midnightblue" stroke="midnightblue" points="300.628,-140.002 294.26,-131.535 293.957,-142.125 300.628,-140.002"/>
</g>
<!-- Node12 -->
<g id="node12" class="node"><title>Node12</title>
<polygon fill="none" stroke="#bfbfbf" points="521,-56.5 521,-75.5 565,-75.5 565,-56.5 521,-56.5"/>
<text text-anchor="middle" x="543" y="-63.5" font-family="Helvetica,sans-Serif" font-size="10.00">vector</text>
</g>
<!-- Node3&#45;&gt;Node12 -->
<g id="edge11" class="edge"><title>Node3&#45;&gt;Node12</title>
<path fill="none" stroke="midnightblue" d="M422.21,-224.456C438.997,-216.672 462.825,-203.967 480,-188 511.115,-159.075 529.557,-111.279 537.809,-85.2577"/>
<polygon fill="midnightblue" stroke="midnightblue" points="541.198,-86.1419 540.729,-75.5575 534.495,-84.1241 541.198,-86.1419"/>
</g>
<!-- Node13 -->
<g id="node13" class="node"><title>Node13</title>
<g id="a_node13"><a xlink:href="../../df/d83/Backend_8h.html" target="_top" xlink:title="Monitoring/Backend.h">
<polygon fill="none" stroke="black" points="66.5,-168.5 66.5,-187.5 177.5,-187.5 177.5,-168.5 66.5,-168.5"/>
<text text-anchor="middle" x="122" y="-175.5" font-family="Helvetica,sans-Serif" font-size="10.00">Monitoring/Backend.h</text>
</a>
</g>
</g>
<!-- Node3&#45;&gt;Node13 -->
<g id="edge12" class="edge"><title>Node3&#45;&gt;Node13</title>
<path fill="none" stroke="midnightblue" d="M357.633,-224.444C308.378,-214.944 228.872,-199.611 176.029,-189.42"/>
<polygon fill="midnightblue" stroke="midnightblue" points="176.641,-185.974 166.159,-187.516 175.316,-192.847 176.641,-185.974"/>
</g>
<!-- Node17 -->
<g id="node17" class="node"><title>Node17</title>
<g id="a_node17"><a xlink:href="../../dc/de0/DerivedMetrics_8h.html" target="_top" xlink:title="Monitoring/DerivedMetrics.h">
<polygon fill="none" stroke="black" points="332.5,-168.5 332.5,-187.5 471.5,-187.5 471.5,-168.5 332.5,-168.5"/>
<text text-anchor="middle" x="402" y="-175.5" font-family="Helvetica,sans-Serif" font-size="10.00">Monitoring/DerivedMetrics.h</text>
</a>
</g>
</g>
<!-- Node3&#45;&gt;Node17 -->
<g id="edge22" class="edge"><title>Node3&#45;&gt;Node17</title>
<path fill="none" stroke="midnightblue" d="M402,-224.083C402,-217.006 402,-206.861 402,-197.986"/>
<polygon fill="midnightblue" stroke="midnightblue" points="405.5,-197.751 402,-187.751 398.5,-197.751 405.5,-197.751"/>
</g>
<!-- Node18 -->
<g id="node18" class="node"><title>Node18</title>
<g id="a_node18"><a xlink:href="../../df/d93/ProcessMonitor_8h.html" target="_top" xlink:title="Monitoring/ProcessMonitor.h">
<polygon fill="none" stroke="black" points="612.5,-168.5 612.5,-187.5 753.5,-187.5 753.5,-168.5 612.5,-168.5"/>
<text text-anchor="middle" x="683" y="-175.5" font-family="Helvetica,sans-Serif" font-size="10.00">Monitoring/ProcessMonitor.h</text>
</a>
</g>
</g>
<!-- Node3&#45;&gt;Node18 -->
<g id="edge28" class="edge"><title>Node3&#45;&gt;Node18</title>
<path fill="none" stroke="midnightblue" d="M446.525,-224.444C495.956,-214.944 575.746,-199.611 628.778,-189.42"/>
<polygon fill="midnightblue" stroke="midnightblue" points="629.523,-192.841 638.683,-187.516 628.202,-185.967 629.523,-192.841"/>
</g>
<!-- Node13&#45;&gt;Node5 -->
<g id="edge13" class="edge"><title>Node13&#45;&gt;Node5</title>
<path fill="none" stroke="midnightblue" d="M116.35,-168.368C104.468,-150.215 76.7065,-107.802 61.1208,-83.9902"/>
<polygon fill="midnightblue" stroke="midnightblue" points="64.0286,-82.0416 55.6235,-75.5914 58.1717,-85.8753 64.0286,-82.0416"/>
</g>
<!-- Node13&#45;&gt;Node8 -->
<g id="edge14" class="edge"><title>Node13&#45;&gt;Node8</title>
<path fill="none" stroke="midnightblue" d="M120.238,-168.392C116.314,-146.592 109.324,-88.6287 138,-56 156.1,-35.4048 232.778,-21.4716 276.371,-15.0511"/>
<polygon fill="midnightblue" stroke="midnightblue" points="277.022,-18.4937 286.428,-13.6167 276.034,-11.5638 277.022,-18.4937"/>
</g>
<!-- Node14 -->
<g id="node14" class="node"><title>Node14</title>
<g id="a_node14"><a xlink:href="../../d9/d92/Metric_8h.html" target="_top" xlink:title="Monitoring/Metric.h">
<polygon fill="none" stroke="black" points="352,-112.5 352,-131.5 452,-131.5 452,-112.5 352,-112.5"/>
<text text-anchor="middle" x="402" y="-119.5" font-family="Helvetica,sans-Serif" font-size="10.00">Monitoring/Metric.h</text>
</a>
</g>
</g>
<!-- Node13&#45;&gt;Node14 -->
<g id="edge15" class="edge"><title>Node13&#45;&gt;Node14</title>
<path fill="none" stroke="midnightblue" d="M166.367,-168.444C215.622,-158.944 295.128,-143.611 347.971,-133.42"/>
<polygon fill="midnightblue" stroke="midnightblue" points="348.684,-136.847 357.841,-131.516 347.359,-129.974 348.684,-136.847"/>
</g>
<!-- Node14&#45;&gt;Node5 -->
<g id="edge17" class="edge"><title>Node14&#45;&gt;Node5</title>
<path fill="none" stroke="midnightblue" d="M351.941,-113.32C278.914,-102.118 145.14,-81.5954 83.1526,-72.0859"/>
<polygon fill="midnightblue" stroke="midnightblue" points="83.556,-68.6069 73.1409,-70.55 82.4945,-75.526 83.556,-68.6069"/>
</g>
<!-- Node14&#45;&gt;Node8 -->
<g id="edge16" class="edge"><title>Node14&#45;&gt;Node8</title>
<path fill="none" stroke="midnightblue" d="M390.718,-112.424C379.861,-103.867 363.322,-90.0085 351,-76 337.964,-61.1797 325.594,-42.3218 317.309,-28.7396"/>
<polygon fill="midnightblue" stroke="midnightblue" points="320.175,-26.7119 312.048,-19.9152 314.163,-30.2968 320.175,-26.7119"/>
</g>
<!-- Node14&#45;&gt;Node12 -->
<g id="edge18" class="edge"><title>Node14&#45;&gt;Node12</title>
<path fill="none" stroke="midnightblue" d="M424.342,-112.444C447.753,-103.478 484.736,-89.314 511.19,-79.1827"/>
<polygon fill="midnightblue" stroke="midnightblue" points="512.676,-82.3615 520.763,-75.5164 510.172,-75.8245 512.676,-82.3615"/>
</g>
<!-- Node15 -->
<g id="node15" class="node"><title>Node15</title>
<polygon fill="none" stroke="#bfbfbf" points="360,-56.5 360,-75.5 452,-75.5 452,-56.5 360,-56.5"/>
<text text-anchor="middle" x="406" y="-63.5" font-family="Helvetica,sans-Serif" font-size="10.00">boost/variant.hpp</text>
</g>
<!-- Node14&#45;&gt;Node15 -->
<g id="edge19" class="edge"><title>Node14&#45;&gt;Node15</title>
<path fill="none" stroke="midnightblue" d="M402.661,-112.083C403.185,-105.006 403.936,-94.8611 404.594,-85.9865"/>
<polygon fill="midnightblue" stroke="midnightblue" points="408.103,-85.9823 405.352,-75.7511 401.123,-85.4652 408.103,-85.9823"/>
</g>
<!-- Node16 -->
<g id="node16" class="node"><title>Node16</title>
<g id="a_node16"><a xlink:href="../../d9/d33/Tag_8h.html" target="_top" xlink:title="Tag.h">
<polygon fill="none" stroke="black" points="262.5,-56.5 262.5,-75.5 303.5,-75.5 303.5,-56.5 262.5,-56.5"/>
<text text-anchor="middle" x="283" y="-63.5" font-family="Helvetica,sans-Serif" font-size="10.00">Tag.h</text>
</a>
</g>
</g>
<!-- Node14&#45;&gt;Node16 -->
<g id="edge20" class="edge"><title>Node14&#45;&gt;Node16</title>
<path fill="none" stroke="midnightblue" d="M383.144,-112.444C363.734,-103.636 333.27,-89.8116 311.035,-79.722"/>
<polygon fill="midnightblue" stroke="midnightblue" points="312.32,-76.4615 301.768,-75.5164 309.428,-82.836 312.32,-76.4615"/>
</g>
<!-- Node16&#45;&gt;Node8 -->
<g id="edge21" class="edge"><title>Node16&#45;&gt;Node8</title>
<path fill="none" stroke="midnightblue" d="M286.963,-56.083C290.213,-48.77 294.919,-38.1814 298.954,-29.1034"/>
<polygon fill="midnightblue" stroke="midnightblue" points="302.248,-30.3107 303.111,-19.7511 295.851,-27.4677 302.248,-30.3107"/>
</g>
<!-- Node17&#45;&gt;Node7 -->
<g id="edge24" class="edge"><title>Node17&#45;&gt;Node7</title>
<path fill="none" stroke="midnightblue" d="M370.943,-168.444C335.917,-158.793 279.035,-143.122 242.07,-132.938"/>
<polygon fill="midnightblue" stroke="midnightblue" points="242.778,-129.502 232.207,-130.22 240.918,-136.251 242.778,-129.502"/>
</g>
<!-- Node17&#45;&gt;Node8 -->
<g id="edge25" class="edge"><title>Node17&#45;&gt;Node8</title>
<path fill="none" stroke="midnightblue" d="M420.984,-168.398C434.886,-160.954 452.714,-148.741 461,-132 475.984,-101.727 481.26,-83.0273 461,-56 446.207,-36.2661 378.191,-22.301 337.663,-15.5664"/>
<polygon fill="midnightblue" stroke="midnightblue" points="338.186,-12.1057 327.757,-13.973 337.074,-19.0168 338.186,-12.1057"/>
</g>
<!-- Node17&#45;&gt;Node11 -->
<g id="edge23" class="edge"><title>Node17&#45;&gt;Node11</title>
<path fill="none" stroke="midnightblue" d="M384.327,-168.324C366.606,-159.625 339.097,-146.12 318.712,-136.113"/>
<polygon fill="midnightblue" stroke="midnightblue" points="320.149,-132.919 309.63,-131.655 317.064,-139.203 320.149,-132.919"/>
</g>
<!-- Node17&#45;&gt;Node12 -->
<g id="edge26" class="edge"><title>Node17&#45;&gt;Node12</title>
<path fill="none" stroke="midnightblue" d="M427.27,-168.366C446.869,-160.835 473.977,-148.522 494,-132 510.296,-118.554 524.27,-98.6448 533.076,-84.4071"/>
<polygon fill="midnightblue" stroke="midnightblue" points="536.207,-85.9891 538.312,-75.6054 530.191,-82.4102 536.207,-85.9891"/>
</g>
<!-- Node17&#45;&gt;Node14 -->
<g id="edge27" class="edge"><title>Node17&#45;&gt;Node14</title>
<path fill="none" stroke="midnightblue" d="M402,-168.083C402,-161.006 402,-150.861 402,-141.986"/>
<polygon fill="midnightblue" stroke="midnightblue" points="405.5,-141.751 402,-131.751 398.5,-141.751 405.5,-141.751"/>
</g>
<!-- Node18&#45;&gt;Node4 -->
<g id="edge29" class="edge"><title>Node18&#45;&gt;Node4</title>
<path fill="none" stroke="midnightblue" d="M753.633,-168.934C756.459,-168.617 759.256,-168.305 762,-168 906.342,-151.952 946.459,-159.279 1093.81,-131.72"/>
<polygon fill="midnightblue" stroke="midnightblue" points="1094.5,-135.152 1103.67,-129.853 1093.19,-128.274 1094.5,-135.152"/>
</g>
<!-- Node18&#45;&gt;Node8 -->
<g id="edge33" class="edge"><title>Node18&#45;&gt;Node8</title>
<path fill="none" stroke="midnightblue" d="M676.434,-168.43C656.966,-143.251 599.281,-70.367 573,-56 532.874,-34.0643 399.19,-19.41 338.027,-13.692"/>
<polygon fill="midnightblue" stroke="midnightblue" points="338.108,-10.1849 327.83,-12.7591 337.47,-17.1558 338.108,-10.1849"/>
</g>
<!-- Node18&#45;&gt;Node9 -->
<g id="edge34" class="edge"><title>Node18&#45;&gt;Node9</title>
<path fill="none" stroke="midnightblue" d="M753.432,-168.478C840.504,-157.862 982.311,-140.288 1031.7,-131.619"/>
<polygon fill="midnightblue" stroke="midnightblue" points="1032.55,-135.02 1041.72,-129.714 1031.24,-128.143 1032.55,-135.02"/>
</g>
<!-- Node18&#45;&gt;Node12 -->
<g id="edge35" class="edge"><title>Node18&#45;&gt;Node12</title>
<path fill="none" stroke="midnightblue" d="M669.754,-168.441C656.404,-159.674 635.351,-145.461 618,-132 597.324,-115.959 574.784,-96.0739 559.868,-82.5513"/>
<polygon fill="midnightblue" stroke="midnightblue" points="562.172,-79.9152 552.426,-75.7582 557.452,-85.0851 562.172,-79.9152"/>
</g>
<!-- Node18&#45;&gt;Node14 -->
<g id="edge37" class="edge"><title>Node18&#45;&gt;Node14</title>
<path fill="none" stroke="midnightblue" d="M638.475,-168.444C589.044,-158.944 509.254,-143.611 456.222,-133.42"/>
<polygon fill="midnightblue" stroke="midnightblue" points="456.798,-129.967 446.317,-131.516 455.477,-136.841 456.798,-129.967"/>
</g>
<!-- Node19 -->
<g id="node19" class="node"><title>Node19</title>
<polygon fill="none" stroke="#bfbfbf" points="660.5,-112.5 660.5,-131.5 789.5,-131.5 789.5,-112.5 660.5,-112.5"/>
<text text-anchor="middle" x="725" y="-119.5" font-family="Helvetica,sans-Serif" font-size="10.00">boost/algorithm/string.hpp</text>
</g>
<!-- Node18&#45;&gt;Node19 -->
<g id="edge30" class="edge"><title>Node18&#45;&gt;Node19</title>
<path fill="none" stroke="midnightblue" d="M689.935,-168.083C695.929,-160.377 704.752,-149.033 712.048,-139.653"/>
<polygon fill="midnightblue" stroke="midnightblue" points="714.817,-141.793 718.194,-131.751 709.291,-137.496 714.817,-141.793"/>
</g>
<!-- Node20 -->
<g id="node20" class="node"><title>Node20</title>
<polygon fill="none" stroke="#bfbfbf" points="808,-112.5 808,-131.5 852,-131.5 852,-112.5 808,-112.5"/>
<text text-anchor="middle" x="830" y="-119.5" font-family="Helvetica,sans-Serif" font-size="10.00">mutex</text>
</g>
<!-- Node18&#45;&gt;Node20 -->
<g id="edge31" class="edge"><title>Node18&#45;&gt;Node20</title>
<path fill="none" stroke="midnightblue" d="M706.293,-168.444C731.096,-159.332 770.511,-144.853 798.169,-134.693"/>
<polygon fill="midnightblue" stroke="midnightblue" points="799.599,-137.897 807.779,-131.163 797.185,-131.326 799.599,-137.897"/>
</g>
<!-- Node21 -->
<g id="node21" class="node"><title>Node21</title>
<polygon fill="none" stroke="#bfbfbf" points="870,-112.5 870,-131.5 924,-131.5 924,-112.5 870,-112.5"/>
<text text-anchor="middle" x="897" y="-119.5" font-family="Helvetica,sans-Serif" font-size="10.00">iostream</text>
</g>
<!-- Node18&#45;&gt;Node21 -->
<g id="edge32" class="edge"><title>Node18&#45;&gt;Node21</title>
<path fill="none" stroke="midnightblue" d="M716.909,-168.444C755.914,-158.601 819.74,-142.496 860.002,-132.336"/>
<polygon fill="midnightblue" stroke="midnightblue" points="860.861,-135.729 869.701,-129.889 859.148,-128.942 860.861,-135.729"/>
</g>
<!-- Node22 -->
<g id="node22" class="node"><title>Node22</title>
<polygon fill="none" stroke="#bfbfbf" points="942.5,-112.5 942.5,-131.5 1023.5,-131.5 1023.5,-112.5 942.5,-112.5"/>
<text text-anchor="middle" x="983" y="-119.5" font-family="Helvetica,sans-Serif" font-size="10.00">sys/resource.h</text>
</g>
<!-- Node18&#45;&gt;Node22 -->
<g id="edge36" class="edge"><title>Node18&#45;&gt;Node22</title>
<path fill="none" stroke="midnightblue" d="M730.536,-168.444C785.596,-158.533 875.939,-142.271 932.308,-132.125"/>
<polygon fill="midnightblue" stroke="midnightblue" points="933.199,-135.52 942.421,-130.304 931.959,-128.631 933.199,-135.52"/>
</g>
</g>
</svg>
        <g id="navigator" transform="translate(0 0)" fill="#404254">
                <rect fill="#f2f5e9" fill-opacity="0.5" stroke="#606060" stroke-width=".5" x="0" y="0" width="60" height="60"/>
                <use id="zoomplus" xlink:href="#zoomPlus" x="17" y="9" onmousedown="handleZoom(evt,'in')"/>
                <use id="zoomminus" xlink:href="#zoomMin" x="42" y="9" onmousedown="handleZoom(evt,'out')"/>
                <use id="reset" xlink:href="#resetDef" x="30" y="36" onmousedown="handleReset()"/>
                <g id="arrowUp" xlink:href="#dirArrow" transform="translate(30 24)" onmousedown="handlePan(0,-1)">
                  <use xlink:href="#rim" fill="#404040">
                        <set attributeName="fill" to="#808080" begin="arrowUp.mouseover" end="arrowUp.mouseout"/>
                  </use>
                  <path fill="none" stroke="white" stroke-width="1.5" d="M0,-3.0v7 M-2.5,-0.5L0,-3.0L2.5,-0.5"/>
                </g>
                <g id="arrowRight" xlink:href="#dirArrow" transform="rotate(90) translate(36 -43)" onmousedown="handlePan(1,0)">
                  <use xlink:href="#rim" fill="#404040">
                        <set attributeName="fill" to="#808080" begin="arrowRight.mouseover" end="arrowRight.mouseout"/>
                  </use>
                  <path fill="none" stroke="white" stroke-width="1.5" d="M0,-3.0v7 M-2.5,-0.5L0,-3.0L2.5,-0.5"/>
                </g>
                <g id="arrowDown" xlink:href="#dirArrow" transform="rotate(180) translate(-30 -48)" onmousedown="handlePan(0,1)">
                  <use xlink:href="#rim" fill="#404040">
                        <set attributeName="fill" to="#808080" begin="arrowDown.mouseover" end="arrowDown.mouseout"/>
                  </use>
                  <path fill="none" stroke="white" stroke-width="1.5" d="M0,-3.0v7 M-2.5,-0.5L0,-3.0L2.5,-0.5"/>
                </g>
                <g id="arrowLeft" xlink:href="#dirArrow" transform="rotate(270) translate(-36 17)" onmousedown="handlePan(-1,0)">
                  <use xlink:href="#rim" fill="#404040">
                        <set attributeName="fill" to="#808080" begin="arrowLeft.mouseover" end="arrowLeft.mouseout"/>
                  </use>
                  <path fill="none" stroke="white" stroke-width="1.5" d="M0,-3.0v7 M-2.5,-0.5L0,-3.0L2.5,-0.5"/>
                </g>
        </g>
        <svg viewBox="0 0 15 15" width="100%" height="30px" preserveAspectRatio="xMaxYMin meet">
         <g id="arrow_out" transform="scale(0.3 0.3)">
          <a xlink:href="9-Timer_8cxx__incl_org.svg" target="_base">
           <rect id="button" ry="5" rx="5" y="6" x="6" height="38" width="38"
                fill="#f2f5e9" fill-opacity="0.5" stroke="#606060" stroke-width="1.0"/>
           <path id="arrow"
             d="M 11.500037,31.436501 C 11.940474,20.09759 22.043105,11.32322 32.158766,21.979434 L 37.068811,17.246167 C 37.068811,17.246167 37.088388,32 37.088388,32 L 22.160133,31.978069 C 22.160133,31.978069 26.997745,27.140456 26.997745,27.140456 C 18.528582,18.264221 13.291696,25.230495 11.500037,31.436501 z"
             style="fill:#404040;"/>
          </a>
         </g>
        </svg>
</svg>
