<?xml version="1.0" encoding="UTF-8" standalone="no"?>
<!DOCTYPE svg PUBLIC "-//W3C//DTD SVG 1.1//EN"
 "http://www.w3.org/Graphics/SVG/1.1/DTD/svg11.dtd">
<!-- Generated by graphviz version 2.36.0 (20140111.2315)
 -->
<!-- Title: /home/travis/build/AliceO2Group/Monitoring/src/Exceptions/MonitoringException.cxx Pages: 1 -->
<svg width="359pt" height="162pt"
 viewBox="0.00 0.00 359.00 162.00" xmlns="http://www.w3.org/2000/svg" xmlns:xlink="http://www.w3.org/1999/xlink">
<g id="graph0" class="graph" transform="scale(1 1) rotate(0) translate(4 158)">
<title>/home/travis/build/AliceO2Group/Monitoring/src/Exceptions/MonitoringException.cxx</title>
<!-- Node1 -->
<g id="node1" class="node"><title>Node1</title>
<polygon fill="#bfbfbf" stroke="black" points="71.5,-112.5 71.5,-153.5 266.5,-153.5 266.5,-112.5 71.5,-112.5"/>
<text text-anchor="start" x="79.5" y="-141.5" font-family="Helvetica,sans-Serif" font-size="10.00">/home/travis/build</text>
<text text-anchor="start" x="79.5" y="-130.5" font-family="Helvetica,sans-Serif" font-size="10.00">/AliceO2Group/Monitoring</text>
<text text-anchor="middle" x="169" y="-119.5" font-family="Helvetica,sans-Serif" font-size="10.00">/src/Exceptions/MonitoringException.cxx</text>
</g>
<!-- Node2 -->
<g id="node2" class="node"><title>Node2</title>
<g id="a_node2"><a xlink:href="../../d1/d58/MonitoringException_8h.html" target="_top" xlink:title="MonitoringException.h">
<polygon fill="none" stroke="black" points="11.5,-56.5 11.5,-75.5 124.5,-75.5 124.5,-56.5 11.5,-56.5"/>
<text text-anchor="middle" x="68" y="-63.5" font-family="Helvetica,sans-Serif" font-size="10.00">MonitoringException.h</text>
</a>
</g>
</g>
<!-- Node1&#45;&gt;Node2 -->
<g id="edge1" class="edge"><title>Node1&#45;&gt;Node2</title>
<path fill="none" stroke="midnightblue" d="M138.697,-112.498C123.063,-102.436 104.336,-90.3849 90.0857,-81.2136"/>
<polygon fill="midnightblue" stroke="midnightblue" points="91.7479,-78.1211 81.4446,-75.6525 87.9596,-84.0075 91.7479,-78.1211"/>
</g>
<!-- Node5 -->
<g id="node5" class="node"><title>Node5</title>
<polygon fill="none" stroke="#bfbfbf" points="143,-56.5 143,-75.5 195,-75.5 195,-56.5 143,-56.5"/>
<text text-anchor="middle" x="169" y="-63.5" font-family="Helvetica,sans-Serif" font-size="10.00">sstream</text>
</g>
<!-- Node1&#45;&gt;Node5 -->
<g id="edge4" class="edge"><title>Node1&#45;&gt;Node5</title>
<path fill="none" stroke="midnightblue" d="M169,-112.498C169,-104.065 169,-94.2351 169,-85.874"/>
<polygon fill="midnightblue" stroke="midnightblue" points="172.5,-85.6525 169,-75.6525 165.5,-85.6525 172.5,-85.6525"/>
</g>
<!-- Node6 -->
<g id="node6" class="node"><title>Node6</title>
<g id="a_node6"><a xlink:href="../../df/de7/MonLogger_8h.html" target="_top" xlink:title="../MonLogger.h">
<polygon fill="none" stroke="black" points="213,-56.5 213,-75.5 295,-75.5 295,-56.5 213,-56.5"/>
<text text-anchor="middle" x="254" y="-63.5" font-family="Helvetica,sans-Serif" font-size="10.00">../MonLogger.h</text>
</a>
</g>
</g>
<!-- Node1&#45;&gt;Node6 -->
<g id="edge5" class="edge"><title>Node1&#45;&gt;Node6</title>
<path fill="none" stroke="midnightblue" d="M194.503,-112.498C207.41,-102.628 222.82,-90.8432 234.724,-81.7407"/>
<polygon fill="midnightblue" stroke="midnightblue" points="236.868,-84.5073 242.685,-75.6525 232.616,-78.9468 236.868,-84.5073"/>
</g>
<!-- Node3 -->
<g id="node3" class="node"><title>Node3</title>
<polygon fill="none" stroke="#bfbfbf" points="-0.5,-0.5 -0.5,-19.5 58.5,-19.5 58.5,-0.5 -0.5,-0.5"/>
<text text-anchor="middle" x="29" y="-7.5" font-family="Helvetica,sans-Serif" font-size="10.00">exception</text>
</g>
<!-- Node2&#45;&gt;Node3 -->
<g id="edge2" class="edge"><title>Node2&#45;&gt;Node3</title>
<path fill="none" stroke="midnightblue" d="M61.5599,-56.083C56.0511,-48.4554 47.9688,-37.2645 41.235,-27.9408"/>
<polygon fill="midnightblue" stroke="midnightblue" points="44.0126,-25.8087 35.3202,-19.7511 38.3378,-29.9071 44.0126,-25.8087"/>
</g>
<!-- Node4 -->
<g id="node4" class="node"><title>Node4</title>
<polygon fill="none" stroke="#bfbfbf" points="76.5,-0.5 76.5,-19.5 117.5,-19.5 117.5,-0.5 76.5,-0.5"/>
<text text-anchor="middle" x="97" y="-7.5" font-family="Helvetica,sans-Serif" font-size="10.00">string</text>
</g>
<!-- Node2&#45;&gt;Node4 -->
<g id="edge3" class="edge"><title>Node2&#45;&gt;Node4</title>
<path fill="none" stroke="midnightblue" d="M72.7888,-56.083C76.7584,-48.6913 82.5251,-37.9533 87.4348,-28.8111"/>
<polygon fill="midnightblue" stroke="midnightblue" points="90.6525,-30.217 92.3003,-19.7511 84.4855,-26.9051 90.6525,-30.217"/>
</g>
<!-- Node7 -->
<g id="node7" class="node"><title>Node7</title>
<polygon fill="none" stroke="#bfbfbf" points="165,-0.5 165,-19.5 211,-19.5 211,-0.5 165,-0.5"/>
<text text-anchor="middle" x="188" y="-7.5" font-family="Helvetica,sans-Serif" font-size="10.00">chrono</text>
</g>
<!-- Node6&#45;&gt;Node7 -->
<g id="edge6" class="edge"><title>Node6&#45;&gt;Node7</title>
<path fill="none" stroke="midnightblue" d="M243.396,-56.324C233.544,-48.2631 218.649,-36.0765 206.785,-26.3695"/>
<polygon fill="midnightblue" stroke="midnightblue" points="208.753,-23.4575 198.797,-19.8339 204.32,-28.8752 208.753,-23.4575"/>
</g>
<!-- Node8 -->
<g id="node8" class="node"><title>Node8</title>
<polygon fill="none" stroke="#bfbfbf" points="229,-0.5 229,-19.5 279,-19.5 279,-0.5 229,-0.5"/>
<text text-anchor="middle" x="254" y="-7.5" font-family="Helvetica,sans-Serif" font-size="10.00">iomanip</text>
</g>
<!-- Node6&#45;&gt;Node8 -->
<g id="edge7" class="edge"><title>Node6&#45;&gt;Node8</title>
<path fill="none" stroke="midnightblue" d="M254,-56.083C254,-49.0059 254,-38.8611 254,-29.9865"/>
<polygon fill="midnightblue" stroke="midnightblue" points="257.5,-29.751 254,-19.7511 250.5,-29.7511 257.5,-29.751"/>
</g>
<!-- Node9 -->
<g id="node9" class="node"><title>Node9</title>
<polygon fill="none" stroke="#bfbfbf" points="297,-0.5 297,-19.5 351,-19.5 351,-0.5 297,-0.5"/>
<text text-anchor="middle" x="324" y="-7.5" font-family="Helvetica,sans-Serif" font-size="10.00">iostream</text>
</g>
<!-- Node6&#45;&gt;Node9 -->
<g id="edge8" class="edge"><title>Node6&#45;&gt;Node9</title>
<path fill="none" stroke="midnightblue" d="M265.247,-56.324C275.797,-48.1849 291.801,-35.8395 304.442,-26.0874"/>
<polygon fill="midnightblue" stroke="midnightblue" points="306.769,-28.7132 312.549,-19.8339 302.493,-23.1707 306.769,-28.7132"/>
</g>
</g>
</svg>
