<?xml version="1.0" encoding="UTF-8" standalone="no"?>
<!DOCTYPE svg PUBLIC "-//W3C//DTD SVG 1.1//EN"
 "http://www.w3.org/Graphics/SVG/1.1/DTD/svg11.dtd">
<!-- Generated by graphviz version 2.36.0 (20140111.2315)
 -->
<!-- Title: /home/travis/build/AliceO2Group/Monitoring/src/Transports/TCP.cxx Pages: 1 -->
<svg width="836pt" height="230pt"
 viewBox="0.00 0.00 836.00 230.00" xmlns="http://www.w3.org/2000/svg" xmlns:xlink="http://www.w3.org/1999/xlink">
<g id="graph0" class="graph" transform="scale(1 1) rotate(0) translate(4 226)">
<title>/home/travis/build/AliceO2Group/Monitoring/src/Transports/TCP.cxx</title>
<!-- Node1 -->
<g id="node1" class="node"><title>Node1</title>
<polygon fill="#bfbfbf" stroke="black" points="545,-180.5 545,-221.5 673,-221.5 673,-180.5 545,-180.5"/>
<text text-anchor="start" x="553" y="-209.5" font-family="Helvetica,sans-Serif" font-size="10.00">/home/travis/build</text>
<text text-anchor="start" x="553" y="-198.5" font-family="Helvetica,sans-Serif" font-size="10.00">/AliceO2Group/Monitoring</text>
<text text-anchor="middle" x="609" y="-187.5" font-family="Helvetica,sans-Serif" font-size="10.00">/src/Transports/TCP.cxx</text>
</g>
<!-- Node2 -->
<g id="node2" class="node"><title>Node2</title>
<g id="a_node2"><a xlink:href="../../d3/d41/TCP_8h.html" target="_top" xlink:title="TCP.h">
<polygon fill="none" stroke="black" points="279.5,-118.5 279.5,-137.5 324.5,-137.5 324.5,-118.5 279.5,-118.5"/>
<text text-anchor="middle" x="302" y="-125.5" font-family="Helvetica,sans-Serif" font-size="10.00">TCP.h</text>
</a>
</g>
</g>
<!-- Node1&#45;&gt;Node2 -->
<g id="edge1" class="edge"><title>Node1&#45;&gt;Node2</title>
<path fill="none" stroke="midnightblue" d="M544.643,-185.116C480.461,-170.273 384.459,-148.07 334.634,-136.547"/>
<polygon fill="midnightblue" stroke="midnightblue" points="335.263,-133.1 324.731,-134.257 333.685,-139.92 335.263,-133.1"/>
</g>
<!-- Node4 -->
<g id="node4" class="node"><title>Node4</title>
<polygon fill="none" stroke="#bfbfbf" points="336.5,-0.5 336.5,-19.5 377.5,-19.5 377.5,-0.5 336.5,-0.5"/>
<text text-anchor="middle" x="357" y="-7.5" font-family="Helvetica,sans-Serif" font-size="10.00">string</text>
</g>
<!-- Node1&#45;&gt;Node4 -->
<g id="edge9" class="edge"><title>Node1&#45;&gt;Node4</title>
<path fill="none" stroke="midnightblue" d="M605.251,-180.404C598.106,-145.101 581.585,-72.9133 563,-56 537.597,-32.8824 438.749,-19.4769 387.778,-13.9666"/>
<polygon fill="midnightblue" stroke="midnightblue" points="387.982,-10.4689 377.672,-12.9099 387.254,-17.4309 387.982,-10.4689"/>
</g>
<!-- Node9 -->
<g id="node9" class="node"><title>Node9</title>
<polygon fill="none" stroke="#bfbfbf" points="610,-118.5 610,-137.5 664,-137.5 664,-118.5 610,-118.5"/>
<text text-anchor="middle" x="637" y="-125.5" font-family="Helvetica,sans-Serif" font-size="10.00">iostream</text>
</g>
<!-- Node1&#45;&gt;Node9 -->
<g id="edge10" class="edge"><title>Node1&#45;&gt;Node9</title>
<path fill="none" stroke="midnightblue" d="M616.8,-180.223C620.883,-169.868 625.848,-157.278 629.834,-147.171"/>
<polygon fill="midnightblue" stroke="midnightblue" points="633.142,-148.322 633.555,-137.735 626.631,-145.754 633.142,-148.322"/>
</g>
<!-- Node10 -->
<g id="node10" class="node"><title>Node10</title>
<g id="a_node10"><a xlink:href="../../dc/d75/MonitoringInternalException_8h.html" target="_top" xlink:title="Exceptions/MonitoringInternal\lException.h">
<polygon fill="none" stroke="black" points="682,-113 682,-143 828,-143 828,-113 682,-113"/>
<text text-anchor="start" x="690" y="-131" font-family="Helvetica,sans-Serif" font-size="10.00">Exceptions/MonitoringInternal</text>
<text text-anchor="middle" x="755" y="-120" font-family="Helvetica,sans-Serif" font-size="10.00">Exception.h</text>
</a>
</g>
</g>
<!-- Node1&#45;&gt;Node10 -->
<g id="edge11" class="edge"><title>Node1&#45;&gt;Node10</title>
<path fill="none" stroke="midnightblue" d="M649.282,-180.411C670.362,-170.16 696.031,-157.677 716.797,-147.578"/>
<polygon fill="midnightblue" stroke="midnightblue" points="718.496,-150.644 725.959,-143.123 715.435,-144.349 718.496,-150.644"/>
</g>
<!-- Node3 -->
<g id="node3" class="node"><title>Node3</title>
<g id="a_node3"><a xlink:href="../../de/dac/TransportInterface_8h.html" target="_top" xlink:title="TransportInterface.h">
<polygon fill="none" stroke="black" points="0,-56.5 0,-75.5 104,-75.5 104,-56.5 0,-56.5"/>
<text text-anchor="middle" x="52" y="-63.5" font-family="Helvetica,sans-Serif" font-size="10.00">TransportInterface.h</text>
</a>
</g>
</g>
<!-- Node2&#45;&gt;Node3 -->
<g id="edge2" class="edge"><title>Node2&#45;&gt;Node3</title>
<path fill="none" stroke="midnightblue" d="M279.373,-121.57C238.384,-111.732 151.127,-90.7905 97.4204,-77.9009"/>
<polygon fill="midnightblue" stroke="midnightblue" points="98.0165,-74.4446 87.4758,-75.5142 96.3828,-81.2513 98.0165,-74.4446"/>
</g>
<!-- Node2&#45;&gt;Node4 -->
<g id="edge8" class="edge"><title>Node2&#45;&gt;Node4</title>
<path fill="none" stroke="midnightblue" d="M279.406,-124.898C228.964,-119.346 114.393,-101.467 151,-56 172.647,-29.1134 274.192,-17.4193 326.171,-13.1248"/>
<polygon fill="midnightblue" stroke="midnightblue" points="326.768,-16.5888 336.464,-12.3179 326.221,-9.61019 326.768,-16.5888"/>
</g>
<!-- Node5 -->
<g id="node5" class="node"><title>Node5</title>
<polygon fill="none" stroke="#bfbfbf" points="160,-56.5 160,-75.5 244,-75.5 244,-56.5 160,-56.5"/>
<text text-anchor="middle" x="202" y="-63.5" font-family="Helvetica,sans-Serif" font-size="10.00">boost/array.hpp</text>
</g>
<!-- Node2&#45;&gt;Node5 -->
<g id="edge4" class="edge"><title>Node2&#45;&gt;Node5</title>
<path fill="none" stroke="midnightblue" d="M287.672,-118.403C271.336,-108.601 244.398,-92.4385 225.088,-80.8526"/>
<polygon fill="midnightblue" stroke="midnightblue" points="226.677,-77.7244 216.301,-75.5806 223.075,-83.7268 226.677,-77.7244"/>
</g>
<!-- Node6 -->
<g id="node6" class="node"><title>Node6</title>
<polygon fill="none" stroke="#bfbfbf" points="262,-56.5 262,-75.5 342,-75.5 342,-56.5 262,-56.5"/>
<text text-anchor="middle" x="302" y="-63.5" font-family="Helvetica,sans-Serif" font-size="10.00">boost/asio.hpp</text>
</g>
<!-- Node2&#45;&gt;Node6 -->
<g id="edge5" class="edge"><title>Node2&#45;&gt;Node6</title>
<path fill="none" stroke="midnightblue" d="M302,-118.403C302,-109.938 302,-96.7283 302,-85.8199"/>
<polygon fill="midnightblue" stroke="midnightblue" points="305.5,-85.5806 302,-75.5806 298.5,-85.5806 305.5,-85.5806"/>
</g>
<!-- Node7 -->
<g id="node7" class="node"><title>Node7</title>
<polygon fill="none" stroke="#bfbfbf" points="360.5,-56.5 360.5,-75.5 489.5,-75.5 489.5,-56.5 360.5,-56.5"/>
<text text-anchor="middle" x="425" y="-63.5" font-family="Helvetica,sans-Serif" font-size="10.00">boost/algorithm/string.hpp</text>
</g>
<!-- Node2&#45;&gt;Node7 -->
<g id="edge6" class="edge"><title>Node2&#45;&gt;Node7</title>
<path fill="none" stroke="midnightblue" d="M319.623,-118.403C340.174,-108.379 374.364,-91.7006 398.207,-80.0699"/>
<polygon fill="midnightblue" stroke="midnightblue" points="399.957,-83.1106 407.41,-75.5806 396.888,-76.8192 399.957,-83.1106"/>
</g>
<!-- Node8 -->
<g id="node8" class="node"><title>Node8</title>
<polygon fill="none" stroke="#bfbfbf" points="508,-56.5 508,-75.5 554,-75.5 554,-56.5 508,-56.5"/>
<text text-anchor="middle" x="531" y="-63.5" font-family="Helvetica,sans-Serif" font-size="10.00">chrono</text>
</g>
<!-- Node2&#45;&gt;Node8 -->
<g id="edge7" class="edge"><title>Node2&#45;&gt;Node8</title>
<path fill="none" stroke="midnightblue" d="M324.658,-121.196C361.18,-111.82 435.315,-92.7027 498,-76 498.1,-75.9732 498.201,-75.9464 498.302,-75.9196"/>
<polygon fill="midnightblue" stroke="midnightblue" points="499.183,-79.3069 507.93,-73.3286 497.364,-72.5474 499.183,-79.3069"/>
</g>
<!-- Node3&#45;&gt;Node4 -->
<g id="edge3" class="edge"><title>Node3&#45;&gt;Node4</title>
<path fill="none" stroke="midnightblue" d="M100.328,-56.4435C163.658,-45.2311 272.899,-25.89 326.095,-16.4717"/>
<polygon fill="midnightblue" stroke="midnightblue" points="327.021,-19.8622 336.258,-14.6723 325.801,-12.9694 327.021,-19.8622"/>
</g>
<!-- Node10&#45;&gt;Node4 -->
<g id="edge13" class="edge"><title>Node10&#45;&gt;Node4</title>
<path fill="none" stroke="midnightblue" d="M728.736,-112.972C697.802,-96.9972 644.474,-71.1565 596,-56 523.064,-33.1951 433.797,-20.1433 387.747,-14.4526"/>
<polygon fill="midnightblue" stroke="midnightblue" points="387.882,-10.9437 377.536,-13.2246 387.046,-17.8936 387.882,-10.9437"/>
</g>
<!-- Node11 -->
<g id="node11" class="node"><title>Node11</title>
<polygon fill="none" stroke="#bfbfbf" points="725.5,-56.5 725.5,-75.5 784.5,-75.5 784.5,-56.5 725.5,-56.5"/>
<text text-anchor="middle" x="755" y="-63.5" font-family="Helvetica,sans-Serif" font-size="10.00">exception</text>
</g>
<!-- Node10&#45;&gt;Node11 -->
<g id="edge12" class="edge"><title>Node10&#45;&gt;Node11</title>
<path fill="none" stroke="midnightblue" d="M755,-112.781C755,-104.781 755,-94.6887 755,-86.0168"/>
<polygon fill="midnightblue" stroke="midnightblue" points="758.5,-85.7305 755,-75.7305 751.5,-85.7306 758.5,-85.7305"/>
</g>
</g>
</svg>
