<?xml version="1.0" encoding="UTF-8" standalone="no"?>
<!DOCTYPE svg PUBLIC "-//W3C//DTD SVG 1.1//EN"
 "http://www.w3.org/Graphics/SVG/1.1/DTD/svg11.dtd">
<!-- Generated by graphviz version 2.36.0 (20140111.2315)
 -->
<!-- Title: /home/travis/build/AliceO2Group/Monitoring/src/Backends/Flume.h Pages: 1 -->
<!--zoomable 286 -->
<svg id="main" version="1.1" xmlns="http://www.w3.org/2000/svg" xmlns:xlink="http://www.w3.org/1999/xlink" xml:space="preserve" onload="init(evt)">
<style type="text/css"><![CDATA[
.edge:hover path { stroke: red; }
.edge:hover polygon { stroke: red; fill: red; }
]]></style>
<script type="text/javascript"><![CDATA[
var edges = document.getElementsByTagName('g');
if (edges && edges.length) {
  for (var i=0;i<edges.length;i++) {
    if (edges[i].id.substr(0,4)=='edge') {
      edges[i].setAttribute('class','edge');
    }
  }
}
]]></script>
        <defs>
                <circle id="rim" cx="0" cy="0" r="7"/>
                <circle id="rim2" cx="0" cy="0" r="3.5"/>
                <g id="zoomPlus">
                        <use xlink:href="#rim" fill="#404040">
                                <set attributeName="fill" to="#808080" begin="zoomplus.mouseover" end="zoomplus.mouseout"/>
                        </use>
                        <path d="M-4,0h8M0,-4v8" fill="none" stroke="white" stroke-width="1.5" pointer-events="none"/>
                </g>
                <g id="zoomMin">
                        <use xlink:href="#rim" fill="#404040">
                                <set attributeName="fill" to="#808080" begin="zoomminus.mouseover" end="zoomminus.mouseout"/>
                        </use>
                        <path d="M-4,0h8" fill="none" stroke="white" stroke-width="1.5" pointer-events="none"/>
                </g>
                <g id="dirArrow">
                        <path fill="none" stroke="white" stroke-width="1.5" d="M0,-3.0v7 M-2.5,-0.5L0,-3.0L2.5,-0.5"/>
                </g>
               <g id="resetDef">
                       <use xlink:href="#rim2" fill="#404040">
                               <set attributeName="fill" to="#808080" begin="reset.mouseover" end="reset.mouseout"/>
                       </use>
               </g>
        </defs>

<script type="text/javascript">
var viewWidth = 749;
var viewHeight = 286;
var sectionId = 'dynsection-0';
</script>
<script xlink:href="../../svgpan.js"/>
<svg id="graph" class="graph">
<g id="viewport">
<title>/home/travis/build/AliceO2Group/Monitoring/src/Backends/Flume.h</title>
<!-- Node1 -->
<g id="node1" class="node"><title>Node1</title>
<polygon fill="#bfbfbf" stroke="black" points="406,-236.5 406,-277.5 534,-277.5 534,-236.5 406,-236.5"/>
<text text-anchor="start" x="414" y="-265.5" font-family="Helvetica,sans-Serif" font-size="10.00">/home/travis/build</text>
<text text-anchor="start" x="414" y="-254.5" font-family="Helvetica,sans-Serif" font-size="10.00">/AliceO2Group/Monitoring</text>
<text text-anchor="middle" x="470" y="-243.5" font-family="Helvetica,sans-Serif" font-size="10.00">/src/Backends/Flume.h</text>
</g>
<!-- Node2 -->
<g id="node2" class="node"><title>Node2</title>
<g id="a_node2"><a xlink:href="../../df/d83/Backend_8h.html" target="_top" xlink:title="Monitoring/Backend.h">
<polygon fill="none" stroke="black" points="356.5,-174.5 356.5,-193.5 467.5,-193.5 467.5,-174.5 356.5,-174.5"/>
<text text-anchor="middle" x="412" y="-181.5" font-family="Helvetica,sans-Serif" font-size="10.00">Monitoring/Backend.h</text>
</a>
</g>
</g>
<!-- Node1&#45;&gt;Node2 -->
<g id="edge1" class="edge"><title>Node1&#45;&gt;Node2</title>
<path fill="none" stroke="midnightblue" d="M453.844,-236.223C444.94,-225.323 434.013,-211.947 425.558,-201.596"/>
<polygon fill="midnightblue" stroke="midnightblue" points="428.173,-199.265 419.136,-193.735 422.751,-203.694 428.173,-199.265"/>
</g>
<!-- Node3 -->
<g id="node3" class="node"><title>Node3</title>
<polygon fill="none" stroke="#bfbfbf" points="527,-56.5 527,-75.5 573,-75.5 573,-56.5 527,-56.5"/>
<text text-anchor="middle" x="550" y="-63.5" font-family="Helvetica,sans-Serif" font-size="10.00">chrono</text>
</g>
<!-- Node1&#45;&gt;Node3 -->
<g id="edge18" class="edge"><title>Node1&#45;&gt;Node3</title>
<path fill="none" stroke="midnightblue" d="M478.26,-236.486C493.817,-199.732 527.251,-120.745 542.337,-85.1035"/>
<polygon fill="midnightblue" stroke="midnightblue" points="545.715,-86.102 546.39,-75.5287 539.269,-83.3734 545.715,-86.102"/>
</g>
<!-- Node4 -->
<g id="node4" class="node"><title>Node4</title>
<polygon fill="none" stroke="#bfbfbf" points="208.5,-0.5 208.5,-19.5 249.5,-19.5 249.5,-0.5 208.5,-0.5"/>
<text text-anchor="middle" x="229" y="-7.5" font-family="Helvetica,sans-Serif" font-size="10.00">string</text>
</g>
<!-- Node1&#45;&gt;Node4 -->
<g id="edge19" class="edge"><title>Node1&#45;&gt;Node4</title>
<path fill="none" stroke="midnightblue" d="M415.588,-236.382C393.309,-227.069 367.907,-214.73 347,-200 286.047,-157.055 262.176,-145.034 234,-76 228.046,-61.4114 227.089,-43.4667 227.455,-30.1307"/>
<polygon fill="midnightblue" stroke="midnightblue" points="230.969,-29.9752 228.025,-19.7976 223.979,-29.5897 230.969,-29.9752"/>
</g>
<!-- Node9 -->
<g id="node9" class="node"><title>Node9</title>
<g id="a_node9"><a xlink:href="../../de/dac/TransportInterface_8h.html" target="_top" xlink:title="../Transports/TransportInterface.h">
<polygon fill="none" stroke="black" points="-0.5,-112.5 -0.5,-131.5 162.5,-131.5 162.5,-112.5 -0.5,-112.5"/>
<text text-anchor="middle" x="81" y="-119.5" font-family="Helvetica,sans-Serif" font-size="10.00">../Transports/TransportInterface.h</text>
</a>
</g>
</g>
<!-- Node1&#45;&gt;Node9 -->
<g id="edge11" class="edge"><title>Node1&#45;&gt;Node9</title>
<path fill="none" stroke="midnightblue" d="M405.849,-252.665C344.597,-247.459 250.942,-234.129 177,-200 144.701,-185.092 113.807,-157.004 96.1534,-139.187"/>
<polygon fill="midnightblue" stroke="midnightblue" points="98.4844,-136.563 89.0164,-131.808 93.4527,-141.429 98.4844,-136.563"/>
</g>
<!-- Node10 -->
<g id="node10" class="node"><title>Node10</title>
<g id="a_node10"><a xlink:href="../../df/de7/MonLogger_8h.html" target="_top" xlink:title="../MonLogger.h">
<polygon fill="none" stroke="black" points="540,-174.5 540,-193.5 622,-193.5 622,-174.5 540,-174.5"/>
<text text-anchor="middle" x="581" y="-181.5" font-family="Helvetica,sans-Serif" font-size="10.00">../MonLogger.h</text>
</a>
</g>
</g>
<!-- Node1&#45;&gt;Node10 -->
<g id="edge13" class="edge"><title>Node1&#45;&gt;Node10</title>
<path fill="none" stroke="midnightblue" d="M500.625,-236.411C519.142,-224.567 542.318,-209.743 559.018,-199.06"/>
<polygon fill="midnightblue" stroke="midnightblue" points="561.022,-201.934 567.56,-193.597 557.25,-196.037 561.022,-201.934"/>
</g>
<!-- Node13 -->
<g id="node13" class="node"><title>Node13</title>
<polygon fill="none" stroke="#bfbfbf" points="640.5,-169 640.5,-199 741.5,-199 741.5,-169 640.5,-169"/>
<text text-anchor="start" x="648.5" y="-187" font-family="Helvetica,sans-Serif" font-size="10.00">boost/property_tree</text>
<text text-anchor="middle" x="691" y="-176" font-family="Helvetica,sans-Serif" font-size="10.00">/ptree.hpp</text>
</g>
<!-- Node1&#45;&gt;Node13 -->
<g id="edge17" class="edge"><title>Node1&#45;&gt;Node13</title>
<path fill="none" stroke="midnightblue" d="M530.974,-236.411C564.436,-225.661 605.538,-212.456 637.707,-202.121"/>
<polygon fill="midnightblue" stroke="midnightblue" points="638.936,-205.403 647.386,-199.012 636.795,-198.738 638.936,-205.403"/>
</g>
<!-- Node2&#45;&gt;Node3 -->
<g id="edge2" class="edge"><title>Node2&#45;&gt;Node3</title>
<path fill="none" stroke="midnightblue" d="M422.372,-174.281C445.763,-154.619 502.854,-106.63 532.096,-82.0498"/>
<polygon fill="midnightblue" stroke="midnightblue" points="534.479,-84.6185 539.882,-75.5048 529.975,-79.2601 534.479,-84.6185"/>
</g>
<!-- Node2&#45;&gt;Node4 -->
<g id="edge3" class="edge"><title>Node2&#45;&gt;Node4</title>
<path fill="none" stroke="midnightblue" d="M389.516,-174.409C354.067,-159.71 285.385,-126.364 248,-76 238.036,-62.5769 233.279,-44.0128 231.019,-30.1594"/>
<polygon fill="midnightblue" stroke="midnightblue" points="234.435,-29.2983 229.648,-19.8468 227.496,-30.2209 234.435,-29.2983"/>
</g>
<!-- Node5 -->
<g id="node5" class="node"><title>Node5</title>
<g id="a_node5"><a xlink:href="../../d9/d92/Metric_8h.html" target="_top" xlink:title="Monitoring/Metric.h">
<polygon fill="none" stroke="black" points="346,-112.5 346,-131.5 446,-131.5 446,-112.5 346,-112.5"/>
<text text-anchor="middle" x="396" y="-119.5" font-family="Helvetica,sans-Serif" font-size="10.00">Monitoring/Metric.h</text>
</a>
</g>
</g>
<!-- Node2&#45;&gt;Node5 -->
<g id="edge4" class="edge"><title>Node2&#45;&gt;Node5</title>
<path fill="none" stroke="midnightblue" d="M409.708,-174.403C407.426,-165.849 403.853,-152.45 400.927,-141.476"/>
<polygon fill="midnightblue" stroke="midnightblue" points="404.247,-140.341 398.288,-131.581 397.483,-142.145 404.247,-140.341"/>
</g>
<!-- Node5&#45;&gt;Node3 -->
<g id="edge6" class="edge"><title>Node5&#45;&gt;Node3</title>
<path fill="none" stroke="midnightblue" d="M420.402,-112.444C446.5,-103.292 488.041,-88.726 517.034,-78.5594"/>
<polygon fill="midnightblue" stroke="midnightblue" points="518.442,-81.7748 526.72,-75.1629 516.126,-75.1691 518.442,-81.7748"/>
</g>
<!-- Node5&#45;&gt;Node4 -->
<g id="edge5" class="edge"><title>Node5&#45;&gt;Node4</title>
<path fill="none" stroke="midnightblue" d="M404.264,-112.149C415.727,-98.7764 433.591,-73.1646 420,-56 400.347,-31.1789 308.553,-18.6792 259.729,-13.6932"/>
<polygon fill="midnightblue" stroke="midnightblue" points="260.015,-10.2045 249.722,-12.7151 259.334,-17.1713 260.015,-10.2045"/>
</g>
<!-- Node6 -->
<g id="node6" class="node"><title>Node6</title>
<polygon fill="none" stroke="#bfbfbf" points="257,-56.5 257,-75.5 301,-75.5 301,-56.5 257,-56.5"/>
<text text-anchor="middle" x="279" y="-63.5" font-family="Helvetica,sans-Serif" font-size="10.00">vector</text>
</g>
<!-- Node5&#45;&gt;Node6 -->
<g id="edge7" class="edge"><title>Node5&#45;&gt;Node6</title>
<path fill="none" stroke="midnightblue" d="M377.461,-112.444C358.377,-103.636 328.425,-89.8116 306.564,-79.722"/>
<polygon fill="midnightblue" stroke="midnightblue" points="307.999,-76.5292 297.452,-75.5164 305.065,-82.8849 307.999,-76.5292"/>
</g>
<!-- Node7 -->
<g id="node7" class="node"><title>Node7</title>
<polygon fill="none" stroke="#bfbfbf" points="319,-56.5 319,-75.5 411,-75.5 411,-56.5 319,-56.5"/>
<text text-anchor="middle" x="365" y="-63.5" font-family="Helvetica,sans-Serif" font-size="10.00">boost/variant.hpp</text>
</g>
<!-- Node5&#45;&gt;Node7 -->
<g id="edge8" class="edge"><title>Node5&#45;&gt;Node7</title>
<path fill="none" stroke="midnightblue" d="M390.881,-112.083C386.592,-104.613 380.342,-93.7244 375.058,-84.5199"/>
<polygon fill="midnightblue" stroke="midnightblue" points="378.038,-82.6811 370.024,-75.7511 371.967,-86.1662 378.038,-82.6811"/>
</g>
<!-- Node8 -->
<g id="node8" class="node"><title>Node8</title>
<g id="a_node8"><a xlink:href="../../d9/d33/Tag_8h.html" target="_top" xlink:title="Tag.h">
<polygon fill="none" stroke="black" points="467.5,-56.5 467.5,-75.5 508.5,-75.5 508.5,-56.5 467.5,-56.5"/>
<text text-anchor="middle" x="488" y="-63.5" font-family="Helvetica,sans-Serif" font-size="10.00">Tag.h</text>
</a>
</g>
</g>
<!-- Node5&#45;&gt;Node8 -->
<g id="edge9" class="edge"><title>Node5&#45;&gt;Node8</title>
<path fill="none" stroke="midnightblue" d="M410.781,-112.324C425.267,-103.822 447.573,-90.7288 464.493,-80.7975"/>
<polygon fill="midnightblue" stroke="midnightblue" points="466.403,-83.735 473.255,-75.6545 462.859,-77.6981 466.403,-83.735"/>
</g>
<!-- Node8&#45;&gt;Node4 -->
<g id="edge10" class="edge"><title>Node8&#45;&gt;Node4</title>
<path fill="none" stroke="midnightblue" d="M467.316,-59.4863C462.621,-58.289 457.648,-57.0637 453,-56 384.237,-40.2639 302.913,-24.6749 259.663,-16.6225"/>
<polygon fill="midnightblue" stroke="midnightblue" points="260.241,-13.17 249.77,-14.7885 258.965,-20.0527 260.241,-13.17"/>
</g>
<!-- Node9&#45;&gt;Node4 -->
<g id="edge12" class="edge"><title>Node9&#45;&gt;Node4</title>
<path fill="none" stroke="midnightblue" d="M92.6133,-112.368C117.794,-93.6531 177.67,-49.1509 209.044,-25.8324"/>
<polygon fill="midnightblue" stroke="midnightblue" points="211.503,-28.3658 217.441,-19.5914 207.327,-22.7476 211.503,-28.3658"/>
</g>
<!-- Node10&#45;&gt;Node3 -->
<g id="edge14" class="edge"><title>Node10&#45;&gt;Node3</title>
<path fill="none" stroke="midnightblue" d="M578.67,-174.281C573.641,-155.463 561.678,-110.697 554.901,-85.3399"/>
<polygon fill="midnightblue" stroke="midnightblue" points="558.236,-84.2621 552.273,-75.5048 551.473,-86.0694 558.236,-84.2621"/>
</g>
<!-- Node11 -->
<g id="node11" class="node"><title>Node11</title>
<polygon fill="none" stroke="#bfbfbf" points="578,-112.5 578,-131.5 628,-131.5 628,-112.5 578,-112.5"/>
<text text-anchor="middle" x="603" y="-119.5" font-family="Helvetica,sans-Serif" font-size="10.00">iomanip</text>
</g>
<!-- Node10&#45;&gt;Node11 -->
<g id="edge15" class="edge"><title>Node10&#45;&gt;Node11</title>
<path fill="none" stroke="midnightblue" d="M584.152,-174.403C587.321,-165.76 592.304,-152.17 596.351,-141.134"/>
<polygon fill="midnightblue" stroke="midnightblue" points="599.697,-142.174 599.854,-131.581 593.125,-139.764 599.697,-142.174"/>
</g>
<!-- Node12 -->
<g id="node12" class="node"><title>Node12</title>
<polygon fill="none" stroke="#bfbfbf" points="646,-112.5 646,-131.5 700,-131.5 700,-112.5 646,-112.5"/>
<text text-anchor="middle" x="673" y="-119.5" font-family="Helvetica,sans-Serif" font-size="10.00">iostream</text>
</g>
<!-- Node10&#45;&gt;Node12 -->
<g id="edge16" class="edge"><title>Node10&#45;&gt;Node12</title>
<path fill="none" stroke="midnightblue" d="M594.181,-174.403C609.074,-164.691 633.544,-148.732 651.273,-137.17"/>
<polygon fill="midnightblue" stroke="midnightblue" points="653.379,-139.975 659.843,-131.581 649.555,-134.112 653.379,-139.975"/>
</g>
</g>
</svg>
        <g id="navigator" transform="translate(0 0)" fill="#404254">
                <rect fill="#f2f5e9" fill-opacity="0.5" stroke="#606060" stroke-width=".5" x="0" y="0" width="60" height="60"/>
                <use id="zoomplus" xlink:href="#zoomPlus" x="17" y="9" onmousedown="handleZoom(evt,'in')"/>
                <use id="zoomminus" xlink:href="#zoomMin" x="42" y="9" onmousedown="handleZoom(evt,'out')"/>
                <use id="reset" xlink:href="#resetDef" x="30" y="36" onmousedown="handleReset()"/>
                <g id="arrowUp" xlink:href="#dirArrow" transform="translate(30 24)" onmousedown="handlePan(0,-1)">
                  <use xlink:href="#rim" fill="#404040">
                        <set attributeName="fill" to="#808080" begin="arrowUp.mouseover" end="arrowUp.mouseout"/>
                  </use>
                  <path fill="none" stroke="white" stroke-width="1.5" d="M0,-3.0v7 M-2.5,-0.5L0,-3.0L2.5,-0.5"/>
                </g>
                <g id="arrowRight" xlink:href="#dirArrow" transform="rotate(90) translate(36 -43)" onmousedown="handlePan(1,0)">
                  <use xlink:href="#rim" fill="#404040">
                        <set attributeName="fill" to="#808080" begin="arrowRight.mouseover" end="arrowRight.mouseout"/>
                  </use>
                  <path fill="none" stroke="white" stroke-width="1.5" d="M0,-3.0v7 M-2.5,-0.5L0,-3.0L2.5,-0.5"/>
                </g>
                <g id="arrowDown" xlink:href="#dirArrow" transform="rotate(180) translate(-30 -48)" onmousedown="handlePan(0,1)">
                  <use xlink:href="#rim" fill="#404040">
                        <set attributeName="fill" to="#808080" begin="arrowDown.mouseover" end="arrowDown.mouseout"/>
                  </use>
                  <path fill="none" stroke="white" stroke-width="1.5" d="M0,-3.0v7 M-2.5,-0.5L0,-3.0L2.5,-0.5"/>
                </g>
                <g id="arrowLeft" xlink:href="#dirArrow" transform="rotate(270) translate(-36 17)" onmousedown="handlePan(-1,0)">
                  <use xlink:href="#rim" fill="#404040">
                        <set attributeName="fill" to="#808080" begin="arrowLeft.mouseover" end="arrowLeft.mouseout"/>
                  </use>
                  <path fill="none" stroke="white" stroke-width="1.5" d="M0,-3.0v7 M-2.5,-0.5L0,-3.0L2.5,-0.5"/>
                </g>
        </g>
        <svg viewBox="0 0 15 15" width="100%" height="30px" preserveAspectRatio="xMaxYMin meet">
         <g id="arrow_out" transform="scale(0.3 0.3)">
          <a xlink:href="Flume_8h__incl_org.svg" target="_base">
           <rect id="button" ry="5" rx="5" y="6" x="6" height="38" width="38"
                fill="#f2f5e9" fill-opacity="0.5" stroke="#606060" stroke-width="1.0"/>
           <path id="arrow"
             d="M 11.500037,31.436501 C 11.940474,20.09759 22.043105,11.32322 32.158766,21.979434 L 37.068811,17.246167 C 37.068811,17.246167 37.088388,32 37.088388,32 L 22.160133,31.978069 C 22.160133,31.978069 26.997745,27.140456 26.997745,27.140456 C 18.528582,18.264221 13.291696,25.230495 11.500037,31.436501 z"
             style="fill:#404040;"/>
          </a>
         </g>
        </svg>
</svg>
