<?xml version="1.0" encoding="UTF-8" standalone="no"?>
<!DOCTYPE svg PUBLIC "-//W3C//DTD SVG 1.1//EN"
 "http://www.w3.org/Graphics/SVG/1.1/DTD/svg11.dtd">
<!-- Generated by graphviz version 2.36.0 (20140111.2315)
 -->
<!-- Title: /home/travis/build/AliceO2Group/Monitoring/src Pages: 1 -->
<svg width="230pt" height="292pt"
 viewBox="0.00 0.00 230.00 292.00" xmlns="http://www.w3.org/2000/svg" xmlns:xlink="http://www.w3.org/1999/xlink">
<g id="graph0" class="graph" transform="scale(1 1) rotate(0) translate(4 288)">
<title>/home/travis/build/AliceO2Group/Monitoring/src</title>
<g id="clust1" class="cluster"><title>clusterdir_c8e4ae565341e7bc08b628789fd961a6</title>
<g id="a_clust1"><a xlink:href="dir_c8e4ae565341e7bc08b628789fd961a6.html" target="_top">
<polygon fill="#eeeeff" stroke="black" points="8,-8 8,-276 160,-276 160,-8 8,-8"/>
</a>
</g>
</g>
<!-- dir_c8e4ae565341e7bc08b628789fd961a6 -->
<g id="node1" class="node"><title>dir_c8e4ae565341e7bc08b628789fd961a6</title>
<text text-anchor="middle" x="84" y="-247.5" font-family="Helvetica,sans-Serif" font-size="10.00">src</text>
</g>
<!-- dir_b9578fd3fc128d7aa3dc0294c75475c2 -->
<g id="node2" class="node"><title>dir_b9578fd3fc128d7aa3dc0294c75475c2</title>
<g id="a_node2"><a xlink:href="dir_b9578fd3fc128d7aa3dc0294c75475c2.html" target="_top" xlink:title="Backends">
<polygon fill="white" stroke="black" points="75.5,-196 16.5,-196 16.5,-160 75.5,-160 75.5,-196"/>
<text text-anchor="middle" x="46" y="-175.5" font-family="Helvetica,sans-Serif" font-size="10.00">Backends</text>
</a>
</g>
</g>
<!-- dir_c8e4ae565341e7bc08b628789fd961a6&#45;&gt;dir_b9578fd3fc128d7aa3dc0294c75475c2 -->
<g id="edge2" class="edge"><title>dir_c8e4ae565341e7bc08b628789fd961a6&#45;&gt;dir_b9578fd3fc128d7aa3dc0294c75475c2</title>
<path fill="none" stroke="black" d="M74.6067,-231.697C70.2351,-223.644 64.9427,-213.894 60.1047,-204.982"/>
<polygon fill="black" stroke="black" points="63.1322,-203.223 55.2852,-196.104 56.9802,-206.563 63.1322,-203.223"/>
<g id="a_edge2&#45;headlabel"><a xlink:href="dir_000009_000010.html" target="_top" xlink:title="4">
<text text-anchor="middle" x="67.3424" y="-202.528" font-family="Helvetica,sans-Serif" font-size="10.00">4</text>
</a>
</g>
</g>
<!-- dir_c8372d71e4a2a12cb86a90ed78302e41 -->
<g id="node5" class="node"><title>dir_c8372d71e4a2a12cb86a90ed78302e41</title>
<g id="a_node5"><a xlink:href="dir_c8372d71e4a2a12cb86a90ed78302e41.html" target="_top" xlink:title="UriParser">
<polygon fill="white" stroke="black" points="151.5,-196 94.5,-196 94.5,-160 151.5,-160 151.5,-196"/>
<text text-anchor="middle" x="123" y="-175.5" font-family="Helvetica,sans-Serif" font-size="10.00">UriParser</text>
</a>
</g>
</g>
<!-- dir_c8e4ae565341e7bc08b628789fd961a6&#45;&gt;dir_c8372d71e4a2a12cb86a90ed78302e41 -->
<g id="edge1" class="edge"><title>dir_c8e4ae565341e7bc08b628789fd961a6&#45;&gt;dir_c8372d71e4a2a12cb86a90ed78302e41</title>
<path fill="none" stroke="black" d="M93.6405,-231.697C98.1271,-223.644 103.559,-213.894 108.524,-204.982"/>
<polygon fill="black" stroke="black" points="111.661,-206.544 113.47,-196.104 105.546,-203.137 111.661,-206.544"/>
<g id="a_edge1&#45;headlabel"><a xlink:href="dir_000009_000013.html" target="_top" xlink:title="1">
<text text-anchor="middle" x="112.392" y="-208.565" font-family="Helvetica,sans-Serif" font-size="10.00">1</text>
</a>
</g>
</g>
<!-- dir_a9501773cfe28af013afcd0c1ccec105 -->
<g id="node3" class="node"><title>dir_a9501773cfe28af013afcd0c1ccec105</title>
<g id="a_node3"><a xlink:href="dir_a9501773cfe28af013afcd0c1ccec105.html" target="_top" xlink:title="Exceptions">
<polygon fill="white" stroke="black" points="97.25,-52 32.75,-52 32.75,-16 97.25,-16 97.25,-52"/>
<text text-anchor="middle" x="65" y="-31.5" font-family="Helvetica,sans-Serif" font-size="10.00">Exceptions</text>
</a>
</g>
</g>
<!-- dir_b9578fd3fc128d7aa3dc0294c75475c2&#45;&gt;dir_a9501773cfe28af013afcd0c1ccec105 -->
<g id="edge5" class="edge"><title>dir_b9578fd3fc128d7aa3dc0294c75475c2&#45;&gt;dir_a9501773cfe28af013afcd0c1ccec105</title>
<path fill="none" stroke="black" d="M42.333,-159.726C39.1174,-141.637 35.71,-112.506 41,-88 42.9608,-78.9165 46.6119,-69.5168 50.4851,-61.2013"/>
<polygon fill="black" stroke="black" points="53.7309,-62.5344 55.0461,-52.0215 47.462,-59.4197 53.7309,-62.5344"/>
<g id="a_edge5&#45;headlabel"><a xlink:href="dir_000010_000011.html" target="_top" xlink:title="2">
<text text-anchor="middle" x="54.6742" y="-64.5169" font-family="Helvetica,sans-Serif" font-size="10.00">2</text>
</a>
</g>
</g>
<!-- dir_2e4d877d919706825bdea3b34d8315ce -->
<g id="node4" class="node"><title>dir_2e4d877d919706825bdea3b34d8315ce</title>
<g id="a_node4"><a xlink:href="dir_2e4d877d919706825bdea3b34d8315ce.html" target="_top" xlink:title="Transports">
<polygon fill="white" stroke="black" points="113.25,-124 50.75,-124 50.75,-88 113.25,-88 113.25,-124"/>
<text text-anchor="middle" x="82" y="-103.5" font-family="Helvetica,sans-Serif" font-size="10.00">Transports</text>
</a>
</g>
</g>
<!-- dir_b9578fd3fc128d7aa3dc0294c75475c2&#45;&gt;dir_2e4d877d919706825bdea3b34d8315ce -->
<g id="edge4" class="edge"><title>dir_b9578fd3fc128d7aa3dc0294c75475c2&#45;&gt;dir_2e4d877d919706825bdea3b34d8315ce</title>
<path fill="none" stroke="black" d="M54.8989,-159.697C58.9968,-151.728 63.9488,-142.1 68.4927,-133.264"/>
<polygon fill="black" stroke="black" points="71.7425,-134.598 73.2035,-124.104 65.5174,-131.396 71.7425,-134.598"/>
<g id="a_edge4&#45;headlabel"><a xlink:href="dir_000010_000012.html" target="_top" xlink:title="5">
<text text-anchor="middle" x="72.6235" y="-136.593" font-family="Helvetica,sans-Serif" font-size="10.00">5</text>
</a>
</g>
</g>
<!-- dir_3ea03b5bad7df07991502014a866ac0e -->
<g id="node6" class="node"><title>dir_3ea03b5bad7df07991502014a866ac0e</title>
<g id="a_node6"><a xlink:href="dir_3ea03b5bad7df07991502014a866ac0e.html" target="_top" xlink:title="include">
<polygon fill="none" stroke="red" points="222,-124 168,-124 168,-88 222,-88 222,-124"/>
<text text-anchor="middle" x="195" y="-103.5" font-family="Helvetica,sans-Serif" font-size="10.00">include</text>
</a>
</g>
</g>
<!-- dir_b9578fd3fc128d7aa3dc0294c75475c2&#45;&gt;dir_3ea03b5bad7df07991502014a866ac0e -->
<g id="edge6" class="edge"><title>dir_b9578fd3fc128d7aa3dc0294c75475c2&#45;&gt;dir_3ea03b5bad7df07991502014a866ac0e</title>
<path fill="none" stroke="black" d="M75.7302,-163.969C101.158,-152.774 136.656,-137.015 158.622,-126.542"/>
<polygon fill="black" stroke="black" points="160.216,-129.658 167.678,-122.137 157.154,-123.364 160.216,-129.658"/>
<g id="a_edge6&#45;headlabel"><a xlink:href="dir_000010_000007.html" target="_top" xlink:title="4">
<text text-anchor="middle" x="158.226" y="-131.284" font-family="Helvetica,sans-Serif" font-size="10.00">4</text>
</a>
</g>
</g>
<!-- dir_2e4d877d919706825bdea3b34d8315ce&#45;&gt;dir_a9501773cfe28af013afcd0c1ccec105 -->
<g id="edge3" class="edge"><title>dir_2e4d877d919706825bdea3b34d8315ce&#45;&gt;dir_a9501773cfe28af013afcd0c1ccec105</title>
<path fill="none" stroke="black" d="M77.7978,-87.6966C75.9038,-79.8979 73.6235,-70.5085 71.5157,-61.8292"/>
<polygon fill="black" stroke="black" points="74.9151,-60.9959 69.1539,-52.1043 68.1128,-62.6479 74.9151,-60.9959"/>
<g id="a_edge3&#45;headlabel"><a xlink:href="dir_000012_000011.html" target="_top" xlink:title="2">
<text text-anchor="middle" x="78.5224" y="-61.3189" font-family="Helvetica,sans-Serif" font-size="10.00">2</text>
</a>
</g>
</g>
</g>
</svg>
