<?xml version="1.0" encoding="UTF-8" standalone="no"?>
<!DOCTYPE svg PUBLIC "-//W3C//DTD SVG 1.1//EN"
 "http://www.w3.org/Graphics/SVG/1.1/DTD/svg11.dtd">
<!-- Generated by graphviz version 2.36.0 (20140111.2315)
 -->
<!-- Title: /home/travis/build/AliceO2Group/Monitoring/src/Backends Pages: 1 -->
<svg width="181pt" height="223pt"
 viewBox="0.00 0.00 181.00 223.00" xmlns="http://www.w3.org/2000/svg" xmlns:xlink="http://www.w3.org/1999/xlink">
<g id="graph0" class="graph" transform="scale(1 1) rotate(0) translate(4 219)">
<title>/home/travis/build/AliceO2Group/Monitoring/src/Backends</title>
<g id="clust1" class="cluster"><title>clusterdir_c8e4ae565341e7bc08b628789fd961a6</title>
<g id="a_clust1"><a xlink:href="dir_c8e4ae565341e7bc08b628789fd961a6.html" target="_top" xlink:title="src">
<polygon fill="#ddddee" stroke="black" points="53,-136 53,-207 129,-207 129,-136 53,-136"/>
<text text-anchor="middle" x="91" y="-195" font-family="Helvetica,sans-Serif" font-size="10.00">src</text>
</a>
</g>
</g>
<!-- dir_b9578fd3fc128d7aa3dc0294c75475c2 -->
<g id="node1" class="node"><title>dir_b9578fd3fc128d7aa3dc0294c75475c2</title>
<g id="a_node1"><a xlink:href="dir_b9578fd3fc128d7aa3dc0294c75475c2.html" target="_top" xlink:title="Backends">
<polygon fill="#eeeeff" stroke="black" points="120.5,-180 61.5,-180 61.5,-144 120.5,-144 120.5,-180"/>
<text text-anchor="middle" x="91" y="-159.5" font-family="Helvetica,sans-Serif" font-size="10.00">Backends</text>
</a>
</g>
</g>
<!-- dir_2e4d877d919706825bdea3b34d8315ce -->
<g id="node2" class="node"><title>dir_2e4d877d919706825bdea3b34d8315ce</title>
<g id="a_node2"><a xlink:href="dir_2e4d877d919706825bdea3b34d8315ce.html" target="_top" xlink:title="Transports">
<polygon fill="none" stroke="black" points="62.25,-108 -0.25,-108 -0.25,-72 62.25,-72 62.25,-108"/>
<text text-anchor="middle" x="31" y="-87.5" font-family="Helvetica,sans-Serif" font-size="10.00">Transports</text>
</a>
</g>
</g>
<!-- dir_b9578fd3fc128d7aa3dc0294c75475c2&#45;&gt;dir_2e4d877d919706825bdea3b34d8315ce -->
<g id="edge2" class="edge"><title>dir_b9578fd3fc128d7aa3dc0294c75475c2&#45;&gt;dir_2e4d877d919706825bdea3b34d8315ce</title>
<path fill="none" stroke="black" d="M76.1685,-143.697C68.9753,-135.305 60.2033,-125.07 52.3097,-115.861"/>
<polygon fill="black" stroke="black" points="54.8262,-113.419 45.6609,-108.104 49.5114,-117.975 54.8262,-113.419"/>
<g id="a_edge2&#45;headlabel"><a xlink:href="dir_000010_000012.html" target="_top" xlink:title="5">
<text text-anchor="middle" x="59.3213" y="-111.801" font-family="Helvetica,sans-Serif" font-size="10.00">5</text>
</a>
</g>
</g>
<!-- dir_a9501773cfe28af013afcd0c1ccec105 -->
<g id="node3" class="node"><title>dir_a9501773cfe28af013afcd0c1ccec105</title>
<g id="a_node3"><a xlink:href="dir_a9501773cfe28af013afcd0c1ccec105.html" target="_top" xlink:title="Exceptions">
<polygon fill="none" stroke="black" points="93.25,-36 28.75,-36 28.75,-0 93.25,-0 93.25,-36"/>
<text text-anchor="middle" x="61" y="-15.5" font-family="Helvetica,sans-Serif" font-size="10.00">Exceptions</text>
</a>
</g>
</g>
<!-- dir_b9578fd3fc128d7aa3dc0294c75475c2&#45;&gt;dir_a9501773cfe28af013afcd0c1ccec105 -->
<g id="edge3" class="edge"><title>dir_b9578fd3fc128d7aa3dc0294c75475c2&#45;&gt;dir_a9501773cfe28af013afcd0c1ccec105</title>
<path fill="none" stroke="black" d="M87.3813,-143.871C82.2458,-119.564 72.7927,-74.8187 66.707,-46.0132"/>
<polygon fill="black" stroke="black" points="70.1231,-45.2498 64.6315,-36.1893 63.2743,-46.6968 70.1231,-45.2498"/>
<g id="a_edge3&#45;headlabel"><a xlink:href="dir_000010_000011.html" target="_top" xlink:title="2">
<text text-anchor="middle" x="73.644" y="-45.6799" font-family="Helvetica,sans-Serif" font-size="10.00">2</text>
</a>
</g>
</g>
<!-- dir_3ea03b5bad7df07991502014a866ac0e -->
<g id="node4" class="node"><title>dir_3ea03b5bad7df07991502014a866ac0e</title>
<g id="a_node4"><a xlink:href="dir_3ea03b5bad7df07991502014a866ac0e.html" target="_top" xlink:title="include">
<polygon fill="none" stroke="red" points="173,-108 119,-108 119,-72 173,-72 173,-108"/>
<text text-anchor="middle" x="146" y="-87.5" font-family="Helvetica,sans-Serif" font-size="10.00">include</text>
</a>
</g>
</g>
<!-- dir_b9578fd3fc128d7aa3dc0294c75475c2&#45;&gt;dir_3ea03b5bad7df07991502014a866ac0e -->
<g id="edge4" class="edge"><title>dir_b9578fd3fc128d7aa3dc0294c75475c2&#45;&gt;dir_3ea03b5bad7df07991502014a866ac0e</title>
<path fill="none" stroke="black" d="M104.596,-143.697C111.123,-135.389 119.068,-125.277 126.247,-116.141"/>
<polygon fill="black" stroke="black" points="129.135,-118.13 132.561,-108.104 123.631,-113.805 129.135,-118.13"/>
<g id="a_edge4&#45;headlabel"><a xlink:href="dir_000010_000007.html" target="_top" xlink:title="4">
<text text-anchor="middle" x="129.147" y="-120.211" font-family="Helvetica,sans-Serif" font-size="10.00">4</text>
</a>
</g>
</g>
<!-- dir_2e4d877d919706825bdea3b34d8315ce&#45;&gt;dir_a9501773cfe28af013afcd0c1ccec105 -->
<g id="edge1" class="edge"><title>dir_2e4d877d919706825bdea3b34d8315ce&#45;&gt;dir_a9501773cfe28af013afcd0c1ccec105</title>
<path fill="none" stroke="black" d="M38.4157,-71.6966C41.7944,-63.8132 45.8696,-54.3042 49.623,-45.5464"/>
<polygon fill="black" stroke="black" points="52.9473,-46.6745 53.6696,-36.1043 46.5133,-43.9171 52.9473,-46.6745"/>
<g id="a_edge1&#45;headlabel"><a xlink:href="dir_000012_000011.html" target="_top" xlink:title="2">
<text text-anchor="middle" x="54.1411" y="-48.5969" font-family="Helvetica,sans-Serif" font-size="10.00">2</text>
</a>
</g>
</g>
</g>
</svg>
