<?xml version="1.0" encoding="UTF-8" standalone="no"?>
<!DOCTYPE svg PUBLIC "-//W3C//DTD SVG 1.1//EN"
 "http://www.w3.org/Graphics/SVG/1.1/DTD/svg11.dtd">
<!-- Generated by graphviz version 2.36.0 (20140111.2315)
 -->
<!-- Title: Graphical Class Hierarchy Pages: 1 -->
<svg width="280pt" height="66pt"
 viewBox="0.00 0.00 280.00 66.00" xmlns="http://www.w3.org/2000/svg" xmlns:xlink="http://www.w3.org/1999/xlink">
<g id="graph0" class="graph" transform="scale(1 1) rotate(0) translate(4 62)">
<title>Graphical Class Hierarchy</title>
<!-- Node1 -->
<g id="node1" class="node"><title>Node1</title>
<polygon fill="none" stroke="#bfbfbf" points="0,-19.5 0,-38.5 72,-38.5 72,-19.5 0,-19.5"/>
<text text-anchor="middle" x="36" y="-26.5" font-family="Helvetica,sans-Serif" font-size="10.00">static_visitor</text>
</g>
<!-- Node2 -->
<g id="node2" class="node"><title>Node2</title>
<g id="a_node2"><a xlink:href="da/df7/classo2_1_1monitoring_1_1VariantVisitorAdd.html" target="_top" xlink:title="Adds boost variants. ">
<polygon fill="none" stroke="black" points="110,-38.5 110,-57.5 270,-57.5 270,-38.5 110,-38.5"/>
<text text-anchor="middle" x="190" y="-45.5" font-family="Helvetica,sans-Serif" font-size="10.00">o2::monitoring::VariantVisitorAdd</text>
</a>
</g>
</g>
<!-- Node1&#45;&gt;Node2 -->
<g id="edge1" class="edge"><title>Node1&#45;&gt;Node2</title>
<path fill="none" stroke="midnightblue" d="M82.3513,-34.6689C91.9758,-35.872 102.388,-37.1735 112.805,-38.4756"/>
<polygon fill="midnightblue" stroke="midnightblue" points="82.6108,-31.1742 72.2539,-33.4067 81.7425,-38.1201 82.6108,-31.1742"/>
</g>
<!-- Node3 -->
<g id="node3" class="node"><title>Node3</title>
<g id="a_node3"><a xlink:href="dc/dd1/classo2_1_1monitoring_1_1VariantVisitorRate.html" target="_top" xlink:title="Subtracts boost variants in order to calculate rate. ">
<polygon fill="none" stroke="black" points="108,-0.5 108,-19.5 272,-19.5 272,-0.5 108,-0.5"/>
<text text-anchor="middle" x="190" y="-7.5" font-family="Helvetica,sans-Serif" font-size="10.00">o2::monitoring::VariantVisitorRate</text>
</a>
</g>
</g>
<!-- Node1&#45;&gt;Node3 -->
<g id="edge2" class="edge"><title>Node1&#45;&gt;Node3</title>
<path fill="none" stroke="midnightblue" d="M82.3513,-23.3311C91.9758,-22.128 102.388,-20.8265 112.805,-19.5244"/>
<polygon fill="midnightblue" stroke="midnightblue" points="81.7425,-19.8799 72.2539,-24.5933 82.6108,-26.8258 81.7425,-19.8799"/>
</g>
</g>
</svg>
