<?xml version="1.0" encoding="UTF-8" standalone="no"?>
<!DOCTYPE svg PUBLIC "-//W3C//DTD SVG 1.1//EN"
 "http://www.w3.org/Graphics/SVG/1.1/DTD/svg11.dtd">
<!-- Generated by graphviz version 2.36.0 (20140111.2315)
 -->
<!-- Title: Graphical Class Hierarchy Pages: 1 -->
<svg width="292pt" height="185pt"
 viewBox="0.00 0.00 292.00 185.00" xmlns="http://www.w3.org/2000/svg" xmlns:xlink="http://www.w3.org/1999/xlink">
<g id="graph0" class="graph" transform="scale(1 1) rotate(0) translate(4 181)">
<title>Graphical Class Hierarchy</title>
<!-- Node1 -->
<g id="node1" class="node"><title>Node1</title>
<g id="a_node1"><a xlink:href="d6/dec/classo2_1_1monitoring_1_1Backend.html" target="_top" xlink:title="Backend pure virtual interface. ">
<polygon fill="none" stroke="black" points="0,-78.5 0,-97.5 122,-97.5 122,-78.5 0,-78.5"/>
<text text-anchor="middle" x="61" y="-85.5" font-family="Helvetica,sans-Serif" font-size="10.00">o2::monitoring::Backend</text>
</a>
</g>
</g>
<!-- Node2 -->
<g id="node2" class="node"><title>Node2</title>
<g id="a_node2"><a xlink:href="d0/d1b/classo2_1_1monitoring_1_1backends_1_1ApMonBackend.html" target="_top" xlink:title="Backend that uses AppMon (MonALISA) ">
<polygon fill="none" stroke="black" points="158,-147 158,-177 284,-177 284,-147 158,-147"/>
<text text-anchor="start" x="166" y="-165" font-family="Helvetica,sans-Serif" font-size="10.00">o2::monitoring::backends</text>
<text text-anchor="middle" x="221" y="-154" font-family="Helvetica,sans-Serif" font-size="10.00">::ApMonBackend</text>
</a>
</g>
</g>
<!-- Node1&#45;&gt;Node2 -->
<g id="edge1" class="edge"><title>Node1&#45;&gt;Node2</title>
<path fill="none" stroke="midnightblue" d="M88.4648,-102.309C107.573,-112.442 134.111,-126.113 158,-137 165.393,-140.369 173.378,-143.765 181.079,-146.921"/>
<polygon fill="midnightblue" stroke="midnightblue" points="89.9347,-99.1258 79.4645,-97.5057 86.6392,-105.302 89.9347,-99.1258"/>
</g>
<!-- Node3 -->
<g id="node3" class="node"><title>Node3</title>
<g id="a_node3"><a xlink:href="d9/df5/classo2_1_1monitoring_1_1backends_1_1Flume.html" target="_top" xlink:title="Backend that sends metrics to custum Apache Flume source. ">
<polygon fill="none" stroke="black" points="158,-98 158,-128 284,-128 284,-98 158,-98"/>
<text text-anchor="start" x="166" y="-116" font-family="Helvetica,sans-Serif" font-size="10.00">o2::monitoring::backends</text>
<text text-anchor="middle" x="221" y="-105" font-family="Helvetica,sans-Serif" font-size="10.00">::Flume</text>
</a>
</g>
</g>
<!-- Node1&#45;&gt;Node3 -->
<g id="edge2" class="edge"><title>Node1&#45;&gt;Node3</title>
<path fill="none" stroke="midnightblue" d="M132.158,-99.1009C140.73,-100.457 149.443,-101.836 157.886,-103.172"/>
<polygon fill="midnightblue" stroke="midnightblue" points="132.608,-95.6287 122.184,-97.5227 131.514,-102.543 132.608,-95.6287"/>
</g>
<!-- Node4 -->
<g id="node4" class="node"><title>Node4</title>
<g id="a_node4"><a xlink:href="dd/d09/classo2_1_1monitoring_1_1backends_1_1InfluxDB.html" target="_top" xlink:title="Backend that sends metrics to InfluxDB time&#45;series databse. ">
<polygon fill="none" stroke="black" points="158,-49 158,-79 284,-79 284,-49 158,-49"/>
<text text-anchor="start" x="166" y="-67" font-family="Helvetica,sans-Serif" font-size="10.00">o2::monitoring::backends</text>
<text text-anchor="middle" x="221" y="-56" font-family="Helvetica,sans-Serif" font-size="10.00">::InfluxDB</text>
</a>
</g>
</g>
<!-- Node1&#45;&gt;Node4 -->
<g id="edge3" class="edge"><title>Node1&#45;&gt;Node4</title>
<path fill="none" stroke="midnightblue" d="M132.158,-77.3432C140.73,-76.041 149.443,-74.7176 157.886,-73.4351"/>
<polygon fill="midnightblue" stroke="midnightblue" points="131.545,-73.896 122.184,-78.8582 132.596,-80.8166 131.545,-73.896"/>
</g>
<!-- Node5 -->
<g id="node5" class="node"><title>Node5</title>
<g id="a_node5"><a xlink:href="d7/db9/classo2_1_1monitoring_1_1backends_1_1InfoLoggerBackend.html" target="_top" xlink:title="Backend that injects metrics to InfoLogger. ">
<polygon fill="none" stroke="black" points="158,-0 158,-30 284,-30 284,-0 158,-0"/>
<text text-anchor="start" x="166" y="-18" font-family="Helvetica,sans-Serif" font-size="10.00">o2::monitoring::backends</text>
<text text-anchor="middle" x="221" y="-7" font-family="Helvetica,sans-Serif" font-size="10.00">::InfoLoggerBackend</text>
</a>
</g>
</g>
<!-- Node1&#45;&gt;Node5 -->
<g id="edge4" class="edge"><title>Node1&#45;&gt;Node5</title>
<path fill="none" stroke="midnightblue" d="M89.2016,-73.6673C108.27,-63.801 134.457,-50.6117 158,-40 165.407,-36.6616 173.398,-33.2797 181.101,-30.1276"/>
<polygon fill="midnightblue" stroke="midnightblue" points="87.4484,-70.634 80.1933,-78.355 90.6798,-76.8435 87.4484,-70.634"/>
</g>
</g>
</svg>
