<?xml version="1.0" encoding="UTF-8" standalone="no"?>
<!DOCTYPE svg PUBLIC "-//W3C//DTD SVG 1.1//EN"
 "http://www.w3.org/Graphics/SVG/1.1/DTD/svg11.dtd">
<!-- Generated by graphviz version 2.36.0 (20140111.2315)
 -->
<!-- Title: Graphical Class Hierarchy Pages: 1 -->
<svg width="328pt" height="115pt"
 viewBox="0.00 0.00 328.00 115.00" xmlns="http://www.w3.org/2000/svg" xmlns:xlink="http://www.w3.org/1999/xlink">
<g id="graph0" class="graph" transform="scale(1 1) rotate(0) translate(4 111)">
<title>Graphical Class Hierarchy</title>
<!-- Node1 -->
<g id="node1" class="node"><title>Node1</title>
<g id="a_node1"><a xlink:href="d0/d57/classo2_1_1monitoring_1_1transports_1_1TransportInterface.html" target="_top" xlink:title="Transport interface for backends. ">
<polygon fill="none" stroke="black" points="0,-33 0,-63 128,-63 128,-33 0,-33"/>
<text text-anchor="start" x="8" y="-51" font-family="Helvetica,sans-Serif" font-size="10.00">o2::monitoring::transports</text>
<text text-anchor="middle" x="64" y="-40" font-family="Helvetica,sans-Serif" font-size="10.00">::TransportInterface</text>
</a>
</g>
</g>
<!-- Node2 -->
<g id="node2" class="node"><title>Node2</title>
<g id="a_node2"><a xlink:href="d6/da3/classo2_1_1monitoring_1_1transports_1_1HTTP.html" target="_top" xlink:title="HTTP POST transport for Monitoring backends. ">
<polygon fill="none" stroke="black" points="178,-77 178,-107 306,-107 306,-77 178,-77"/>
<text text-anchor="start" x="186" y="-95" font-family="Helvetica,sans-Serif" font-size="10.00">o2::monitoring::transports</text>
<text text-anchor="middle" x="242" y="-84" font-family="Helvetica,sans-Serif" font-size="10.00">::HTTP</text>
</a>
</g>
</g>
<!-- Node1&#45;&gt;Node2 -->
<g id="edge1" class="edge"><title>Node1&#45;&gt;Node2</title>
<path fill="none" stroke="midnightblue" d="M134.942,-65.4855C150.149,-69.2873 166.108,-73.277 180.895,-76.9738"/>
<polygon fill="midnightblue" stroke="midnightblue" points="135.627,-62.0492 125.077,-63.0192 133.929,-68.8402 135.627,-62.0492"/>
</g>
<!-- Node3 -->
<g id="node3" class="node"><title>Node3</title>
<g id="a_node3"><a xlink:href="d9/d31/classo2_1_1monitoring_1_1transports_1_1TCP.html" target="_top" xlink:title="Transport that sends string formatted metrics via TCP. ">
<polygon fill="none" stroke="black" points="165,-38.5 165,-57.5 319,-57.5 319,-38.5 165,-38.5"/>
<text text-anchor="middle" x="242" y="-45.5" font-family="Helvetica,sans-Serif" font-size="10.00">o2::monitoring::transports::TCP</text>
</a>
</g>
</g>
<!-- Node1&#45;&gt;Node3 -->
<g id="edge2" class="edge"><title>Node1&#45;&gt;Node3</title>
<path fill="none" stroke="midnightblue" d="M138.25,-48C147.042,-48 156.036,-48 164.868,-48"/>
<polygon fill="midnightblue" stroke="midnightblue" points="138.043,-44.5001 128.043,-48 138.043,-51.5001 138.043,-44.5001"/>
</g>
<!-- Node4 -->
<g id="node4" class="node"><title>Node4</title>
<g id="a_node4"><a xlink:href="dd/df8/classo2_1_1monitoring_1_1transports_1_1UDP.html" target="_top" xlink:title="Transport that sends string formatted metrics via UDP. ">
<polygon fill="none" stroke="black" points="164.5,-0.5 164.5,-19.5 319.5,-19.5 319.5,-0.5 164.5,-0.5"/>
<text text-anchor="middle" x="242" y="-7.5" font-family="Helvetica,sans-Serif" font-size="10.00">o2::monitoring::transports::UDP</text>
</a>
</g>
</g>
<!-- Node1&#45;&gt;Node4 -->
<g id="edge3" class="edge"><title>Node1&#45;&gt;Node4</title>
<path fill="none" stroke="midnightblue" d="M138.054,-32.227C158.025,-27.915 179.055,-23.3746 196.864,-19.5294"/>
<polygon fill="midnightblue" stroke="midnightblue" points="137.079,-28.8568 128.043,-34.3885 138.556,-35.6991 137.079,-28.8568"/>
</g>
</g>
</svg>
