<?xml version="1.0" encoding="UTF-8" standalone="no"?>
<!DOCTYPE svg PUBLIC "-//W3C//DTD SVG 1.1//EN"
 "http://www.w3.org/Graphics/SVG/1.1/DTD/svg11.dtd">
<!-- Generated by graphviz version 2.36.0 (20140111.2315)
 -->
<!-- Title: Graphical Class Hierarchy Pages: 1 -->
<svg width="234pt" height="87pt"
 viewBox="0.00 0.00 234.00 87.00" xmlns="http://www.w3.org/2000/svg" xmlns:xlink="http://www.w3.org/1999/xlink">
<g id="graph0" class="graph" transform="scale(1 1) rotate(0) translate(4 83)">
<title>Graphical Class Hierarchy</title>
<!-- Node1 -->
<g id="node1" class="node"><title>Node1</title>
<polygon fill="none" stroke="#bfbfbf" points="0.5,-29.5 0.5,-48.5 59.5,-48.5 59.5,-29.5 0.5,-29.5"/>
<text text-anchor="middle" x="30" y="-36.5" font-family="Helvetica,sans-Serif" font-size="10.00">exception</text>
</g>
<!-- Node2 -->
<g id="node2" class="node"><title>Node2</title>
<g id="a_node2"><a xlink:href="de/d31/classo2_1_1monitoring_1_1MonitoringException.html" target="_top" xlink:title="Monitoring exception. ">
<polygon fill="none" stroke="black" points="96.5,-49 96.5,-79 225.5,-79 225.5,-49 96.5,-49"/>
<text text-anchor="start" x="104.5" y="-67" font-family="Helvetica,sans-Serif" font-size="10.00">o2::monitoring::Monitoring</text>
<text text-anchor="middle" x="161" y="-56" font-family="Helvetica,sans-Serif" font-size="10.00">Exception</text>
</a>
</g>
</g>
<!-- Node1&#45;&gt;Node2 -->
<g id="edge1" class="edge"><title>Node1&#45;&gt;Node2</title>
<path fill="none" stroke="midnightblue" d="M69.5454,-46.47C78.0062,-48.1097 87.1821,-49.888 96.3356,-51.6619"/>
<polygon fill="midnightblue" stroke="midnightblue" points="70.1126,-43.0149 59.6293,-44.5483 68.7807,-49.887 70.1126,-43.0149"/>
</g>
<!-- Node3 -->
<g id="node3" class="node"><title>Node3</title>
<g id="a_node3"><a xlink:href="d7/d43/classo2_1_1monitoring_1_1MonitoringInternalException.html" target="_top" xlink:title="Internal monitoring exception. ">
<polygon fill="none" stroke="black" points="96.5,-0 96.5,-30 225.5,-30 225.5,-0 96.5,-0"/>
<text text-anchor="start" x="104.5" y="-18" font-family="Helvetica,sans-Serif" font-size="10.00">o2::monitoring::Monitoring</text>
<text text-anchor="middle" x="161" y="-7" font-family="Helvetica,sans-Serif" font-size="10.00">InternalException</text>
</a>
</g>
</g>
<!-- Node1&#45;&gt;Node3 -->
<g id="edge2" class="edge"><title>Node1&#45;&gt;Node3</title>
<path fill="none" stroke="midnightblue" d="M69.5454,-31.8288C78.0062,-30.2547 87.1821,-28.5475 96.3356,-26.8445"/>
<polygon fill="midnightblue" stroke="midnightblue" points="68.8204,-28.4035 59.6293,-33.6736 70.1008,-35.2854 68.8204,-28.4035"/>
</g>
</g>
</svg>
