<?xml version="1.0" encoding="UTF-8" standalone="no"?>
<!DOCTYPE svg PUBLIC "-//W3C//DTD SVG 1.1//EN"
 "http://www.w3.org/Graphics/SVG/1.1/DTD/svg11.dtd">
<!-- Generated by graphviz version 2.36.0 (20140111.2315)
 -->
<!-- Title: /home/travis/build/AliceO2Group/Monitoring/test/testMetric.cxx Pages: 1 -->
<svg width="377pt" height="230pt"
 viewBox="0.00 0.00 377.00 230.00" xmlns="http://www.w3.org/2000/svg" xmlns:xlink="http://www.w3.org/1999/xlink">
<g id="graph0" class="graph" transform="scale(1 1) rotate(0) translate(4 226)">
<title>/home/travis/build/AliceO2Group/Monitoring/test/testMetric.cxx</title>
<!-- Node1 -->
<g id="node1" class="node"><title>Node1</title>
<polygon fill="#bfbfbf" stroke="black" points="100,-180.5 100,-221.5 228,-221.5 228,-180.5 100,-180.5"/>
<text text-anchor="start" x="108" y="-209.5" font-family="Helvetica,sans-Serif" font-size="10.00">/home/travis/build</text>
<text text-anchor="start" x="108" y="-198.5" font-family="Helvetica,sans-Serif" font-size="10.00">/AliceO2Group/Monitoring</text>
<text text-anchor="middle" x="164" y="-187.5" font-family="Helvetica,sans-Serif" font-size="10.00">/test/testMetric.cxx</text>
</g>
<!-- Node2 -->
<g id="node2" class="node"><title>Node2</title>
<g id="a_node2"><a xlink:href="../../d9/d92/Metric_8h.html" target="_top" xlink:title="../include/Monitoring\l/Metric.h">
<polygon fill="none" stroke="black" points="66,-113 66,-143 170,-143 170,-113 66,-113"/>
<text text-anchor="start" x="74" y="-131" font-family="Helvetica,sans-Serif" font-size="10.00">../include/Monitoring</text>
<text text-anchor="middle" x="118" y="-120" font-family="Helvetica,sans-Serif" font-size="10.00">/Metric.h</text>
</a>
</g>
</g>
<!-- Node1&#45;&gt;Node2 -->
<g id="edge1" class="edge"><title>Node1&#45;&gt;Node2</title>
<path fill="none" stroke="midnightblue" d="M151.186,-180.223C145.444,-171.36 138.641,-160.858 132.693,-151.678"/>
<polygon fill="midnightblue" stroke="midnightblue" points="135.477,-149.538 127.102,-143.049 129.602,-153.344 135.477,-149.538"/>
</g>
<!-- Node4 -->
<g id="node4" class="node"><title>Node4</title>
<polygon fill="none" stroke="#bfbfbf" points="0,-56.5 0,-75.5 46,-75.5 46,-56.5 0,-56.5"/>
<text text-anchor="middle" x="23" y="-63.5" font-family="Helvetica,sans-Serif" font-size="10.00">chrono</text>
</g>
<!-- Node1&#45;&gt;Node4 -->
<g id="edge8" class="edge"><title>Node1&#45;&gt;Node4</title>
<path fill="none" stroke="midnightblue" d="M110.012,-180.408C91.3714,-171.559 71.5407,-159.539 57,-144 41.4379,-127.369 32.2223,-102.448 27.3937,-85.4948"/>
<polygon fill="midnightblue" stroke="midnightblue" points="30.7423,-84.4652 24.8316,-75.6724 23.969,-86.2321 30.7423,-84.4652"/>
</g>
<!-- Node8 -->
<g id="node8" class="node"><title>Node8</title>
<polygon fill="none" stroke="#bfbfbf" points="188,-118.5 188,-137.5 232,-137.5 232,-118.5 188,-118.5"/>
<text text-anchor="middle" x="210" y="-125.5" font-family="Helvetica,sans-Serif" font-size="10.00">thread</text>
</g>
<!-- Node1&#45;&gt;Node8 -->
<g id="edge9" class="edge"><title>Node1&#45;&gt;Node8</title>
<path fill="none" stroke="midnightblue" d="M176.814,-180.223C183.734,-169.541 192.196,-156.481 198.843,-146.221"/>
<polygon fill="midnightblue" stroke="midnightblue" points="201.841,-148.031 204.341,-137.735 195.966,-144.224 201.841,-148.031"/>
</g>
<!-- Node9 -->
<g id="node9" class="node"><title>Node9</title>
<polygon fill="none" stroke="#bfbfbf" points="250.5,-118.5 250.5,-137.5 369.5,-137.5 369.5,-118.5 250.5,-118.5"/>
<text text-anchor="middle" x="310" y="-125.5" font-family="Helvetica,sans-Serif" font-size="10.00">boost/test/unit_test.hpp</text>
</g>
<!-- Node1&#45;&gt;Node9 -->
<g id="edge10" class="edge"><title>Node1&#45;&gt;Node9</title>
<path fill="none" stroke="midnightblue" d="M204.282,-180.411C229.427,-168.183 261.103,-152.779 283.196,-142.035"/>
<polygon fill="midnightblue" stroke="midnightblue" points="284.86,-145.118 292.322,-137.597 281.798,-138.823 284.86,-145.118"/>
</g>
<!-- Node3 -->
<g id="node3" class="node"><title>Node3</title>
<polygon fill="none" stroke="#bfbfbf" points="163.5,-0.5 163.5,-19.5 204.5,-19.5 204.5,-0.5 163.5,-0.5"/>
<text text-anchor="middle" x="184" y="-7.5" font-family="Helvetica,sans-Serif" font-size="10.00">string</text>
</g>
<!-- Node2&#45;&gt;Node3 -->
<g id="edge2" class="edge"><title>Node2&#45;&gt;Node3</title>
<path fill="none" stroke="midnightblue" d="M106.05,-112.862C94.9697,-97.9314 81.7614,-74.0951 93,-56 106.186,-34.7701 132.683,-23.2525 153.7,-17.2013"/>
<polygon fill="midnightblue" stroke="midnightblue" points="154.7,-20.5579 163.495,-14.6513 152.936,-13.7837 154.7,-20.5579"/>
</g>
<!-- Node2&#45;&gt;Node4 -->
<g id="edge3" class="edge"><title>Node2&#45;&gt;Node4</title>
<path fill="none" stroke="midnightblue" d="M95.4863,-112.781C80.31,-103.196 60.3764,-90.6062 45.2546,-81.0555"/>
<polygon fill="midnightblue" stroke="midnightblue" points="46.8704,-77.9365 36.5465,-75.5557 43.1324,-83.8549 46.8704,-77.9365"/>
</g>
<!-- Node5 -->
<g id="node5" class="node"><title>Node5</title>
<polygon fill="none" stroke="#bfbfbf" points="102,-56.5 102,-75.5 146,-75.5 146,-56.5 102,-56.5"/>
<text text-anchor="middle" x="124" y="-63.5" font-family="Helvetica,sans-Serif" font-size="10.00">vector</text>
</g>
<!-- Node2&#45;&gt;Node5 -->
<g id="edge4" class="edge"><title>Node2&#45;&gt;Node5</title>
<path fill="none" stroke="midnightblue" d="M119.422,-112.781C120.231,-104.691 121.254,-94.4617 122.127,-85.725"/>
<polygon fill="midnightblue" stroke="midnightblue" points="125.614,-86.0292 123.127,-75.7305 118.649,-85.3326 125.614,-86.0292"/>
</g>
<!-- Node6 -->
<g id="node6" class="node"><title>Node6</title>
<polygon fill="none" stroke="#bfbfbf" points="164,-56.5 164,-75.5 256,-75.5 256,-56.5 164,-56.5"/>
<text text-anchor="middle" x="210" y="-63.5" font-family="Helvetica,sans-Serif" font-size="10.00">boost/variant.hpp</text>
</g>
<!-- Node2&#45;&gt;Node6 -->
<g id="edge5" class="edge"><title>Node2&#45;&gt;Node6</title>
<path fill="none" stroke="midnightblue" d="M139.803,-112.781C154.5,-103.196 173.804,-90.6062 188.448,-81.0555"/>
<polygon fill="midnightblue" stroke="midnightblue" points="190.417,-83.9501 196.881,-75.5557 186.593,-78.0868 190.417,-83.9501"/>
</g>
<!-- Node7 -->
<g id="node7" class="node"><title>Node7</title>
<g id="a_node7"><a xlink:href="../../d9/d33/Tag_8h.html" target="_top" xlink:title="Tag.h">
<polygon fill="none" stroke="black" points="274.5,-56.5 274.5,-75.5 315.5,-75.5 315.5,-56.5 274.5,-56.5"/>
<text text-anchor="middle" x="295" y="-63.5" font-family="Helvetica,sans-Serif" font-size="10.00">Tag.h</text>
</a>
</g>
</g>
<!-- Node2&#45;&gt;Node7 -->
<g id="edge6" class="edge"><title>Node2&#45;&gt;Node7</title>
<path fill="none" stroke="midnightblue" d="M159.499,-112.933C191.672,-102.026 235.521,-87.1622 264.517,-77.3333"/>
<polygon fill="midnightblue" stroke="midnightblue" points="265.763,-80.6066 274.11,-74.0814 263.516,-73.9771 265.763,-80.6066"/>
</g>
<!-- Node7&#45;&gt;Node3 -->
<g id="edge7" class="edge"><title>Node7&#45;&gt;Node3</title>
<path fill="none" stroke="midnightblue" d="M277.166,-56.324C259.284,-47.6247 231.525,-34.1202 210.954,-24.113"/>
<polygon fill="midnightblue" stroke="midnightblue" points="212.313,-20.8819 201.79,-19.6545 209.251,-27.1765 212.313,-20.8819"/>
</g>
</g>
</svg>
