<?xml version="1.0" encoding="UTF-8" standalone="no"?>
<!DOCTYPE svg PUBLIC "-//W3C//DTD SVG 1.1//EN"
 "http://www.w3.org/Graphics/SVG/1.1/DTD/svg11.dtd">
<!-- Generated by graphviz version 2.36.0 (20140111.2315)
 -->
<!-- Title: http::url Pages: 1 -->
<svg width="116pt" height="226pt"
 viewBox="0.00 0.00 116.00 226.00" xmlns="http://www.w3.org/2000/svg" xmlns:xlink="http://www.w3.org/1999/xlink">
<g id="graph0" class="graph" transform="scale(1 1) rotate(0) translate(4 222)">
<title>http::url</title>
<!-- Node1 -->
<g id="node1" class="node"><title>Node1</title>
<polygon fill="#bfbfbf" stroke="black" points="15,-0.5 15,-57.5 65,-57.5 65,-0.5 15,-0.5"/>
<text text-anchor="middle" x="40" y="-45.5" font-family="Helvetica,sans-Serif" font-size="10.00">http::url</text>
<polyline fill="none" stroke="black" points="15,-38.5 65,-38.5 "/>
<text text-anchor="middle" x="40" y="-26.5" font-family="Helvetica,sans-Serif" font-size="10.00"> </text>
<polyline fill="none" stroke="black" points="15,-19.5 65,-19.5 "/>
<text text-anchor="middle" x="40" y="-7.5" font-family="Helvetica,sans-Serif" font-size="10.00"> </text>
</g>
<!-- Node2 -->
<g id="node2" class="node"><title>Node2</title>
<polygon fill="none" stroke="#bfbfbf" points="-0.5,-160.5 -0.5,-217.5 28.5,-217.5 28.5,-160.5 -0.5,-160.5"/>
<text text-anchor="middle" x="14" y="-205.5" font-family="Helvetica,sans-Serif" font-size="10.00">int</text>
<polyline fill="none" stroke="#bfbfbf" points="-0.5,-198.5 28.5,-198.5 "/>
<text text-anchor="middle" x="14" y="-186.5" font-family="Helvetica,sans-Serif" font-size="10.00"> </text>
<polyline fill="none" stroke="#bfbfbf" points="-0.5,-179.5 28.5,-179.5 "/>
<text text-anchor="middle" x="14" y="-167.5" font-family="Helvetica,sans-Serif" font-size="10.00"> </text>
</g>
<!-- Node2&#45;&gt;Node1 -->
<g id="edge1" class="edge"><title>Node2&#45;&gt;Node1</title>
<path fill="none" stroke="#404040" d="M12.33,-160.434C11.6275,-137.51 12.2067,-104.194 19,-76 19.5552,-73.6956 20.2269,-71.3656 20.9844,-69.0411"/>
<polygon fill="none" stroke="#404040" points="21.0686,-68.8199 19.4686,-61.7885 25.3437,-57.6072 26.9437,-64.6386 21.0686,-68.8199"/>
<text text-anchor="middle" x="32" y="-106.5" font-family="Helvetica,sans-Serif" font-size="10.00"> +port</text>
</g>
<!-- Node3 -->
<g id="node3" class="node"><title>Node3</title>
<polygon fill="none" stroke="#bfbfbf" points="46.5,-160.5 46.5,-217.5 87.5,-217.5 87.5,-160.5 46.5,-160.5"/>
<text text-anchor="middle" x="67" y="-205.5" font-family="Helvetica,sans-Serif" font-size="10.00">string</text>
<polyline fill="none" stroke="#bfbfbf" points="46.5,-198.5 87.5,-198.5 "/>
<text text-anchor="middle" x="67" y="-186.5" font-family="Helvetica,sans-Serif" font-size="10.00"> </text>
<polyline fill="none" stroke="#bfbfbf" points="46.5,-179.5 87.5,-179.5 "/>
<text text-anchor="middle" x="67" y="-167.5" font-family="Helvetica,sans-Serif" font-size="10.00"> </text>
</g>
<!-- Node3&#45;&gt;Node1 -->
<g id="edge2" class="edge"><title>Node3&#45;&gt;Node1</title>
<path fill="none" stroke="#404040" d="M62.297,-160.479C58.0064,-135.371 51.6162,-97.976 46.7752,-69.6477"/>
<polygon fill="none" stroke="#404040" points="46.7612,-69.5648 41.8076,-64.3243 44.7397,-57.7362 49.6933,-62.9767 46.7612,-69.5648"/>
<text text-anchor="middle" x="83.5" y="-134" font-family="Helvetica,sans-Serif" font-size="10.00"> +host</text>
<text text-anchor="middle" x="83.5" y="-123" font-family="Helvetica,sans-Serif" font-size="10.00">+search</text>
<text text-anchor="middle" x="83.5" y="-112" font-family="Helvetica,sans-Serif" font-size="10.00">+user</text>
<text text-anchor="middle" x="83.5" y="-101" font-family="Helvetica,sans-Serif" font-size="10.00">+password</text>
<text text-anchor="middle" x="83.5" y="-90" font-family="Helvetica,sans-Serif" font-size="10.00">+protocol</text>
<text text-anchor="middle" x="83.5" y="-79" font-family="Helvetica,sans-Serif" font-size="10.00">+path</text>
</g>
</g>
</svg>
