<?xml version="1.0" encoding="UTF-8" standalone="no"?>
<!DOCTYPE svg PUBLIC "-//W3C//DTD SVG 1.1//EN"
 "http://www.w3.org/Graphics/SVG/1.1/DTD/svg11.dtd">
<!-- Generated by graphviz version 2.36.0 (20140111.2315)
 -->
<!-- Title: /home/travis/build/AliceO2Group/Monitoring/src/Transports/HTTP.h Pages: 1 -->
<svg width="298pt" height="162pt"
 viewBox="0.00 0.00 298.00 162.00" xmlns="http://www.w3.org/2000/svg" xmlns:xlink="http://www.w3.org/1999/xlink">
<g id="graph0" class="graph" transform="scale(1 1) rotate(0) translate(4 158)">
<title>/home/travis/build/AliceO2Group/Monitoring/src/Transports/HTTP.h</title>
<!-- Node1 -->
<g id="node1" class="node"><title>Node1</title>
<polygon fill="#bfbfbf" stroke="black" points="97,-112.5 97,-153.5 225,-153.5 225,-112.5 97,-112.5"/>
<text text-anchor="start" x="105" y="-141.5" font-family="Helvetica,sans-Serif" font-size="10.00">/home/travis/build</text>
<text text-anchor="start" x="105" y="-130.5" font-family="Helvetica,sans-Serif" font-size="10.00">/AliceO2Group/Monitoring</text>
<text text-anchor="middle" x="161" y="-119.5" font-family="Helvetica,sans-Serif" font-size="10.00">/src/Transports/HTTP.h</text>
</g>
<!-- Node2 -->
<g id="node2" class="node"><title>Node2</title>
<g id="a_node2"><a xlink:href="../../de/dac/TransportInterface_8h.html" target="_top" xlink:title="TransportInterface.h">
<polygon fill="none" stroke="black" points="0,-56.5 0,-75.5 104,-75.5 104,-56.5 0,-56.5"/>
<text text-anchor="middle" x="52" y="-63.5" font-family="Helvetica,sans-Serif" font-size="10.00">TransportInterface.h</text>
</a>
</g>
</g>
<!-- Node1&#45;&gt;Node2 -->
<g id="edge1" class="edge"><title>Node1&#45;&gt;Node2</title>
<path fill="none" stroke="midnightblue" d="M128.296,-112.498C111.263,-102.34 90.8294,-90.1551 75.397,-80.9523"/>
<polygon fill="midnightblue" stroke="midnightblue" points="76.891,-77.7682 66.5096,-75.6525 73.3057,-83.7804 76.891,-77.7682"/>
</g>
<!-- Node3 -->
<g id="node3" class="node"><title>Node3</title>
<polygon fill="none" stroke="#bfbfbf" points="71.5,-0.5 71.5,-19.5 112.5,-19.5 112.5,-0.5 71.5,-0.5"/>
<text text-anchor="middle" x="92" y="-7.5" font-family="Helvetica,sans-Serif" font-size="10.00">string</text>
</g>
<!-- Node1&#45;&gt;Node3 -->
<g id="edge5" class="edge"><title>Node1&#45;&gt;Node3</title>
<path fill="none" stroke="midnightblue" d="M149.76,-112.29C136.454,-88.9564 114.508,-50.4706 101.844,-28.2627"/>
<polygon fill="midnightblue" stroke="midnightblue" points="104.884,-26.5279 96.8898,-19.5748 98.8031,-29.9955 104.884,-26.5279"/>
</g>
<!-- Node4 -->
<g id="node4" class="node"><title>Node4</title>
<polygon fill="none" stroke="#bfbfbf" points="160.5,-56.5 160.5,-75.5 219.5,-75.5 219.5,-56.5 160.5,-56.5"/>
<text text-anchor="middle" x="190" y="-63.5" font-family="Helvetica,sans-Serif" font-size="10.00">curl/curl.h</text>
</g>
<!-- Node1&#45;&gt;Node4 -->
<g id="edge3" class="edge"><title>Node1&#45;&gt;Node4</title>
<path fill="none" stroke="midnightblue" d="M169.701,-112.498C173.591,-103.778 178.149,-93.5632 181.958,-85.0241"/>
<polygon fill="midnightblue" stroke="midnightblue" points="185.261,-86.2109 186.14,-75.6525 178.869,-83.3587 185.261,-86.2109"/>
</g>
<!-- Node5 -->
<g id="node5" class="node"><title>Node5</title>
<polygon fill="none" stroke="#bfbfbf" points="238,-56.5 238,-75.5 290,-75.5 290,-56.5 238,-56.5"/>
<text text-anchor="middle" x="264" y="-63.5" font-family="Helvetica,sans-Serif" font-size="10.00">memory</text>
</g>
<!-- Node1&#45;&gt;Node5 -->
<g id="edge4" class="edge"><title>Node1&#45;&gt;Node5</title>
<path fill="none" stroke="midnightblue" d="M191.903,-112.498C207.847,-102.436 226.944,-90.3849 241.477,-81.2136"/>
<polygon fill="midnightblue" stroke="midnightblue" points="243.7,-83.9493 250.289,-75.6525 239.964,-78.0295 243.7,-83.9493"/>
</g>
<!-- Node2&#45;&gt;Node3 -->
<g id="edge2" class="edge"><title>Node2&#45;&gt;Node3</title>
<path fill="none" stroke="midnightblue" d="M58.6052,-56.083C64.2552,-48.4554 72.5448,-37.2645 79.4512,-27.9408"/>
<polygon fill="midnightblue" stroke="midnightblue" points="82.3779,-29.87 85.5177,-19.7511 76.7529,-25.7034 82.3779,-29.87"/>
</g>
</g>
</svg>
