<?xml version="1.0" encoding="UTF-8" standalone="no"?>
<!DOCTYPE svg PUBLIC "-//W3C//DTD SVG 1.1//EN"
 "http://www.w3.org/Graphics/SVG/1.1/DTD/svg11.dtd">
<!-- Generated by graphviz version 2.36.0 (20140111.2315)
 -->
<!-- Title: /home/travis/build/AliceO2Group/Monitoring/src/DerivedMetrics.cxx Pages: 1 -->
<!--zoomable 286 -->
<svg id="main" version="1.1" xmlns="http://www.w3.org/2000/svg" xmlns:xlink="http://www.w3.org/1999/xlink" xml:space="preserve" onload="init(evt)">
<style type="text/css"><![CDATA[
.edge:hover path { stroke: red; }
.edge:hover polygon { stroke: red; fill: red; }
]]></style>
<script type="text/javascript"><![CDATA[
var edges = document.getElementsByTagName('g');
if (edges && edges.length) {
  for (var i=0;i<edges.length;i++) {
    if (edges[i].id.substr(0,4)=='edge') {
      edges[i].setAttribute('class','edge');
    }
  }
}
]]></script>
        <defs>
                <circle id="rim" cx="0" cy="0" r="7"/>
                <circle id="rim2" cx="0" cy="0" r="3.5"/>
                <g id="zoomPlus">
                        <use xlink:href="#rim" fill="#404040">
                                <set attributeName="fill" to="#808080" begin="zoomplus.mouseover" end="zoomplus.mouseout"/>
                        </use>
                        <path d="M-4,0h8M0,-4v8" fill="none" stroke="white" stroke-width="1.5" pointer-events="none"/>
                </g>
                <g id="zoomMin">
                        <use xlink:href="#rim" fill="#404040">
                                <set attributeName="fill" to="#808080" begin="zoomminus.mouseover" end="zoomminus.mouseout"/>
                        </use>
                        <path d="M-4,0h8" fill="none" stroke="white" stroke-width="1.5" pointer-events="none"/>
                </g>
                <g id="dirArrow">
                        <path fill="none" stroke="white" stroke-width="1.5" d="M0,-3.0v7 M-2.5,-0.5L0,-3.0L2.5,-0.5"/>
                </g>
               <g id="resetDef">
                       <use xlink:href="#rim2" fill="#404040">
                               <set attributeName="fill" to="#808080" begin="reset.mouseover" end="reset.mouseout"/>
                       </use>
               </g>
        </defs>

<script type="text/javascript">
var viewWidth = 1386;
var viewHeight = 286;
var sectionId = 'dynsection-0';
</script>
<script xlink:href="../../svgpan.js"/>
<svg id="graph" class="graph">
<g id="viewport">
<title>/home/travis/build/AliceO2Group/Monitoring/src/DerivedMetrics.cxx</title>
<!-- Node1 -->
<g id="node1" class="node"><title>Node1</title>
<polygon fill="#bfbfbf" stroke="black" points="584.85,-236.5 584.85,-277.5 712.85,-277.5 712.85,-236.5 584.85,-236.5"/>
<text text-anchor="start" x="592.85" y="-265.5" font-family="Helvetica,sans-Serif" font-size="10.00">/home/travis/build</text>
<text text-anchor="start" x="592.85" y="-254.5" font-family="Helvetica,sans-Serif" font-size="10.00">/AliceO2Group/Monitoring</text>
<text text-anchor="middle" x="648.85" y="-243.5" font-family="Helvetica,sans-Serif" font-size="10.00">/src/DerivedMetrics.cxx</text>
</g>
<!-- Node2 -->
<g id="node2" class="node"><title>Node2</title>
<g id="a_node2"><a xlink:href="../../dc/de0/DerivedMetrics_8h.html" target="_top" xlink:title="Monitoring/DerivedMetrics.h">
<polygon fill="none" stroke="black" points="306.35,-174.5 306.35,-193.5 445.35,-193.5 445.35,-174.5 306.35,-174.5"/>
<text text-anchor="middle" x="375.85" y="-181.5" font-family="Helvetica,sans-Serif" font-size="10.00">Monitoring/DerivedMetrics.h</text>
</a>
</g>
</g>
<!-- Node1&#45;&gt;Node2 -->
<g id="edge1" class="edge"><title>Node1&#45;&gt;Node2</title>
<path fill="none" stroke="midnightblue" d="M584.844,-239.354C533.671,-226.045 463.347,-207.756 418.746,-196.156"/>
<polygon fill="midnightblue" stroke="midnightblue" points="419.371,-192.702 408.812,-193.573 417.609,-199.477 419.371,-192.702"/>
</g>
<!-- Node4 -->
<g id="node4" class="node"><title>Node4</title>
<polygon fill="none" stroke="#bfbfbf" points="137.85,-112.5 137.85,-131.5 189.85,-131.5 189.85,-112.5 137.85,-112.5"/>
<text text-anchor="middle" x="163.85" y="-119.5" font-family="Helvetica,sans-Serif" font-size="10.00">memory</text>
</g>
<!-- Node1&#45;&gt;Node4 -->
<g id="edge22" class="edge"><title>Node1&#45;&gt;Node4</title>
<path fill="none" stroke="midnightblue" d="M584.814,-252.85C512.916,-247.72 393.646,-234.38 296.85,-200 253.634,-184.65 208.49,-155.199 183.492,-137.503"/>
<polygon fill="midnightblue" stroke="midnightblue" points="185.396,-134.561 175.234,-131.563 181.308,-140.244 185.396,-134.561"/>
</g>
<!-- Node5 -->
<g id="node5" class="node"><title>Node5</title>
<polygon fill="none" stroke="#bfbfbf" points="197.35,-0.5 197.35,-19.5 238.35,-19.5 238.35,-0.5 197.35,-0.5"/>
<text text-anchor="middle" x="217.85" y="-7.5" font-family="Helvetica,sans-Serif" font-size="10.00">string</text>
</g>
<!-- Node1&#45;&gt;Node5 -->
<g id="edge23" class="edge"><title>Node1&#45;&gt;Node5</title>
<path fill="none" stroke="midnightblue" d="M584.767,-254.445C434.507,-250.209 69.0358,-236.254 27.8504,-200 -1.93032,-173.785 -8.10712,-145.688 12.8504,-112 51.3312,-50.1434 140.071,-25.0611 187.178,-15.8222"/>
<polygon fill="midnightblue" stroke="midnightblue" points="187.914,-19.2457 197.112,-13.9888 186.643,-12.3619 187.914,-19.2457"/>
</g>
<!-- Node6 -->
<g id="node6" class="node"><title>Node6</title>
<polygon fill="none" stroke="#bfbfbf" points="453.85,-56.5 453.85,-75.5 497.85,-75.5 497.85,-56.5 453.85,-56.5"/>
<text text-anchor="middle" x="475.85" y="-63.5" font-family="Helvetica,sans-Serif" font-size="10.00">vector</text>
</g>
<!-- Node1&#45;&gt;Node6 -->
<g id="edge24" class="edge"><title>Node1&#45;&gt;Node6</title>
<path fill="none" stroke="midnightblue" d="M605.936,-236.303C588.695,-226.977 569.482,-214.651 554.85,-200 520.337,-165.442 494.992,-112.864 483.206,-85.309"/>
<polygon fill="midnightblue" stroke="midnightblue" points="486.308,-83.6516 479.24,-75.7589 479.843,-86.3366 486.308,-83.6516"/>
</g>
<!-- Node8 -->
<g id="node8" class="node"><title>Node8</title>
<polygon fill="none" stroke="#bfbfbf" points="528.85,-56.5 528.85,-75.5 574.85,-75.5 574.85,-56.5 528.85,-56.5"/>
<text text-anchor="middle" x="551.85" y="-63.5" font-family="Helvetica,sans-Serif" font-size="10.00">chrono</text>
</g>
<!-- Node1&#45;&gt;Node8 -->
<g id="edge19" class="edge"><title>Node1&#45;&gt;Node8</title>
<path fill="none" stroke="midnightblue" d="M609.888,-236.278C595.707,-227.153 580.943,-214.977 571.85,-200 550.008,-164.023 549.009,-112.773 550.33,-85.5934"/>
<polygon fill="midnightblue" stroke="midnightblue" points="553.828,-85.7395 550.984,-75.5334 546.843,-85.2851 553.828,-85.7395"/>
</g>
<!-- Node11 -->
<g id="node11" class="node"><title>Node11</title>
<g id="a_node11"><a xlink:href="../../dc/d75/MonitoringInternalException_8h.html" target="_top" xlink:title="Exceptions/MonitoringInternal\lException.h">
<polygon fill="none" stroke="black" points="36.8504,-169 36.8504,-199 182.85,-199 182.85,-169 36.8504,-169"/>
<text text-anchor="start" x="44.8504" y="-187" font-family="Helvetica,sans-Serif" font-size="10.00">Exceptions/MonitoringInternal</text>
<text text-anchor="middle" x="109.85" y="-176" font-family="Helvetica,sans-Serif" font-size="10.00">Exception.h</text>
</a>
</g>
</g>
<!-- Node1&#45;&gt;Node11 -->
<g id="edge13" class="edge"><title>Node1&#45;&gt;Node11</title>
<path fill="none" stroke="midnightblue" d="M584.514,-247.718C500.592,-236.889 349.209,-217.263 219.85,-200 211.175,-198.842 202.116,-197.623 193.083,-196.401"/>
<polygon fill="midnightblue" stroke="midnightblue" points="193.296,-192.898 182.917,-195.023 192.356,-199.835 193.296,-192.898"/>
</g>
<!-- Node13 -->
<g id="node13" class="node"><title>Node13</title>
<polygon fill="none" stroke="#bfbfbf" points="709.85,-174.5 709.85,-193.5 823.85,-193.5 823.85,-174.5 709.85,-174.5"/>
<text text-anchor="middle" x="766.85" y="-181.5" font-family="Helvetica,sans-Serif" font-size="10.00">boost/lexical_cast.hpp</text>
</g>
<!-- Node1&#45;&gt;Node13 -->
<g id="edge16" class="edge"><title>Node1&#45;&gt;Node13</title>
<path fill="none" stroke="midnightblue" d="M681.407,-236.411C701.274,-224.457 726.185,-209.468 743.974,-198.765"/>
<polygon fill="midnightblue" stroke="midnightblue" points="745.799,-201.752 752.563,-193.597 742.19,-195.754 745.799,-201.752"/>
</g>
<!-- Node14 -->
<g id="node14" class="node"><title>Node14</title>
<polygon fill="none" stroke="#bfbfbf" points="841.85,-174.5 841.85,-193.5 965.85,-193.5 965.85,-174.5 841.85,-174.5"/>
<text text-anchor="middle" x="903.85" y="-181.5" font-family="Helvetica,sans-Serif" font-size="10.00">boost/variant/variant.hpp</text>
</g>
<!-- Node1&#45;&gt;Node14 -->
<g id="edge17" class="edge"><title>Node1&#45;&gt;Node14</title>
<path fill="none" stroke="midnightblue" d="M712.868,-238.175C760.062,-225.035 822.835,-207.557 863.298,-196.291"/>
<polygon fill="midnightblue" stroke="midnightblue" points="864.386,-199.621 873.081,-193.567 862.509,-192.878 864.386,-199.621"/>
</g>
<!-- Node15 -->
<g id="node15" class="node"><title>Node15</title>
<polygon fill="none" stroke="#bfbfbf" points="984.35,-169 984.35,-199 1083.35,-199 1083.35,-169 984.35,-169"/>
<text text-anchor="start" x="992.35" y="-187" font-family="Helvetica,sans-Serif" font-size="10.00">boost/variant/apply</text>
<text text-anchor="middle" x="1033.85" y="-176" font-family="Helvetica,sans-Serif" font-size="10.00">_visitor.hpp</text>
</g>
<!-- Node1&#45;&gt;Node15 -->
<g id="edge18" class="edge"><title>Node1&#45;&gt;Node15</title>
<path fill="none" stroke="midnightblue" d="M712.944,-246.398C778.689,-236.211 883.793,-218.989 973.85,-200 973.955,-199.978 974.061,-199.956 974.166,-199.933"/>
<polygon fill="midnightblue" stroke="midnightblue" points="975.141,-203.302 984.151,-197.727 973.631,-196.467 975.141,-203.302"/>
</g>
<!-- Node16 -->
<g id="node16" class="node"><title>Node16</title>
<polygon fill="none" stroke="#bfbfbf" points="685.85,-112.5 685.85,-131.5 739.85,-131.5 739.85,-112.5 685.85,-112.5"/>
<text text-anchor="middle" x="712.85" y="-119.5" font-family="Helvetica,sans-Serif" font-size="10.00">iostream</text>
</g>
<!-- Node1&#45;&gt;Node16 -->
<g id="edge20" class="edge"><title>Node1&#45;&gt;Node16</title>
<path fill="none" stroke="midnightblue" d="M658.294,-236.375C670.701,-210.591 692.314,-165.677 704.274,-140.822"/>
<polygon fill="midnightblue" stroke="midnightblue" points="707.436,-142.323 708.619,-131.794 701.129,-139.287 707.436,-142.323"/>
</g>
<!-- Node17 -->
<g id="node17" class="node"><title>Node17</title>
<polygon fill="none" stroke="#bfbfbf" points="1101.35,-174.5 1101.35,-193.5 1136.35,-193.5 1136.35,-174.5 1101.35,-174.5"/>
<text text-anchor="middle" x="1118.85" y="-181.5" font-family="Helvetica,sans-Serif" font-size="10.00">map</text>
</g>
<!-- Node1&#45;&gt;Node17 -->
<g id="edge21" class="edge"><title>Node1&#45;&gt;Node17</title>
<path fill="none" stroke="midnightblue" d="M712.863,-255.47C800.509,-253.063 961.817,-242.576 1091.85,-200 1093.5,-199.461 1095.16,-198.819 1096.8,-198.108"/>
<polygon fill="midnightblue" stroke="midnightblue" points="1098.51,-201.169 1105.85,-193.534 1095.35,-194.922 1098.51,-201.169"/>
</g>
<!-- Node18 -->
<g id="node18" class="node"><title>Node18</title>
<g id="a_node18"><a xlink:href="../../df/de7/MonLogger_8h.html" target="_top" xlink:title="MonLogger.h">
<polygon fill="none" stroke="black" points="580.35,-174.5 580.35,-193.5 653.35,-193.5 653.35,-174.5 580.35,-174.5"/>
<text text-anchor="middle" x="616.85" y="-181.5" font-family="Helvetica,sans-Serif" font-size="10.00">MonLogger.h</text>
</a>
</g>
</g>
<!-- Node1&#45;&gt;Node18 -->
<g id="edge25" class="edge"><title>Node1&#45;&gt;Node18</title>
<path fill="none" stroke="midnightblue" d="M639.937,-236.223C635.221,-225.759 629.476,-213.013 624.897,-202.853"/>
<polygon fill="midnightblue" stroke="midnightblue" points="628.087,-201.414 620.787,-193.735 621.705,-204.29 628.087,-201.414"/>
</g>
<!-- Node20 -->
<g id="node20" class="node"><title>Node20</title>
<g id="a_node20"><a xlink:href="../../d4/d01/VariantVisitorRate_8h.html" target="_top" xlink:title="VariantVisitorRate.h">
<polygon fill="none" stroke="black" points="1154.85,-174.5 1154.85,-193.5 1258.85,-193.5 1258.85,-174.5 1154.85,-174.5"/>
<text text-anchor="middle" x="1206.85" y="-181.5" font-family="Helvetica,sans-Serif" font-size="10.00">VariantVisitorRate.h</text>
</a>
</g>
</g>
<!-- Node1&#45;&gt;Node20 -->
<g id="edge29" class="edge"><title>Node1&#45;&gt;Node20</title>
<path fill="none" stroke="midnightblue" d="M713.03,-251.332C807.925,-243.848 991.032,-227.181 1144.85,-200 1151.29,-198.862 1158.06,-197.45 1164.66,-195.952"/>
<polygon fill="midnightblue" stroke="midnightblue" points="1165.9,-199.256 1174.83,-193.554 1164.3,-192.443 1165.9,-199.256"/>
</g>
<!-- Node21 -->
<g id="node21" class="node"><title>Node21</title>
<g id="a_node21"><a xlink:href="../../df/d4e/VariantVisitorAdd_8h.html" target="_top" xlink:title="VariantVisitorAdd.h">
<polygon fill="none" stroke="black" points="1277.35,-174.5 1277.35,-193.5 1378.35,-193.5 1378.35,-174.5 1277.35,-174.5"/>
<text text-anchor="middle" x="1327.85" y="-181.5" font-family="Helvetica,sans-Serif" font-size="10.00">VariantVisitorAdd.h</text>
</a>
</g>
</g>
<!-- Node1&#45;&gt;Node21 -->
<g id="edge30" class="edge"><title>Node1&#45;&gt;Node21</title>
<path fill="none" stroke="midnightblue" d="M712.983,-253.471C825.844,-248.293 1067.04,-233.976 1267.85,-200 1274.24,-198.919 1280.96,-197.513 1287.49,-195.996"/>
<polygon fill="midnightblue" stroke="midnightblue" points="1288.63,-199.319 1297.52,-193.552 1286.98,-192.518 1288.63,-199.319"/>
</g>
<!-- Node3 -->
<g id="node3" class="node"><title>Node3</title>
<polygon fill="none" stroke="#bfbfbf" points="246.35,-112.5 246.35,-131.5 329.35,-131.5 329.35,-112.5 246.35,-112.5"/>
<text text-anchor="middle" x="287.85" y="-119.5" font-family="Helvetica,sans-Serif" font-size="10.00">unordered_map</text>
</g>
<!-- Node2&#45;&gt;Node3 -->
<g id="edge2" class="edge"><title>Node2&#45;&gt;Node3</title>
<path fill="none" stroke="midnightblue" d="M363.242,-174.403C349.127,-164.78 326.019,-149.024 309.101,-137.489"/>
<polygon fill="midnightblue" stroke="midnightblue" points="310.669,-134.322 300.435,-131.581 306.726,-140.106 310.669,-134.322"/>
</g>
<!-- Node2&#45;&gt;Node4 -->
<g id="edge3" class="edge"><title>Node2&#45;&gt;Node4</title>
<path fill="none" stroke="midnightblue" d="M345.476,-174.403C307.057,-163.53 240.981,-144.829 200.003,-133.232"/>
<polygon fill="midnightblue" stroke="midnightblue" points="200.733,-129.801 190.158,-130.446 198.827,-136.537 200.733,-129.801"/>
</g>
<!-- Node2&#45;&gt;Node5 -->
<g id="edge4" class="edge"><title>Node2&#45;&gt;Node5</title>
<path fill="none" stroke="midnightblue" d="M312.87,-174.421C285.564,-167.459 255.609,-154.847 236.85,-132 212.872,-102.795 213.028,-55.832 215.366,-29.8367"/>
<polygon fill="midnightblue" stroke="midnightblue" points="218.856,-30.1235 216.476,-19.7992 211.898,-29.3537 218.856,-30.1235"/>
</g>
<!-- Node2&#45;&gt;Node6 -->
<g id="edge5" class="edge"><title>Node2&#45;&gt;Node6</title>
<path fill="none" stroke="midnightblue" d="M397.922,-174.406C416.267,-166.172 441.732,-152.027 456.85,-132 467.023,-118.524 471.762,-99.7128 473.962,-85.7925"/>
<polygon fill="midnightblue" stroke="midnightblue" points="477.433,-86.2375 475.237,-75.8728 470.49,-85.3448 477.433,-86.2375"/>
</g>
<!-- Node7 -->
<g id="node7" class="node"><title>Node7</title>
<g id="a_node7"><a xlink:href="../../d9/d92/Metric_8h.html" target="_top" xlink:title="Monitoring/Metric.h">
<polygon fill="none" stroke="black" points="347.85,-112.5 347.85,-131.5 447.85,-131.5 447.85,-112.5 347.85,-112.5"/>
<text text-anchor="middle" x="397.85" y="-119.5" font-family="Helvetica,sans-Serif" font-size="10.00">Monitoring/Metric.h</text>
</a>
</g>
</g>
<!-- Node2&#45;&gt;Node7 -->
<g id="edge6" class="edge"><title>Node2&#45;&gt;Node7</title>
<path fill="none" stroke="midnightblue" d="M379.002,-174.403C382.172,-165.76 387.155,-152.17 391.201,-141.134"/>
<polygon fill="midnightblue" stroke="midnightblue" points="394.548,-142.174 394.704,-131.581 387.975,-139.764 394.548,-142.174"/>
</g>
<!-- Node7&#45;&gt;Node5 -->
<g id="edge7" class="edge"><title>Node7&#45;&gt;Node5</title>
<path fill="none" stroke="midnightblue" d="M402.669,-112.371C409.509,-98.832 419.843,-72.4496 406.85,-56 387.462,-31.4537 296.961,-18.8544 248.566,-13.7753"/>
<polygon fill="midnightblue" stroke="midnightblue" points="248.657,-10.267 238.358,-12.7501 247.958,-17.2319 248.657,-10.267"/>
</g>
<!-- Node7&#45;&gt;Node6 -->
<g id="edge9" class="edge"><title>Node7&#45;&gt;Node6</title>
<path fill="none" stroke="midnightblue" d="M410.382,-112.324C422.436,-103.979 440.877,-91.2122 455.119,-81.3524"/>
<polygon fill="midnightblue" stroke="midnightblue" points="457.12,-84.2243 463.349,-75.6545 453.135,-78.469 457.12,-84.2243"/>
</g>
<!-- Node7&#45;&gt;Node8 -->
<g id="edge8" class="edge"><title>Node7&#45;&gt;Node8</title>
<path fill="none" stroke="midnightblue" d="M422.252,-112.444C448.35,-103.292 489.891,-88.726 518.885,-78.5594"/>
<polygon fill="midnightblue" stroke="midnightblue" points="520.292,-81.7748 528.571,-75.1629 517.976,-75.1691 520.292,-81.7748"/>
</g>
<!-- Node9 -->
<g id="node9" class="node"><title>Node9</title>
<polygon fill="none" stroke="#bfbfbf" points="305.85,-56.5 305.85,-75.5 397.85,-75.5 397.85,-56.5 305.85,-56.5"/>
<text text-anchor="middle" x="351.85" y="-63.5" font-family="Helvetica,sans-Serif" font-size="10.00">boost/variant.hpp</text>
</g>
<!-- Node7&#45;&gt;Node9 -->
<g id="edge10" class="edge"><title>Node7&#45;&gt;Node9</title>
<path fill="none" stroke="midnightblue" d="M390.254,-112.083C383.623,-104.298 373.829,-92.8015 365.792,-83.3665"/>
<polygon fill="midnightblue" stroke="midnightblue" points="368.454,-81.0939 359.305,-75.7511 363.125,-85.6332 368.454,-81.0939"/>
</g>
<!-- Node10 -->
<g id="node10" class="node"><title>Node10</title>
<g id="a_node10"><a xlink:href="../../d9/d33/Tag_8h.html" target="_top" xlink:title="Tag.h">
<polygon fill="none" stroke="black" points="246.35,-56.5 246.35,-75.5 287.35,-75.5 287.35,-56.5 246.35,-56.5"/>
<text text-anchor="middle" x="266.85" y="-63.5" font-family="Helvetica,sans-Serif" font-size="10.00">Tag.h</text>
</a>
</g>
</g>
<!-- Node7&#45;&gt;Node10 -->
<g id="edge11" class="edge"><title>Node7&#45;&gt;Node10</title>
<path fill="none" stroke="midnightblue" d="M377.093,-112.444C355.534,-103.557 321.587,-89.5632 297.057,-79.4514"/>
<polygon fill="midnightblue" stroke="midnightblue" points="298.09,-76.0917 287.511,-75.5164 295.422,-82.5634 298.09,-76.0917"/>
</g>
<!-- Node10&#45;&gt;Node5 -->
<g id="edge12" class="edge"><title>Node10&#45;&gt;Node5</title>
<path fill="none" stroke="midnightblue" d="M258.759,-56.083C251.695,-48.2982 241.263,-36.8015 232.701,-27.3665"/>
<polygon fill="midnightblue" stroke="midnightblue" points="235.103,-24.8047 225.791,-19.7511 229.919,-29.5087 235.103,-24.8047"/>
</g>
<!-- Node11&#45;&gt;Node5 -->
<g id="edge15" class="edge"><title>Node11&#45;&gt;Node5</title>
<path fill="none" stroke="midnightblue" d="M111.662,-168.956C114.01,-154.104 119.027,-130.333 128.85,-112 147.38,-77.4182 179.879,-44.7598 200.058,-26.3726"/>
<polygon fill="midnightblue" stroke="midnightblue" points="202.497,-28.887 207.629,-19.6176 197.837,-23.6639 202.497,-28.887"/>
</g>
<!-- Node12 -->
<g id="node12" class="node"><title>Node12</title>
<polygon fill="none" stroke="#bfbfbf" points="22.3504,-112.5 22.3504,-131.5 81.3504,-131.5 81.3504,-112.5 22.3504,-112.5"/>
<text text-anchor="middle" x="51.8504" y="-119.5" font-family="Helvetica,sans-Serif" font-size="10.00">exception</text>
</g>
<!-- Node11&#45;&gt;Node12 -->
<g id="edge14" class="edge"><title>Node11&#45;&gt;Node12</title>
<path fill="none" stroke="midnightblue" d="M96.1052,-168.781C87.5033,-159.882 76.3982,-148.394 67.4644,-139.152"/>
<polygon fill="midnightblue" stroke="midnightblue" points="69.7566,-136.488 60.2899,-131.731 64.7237,-141.353 69.7566,-136.488"/>
</g>
<!-- Node18&#45;&gt;Node8 -->
<g id="edge26" class="edge"><title>Node18&#45;&gt;Node8</title>
<path fill="none" stroke="midnightblue" d="M611.965,-174.281C601.278,-155.21 575.658,-109.488 561.56,-84.3272"/>
<polygon fill="midnightblue" stroke="midnightblue" points="564.558,-82.5176 556.616,-75.5048 558.451,-85.9395 564.558,-82.5176"/>
</g>
<!-- Node18&#45;&gt;Node16 -->
<g id="edge28" class="edge"><title>Node18&#45;&gt;Node16</title>
<path fill="none" stroke="midnightblue" d="M630.605,-174.403C646.217,-164.646 671.914,-148.585 690.433,-137.011"/>
<polygon fill="midnightblue" stroke="midnightblue" points="692.496,-139.849 699.121,-131.581 688.786,-133.913 692.496,-139.849"/>
</g>
<!-- Node19 -->
<g id="node19" class="node"><title>Node19</title>
<polygon fill="none" stroke="#bfbfbf" points="617.85,-112.5 617.85,-131.5 667.85,-131.5 667.85,-112.5 617.85,-112.5"/>
<text text-anchor="middle" x="642.85" y="-119.5" font-family="Helvetica,sans-Serif" font-size="10.00">iomanip</text>
</g>
<!-- Node18&#45;&gt;Node19 -->
<g id="edge27" class="edge"><title>Node18&#45;&gt;Node19</title>
<path fill="none" stroke="midnightblue" d="M620.576,-174.403C624.36,-165.671 630.332,-151.889 635.14,-140.794"/>
<polygon fill="midnightblue" stroke="midnightblue" points="638.367,-142.148 639.132,-131.581 631.945,-139.365 638.367,-142.148"/>
</g>
</g>
</svg>
        <g id="navigator" transform="translate(0 0)" fill="#404254">
                <rect fill="#f2f5e9" fill-opacity="0.5" stroke="#606060" stroke-width=".5" x="0" y="0" width="60" height="60"/>
                <use id="zoomplus" xlink:href="#zoomPlus" x="17" y="9" onmousedown="handleZoom(evt,'in')"/>
                <use id="zoomminus" xlink:href="#zoomMin" x="42" y="9" onmousedown="handleZoom(evt,'out')"/>
                <use id="reset" xlink:href="#resetDef" x="30" y="36" onmousedown="handleReset()"/>
                <g id="arrowUp" xlink:href="#dirArrow" transform="translate(30 24)" onmousedown="handlePan(0,-1)">
                  <use xlink:href="#rim" fill="#404040">
                        <set attributeName="fill" to="#808080" begin="arrowUp.mouseover" end="arrowUp.mouseout"/>
                  </use>
                  <path fill="none" stroke="white" stroke-width="1.5" d="M0,-3.0v7 M-2.5,-0.5L0,-3.0L2.5,-0.5"/>
                </g>
                <g id="arrowRight" xlink:href="#dirArrow" transform="rotate(90) translate(36 -43)" onmousedown="handlePan(1,0)">
                  <use xlink:href="#rim" fill="#404040">
                        <set attributeName="fill" to="#808080" begin="arrowRight.mouseover" end="arrowRight.mouseout"/>
                  </use>
                  <path fill="none" stroke="white" stroke-width="1.5" d="M0,-3.0v7 M-2.5,-0.5L0,-3.0L2.5,-0.5"/>
                </g>
                <g id="arrowDown" xlink:href="#dirArrow" transform="rotate(180) translate(-30 -48)" onmousedown="handlePan(0,1)">
                  <use xlink:href="#rim" fill="#404040">
                        <set attributeName="fill" to="#808080" begin="arrowDown.mouseover" end="arrowDown.mouseout"/>
                  </use>
                  <path fill="none" stroke="white" stroke-width="1.5" d="M0,-3.0v7 M-2.5,-0.5L0,-3.0L2.5,-0.5"/>
                </g>
                <g id="arrowLeft" xlink:href="#dirArrow" transform="rotate(270) translate(-36 17)" onmousedown="handlePan(-1,0)">
                  <use xlink:href="#rim" fill="#404040">
                        <set attributeName="fill" to="#808080" begin="arrowLeft.mouseover" end="arrowLeft.mouseout"/>
                  </use>
                  <path fill="none" stroke="white" stroke-width="1.5" d="M0,-3.0v7 M-2.5,-0.5L0,-3.0L2.5,-0.5"/>
                </g>
        </g>
        <svg viewBox="0 0 15 15" width="100%" height="30px" preserveAspectRatio="xMaxYMin meet">
         <g id="arrow_out" transform="scale(0.3 0.3)">
          <a xlink:href="DerivedMetrics_8cxx__incl_org.svg" target="_base">
           <rect id="button" ry="5" rx="5" y="6" x="6" height="38" width="38"
                fill="#f2f5e9" fill-opacity="0.5" stroke="#606060" stroke-width="1.0"/>
           <path id="arrow"
             d="M 11.500037,31.436501 C 11.940474,20.09759 22.043105,11.32322 32.158766,21.979434 L 37.068811,17.246167 C 37.068811,17.246167 37.088388,32 37.088388,32 L 22.160133,31.978069 C 22.160133,31.978069 26.997745,27.140456 26.997745,27.140456 C 18.528582,18.264221 13.291696,25.230495 11.500037,31.436501 z"
             style="fill:#404040;"/>
          </a>
         </g>
        </svg>
</svg>
