<?xml version="1.0" encoding="UTF-8" standalone="no"?>
<!DOCTYPE svg PUBLIC "-//W3C//DTD SVG 1.1//EN"
 "http://www.w3.org/Graphics/SVG/1.1/DTD/svg11.dtd">
<!-- Generated by graphviz version 2.36.0 (20140111.2315)
 -->
<!-- Title: /home/travis/build/AliceO2Group/Monitoring/include/Monitoring/Backend.h Pages: 1 -->
<svg width="374pt" height="218pt"
 viewBox="0.00 0.00 374.00 218.00" xmlns="http://www.w3.org/2000/svg" xmlns:xlink="http://www.w3.org/1999/xlink">
<g id="graph0" class="graph" transform="scale(1 1) rotate(0) translate(4 214)">
<title>/home/travis/build/AliceO2Group/Monitoring/include/Monitoring/Backend.h</title>
<!-- Node1 -->
<g id="node1" class="node"><title>Node1</title>
<polygon fill="#bfbfbf" stroke="black" points="0,-168.5 0,-209.5 148,-209.5 148,-168.5 0,-168.5"/>
<text text-anchor="start" x="8" y="-197.5" font-family="Helvetica,sans-Serif" font-size="10.00">/home/travis/build</text>
<text text-anchor="start" x="8" y="-186.5" font-family="Helvetica,sans-Serif" font-size="10.00">/AliceO2Group/Monitoring</text>
<text text-anchor="middle" x="74" y="-175.5" font-family="Helvetica,sans-Serif" font-size="10.00">/include/Monitoring/Backend.h</text>
</g>
<!-- Node2 -->
<g id="node2" class="node"><title>Node2</title>
<polygon fill="none" stroke="#bfbfbf" points="51,-56.5 51,-75.5 97,-75.5 97,-56.5 51,-56.5"/>
<text text-anchor="middle" x="74" y="-63.5" font-family="Helvetica,sans-Serif" font-size="10.00">chrono</text>
</g>
<!-- Node1&#45;&gt;Node2 -->
<g id="edge1" class="edge"><title>Node1&#45;&gt;Node2</title>
<path fill="none" stroke="midnightblue" d="M74,-168.29C74,-145.48 74,-108.189 74,-85.7807"/>
<polygon fill="midnightblue" stroke="midnightblue" points="77.5001,-85.5748 74,-75.5748 70.5001,-85.5748 77.5001,-85.5748"/>
</g>
<!-- Node3 -->
<g id="node3" class="node"><title>Node3</title>
<polygon fill="none" stroke="#bfbfbf" points="225.5,-0.5 225.5,-19.5 266.5,-19.5 266.5,-0.5 225.5,-0.5"/>
<text text-anchor="middle" x="246" y="-7.5" font-family="Helvetica,sans-Serif" font-size="10.00">string</text>
</g>
<!-- Node1&#45;&gt;Node3 -->
<g id="edge2" class="edge"><title>Node1&#45;&gt;Node3</title>
<path fill="none" stroke="midnightblue" d="M59.8813,-168.288C41.7415,-140.33 15.563,-88.9042 42,-56 63.3665,-29.4066 163.489,-17.5974 215.084,-13.2046"/>
<polygon fill="midnightblue" stroke="midnightblue" points="215.626,-16.6722 225.311,-12.3771 215.061,-9.69504 215.626,-16.6722"/>
</g>
<!-- Node4 -->
<g id="node4" class="node"><title>Node4</title>
<g id="a_node4"><a xlink:href="../../d9/d92/Metric_8h.html" target="_top" xlink:title="Monitoring/Metric.h">
<polygon fill="none" stroke="black" points="153,-112.5 153,-131.5 253,-131.5 253,-112.5 153,-112.5"/>
<text text-anchor="middle" x="203" y="-119.5" font-family="Helvetica,sans-Serif" font-size="10.00">Monitoring/Metric.h</text>
</a>
</g>
</g>
<!-- Node1&#45;&gt;Node4 -->
<g id="edge3" class="edge"><title>Node1&#45;&gt;Node4</title>
<path fill="none" stroke="midnightblue" d="M112.704,-168.498C133.433,-158.053 158.418,-145.464 176.846,-136.178"/>
<polygon fill="midnightblue" stroke="midnightblue" points="178.473,-139.278 185.828,-131.652 175.323,-133.027 178.473,-139.278"/>
</g>
<!-- Node4&#45;&gt;Node2 -->
<g id="edge5" class="edge"><title>Node4&#45;&gt;Node2</title>
<path fill="none" stroke="midnightblue" d="M182.56,-112.444C161.33,-103.557 127.901,-89.5632 103.745,-79.4514"/>
<polygon fill="midnightblue" stroke="midnightblue" points="104.921,-76.1493 94.3448,-75.5164 102.218,-82.6064 104.921,-76.1493"/>
</g>
<!-- Node4&#45;&gt;Node3 -->
<g id="edge4" class="edge"><title>Node4&#45;&gt;Node3</title>
<path fill="none" stroke="midnightblue" d="M228.504,-112.472C244.987,-105.478 265.139,-93.792 275,-76 283.845,-60.0415 272.839,-40.8681 261.939,-27.4974"/>
<polygon fill="midnightblue" stroke="midnightblue" points="264.244,-24.8199 255.001,-19.6411 258.997,-29.4535 264.244,-24.8199"/>
</g>
<!-- Node5 -->
<g id="node5" class="node"><title>Node5</title>
<polygon fill="none" stroke="#bfbfbf" points="323,-56.5 323,-75.5 367,-75.5 367,-56.5 323,-56.5"/>
<text text-anchor="middle" x="345" y="-63.5" font-family="Helvetica,sans-Serif" font-size="10.00">vector</text>
</g>
<!-- Node4&#45;&gt;Node5 -->
<g id="edge6" class="edge"><title>Node4&#45;&gt;Node5</title>
<path fill="none" stroke="midnightblue" d="M225.5,-112.444C249.077,-103.478 286.322,-89.314 312.964,-79.1827"/>
<polygon fill="midnightblue" stroke="midnightblue" points="314.502,-82.3424 322.605,-75.5164 312.014,-75.7995 314.502,-82.3424"/>
</g>
<!-- Node6 -->
<g id="node6" class="node"><title>Node6</title>
<polygon fill="none" stroke="#bfbfbf" points="115,-56.5 115,-75.5 207,-75.5 207,-56.5 115,-56.5"/>
<text text-anchor="middle" x="161" y="-63.5" font-family="Helvetica,sans-Serif" font-size="10.00">boost/variant.hpp</text>
</g>
<!-- Node4&#45;&gt;Node6 -->
<g id="edge7" class="edge"><title>Node4&#45;&gt;Node6</title>
<path fill="none" stroke="midnightblue" d="M196.065,-112.083C190.071,-104.377 181.248,-93.0333 173.952,-83.6531"/>
<polygon fill="midnightblue" stroke="midnightblue" points="176.709,-81.4958 167.806,-75.7511 171.183,-85.7934 176.709,-81.4958"/>
</g>
<!-- Node7 -->
<g id="node7" class="node"><title>Node7</title>
<g id="a_node7"><a xlink:href="../../d9/d33/Tag_8h.html" target="_top" xlink:title="Tag.h">
<polygon fill="none" stroke="black" points="225.5,-56.5 225.5,-75.5 266.5,-75.5 266.5,-56.5 225.5,-56.5"/>
<text text-anchor="middle" x="246" y="-63.5" font-family="Helvetica,sans-Serif" font-size="10.00">Tag.h</text>
</a>
</g>
</g>
<!-- Node4&#45;&gt;Node7 -->
<g id="edge8" class="edge"><title>Node4&#45;&gt;Node7</title>
<path fill="none" stroke="midnightblue" d="M210.101,-112.083C216.237,-104.377 225.27,-93.0333 232.739,-83.6531"/>
<polygon fill="midnightblue" stroke="midnightblue" points="235.54,-85.7542 239.032,-75.7511 230.064,-81.3936 235.54,-85.7542"/>
</g>
<!-- Node7&#45;&gt;Node3 -->
<g id="edge9" class="edge"><title>Node7&#45;&gt;Node3</title>
<path fill="none" stroke="midnightblue" d="M246,-56.083C246,-49.0059 246,-38.8611 246,-29.9865"/>
<polygon fill="midnightblue" stroke="midnightblue" points="249.5,-29.751 246,-19.7511 242.5,-29.7511 249.5,-29.751"/>
</g>
</g>
</svg>
