<?xml version="1.0" encoding="UTF-8" standalone="no"?>
<!DOCTYPE svg PUBLIC "-//W3C//DTD SVG 1.1//EN"
 "http://www.w3.org/Graphics/SVG/1.1/DTD/svg11.dtd">
<!-- Generated by graphviz version 2.36.0 (20140111.2315)
 -->
<!-- Title: /home/travis/build/AliceO2Group/Monitoring/test/testApMon.cxx Pages: 1 -->
<!--zoomable 330 -->
<svg id="main" version="1.1" xmlns="http://www.w3.org/2000/svg" xmlns:xlink="http://www.w3.org/1999/xlink" xml:space="preserve" onload="init(evt)">
<style type="text/css"><![CDATA[
.edge:hover path { stroke: red; }
.edge:hover polygon { stroke: red; fill: red; }
]]></style>
<script type="text/javascript"><![CDATA[
var edges = document.getElementsByTagName('g');
if (edges && edges.length) {
  for (var i=0;i<edges.length;i++) {
    if (edges[i].id.substr(0,4)=='edge') {
      edges[i].setAttribute('class','edge');
    }
  }
}
]]></script>
        <defs>
                <circle id="rim" cx="0" cy="0" r="7"/>
                <circle id="rim2" cx="0" cy="0" r="3.5"/>
                <g id="zoomPlus">
                        <use xlink:href="#rim" fill="#404040">
                                <set attributeName="fill" to="#808080" begin="zoomplus.mouseover" end="zoomplus.mouseout"/>
                        </use>
                        <path d="M-4,0h8M0,-4v8" fill="none" stroke="white" stroke-width="1.5" pointer-events="none"/>
                </g>
                <g id="zoomMin">
                        <use xlink:href="#rim" fill="#404040">
                                <set attributeName="fill" to="#808080" begin="zoomminus.mouseover" end="zoomminus.mouseout"/>
                        </use>
                        <path d="M-4,0h8" fill="none" stroke="white" stroke-width="1.5" pointer-events="none"/>
                </g>
                <g id="dirArrow">
                        <path fill="none" stroke="white" stroke-width="1.5" d="M0,-3.0v7 M-2.5,-0.5L0,-3.0L2.5,-0.5"/>
                </g>
               <g id="resetDef">
                       <use xlink:href="#rim2" fill="#404040">
                               <set attributeName="fill" to="#808080" begin="reset.mouseover" end="reset.mouseout"/>
                       </use>
               </g>
        </defs>

<script type="text/javascript">
var viewWidth = 825;
var viewHeight = 330;
var sectionId = 'dynsection-0';
</script>
<script xlink:href="../../svgpan.js"/>
<svg id="graph" class="graph">
<g id="viewport">
<title>/home/travis/build/AliceO2Group/Monitoring/test/testApMon.cxx</title>
<!-- Node1 -->
<g id="node1" class="node"><title>Node1</title>
<polygon fill="#bfbfbf" stroke="black" points="292,-280.5 292,-321.5 420,-321.5 420,-280.5 292,-280.5"/>
<text text-anchor="start" x="300" y="-309.5" font-family="Helvetica,sans-Serif" font-size="10.00">/home/travis/build</text>
<text text-anchor="start" x="300" y="-298.5" font-family="Helvetica,sans-Serif" font-size="10.00">/AliceO2Group/Monitoring</text>
<text text-anchor="middle" x="356" y="-287.5" font-family="Helvetica,sans-Serif" font-size="10.00">/test/testApMon.cxx</text>
</g>
<!-- Node2 -->
<g id="node2" class="node"><title>Node2</title>
<g id="a_node2"><a xlink:href="../../d7/d79/UriParser_8h.html" target="_top" xlink:title="../src/UriParser/UriParser.h">
<polygon fill="none" stroke="black" points="0,-224.5 0,-243.5 136,-243.5 136,-224.5 0,-224.5"/>
<text text-anchor="middle" x="68" y="-231.5" font-family="Helvetica,sans-Serif" font-size="10.00">../src/UriParser/UriParser.h</text>
</a>
</g>
</g>
<!-- Node1&#45;&gt;Node2 -->
<g id="edge1" class="edge"><title>Node1&#45;&gt;Node2</title>
<path fill="none" stroke="midnightblue" d="M291.726,-285.494C238.484,-273.477 164.009,-256.669 115.887,-245.808"/>
<polygon fill="midnightblue" stroke="midnightblue" points="116.56,-242.372 106.035,-243.584 115.019,-249.2 116.56,-242.372"/>
</g>
<!-- Node6 -->
<g id="node6" class="node"><title>Node6</title>
<polygon fill="none" stroke="#bfbfbf" points="154.5,-224.5 154.5,-243.5 273.5,-243.5 273.5,-224.5 154.5,-224.5"/>
<text text-anchor="middle" x="214" y="-231.5" font-family="Helvetica,sans-Serif" font-size="10.00">boost/test/unit_test.hpp</text>
</g>
<!-- Node1&#45;&gt;Node6 -->
<g id="edge5" class="edge"><title>Node1&#45;&gt;Node6</title>
<path fill="none" stroke="midnightblue" d="M313.395,-280.498C290.368,-269.957 262.57,-257.233 242.233,-247.923"/>
<polygon fill="midnightblue" stroke="midnightblue" points="243.452,-244.632 232.902,-243.652 240.538,-250.997 243.452,-244.632"/>
</g>
<!-- Node7 -->
<g id="node7" class="node"><title>Node7</title>
<polygon fill="none" stroke="#bfbfbf" points="291.5,-224.5 291.5,-243.5 420.5,-243.5 420.5,-224.5 291.5,-224.5"/>
<text text-anchor="middle" x="356" y="-231.5" font-family="Helvetica,sans-Serif" font-size="10.00">boost/filesystem/path.hpp</text>
</g>
<!-- Node1&#45;&gt;Node7 -->
<g id="edge6" class="edge"><title>Node1&#45;&gt;Node7</title>
<path fill="none" stroke="midnightblue" d="M356,-280.498C356,-272.065 356,-262.235 356,-253.874"/>
<polygon fill="midnightblue" stroke="midnightblue" points="359.5,-253.652 356,-243.652 352.5,-253.653 359.5,-253.652"/>
</g>
<!-- Node8 -->
<g id="node8" class="node"><title>Node8</title>
<polygon fill="none" stroke="#bfbfbf" points="438.5,-224.5 438.5,-243.5 593.5,-243.5 593.5,-224.5 438.5,-224.5"/>
<text text-anchor="middle" x="516" y="-231.5" font-family="Helvetica,sans-Serif" font-size="10.00">boost/filesystem/operations.hpp</text>
</g>
<!-- Node1&#45;&gt;Node8 -->
<g id="edge7" class="edge"><title>Node1&#45;&gt;Node8</title>
<path fill="none" stroke="midnightblue" d="M404.005,-280.498C430.423,-269.766 462.414,-256.769 485.43,-247.419"/>
<polygon fill="midnightblue" stroke="midnightblue" points="486.754,-250.659 494.702,-243.652 484.12,-244.174 486.754,-250.659"/>
</g>
<!-- Node9 -->
<g id="node9" class="node"><title>Node9</title>
<g id="a_node9"><a xlink:href="../../db/df5/ApMonBackend_8h.html" target="_top" xlink:title="../src/Backends/ApMonBackend.h">
<polygon fill="none" stroke="black" points="612,-224.5 612,-243.5 778,-243.5 778,-224.5 612,-224.5"/>
<text text-anchor="middle" x="695" y="-231.5" font-family="Helvetica,sans-Serif" font-size="10.00">../src/Backends/ApMonBackend.h</text>
</a>
</g>
</g>
<!-- Node1&#45;&gt;Node9 -->
<g id="edge8" class="edge"><title>Node1&#45;&gt;Node9</title>
<path fill="none" stroke="midnightblue" d="M420.162,-287.698C483.853,-275.485 580.419,-256.97 640.501,-245.45"/>
<polygon fill="midnightblue" stroke="midnightblue" points="641.387,-248.844 650.549,-243.523 640.069,-241.969 641.387,-248.844"/>
</g>
<!-- Node3 -->
<g id="node3" class="node"><title>Node3</title>
<polygon fill="none" stroke="#bfbfbf" points="76,-168.5 76,-187.5 130,-187.5 130,-168.5 76,-168.5"/>
<text text-anchor="middle" x="103" y="-175.5" font-family="Helvetica,sans-Serif" font-size="10.00">iostream</text>
</g>
<!-- Node2&#45;&gt;Node3 -->
<g id="edge2" class="edge"><title>Node2&#45;&gt;Node3</title>
<path fill="none" stroke="midnightblue" d="M73.7795,-224.083C78.6724,-216.534 85.8274,-205.495 91.8326,-196.23"/>
<polygon fill="midnightblue" stroke="midnightblue" points="94.826,-198.046 97.328,-187.751 88.952,-194.239 94.826,-198.046"/>
</g>
<!-- Node4 -->
<g id="node4" class="node"><title>Node4</title>
<polygon fill="none" stroke="#bfbfbf" points="398.5,-0.5 398.5,-19.5 439.5,-19.5 439.5,-0.5 398.5,-0.5"/>
<text text-anchor="middle" x="419" y="-7.5" font-family="Helvetica,sans-Serif" font-size="10.00">string</text>
</g>
<!-- Node2&#45;&gt;Node4 -->
<g id="edge3" class="edge"><title>Node2&#45;&gt;Node4</title>
<path fill="none" stroke="midnightblue" d="M81.7596,-224.297C135.387,-190.379 330.678,-66.862 396.879,-24.991"/>
<polygon fill="midnightblue" stroke="midnightblue" points="398.755,-27.9459 405.336,-19.6425 395.013,-22.0299 398.755,-27.9459"/>
</g>
<!-- Node5 -->
<g id="node5" class="node"><title>Node5</title>
<polygon fill="none" stroke="#bfbfbf" points="10,-168.5 10,-187.5 58,-187.5 58,-168.5 10,-168.5"/>
<text text-anchor="middle" x="34" y="-175.5" font-family="Helvetica,sans-Serif" font-size="10.00">stdlib.h</text>
</g>
<!-- Node2&#45;&gt;Node5 -->
<g id="edge4" class="edge"><title>Node2&#45;&gt;Node5</title>
<path fill="none" stroke="midnightblue" d="M62.3856,-224.083C57.6326,-216.534 50.6819,-205.495 44.8484,-196.23"/>
<polygon fill="midnightblue" stroke="midnightblue" points="47.7999,-194.349 39.5099,-187.751 41.8763,-198.078 47.7999,-194.349"/>
</g>
<!-- Node9&#45;&gt;Node4 -->
<g id="edge9" class="edge"><title>Node9&#45;&gt;Node4</title>
<path fill="none" stroke="midnightblue" d="M612.176,-224.472C579.806,-218.15 543.659,-207.147 515,-188 463.484,-153.581 457.126,-132.633 432,-76 425.502,-61.3551 422.227,-43.4153 420.591,-30.0955"/>
<polygon fill="midnightblue" stroke="midnightblue" points="424.035,-29.3702 419.536,-19.7784 417.072,-30.0827 424.035,-29.3702"/>
</g>
<!-- Node10 -->
<g id="node10" class="node"><title>Node10</title>
<polygon fill="none" stroke="#bfbfbf" points="717,-56.5 717,-75.5 763,-75.5 763,-56.5 717,-56.5"/>
<text text-anchor="middle" x="740" y="-63.5" font-family="Helvetica,sans-Serif" font-size="10.00">chrono</text>
</g>
<!-- Node9&#45;&gt;Node10 -->
<g id="edge10" class="edge"><title>Node9&#45;&gt;Node10</title>
<path fill="none" stroke="midnightblue" d="M700.107,-224.331C705.111,-215.48 712.606,-201.202 717,-188 728.664,-152.954 735.059,-110.113 737.985,-85.9526"/>
<polygon fill="midnightblue" stroke="midnightblue" points="741.498,-86.04 739.151,-75.7084 734.542,-85.2485 741.498,-86.04"/>
</g>
<!-- Node11 -->
<g id="node11" class="node"><title>Node11</title>
<polygon fill="none" stroke="#bfbfbf" points="765,-168.5 765,-187.5 817,-187.5 817,-168.5 765,-168.5"/>
<text text-anchor="middle" x="791" y="-175.5" font-family="Helvetica,sans-Serif" font-size="10.00">memory</text>
</g>
<!-- Node9&#45;&gt;Node11 -->
<g id="edge11" class="edge"><title>Node9&#45;&gt;Node11</title>
<path fill="none" stroke="midnightblue" d="M710.424,-224.324C725.54,-215.822 748.815,-202.729 766.471,-192.797"/>
<polygon fill="midnightblue" stroke="midnightblue" points="768.614,-195.608 775.614,-187.655 765.183,-189.507 768.614,-195.608"/>
</g>
<!-- Node12 -->
<g id="node12" class="node"><title>Node12</title>
<polygon fill="none" stroke="#bfbfbf" points="524,-168.5 524,-187.5 580,-187.5 580,-168.5 524,-168.5"/>
<text text-anchor="middle" x="552" y="-175.5" font-family="Helvetica,sans-Serif" font-size="10.00">ApMon.h</text>
</g>
<!-- Node9&#45;&gt;Node12 -->
<g id="edge12" class="edge"><title>Node9&#45;&gt;Node12</title>
<path fill="none" stroke="midnightblue" d="M672.341,-224.444C648.598,-215.478 611.091,-201.314 584.262,-191.183"/>
<polygon fill="midnightblue" stroke="midnightblue" points="585.144,-187.775 574.553,-187.516 582.671,-194.324 585.144,-187.775"/>
</g>
<!-- Node13 -->
<g id="node13" class="node"><title>Node13</title>
<g id="a_node13"><a xlink:href="../../df/d83/Backend_8h.html" target="_top" xlink:title="Monitoring/Backend.h">
<polygon fill="none" stroke="black" points="597.5,-168.5 597.5,-187.5 708.5,-187.5 708.5,-168.5 597.5,-168.5"/>
<text text-anchor="middle" x="653" y="-175.5" font-family="Helvetica,sans-Serif" font-size="10.00">Monitoring/Backend.h</text>
</a>
</g>
</g>
<!-- Node9&#45;&gt;Node13 -->
<g id="edge13" class="edge"><title>Node9&#45;&gt;Node13</title>
<path fill="none" stroke="midnightblue" d="M688.065,-224.083C682.071,-216.377 673.248,-205.033 665.952,-195.653"/>
<polygon fill="midnightblue" stroke="midnightblue" points="668.709,-193.496 659.806,-187.751 663.183,-197.793 668.709,-193.496"/>
</g>
<!-- Node13&#45;&gt;Node4 -->
<g id="edge15" class="edge"><title>Node13&#45;&gt;Node4</title>
<path fill="none" stroke="midnightblue" d="M620.566,-168.482C576.455,-155.391 497.501,-126.405 449,-76 436.364,-62.8685 428.362,-43.4561 423.83,-29.2655"/>
<polygon fill="midnightblue" stroke="midnightblue" points="427.178,-28.2448 421.021,-19.6222 420.457,-30.2019 427.178,-28.2448"/>
</g>
<!-- Node13&#45;&gt;Node10 -->
<g id="edge14" class="edge"><title>Node13&#45;&gt;Node10</title>
<path fill="none" stroke="midnightblue" d="M659.827,-168.368C674.248,-150.135 708.027,-107.426 726.811,-83.6752"/>
<polygon fill="midnightblue" stroke="midnightblue" points="729.747,-85.606 733.205,-75.5914 724.256,-81.2636 729.747,-85.606"/>
</g>
<!-- Node14 -->
<g id="node14" class="node"><title>Node14</title>
<g id="a_node14"><a xlink:href="../../d9/d92/Metric_8h.html" target="_top" xlink:title="Monitoring/Metric.h">
<polygon fill="none" stroke="black" points="568,-112.5 568,-131.5 668,-131.5 668,-112.5 568,-112.5"/>
<text text-anchor="middle" x="618" y="-119.5" font-family="Helvetica,sans-Serif" font-size="10.00">Monitoring/Metric.h</text>
</a>
</g>
</g>
<!-- Node13&#45;&gt;Node14 -->
<g id="edge16" class="edge"><title>Node13&#45;&gt;Node14</title>
<path fill="none" stroke="midnightblue" d="M647.22,-168.083C642.328,-160.534 635.173,-149.495 629.167,-140.23"/>
<polygon fill="midnightblue" stroke="midnightblue" points="632.048,-138.239 623.672,-131.751 626.174,-142.046 632.048,-138.239"/>
</g>
<!-- Node14&#45;&gt;Node4 -->
<g id="edge17" class="edge"><title>Node14&#45;&gt;Node4</title>
<path fill="none" stroke="midnightblue" d="M569.448,-112.471C540.599,-105.797 504.25,-94.4636 476,-76 457.037,-63.606 440.62,-43.2312 430.339,-28.5951"/>
<polygon fill="midnightblue" stroke="midnightblue" points="432.999,-26.2791 424.504,-19.9473 427.196,-30.1944 432.999,-26.2791"/>
</g>
<!-- Node14&#45;&gt;Node10 -->
<g id="edge18" class="edge"><title>Node14&#45;&gt;Node10</title>
<path fill="none" stroke="midnightblue" d="M637.331,-112.444C657.32,-103.596 688.743,-89.6875 711.564,-79.5865"/>
<polygon fill="midnightblue" stroke="midnightblue" points="713.032,-82.7645 720.759,-75.5164 710.198,-76.3635 713.032,-82.7645"/>
</g>
<!-- Node15 -->
<g id="node15" class="node"><title>Node15</title>
<polygon fill="none" stroke="#bfbfbf" points="595,-56.5 595,-75.5 639,-75.5 639,-56.5 595,-56.5"/>
<text text-anchor="middle" x="617" y="-63.5" font-family="Helvetica,sans-Serif" font-size="10.00">vector</text>
</g>
<!-- Node14&#45;&gt;Node15 -->
<g id="edge19" class="edge"><title>Node14&#45;&gt;Node15</title>
<path fill="none" stroke="midnightblue" d="M617.835,-112.083C617.704,-105.006 617.516,-94.8611 617.352,-85.9865"/>
<polygon fill="midnightblue" stroke="midnightblue" points="620.847,-85.6845 617.162,-75.7511 613.848,-85.8142 620.847,-85.6845"/>
</g>
<!-- Node16 -->
<g id="node16" class="node"><title>Node16</title>
<polygon fill="none" stroke="#bfbfbf" points="485,-56.5 485,-75.5 577,-75.5 577,-56.5 485,-56.5"/>
<text text-anchor="middle" x="531" y="-63.5" font-family="Helvetica,sans-Serif" font-size="10.00">boost/variant.hpp</text>
</g>
<!-- Node14&#45;&gt;Node16 -->
<g id="edge20" class="edge"><title>Node14&#45;&gt;Node16</title>
<path fill="none" stroke="midnightblue" d="M604.022,-112.324C590.45,-103.9 569.62,-90.9709 553.675,-81.0741"/>
<polygon fill="midnightblue" stroke="midnightblue" points="555.286,-77.9544 544.943,-75.6545 551.594,-83.9019 555.286,-77.9544"/>
</g>
<!-- Node17 -->
<g id="node17" class="node"><title>Node17</title>
<g id="a_node17"><a xlink:href="../../d9/d33/Tag_8h.html" target="_top" xlink:title="Tag.h">
<polygon fill="none" stroke="black" points="657.5,-56.5 657.5,-75.5 698.5,-75.5 698.5,-56.5 657.5,-56.5"/>
<text text-anchor="middle" x="678" y="-63.5" font-family="Helvetica,sans-Serif" font-size="10.00">Tag.h</text>
</a>
</g>
</g>
<!-- Node14&#45;&gt;Node17 -->
<g id="edge21" class="edge"><title>Node14&#45;&gt;Node17</title>
<path fill="none" stroke="midnightblue" d="M627.64,-112.324C636.51,-104.341 649.875,-92.3128 660.608,-82.6529"/>
<polygon fill="midnightblue" stroke="midnightblue" points="663.093,-85.1251 668.185,-75.8339 658.41,-79.922 663.093,-85.1251"/>
</g>
<!-- Node17&#45;&gt;Node4 -->
<g id="edge22" class="edge"><title>Node17&#45;&gt;Node4</title>
<path fill="none" stroke="midnightblue" d="M657.391,-58.7434C653.935,-57.7731 650.376,-56.8216 647,-56 576.921,-38.9462 493.539,-23.7672 449.603,-16.1601"/>
<polygon fill="midnightblue" stroke="midnightblue" points="450.018,-12.6801 439.57,-14.4361 448.832,-19.579 450.018,-12.6801"/>
</g>
</g>
</svg>
        <g id="navigator" transform="translate(0 0)" fill="#404254">
                <rect fill="#f2f5e9" fill-opacity="0.5" stroke="#606060" stroke-width=".5" x="0" y="0" width="60" height="60"/>
                <use id="zoomplus" xlink:href="#zoomPlus" x="17" y="9" onmousedown="handleZoom(evt,'in')"/>
                <use id="zoomminus" xlink:href="#zoomMin" x="42" y="9" onmousedown="handleZoom(evt,'out')"/>
                <use id="reset" xlink:href="#resetDef" x="30" y="36" onmousedown="handleReset()"/>
                <g id="arrowUp" xlink:href="#dirArrow" transform="translate(30 24)" onmousedown="handlePan(0,-1)">
                  <use xlink:href="#rim" fill="#404040">
                        <set attributeName="fill" to="#808080" begin="arrowUp.mouseover" end="arrowUp.mouseout"/>
                  </use>
                  <path fill="none" stroke="white" stroke-width="1.5" d="M0,-3.0v7 M-2.5,-0.5L0,-3.0L2.5,-0.5"/>
                </g>
                <g id="arrowRight" xlink:href="#dirArrow" transform="rotate(90) translate(36 -43)" onmousedown="handlePan(1,0)">
                  <use xlink:href="#rim" fill="#404040">
                        <set attributeName="fill" to="#808080" begin="arrowRight.mouseover" end="arrowRight.mouseout"/>
                  </use>
                  <path fill="none" stroke="white" stroke-width="1.5" d="M0,-3.0v7 M-2.5,-0.5L0,-3.0L2.5,-0.5"/>
                </g>
                <g id="arrowDown" xlink:href="#dirArrow" transform="rotate(180) translate(-30 -48)" onmousedown="handlePan(0,1)">
                  <use xlink:href="#rim" fill="#404040">
                        <set attributeName="fill" to="#808080" begin="arrowDown.mouseover" end="arrowDown.mouseout"/>
                  </use>
                  <path fill="none" stroke="white" stroke-width="1.5" d="M0,-3.0v7 M-2.5,-0.5L0,-3.0L2.5,-0.5"/>
                </g>
                <g id="arrowLeft" xlink:href="#dirArrow" transform="rotate(270) translate(-36 17)" onmousedown="handlePan(-1,0)">
                  <use xlink:href="#rim" fill="#404040">
                        <set attributeName="fill" to="#808080" begin="arrowLeft.mouseover" end="arrowLeft.mouseout"/>
                  </use>
                  <path fill="none" stroke="white" stroke-width="1.5" d="M0,-3.0v7 M-2.5,-0.5L0,-3.0L2.5,-0.5"/>
                </g>
        </g>
        <svg viewBox="0 0 15 15" width="100%" height="30px" preserveAspectRatio="xMaxYMin meet">
         <g id="arrow_out" transform="scale(0.3 0.3)">
          <a xlink:href="testApMon_8cxx__incl_org.svg" target="_base">
           <rect id="button" ry="5" rx="5" y="6" x="6" height="38" width="38"
                fill="#f2f5e9" fill-opacity="0.5" stroke="#606060" stroke-width="1.0"/>
           <path id="arrow"
             d="M 11.500037,31.436501 C 11.940474,20.09759 22.043105,11.32322 32.158766,21.979434 L 37.068811,17.246167 C 37.068811,17.246167 37.088388,32 37.088388,32 L 22.160133,31.978069 C 22.160133,31.978069 26.997745,27.140456 26.997745,27.140456 C 18.528582,18.264221 13.291696,25.230495 11.500037,31.436501 z"
             style="fill:#404040;"/>
          </a>
         </g>
        </svg>
</svg>
