<?xml version="1.0" encoding="UTF-8" standalone="no"?>
<!DOCTYPE svg PUBLIC "-//W3C//DTD SVG 1.1//EN"
 "http://www.w3.org/Graphics/SVG/1.1/DTD/svg11.dtd">
<!-- Generated by graphviz version 2.36.0 (20140111.2315)
 -->
<!-- Title: /home/travis/build/AliceO2Group/Monitoring/src/Backends/InfluxDB.cxx Pages: 1 -->
<svg width="1222pt" height="342pt"
 viewBox="0.00 0.00 1221.62 342.00" xmlns="http://www.w3.org/2000/svg" xmlns:xlink="http://www.w3.org/1999/xlink">
<g id="graph0" class="graph" transform="scale(1 1) rotate(0) translate(4 338)">
<title>/home/travis/build/AliceO2Group/Monitoring/src/Backends/InfluxDB.cxx</title>
<!-- Node1 -->
<g id="node1" class="node"><title>Node1</title>
<polygon fill="#bfbfbf" stroke="black" points="684.479,-292.5 684.479,-333.5 824.479,-333.5 824.479,-292.5 684.479,-292.5"/>
<text text-anchor="start" x="692.479" y="-321.5" font-family="Helvetica,sans-Serif" font-size="10.00">/home/travis/build</text>
<text text-anchor="start" x="692.479" y="-310.5" font-family="Helvetica,sans-Serif" font-size="10.00">/AliceO2Group/Monitoring</text>
<text text-anchor="middle" x="754.479" y="-299.5" font-family="Helvetica,sans-Serif" font-size="10.00">/src/Backends/InfluxDB.cxx</text>
</g>
<!-- Node2 -->
<g id="node2" class="node"><title>Node2</title>
<g id="a_node2"><a xlink:href="../../d1/d78/InfluxDB_8h.html" target="_top" xlink:title="InfluxDB.h">
<polygon fill="none" stroke="black" points="388.979,-230.5 388.979,-249.5 451.979,-249.5 451.979,-230.5 388.979,-230.5"/>
<text text-anchor="middle" x="420.479" y="-237.5" font-family="Helvetica,sans-Serif" font-size="10.00">InfluxDB.h</text>
</a>
</g>
</g>
<!-- Node1&#45;&gt;Node2 -->
<g id="edge1" class="edge"><title>Node1&#45;&gt;Node2</title>
<path fill="none" stroke="midnightblue" d="M684.461,-297.116C617.112,-282.799 517.556,-261.636 461.938,-249.813"/>
<polygon fill="midnightblue" stroke="midnightblue" points="462.591,-246.374 452.082,-247.718 461.135,-253.221 462.591,-246.374"/>
</g>
<!-- Node5 -->
<g id="node5" class="node"><title>Node5</title>
<polygon fill="none" stroke="#bfbfbf" points="399.979,-0.5 399.979,-19.5 440.979,-19.5 440.979,-0.5 399.979,-0.5"/>
<text text-anchor="middle" x="420.479" y="-7.5" font-family="Helvetica,sans-Serif" font-size="10.00">string</text>
</g>
<!-- Node1&#45;&gt;Node5 -->
<g id="edge21" class="edge"><title>Node1&#45;&gt;Node5</title>
<path fill="none" stroke="midnightblue" d="M824.538,-306.269C952.837,-293.829 1212.48,-258.797 1212.48,-179 1212.48,-179 1212.48,-179 1212.48,-121 1212.48,-90.9022 1217.03,-74.744 1193.48,-56 1134.66,-9.18217 588.43,-9.82445 451.496,-10.7322"/>
<polygon fill="midnightblue" stroke="midnightblue" points="451.264,-7.23372 441.289,-10.8056 451.314,-14.2335 451.264,-7.23372"/>
</g>
<!-- Node14 -->
<g id="node14" class="node"><title>Node14</title>
<polygon fill="none" stroke="#bfbfbf" points="655.479,-230.5 655.479,-249.5 769.479,-249.5 769.479,-230.5 655.479,-230.5"/>
<text text-anchor="middle" x="712.479" y="-237.5" font-family="Helvetica,sans-Serif" font-size="10.00">boost/lexical_cast.hpp</text>
</g>
<!-- Node1&#45;&gt;Node14 -->
<g id="edge20" class="edge"><title>Node1&#45;&gt;Node14</title>
<path fill="none" stroke="midnightblue" d="M742.779,-292.223C736.526,-281.65 728.892,-268.747 722.852,-258.536"/>
<polygon fill="midnightblue" stroke="midnightblue" points="725.75,-256.56 717.646,-249.735 719.725,-260.124 725.75,-256.56"/>
</g>
<!-- Node15 -->
<g id="node15" class="node"><title>Node15</title>
<g id="a_node15"><a xlink:href="../../d2/d5c/UDP_8h.html" target="_top" xlink:title="../Transports/UDP.h">
<polygon fill="none" stroke="black" points="537.979,-112.5 537.979,-131.5 642.979,-131.5 642.979,-112.5 537.979,-112.5"/>
<text text-anchor="middle" x="590.479" y="-119.5" font-family="Helvetica,sans-Serif" font-size="10.00">../Transports/UDP.h</text>
</a>
</g>
</g>
<!-- Node1&#45;&gt;Node15 -->
<g id="edge22" class="edge"><title>Node1&#45;&gt;Node15</title>
<path fill="none" stroke="midnightblue" d="M768.195,-292.271C779.32,-273.602 791.238,-245.338 778.479,-224 748.692,-174.185 684.963,-147.516 639.986,-134.32"/>
<polygon fill="midnightblue" stroke="midnightblue" points="640.699,-130.885 630.125,-131.553 638.808,-137.625 640.699,-130.885"/>
</g>
<!-- Node19 -->
<g id="node19" class="node"><title>Node19</title>
<g id="a_node19"><a xlink:href="../../dd/d7d/HTTP_8h.html" target="_top" xlink:title="../Transports/HTTP.h">
<polygon fill="none" stroke="black" points="971.479,-112.5 971.479,-131.5 1081.48,-131.5 1081.48,-112.5 971.479,-112.5"/>
<text text-anchor="middle" x="1026.48" y="-119.5" font-family="Helvetica,sans-Serif" font-size="10.00">../Transports/HTTP.h</text>
</a>
</g>
</g>
<!-- Node1&#45;&gt;Node19 -->
<g id="edge29" class="edge"><title>Node1&#45;&gt;Node19</title>
<path fill="none" stroke="midnightblue" d="M782.563,-292.486C837.395,-254.386 957.543,-170.9 1005.81,-137.365"/>
<polygon fill="midnightblue" stroke="midnightblue" points="1007.99,-140.109 1014.2,-131.529 1004,-134.361 1007.99,-140.109"/>
</g>
<!-- Node22 -->
<g id="node22" class="node"><title>Node22</title>
<g id="a_node22"><a xlink:href="../../dc/d75/MonitoringInternalException_8h.html" target="_top" xlink:title="../Exceptions/Monitoring\lInternalException.h">
<polygon fill="none" stroke="black" points="515.479,-225 515.479,-255 637.479,-255 637.479,-225 515.479,-225"/>
<text text-anchor="start" x="523.479" y="-243" font-family="Helvetica,sans-Serif" font-size="10.00">../Exceptions/Monitoring</text>
<text text-anchor="middle" x="576.479" y="-232" font-family="Helvetica,sans-Serif" font-size="10.00">InternalException.h</text>
</a>
</g>
</g>
<!-- Node1&#45;&gt;Node22 -->
<g id="edge34" class="edge"><title>Node1&#45;&gt;Node22</title>
<path fill="none" stroke="midnightblue" d="M705.368,-292.411C678.998,-281.892 646.737,-269.024 621.087,-258.793"/>
<polygon fill="midnightblue" stroke="midnightblue" points="622.192,-255.466 611.607,-255.012 619.598,-261.968 622.192,-255.466"/>
</g>
<!-- Node3 -->
<g id="node3" class="node"><title>Node3</title>
<g id="a_node3"><a xlink:href="../../df/d83/Backend_8h.html" target="_top" xlink:title="Monitoring/Backend.h">
<polygon fill="none" stroke="black" points="99.9788,-168.5 99.9788,-187.5 210.979,-187.5 210.979,-168.5 99.9788,-168.5"/>
<text text-anchor="middle" x="155.479" y="-175.5" font-family="Helvetica,sans-Serif" font-size="10.00">Monitoring/Backend.h</text>
</a>
</g>
</g>
<!-- Node2&#45;&gt;Node3 -->
<g id="edge2" class="edge"><title>Node2&#45;&gt;Node3</title>
<path fill="none" stroke="midnightblue" d="M388.777,-231.822C342.701,-221.39 256.884,-201.96 203.16,-189.796"/>
<polygon fill="midnightblue" stroke="midnightblue" points="203.718,-186.334 193.192,-187.539 202.173,-193.161 203.718,-186.334"/>
</g>
<!-- Node4 -->
<g id="node4" class="node"><title>Node4</title>
<polygon fill="none" stroke="#bfbfbf" points="289.479,-56.5 289.479,-75.5 335.479,-75.5 335.479,-56.5 289.479,-56.5"/>
<text text-anchor="middle" x="312.479" y="-63.5" font-family="Helvetica,sans-Serif" font-size="10.00">chrono</text>
</g>
<!-- Node2&#45;&gt;Node4 -->
<g id="edge18" class="edge"><title>Node2&#45;&gt;Node4</title>
<path fill="none" stroke="midnightblue" d="M393.044,-230.473C371.721,-222.568 342.785,-208.846 324.479,-188 301.355,-161.668 300.026,-146.873 303.479,-112 304.353,-103.17 306.17,-93.5054 307.944,-85.4041"/>
<polygon fill="midnightblue" stroke="midnightblue" points="311.379,-86.0846 310.244,-75.5508 304.563,-84.4935 311.379,-86.0846"/>
</g>
<!-- Node2&#45;&gt;Node5 -->
<g id="edge19" class="edge"><title>Node2&#45;&gt;Node5</title>
<path fill="none" stroke="midnightblue" d="M424.021,-230.319C431.142,-212.348 446.976,-169.603 452.479,-132 453.766,-123.205 456.372,-119.991 452.479,-112 441.108,-88.6617 417.85,-99.3383 406.479,-76 399.226,-61.115 404.496,-42.5042 410.533,-29.0157"/>
<polygon fill="midnightblue" stroke="midnightblue" points="413.775,-30.3572 415.103,-19.846 407.51,-27.2343 413.775,-30.3572"/>
</g>
<!-- Node10 -->
<g id="node10" class="node"><title>Node10</title>
<g id="a_node10"><a xlink:href="../../de/dac/TransportInterface_8h.html" target="_top" xlink:title="../Transports/TransportInterface.h">
<polygon fill="none" stroke="black" points="834.979,-56.5 834.979,-75.5 997.979,-75.5 997.979,-56.5 834.979,-56.5"/>
<text text-anchor="middle" x="916.479" y="-63.5" font-family="Helvetica,sans-Serif" font-size="10.00">../Transports/TransportInterface.h</text>
</a>
</g>
</g>
<!-- Node2&#45;&gt;Node10 -->
<g id="edge12" class="edge"><title>Node2&#45;&gt;Node10</title>
<path fill="none" stroke="midnightblue" d="M435.858,-230.426C462.053,-216.074 517.278,-186.901 566.479,-168 672.189,-127.39 801.251,-94.1771 869.281,-77.8812"/>
<polygon fill="midnightblue" stroke="midnightblue" points="870.346,-81.2257 879.265,-75.5066 868.726,-74.4157 870.346,-81.2257"/>
</g>
<!-- Node11 -->
<g id="node11" class="node"><title>Node11</title>
<g id="a_node11"><a xlink:href="../../df/de7/MonLogger_8h.html" target="_top" xlink:title="../MonLogger.h">
<polygon fill="none" stroke="black" points="333.479,-168.5 333.479,-187.5 415.479,-187.5 415.479,-168.5 333.479,-168.5"/>
<text text-anchor="middle" x="374.479" y="-175.5" font-family="Helvetica,sans-Serif" font-size="10.00">../MonLogger.h</text>
</a>
</g>
</g>
<!-- Node2&#45;&gt;Node11 -->
<g id="edge14" class="edge"><title>Node2&#45;&gt;Node11</title>
<path fill="none" stroke="midnightblue" d="M413.888,-230.403C406.988,-221.403 395.977,-207.041 387.345,-195.782"/>
<polygon fill="midnightblue" stroke="midnightblue" points="389.919,-193.387 381.057,-187.581 384.364,-197.646 389.919,-193.387"/>
</g>
<!-- Node3&#45;&gt;Node4 -->
<g id="edge3" class="edge"><title>Node3&#45;&gt;Node4</title>
<path fill="none" stroke="midnightblue" d="M166.396,-168.289C182.522,-155.529 213.791,-131.19 241.479,-112 257.222,-101.089 275.485,-89.5377 289.546,-80.8704"/>
<polygon fill="midnightblue" stroke="midnightblue" points="291.409,-83.8334 298.11,-75.627 287.754,-77.8634 291.409,-83.8334"/>
</g>
<!-- Node3&#45;&gt;Node5 -->
<g id="edge4" class="edge"><title>Node3&#45;&gt;Node5</title>
<path fill="none" stroke="midnightblue" d="M129.453,-168.486C77.0288,-150.057 -32.7398,-104.222 10.4788,-56 35.7092,-27.8488 298.283,-15.5214 389.479,-12.0669"/>
<polygon fill="midnightblue" stroke="midnightblue" points="389.859,-15.5553 399.724,-11.6891 389.601,-8.5601 389.859,-15.5553"/>
</g>
<!-- Node6 -->
<g id="node6" class="node"><title>Node6</title>
<g id="a_node6"><a xlink:href="../../d9/d92/Metric_8h.html" target="_top" xlink:title="Monitoring/Metric.h">
<polygon fill="none" stroke="black" points="89.4788,-112.5 89.4788,-131.5 189.479,-131.5 189.479,-112.5 89.4788,-112.5"/>
<text text-anchor="middle" x="139.479" y="-119.5" font-family="Helvetica,sans-Serif" font-size="10.00">Monitoring/Metric.h</text>
</a>
</g>
</g>
<!-- Node3&#45;&gt;Node6 -->
<g id="edge5" class="edge"><title>Node3&#45;&gt;Node6</title>
<path fill="none" stroke="midnightblue" d="M152.837,-168.083C150.693,-160.849 147.6,-150.409 144.93,-141.397"/>
<polygon fill="midnightblue" stroke="midnightblue" points="148.268,-140.345 142.072,-131.751 141.557,-142.333 148.268,-140.345"/>
</g>
<!-- Node6&#45;&gt;Node4 -->
<g id="edge7" class="edge"><title>Node6&#45;&gt;Node4</title>
<path fill="none" stroke="midnightblue" d="M166.891,-112.444C197.543,-102.876 247.157,-87.3894 279.801,-77.2001"/>
<polygon fill="midnightblue" stroke="midnightblue" points="280.844,-80.541 289.347,-74.2203 278.758,-73.859 280.844,-80.541"/>
</g>
<!-- Node6&#45;&gt;Node5 -->
<g id="edge6" class="edge"><title>Node6&#45;&gt;Node5</title>
<path fill="none" stroke="midnightblue" d="M139.303,-112.343C139.523,-98.2726 142.158,-70.5546 158.479,-56 192.191,-25.9358 327.532,-15.5379 389.372,-12.3087"/>
<polygon fill="midnightblue" stroke="midnightblue" points="389.863,-15.7889 399.679,-11.8019 389.519,-8.79738 389.863,-15.7889"/>
</g>
<!-- Node7 -->
<g id="node7" class="node"><title>Node7</title>
<polygon fill="none" stroke="#bfbfbf" points="167.479,-56.5 167.479,-75.5 211.479,-75.5 211.479,-56.5 167.479,-56.5"/>
<text text-anchor="middle" x="189.479" y="-63.5" font-family="Helvetica,sans-Serif" font-size="10.00">vector</text>
</g>
<!-- Node6&#45;&gt;Node7 -->
<g id="edge8" class="edge"><title>Node6&#45;&gt;Node7</title>
<path fill="none" stroke="midnightblue" d="M147.735,-112.083C154.943,-104.298 165.589,-92.8015 174.325,-83.3665"/>
<polygon fill="midnightblue" stroke="midnightblue" points="177.15,-85.4666 181.376,-75.7511 172.014,-80.7108 177.15,-85.4666"/>
</g>
<!-- Node8 -->
<g id="node8" class="node"><title>Node8</title>
<polygon fill="none" stroke="#bfbfbf" points="19.4788,-56.5 19.4788,-75.5 111.479,-75.5 111.479,-56.5 19.4788,-56.5"/>
<text text-anchor="middle" x="65.4788" y="-63.5" font-family="Helvetica,sans-Serif" font-size="10.00">boost/variant.hpp</text>
</g>
<!-- Node6&#45;&gt;Node8 -->
<g id="edge9" class="edge"><title>Node6&#45;&gt;Node8</title>
<path fill="none" stroke="midnightblue" d="M127.589,-112.324C116.329,-104.107 99.1922,-91.6017 85.7697,-81.8069"/>
<polygon fill="midnightblue" stroke="midnightblue" points="87.7256,-78.9014 77.5845,-75.8339 83.5993,-84.5559 87.7256,-78.9014"/>
</g>
<!-- Node9 -->
<g id="node9" class="node"><title>Node9</title>
<g id="a_node9"><a xlink:href="../../d9/d33/Tag_8h.html" target="_top" xlink:title="Tag.h">
<polygon fill="none" stroke="black" points="229.979,-56.5 229.979,-75.5 270.979,-75.5 270.979,-56.5 229.979,-56.5"/>
<text text-anchor="middle" x="250.479" y="-63.5" font-family="Helvetica,sans-Serif" font-size="10.00">Tag.h</text>
</a>
</g>
</g>
<!-- Node6&#45;&gt;Node9 -->
<g id="edge10" class="edge"><title>Node6&#45;&gt;Node9</title>
<path fill="none" stroke="midnightblue" d="M157.313,-112.324C175.195,-103.625 202.954,-90.1202 223.524,-80.113"/>
<polygon fill="midnightblue" stroke="midnightblue" points="225.228,-83.1765 232.689,-75.6545 222.165,-76.8819 225.228,-83.1765"/>
</g>
<!-- Node9&#45;&gt;Node5 -->
<g id="edge11" class="edge"><title>Node9&#45;&gt;Node5</title>
<path fill="none" stroke="midnightblue" d="M270.985,-58.4863C300.596,-49.0803 355.541,-31.6274 389.936,-20.7018"/>
<polygon fill="midnightblue" stroke="midnightblue" points="391.429,-23.9 399.9,-17.5368 389.31,-17.2285 391.429,-23.9"/>
</g>
<!-- Node10&#45;&gt;Node5 -->
<g id="edge13" class="edge"><title>Node10&#45;&gt;Node5</title>
<path fill="none" stroke="midnightblue" d="M838.16,-56.4733C726.798,-44.3492 527.742,-22.6778 451.427,-14.3693"/>
<polygon fill="midnightblue" stroke="midnightblue" points="451.403,-10.8461 441.083,-13.2432 450.645,-17.805 451.403,-10.8461"/>
</g>
<!-- Node11&#45;&gt;Node4 -->
<g id="edge15" class="edge"><title>Node11&#45;&gt;Node4</title>
<path fill="none" stroke="midnightblue" d="M354.256,-168.495C339.708,-161.168 321.178,-149.063 312.479,-132 305.191,-117.705 305.999,-99.2376 308.157,-85.6425"/>
<polygon fill="midnightblue" stroke="midnightblue" points="311.643,-86.0548 310.14,-75.5671 304.775,-84.7029 311.643,-86.0548"/>
</g>
<!-- Node12 -->
<g id="node12" class="node"><title>Node12</title>
<polygon fill="none" stroke="#bfbfbf" points="321.479,-112.5 321.479,-131.5 371.479,-131.5 371.479,-112.5 321.479,-112.5"/>
<text text-anchor="middle" x="346.479" y="-119.5" font-family="Helvetica,sans-Serif" font-size="10.00">iomanip</text>
</g>
<!-- Node11&#45;&gt;Node12 -->
<g id="edge16" class="edge"><title>Node11&#45;&gt;Node12</title>
<path fill="none" stroke="midnightblue" d="M369.855,-168.083C366.022,-160.691 360.455,-149.953 355.714,-140.811"/>
<polygon fill="midnightblue" stroke="midnightblue" points="358.727,-139.018 351.016,-131.751 352.512,-142.24 358.727,-139.018"/>
</g>
<!-- Node13 -->
<g id="node13" class="node"><title>Node13</title>
<polygon fill="none" stroke="#bfbfbf" points="389.479,-112.5 389.479,-131.5 443.479,-131.5 443.479,-112.5 389.479,-112.5"/>
<text text-anchor="middle" x="416.479" y="-119.5" font-family="Helvetica,sans-Serif" font-size="10.00">iostream</text>
</g>
<!-- Node11&#45;&gt;Node13 -->
<g id="edge17" class="edge"><title>Node11&#45;&gt;Node13</title>
<path fill="none" stroke="midnightblue" d="M381.414,-168.083C387.408,-160.377 396.231,-149.033 403.526,-139.653"/>
<polygon fill="midnightblue" stroke="midnightblue" points="406.296,-141.793 409.672,-131.751 400.77,-137.496 406.296,-141.793"/>
</g>
<!-- Node15&#45;&gt;Node4 -->
<g id="edge27" class="edge"><title>Node15&#45;&gt;Node4</title>
<path fill="none" stroke="midnightblue" d="M546.429,-112.444C490.684,-101.615 395.912,-83.2064 345.81,-73.4745"/>
<polygon fill="midnightblue" stroke="midnightblue" points="346.311,-70.0065 335.828,-71.5354 344.977,-76.878 346.311,-70.0065"/>
</g>
<!-- Node15&#45;&gt;Node5 -->
<g id="edge28" class="edge"><title>Node15&#45;&gt;Node5</title>
<path fill="none" stroke="midnightblue" d="M642.773,-112.428C697.72,-102.89 777.452,-87.3337 786.479,-76 792.016,-69.0468 792.368,-62.6579 786.479,-56 764.358,-30.9924 535.261,-16.8602 451.192,-12.4846"/>
<polygon fill="midnightblue" stroke="midnightblue" points="451.168,-8.97891 441.003,-11.9653 450.812,-15.9698 451.168,-8.97891"/>
</g>
<!-- Node15&#45;&gt;Node10 -->
<g id="edge23" class="edge"><title>Node15&#45;&gt;Node10</title>
<path fill="none" stroke="midnightblue" d="M642.134,-112.444C699.958,-102.865 793.591,-87.3556 855.102,-77.1667"/>
<polygon fill="midnightblue" stroke="midnightblue" points="855.771,-80.6036 865.065,-75.5164 854.627,-73.6977 855.771,-80.6036"/>
</g>
<!-- Node16 -->
<g id="node16" class="node"><title>Node16</title>
<polygon fill="none" stroke="#bfbfbf" points="448.479,-56.5 448.479,-75.5 532.479,-75.5 532.479,-56.5 448.479,-56.5"/>
<text text-anchor="middle" x="490.479" y="-63.5" font-family="Helvetica,sans-Serif" font-size="10.00">boost/array.hpp</text>
</g>
<!-- Node15&#45;&gt;Node16 -->
<g id="edge24" class="edge"><title>Node15&#45;&gt;Node16</title>
<path fill="none" stroke="midnightblue" d="M574.412,-112.324C558.521,-103.743 533.971,-90.486 515.52,-80.5224"/>
<polygon fill="midnightblue" stroke="midnightblue" points="516.968,-77.3264 506.506,-75.6545 513.642,-83.4857 516.968,-77.3264"/>
</g>
<!-- Node17 -->
<g id="node17" class="node"><title>Node17</title>
<polygon fill="none" stroke="#bfbfbf" points="550.479,-56.5 550.479,-75.5 630.479,-75.5 630.479,-56.5 550.479,-56.5"/>
<text text-anchor="middle" x="590.479" y="-63.5" font-family="Helvetica,sans-Serif" font-size="10.00">boost/asio.hpp</text>
</g>
<!-- Node15&#45;&gt;Node17 -->
<g id="edge25" class="edge"><title>Node15&#45;&gt;Node17</title>
<path fill="none" stroke="midnightblue" d="M590.479,-112.083C590.479,-105.006 590.479,-94.8611 590.479,-85.9865"/>
<polygon fill="midnightblue" stroke="midnightblue" points="593.979,-85.751 590.479,-75.7511 586.979,-85.7511 593.979,-85.751"/>
</g>
<!-- Node18 -->
<g id="node18" class="node"><title>Node18</title>
<polygon fill="none" stroke="#bfbfbf" points="648.979,-56.5 648.979,-75.5 777.979,-75.5 777.979,-56.5 648.979,-56.5"/>
<text text-anchor="middle" x="713.479" y="-63.5" font-family="Helvetica,sans-Serif" font-size="10.00">boost/algorithm/string.hpp</text>
</g>
<!-- Node15&#45;&gt;Node18 -->
<g id="edge26" class="edge"><title>Node15&#45;&gt;Node18</title>
<path fill="none" stroke="midnightblue" d="M609.969,-112.444C630.121,-103.596 661.802,-89.6875 684.81,-79.5865"/>
<polygon fill="midnightblue" stroke="midnightblue" points="686.331,-82.7411 694.08,-75.5164 683.517,-76.3316 686.331,-82.7411"/>
</g>
<!-- Node19&#45;&gt;Node5 -->
<g id="edge33" class="edge"><title>Node19&#45;&gt;Node5</title>
<path fill="none" stroke="midnightblue" d="M1026.66,-112.154C1026.42,-97.8129 1023.63,-69.7141 1006.48,-56 962.907,-21.1621 566.122,-13.0061 451.407,-11.3689"/>
<polygon fill="midnightblue" stroke="midnightblue" points="451.254,-7.86657 441.208,-11.2301 451.159,-14.8659 451.254,-7.86657"/>
</g>
<!-- Node19&#45;&gt;Node10 -->
<g id="edge30" class="edge"><title>Node19&#45;&gt;Node10</title>
<path fill="none" stroke="midnightblue" d="M1008.81,-112.324C991.085,-103.625 963.576,-90.1202 943.19,-80.113"/>
<polygon fill="midnightblue" stroke="midnightblue" points="944.627,-76.9195 934.108,-75.6545 941.543,-83.2031 944.627,-76.9195"/>
</g>
<!-- Node20 -->
<g id="node20" class="node"><title>Node20</title>
<polygon fill="none" stroke="#bfbfbf" points="1054.98,-56.5 1054.98,-75.5 1113.98,-75.5 1113.98,-56.5 1054.98,-56.5"/>
<text text-anchor="middle" x="1084.48" y="-63.5" font-family="Helvetica,sans-Serif" font-size="10.00">curl/curl.h</text>
</g>
<!-- Node19&#45;&gt;Node20 -->
<g id="edge31" class="edge"><title>Node19&#45;&gt;Node20</title>
<path fill="none" stroke="midnightblue" d="M1035.8,-112.324C1044.37,-104.341 1057.29,-92.3128 1067.67,-82.6529"/>
<polygon fill="midnightblue" stroke="midnightblue" points="1070.06,-85.2098 1074.99,-75.8339 1065.29,-80.0865 1070.06,-85.2098"/>
</g>
<!-- Node21 -->
<g id="node21" class="node"><title>Node21</title>
<polygon fill="none" stroke="#bfbfbf" points="1132.48,-56.5 1132.48,-75.5 1184.48,-75.5 1184.48,-56.5 1132.48,-56.5"/>
<text text-anchor="middle" x="1158.48" y="-63.5" font-family="Helvetica,sans-Serif" font-size="10.00">memory</text>
</g>
<!-- Node19&#45;&gt;Node21 -->
<g id="edge32" class="edge"><title>Node19&#45;&gt;Node21</title>
<path fill="none" stroke="midnightblue" d="M1047.39,-112.444C1069.21,-103.517 1103.63,-89.4387 1128.37,-79.3168"/>
<polygon fill="midnightblue" stroke="midnightblue" points="1129.73,-82.5422 1137.66,-75.5164 1127.08,-76.0634 1129.73,-82.5422"/>
</g>
<!-- Node22&#45;&gt;Node5 -->
<g id="edge36" class="edge"><title>Node22&#45;&gt;Node5</title>
<path fill="none" stroke="midnightblue" d="M564.551,-224.965C531.629,-186.206 441.758,-80.2568 439.479,-76 431.674,-61.4252 426.71,-43.2491 423.822,-29.8261"/>
<polygon fill="midnightblue" stroke="midnightblue" points="427.225,-28.9921 421.867,-19.8522 420.356,-30.3387 427.225,-28.9921"/>
</g>
<!-- Node23 -->
<g id="node23" class="node"><title>Node23</title>
<polygon fill="none" stroke="#bfbfbf" points="575.979,-168.5 575.979,-187.5 634.979,-187.5 634.979,-168.5 575.979,-168.5"/>
<text text-anchor="middle" x="605.479" y="-175.5" font-family="Helvetica,sans-Serif" font-size="10.00">exception</text>
</g>
<!-- Node22&#45;&gt;Node23 -->
<g id="edge35" class="edge"><title>Node22&#45;&gt;Node23</title>
<path fill="none" stroke="midnightblue" d="M583.351,-224.781C587.392,-216.422 592.536,-205.777 596.848,-196.856"/>
<polygon fill="midnightblue" stroke="midnightblue" points="600.059,-198.257 601.259,-187.731 593.756,-195.211 600.059,-198.257"/>
</g>
</g>
</svg>
