<?xml version="1.0" encoding="UTF-8" standalone="no"?>
<!DOCTYPE svg PUBLIC "-//W3C//DTD SVG 1.1//EN"
 "http://www.w3.org/Graphics/SVG/1.1/DTD/svg11.dtd">
<!-- Generated by graphviz version 2.36.0 (20140111.2315)
 -->
<!-- Title: /home/travis/build/AliceO2Group/Monitoring/src/Backends/ApMonBackend.cxx Pages: 1 -->
<!--zoomable 342 -->
<svg id="main" version="1.1" xmlns="http://www.w3.org/2000/svg" xmlns:xlink="http://www.w3.org/1999/xlink" xml:space="preserve" onload="init(evt)">
<style type="text/css"><![CDATA[
.edge:hover path { stroke: red; }
.edge:hover polygon { stroke: red; fill: red; }
]]></style>
<script type="text/javascript"><![CDATA[
var edges = document.getElementsByTagName('g');
if (edges && edges.length) {
  for (var i=0;i<edges.length;i++) {
    if (edges[i].id.substr(0,4)=='edge') {
      edges[i].setAttribute('class','edge');
    }
  }
}
]]></script>
        <defs>
                <circle id="rim" cx="0" cy="0" r="7"/>
                <circle id="rim2" cx="0" cy="0" r="3.5"/>
                <g id="zoomPlus">
                        <use xlink:href="#rim" fill="#404040">
                                <set attributeName="fill" to="#808080" begin="zoomplus.mouseover" end="zoomplus.mouseout"/>
                        </use>
                        <path d="M-4,0h8M0,-4v8" fill="none" stroke="white" stroke-width="1.5" pointer-events="none"/>
                </g>
                <g id="zoomMin">
                        <use xlink:href="#rim" fill="#404040">
                                <set attributeName="fill" to="#808080" begin="zoomminus.mouseover" end="zoomminus.mouseout"/>
                        </use>
                        <path d="M-4,0h8" fill="none" stroke="white" stroke-width="1.5" pointer-events="none"/>
                </g>
                <g id="dirArrow">
                        <path fill="none" stroke="white" stroke-width="1.5" d="M0,-3.0v7 M-2.5,-0.5L0,-3.0L2.5,-0.5"/>
                </g>
               <g id="resetDef">
                       <use xlink:href="#rim2" fill="#404040">
                               <set attributeName="fill" to="#808080" begin="reset.mouseover" end="reset.mouseout"/>
                       </use>
               </g>
        </defs>

<script type="text/javascript">
var viewWidth = 697;
var viewHeight = 342;
var sectionId = 'dynsection-0';
</script>
<script xlink:href="../../svgpan.js"/>
<svg id="graph" class="graph">
<g id="viewport">
<title>/home/travis/build/AliceO2Group/Monitoring/src/Backends/ApMonBackend.cxx</title>
<!-- Node1 -->
<g id="node1" class="node"><title>Node1</title>
<polygon fill="#bfbfbf" stroke="black" points="422.878,-292.5 422.878,-333.5 592.878,-333.5 592.878,-292.5 422.878,-292.5"/>
<text text-anchor="start" x="430.878" y="-321.5" font-family="Helvetica,sans-Serif" font-size="10.00">/home/travis/build</text>
<text text-anchor="start" x="430.878" y="-310.5" font-family="Helvetica,sans-Serif" font-size="10.00">/AliceO2Group/Monitoring</text>
<text text-anchor="middle" x="507.878" y="-299.5" font-family="Helvetica,sans-Serif" font-size="10.00">/src/Backends/ApMonBackend.cxx</text>
</g>
<!-- Node2 -->
<g id="node2" class="node"><title>Node2</title>
<g id="a_node2"><a xlink:href="../../db/df5/ApMonBackend_8h.html" target="_top" xlink:title="ApMonBackend.h">
<polygon fill="none" stroke="black" points="212.878,-230.5 212.878,-249.5 306.878,-249.5 306.878,-230.5 212.878,-230.5"/>
<text text-anchor="middle" x="259.878" y="-237.5" font-family="Helvetica,sans-Serif" font-size="10.00">ApMonBackend.h</text>
</a>
</g>
</g>
<!-- Node1&#45;&gt;Node2 -->
<g id="edge1" class="edge"><title>Node1&#45;&gt;Node2</title>
<path fill="none" stroke="midnightblue" d="M439.454,-292.411C394.503,-279.542 337.268,-263.156 299.647,-252.386"/>
<polygon fill="midnightblue" stroke="midnightblue" points="300.16,-248.892 289.583,-249.504 298.234,-255.622 300.16,-248.892"/>
</g>
<!-- Node12 -->
<g id="node12" class="node"><title>Node12</title>
<polygon fill="none" stroke="#bfbfbf" points="634.878,-168.5 634.878,-187.5 688.878,-187.5 688.878,-168.5 634.878,-168.5"/>
<text text-anchor="middle" x="661.878" y="-175.5" font-family="Helvetica,sans-Serif" font-size="10.00">iostream</text>
</g>
<!-- Node1&#45;&gt;Node12 -->
<g id="edge16" class="edge"><title>Node1&#45;&gt;Node12</title>
<path fill="none" stroke="midnightblue" d="M588.947,-292.466C608.988,-284.166 628.74,-272.456 642.878,-256 656.729,-239.877 660.784,-215.199 661.821,-198.146"/>
<polygon fill="midnightblue" stroke="midnightblue" points="665.331,-197.861 662.139,-187.758 658.334,-197.646 665.331,-197.861"/>
</g>
<!-- Node13 -->
<g id="node13" class="node"><title>Node13</title>
<polygon fill="none" stroke="#bfbfbf" points="481.878,-230.5 481.878,-249.5 533.878,-249.5 533.878,-230.5 481.878,-230.5"/>
<text text-anchor="middle" x="507.878" y="-237.5" font-family="Helvetica,sans-Serif" font-size="10.00">sstream</text>
</g>
<!-- Node1&#45;&gt;Node13 -->
<g id="edge17" class="edge"><title>Node1&#45;&gt;Node13</title>
<path fill="none" stroke="midnightblue" d="M507.878,-292.223C507.878,-282.086 507.878,-269.807 507.878,-259.813"/>
<polygon fill="midnightblue" stroke="midnightblue" points="511.378,-259.735 507.878,-249.735 504.378,-259.735 511.378,-259.735"/>
</g>
<!-- Node14 -->
<g id="node14" class="node"><title>Node14</title>
<g id="a_node14"><a xlink:href="../../df/de7/MonLogger_8h.html" target="_top" xlink:title="../MonLogger.h">
<polygon fill="none" stroke="black" points="551.878,-230.5 551.878,-249.5 633.878,-249.5 633.878,-230.5 551.878,-230.5"/>
<text text-anchor="middle" x="592.878" y="-237.5" font-family="Helvetica,sans-Serif" font-size="10.00">../MonLogger.h</text>
</a>
</g>
</g>
<!-- Node1&#45;&gt;Node14 -->
<g id="edge18" class="edge"><title>Node1&#45;&gt;Node14</title>
<path fill="none" stroke="midnightblue" d="M531.555,-292.223C545.125,-280.887 561.903,-266.872 574.478,-256.369"/>
<polygon fill="midnightblue" stroke="midnightblue" points="576.989,-258.832 582.42,-249.735 572.502,-253.459 576.989,-258.832"/>
</g>
<!-- Node16 -->
<g id="node16" class="node"><title>Node16</title>
<g id="a_node16"><a xlink:href="../../d1/d58/MonitoringException_8h.html" target="_top" xlink:title="../Exceptions/Monitoring\lException.h">
<polygon fill="none" stroke="black" points="341.878,-225 341.878,-255 463.878,-255 463.878,-225 341.878,-225"/>
<text text-anchor="start" x="349.878" y="-243" font-family="Helvetica,sans-Serif" font-size="10.00">../Exceptions/Monitoring</text>
<text text-anchor="middle" x="402.878" y="-232" font-family="Helvetica,sans-Serif" font-size="10.00">Exception.h</text>
</a>
</g>
</g>
<!-- Node1&#45;&gt;Node16 -->
<g id="edge22" class="edge"><title>Node1&#45;&gt;Node16</title>
<path fill="none" stroke="midnightblue" d="M478.908,-292.411C464.43,-282.622 446.943,-270.797 432.391,-260.957"/>
<polygon fill="midnightblue" stroke="midnightblue" points="434.008,-257.825 423.763,-255.123 430.087,-263.624 434.008,-257.825"/>
</g>
<!-- Node3 -->
<g id="node3" class="node"><title>Node3</title>
<polygon fill="none" stroke="#bfbfbf" points="242.378,-0.5 242.378,-19.5 283.378,-19.5 283.378,-0.5 242.378,-0.5"/>
<text text-anchor="middle" x="262.878" y="-7.5" font-family="Helvetica,sans-Serif" font-size="10.00">string</text>
</g>
<!-- Node2&#45;&gt;Node3 -->
<g id="edge2" class="edge"><title>Node2&#45;&gt;Node3</title>
<path fill="none" stroke="midnightblue" d="M276.277,-230.405C291.121,-221.736 312.369,-206.942 323.878,-188 350.218,-144.646 340.966,-126.491 345.878,-76 346.738,-67.1529 350.425,-63.6378 345.878,-56 334.505,-36.8982 311.887,-25.4059 293.13,-18.8216"/>
<polygon fill="midnightblue" stroke="midnightblue" points="294.07,-15.4476 283.479,-15.7314 291.936,-22.1142 294.07,-15.4476"/>
</g>
<!-- Node4 -->
<g id="node4" class="node"><title>Node4</title>
<polygon fill="none" stroke="#bfbfbf" points="290.878,-56.5 290.878,-75.5 336.878,-75.5 336.878,-56.5 290.878,-56.5"/>
<text text-anchor="middle" x="313.878" y="-63.5" font-family="Helvetica,sans-Serif" font-size="10.00">chrono</text>
</g>
<!-- Node2&#45;&gt;Node4 -->
<g id="edge3" class="edge"><title>Node2&#45;&gt;Node4</title>
<path fill="none" stroke="midnightblue" d="M271.575,-230.345C282.876,-221.223 299.354,-205.735 306.878,-188 321.207,-154.22 319.263,-110.315 316.566,-85.754"/>
<polygon fill="midnightblue" stroke="midnightblue" points="320.016,-85.1393 315.29,-75.657 313.072,-86.017 320.016,-85.1393"/>
</g>
<!-- Node5 -->
<g id="node5" class="node"><title>Node5</title>
<polygon fill="none" stroke="#bfbfbf" points="43.8775,-168.5 43.8775,-187.5 95.8775,-187.5 95.8775,-168.5 43.8775,-168.5"/>
<text text-anchor="middle" x="69.8775" y="-175.5" font-family="Helvetica,sans-Serif" font-size="10.00">memory</text>
</g>
<!-- Node2&#45;&gt;Node5 -->
<g id="edge4" class="edge"><title>Node2&#45;&gt;Node5</title>
<path fill="none" stroke="midnightblue" d="M232.655,-230.403C199.359,-219.889 142.884,-202.055 105.985,-190.402"/>
<polygon fill="midnightblue" stroke="midnightblue" points="106.722,-186.965 96.1325,-187.291 104.614,-193.64 106.722,-186.965"/>
</g>
<!-- Node6 -->
<g id="node6" class="node"><title>Node6</title>
<polygon fill="none" stroke="#bfbfbf" points="113.878,-168.5 113.878,-187.5 169.878,-187.5 169.878,-168.5 113.878,-168.5"/>
<text text-anchor="middle" x="141.878" y="-175.5" font-family="Helvetica,sans-Serif" font-size="10.00">ApMon.h</text>
</g>
<!-- Node2&#45;&gt;Node6 -->
<g id="edge5" class="edge"><title>Node2&#45;&gt;Node6</title>
<path fill="none" stroke="midnightblue" d="M242.971,-230.403C223.343,-220.423 190.747,-203.849 167.887,-192.225"/>
<polygon fill="midnightblue" stroke="midnightblue" points="169.253,-188.993 158.753,-187.581 166.08,-195.233 169.253,-188.993"/>
</g>
<!-- Node7 -->
<g id="node7" class="node"><title>Node7</title>
<g id="a_node7"><a xlink:href="../../df/d83/Backend_8h.html" target="_top" xlink:title="Monitoring/Backend.h">
<polygon fill="none" stroke="black" points="187.378,-168.5 187.378,-187.5 298.378,-187.5 298.378,-168.5 187.378,-168.5"/>
<text text-anchor="middle" x="242.878" y="-175.5" font-family="Helvetica,sans-Serif" font-size="10.00">Monitoring/Backend.h</text>
</a>
</g>
</g>
<!-- Node2&#45;&gt;Node7 -->
<g id="edge6" class="edge"><title>Node2&#45;&gt;Node7</title>
<path fill="none" stroke="midnightblue" d="M257.442,-230.403C255.018,-221.849 251.222,-208.45 248.112,-197.476"/>
<polygon fill="midnightblue" stroke="midnightblue" points="251.402,-196.248 245.309,-187.581 244.667,-198.156 251.402,-196.248"/>
</g>
<!-- Node7&#45;&gt;Node3 -->
<g id="edge8" class="edge"><title>Node7&#45;&gt;Node3</title>
<path fill="none" stroke="midnightblue" d="M187.368,-169.122C103.093,-154.915 -41.9397,-120.324 11.8775,-56 39.6148,-22.8477 171.082,-14.0887 231.891,-11.7987"/>
<polygon fill="midnightblue" stroke="midnightblue" points="232.167,-15.2914 242.042,-11.4523 231.929,-8.29545 232.167,-15.2914"/>
</g>
<!-- Node7&#45;&gt;Node4 -->
<g id="edge7" class="edge"><title>Node7&#45;&gt;Node4</title>
<path fill="none" stroke="midnightblue" d="M248.449,-168.368C260.114,-150.296 287.3,-108.176 302.706,-84.3074"/>
<polygon fill="midnightblue" stroke="midnightblue" points="305.85,-85.8913 308.332,-75.5914 299.968,-82.0952 305.85,-85.8913"/>
</g>
<!-- Node8 -->
<g id="node8" class="node"><title>Node8</title>
<g id="a_node8"><a xlink:href="../../d9/d92/Metric_8h.html" target="_top" xlink:title="Monitoring/Metric.h">
<polygon fill="none" stroke="black" points="160.878,-112.5 160.878,-131.5 260.878,-131.5 260.878,-112.5 160.878,-112.5"/>
<text text-anchor="middle" x="210.878" y="-119.5" font-family="Helvetica,sans-Serif" font-size="10.00">Monitoring/Metric.h</text>
</a>
</g>
</g>
<!-- Node7&#45;&gt;Node8 -->
<g id="edge9" class="edge"><title>Node7&#45;&gt;Node8</title>
<path fill="none" stroke="midnightblue" d="M237.593,-168.083C233.167,-160.613 226.714,-149.724 221.26,-140.52"/>
<polygon fill="midnightblue" stroke="midnightblue" points="224.172,-138.57 216.063,-131.751 218.15,-142.138 224.172,-138.57"/>
</g>
<!-- Node8&#45;&gt;Node3 -->
<g id="edge10" class="edge"><title>Node8&#45;&gt;Node3</title>
<path fill="none" stroke="midnightblue" d="M218.409,-112.237C225.557,-103.541 236.176,-89.5834 242.878,-76 250.224,-61.1102 255.534,-42.9651 258.828,-29.6342"/>
<polygon fill="midnightblue" stroke="midnightblue" points="262.272,-30.2778 261.122,-19.7456 255.453,-28.6961 262.272,-30.2778"/>
</g>
<!-- Node8&#45;&gt;Node4 -->
<g id="edge11" class="edge"><title>Node8&#45;&gt;Node4</title>
<path fill="none" stroke="midnightblue" d="M227.426,-112.324C243.869,-103.703 269.312,-90.3643 288.346,-80.3855"/>
<polygon fill="midnightblue" stroke="midnightblue" points="290.138,-83.3977 297.37,-75.6545 286.888,-77.198 290.138,-83.3977"/>
</g>
<!-- Node9 -->
<g id="node9" class="node"><title>Node9</title>
<polygon fill="none" stroke="#bfbfbf" points="20.8775,-56.5 20.8775,-75.5 64.8775,-75.5 64.8775,-56.5 20.8775,-56.5"/>
<text text-anchor="middle" x="42.8775" y="-63.5" font-family="Helvetica,sans-Serif" font-size="10.00">vector</text>
</g>
<!-- Node8&#45;&gt;Node9 -->
<g id="edge12" class="edge"><title>Node8&#45;&gt;Node9</title>
<path fill="none" stroke="midnightblue" d="M184.257,-112.444C154.536,-102.89 106.456,-87.436 74.7543,-77.2461"/>
<polygon fill="midnightblue" stroke="midnightblue" points="75.6723,-73.8649 65.081,-74.1368 73.5302,-80.5291 75.6723,-73.8649"/>
</g>
<!-- Node10 -->
<g id="node10" class="node"><title>Node10</title>
<polygon fill="none" stroke="#bfbfbf" points="82.8775,-56.5 82.8775,-75.5 174.878,-75.5 174.878,-56.5 82.8775,-56.5"/>
<text text-anchor="middle" x="128.878" y="-63.5" font-family="Helvetica,sans-Serif" font-size="10.00">boost/variant.hpp</text>
</g>
<!-- Node8&#45;&gt;Node10 -->
<g id="edge13" class="edge"><title>Node8&#45;&gt;Node10</title>
<path fill="none" stroke="midnightblue" d="M197.703,-112.324C185.031,-103.979 165.644,-91.2122 150.672,-81.3524"/>
<polygon fill="midnightblue" stroke="midnightblue" points="152.296,-78.2313 142.02,-75.6545 148.446,-84.0776 152.296,-78.2313"/>
</g>
<!-- Node11 -->
<g id="node11" class="node"><title>Node11</title>
<g id="a_node11"><a xlink:href="../../d9/d33/Tag_8h.html" target="_top" xlink:title="Tag.h">
<polygon fill="none" stroke="black" points="193.378,-56.5 193.378,-75.5 234.378,-75.5 234.378,-56.5 193.378,-56.5"/>
<text text-anchor="middle" x="213.878" y="-63.5" font-family="Helvetica,sans-Serif" font-size="10.00">Tag.h</text>
</a>
</g>
</g>
<!-- Node8&#45;&gt;Node11 -->
<g id="edge14" class="edge"><title>Node8&#45;&gt;Node11</title>
<path fill="none" stroke="midnightblue" d="M211.373,-112.083C211.766,-105.006 212.33,-94.8611 212.823,-85.9865"/>
<polygon fill="midnightblue" stroke="midnightblue" points="216.331,-85.9299 213.391,-75.7511 209.342,-85.5415 216.331,-85.9299"/>
</g>
<!-- Node11&#45;&gt;Node3 -->
<g id="edge15" class="edge"><title>Node11&#45;&gt;Node3</title>
<path fill="none" stroke="midnightblue" d="M221.969,-56.083C229.033,-48.2982 239.465,-36.8015 248.026,-27.3665"/>
<polygon fill="midnightblue" stroke="midnightblue" points="250.809,-29.5087 254.937,-19.7511 245.625,-24.8047 250.809,-29.5087"/>
</g>
<!-- Node14&#45;&gt;Node4 -->
<g id="edge19" class="edge"><title>Node14&#45;&gt;Node4</title>
<path fill="none" stroke="midnightblue" d="M579.042,-230.47C534.139,-202.789 392.174,-115.269 336.548,-80.9763"/>
<polygon fill="midnightblue" stroke="midnightblue" points="338.146,-77.8495 327.797,-75.581 334.472,-83.8082 338.146,-77.8495"/>
</g>
<!-- Node14&#45;&gt;Node12 -->
<g id="edge21" class="edge"><title>Node14&#45;&gt;Node12</title>
<path fill="none" stroke="midnightblue" d="M602.764,-230.403C613.523,-221.047 630.949,-205.895 644.099,-194.46"/>
<polygon fill="midnightblue" stroke="midnightblue" points="646.76,-196.784 652.01,-187.581 642.167,-191.501 646.76,-196.784"/>
</g>
<!-- Node15 -->
<g id="node15" class="node"><title>Node15</title>
<polygon fill="none" stroke="#bfbfbf" points="566.878,-168.5 566.878,-187.5 616.878,-187.5 616.878,-168.5 566.878,-168.5"/>
<text text-anchor="middle" x="591.878" y="-175.5" font-family="Helvetica,sans-Serif" font-size="10.00">iomanip</text>
</g>
<!-- Node14&#45;&gt;Node15 -->
<g id="edge20" class="edge"><title>Node14&#45;&gt;Node15</title>
<path fill="none" stroke="midnightblue" d="M592.734,-230.403C592.593,-221.938 592.373,-208.728 592.191,-197.82"/>
<polygon fill="midnightblue" stroke="midnightblue" points="595.687,-197.521 592.021,-187.581 588.688,-197.638 595.687,-197.521"/>
</g>
<!-- Node16&#45;&gt;Node3 -->
<g id="edge24" class="edge"><title>Node16&#45;&gt;Node3</title>
<path fill="none" stroke="midnightblue" d="M427.677,-224.828C447.099,-211.687 469.5,-190.775 460.878,-168 437.353,-105.867 415.294,-95.5038 361.878,-56 340.875,-40.4677 313.657,-28.5801 293.076,-20.9345"/>
<polygon fill="midnightblue" stroke="midnightblue" points="294.157,-17.604 283.562,-17.5247 291.795,-24.1935 294.157,-17.604"/>
</g>
<!-- Node17 -->
<g id="node17" class="node"><title>Node17</title>
<polygon fill="none" stroke="#bfbfbf" points="393.378,-168.5 393.378,-187.5 452.378,-187.5 452.378,-168.5 393.378,-168.5"/>
<text text-anchor="middle" x="422.878" y="-175.5" font-family="Helvetica,sans-Serif" font-size="10.00">exception</text>
</g>
<!-- Node16&#45;&gt;Node17 -->
<g id="edge23" class="edge"><title>Node16&#45;&gt;Node17</title>
<path fill="none" stroke="midnightblue" d="M407.617,-224.781C410.344,-216.601 413.799,-206.234 416.733,-197.434"/>
<polygon fill="midnightblue" stroke="midnightblue" points="420.125,-198.324 419.967,-187.731 413.485,-196.111 420.125,-198.324"/>
</g>
</g>
</svg>
        <g id="navigator" transform="translate(0 0)" fill="#404254">
                <rect fill="#f2f5e9" fill-opacity="0.5" stroke="#606060" stroke-width=".5" x="0" y="0" width="60" height="60"/>
                <use id="zoomplus" xlink:href="#zoomPlus" x="17" y="9" onmousedown="handleZoom(evt,'in')"/>
                <use id="zoomminus" xlink:href="#zoomMin" x="42" y="9" onmousedown="handleZoom(evt,'out')"/>
                <use id="reset" xlink:href="#resetDef" x="30" y="36" onmousedown="handleReset()"/>
                <g id="arrowUp" xlink:href="#dirArrow" transform="translate(30 24)" onmousedown="handlePan(0,-1)">
                  <use xlink:href="#rim" fill="#404040">
                        <set attributeName="fill" to="#808080" begin="arrowUp.mouseover" end="arrowUp.mouseout"/>
                  </use>
                  <path fill="none" stroke="white" stroke-width="1.5" d="M0,-3.0v7 M-2.5,-0.5L0,-3.0L2.5,-0.5"/>
                </g>
                <g id="arrowRight" xlink:href="#dirArrow" transform="rotate(90) translate(36 -43)" onmousedown="handlePan(1,0)">
                  <use xlink:href="#rim" fill="#404040">
                        <set attributeName="fill" to="#808080" begin="arrowRight.mouseover" end="arrowRight.mouseout"/>
                  </use>
                  <path fill="none" stroke="white" stroke-width="1.5" d="M0,-3.0v7 M-2.5,-0.5L0,-3.0L2.5,-0.5"/>
                </g>
                <g id="arrowDown" xlink:href="#dirArrow" transform="rotate(180) translate(-30 -48)" onmousedown="handlePan(0,1)">
                  <use xlink:href="#rim" fill="#404040">
                        <set attributeName="fill" to="#808080" begin="arrowDown.mouseover" end="arrowDown.mouseout"/>
                  </use>
                  <path fill="none" stroke="white" stroke-width="1.5" d="M0,-3.0v7 M-2.5,-0.5L0,-3.0L2.5,-0.5"/>
                </g>
                <g id="arrowLeft" xlink:href="#dirArrow" transform="rotate(270) translate(-36 17)" onmousedown="handlePan(-1,0)">
                  <use xlink:href="#rim" fill="#404040">
                        <set attributeName="fill" to="#808080" begin="arrowLeft.mouseover" end="arrowLeft.mouseout"/>
                  </use>
                  <path fill="none" stroke="white" stroke-width="1.5" d="M0,-3.0v7 M-2.5,-0.5L0,-3.0L2.5,-0.5"/>
                </g>
        </g>
        <svg viewBox="0 0 15 15" width="100%" height="30px" preserveAspectRatio="xMaxYMin meet">
         <g id="arrow_out" transform="scale(0.3 0.3)">
          <a xlink:href="ApMonBackend_8cxx__incl_org.svg" target="_base">
           <rect id="button" ry="5" rx="5" y="6" x="6" height="38" width="38"
                fill="#f2f5e9" fill-opacity="0.5" stroke="#606060" stroke-width="1.0"/>
           <path id="arrow"
             d="M 11.500037,31.436501 C 11.940474,20.09759 22.043105,11.32322 32.158766,21.979434 L 37.068811,17.246167 C 37.068811,17.246167 37.088388,32 37.088388,32 L 22.160133,31.978069 C 22.160133,31.978069 26.997745,27.140456 26.997745,27.140456 C 18.528582,18.264221 13.291696,25.230495 11.500037,31.436501 z"
             style="fill:#404040;"/>
          </a>
         </g>
        </svg>
</svg>
