<?xml version="1.0" encoding="UTF-8" standalone="no"?>
<!DOCTYPE svg PUBLIC "-//W3C//DTD SVG 1.1//EN"
 "http://www.w3.org/Graphics/SVG/1.1/DTD/svg11.dtd">
<!-- Generated by graphviz version 2.36.0 (20140111.2315)
 -->
<!-- Title: /home/travis/build/AliceO2Group/Monitoring/src/Monitoring.cxx Pages: 1 -->
<!--zoomable 354 -->
<svg id="main" version="1.1" xmlns="http://www.w3.org/2000/svg" xmlns:xlink="http://www.w3.org/1999/xlink" xml:space="preserve" onload="init(evt)">
<style type="text/css"><![CDATA[
.edge:hover path { stroke: red; }
.edge:hover polygon { stroke: red; fill: red; }
]]></style>
<script type="text/javascript"><![CDATA[
var edges = document.getElementsByTagName('g');
if (edges && edges.length) {
  for (var i=0;i<edges.length;i++) {
    if (edges[i].id.substr(0,4)=='edge') {
      edges[i].setAttribute('class','edge');
    }
  }
}
]]></script>
        <defs>
                <circle id="rim" cx="0" cy="0" r="7"/>
                <circle id="rim2" cx="0" cy="0" r="3.5"/>
                <g id="zoomPlus">
                        <use xlink:href="#rim" fill="#404040">
                                <set attributeName="fill" to="#808080" begin="zoomplus.mouseover" end="zoomplus.mouseout"/>
                        </use>
                        <path d="M-4,0h8M0,-4v8" fill="none" stroke="white" stroke-width="1.5" pointer-events="none"/>
                </g>
                <g id="zoomMin">
                        <use xlink:href="#rim" fill="#404040">
                                <set attributeName="fill" to="#808080" begin="zoomminus.mouseover" end="zoomminus.mouseout"/>
                        </use>
                        <path d="M-4,0h8" fill="none" stroke="white" stroke-width="1.5" pointer-events="none"/>
                </g>
                <g id="dirArrow">
                        <path fill="none" stroke="white" stroke-width="1.5" d="M0,-3.0v7 M-2.5,-0.5L0,-3.0L2.5,-0.5"/>
                </g>
               <g id="resetDef">
                       <use xlink:href="#rim2" fill="#404040">
                               <set attributeName="fill" to="#808080" begin="reset.mouseover" end="reset.mouseout"/>
                       </use>
               </g>
        </defs>

<script type="text/javascript">
var viewWidth = 1791;
var viewHeight = 354;
var sectionId = 'dynsection-0';
</script>
<script xlink:href="../../svgpan.js"/>
<svg id="graph" class="graph">
<g id="viewport">
<title>/home/travis/build/AliceO2Group/Monitoring/src/Monitoring.cxx</title>
<!-- Node1 -->
<g id="node1" class="node"><title>Node1</title>
<polygon fill="#bfbfbf" stroke="black" points="1055.13,-304.5 1055.13,-345.5 1183.13,-345.5 1183.13,-304.5 1055.13,-304.5"/>
<text text-anchor="start" x="1063.13" y="-333.5" font-family="Helvetica,sans-Serif" font-size="10.00">/home/travis/build</text>
<text text-anchor="start" x="1063.13" y="-322.5" font-family="Helvetica,sans-Serif" font-size="10.00">/AliceO2Group/Monitoring</text>
<text text-anchor="middle" x="1119.13" y="-311.5" font-family="Helvetica,sans-Serif" font-size="10.00">/src/Monitoring.cxx</text>
</g>
<!-- Node2 -->
<g id="node2" class="node"><title>Node2</title>
<g id="a_node2"><a xlink:href="../../d0/d98/Monitoring_8h.html" target="_top" xlink:title="Monitoring/Monitoring.h">
<polygon fill="none" stroke="black" points="319.126,-242.5 319.126,-261.5 437.126,-261.5 437.126,-242.5 319.126,-242.5"/>
<text text-anchor="middle" x="378.126" y="-249.5" font-family="Helvetica,sans-Serif" font-size="10.00">Monitoring/Monitoring.h</text>
</a>
</g>
</g>
<!-- Node1&#45;&gt;Node2 -->
<g id="edge1" class="edge"><title>Node1&#45;&gt;Node2</title>
<path fill="none" stroke="midnightblue" d="M1054.99,-317.854C916.446,-304.58 590.242,-273.324 447.29,-259.627"/>
<polygon fill="midnightblue" stroke="midnightblue" points="447.607,-256.142 437.319,-258.672 446.94,-263.11 447.607,-256.142"/>
</g>
<!-- Node4 -->
<g id="node4" class="node"><title>Node4</title>
<polygon fill="none" stroke="#bfbfbf" points="1319.13,-56.5 1319.13,-75.5 1365.13,-75.5 1365.13,-56.5 1319.13,-56.5"/>
<text text-anchor="middle" x="1342.13" y="-63.5" font-family="Helvetica,sans-Serif" font-size="10.00">chrono</text>
</g>
<!-- Node1&#45;&gt;Node4 -->
<g id="edge38" class="edge"><title>Node1&#45;&gt;Node4</title>
<path fill="none" stroke="midnightblue" d="M1183.33,-321.483C1311.57,-315.794 1589.62,-299.885 1618.13,-268 1627.61,-257.397 1625.53,-248.14 1618.13,-236 1599.9,-206.137 1576.56,-220.379 1548.13,-200 1502.39,-167.226 1504.47,-142.399 1457.13,-112 1431.55,-95.5796 1399.04,-83.5467 1375.12,-76.0769"/>
<polygon fill="midnightblue" stroke="midnightblue" points="1376.02,-72.6932 1365.43,-73.1555 1374,-79.3948 1376.02,-72.6932"/>
</g>
<!-- Node6 -->
<g id="node6" class="node"><title>Node6</title>
<polygon fill="none" stroke="#bfbfbf" points="40.1257,-112.5 40.1257,-131.5 92.1257,-131.5 92.1257,-112.5 40.1257,-112.5"/>
<text text-anchor="middle" x="66.1257" y="-119.5" font-family="Helvetica,sans-Serif" font-size="10.00">memory</text>
</g>
<!-- Node1&#45;&gt;Node6 -->
<g id="edge40" class="edge"><title>Node1&#45;&gt;Node6</title>
<path fill="none" stroke="midnightblue" d="M1054.91,-323.8C917.369,-322.445 584.494,-314.205 310.126,-268 196.154,-248.807 129.358,-291.791 59.1257,-200 46.2916,-183.226 51.8781,-157.984 58.09,-141.019"/>
<polygon fill="midnightblue" stroke="midnightblue" points="61.3644,-142.258 61.8795,-131.676 54.8776,-139.627 61.3644,-142.258"/>
</g>
<!-- Node7 -->
<g id="node7" class="node"><title>Node7</title>
<polygon fill="none" stroke="#bfbfbf" points="982.626,-0.5 982.626,-19.5 1023.63,-19.5 1023.63,-0.5 982.626,-0.5"/>
<text text-anchor="middle" x="1003.13" y="-7.5" font-family="Helvetica,sans-Serif" font-size="10.00">string</text>
</g>
<!-- Node1&#45;&gt;Node7 -->
<g id="edge41" class="edge"><title>Node1&#45;&gt;Node7</title>
<path fill="none" stroke="midnightblue" d="M1074.46,-304.433C1058.64,-295.449 1042.06,-283.332 1031.13,-268 980.169,-196.564 995.419,-163.142 985.126,-76 984.083,-67.1725 983.445,-64.7285 985.126,-56 986.916,-46.7047 990.609,-36.8887 994.186,-28.8048"/>
<polygon fill="midnightblue" stroke="midnightblue" points="997.399,-30.1981 998.504,-19.6611 991.069,-27.2089 997.399,-30.1981"/>
</g>
<!-- Node11 -->
<g id="node11" class="node"><title>Node11</title>
<polygon fill="none" stroke="#bfbfbf" points="188.126,-56.5 188.126,-75.5 232.126,-75.5 232.126,-56.5 188.126,-56.5"/>
<text text-anchor="middle" x="210.126" y="-63.5" font-family="Helvetica,sans-Serif" font-size="10.00">vector</text>
</g>
<!-- Node1&#45;&gt;Node11 -->
<g id="edge43" class="edge"><title>Node1&#45;&gt;Node11</title>
<path fill="none" stroke="midnightblue" d="M1054.92,-323.856C843.103,-322.92 175.154,-316.145 92.1257,-268 25.7407,-229.506 -29.5451,-172.136 18.1257,-112 37.6924,-87.3172 128.319,-74.8689 177.749,-69.8192"/>
<polygon fill="midnightblue" stroke="midnightblue" points="178.308,-73.2813 187.92,-68.8252 177.627,-66.3145 178.308,-73.2813"/>
</g>
<!-- Node20 -->
<g id="node20" class="node"><title>Node20</title>
<polygon fill="none" stroke="#bfbfbf" points="1070.13,-112.5 1070.13,-131.5 1124.13,-131.5 1124.13,-112.5 1070.13,-112.5"/>
<text text-anchor="middle" x="1097.13" y="-119.5" font-family="Helvetica,sans-Serif" font-size="10.00">iostream</text>
</g>
<!-- Node1&#45;&gt;Node20 -->
<g id="edge39" class="edge"><title>Node1&#45;&gt;Node20</title>
<path fill="none" stroke="midnightblue" d="M1085.29,-304.258C1072.76,-294.995 1059.94,-282.727 1053.13,-268 1047.15,-255.094 1050.5,-249.978 1053.13,-236 1059.73,-200.812 1076.98,-162.506 1087.81,-140.755"/>
<polygon fill="midnightblue" stroke="midnightblue" points="1090.98,-142.243 1092.41,-131.744 1084.75,-139.062 1090.98,-142.243"/>
</g>
<!-- Node22 -->
<g id="node22" class="node"><title>Node22</title>
<polygon fill="none" stroke="#bfbfbf" points="1062.13,-242.5 1062.13,-261.5 1176.13,-261.5 1176.13,-242.5 1062.13,-242.5"/>
<text text-anchor="middle" x="1119.13" y="-249.5" font-family="Helvetica,sans-Serif" font-size="10.00">boost/lexical_cast.hpp</text>
</g>
<!-- Node1&#45;&gt;Node22 -->
<g id="edge37" class="edge"><title>Node1&#45;&gt;Node22</title>
<path fill="none" stroke="midnightblue" d="M1119.13,-304.223C1119.13,-294.086 1119.13,-281.807 1119.13,-271.813"/>
<polygon fill="midnightblue" stroke="midnightblue" points="1122.63,-271.735 1119.13,-261.735 1115.63,-271.735 1122.63,-271.735"/>
</g>
<!-- Node23 -->
<g id="node23" class="node"><title>Node23</title>
<polygon fill="none" stroke="#bfbfbf" points="1194.13,-242.5 1194.13,-261.5 1234.13,-261.5 1234.13,-242.5 1194.13,-242.5"/>
<text text-anchor="middle" x="1214.13" y="-249.5" font-family="Helvetica,sans-Serif" font-size="10.00">utility</text>
</g>
<!-- Node1&#45;&gt;Node23 -->
<g id="edge42" class="edge"><title>Node1&#45;&gt;Node23</title>
<path fill="none" stroke="midnightblue" d="M1145.34,-304.411C1160.8,-292.854 1180.06,-278.46 1194.26,-267.845"/>
<polygon fill="midnightblue" stroke="midnightblue" points="1196.46,-270.573 1202.37,-261.783 1192.27,-264.966 1196.46,-270.573"/>
</g>
<!-- Node24 -->
<g id="node24" class="node"><title>Node24</title>
<g id="a_node24"><a xlink:href="../../df/de7/MonLogger_8h.html" target="_top" xlink:title="MonLogger.h">
<polygon fill="none" stroke="black" points="1386.63,-174.5 1386.63,-193.5 1459.63,-193.5 1459.63,-174.5 1386.63,-174.5"/>
<text text-anchor="middle" x="1423.13" y="-181.5" font-family="Helvetica,sans-Serif" font-size="10.00">MonLogger.h</text>
</a>
</g>
</g>
<!-- Node1&#45;&gt;Node24 -->
<g id="edge44" class="edge"><title>Node1&#45;&gt;Node24</title>
<path fill="none" stroke="midnightblue" d="M1183.45,-319.744C1258.54,-313.41 1376.4,-298.775 1407.13,-268 1423.86,-251.237 1425.85,-222.615 1425.04,-203.754"/>
<polygon fill="midnightblue" stroke="midnightblue" points="1428.53,-203.419 1424.3,-193.702 1421.54,-203.931 1428.53,-203.419"/>
</g>
<!-- Node26 -->
<g id="node26" class="node"><title>Node26</title>
<g id="a_node26"><a xlink:href="../../dc/d0c/ProcessDetails_8h.html" target="_top" xlink:title="ProcessDetails.h">
<polygon fill="none" stroke="black" points="994.126,-56.5 994.126,-75.5 1086.13,-75.5 1086.13,-56.5 994.126,-56.5"/>
<text text-anchor="middle" x="1040.13" y="-63.5" font-family="Helvetica,sans-Serif" font-size="10.00">ProcessDetails.h</text>
</a>
</g>
</g>
<!-- Node1&#45;&gt;Node26 -->
<g id="edge48" class="edge"><title>Node1&#45;&gt;Node26</title>
<path fill="none" stroke="midnightblue" d="M1081.25,-304.376C1067.68,-295.263 1053.84,-283.072 1046.13,-268 1015.13,-207.45 1027.84,-122.634 1035.68,-85.5655"/>
<polygon fill="midnightblue" stroke="midnightblue" points="1039.13,-86.1984 1037.91,-75.6742 1032.3,-84.663 1039.13,-86.1984"/>
</g>
<!-- Node27 -->
<g id="node27" class="node"><title>Node27</title>
<g id="a_node27"><a xlink:href="../../dc/d75/MonitoringInternalException_8h.html" target="_top" xlink:title="Exceptions/MonitoringInternal\lException.h">
<polygon fill="none" stroke="black" points="1252.13,-237 1252.13,-267 1398.13,-267 1398.13,-237 1252.13,-237"/>
<text text-anchor="start" x="1260.13" y="-255" font-family="Helvetica,sans-Serif" font-size="10.00">Exceptions/MonitoringInternal</text>
<text text-anchor="middle" x="1325.13" y="-244" font-family="Helvetica,sans-Serif" font-size="10.00">Exception.h</text>
</a>
</g>
</g>
<!-- Node1&#45;&gt;Node27 -->
<g id="edge50" class="edge"><title>Node1&#45;&gt;Node27</title>
<path fill="none" stroke="midnightblue" d="M1175.96,-304.411C1206.88,-293.753 1244.8,-280.684 1274.67,-270.389"/>
<polygon fill="midnightblue" stroke="midnightblue" points="1276.16,-273.579 1284.47,-267.012 1273.88,-266.961 1276.16,-273.579"/>
</g>
<!-- Node29 -->
<g id="node29" class="node"><title>Node29</title>
<g id="a_node29"><a xlink:href="../../d9/de4/InfoLoggerBackend_8h.html" target="_top" xlink:title="Backends/InfoLoggerBackend.h">
<polygon fill="none" stroke="black" points="1454.63,-242.5 1454.63,-261.5 1609.63,-261.5 1609.63,-242.5 1454.63,-242.5"/>
<text text-anchor="middle" x="1532.13" y="-249.5" font-family="Helvetica,sans-Serif" font-size="10.00">Backends/InfoLoggerBackend.h</text>
</a>
</g>
</g>
<!-- Node1&#45;&gt;Node29 -->
<g id="edge53" class="edge"><title>Node1&#45;&gt;Node29</title>
<path fill="none" stroke="midnightblue" d="M1183.2,-312.984C1262.24,-299.397 1395.55,-276.479 1472.49,-263.253"/>
<polygon fill="midnightblue" stroke="midnightblue" points="1473.24,-266.675 1482.5,-261.532 1472.05,-259.777 1473.24,-266.675"/>
</g>
<!-- Node30 -->
<g id="node30" class="node"><title>Node30</title>
<g id="a_node30"><a xlink:href="../../d4/d57/Flume_8h.html" target="_top" xlink:title="Backends/Flume.h">
<polygon fill="none" stroke="black" points="1666.13,-242.5 1666.13,-261.5 1764.13,-261.5 1764.13,-242.5 1666.13,-242.5"/>
<text text-anchor="middle" x="1715.13" y="-249.5" font-family="Helvetica,sans-Serif" font-size="10.00">Backends/Flume.h</text>
</a>
</g>
</g>
<!-- Node1&#45;&gt;Node30 -->
<g id="edge56" class="edge"><title>Node1&#45;&gt;Node30</title>
<path fill="none" stroke="midnightblue" d="M1183.49,-319.931C1284.04,-312.97 1484.29,-296.675 1652.13,-268 1658.9,-266.842 1666.03,-265.382 1672.97,-263.83"/>
<polygon fill="midnightblue" stroke="midnightblue" points="1673.97,-267.19 1682.92,-261.514 1672.38,-260.372 1673.97,-267.19"/>
</g>
<!-- Node3 -->
<g id="node3" class="node"><title>Node3</title>
<polygon fill="none" stroke="#bfbfbf" points="350.126,-112.5 350.126,-131.5 396.126,-131.5 396.126,-112.5 350.126,-112.5"/>
<text text-anchor="middle" x="373.126" y="-119.5" font-family="Helvetica,sans-Serif" font-size="10.00">atomic</text>
</g>
<!-- Node2&#45;&gt;Node3 -->
<g id="edge2" class="edge"><title>Node2&#45;&gt;Node3</title>
<path fill="none" stroke="midnightblue" d="M377.782,-242.202C376.975,-221.551 374.946,-169.606 373.852,-141.594"/>
<polygon fill="midnightblue" stroke="midnightblue" points="377.346,-141.378 373.459,-131.522 370.352,-141.651 377.346,-141.378"/>
</g>
<!-- Node2&#45;&gt;Node4 -->
<g id="edge3" class="edge"><title>Node2&#45;&gt;Node4</title>
<path fill="none" stroke="midnightblue" d="M437.128,-243.53C503.373,-234.761 613.93,-218.979 708.126,-200 866.631,-168.064 902.708,-144.369 1061.13,-112 1150.11,-93.8174 1256.2,-78.5435 1308.94,-71.377"/>
<polygon fill="midnightblue" stroke="midnightblue" points="1309.62,-74.8178 1319.06,-70.013 1308.68,-67.8806 1309.62,-74.8178"/>
</g>
<!-- Node5 -->
<g id="node5" class="node"><title>Node5</title>
<polygon fill="none" stroke="#bfbfbf" points="406.626,-174.5 406.626,-193.5 441.626,-193.5 441.626,-174.5 406.626,-174.5"/>
<text text-anchor="middle" x="424.126" y="-181.5" font-family="Helvetica,sans-Serif" font-size="10.00">map</text>
</g>
<!-- Node2&#45;&gt;Node5 -->
<g id="edge4" class="edge"><title>Node2&#45;&gt;Node5</title>
<path fill="none" stroke="midnightblue" d="M384.139,-242.372C391.194,-232.25 403.067,-215.215 412.046,-202.331"/>
<polygon fill="midnightblue" stroke="midnightblue" points="415.117,-204.046 417.964,-193.841 409.374,-200.044 415.117,-204.046"/>
</g>
<!-- Node2&#45;&gt;Node6 -->
<g id="edge5" class="edge"><title>Node2&#45;&gt;Node6</title>
<path fill="none" stroke="midnightblue" d="M319.01,-244.52C274.327,-237.872 212.467,-224.841 163.126,-200 143.404,-190.071 142.353,-181.81 125.126,-168 112.31,-157.727 97.6252,-146.524 86.1117,-137.866"/>
<polygon fill="midnightblue" stroke="midnightblue" points="88.1116,-134.991 78.009,-131.799 83.916,-140.595 88.1116,-134.991"/>
</g>
<!-- Node2&#45;&gt;Node7 -->
<g id="edge6" class="edge"><title>Node2&#45;&gt;Node7</title>
<path fill="none" stroke="midnightblue" d="M395.911,-242.464C412.142,-233.839 435.729,-219.073 450.126,-200 475.109,-166.904 450.682,-140.155 481.126,-112 553.867,-44.7283 871.692,-19.257 972.4,-12.7868"/>
<polygon fill="midnightblue" stroke="midnightblue" points="972.76,-16.2713 982.522,-12.1541 972.323,-9.28492 972.76,-16.2713"/>
</g>
<!-- Node8 -->
<g id="node8" class="node"><title>Node8</title>
<polygon fill="none" stroke="#bfbfbf" points="288.126,-112.5 288.126,-131.5 332.126,-131.5 332.126,-112.5 288.126,-112.5"/>
<text text-anchor="middle" x="310.126" y="-119.5" font-family="Helvetica,sans-Serif" font-size="10.00">thread</text>
</g>
<!-- Node2&#45;&gt;Node8 -->
<g id="edge7" class="edge"><title>Node2&#45;&gt;Node8</title>
<path fill="none" stroke="midnightblue" d="M373.452,-242.202C362.335,-221.275 334.147,-168.216 319.415,-140.486"/>
<polygon fill="midnightblue" stroke="midnightblue" points="322.436,-138.712 314.653,-131.522 316.254,-141.996 322.436,-138.712"/>
</g>
<!-- Node9 -->
<g id="node9" class="node"><title>Node9</title>
<polygon fill="none" stroke="#bfbfbf" points="78.1257,-174.5 78.1257,-193.5 116.126,-193.5 116.126,-174.5 78.1257,-174.5"/>
<text text-anchor="middle" x="97.1257" y="-181.5" font-family="Helvetica,sans-Serif" font-size="10.00">tuple</text>
</g>
<!-- Node2&#45;&gt;Node9 -->
<g id="edge8" class="edge"><title>Node2&#45;&gt;Node9</title>
<path fill="none" stroke="midnightblue" d="M319.041,-242.669C268.182,-234.598 193.24,-220.546 130.126,-200 127.854,-199.26 125.53,-198.41 123.219,-197.498"/>
<polygon fill="midnightblue" stroke="midnightblue" points="124.534,-194.254 113.964,-193.53 121.775,-200.688 124.534,-194.254"/>
</g>
<!-- Node10 -->
<g id="node10" class="node"><title>Node10</title>
<polygon fill="none" stroke="#bfbfbf" points="110.626,-112.5 110.626,-131.5 193.626,-131.5 193.626,-112.5 110.626,-112.5"/>
<text text-anchor="middle" x="152.126" y="-119.5" font-family="Helvetica,sans-Serif" font-size="10.00">unordered_map</text>
</g>
<!-- Node2&#45;&gt;Node10 -->
<g id="edge9" class="edge"><title>Node2&#45;&gt;Node10</title>
<path fill="none" stroke="midnightblue" d="M318.946,-249.981C238.364,-247.199 100.521,-237.002 69.1257,-200 59.9243,-189.155 61.8503,-180.22 69.1257,-168 78.2222,-152.721 94.5141,-142.31 110.27,-135.386"/>
<polygon fill="midnightblue" stroke="midnightblue" points="111.959,-138.479 119.941,-131.512 109.357,-131.981 111.959,-138.479"/>
</g>
<!-- Node2&#45;&gt;Node11 -->
<g id="edge10" class="edge"><title>Node2&#45;&gt;Node11</title>
<path fill="none" stroke="midnightblue" d="M318.913,-248.347C237.985,-243.6 98.3806,-231.059 59.1257,-200 26.9389,-174.533 5.88852,-144.367 31.1257,-112 48.9939,-89.0839 131.393,-76.0514 177.915,-70.4006"/>
<polygon fill="midnightblue" stroke="midnightblue" points="178.559,-73.8492 188.086,-69.2132 177.748,-66.8964 178.559,-73.8492"/>
</g>
<!-- Node12 -->
<g id="node12" class="node"><title>Node12</title>
<g id="a_node12"><a xlink:href="../../df/d83/Backend_8h.html" target="_top" xlink:title="Monitoring/Backend.h">
<polygon fill="none" stroke="black" points="1257.63,-174.5 1257.63,-193.5 1368.63,-193.5 1368.63,-174.5 1257.63,-174.5"/>
<text text-anchor="middle" x="1313.13" y="-181.5" font-family="Helvetica,sans-Serif" font-size="10.00">Monitoring/Backend.h</text>
</a>
</g>
</g>
<!-- Node2&#45;&gt;Node12 -->
<g id="edge11" class="edge"><title>Node2&#45;&gt;Node12</title>
<path fill="none" stroke="midnightblue" d="M437.282,-250.952C578.366,-250.096 945.416,-243.485 1248.13,-200 1255.62,-198.924 1263.52,-197.419 1271.14,-195.775"/>
<polygon fill="midnightblue" stroke="midnightblue" points="1271.95,-199.181 1280.93,-193.558 1270.4,-192.354 1271.95,-199.181"/>
</g>
<!-- Node16 -->
<g id="node16" class="node"><title>Node16</title>
<g id="a_node16"><a xlink:href="../../dc/de0/DerivedMetrics_8h.html" target="_top" xlink:title="Monitoring/DerivedMetrics.h">
<polygon fill="none" stroke="black" points="172.626,-174.5 172.626,-193.5 311.626,-193.5 311.626,-174.5 172.626,-174.5"/>
<text text-anchor="middle" x="242.126" y="-181.5" font-family="Helvetica,sans-Serif" font-size="10.00">Monitoring/DerivedMetrics.h</text>
</a>
</g>
</g>
<!-- Node2&#45;&gt;Node16 -->
<g id="edge21" class="edge"><title>Node2&#45;&gt;Node16</title>
<path fill="none" stroke="midnightblue" d="M360.346,-242.372C337.133,-231.106 296.277,-211.279 269.203,-198.14"/>
<polygon fill="midnightblue" stroke="midnightblue" points="270.434,-194.848 259.91,-193.63 267.378,-201.145 270.434,-194.848"/>
</g>
<!-- Node17 -->
<g id="node17" class="node"><title>Node17</title>
<g id="a_node17"><a xlink:href="../../df/d93/ProcessMonitor_8h.html" target="_top" xlink:title="Monitoring/ProcessMonitor.h">
<polygon fill="none" stroke="black" points="558.626,-174.5 558.626,-193.5 699.626,-193.5 699.626,-174.5 558.626,-174.5"/>
<text text-anchor="middle" x="629.126" y="-181.5" font-family="Helvetica,sans-Serif" font-size="10.00">Monitoring/ProcessMonitor.h</text>
</a>
</g>
</g>
<!-- Node2&#45;&gt;Node17 -->
<g id="edge27" class="edge"><title>Node2&#45;&gt;Node17</title>
<path fill="none" stroke="midnightblue" d="M410.682,-242.439C455.729,-230.594 537.122,-209.192 586.827,-196.122"/>
<polygon fill="midnightblue" stroke="midnightblue" points="587.846,-199.474 596.627,-193.546 586.066,-192.704 587.846,-199.474"/>
</g>
<!-- Node12&#45;&gt;Node4 -->
<g id="edge12" class="edge"><title>Node12&#45;&gt;Node4</title>
<path fill="none" stroke="midnightblue" d="M1315.31,-174.281C1320.01,-155.463 1331.2,-110.697 1337.54,-85.3399"/>
<polygon fill="midnightblue" stroke="midnightblue" points="1340.97,-86.0551 1340,-75.5048 1334.18,-84.3573 1340.97,-86.0551"/>
</g>
<!-- Node12&#45;&gt;Node7 -->
<g id="edge13" class="edge"><title>Node12&#45;&gt;Node7</title>
<path fill="none" stroke="midnightblue" d="M1305.8,-174.44C1285.81,-151.636 1227.69,-88.9143 1166.13,-56 1123.37,-33.1447 1067.96,-21.0512 1034,-15.3454"/>
<polygon fill="midnightblue" stroke="midnightblue" points="1034.2,-11.833 1023.77,-13.7118 1033.09,-18.7454 1034.2,-11.833"/>
</g>
<!-- Node13 -->
<g id="node13" class="node"><title>Node13</title>
<g id="a_node13"><a xlink:href="../../d9/d92/Metric_8h.html" target="_top" xlink:title="Monitoring/Metric.h">
<polygon fill="none" stroke="black" points="638.126,-112.5 638.126,-131.5 738.126,-131.5 738.126,-112.5 638.126,-112.5"/>
<text text-anchor="middle" x="688.126" y="-119.5" font-family="Helvetica,sans-Serif" font-size="10.00">Monitoring/Metric.h</text>
</a>
</g>
</g>
<!-- Node12&#45;&gt;Node13 -->
<g id="edge14" class="edge"><title>Node12&#45;&gt;Node13</title>
<path fill="none" stroke="midnightblue" d="M1280.58,-174.449C1270.27,-172.019 1258.78,-169.602 1248.13,-168 1030.6,-135.288 970.724,-156.218 748.329,-132.04"/>
<polygon fill="midnightblue" stroke="midnightblue" points="748.626,-128.552 738.302,-130.932 747.857,-135.51 748.626,-128.552"/>
</g>
<!-- Node13&#45;&gt;Node4 -->
<g id="edge16" class="edge"><title>Node13&#45;&gt;Node4</title>
<path fill="none" stroke="midnightblue" d="M738.303,-113.081C741.285,-112.693 744.243,-112.328 747.126,-112 960.518,-87.6903 1218.52,-73.2414 1308.91,-68.6255"/>
<polygon fill="midnightblue" stroke="midnightblue" points="1309.28,-72.1114 1319.09,-68.1113 1308.93,-65.1203 1309.28,-72.1114"/>
</g>
<!-- Node13&#45;&gt;Node7 -->
<g id="edge15" class="edge"><title>Node13&#45;&gt;Node7</title>
<path fill="none" stroke="midnightblue" d="M687.919,-112.307C688.094,-98.1864 690.666,-70.397 707.126,-56 746.214,-21.8111 904.606,-13.578 972.255,-11.6108"/>
<polygon fill="midnightblue" stroke="midnightblue" points="972.396,-15.1084 982.301,-11.3459 972.212,-8.11085 972.396,-15.1084"/>
</g>
<!-- Node13&#45;&gt;Node11 -->
<g id="edge17" class="edge"><title>Node13&#45;&gt;Node11</title>
<path fill="none" stroke="midnightblue" d="M638.057,-113.33C634.698,-112.865 631.364,-112.417 628.126,-112 484.56,-93.5129 312.574,-76.663 242.36,-70.0085"/>
<polygon fill="midnightblue" stroke="midnightblue" points="242.653,-66.5207 232.369,-69.0654 241.995,-73.4897 242.653,-66.5207"/>
</g>
<!-- Node14 -->
<g id="node14" class="node"><title>Node14</title>
<polygon fill="none" stroke="#bfbfbf" points="716.126,-56.5 716.126,-75.5 808.126,-75.5 808.126,-56.5 716.126,-56.5"/>
<text text-anchor="middle" x="762.126" y="-63.5" font-family="Helvetica,sans-Serif" font-size="10.00">boost/variant.hpp</text>
</g>
<!-- Node13&#45;&gt;Node14 -->
<g id="edge18" class="edge"><title>Node13&#45;&gt;Node14</title>
<path fill="none" stroke="midnightblue" d="M700.015,-112.324C711.276,-104.107 728.412,-91.6017 741.835,-81.8069"/>
<polygon fill="midnightblue" stroke="midnightblue" points="744.005,-84.5559 750.02,-75.8339 739.879,-78.9014 744.005,-84.5559"/>
</g>
<!-- Node15 -->
<g id="node15" class="node"><title>Node15</title>
<g id="a_node15"><a xlink:href="../../d9/d33/Tag_8h.html" target="_top" xlink:title="Tag.h">
<polygon fill="none" stroke="black" points="842.626,-56.5 842.626,-75.5 883.626,-75.5 883.626,-56.5 842.626,-56.5"/>
<text text-anchor="middle" x="863.126" y="-63.5" font-family="Helvetica,sans-Serif" font-size="10.00">Tag.h</text>
</a>
</g>
</g>
<!-- Node13&#45;&gt;Node15 -->
<g id="edge19" class="edge"><title>Node13&#45;&gt;Node15</title>
<path fill="none" stroke="midnightblue" d="M715.855,-112.444C747.735,-102.606 799.892,-86.5122 832.819,-76.3518"/>
<polygon fill="midnightblue" stroke="midnightblue" points="833.853,-79.6956 842.377,-73.4026 831.789,-73.0068 833.853,-79.6956"/>
</g>
<!-- Node15&#45;&gt;Node7 -->
<g id="edge20" class="edge"><title>Node15&#45;&gt;Node7</title>
<path fill="none" stroke="midnightblue" d="M883.783,-57.0321C907.357,-47.9392 946.123,-32.9868 973.049,-22.601"/>
<polygon fill="midnightblue" stroke="midnightblue" points="974.313,-25.8649 982.384,-19.0006 971.794,-19.3339 974.313,-25.8649"/>
</g>
<!-- Node16&#45;&gt;Node6 -->
<g id="edge23" class="edge"><title>Node16&#45;&gt;Node6</title>
<path fill="none" stroke="midnightblue" d="M216.909,-174.403C186.458,-164.022 135.077,-146.506 100.883,-134.849"/>
<polygon fill="midnightblue" stroke="midnightblue" points="101.89,-131.495 91.2955,-131.581 99.6312,-138.12 101.89,-131.495"/>
</g>
<!-- Node16&#45;&gt;Node7 -->
<g id="edge24" class="edge"><title>Node16&#45;&gt;Node7</title>
<path fill="none" stroke="midnightblue" d="M244.359,-174.218C248.6,-159.289 259.227,-128.938 279.126,-112 339.381,-60.7118 370.583,-71.7542 448.126,-56 644.841,-16.0338 887.583,-11.2962 972.261,-10.9323"/>
<polygon fill="midnightblue" stroke="midnightblue" points="972.476,-14.4319 982.468,-10.9071 972.459,-7.43192 972.476,-14.4319"/>
</g>
<!-- Node16&#45;&gt;Node10 -->
<g id="edge22" class="edge"><title>Node16&#45;&gt;Node10</title>
<path fill="none" stroke="midnightblue" d="M229.231,-174.403C214.662,-164.691 190.724,-148.732 173.38,-137.17"/>
<polygon fill="midnightblue" stroke="midnightblue" points="175.259,-134.215 164.997,-131.581 171.376,-140.04 175.259,-134.215"/>
</g>
<!-- Node16&#45;&gt;Node11 -->
<g id="edge25" class="edge"><title>Node16&#45;&gt;Node11</title>
<path fill="none" stroke="midnightblue" d="M239.721,-174.281C234.529,-155.463 222.18,-110.697 215.185,-85.3399"/>
<polygon fill="midnightblue" stroke="midnightblue" points="218.505,-84.2139 212.472,-75.5048 211.757,-86.0755 218.505,-84.2139"/>
</g>
<!-- Node16&#45;&gt;Node13 -->
<g id="edge26" class="edge"><title>Node16&#45;&gt;Node13</title>
<path fill="none" stroke="midnightblue" d="M309.464,-174.466C386.531,-164.615 516.514,-147.743 628.126,-132 628.227,-131.986 628.328,-131.971 628.429,-131.957"/>
<polygon fill="midnightblue" stroke="midnightblue" points="628.643,-135.462 638.045,-130.579 627.65,-128.533 628.643,-135.462"/>
</g>
<!-- Node17&#45;&gt;Node3 -->
<g id="edge28" class="edge"><title>Node17&#45;&gt;Node3</title>
<path fill="none" stroke="midnightblue" d="M591.9,-174.448C548.305,-164.406 473.927,-147.188 410.126,-132 408.86,-131.699 407.569,-131.39 406.266,-131.078"/>
<polygon fill="midnightblue" stroke="midnightblue" points="406.752,-127.595 396.21,-128.652 405.11,-134.4 406.752,-127.595"/>
</g>
<!-- Node17&#45;&gt;Node7 -->
<g id="edge32" class="edge"><title>Node17&#45;&gt;Node7</title>
<path fill="none" stroke="midnightblue" d="M699.843,-176.845C771.174,-169.46 875.311,-155.101 908.126,-132 940.041,-109.532 927.393,-86.1935 952.126,-56 961.245,-44.8671 973.241,-34.1353 983.307,-25.9459"/>
<polygon fill="midnightblue" stroke="midnightblue" points="985.523,-28.6555 991.203,-19.7118 981.185,-23.1613 985.523,-28.6555"/>
</g>
<!-- Node17&#45;&gt;Node8 -->
<g id="edge33" class="edge"><title>Node17&#45;&gt;Node8</title>
<path fill="none" stroke="midnightblue" d="M570.282,-174.473C513.981,-165.888 426.542,-151.443 342.144,-132.042"/>
<polygon fill="midnightblue" stroke="midnightblue" points="342.934,-128.633 332.401,-129.777 341.349,-135.451 342.934,-128.633"/>
</g>
<!-- Node17&#45;&gt;Node11 -->
<g id="edge34" class="edge"><title>Node17&#45;&gt;Node11</title>
<path fill="none" stroke="midnightblue" d="M604.458,-174.466C563.402,-160.424 478.32,-132.011 405.126,-112 348.3,-96.4641 281.205,-81.7671 242.373,-73.6132"/>
<polygon fill="midnightblue" stroke="midnightblue" points="242.706,-70.1074 232.202,-71.4916 241.277,-76.9599 242.706,-70.1074"/>
</g>
<!-- Node17&#45;&gt;Node13 -->
<g id="edge36" class="edge"><title>Node17&#45;&gt;Node13</title>
<path fill="none" stroke="midnightblue" d="M637.579,-174.403C646.692,-165.136 661.396,-150.183 672.601,-138.788"/>
<polygon fill="midnightblue" stroke="midnightblue" points="675.172,-141.165 679.688,-131.581 670.181,-136.257 675.172,-141.165"/>
</g>
<!-- Node18 -->
<g id="node18" class="node"><title>Node18</title>
<polygon fill="none" stroke="#bfbfbf" points="490.626,-112.5 490.626,-131.5 619.626,-131.5 619.626,-112.5 490.626,-112.5"/>
<text text-anchor="middle" x="555.126" y="-119.5" font-family="Helvetica,sans-Serif" font-size="10.00">boost/algorithm/string.hpp</text>
</g>
<!-- Node17&#45;&gt;Node18 -->
<g id="edge29" class="edge"><title>Node17&#45;&gt;Node18</title>
<path fill="none" stroke="midnightblue" d="M618.523,-174.403C606.874,-164.958 587.939,-149.606 573.791,-138.134"/>
<polygon fill="midnightblue" stroke="midnightblue" points="575.68,-135.16 565.708,-131.581 571.272,-140.597 575.68,-135.16"/>
</g>
<!-- Node19 -->
<g id="node19" class="node"><title>Node19</title>
<polygon fill="none" stroke="#bfbfbf" points="756.126,-112.5 756.126,-131.5 800.126,-131.5 800.126,-112.5 756.126,-112.5"/>
<text text-anchor="middle" x="778.126" y="-119.5" font-family="Helvetica,sans-Serif" font-size="10.00">mutex</text>
</g>
<!-- Node17&#45;&gt;Node19 -->
<g id="edge30" class="edge"><title>Node17&#45;&gt;Node19</title>
<path fill="none" stroke="midnightblue" d="M650.474,-174.403C675.811,-164.2 718.264,-147.105 747.197,-135.454"/>
<polygon fill="midnightblue" stroke="midnightblue" points="748.849,-138.563 756.817,-131.581 746.234,-132.069 748.849,-138.563"/>
</g>
<!-- Node17&#45;&gt;Node20 -->
<g id="edge31" class="edge"><title>Node17&#45;&gt;Node20</title>
<path fill="none" stroke="midnightblue" d="M695.682,-174.467C795.668,-161.648 981.308,-137.848 1060.16,-127.739"/>
<polygon fill="midnightblue" stroke="midnightblue" points="1060.64,-131.206 1070.12,-126.463 1059.75,-124.263 1060.64,-131.206"/>
</g>
<!-- Node21 -->
<g id="node21" class="node"><title>Node21</title>
<polygon fill="none" stroke="#bfbfbf" points="818.626,-112.5 818.626,-131.5 899.626,-131.5 899.626,-112.5 818.626,-112.5"/>
<text text-anchor="middle" x="859.126" y="-119.5" font-family="Helvetica,sans-Serif" font-size="10.00">sys/resource.h</text>
</g>
<!-- Node17&#45;&gt;Node21 -->
<g id="edge35" class="edge"><title>Node17&#45;&gt;Node21</title>
<path fill="none" stroke="midnightblue" d="M662.079,-174.403C702.728,-163.799 771.913,-145.751 816.55,-134.107"/>
<polygon fill="midnightblue" stroke="midnightblue" points="817.441,-137.492 826.233,-131.581 815.674,-130.718 817.441,-137.492"/>
</g>
<!-- Node24&#45;&gt;Node4 -->
<g id="edge45" class="edge"><title>Node24&#45;&gt;Node4</title>
<path fill="none" stroke="midnightblue" d="M1417.04,-174.281C1403.66,-155.126 1371.51,-109.083 1353.99,-83.9944"/>
<polygon fill="midnightblue" stroke="midnightblue" points="1356.66,-81.6999 1348.06,-75.5048 1350.92,-85.7076 1356.66,-81.6999"/>
</g>
<!-- Node24&#45;&gt;Node20 -->
<g id="edge47" class="edge"><title>Node24&#45;&gt;Node20</title>
<path fill="none" stroke="midnightblue" d="M1399.45,-174.5C1392.34,-172.159 1384.47,-169.777 1377.13,-168 1291.43,-147.277 1188.63,-133.528 1134.58,-127.135"/>
<polygon fill="midnightblue" stroke="midnightblue" points="1134.77,-123.634 1124.43,-125.955 1133.96,-130.587 1134.77,-123.634"/>
</g>
<!-- Node25 -->
<g id="node25" class="node"><title>Node25</title>
<polygon fill="none" stroke="#bfbfbf" points="1398.13,-112.5 1398.13,-131.5 1448.13,-131.5 1448.13,-112.5 1398.13,-112.5"/>
<text text-anchor="middle" x="1423.13" y="-119.5" font-family="Helvetica,sans-Serif" font-size="10.00">iomanip</text>
</g>
<!-- Node24&#45;&gt;Node25 -->
<g id="edge46" class="edge"><title>Node24&#45;&gt;Node25</title>
<path fill="none" stroke="midnightblue" d="M1423.13,-174.403C1423.13,-165.938 1423.13,-152.728 1423.13,-141.82"/>
<polygon fill="midnightblue" stroke="midnightblue" points="1426.63,-141.581 1423.13,-131.581 1419.63,-141.581 1426.63,-141.581"/>
</g>
<!-- Node26&#45;&gt;Node7 -->
<g id="edge49" class="edge"><title>Node26&#45;&gt;Node7</title>
<path fill="none" stroke="midnightblue" d="M1034.02,-56.083C1028.84,-48.5341 1021.28,-37.4948 1014.93,-28.2298"/>
<polygon fill="midnightblue" stroke="midnightblue" points="1017.66,-26.0221 1009.12,-19.7511 1011.89,-29.9787 1017.66,-26.0221"/>
</g>
<!-- Node27&#45;&gt;Node7 -->
<g id="edge52" class="edge"><title>Node27&#45;&gt;Node7</title>
<path fill="none" stroke="midnightblue" d="M1266.67,-236.956C1229.4,-227.019 1185.51,-213.172 1171.13,-200 1139.71,-171.227 1153.62,-149.347 1133.13,-112 1118.66,-85.6317 1117.84,-75.7142 1095.13,-56 1077.06,-40.32 1052.57,-28.6917 1033.4,-21.1875"/>
<polygon fill="midnightblue" stroke="midnightblue" points="1034.51,-17.8677 1023.92,-17.6396 1032.06,-24.4234 1034.51,-17.8677"/>
</g>
<!-- Node28 -->
<g id="node28" class="node"><title>Node28</title>
<polygon fill="none" stroke="#bfbfbf" points="1180.63,-174.5 1180.63,-193.5 1239.63,-193.5 1239.63,-174.5 1180.63,-174.5"/>
<text text-anchor="middle" x="1210.13" y="-181.5" font-family="Helvetica,sans-Serif" font-size="10.00">exception</text>
</g>
<!-- Node27&#45;&gt;Node28 -->
<g id="edge51" class="edge"><title>Node27&#45;&gt;Node28</title>
<path fill="none" stroke="midnightblue" d="M1300.46,-236.841C1280.83,-225.579 1253.54,-209.913 1234.1,-198.757"/>
<polygon fill="midnightblue" stroke="midnightblue" points="1235.67,-195.624 1225.25,-193.682 1232.18,-201.695 1235.67,-195.624"/>
</g>
<!-- Node29&#45;&gt;Node7 -->
<g id="edge55" class="edge"><title>Node29&#45;&gt;Node7</title>
<path fill="none" stroke="midnightblue" d="M1529.12,-242.296C1520.75,-218.986 1495.23,-154.068 1457.13,-112 1427.25,-79.0192 1415.82,-71.5563 1374.13,-56 1311.86,-32.7669 1111.66,-17.9004 1034.17,-12.8882"/>
<polygon fill="midnightblue" stroke="midnightblue" points="1034.28,-9.38812 1024.07,-12.2465 1033.83,-16.374 1034.28,-9.38812"/>
</g>
<!-- Node29&#45;&gt;Node12 -->
<g id="edge54" class="edge"><title>Node29&#45;&gt;Node12</title>
<path fill="none" stroke="midnightblue" d="M1503.5,-242.372C1464.45,-230.604 1394.41,-209.496 1351.04,-196.426"/>
<polygon fill="midnightblue" stroke="midnightblue" points="1352,-193.06 1341.42,-193.526 1349.98,-199.763 1352,-193.06"/>
</g>
<!-- Node30&#45;&gt;Node4 -->
<g id="edge62" class="edge"><title>Node30&#45;&gt;Node4</title>
<path fill="none" stroke="midnightblue" d="M1681.65,-242.498C1653.93,-234.433 1614.32,-220.48 1584.13,-200 1539.88,-169.993 1547.77,-139.825 1502.13,-112 1462.44,-87.8092 1409.36,-76.2452 1375.44,-70.9952"/>
<polygon fill="midnightblue" stroke="midnightblue" points="1375.54,-67.4736 1365.15,-69.5045 1374.54,-74.4014 1375.54,-67.4736"/>
</g>
<!-- Node30&#45;&gt;Node7 -->
<g id="edge63" class="edge"><title>Node30&#45;&gt;Node7</title>
<path fill="none" stroke="midnightblue" d="M1722.13,-242.224C1745.4,-211.969 1815.84,-110.866 1764.13,-56 1738.69,-29.0124 1174.23,-14.7826 1034.3,-11.6621"/>
<polygon fill="midnightblue" stroke="midnightblue" points="1033.96,-8.15381 1023.88,-11.4329 1033.8,-15.1521 1033.96,-8.15381"/>
</g>
<!-- Node30&#45;&gt;Node12 -->
<g id="edge57" class="edge"><title>Node30&#45;&gt;Node12</title>
<path fill="none" stroke="midnightblue" d="M1665.79,-243.32C1650.51,-240.956 1633.62,-238.356 1618.13,-236 1511.06,-219.725 1483.49,-220.374 1377.13,-200 1370.73,-198.774 1364,-197.349 1357.41,-195.875"/>
<polygon fill="midnightblue" stroke="midnightblue" points="1357.76,-192.364 1347.23,-193.538 1356.19,-199.186 1357.76,-192.364"/>
</g>
<!-- Node30&#45;&gt;Node24 -->
<g id="edge60" class="edge"><title>Node30&#45;&gt;Node24</title>
<path fill="none" stroke="midnightblue" d="M1677.25,-242.439C1624.12,-230.43 1527.52,-208.595 1469.94,-195.582"/>
<polygon fill="midnightblue" stroke="midnightblue" points="1470.54,-192.128 1460.01,-193.337 1468.99,-198.956 1470.54,-192.128"/>
</g>
<!-- Node31 -->
<g id="node31" class="node"><title>Node31</title>
<g id="a_node31"><a xlink:href="../../de/dac/TransportInterface_8h.html" target="_top" xlink:title="../Transports/TransportInterface.h">
<polygon fill="none" stroke="black" points="1592.63,-56.5 1592.63,-75.5 1755.63,-75.5 1755.63,-56.5 1592.63,-56.5"/>
<text text-anchor="middle" x="1674.13" y="-63.5" font-family="Helvetica,sans-Serif" font-size="10.00">../Transports/TransportInterface.h</text>
</a>
</g>
</g>
<!-- Node30&#45;&gt;Node31 -->
<g id="edge58" class="edge"><title>Node30&#45;&gt;Node31</title>
<path fill="none" stroke="midnightblue" d="M1714.09,-242.216C1712.21,-227.001 1707.92,-194.801 1702.13,-168 1695.8,-138.738 1686.04,-105.37 1679.87,-85.2608"/>
<polygon fill="midnightblue" stroke="midnightblue" points="1683.17,-84.0752 1676.86,-75.5635 1676.48,-86.1516 1683.17,-84.0752"/>
</g>
<!-- Node32 -->
<g id="node32" class="node"><title>Node32</title>
<polygon fill="none" stroke="#bfbfbf" points="1592.63,-169 1592.63,-199 1693.63,-199 1693.63,-169 1592.63,-169"/>
<text text-anchor="start" x="1600.63" y="-187" font-family="Helvetica,sans-Serif" font-size="10.00">boost/property_tree</text>
<text text-anchor="middle" x="1643.13" y="-176" font-family="Helvetica,sans-Serif" font-size="10.00">/ptree.hpp</text>
</g>
<!-- Node30&#45;&gt;Node32 -->
<g id="edge61" class="edge"><title>Node30&#45;&gt;Node32</title>
<path fill="none" stroke="midnightblue" d="M1705.71,-242.372C1695.71,-233.2 1679.51,-218.354 1666.1,-206.062"/>
<polygon fill="midnightblue" stroke="midnightblue" points="1668.33,-203.359 1658.6,-199.181 1663.6,-208.519 1668.33,-203.359"/>
</g>
<!-- Node31&#45;&gt;Node7 -->
<g id="edge59" class="edge"><title>Node31&#45;&gt;Node7</title>
<path fill="none" stroke="midnightblue" d="M1592.43,-57.2551C1587.59,-56.823 1582.8,-56.4016 1578.13,-56 1370.28,-38.1251 1119.9,-19.5403 1033.88,-13.2398"/>
<polygon fill="midnightblue" stroke="midnightblue" points="1033.99,-9.73851 1023.76,-12.4998 1033.48,-16.7199 1033.99,-9.73851"/>
</g>
</g>
</svg>
        <g id="navigator" transform="translate(0 0)" fill="#404254">
                <rect fill="#f2f5e9" fill-opacity="0.5" stroke="#606060" stroke-width=".5" x="0" y="0" width="60" height="60"/>
                <use id="zoomplus" xlink:href="#zoomPlus" x="17" y="9" onmousedown="handleZoom(evt,'in')"/>
                <use id="zoomminus" xlink:href="#zoomMin" x="42" y="9" onmousedown="handleZoom(evt,'out')"/>
                <use id="reset" xlink:href="#resetDef" x="30" y="36" onmousedown="handleReset()"/>
                <g id="arrowUp" xlink:href="#dirArrow" transform="translate(30 24)" onmousedown="handlePan(0,-1)">
                  <use xlink:href="#rim" fill="#404040">
                        <set attributeName="fill" to="#808080" begin="arrowUp.mouseover" end="arrowUp.mouseout"/>
                  </use>
                  <path fill="none" stroke="white" stroke-width="1.5" d="M0,-3.0v7 M-2.5,-0.5L0,-3.0L2.5,-0.5"/>
                </g>
                <g id="arrowRight" xlink:href="#dirArrow" transform="rotate(90) translate(36 -43)" onmousedown="handlePan(1,0)">
                  <use xlink:href="#rim" fill="#404040">
                        <set attributeName="fill" to="#808080" begin="arrowRight.mouseover" end="arrowRight.mouseout"/>
                  </use>
                  <path fill="none" stroke="white" stroke-width="1.5" d="M0,-3.0v7 M-2.5,-0.5L0,-3.0L2.5,-0.5"/>
                </g>
                <g id="arrowDown" xlink:href="#dirArrow" transform="rotate(180) translate(-30 -48)" onmousedown="handlePan(0,1)">
                  <use xlink:href="#rim" fill="#404040">
                        <set attributeName="fill" to="#808080" begin="arrowDown.mouseover" end="arrowDown.mouseout"/>
                  </use>
                  <path fill="none" stroke="white" stroke-width="1.5" d="M0,-3.0v7 M-2.5,-0.5L0,-3.0L2.5,-0.5"/>
                </g>
                <g id="arrowLeft" xlink:href="#dirArrow" transform="rotate(270) translate(-36 17)" onmousedown="handlePan(-1,0)">
                  <use xlink:href="#rim" fill="#404040">
                        <set attributeName="fill" to="#808080" begin="arrowLeft.mouseover" end="arrowLeft.mouseout"/>
                  </use>
                  <path fill="none" stroke="white" stroke-width="1.5" d="M0,-3.0v7 M-2.5,-0.5L0,-3.0L2.5,-0.5"/>
                </g>
        </g>
        <svg viewBox="0 0 15 15" width="100%" height="30px" preserveAspectRatio="xMaxYMin meet">
         <g id="arrow_out" transform="scale(0.3 0.3)">
          <a xlink:href="Monitoring_8cxx__incl_org.svg" target="_base">
           <rect id="button" ry="5" rx="5" y="6" x="6" height="38" width="38"
                fill="#f2f5e9" fill-opacity="0.5" stroke="#606060" stroke-width="1.0"/>
           <path id="arrow"
             d="M 11.500037,31.436501 C 11.940474,20.09759 22.043105,11.32322 32.158766,21.979434 L 37.068811,17.246167 C 37.068811,17.246167 37.088388,32 37.088388,32 L 22.160133,31.978069 C 22.160133,31.978069 26.997745,27.140456 26.997745,27.140456 C 18.528582,18.264221 13.291696,25.230495 11.500037,31.436501 z"
             style="fill:#404040;"/>
          </a>
         </g>
        </svg>
</svg>
