<?xml version="1.0" encoding="UTF-8" standalone="no"?>
<!DOCTYPE svg PUBLIC "-//W3C//DTD SVG 1.1//EN"
 "http://www.w3.org/Graphics/SVG/1.1/DTD/svg11.dtd">
<!-- Generated by graphviz version 2.36.0 (20140111.2315)
 -->
<!-- Title: /home/travis/build/AliceO2Group/Monitoring/examples/10&#45;Buffering.cxx Pages: 1 -->
<!--zoomable 386 -->
<svg id="main" version="1.1" xmlns="http://www.w3.org/2000/svg" xmlns:xlink="http://www.w3.org/1999/xlink" xml:space="preserve" onload="init(evt)">
<style type="text/css"><![CDATA[
.edge:hover path { stroke: red; }
.edge:hover polygon { stroke: red; fill: red; }
]]></style>
<script type="text/javascript"><![CDATA[
var edges = document.getElementsByTagName('g');
if (edges && edges.length) {
  for (var i=0;i<edges.length;i++) {
    if (edges[i].id.substr(0,4)=='edge') {
      edges[i].setAttribute('class','edge');
    }
  }
}
]]></script>
        <defs>
                <circle id="rim" cx="0" cy="0" r="7"/>
                <circle id="rim2" cx="0" cy="0" r="3.5"/>
                <g id="zoomPlus">
                        <use xlink:href="#rim" fill="#404040">
                                <set attributeName="fill" to="#808080" begin="zoomplus.mouseover" end="zoomplus.mouseout"/>
                        </use>
                        <path d="M-4,0h8M0,-4v8" fill="none" stroke="white" stroke-width="1.5" pointer-events="none"/>
                </g>
                <g id="zoomMin">
                        <use xlink:href="#rim" fill="#404040">
                                <set attributeName="fill" to="#808080" begin="zoomminus.mouseover" end="zoomminus.mouseout"/>
                        </use>
                        <path d="M-4,0h8" fill="none" stroke="white" stroke-width="1.5" pointer-events="none"/>
                </g>
                <g id="dirArrow">
                        <path fill="none" stroke="white" stroke-width="1.5" d="M0,-3.0v7 M-2.5,-0.5L0,-3.0L2.5,-0.5"/>
                </g>
               <g id="resetDef">
                       <use xlink:href="#rim2" fill="#404040">
                               <set attributeName="fill" to="#808080" begin="reset.mouseover" end="reset.mouseout"/>
                       </use>
               </g>
        </defs>

<script type="text/javascript">
var viewWidth = 1107;
var viewHeight = 386;
var sectionId = 'dynsection-0';
</script>
<script xlink:href="../../svgpan.js"/>
<svg id="graph" class="graph">
<g id="viewport">
<title>/home/travis/build/AliceO2Group/Monitoring/examples/10&#45;Buffering.cxx</title>
<!-- Node1 -->
<g id="node1" class="node"><title>Node1</title>
<polygon fill="#bfbfbf" stroke="black" points="418.415,-336.5 418.415,-377.5 554.415,-377.5 554.415,-336.5 418.415,-336.5"/>
<text text-anchor="start" x="426.415" y="-365.5" font-family="Helvetica,sans-Serif" font-size="10.00">/home/travis/build</text>
<text text-anchor="start" x="426.415" y="-354.5" font-family="Helvetica,sans-Serif" font-size="10.00">/AliceO2Group/Monitoring</text>
<text text-anchor="middle" x="486.415" y="-343.5" font-family="Helvetica,sans-Serif" font-size="10.00">/examples/10&#45;Buffering.cxx</text>
</g>
<!-- Node2 -->
<g id="node2" class="node"><title>Node2</title>
<g id="a_node2"><a xlink:href="../../df/d4e/MonitoringFactory_8h.html" target="_top" xlink:title="Monitoring/MonitoringFactory.h">
<polygon fill="none" stroke="black" points="410.915,-280.5 410.915,-299.5 561.915,-299.5 561.915,-280.5 410.915,-280.5"/>
<text text-anchor="middle" x="486.415" y="-287.5" font-family="Helvetica,sans-Serif" font-size="10.00">Monitoring/MonitoringFactory.h</text>
</a>
</g>
</g>
<!-- Node1&#45;&gt;Node2 -->
<g id="edge1" class="edge"><title>Node1&#45;&gt;Node2</title>
<path fill="none" stroke="midnightblue" d="M486.415,-336.498C486.415,-328.065 486.415,-318.235 486.415,-309.874"/>
<polygon fill="midnightblue" stroke="midnightblue" points="489.915,-309.652 486.415,-299.652 482.915,-309.653 489.915,-309.652"/>
</g>
<!-- Node3 -->
<g id="node3" class="node"><title>Node3</title>
<g id="a_node3"><a xlink:href="../../d0/d98/Monitoring_8h.html" target="_top" xlink:title="Monitoring/Monitoring.h">
<polygon fill="none" stroke="black" points="427.415,-224.5 427.415,-243.5 545.415,-243.5 545.415,-224.5 427.415,-224.5"/>
<text text-anchor="middle" x="486.415" y="-231.5" font-family="Helvetica,sans-Serif" font-size="10.00">Monitoring/Monitoring.h</text>
</a>
</g>
</g>
<!-- Node2&#45;&gt;Node3 -->
<g id="edge2" class="edge"><title>Node2&#45;&gt;Node3</title>
<path fill="none" stroke="midnightblue" d="M486.415,-280.083C486.415,-273.006 486.415,-262.861 486.415,-253.986"/>
<polygon fill="midnightblue" stroke="midnightblue" points="489.915,-253.751 486.415,-243.751 482.915,-253.751 489.915,-253.751"/>
</g>
<!-- Node4 -->
<g id="node4" class="node"><title>Node4</title>
<polygon fill="none" stroke="#bfbfbf" points="533.415,-112.5 533.415,-131.5 579.415,-131.5 579.415,-112.5 533.415,-112.5"/>
<text text-anchor="middle" x="556.415" y="-119.5" font-family="Helvetica,sans-Serif" font-size="10.00">atomic</text>
</g>
<!-- Node3&#45;&gt;Node4 -->
<g id="edge3" class="edge"><title>Node3&#45;&gt;Node4</title>
<path fill="none" stroke="midnightblue" d="M493.3,-224.249C500.201,-215.334 510.984,-201.007 519.415,-188 529.546,-172.371 539.94,-153.85 547.122,-140.584"/>
<polygon fill="midnightblue" stroke="midnightblue" points="550.298,-142.067 551.93,-131.599 544.126,-138.765 550.298,-142.067"/>
</g>
<!-- Node5 -->
<g id="node5" class="node"><title>Node5</title>
<polygon fill="none" stroke="#bfbfbf" points="27.4152,-56.5 27.4152,-75.5 73.4152,-75.5 73.4152,-56.5 27.4152,-56.5"/>
<text text-anchor="middle" x="50.4152" y="-63.5" font-family="Helvetica,sans-Serif" font-size="10.00">chrono</text>
</g>
<!-- Node3&#45;&gt;Node5 -->
<g id="edge4" class="edge"><title>Node3&#45;&gt;Node5</title>
<path fill="none" stroke="midnightblue" d="M427.176,-230.472C318.689,-225.282 96.8511,-211.862 71.4152,-188 43.387,-161.706 44.4173,-112.453 47.481,-85.6066"/>
<polygon fill="midnightblue" stroke="midnightblue" points="50.9616,-85.9855 48.8397,-75.6053 44.0253,-85.0431 50.9616,-85.9855"/>
</g>
<!-- Node6 -->
<g id="node6" class="node"><title>Node6</title>
<polygon fill="none" stroke="#bfbfbf" points="771.915,-168.5 771.915,-187.5 806.915,-187.5 806.915,-168.5 771.915,-168.5"/>
<text text-anchor="middle" x="789.415" y="-175.5" font-family="Helvetica,sans-Serif" font-size="10.00">map</text>
</g>
<!-- Node3&#45;&gt;Node6 -->
<g id="edge5" class="edge"><title>Node3&#45;&gt;Node6</title>
<path fill="none" stroke="midnightblue" d="M545.453,-225.101C600.593,-217.274 685.03,-204.138 757.415,-188 758.894,-187.67 760.406,-187.314 761.928,-186.939"/>
<polygon fill="midnightblue" stroke="midnightblue" points="763.126,-190.243 771.898,-184.3 761.335,-183.476 763.126,-190.243"/>
</g>
<!-- Node7 -->
<g id="node7" class="node"><title>Node7</title>
<polygon fill="none" stroke="#bfbfbf" points="129.415,-112.5 129.415,-131.5 181.415,-131.5 181.415,-112.5 129.415,-112.5"/>
<text text-anchor="middle" x="155.415" y="-119.5" font-family="Helvetica,sans-Serif" font-size="10.00">memory</text>
</g>
<!-- Node3&#45;&gt;Node7 -->
<g id="edge6" class="edge"><title>Node3&#45;&gt;Node7</title>
<path fill="none" stroke="midnightblue" d="M426.983,-225.806C382.56,-219.213 320.882,-207.451 269.415,-188 234.731,-174.892 198.072,-152.179 175.967,-137.372"/>
<polygon fill="midnightblue" stroke="midnightblue" points="177.669,-134.297 167.433,-131.562 173.729,-140.083 177.669,-134.297"/>
</g>
<!-- Node8 -->
<g id="node8" class="node"><title>Node8</title>
<polygon fill="none" stroke="#bfbfbf" points="208.915,-0.5 208.915,-19.5 249.915,-19.5 249.915,-0.5 208.915,-0.5"/>
<text text-anchor="middle" x="229.415" y="-7.5" font-family="Helvetica,sans-Serif" font-size="10.00">string</text>
</g>
<!-- Node3&#45;&gt;Node8 -->
<g id="edge7" class="edge"><title>Node3&#45;&gt;Node8</title>
<path fill="none" stroke="midnightblue" d="M427.237,-230.395C315.657,-224.97 82.7745,-211.017 54.4152,-188 7.20019,-149.679 -19.8373,-103.271 18.4152,-56 40.7338,-28.4195 145.573,-17.0158 198.574,-12.9506"/>
<polygon fill="midnightblue" stroke="midnightblue" points="199.026,-16.427 208.747,-12.2119 198.519,-9.44542 199.026,-16.427"/>
</g>
<!-- Node9 -->
<g id="node9" class="node"><title>Node9</title>
<polygon fill="none" stroke="#bfbfbf" points="1055.42,-112.5 1055.42,-131.5 1099.42,-131.5 1099.42,-112.5 1055.42,-112.5"/>
<text text-anchor="middle" x="1077.42" y="-119.5" font-family="Helvetica,sans-Serif" font-size="10.00">thread</text>
</g>
<!-- Node3&#45;&gt;Node9 -->
<g id="edge8" class="edge"><title>Node3&#45;&gt;Node9</title>
<path fill="none" stroke="midnightblue" d="M545.519,-226.385C594.179,-219.852 664.491,-207.897 723.415,-188 742.247,-181.641 744.399,-173.785 763.415,-168 881.227,-132.161 919.65,-155.895 1045.15,-131.707"/>
<polygon fill="midnightblue" stroke="midnightblue" points="1046.01,-135.104 1055.14,-129.717 1044.65,-128.239 1046.01,-135.104"/>
</g>
<!-- Node10 -->
<g id="node10" class="node"><title>Node10</title>
<polygon fill="none" stroke="#bfbfbf" points="825.415,-168.5 825.415,-187.5 863.415,-187.5 863.415,-168.5 825.415,-168.5"/>
<text text-anchor="middle" x="844.415" y="-175.5" font-family="Helvetica,sans-Serif" font-size="10.00">tuple</text>
</g>
<!-- Node3&#45;&gt;Node10 -->
<g id="edge9" class="edge"><title>Node3&#45;&gt;Node10</title>
<path fill="none" stroke="midnightblue" d="M545.472,-227.885C611.724,-221.464 722.131,-208.706 815.415,-188 815.515,-187.978 815.615,-187.956 815.715,-187.933"/>
<polygon fill="midnightblue" stroke="midnightblue" points="816.404,-191.371 825.191,-185.452 814.631,-184.599 816.404,-191.371"/>
</g>
<!-- Node11 -->
<g id="node11" class="node"><title>Node11</title>
<polygon fill="none" stroke="#bfbfbf" points="393.915,-112.5 393.915,-131.5 476.915,-131.5 476.915,-112.5 393.915,-112.5"/>
<text text-anchor="middle" x="435.415" y="-119.5" font-family="Helvetica,sans-Serif" font-size="10.00">unordered_map</text>
</g>
<!-- Node3&#45;&gt;Node11 -->
<g id="edge10" class="edge"><title>Node3&#45;&gt;Node11</title>
<path fill="none" stroke="midnightblue" d="M482.413,-224.368C474.109,-206.456 454.852,-164.923 443.737,-140.948"/>
<polygon fill="midnightblue" stroke="midnightblue" points="446.78,-139.192 439.398,-131.591 440.429,-142.136 446.78,-139.192"/>
</g>
<!-- Node12 -->
<g id="node12" class="node"><title>Node12</title>
<polygon fill="none" stroke="#bfbfbf" points="429.415,-56.5 429.415,-75.5 473.415,-75.5 473.415,-56.5 429.415,-56.5"/>
<text text-anchor="middle" x="451.415" y="-63.5" font-family="Helvetica,sans-Serif" font-size="10.00">vector</text>
</g>
<!-- Node3&#45;&gt;Node12 -->
<g id="edge11" class="edge"><title>Node3&#45;&gt;Node12</title>
<path fill="none" stroke="midnightblue" d="M488.123,-224.483C491.799,-204.287 499.072,-152.178 485.415,-112 481.767,-101.266 474.464,-91.0368 467.558,-83.0512"/>
<polygon fill="midnightblue" stroke="midnightblue" points="470.037,-80.5765 460.676,-75.6146 464.899,-85.3311 470.037,-80.5765"/>
</g>
<!-- Node13 -->
<g id="node13" class="node"><title>Node13</title>
<g id="a_node13"><a xlink:href="../../df/d83/Backend_8h.html" target="_top" xlink:title="Monitoring/Backend.h">
<polygon fill="none" stroke="black" points="80.9152,-168.5 80.9152,-187.5 191.915,-187.5 191.915,-168.5 80.9152,-168.5"/>
<text text-anchor="middle" x="136.415" y="-175.5" font-family="Helvetica,sans-Serif" font-size="10.00">Monitoring/Backend.h</text>
</a>
</g>
</g>
<!-- Node3&#45;&gt;Node13 -->
<g id="edge12" class="edge"><title>Node3&#45;&gt;Node13</title>
<path fill="none" stroke="midnightblue" d="M430.957,-224.444C368.748,-214.846 267.935,-199.292 201.902,-189.104"/>
<polygon fill="midnightblue" stroke="midnightblue" points="202.031,-185.582 191.614,-187.516 200.964,-192.5 202.031,-185.582"/>
</g>
<!-- Node17 -->
<g id="node17" class="node"><title>Node17</title>
<g id="a_node17"><a xlink:href="../../dc/de0/DerivedMetrics_8h.html" target="_top" xlink:title="Monitoring/DerivedMetrics.h">
<polygon fill="none" stroke="black" points="278.915,-168.5 278.915,-187.5 417.915,-187.5 417.915,-168.5 278.915,-168.5"/>
<text text-anchor="middle" x="348.415" y="-175.5" font-family="Helvetica,sans-Serif" font-size="10.00">Monitoring/DerivedMetrics.h</text>
</a>
</g>
</g>
<!-- Node3&#45;&gt;Node17 -->
<g id="edge22" class="edge"><title>Node3&#45;&gt;Node17</title>
<path fill="none" stroke="midnightblue" d="M464.549,-224.444C441.636,-215.478 405.44,-201.314 379.549,-191.183"/>
<polygon fill="midnightblue" stroke="midnightblue" points="380.767,-187.901 370.179,-187.516 378.216,-194.42 380.767,-187.901"/>
</g>
<!-- Node18 -->
<g id="node18" class="node"><title>Node18</title>
<g id="a_node18"><a xlink:href="../../df/d93/ProcessMonitor_8h.html" target="_top" xlink:title="Monitoring/ProcessMonitor.h">
<polygon fill="none" stroke="black" points="573.915,-168.5 573.915,-187.5 714.915,-187.5 714.915,-168.5 573.915,-168.5"/>
<text text-anchor="middle" x="644.415" y="-175.5" font-family="Helvetica,sans-Serif" font-size="10.00">Monitoring/ProcessMonitor.h</text>
</a>
</g>
</g>
<!-- Node3&#45;&gt;Node18 -->
<g id="edge28" class="edge"><title>Node3&#45;&gt;Node18</title>
<path fill="none" stroke="midnightblue" d="M511.451,-224.444C538.031,-215.359 580.224,-200.939 609.939,-190.783"/>
<polygon fill="midnightblue" stroke="midnightblue" points="611.166,-194.062 619.497,-187.516 608.902,-187.439 611.166,-194.062"/>
</g>
<!-- Node13&#45;&gt;Node5 -->
<g id="edge13" class="edge"><title>Node13&#45;&gt;Node5</title>
<path fill="none" stroke="midnightblue" d="M124.965,-168.216C114.382,-159.72 98.6423,-146.093 87.4152,-132 75.6807,-117.271 65.3668,-98.3685 58.63,-84.7489"/>
<polygon fill="midnightblue" stroke="midnightblue" points="61.6868,-83.0283 54.2114,-75.5203 55.3731,-86.0513 61.6868,-83.0283"/>
</g>
<!-- Node13&#45;&gt;Node8 -->
<g id="edge14" class="edge"><title>Node13&#45;&gt;Node8</title>
<path fill="none" stroke="midnightblue" d="M131.728,-168.498C120.81,-147.432 96.3784,-91.9281 120.415,-56 137.725,-30.1272 172.925,-19.1137 198.657,-14.4355"/>
<polygon fill="midnightblue" stroke="midnightblue" points="199.356,-17.8684 208.682,-12.8404 198.256,-10.9553 199.356,-17.8684"/>
</g>
<!-- Node14 -->
<g id="node14" class="node"><title>Node14</title>
<g id="a_node14"><a xlink:href="../../d9/d92/Metric_8h.html" target="_top" xlink:title="Monitoring/Metric.h">
<polygon fill="none" stroke="black" points="199.415,-112.5 199.415,-131.5 299.415,-131.5 299.415,-112.5 199.415,-112.5"/>
<text text-anchor="middle" x="249.415" y="-119.5" font-family="Helvetica,sans-Serif" font-size="10.00">Monitoring/Metric.h</text>
</a>
</g>
</g>
<!-- Node13&#45;&gt;Node14 -->
<g id="edge15" class="edge"><title>Node13&#45;&gt;Node14</title>
<path fill="none" stroke="midnightblue" d="M154.32,-168.444C172.669,-159.675 201.421,-145.935 222.509,-135.858"/>
<polygon fill="midnightblue" stroke="midnightblue" points="224.08,-138.986 231.594,-131.516 221.062,-132.67 224.08,-138.986"/>
</g>
<!-- Node14&#45;&gt;Node5 -->
<g id="edge17" class="edge"><title>Node14&#45;&gt;Node5</title>
<path fill="none" stroke="midnightblue" d="M217.883,-112.444C181.118,-102.467 120.639,-86.0556 83.3025,-75.9242"/>
<polygon fill="midnightblue" stroke="midnightblue" points="83.9921,-72.4848 73.4245,-73.2437 82.1588,-79.2405 83.9921,-72.4848"/>
</g>
<!-- Node14&#45;&gt;Node8 -->
<g id="edge16" class="edge"><title>Node14&#45;&gt;Node8</title>
<path fill="none" stroke="midnightblue" d="M261.496,-112.479C277.117,-100.343 301.12,-77.1995 290.415,-56 283.608,-42.5199 270.647,-32.083 258.417,-24.6696"/>
<polygon fill="midnightblue" stroke="midnightblue" points="259.759,-21.4099 249.321,-19.5896 256.345,-27.5214 259.759,-21.4099"/>
</g>
<!-- Node14&#45;&gt;Node12 -->
<g id="edge18" class="edge"><title>Node14&#45;&gt;Node12</title>
<path fill="none" stroke="midnightblue" d="M281.423,-112.444C319.148,-102.358 381.474,-85.6971 419.263,-75.5952"/>
<polygon fill="midnightblue" stroke="midnightblue" points="420.473,-78.8947 429.23,-72.9308 418.665,-72.1322 420.473,-78.8947"/>
</g>
<!-- Node15 -->
<g id="node15" class="node"><title>Node15</title>
<polygon fill="none" stroke="#bfbfbf" points="189.415,-56.5 189.415,-75.5 281.415,-75.5 281.415,-56.5 189.415,-56.5"/>
<text text-anchor="middle" x="235.415" y="-63.5" font-family="Helvetica,sans-Serif" font-size="10.00">boost/variant.hpp</text>
</g>
<!-- Node14&#45;&gt;Node15 -->
<g id="edge19" class="edge"><title>Node14&#45;&gt;Node15</title>
<path fill="none" stroke="midnightblue" d="M247.103,-112.083C245.248,-104.927 242.58,-94.6353 240.261,-85.6911"/>
<polygon fill="midnightblue" stroke="midnightblue" points="243.582,-84.5527 237.684,-75.7511 236.806,-86.3094 243.582,-84.5527"/>
</g>
<!-- Node16 -->
<g id="node16" class="node"><title>Node16</title>
<g id="a_node16"><a xlink:href="../../d9/d33/Tag_8h.html" target="_top" xlink:title="Tag.h">
<polygon fill="none" stroke="black" points="129.915,-56.5 129.915,-75.5 170.915,-75.5 170.915,-56.5 129.915,-56.5"/>
<text text-anchor="middle" x="150.415" y="-63.5" font-family="Helvetica,sans-Serif" font-size="10.00">Tag.h</text>
</a>
</g>
</g>
<!-- Node14&#45;&gt;Node16 -->
<g id="edge20" class="edge"><title>Node14&#45;&gt;Node16</title>
<path fill="none" stroke="midnightblue" d="M233.509,-112.324C217.777,-103.743 193.473,-90.486 175.206,-80.5224"/>
<polygon fill="midnightblue" stroke="midnightblue" points="176.737,-77.3704 166.282,-75.6545 173.385,-83.5157 176.737,-77.3704"/>
</g>
<!-- Node16&#45;&gt;Node8 -->
<g id="edge21" class="edge"><title>Node16&#45;&gt;Node8</title>
<path fill="none" stroke="midnightblue" d="M163.108,-56.324C175.316,-47.979 193.994,-35.2122 208.418,-25.3524"/>
<polygon fill="midnightblue" stroke="midnightblue" points="210.473,-28.1871 216.754,-19.6545 206.523,-22.4082 210.473,-28.1871"/>
</g>
<!-- Node17&#45;&gt;Node7 -->
<g id="edge24" class="edge"><title>Node17&#45;&gt;Node7</title>
<path fill="none" stroke="midnightblue" d="M317.834,-168.444C283.44,-158.821 227.648,-143.21 191.241,-133.024"/>
<polygon fill="midnightblue" stroke="midnightblue" points="192.094,-129.628 181.521,-130.304 190.208,-136.369 192.094,-129.628"/>
</g>
<!-- Node17&#45;&gt;Node8 -->
<g id="edge25" class="edge"><title>Node17&#45;&gt;Node8</title>
<path fill="none" stroke="midnightblue" d="M347.486,-168.388C344.788,-147.072 335.22,-91.0431 306.415,-56 294.121,-41.0428 275.465,-29.9609 259.596,-22.537"/>
<polygon fill="midnightblue" stroke="midnightblue" points="260.72,-19.2079 250.157,-18.3855 257.902,-25.6155 260.72,-19.2079"/>
</g>
<!-- Node17&#45;&gt;Node11 -->
<g id="edge23" class="edge"><title>Node17&#45;&gt;Node11</title>
<path fill="none" stroke="midnightblue" d="M362.393,-168.324C375.965,-159.9 396.795,-146.971 412.74,-137.074"/>
<polygon fill="midnightblue" stroke="midnightblue" points="414.821,-139.902 421.472,-131.655 411.13,-133.954 414.821,-139.902"/>
</g>
<!-- Node17&#45;&gt;Node12 -->
<g id="edge26" class="edge"><title>Node17&#45;&gt;Node12</title>
<path fill="none" stroke="midnightblue" d="M351.721,-168.182C357.042,-154.853 368.54,-129.297 384.415,-112 396.04,-99.3349 411.91,-88.4737 425.288,-80.5963"/>
<polygon fill="midnightblue" stroke="midnightblue" points="427.084,-83.6013 434.068,-75.6339 423.64,-77.5073 427.084,-83.6013"/>
</g>
<!-- Node17&#45;&gt;Node14 -->
<g id="edge27" class="edge"><title>Node17&#45;&gt;Node14</title>
<path fill="none" stroke="midnightblue" d="M332.509,-168.324C316.777,-159.743 292.473,-146.486 274.206,-136.522"/>
<polygon fill="midnightblue" stroke="midnightblue" points="275.737,-133.37 265.282,-131.655 272.385,-139.516 275.737,-133.37"/>
</g>
<!-- Node18&#45;&gt;Node4 -->
<g id="edge29" class="edge"><title>Node18&#45;&gt;Node4</title>
<path fill="none" stroke="midnightblue" d="M630.276,-168.324C616.549,-159.9 595.479,-146.971 579.351,-137.074"/>
<polygon fill="midnightblue" stroke="midnightblue" points="580.873,-133.902 570.519,-131.655 577.211,-139.868 580.873,-133.902"/>
</g>
<!-- Node18&#45;&gt;Node8 -->
<g id="edge33" class="edge"><title>Node18&#45;&gt;Node8</title>
<path fill="none" stroke="midnightblue" d="M642.533,-168.239C639.162,-154.52 630.857,-127.894 614.415,-112 568.301,-67.423 542.918,-74.1936 481.415,-56 403.364,-32.911 308.011,-19.8264 260.061,-14.2492"/>
<polygon fill="midnightblue" stroke="midnightblue" points="260.354,-10.76 250.023,-13.1115 259.565,-17.7155 260.354,-10.76"/>
</g>
<!-- Node18&#45;&gt;Node9 -->
<g id="edge34" class="edge"><title>Node18&#45;&gt;Node9</title>
<path fill="none" stroke="midnightblue" d="M715.273,-169.35C816.779,-158.352 995.963,-138.777 1045.08,-131.451"/>
<polygon fill="midnightblue" stroke="midnightblue" points="1045.86,-134.869 1055.15,-129.762 1044.71,-127.965 1045.86,-134.869"/>
</g>
<!-- Node18&#45;&gt;Node12 -->
<g id="edge35" class="edge"><title>Node18&#45;&gt;Node12</title>
<path fill="none" stroke="midnightblue" d="M639.028,-168.078C630.168,-154.137 611.212,-127.214 588.415,-112 556.145,-90.4635 512.742,-78.5111 483.509,-72.4313"/>
<polygon fill="midnightblue" stroke="midnightblue" points="483.914,-68.9441 473.427,-70.4502 482.564,-75.8127 483.914,-68.9441"/>
</g>
<!-- Node18&#45;&gt;Node14 -->
<g id="edge37" class="edge"><title>Node18&#45;&gt;Node14</title>
<path fill="none" stroke="midnightblue" d="M581.826,-168.444C507.135,-158.233 383.131,-141.28 309.543,-131.22"/>
<polygon fill="midnightblue" stroke="midnightblue" points="309.886,-127.734 299.504,-129.848 308.938,-134.67 309.886,-127.734"/>
</g>
<!-- Node19 -->
<g id="node19" class="node"><title>Node19</title>
<polygon fill="none" stroke="#bfbfbf" points="673.915,-112.5 673.915,-131.5 802.915,-131.5 802.915,-112.5 673.915,-112.5"/>
<text text-anchor="middle" x="738.415" y="-119.5" font-family="Helvetica,sans-Serif" font-size="10.00">boost/algorithm/string.hpp</text>
</g>
<!-- Node18&#45;&gt;Node19 -->
<g id="edge30" class="edge"><title>Node18&#45;&gt;Node19</title>
<path fill="none" stroke="midnightblue" d="M659.518,-168.324C674.318,-159.822 697.109,-146.729 714.397,-136.797"/>
<polygon fill="midnightblue" stroke="midnightblue" points="716.422,-139.671 723.35,-131.655 712.935,-133.601 716.422,-139.671"/>
</g>
<!-- Node20 -->
<g id="node20" class="node"><title>Node20</title>
<polygon fill="none" stroke="#bfbfbf" points="821.415,-112.5 821.415,-131.5 865.415,-131.5 865.415,-112.5 821.415,-112.5"/>
<text text-anchor="middle" x="843.415" y="-119.5" font-family="Helvetica,sans-Serif" font-size="10.00">mutex</text>
</g>
<!-- Node18&#45;&gt;Node20 -->
<g id="edge31" class="edge"><title>Node18&#45;&gt;Node20</title>
<path fill="none" stroke="midnightblue" d="M676.459,-168.477C710.099,-159.504 764.516,-144.913 811.415,-132 811.516,-131.972 811.617,-131.944 811.718,-131.917"/>
<polygon fill="midnightblue" stroke="midnightblue" points="812.692,-135.279 821.39,-129.229 810.818,-128.534 812.692,-135.279"/>
</g>
<!-- Node21 -->
<g id="node21" class="node"><title>Node21</title>
<polygon fill="none" stroke="#bfbfbf" points="883.415,-112.5 883.415,-131.5 937.415,-131.5 937.415,-112.5 883.415,-112.5"/>
<text text-anchor="middle" x="910.415" y="-119.5" font-family="Helvetica,sans-Serif" font-size="10.00">iostream</text>
</g>
<!-- Node18&#45;&gt;Node21 -->
<g id="edge32" class="edge"><title>Node18&#45;&gt;Node21</title>
<path fill="none" stroke="midnightblue" d="M691.032,-168.47C737.394,-159.838 810.494,-145.828 873.415,-132 873.516,-131.978 873.617,-131.956 873.718,-131.933"/>
<polygon fill="midnightblue" stroke="midnightblue" points="874.402,-135.367 883.37,-129.726 872.841,-128.544 874.402,-135.367"/>
</g>
<!-- Node22 -->
<g id="node22" class="node"><title>Node22</title>
<polygon fill="none" stroke="#bfbfbf" points="955.915,-112.5 955.915,-131.5 1036.92,-131.5 1036.92,-112.5 955.915,-112.5"/>
<text text-anchor="middle" x="996.415" y="-119.5" font-family="Helvetica,sans-Serif" font-size="10.00">sys/resource.h</text>
</g>
<!-- Node18&#45;&gt;Node22 -->
<g id="edge36" class="edge"><title>Node18&#45;&gt;Node22</title>
<path fill="none" stroke="midnightblue" d="M705.236,-168.487C764.079,-160.126 856.044,-146.732 945.702,-132.075"/>
<polygon fill="midnightblue" stroke="midnightblue" points="946.473,-135.495 955.774,-130.421 945.339,-128.588 946.473,-135.495"/>
</g>
</g>
</svg>
        <g id="navigator" transform="translate(0 0)" fill="#404254">
                <rect fill="#f2f5e9" fill-opacity="0.5" stroke="#606060" stroke-width=".5" x="0" y="0" width="60" height="60"/>
                <use id="zoomplus" xlink:href="#zoomPlus" x="17" y="9" onmousedown="handleZoom(evt,'in')"/>
                <use id="zoomminus" xlink:href="#zoomMin" x="42" y="9" onmousedown="handleZoom(evt,'out')"/>
                <use id="reset" xlink:href="#resetDef" x="30" y="36" onmousedown="handleReset()"/>
                <g id="arrowUp" xlink:href="#dirArrow" transform="translate(30 24)" onmousedown="handlePan(0,-1)">
                  <use xlink:href="#rim" fill="#404040">
                        <set attributeName="fill" to="#808080" begin="arrowUp.mouseover" end="arrowUp.mouseout"/>
                  </use>
                  <path fill="none" stroke="white" stroke-width="1.5" d="M0,-3.0v7 M-2.5,-0.5L0,-3.0L2.5,-0.5"/>
                </g>
                <g id="arrowRight" xlink:href="#dirArrow" transform="rotate(90) translate(36 -43)" onmousedown="handlePan(1,0)">
                  <use xlink:href="#rim" fill="#404040">
                        <set attributeName="fill" to="#808080" begin="arrowRight.mouseover" end="arrowRight.mouseout"/>
                  </use>
                  <path fill="none" stroke="white" stroke-width="1.5" d="M0,-3.0v7 M-2.5,-0.5L0,-3.0L2.5,-0.5"/>
                </g>
                <g id="arrowDown" xlink:href="#dirArrow" transform="rotate(180) translate(-30 -48)" onmousedown="handlePan(0,1)">
                  <use xlink:href="#rim" fill="#404040">
                        <set attributeName="fill" to="#808080" begin="arrowDown.mouseover" end="arrowDown.mouseout"/>
                  </use>
                  <path fill="none" stroke="white" stroke-width="1.5" d="M0,-3.0v7 M-2.5,-0.5L0,-3.0L2.5,-0.5"/>
                </g>
                <g id="arrowLeft" xlink:href="#dirArrow" transform="rotate(270) translate(-36 17)" onmousedown="handlePan(-1,0)">
                  <use xlink:href="#rim" fill="#404040">
                        <set attributeName="fill" to="#808080" begin="arrowLeft.mouseover" end="arrowLeft.mouseout"/>
                  </use>
                  <path fill="none" stroke="white" stroke-width="1.5" d="M0,-3.0v7 M-2.5,-0.5L0,-3.0L2.5,-0.5"/>
                </g>
        </g>
        <svg viewBox="0 0 15 15" width="100%" height="30px" preserveAspectRatio="xMaxYMin meet">
         <g id="arrow_out" transform="scale(0.3 0.3)">
          <a xlink:href="10-Buffering_8cxx__incl_org.svg" target="_base">
           <rect id="button" ry="5" rx="5" y="6" x="6" height="38" width="38"
                fill="#f2f5e9" fill-opacity="0.5" stroke="#606060" stroke-width="1.0"/>
           <path id="arrow"
             d="M 11.500037,31.436501 C 11.940474,20.09759 22.043105,11.32322 32.158766,21.979434 L 37.068811,17.246167 C 37.068811,17.246167 37.088388,32 37.088388,32 L 22.160133,31.978069 C 22.160133,31.978069 26.997745,27.140456 26.997745,27.140456 C 18.528582,18.264221 13.291696,25.230495 11.500037,31.436501 z"
             style="fill:#404040;"/>
          </a>
         </g>
        </svg>
</svg>
