<?xml version="1.0" encoding="UTF-8" standalone="no"?>
<!DOCTYPE svg PUBLIC "-//W3C//DTD SVG 1.1//EN"
 "http://www.w3.org/Graphics/SVG/1.1/DTD/svg11.dtd">
<!-- Generated by graphviz version 2.36.0 (20140111.2315)
 -->
<!-- Title: o2::monitoring::transports::TCP Pages: 1 -->
<svg width="162pt" height="228pt"
 viewBox="0.00 0.00 162.00 228.00" xmlns="http://www.w3.org/2000/svg" xmlns:xlink="http://www.w3.org/1999/xlink">
<g id="graph0" class="graph" transform="scale(1 1) rotate(0) translate(4 224)">
<title>o2::monitoring::transports::TCP</title>
<!-- Node1 -->
<g id="node1" class="node"><title>Node1</title>
<polygon fill="#bfbfbf" stroke="black" points="0,-1 0,-91 154,-91 154,-1 0,-1"/>
<text text-anchor="middle" x="77" y="-79" font-family="Helvetica,sans-Serif" font-size="10.00">o2::monitoring::transports::TCP</text>
<polyline fill="none" stroke="black" points="0,-72 154,-72 "/>
<text text-anchor="middle" x="77" y="-60" font-family="Helvetica,sans-Serif" font-size="10.00"> </text>
<polyline fill="none" stroke="black" points="0,-53 154,-53 "/>
<text text-anchor="start" x="8" y="-41" font-family="Helvetica,sans-Serif" font-size="10.00">+ TCP()</text>
<text text-anchor="start" x="8" y="-30" font-family="Helvetica,sans-Serif" font-size="10.00">+ ~TCP()</text>
<text text-anchor="start" x="8" y="-19" font-family="Helvetica,sans-Serif" font-size="10.00">+ send()</text>
<text text-anchor="start" x="8" y="-8" font-family="Helvetica,sans-Serif" font-size="10.00">+ read()</text>
</g>
<!-- Node2 -->
<g id="node2" class="node"><title>Node2</title>
<g id="a_node2"><a xlink:href="../../d0/d57/classo2_1_1monitoring_1_1transports_1_1TransportInterface.html" target="_top" xlink:title="Transport interface for backends. ">
<polygon fill="none" stroke="black" points="13,-129 13,-219 141,-219 141,-129 13,-129"/>
<text text-anchor="start" x="21" y="-207" font-family="Helvetica,sans-Serif" font-size="10.00">o2::monitoring::transports</text>
<text text-anchor="middle" x="77" y="-196" font-family="Helvetica,sans-Serif" font-size="10.00">::TransportInterface</text>
<polyline fill="none" stroke="black" points="13,-189 141,-189 "/>
<text text-anchor="middle" x="77" y="-177" font-family="Helvetica,sans-Serif" font-size="10.00"> </text>
<polyline fill="none" stroke="black" points="13,-170 141,-170 "/>
<text text-anchor="start" x="21" y="-158" font-family="Helvetica,sans-Serif" font-size="10.00">+ TransportInterface()</text>
<text text-anchor="start" x="21" y="-147" font-family="Helvetica,sans-Serif" font-size="10.00">+ ~TransportInterface()</text>
<text text-anchor="start" x="21" y="-136" font-family="Helvetica,sans-Serif" font-size="10.00">+ send()</text>
</a>
</g>
</g>
<!-- Node2&#45;&gt;Node1 -->
<g id="edge1" class="edge"><title>Node2&#45;&gt;Node1</title>
<path fill="none" stroke="midnightblue" d="M77,-118.726C77,-109.556 77,-100.133 77,-91.2568"/>
<polygon fill="none" stroke="midnightblue" points="73.5001,-118.931 77,-128.931 80.5001,-118.931 73.5001,-118.931"/>
</g>
</g>
</svg>
