<?xml version="1.0" encoding="UTF-8" standalone="no"?>
<!DOCTYPE svg PUBLIC "-//W3C//DTD SVG 1.1//EN"
 "http://www.w3.org/Graphics/SVG/1.1/DTD/svg11.dtd">
<!-- Generated by graphviz version 2.36.0 (20140111.2315)
 -->
<!-- Title: /home/travis/build/AliceO2Group/Monitoring/test/testInfluxDb.cxx Pages: 1 -->
<svg width="802pt" height="330pt"
 viewBox="0.00 0.00 802.00 330.00" xmlns="http://www.w3.org/2000/svg" xmlns:xlink="http://www.w3.org/1999/xlink">
<g id="graph0" class="graph" transform="scale(1 1) rotate(0) translate(4 326)">
<title>/home/travis/build/AliceO2Group/Monitoring/test/testInfluxDb.cxx</title>
<!-- Node1 -->
<g id="node1" class="node"><title>Node1</title>
<polygon fill="#bfbfbf" stroke="black" points="301,-280.5 301,-321.5 429,-321.5 429,-280.5 301,-280.5"/>
<text text-anchor="start" x="309" y="-309.5" font-family="Helvetica,sans-Serif" font-size="10.00">/home/travis/build</text>
<text text-anchor="start" x="309" y="-298.5" font-family="Helvetica,sans-Serif" font-size="10.00">/AliceO2Group/Monitoring</text>
<text text-anchor="middle" x="365" y="-287.5" font-family="Helvetica,sans-Serif" font-size="10.00">/test/testInfluxDb.cxx</text>
</g>
<!-- Node2 -->
<g id="node2" class="node"><title>Node2</title>
<g id="a_node2"><a xlink:href="../../d7/d79/UriParser_8h.html" target="_top" xlink:title="../src/UriParser/UriParser.h">
<polygon fill="none" stroke="black" points="0,-168.5 0,-187.5 136,-187.5 136,-168.5 0,-168.5"/>
<text text-anchor="middle" x="68" y="-175.5" font-family="Helvetica,sans-Serif" font-size="10.00">../src/UriParser/UriParser.h</text>
</a>
</g>
</g>
<!-- Node1&#45;&gt;Node2 -->
<g id="edge1" class="edge"><title>Node1&#45;&gt;Node2</title>
<path fill="none" stroke="midnightblue" d="M316.952,-280.425C255.258,-255.29 150.019,-212.415 98.3879,-191.38"/>
<polygon fill="midnightblue" stroke="midnightblue" points="99.6806,-188.128 89.0992,-187.596 97.0395,-194.61 99.6806,-188.128"/>
</g>
<!-- Node6 -->
<g id="node6" class="node"><title>Node6</title>
<polygon fill="none" stroke="#bfbfbf" points="450.5,-224.5 450.5,-243.5 569.5,-243.5 569.5,-224.5 450.5,-224.5"/>
<text text-anchor="middle" x="510" y="-231.5" font-family="Helvetica,sans-Serif" font-size="10.00">boost/test/unit_test.hpp</text>
</g>
<!-- Node1&#45;&gt;Node6 -->
<g id="edge5" class="edge"><title>Node1&#45;&gt;Node6</title>
<path fill="none" stroke="midnightblue" d="M408.505,-280.498C432.125,-269.909 460.662,-257.117 481.453,-247.797"/>
<polygon fill="midnightblue" stroke="midnightblue" points="483.005,-250.937 490.698,-243.652 480.141,-244.549 483.005,-250.937"/>
</g>
<!-- Node7 -->
<g id="node7" class="node"><title>Node7</title>
<g id="a_node7"><a xlink:href="../../d1/d78/InfluxDB_8h.html" target="_top" xlink:title="../src/Backends/InfluxDB.h">
<polygon fill="none" stroke="black" points="297.5,-224.5 297.5,-243.5 432.5,-243.5 432.5,-224.5 297.5,-224.5"/>
<text text-anchor="middle" x="365" y="-231.5" font-family="Helvetica,sans-Serif" font-size="10.00">../src/Backends/InfluxDB.h</text>
</a>
</g>
</g>
<!-- Node1&#45;&gt;Node7 -->
<g id="edge6" class="edge"><title>Node1&#45;&gt;Node7</title>
<path fill="none" stroke="midnightblue" d="M365,-280.498C365,-272.065 365,-262.235 365,-253.874"/>
<polygon fill="midnightblue" stroke="midnightblue" points="368.5,-253.652 365,-243.652 361.5,-253.653 368.5,-253.652"/>
</g>
<!-- Node3 -->
<g id="node3" class="node"><title>Node3</title>
<polygon fill="none" stroke="#bfbfbf" points="192,-112.5 192,-131.5 246,-131.5 246,-112.5 192,-112.5"/>
<text text-anchor="middle" x="219" y="-119.5" font-family="Helvetica,sans-Serif" font-size="10.00">iostream</text>
</g>
<!-- Node2&#45;&gt;Node3 -->
<g id="edge2" class="edge"><title>Node2&#45;&gt;Node3</title>
<path fill="none" stroke="midnightblue" d="M91.9264,-168.444C117.219,-159.399 157.302,-145.064 185.68,-134.916"/>
<polygon fill="midnightblue" stroke="midnightblue" points="186.948,-138.179 195.186,-131.516 184.591,-131.588 186.948,-138.179"/>
</g>
<!-- Node4 -->
<g id="node4" class="node"><title>Node4</title>
<polygon fill="none" stroke="#bfbfbf" points="439.5,-0.5 439.5,-19.5 480.5,-19.5 480.5,-0.5 439.5,-0.5"/>
<text text-anchor="middle" x="460" y="-7.5" font-family="Helvetica,sans-Serif" font-size="10.00">string</text>
</g>
<!-- Node2&#45;&gt;Node4 -->
<g id="edge3" class="edge"><title>Node2&#45;&gt;Node4</title>
<path fill="none" stroke="midnightblue" d="M67.0177,-168.385C65.9617,-154.864 65.9233,-128.507 79,-112 123.168,-56.2454 346.85,-24.4393 429.367,-14.4534"/>
<polygon fill="midnightblue" stroke="midnightblue" points="429.859,-17.9197 439.377,-13.2659 429.034,-10.9684 429.859,-17.9197"/>
</g>
<!-- Node5 -->
<g id="node5" class="node"><title>Node5</title>
<polygon fill="none" stroke="#bfbfbf" points="88,-112.5 88,-131.5 136,-131.5 136,-112.5 88,-112.5"/>
<text text-anchor="middle" x="112" y="-119.5" font-family="Helvetica,sans-Serif" font-size="10.00">stdlib.h</text>
</g>
<!-- Node2&#45;&gt;Node5 -->
<g id="edge4" class="edge"><title>Node2&#45;&gt;Node5</title>
<path fill="none" stroke="midnightblue" d="M75.2657,-168.083C81.5448,-160.377 90.7876,-149.033 98.4308,-139.653"/>
<polygon fill="midnightblue" stroke="midnightblue" points="101.266,-141.714 104.869,-131.751 95.8394,-137.293 101.266,-141.714"/>
</g>
<!-- Node7&#45;&gt;Node4 -->
<g id="edge24" class="edge"><title>Node7&#45;&gt;Node4</title>
<path fill="none" stroke="midnightblue" d="M419.231,-224.439C446.765,-217.987 479.483,-206.882 504,-188 548.412,-153.796 551.569,-131.077 562,-76 563.654,-67.2664 566.854,-63.4466 562,-56 546.349,-31.9883 514.674,-20.6985 490.751,-15.4471"/>
<polygon fill="midnightblue" stroke="midnightblue" points="491.201,-11.9691 480.716,-13.4908 489.862,-18.8398 491.201,-11.9691"/>
</g>
<!-- Node8 -->
<g id="node8" class="node"><title>Node8</title>
<g id="a_node8"><a xlink:href="../../df/d83/Backend_8h.html" target="_top" xlink:title="Monitoring/Backend.h">
<polygon fill="none" stroke="black" points="384.5,-168.5 384.5,-187.5 495.5,-187.5 495.5,-168.5 384.5,-168.5"/>
<text text-anchor="middle" x="440" y="-175.5" font-family="Helvetica,sans-Serif" font-size="10.00">Monitoring/Backend.h</text>
</a>
</g>
</g>
<!-- Node7&#45;&gt;Node8 -->
<g id="edge7" class="edge"><title>Node7&#45;&gt;Node8</title>
<path fill="none" stroke="midnightblue" d="M377.05,-224.324C388.463,-216.107 405.831,-203.602 419.435,-193.807"/>
<polygon fill="midnightblue" stroke="midnightblue" points="421.66,-196.517 427.731,-187.834 417.57,-190.837 421.66,-196.517"/>
</g>
<!-- Node9 -->
<g id="node9" class="node"><title>Node9</title>
<polygon fill="none" stroke="#bfbfbf" points="221,-56.5 221,-75.5 267,-75.5 267,-56.5 221,-56.5"/>
<text text-anchor="middle" x="244" y="-63.5" font-family="Helvetica,sans-Serif" font-size="10.00">chrono</text>
</g>
<!-- Node7&#45;&gt;Node9 -->
<g id="edge23" class="edge"><title>Node7&#45;&gt;Node9</title>
<path fill="none" stroke="midnightblue" d="M320.771,-224.486C274.754,-212.818 206.229,-186.718 183,-132 179.526,-123.818 178.993,-119.935 183,-112 189.807,-98.5199 202.768,-88.083 214.998,-80.6696"/>
<polygon fill="midnightblue" stroke="midnightblue" points="217.07,-83.5214 224.094,-75.5896 213.657,-77.4099 217.07,-83.5214"/>
</g>
<!-- Node14 -->
<g id="node14" class="node"><title>Node14</title>
<g id="a_node14"><a xlink:href="../../de/dac/TransportInterface_8h.html" target="_top" xlink:title="../Transports/TransportInterface.h">
<polygon fill="none" stroke="black" points="631.5,-168.5 631.5,-187.5 794.5,-187.5 794.5,-168.5 631.5,-168.5"/>
<text text-anchor="middle" x="713" y="-175.5" font-family="Helvetica,sans-Serif" font-size="10.00">../Transports/TransportInterface.h</text>
</a>
</g>
</g>
<!-- Node7&#45;&gt;Node14 -->
<g id="edge17" class="edge"><title>Node7&#45;&gt;Node14</title>
<path fill="none" stroke="midnightblue" d="M420.142,-224.444C481.995,-214.846 582.232,-199.292 647.887,-189.104"/>
<polygon fill="midnightblue" stroke="midnightblue" points="648.771,-192.508 658.116,-187.516 647.698,-185.591 648.771,-192.508"/>
</g>
<!-- Node15 -->
<g id="node15" class="node"><title>Node15</title>
<g id="a_node15"><a xlink:href="../../df/de7/MonLogger_8h.html" target="_top" xlink:title="../MonLogger.h">
<polygon fill="none" stroke="black" points="250,-168.5 250,-187.5 332,-187.5 332,-168.5 250,-168.5"/>
<text text-anchor="middle" x="291" y="-175.5" font-family="Helvetica,sans-Serif" font-size="10.00">../MonLogger.h</text>
</a>
</g>
</g>
<!-- Node7&#45;&gt;Node15 -->
<g id="edge19" class="edge"><title>Node7&#45;&gt;Node15</title>
<path fill="none" stroke="midnightblue" d="M353.111,-224.324C341.85,-216.107 324.713,-203.602 311.291,-193.807"/>
<polygon fill="midnightblue" stroke="midnightblue" points="313.247,-190.901 303.106,-187.834 309.12,-196.556 313.247,-190.901"/>
</g>
<!-- Node8&#45;&gt;Node4 -->
<g id="edge9" class="edge"><title>Node8&#45;&gt;Node4</title>
<path fill="none" stroke="midnightblue" d="M461.464,-168.447C478.26,-160.888 501.322,-148.5 517,-132 536.307,-111.682 539.367,-103.232 546,-76 548.104,-67.3636 550.603,-63.6041 546,-56 533.961,-36.1136 509.924,-24.5923 490.315,-18.1954"/>
<polygon fill="midnightblue" stroke="midnightblue" points="491.134,-14.7878 480.552,-15.3002 489.144,-21.4989 491.134,-14.7878"/>
</g>
<!-- Node8&#45;&gt;Node9 -->
<g id="edge8" class="edge"><title>Node8&#45;&gt;Node9</title>
<path fill="none" stroke="midnightblue" d="M431.468,-168.373C417.692,-154.838 389.233,-128.46 361,-112 334.349,-96.4626 301.34,-84.3348 277.186,-76.6045"/>
<polygon fill="midnightblue" stroke="midnightblue" points="278.008,-73.195 267.42,-73.5636 275.927,-79.8785 278.008,-73.195"/>
</g>
<!-- Node10 -->
<g id="node10" class="node"><title>Node10</title>
<g id="a_node10"><a xlink:href="../../d9/d92/Metric_8h.html" target="_top" xlink:title="Monitoring/Metric.h">
<polygon fill="none" stroke="black" points="408,-112.5 408,-131.5 508,-131.5 508,-112.5 408,-112.5"/>
<text text-anchor="middle" x="458" y="-119.5" font-family="Helvetica,sans-Serif" font-size="10.00">Monitoring/Metric.h</text>
</a>
</g>
</g>
<!-- Node8&#45;&gt;Node10 -->
<g id="edge10" class="edge"><title>Node8&#45;&gt;Node10</title>
<path fill="none" stroke="midnightblue" d="M442.972,-168.083C445.384,-160.849 448.864,-150.409 451.868,-141.397"/>
<polygon fill="midnightblue" stroke="midnightblue" points="455.241,-142.345 455.083,-131.751 448.6,-140.131 455.241,-142.345"/>
</g>
<!-- Node10&#45;&gt;Node4 -->
<g id="edge11" class="edge"><title>Node10&#45;&gt;Node4</title>
<path fill="none" stroke="midnightblue" d="M428.819,-112.446C398.658,-101.978 358.053,-82.3431 374,-56 386.039,-36.1136 410.076,-24.5923 429.685,-18.1954"/>
<polygon fill="midnightblue" stroke="midnightblue" points="430.856,-21.4989 439.448,-15.3002 428.866,-14.7878 430.856,-21.4989"/>
</g>
<!-- Node10&#45;&gt;Node9 -->
<g id="edge12" class="edge"><title>Node10&#45;&gt;Node9</title>
<path fill="none" stroke="midnightblue" d="M422,-112.456C387.234,-104.125 332.864,-90.8909 276.793,-76.1495"/>
<polygon fill="midnightblue" stroke="midnightblue" points="277.61,-72.7454 267.048,-73.5766 275.823,-79.5135 277.61,-72.7454"/>
</g>
<!-- Node11 -->
<g id="node11" class="node"><title>Node11</title>
<polygon fill="none" stroke="#bfbfbf" points="383,-56.5 383,-75.5 427,-75.5 427,-56.5 383,-56.5"/>
<text text-anchor="middle" x="405" y="-63.5" font-family="Helvetica,sans-Serif" font-size="10.00">vector</text>
</g>
<!-- Node10&#45;&gt;Node11 -->
<g id="edge13" class="edge"><title>Node10&#45;&gt;Node11</title>
<path fill="none" stroke="midnightblue" d="M449.248,-112.083C441.53,-104.22 430.095,-92.5688 420.783,-83.0813"/>
<polygon fill="midnightblue" stroke="midnightblue" points="423.092,-80.4363 413.589,-75.7511 418.096,-85.3396 423.092,-80.4363"/>
</g>
<!-- Node12 -->
<g id="node12" class="node"><title>Node12</title>
<polygon fill="none" stroke="#bfbfbf" points="445,-56.5 445,-75.5 537,-75.5 537,-56.5 445,-56.5"/>
<text text-anchor="middle" x="491" y="-63.5" font-family="Helvetica,sans-Serif" font-size="10.00">boost/variant.hpp</text>
</g>
<!-- Node10&#45;&gt;Node12 -->
<g id="edge14" class="edge"><title>Node10&#45;&gt;Node12</title>
<path fill="none" stroke="midnightblue" d="M463.449,-112.083C468.014,-104.613 474.668,-93.7244 480.293,-84.5199"/>
<polygon fill="midnightblue" stroke="midnightblue" points="483.424,-86.109 485.652,-75.7511 477.451,-82.4588 483.424,-86.109"/>
</g>
<!-- Node13 -->
<g id="node13" class="node"><title>Node13</title>
<g id="a_node13"><a xlink:href="../../d9/d33/Tag_8h.html" target="_top" xlink:title="Tag.h">
<polygon fill="none" stroke="black" points="285.5,-56.5 285.5,-75.5 326.5,-75.5 326.5,-56.5 285.5,-56.5"/>
<text text-anchor="middle" x="306" y="-63.5" font-family="Helvetica,sans-Serif" font-size="10.00">Tag.h</text>
</a>
</g>
</g>
<!-- Node10&#45;&gt;Node13 -->
<g id="edge15" class="edge"><title>Node10&#45;&gt;Node13</title>
<path fill="none" stroke="midnightblue" d="M433.915,-112.444C407.407,-103.026 364.758,-87.8746 336.074,-77.6842"/>
<polygon fill="midnightblue" stroke="midnightblue" points="337.155,-74.3538 326.56,-74.3042 334.811,-80.9499 337.155,-74.3538"/>
</g>
<!-- Node13&#45;&gt;Node4 -->
<g id="edge16" class="edge"><title>Node13&#45;&gt;Node4</title>
<path fill="none" stroke="midnightblue" d="M326.769,-57.7173C353.176,-48.4578 398.983,-32.3955 429.395,-21.7316"/>
<polygon fill="midnightblue" stroke="midnightblue" points="430.79,-24.9516 439.068,-18.3398 428.473,-18.3459 430.79,-24.9516"/>
</g>
<!-- Node14&#45;&gt;Node4 -->
<g id="edge18" class="edge"><title>Node14&#45;&gt;Node4</title>
<path fill="none" stroke="midnightblue" d="M708.698,-168.471C697.097,-146.349 662.913,-86.7159 617,-56 578.191,-30.0363 524.345,-18.8551 490.867,-14.1818"/>
<polygon fill="midnightblue" stroke="midnightblue" points="491.122,-10.686 480.758,-12.8827 490.23,-17.6289 491.122,-10.686"/>
</g>
<!-- Node15&#45;&gt;Node3 -->
<g id="edge22" class="edge"><title>Node15&#45;&gt;Node3</title>
<path fill="none" stroke="midnightblue" d="M279.432,-168.324C268.58,-160.185 252.119,-147.839 239.117,-138.087"/>
<polygon fill="midnightblue" stroke="midnightblue" points="240.879,-135.034 230.779,-131.834 236.679,-140.634 240.879,-135.034"/>
</g>
<!-- Node15&#45;&gt;Node9 -->
<g id="edge20" class="edge"><title>Node15&#45;&gt;Node9</title>
<path fill="none" stroke="midnightblue" d="M287.312,-168.368C279.659,-150.456 261.913,-108.923 251.669,-84.9482"/>
<polygon fill="midnightblue" stroke="midnightblue" points="254.819,-83.412 247.671,-75.5914 248.382,-86.1624 254.819,-83.412"/>
</g>
<!-- Node16 -->
<g id="node16" class="node"><title>Node16</title>
<polygon fill="none" stroke="#bfbfbf" points="302,-112.5 302,-131.5 352,-131.5 352,-112.5 302,-112.5"/>
<text text-anchor="middle" x="327" y="-119.5" font-family="Helvetica,sans-Serif" font-size="10.00">iomanip</text>
</g>
<!-- Node15&#45;&gt;Node16 -->
<g id="edge21" class="edge"><title>Node15&#45;&gt;Node16</title>
<path fill="none" stroke="midnightblue" d="M296.945,-168.083C301.977,-160.534 309.337,-149.495 315.513,-140.23"/>
<polygon fill="midnightblue" stroke="midnightblue" points="318.531,-142.013 321.166,-131.751 312.707,-138.13 318.531,-142.013"/>
</g>
</g>
</svg>
