<?xml version="1.0" encoding="UTF-8" standalone="no"?>
<!DOCTYPE svg PUBLIC "-//W3C//DTD SVG 1.1//EN"
 "http://www.w3.org/Graphics/SVG/1.1/DTD/svg11.dtd">
<!-- Generated by graphviz version 2.36.0 (20140111.2315)
 -->
<!-- Title: /home/travis/build/AliceO2Group/Monitoring/include/Monitoring/DerivedMetrics.h Pages: 1 -->
<svg width="532pt" height="218pt"
 viewBox="0.00 0.00 532.00 218.00" xmlns="http://www.w3.org/2000/svg" xmlns:xlink="http://www.w3.org/1999/xlink">
<g id="graph0" class="graph" transform="scale(1 1) rotate(0) translate(4 214)">
<title>/home/travis/build/AliceO2Group/Monitoring/include/Monitoring/DerivedMetrics.h</title>
<!-- Node1 -->
<g id="node1" class="node"><title>Node1</title>
<polygon fill="#bfbfbf" stroke="black" points="93,-168.5 93,-209.5 269,-209.5 269,-168.5 93,-168.5"/>
<text text-anchor="start" x="101" y="-197.5" font-family="Helvetica,sans-Serif" font-size="10.00">/home/travis/build</text>
<text text-anchor="start" x="101" y="-186.5" font-family="Helvetica,sans-Serif" font-size="10.00">/AliceO2Group/Monitoring</text>
<text text-anchor="middle" x="181" y="-175.5" font-family="Helvetica,sans-Serif" font-size="10.00">/include/Monitoring/DerivedMetrics.h</text>
</g>
<!-- Node2 -->
<g id="node2" class="node"><title>Node2</title>
<polygon fill="none" stroke="#bfbfbf" points="-0.5,-112.5 -0.5,-131.5 82.5,-131.5 82.5,-112.5 -0.5,-112.5"/>
<text text-anchor="middle" x="41" y="-119.5" font-family="Helvetica,sans-Serif" font-size="10.00">unordered_map</text>
</g>
<!-- Node1&#45;&gt;Node2 -->
<g id="edge1" class="edge"><title>Node1&#45;&gt;Node2</title>
<path fill="none" stroke="midnightblue" d="M138.995,-168.498C116.292,-157.957 88.8856,-145.233 68.8352,-135.923"/>
<polygon fill="midnightblue" stroke="midnightblue" points="70.1801,-132.689 59.6361,-131.652 67.2323,-139.038 70.1801,-132.689"/>
</g>
<!-- Node3 -->
<g id="node3" class="node"><title>Node3</title>
<polygon fill="none" stroke="#bfbfbf" points="101,-112.5 101,-131.5 153,-131.5 153,-112.5 101,-112.5"/>
<text text-anchor="middle" x="127" y="-119.5" font-family="Helvetica,sans-Serif" font-size="10.00">memory</text>
</g>
<!-- Node1&#45;&gt;Node3 -->
<g id="edge2" class="edge"><title>Node1&#45;&gt;Node3</title>
<path fill="none" stroke="midnightblue" d="M164.798,-168.498C157.076,-159.203 147.943,-148.21 140.59,-139.358"/>
<polygon fill="midnightblue" stroke="midnightblue" points="143.271,-137.108 134.188,-131.652 137.886,-141.581 143.271,-137.108"/>
</g>
<!-- Node4 -->
<g id="node4" class="node"><title>Node4</title>
<polygon fill="none" stroke="#bfbfbf" points="260.5,-0.5 260.5,-19.5 301.5,-19.5 301.5,-0.5 260.5,-0.5"/>
<text text-anchor="middle" x="281" y="-7.5" font-family="Helvetica,sans-Serif" font-size="10.00">string</text>
</g>
<!-- Node1&#45;&gt;Node4 -->
<g id="edge3" class="edge"><title>Node1&#45;&gt;Node4</title>
<path fill="none" stroke="midnightblue" d="M178.704,-168.156C176.565,-140.497 176.617,-89.9362 200,-56 211.979,-38.6146 232.965,-27.2278 250.573,-20.2584"/>
<polygon fill="midnightblue" stroke="midnightblue" points="252.262,-23.3681 260.457,-16.6535 249.864,-16.7919 252.262,-23.3681"/>
</g>
<!-- Node5 -->
<g id="node5" class="node"><title>Node5</title>
<polygon fill="none" stroke="#bfbfbf" points="209,-56.5 209,-75.5 253,-75.5 253,-56.5 209,-56.5"/>
<text text-anchor="middle" x="231" y="-63.5" font-family="Helvetica,sans-Serif" font-size="10.00">vector</text>
</g>
<!-- Node1&#45;&gt;Node5 -->
<g id="edge4" class="edge"><title>Node1&#45;&gt;Node5</title>
<path fill="none" stroke="midnightblue" d="M189.145,-168.29C198.7,-145.166 214.405,-107.16 223.618,-84.8641"/>
<polygon fill="midnightblue" stroke="midnightblue" points="226.872,-86.1535 227.457,-75.5748 220.403,-83.4802 226.872,-86.1535"/>
</g>
<!-- Node6 -->
<g id="node6" class="node"><title>Node6</title>
<g id="a_node6"><a xlink:href="../../d9/d92/Metric_8h.html" target="_top" xlink:title="Monitoring/Metric.h">
<polygon fill="none" stroke="black" points="271,-112.5 271,-131.5 371,-131.5 371,-112.5 271,-112.5"/>
<text text-anchor="middle" x="321" y="-119.5" font-family="Helvetica,sans-Serif" font-size="10.00">Monitoring/Metric.h</text>
</a>
</g>
</g>
<!-- Node1&#45;&gt;Node6 -->
<g id="edge5" class="edge"><title>Node1&#45;&gt;Node6</title>
<path fill="none" stroke="midnightblue" d="M223.005,-168.498C245.708,-157.957 273.114,-145.233 293.165,-135.923"/>
<polygon fill="midnightblue" stroke="midnightblue" points="294.768,-139.038 302.364,-131.652 291.82,-132.689 294.768,-139.038"/>
</g>
<!-- Node6&#45;&gt;Node4 -->
<g id="edge6" class="edge"><title>Node6&#45;&gt;Node4</title>
<path fill="none" stroke="midnightblue" d="M316.408,-112.207C311.853,-103.259 304.866,-88.9074 300,-76 294.168,-60.5296 289.01,-42.4418 285.545,-29.2804"/>
<polygon fill="midnightblue" stroke="midnightblue" points="288.925,-28.3695 283.056,-19.5491 282.143,-30.1046 288.925,-28.3695"/>
</g>
<!-- Node6&#45;&gt;Node5 -->
<g id="edge8" class="edge"><title>Node6&#45;&gt;Node5</title>
<path fill="none" stroke="midnightblue" d="M306.54,-112.324C292.5,-103.9 270.952,-90.9709 254.457,-81.0741"/>
<polygon fill="midnightblue" stroke="midnightblue" points="255.8,-77.7983 245.424,-75.6545 252.198,-83.8007 255.8,-77.7983"/>
</g>
<!-- Node7 -->
<g id="node7" class="node"><title>Node7</title>
<polygon fill="none" stroke="#bfbfbf" points="309,-56.5 309,-75.5 355,-75.5 355,-56.5 309,-56.5"/>
<text text-anchor="middle" x="332" y="-63.5" font-family="Helvetica,sans-Serif" font-size="10.00">chrono</text>
</g>
<!-- Node6&#45;&gt;Node7 -->
<g id="edge7" class="edge"><title>Node6&#45;&gt;Node7</title>
<path fill="none" stroke="midnightblue" d="M322.816,-112.083C324.274,-104.927 326.371,-94.6353 328.193,-85.6911"/>
<polygon fill="midnightblue" stroke="midnightblue" points="331.651,-86.2485 330.217,-75.7511 324.792,-84.8512 331.651,-86.2485"/>
</g>
<!-- Node8 -->
<g id="node8" class="node"><title>Node8</title>
<polygon fill="none" stroke="#bfbfbf" points="373,-56.5 373,-75.5 465,-75.5 465,-56.5 373,-56.5"/>
<text text-anchor="middle" x="419" y="-63.5" font-family="Helvetica,sans-Serif" font-size="10.00">boost/variant.hpp</text>
</g>
<!-- Node6&#45;&gt;Node8 -->
<g id="edge9" class="edge"><title>Node6&#45;&gt;Node8</title>
<path fill="none" stroke="midnightblue" d="M336.745,-112.324C352.319,-103.743 376.377,-90.486 394.459,-80.5224"/>
<polygon fill="midnightblue" stroke="midnightblue" points="396.224,-83.546 403.294,-75.6545 392.846,-77.4152 396.224,-83.546"/>
</g>
<!-- Node9 -->
<g id="node9" class="node"><title>Node9</title>
<g id="a_node9"><a xlink:href="../../d9/d33/Tag_8h.html" target="_top" xlink:title="Tag.h">
<polygon fill="none" stroke="black" points="483.5,-56.5 483.5,-75.5 524.5,-75.5 524.5,-56.5 483.5,-56.5"/>
<text text-anchor="middle" x="504" y="-63.5" font-family="Helvetica,sans-Serif" font-size="10.00">Tag.h</text>
</a>
</g>
</g>
<!-- Node6&#45;&gt;Node9 -->
<g id="edge10" class="edge"><title>Node6&#45;&gt;Node9</title>
<path fill="none" stroke="midnightblue" d="M350.345,-112.42C379.229,-103.964 424.846,-90.5791 473.566,-76.1173"/>
<polygon fill="midnightblue" stroke="midnightblue" points="474.758,-79.4144 483.348,-73.2117 472.765,-72.7042 474.758,-79.4144"/>
</g>
<!-- Node9&#45;&gt;Node4 -->
<g id="edge11" class="edge"><title>Node9&#45;&gt;Node4</title>
<path fill="none" stroke="midnightblue" d="M483.391,-58.6331C480.254,-57.7174 477.048,-56.8116 474,-56 417.019,-40.8258 349.83,-25.8001 311.64,-17.5252"/>
<polygon fill="midnightblue" stroke="midnightblue" points="312.183,-14.062 301.67,-15.3758 310.708,-20.9047 312.183,-14.062"/>
</g>
</g>
</svg>
