<?xml version="1.0" encoding="UTF-8" standalone="no"?>
<!DOCTYPE svg PUBLIC "-//W3C//DTD SVG 1.1//EN"
 "http://www.w3.org/Graphics/SVG/1.1/DTD/svg11.dtd">
<!-- Generated by graphviz version 2.36.0 (20140111.2315)
 -->
<!-- Title: /home/travis/build/AliceO2Group/Monitoring/src/Metric.cxx Pages: 1 -->
<svg width="323pt" height="218pt"
 viewBox="0.00 0.00 323.00 218.00" xmlns="http://www.w3.org/2000/svg" xmlns:xlink="http://www.w3.org/1999/xlink">
<g id="graph0" class="graph" transform="scale(1 1) rotate(0) translate(4 214)">
<title>/home/travis/build/AliceO2Group/Monitoring/src/Metric.cxx</title>
<!-- Node1 -->
<g id="node1" class="node"><title>Node1</title>
<polygon fill="#bfbfbf" stroke="black" points="101,-168.5 101,-209.5 229,-209.5 229,-168.5 101,-168.5"/>
<text text-anchor="start" x="109" y="-197.5" font-family="Helvetica,sans-Serif" font-size="10.00">/home/travis/build</text>
<text text-anchor="start" x="109" y="-186.5" font-family="Helvetica,sans-Serif" font-size="10.00">/AliceO2Group/Monitoring</text>
<text text-anchor="middle" x="165" y="-175.5" font-family="Helvetica,sans-Serif" font-size="10.00">/src/Metric.cxx</text>
</g>
<!-- Node2 -->
<g id="node2" class="node"><title>Node2</title>
<g id="a_node2"><a xlink:href="../../d9/d92/Metric_8h.html" target="_top" xlink:title="Monitoring/Metric.h">
<polygon fill="none" stroke="black" points="68,-112.5 68,-131.5 168,-131.5 168,-112.5 68,-112.5"/>
<text text-anchor="middle" x="118" y="-119.5" font-family="Helvetica,sans-Serif" font-size="10.00">Monitoring/Metric.h</text>
</a>
</g>
</g>
<!-- Node1&#45;&gt;Node2 -->
<g id="edge1" class="edge"><title>Node1&#45;&gt;Node2</title>
<path fill="none" stroke="midnightblue" d="M150.898,-168.498C144.316,-159.395 136.556,-148.662 130.226,-139.908"/>
<polygon fill="midnightblue" stroke="midnightblue" points="132.952,-137.705 124.256,-131.652 127.28,-141.807 132.952,-137.705"/>
</g>
<!-- Node4 -->
<g id="node4" class="node"><title>Node4</title>
<polygon fill="none" stroke="#bfbfbf" points="0,-56.5 0,-75.5 46,-75.5 46,-56.5 0,-56.5"/>
<text text-anchor="middle" x="23" y="-63.5" font-family="Helvetica,sans-Serif" font-size="10.00">chrono</text>
</g>
<!-- Node1&#45;&gt;Node4 -->
<g id="edge9" class="edge"><title>Node1&#45;&gt;Node4</title>
<path fill="none" stroke="midnightblue" d="M113.886,-168.374C95.0446,-159.353 74.5305,-147.227 59,-132 45.494,-118.758 35.6495,-99.362 29.7029,-85.2051"/>
<polygon fill="midnightblue" stroke="midnightblue" points="32.8378,-83.6133 25.9191,-75.5893 26.3239,-86.1764 32.8378,-83.6133"/>
</g>
<!-- Node8 -->
<g id="node8" class="node"><title>Node8</title>
<polygon fill="none" stroke="#bfbfbf" points="186,-112.5 186,-131.5 240,-131.5 240,-112.5 186,-112.5"/>
<text text-anchor="middle" x="213" y="-119.5" font-family="Helvetica,sans-Serif" font-size="10.00">iostream</text>
</g>
<!-- Node1&#45;&gt;Node8 -->
<g id="edge8" class="edge"><title>Node1&#45;&gt;Node8</title>
<path fill="none" stroke="midnightblue" d="M179.402,-168.498C186.124,-159.395 194.049,-148.662 200.514,-139.908"/>
<polygon fill="midnightblue" stroke="midnightblue" points="203.486,-141.776 206.61,-131.652 197.854,-137.618 203.486,-141.776"/>
</g>
<!-- Node9 -->
<g id="node9" class="node"><title>Node9</title>
<polygon fill="none" stroke="#bfbfbf" points="258,-112.5 258,-131.5 310,-131.5 310,-112.5 258,-112.5"/>
<text text-anchor="middle" x="284" y="-119.5" font-family="Helvetica,sans-Serif" font-size="10.00">memory</text>
</g>
<!-- Node1&#45;&gt;Node9 -->
<g id="edge10" class="edge"><title>Node1&#45;&gt;Node9</title>
<path fill="none" stroke="midnightblue" d="M200.704,-168.498C219.475,-158.245 242.03,-145.925 258.932,-136.693"/>
<polygon fill="midnightblue" stroke="midnightblue" points="261.061,-139.518 268.159,-131.652 257.705,-133.375 261.061,-139.518"/>
</g>
<!-- Node3 -->
<g id="node3" class="node"><title>Node3</title>
<polygon fill="none" stroke="#bfbfbf" points="163.5,-0.5 163.5,-19.5 204.5,-19.5 204.5,-0.5 163.5,-0.5"/>
<text text-anchor="middle" x="184" y="-7.5" font-family="Helvetica,sans-Serif" font-size="10.00">string</text>
</g>
<!-- Node2&#45;&gt;Node3 -->
<g id="edge2" class="edge"><title>Node2&#45;&gt;Node3</title>
<path fill="none" stroke="midnightblue" d="M109.662,-112.103C98.542,-99.112 81.5177,-74.4876 93,-56 106.186,-34.7701 132.683,-23.2525 153.7,-17.2013"/>
<polygon fill="midnightblue" stroke="midnightblue" points="154.7,-20.5579 163.495,-14.6513 152.936,-13.7837 154.7,-20.5579"/>
</g>
<!-- Node2&#45;&gt;Node4 -->
<g id="edge3" class="edge"><title>Node2&#45;&gt;Node4</title>
<path fill="none" stroke="midnightblue" d="M102.737,-112.324C87.7786,-103.822 64.7452,-90.7288 47.2733,-80.7975"/>
<polygon fill="midnightblue" stroke="midnightblue" points="48.6488,-77.5534 38.2255,-75.6545 45.1896,-83.639 48.6488,-77.5534"/>
</g>
<!-- Node5 -->
<g id="node5" class="node"><title>Node5</title>
<polygon fill="none" stroke="#bfbfbf" points="102,-56.5 102,-75.5 146,-75.5 146,-56.5 102,-56.5"/>
<text text-anchor="middle" x="124" y="-63.5" font-family="Helvetica,sans-Serif" font-size="10.00">vector</text>
</g>
<!-- Node2&#45;&gt;Node5 -->
<g id="edge4" class="edge"><title>Node2&#45;&gt;Node5</title>
<path fill="none" stroke="midnightblue" d="M118.991,-112.083C119.786,-104.927 120.929,-94.6353 121.923,-85.6911"/>
<polygon fill="midnightblue" stroke="midnightblue" points="125.402,-86.0765 123.028,-75.7511 118.445,-85.3034 125.402,-86.0765"/>
</g>
<!-- Node6 -->
<g id="node6" class="node"><title>Node6</title>
<polygon fill="none" stroke="#bfbfbf" points="164,-56.5 164,-75.5 256,-75.5 256,-56.5 164,-56.5"/>
<text text-anchor="middle" x="210" y="-63.5" font-family="Helvetica,sans-Serif" font-size="10.00">boost/variant.hpp</text>
</g>
<!-- Node2&#45;&gt;Node6 -->
<g id="edge5" class="edge"><title>Node2&#45;&gt;Node6</title>
<path fill="none" stroke="midnightblue" d="M132.781,-112.324C147.267,-103.822 169.573,-90.7288 186.493,-80.7975"/>
<polygon fill="midnightblue" stroke="midnightblue" points="188.403,-83.735 195.255,-75.6545 184.859,-77.6981 188.403,-83.735"/>
</g>
<!-- Node7 -->
<g id="node7" class="node"><title>Node7</title>
<g id="a_node7"><a xlink:href="../../d9/d33/Tag_8h.html" target="_top" xlink:title="Tag.h">
<polygon fill="none" stroke="black" points="274.5,-56.5 274.5,-75.5 315.5,-75.5 315.5,-56.5 274.5,-56.5"/>
<text text-anchor="middle" x="295" y="-63.5" font-family="Helvetica,sans-Serif" font-size="10.00">Tag.h</text>
</a>
</g>
</g>
<!-- Node2&#45;&gt;Node7 -->
<g id="edge6" class="edge"><title>Node2&#45;&gt;Node7</title>
<path fill="none" stroke="midnightblue" d="M146.046,-112.444C178.379,-102.579 231.332,-86.424 264.62,-76.2685"/>
<polygon fill="midnightblue" stroke="midnightblue" points="265.731,-79.5888 274.275,-73.323 263.689,-72.8934 265.731,-79.5888"/>
</g>
<!-- Node7&#45;&gt;Node3 -->
<g id="edge7" class="edge"><title>Node7&#45;&gt;Node3</title>
<path fill="none" stroke="midnightblue" d="M277.166,-56.324C259.284,-47.6247 231.525,-34.1202 210.954,-24.113"/>
<polygon fill="midnightblue" stroke="midnightblue" points="212.313,-20.8819 201.79,-19.6545 209.251,-27.1765 212.313,-20.8819"/>
</g>
</g>
</svg>
