<?xml version="1.0" encoding="UTF-8" standalone="no"?>
<!DOCTYPE svg PUBLIC "-//W3C//DTD SVG 1.1//EN"
 "http://www.w3.org/Graphics/SVG/1.1/DTD/svg11.dtd">
<!-- Generated by graphviz version 2.36.0 (20140111.2315)
 -->
<!-- Title: /home/travis/build/AliceO2Group/Monitoring/src/Exceptions/MonitoringInternalException.h Pages: 1 -->
<svg width="1212pt" height="152pt"
 viewBox="0.00 0.00 1212.00 152.00" xmlns="http://www.w3.org/2000/svg" xmlns:xlink="http://www.w3.org/1999/xlink">
<g id="graph0" class="graph" transform="scale(1 1) rotate(0) translate(4 148)">
<title>/home/travis/build/AliceO2Group/Monitoring/src/Exceptions/MonitoringInternalException.h</title>
<!-- Node1 -->
<g id="node1" class="node"><title>Node1</title>
<polygon fill="#bfbfbf" stroke="black" points="542.5,-91 542.5,-143 707.5,-143 707.5,-91 542.5,-91"/>
<text text-anchor="start" x="550.5" y="-131" font-family="Helvetica,sans-Serif" font-size="10.00">/home/travis/build</text>
<text text-anchor="start" x="550.5" y="-120" font-family="Helvetica,sans-Serif" font-size="10.00">/AliceO2Group/Monitoring</text>
<text text-anchor="start" x="550.5" y="-109" font-family="Helvetica,sans-Serif" font-size="10.00">/src/Exceptions/MonitoringInternal</text>
<text text-anchor="middle" x="625" y="-98" font-family="Helvetica,sans-Serif" font-size="10.00">Exception.h</text>
</g>
<!-- Node2 -->
<g id="node2" class="node"><title>Node2</title>
<g id="a_node2"><a xlink:href="../../d8/dd1/InfluxDB_8cxx.html" target="_top" xlink:title="/home/travis/build\l/AliceO2Group/Monitoring\l/src/Backends/InfluxDB.cxx">
<polygon fill="none" stroke="black" points="0,-6.5 0,-47.5 140,-47.5 140,-6.5 0,-6.5"/>
<text text-anchor="start" x="8" y="-35.5" font-family="Helvetica,sans-Serif" font-size="10.00">/home/travis/build</text>
<text text-anchor="start" x="8" y="-24.5" font-family="Helvetica,sans-Serif" font-size="10.00">/AliceO2Group/Monitoring</text>
<text text-anchor="middle" x="70" y="-13.5" font-family="Helvetica,sans-Serif" font-size="10.00">/src/Backends/InfluxDB.cxx</text>
</a>
</g>
</g>
<!-- Node1&#45;&gt;Node2 -->
<g id="edge1" class="edge"><title>Node1&#45;&gt;Node2</title>
<path fill="none" stroke="midnightblue" d="M532.441,-109.142C435.856,-100.779 280.458,-83.9126 149,-54 141.116,-52.206 132.901,-49.9527 124.876,-47.5269"/>
<polygon fill="midnightblue" stroke="midnightblue" points="532.209,-112.635 542.471,-109.998 532.805,-105.66 532.209,-112.635"/>
</g>
<!-- Node3 -->
<g id="node3" class="node"><title>Node3</title>
<g id="a_node3"><a xlink:href="../../d3/da1/DerivedMetrics_8cxx.html" target="_top" xlink:title="/home/travis/build\l/AliceO2Group/Monitoring\l/src/DerivedMetrics.cxx">
<polygon fill="none" stroke="black" points="158,-6.5 158,-47.5 286,-47.5 286,-6.5 158,-6.5"/>
<text text-anchor="start" x="166" y="-35.5" font-family="Helvetica,sans-Serif" font-size="10.00">/home/travis/build</text>
<text text-anchor="start" x="166" y="-24.5" font-family="Helvetica,sans-Serif" font-size="10.00">/AliceO2Group/Monitoring</text>
<text text-anchor="middle" x="222" y="-13.5" font-family="Helvetica,sans-Serif" font-size="10.00">/src/DerivedMetrics.cxx</text>
</a>
</g>
</g>
<!-- Node1&#45;&gt;Node3 -->
<g id="edge2" class="edge"><title>Node1&#45;&gt;Node3</title>
<path fill="none" stroke="midnightblue" d="M532.427,-102.583C465.792,-91.9639 374.087,-75.3724 295,-54 288.117,-52.1398 280.954,-49.9355 273.924,-47.6092"/>
<polygon fill="midnightblue" stroke="midnightblue" points="532.063,-106.069 542.486,-104.171 533.154,-99.1541 532.063,-106.069"/>
</g>
<!-- Node4 -->
<g id="node4" class="node"><title>Node4</title>
<g id="a_node4"><a xlink:href="../../dd/dd2/MonitoringInternalException_8cxx.html" target="_top" xlink:title="/home/travis/build\l/AliceO2Group/Monitoring\l/src/Exceptions/MonitoringInternal\lException.cxx">
<polygon fill="none" stroke="black" points="304.5,-1 304.5,-53 469.5,-53 469.5,-1 304.5,-1"/>
<text text-anchor="start" x="312.5" y="-41" font-family="Helvetica,sans-Serif" font-size="10.00">/home/travis/build</text>
<text text-anchor="start" x="312.5" y="-30" font-family="Helvetica,sans-Serif" font-size="10.00">/AliceO2Group/Monitoring</text>
<text text-anchor="start" x="312.5" y="-19" font-family="Helvetica,sans-Serif" font-size="10.00">/src/Exceptions/MonitoringInternal</text>
<text text-anchor="middle" x="387" y="-8" font-family="Helvetica,sans-Serif" font-size="10.00">Exception.cxx</text>
</a>
</g>
</g>
<!-- Node1&#45;&gt;Node4 -->
<g id="edge3" class="edge"><title>Node1&#45;&gt;Node4</title>
<path fill="none" stroke="midnightblue" d="M547.575,-87.3724C517.719,-76.3332 483.87,-63.8175 454.973,-53.1328"/>
<polygon fill="midnightblue" stroke="midnightblue" points="546.524,-90.7152 557.117,-90.9005 548.952,-84.1496 546.524,-90.7152"/>
</g>
<!-- Node5 -->
<g id="node5" class="node"><title>Node5</title>
<g id="a_node5"><a xlink:href="../../d5/db4/Monitoring_8cxx.html" target="_top" xlink:title="/home/travis/build\l/AliceO2Group/Monitoring\l/src/Monitoring.cxx">
<polygon fill="none" stroke="black" points="488,-6.5 488,-47.5 616,-47.5 616,-6.5 488,-6.5"/>
<text text-anchor="start" x="496" y="-35.5" font-family="Helvetica,sans-Serif" font-size="10.00">/home/travis/build</text>
<text text-anchor="start" x="496" y="-24.5" font-family="Helvetica,sans-Serif" font-size="10.00">/AliceO2Group/Monitoring</text>
<text text-anchor="middle" x="552" y="-13.5" font-family="Helvetica,sans-Serif" font-size="10.00">/src/Monitoring.cxx</text>
</a>
</g>
</g>
<!-- Node1&#45;&gt;Node5 -->
<g id="edge4" class="edge"><title>Node1&#45;&gt;Node5</title>
<path fill="none" stroke="midnightblue" d="M597.271,-82.573C587.454,-70.7393 576.738,-57.821 568.197,-47.5249"/>
<polygon fill="midnightblue" stroke="midnightblue" points="594.807,-85.0848 603.885,-90.5468 600.195,-80.6156 594.807,-85.0848"/>
</g>
<!-- Node6 -->
<g id="node6" class="node"><title>Node6</title>
<g id="a_node6"><a xlink:href="../../d3/d6e/ProcessMonitor_8cxx.html" target="_top" xlink:title="/home/travis/build\l/AliceO2Group/Monitoring\l/src/ProcessMonitor.cxx">
<polygon fill="none" stroke="black" points="634,-6.5 634,-47.5 762,-47.5 762,-6.5 634,-6.5"/>
<text text-anchor="start" x="642" y="-35.5" font-family="Helvetica,sans-Serif" font-size="10.00">/home/travis/build</text>
<text text-anchor="start" x="642" y="-24.5" font-family="Helvetica,sans-Serif" font-size="10.00">/AliceO2Group/Monitoring</text>
<text text-anchor="middle" x="698" y="-13.5" font-family="Helvetica,sans-Serif" font-size="10.00">/src/ProcessMonitor.cxx</text>
</a>
</g>
</g>
<!-- Node1&#45;&gt;Node6 -->
<g id="edge5" class="edge"><title>Node1&#45;&gt;Node6</title>
<path fill="none" stroke="midnightblue" d="M652.729,-82.573C662.546,-70.7393 673.262,-57.821 681.803,-47.5249"/>
<polygon fill="midnightblue" stroke="midnightblue" points="649.805,-80.6156 646.115,-90.5468 655.193,-85.0848 649.805,-80.6156"/>
</g>
<!-- Node7 -->
<g id="node7" class="node"><title>Node7</title>
<g id="a_node7"><a xlink:href="../../d3/d77/HTTP_8cxx.html" target="_top" xlink:title="/home/travis/build\l/AliceO2Group/Monitoring\l/src/Transports/HTTP.cxx">
<polygon fill="none" stroke="black" points="780.5,-6.5 780.5,-47.5 911.5,-47.5 911.5,-6.5 780.5,-6.5"/>
<text text-anchor="start" x="788.5" y="-35.5" font-family="Helvetica,sans-Serif" font-size="10.00">/home/travis/build</text>
<text text-anchor="start" x="788.5" y="-24.5" font-family="Helvetica,sans-Serif" font-size="10.00">/AliceO2Group/Monitoring</text>
<text text-anchor="middle" x="846" y="-13.5" font-family="Helvetica,sans-Serif" font-size="10.00">/src/Transports/HTTP.cxx</text>
</a>
</g>
</g>
<!-- Node1&#45;&gt;Node7 -->
<g id="edge6" class="edge"><title>Node1&#45;&gt;Node7</title>
<path fill="none" stroke="midnightblue" d="M697.525,-87.1211C730.115,-74.1444 767.721,-59.1699 796.932,-47.5384"/>
<polygon fill="midnightblue" stroke="midnightblue" points="696.03,-83.9493 688.034,-90.9005 698.619,-90.4527 696.03,-83.9493"/>
</g>
<!-- Node8 -->
<g id="node8" class="node"><title>Node8</title>
<g id="a_node8"><a xlink:href="../../db/ddf/TCP_8cxx.html" target="_top" xlink:title="/home/travis/build\l/AliceO2Group/Monitoring\l/src/Transports/TCP.cxx">
<polygon fill="none" stroke="black" points="930,-6.5 930,-47.5 1058,-47.5 1058,-6.5 930,-6.5"/>
<text text-anchor="start" x="938" y="-35.5" font-family="Helvetica,sans-Serif" font-size="10.00">/home/travis/build</text>
<text text-anchor="start" x="938" y="-24.5" font-family="Helvetica,sans-Serif" font-size="10.00">/AliceO2Group/Monitoring</text>
<text text-anchor="middle" x="994" y="-13.5" font-family="Helvetica,sans-Serif" font-size="10.00">/src/Transports/TCP.cxx</text>
</a>
</g>
</g>
<!-- Node1&#45;&gt;Node8 -->
<g id="edge7" class="edge"><title>Node1&#45;&gt;Node8</title>
<path fill="none" stroke="midnightblue" d="M717.679,-99.7442C776.171,-88.693 853.057,-72.7086 920,-54 926.82,-52.0941 933.922,-49.8898 940.911,-47.5868"/>
<polygon fill="midnightblue" stroke="midnightblue" points="716.901,-96.329 707.717,-101.612 718.191,-103.209 716.901,-96.329"/>
</g>
<!-- Node9 -->
<g id="node9" class="node"><title>Node9</title>
<g id="a_node9"><a xlink:href="../../d6/dfa/testDerived_8cxx.html" target="_top" xlink:title="/home/travis/build\l/AliceO2Group/Monitoring\l/test/testDerived.cxx">
<polygon fill="none" stroke="black" points="1076,-6.5 1076,-47.5 1204,-47.5 1204,-6.5 1076,-6.5"/>
<text text-anchor="start" x="1084" y="-35.5" font-family="Helvetica,sans-Serif" font-size="10.00">/home/travis/build</text>
<text text-anchor="start" x="1084" y="-24.5" font-family="Helvetica,sans-Serif" font-size="10.00">/AliceO2Group/Monitoring</text>
<text text-anchor="middle" x="1140" y="-13.5" font-family="Helvetica,sans-Serif" font-size="10.00">/test/testDerived.cxx</text>
</a>
</g>
</g>
<!-- Node1&#45;&gt;Node9 -->
<g id="edge8" class="edge"><title>Node1&#45;&gt;Node9</title>
<path fill="none" stroke="midnightblue" d="M718.015,-108.48C808.182,-99.8979 948.347,-83.1318 1067,-54 1074.32,-52.2036 1081.93,-49.949 1089.35,-47.5226"/>
<polygon fill="midnightblue" stroke="midnightblue" points="717.446,-105.017 707.817,-109.436 718.1,-111.987 717.446,-105.017"/>
</g>
</g>
</svg>
