<?xml version="1.0" encoding="UTF-8" standalone="no"?>
<!DOCTYPE svg PUBLIC "-//W3C//DTD SVG 1.1//EN"
 "http://www.w3.org/Graphics/SVG/1.1/DTD/svg11.dtd">
<!-- Generated by graphviz version 2.36.0 (20140111.2315)
 -->
<!-- Title: /home/travis/build/AliceO2Group/Monitoring/src/Backends/ApMonBackend.h Pages: 1 -->
<svg width="361pt" height="274pt"
 viewBox="0.00 0.00 361.25 274.00" xmlns="http://www.w3.org/2000/svg" xmlns:xlink="http://www.w3.org/1999/xlink">
<g id="graph0" class="graph" transform="scale(1 1) rotate(0) translate(4 270)">
<title>/home/travis/build/AliceO2Group/Monitoring/src/Backends/ApMonBackend.h</title>
<!-- Node1 -->
<g id="node1" class="node"><title>Node1</title>
<polygon fill="#bfbfbf" stroke="black" points="122.252,-224.5 122.252,-265.5 282.252,-265.5 282.252,-224.5 122.252,-224.5"/>
<text text-anchor="start" x="130.252" y="-253.5" font-family="Helvetica,sans-Serif" font-size="10.00">/home/travis/build</text>
<text text-anchor="start" x="130.252" y="-242.5" font-family="Helvetica,sans-Serif" font-size="10.00">/AliceO2Group/Monitoring</text>
<text text-anchor="middle" x="202.252" y="-231.5" font-family="Helvetica,sans-Serif" font-size="10.00">/src/Backends/ApMonBackend.h</text>
</g>
<!-- Node2 -->
<g id="node2" class="node"><title>Node2</title>
<polygon fill="none" stroke="#bfbfbf" points="93.7518,-0.5 93.7518,-19.5 134.752,-19.5 134.752,-0.5 93.7518,-0.5"/>
<text text-anchor="middle" x="114.252" y="-7.5" font-family="Helvetica,sans-Serif" font-size="10.00">string</text>
</g>
<!-- Node1&#45;&gt;Node2 -->
<g id="edge1" class="edge"><title>Node1&#45;&gt;Node2</title>
<path fill="none" stroke="midnightblue" d="M122.249,-234.529C91.4245,-226.845 58.5421,-212.98 37.2518,-188 -1.19513,-142.89 -13.5446,-106.021 18.2518,-56 32.4876,-33.6048 61.1353,-22.1621 83.4478,-16.4384"/>
<polygon fill="midnightblue" stroke="midnightblue" points="84.5288,-19.7813 93.4897,-14.1286 82.9596,-12.9594 84.5288,-19.7813"/>
</g>
<!-- Node3 -->
<g id="node3" class="node"><title>Node3</title>
<polygon fill="none" stroke="#bfbfbf" points="307.252,-56.5 307.252,-75.5 353.252,-75.5 353.252,-56.5 307.252,-56.5"/>
<text text-anchor="middle" x="330.252" y="-63.5" font-family="Helvetica,sans-Serif" font-size="10.00">chrono</text>
</g>
<!-- Node1&#45;&gt;Node3 -->
<g id="edge2" class="edge"><title>Node1&#45;&gt;Node3</title>
<path fill="none" stroke="midnightblue" d="M263.246,-224.405C280.925,-215.881 298.585,-204.064 310.252,-188 332.386,-157.523 333.48,-111.386 332.043,-85.7858"/>
<polygon fill="midnightblue" stroke="midnightblue" points="335.516,-85.3058 331.271,-75.5989 328.536,-85.8348 335.516,-85.3058"/>
</g>
<!-- Node4 -->
<g id="node4" class="node"><title>Node4</title>
<polygon fill="none" stroke="#bfbfbf" points="176.252,-168.5 176.252,-187.5 228.252,-187.5 228.252,-168.5 176.252,-168.5"/>
<text text-anchor="middle" x="202.252" y="-175.5" font-family="Helvetica,sans-Serif" font-size="10.00">memory</text>
</g>
<!-- Node1&#45;&gt;Node4 -->
<g id="edge3" class="edge"><title>Node1&#45;&gt;Node4</title>
<path fill="none" stroke="midnightblue" d="M202.252,-224.498C202.252,-216.065 202.252,-206.235 202.252,-197.874"/>
<polygon fill="midnightblue" stroke="midnightblue" points="205.752,-197.652 202.252,-187.652 198.752,-197.653 205.752,-197.652"/>
</g>
<!-- Node5 -->
<g id="node5" class="node"><title>Node5</title>
<polygon fill="none" stroke="#bfbfbf" points="246.252,-168.5 246.252,-187.5 302.252,-187.5 302.252,-168.5 246.252,-168.5"/>
<text text-anchor="middle" x="274.252" y="-175.5" font-family="Helvetica,sans-Serif" font-size="10.00">ApMon.h</text>
</g>
<!-- Node1&#45;&gt;Node5 -->
<g id="edge4" class="edge"><title>Node1&#45;&gt;Node5</title>
<path fill="none" stroke="midnightblue" d="M223.854,-224.498C234.469,-214.915 247.082,-203.528 257.035,-194.543"/>
<polygon fill="midnightblue" stroke="midnightblue" points="259.59,-196.952 264.667,-187.652 254.899,-191.756 259.59,-196.952"/>
</g>
<!-- Node6 -->
<g id="node6" class="node"><title>Node6</title>
<g id="a_node6"><a xlink:href="../../df/d83/Backend_8h.html" target="_top" xlink:title="Monitoring/Backend.h">
<polygon fill="none" stroke="black" points="46.7518,-168.5 46.7518,-187.5 157.752,-187.5 157.752,-168.5 46.7518,-168.5"/>
<text text-anchor="middle" x="102.252" y="-175.5" font-family="Helvetica,sans-Serif" font-size="10.00">Monitoring/Backend.h</text>
</a>
</g>
</g>
<!-- Node1&#45;&gt;Node6 -->
<g id="edge5" class="edge"><title>Node1&#45;&gt;Node6</title>
<path fill="none" stroke="midnightblue" d="M172.248,-224.498C156.769,-214.436 138.228,-202.385 124.119,-193.214"/>
<polygon fill="midnightblue" stroke="midnightblue" points="125.855,-190.168 115.563,-187.652 122.04,-196.037 125.855,-190.168"/>
</g>
<!-- Node6&#45;&gt;Node2 -->
<g id="edge7" class="edge"><title>Node6&#45;&gt;Node2</title>
<path fill="none" stroke="midnightblue" d="M89.5167,-168.211C62.2598,-148.284 2.7477,-98.1297 28.2518,-56 40.2904,-36.1136 64.3279,-24.5923 83.9365,-18.1954"/>
<polygon fill="midnightblue" stroke="midnightblue" points="85.1076,-21.4989 93.6998,-15.3002 83.1174,-14.7878 85.1076,-21.4989"/>
</g>
<!-- Node6&#45;&gt;Node3 -->
<g id="edge6" class="edge"><title>Node6&#45;&gt;Node3</title>
<path fill="none" stroke="midnightblue" d="M128.807,-168.462C153.298,-160.238 190.419,-146.88 221.252,-132 253.025,-116.666 287.696,-95.0844 309.208,-81.0697"/>
<polygon fill="midnightblue" stroke="midnightblue" points="311.143,-83.9861 317.575,-75.567 307.297,-78.1375 311.143,-83.9861"/>
</g>
<!-- Node7 -->
<g id="node7" class="node"><title>Node7</title>
<g id="a_node7"><a xlink:href="../../d9/d92/Metric_8h.html" target="_top" xlink:title="Monitoring/Metric.h">
<polygon fill="none" stroke="black" points="112.252,-112.5 112.252,-131.5 212.252,-131.5 212.252,-112.5 112.252,-112.5"/>
<text text-anchor="middle" x="162.252" y="-119.5" font-family="Helvetica,sans-Serif" font-size="10.00">Monitoring/Metric.h</text>
</a>
</g>
</g>
<!-- Node6&#45;&gt;Node7 -->
<g id="edge8" class="edge"><title>Node6&#45;&gt;Node7</title>
<path fill="none" stroke="midnightblue" d="M111.892,-168.324C120.761,-160.341 134.126,-148.313 144.86,-138.653"/>
<polygon fill="midnightblue" stroke="midnightblue" points="147.345,-141.125 152.436,-131.834 142.662,-135.922 147.345,-141.125"/>
</g>
<!-- Node7&#45;&gt;Node2 -->
<g id="edge9" class="edge"><title>Node7&#45;&gt;Node2</title>
<path fill="none" stroke="midnightblue" d="M173.786,-112.329C188.963,-99.82 212.369,-76.0163 200.252,-56 188.213,-36.1136 164.176,-24.5923 144.567,-18.1954"/>
<polygon fill="midnightblue" stroke="midnightblue" points="145.386,-14.7878 134.804,-15.3002 143.396,-21.4989 145.386,-14.7878"/>
</g>
<!-- Node7&#45;&gt;Node3 -->
<g id="edge10" class="edge"><title>Node7&#45;&gt;Node3</title>
<path fill="none" stroke="midnightblue" d="M188.872,-112.444C218.259,-102.998 265.595,-87.7826 297.3,-77.5916"/>
<polygon fill="midnightblue" stroke="midnightblue" points="298.553,-80.8653 307.002,-74.473 296.411,-74.2011 298.553,-80.8653"/>
</g>
<!-- Node8 -->
<g id="node8" class="node"><title>Node8</title>
<polygon fill="none" stroke="#bfbfbf" points="37.2518,-56.5 37.2518,-75.5 81.2518,-75.5 81.2518,-56.5 37.2518,-56.5"/>
<text text-anchor="middle" x="59.2518" y="-63.5" font-family="Helvetica,sans-Serif" font-size="10.00">vector</text>
</g>
<!-- Node7&#45;&gt;Node8 -->
<g id="edge11" class="edge"><title>Node7&#45;&gt;Node8</title>
<path fill="none" stroke="midnightblue" d="M145.703,-112.324C129.26,-103.703 103.817,-90.3643 84.7834,-80.3855"/>
<polygon fill="midnightblue" stroke="midnightblue" points="86.2413,-77.198 75.7594,-75.6545 82.9909,-83.3977 86.2413,-77.198"/>
</g>
<!-- Node9 -->
<g id="node9" class="node"><title>Node9</title>
<polygon fill="none" stroke="#bfbfbf" points="99.2518,-56.5 99.2518,-75.5 191.252,-75.5 191.252,-56.5 99.2518,-56.5"/>
<text text-anchor="middle" x="145.252" y="-63.5" font-family="Helvetica,sans-Serif" font-size="10.00">boost/variant.hpp</text>
</g>
<!-- Node7&#45;&gt;Node9 -->
<g id="edge12" class="edge"><title>Node7&#45;&gt;Node9</title>
<path fill="none" stroke="midnightblue" d="M159.445,-112.083C157.167,-104.849 153.88,-94.4087 151.043,-85.3968"/>
<polygon fill="midnightblue" stroke="midnightblue" points="154.348,-84.2385 148.007,-75.7511 147.671,-86.3406 154.348,-84.2385"/>
</g>
<!-- Node10 -->
<g id="node10" class="node"><title>Node10</title>
<g id="a_node10"><a xlink:href="../../d9/d33/Tag_8h.html" target="_top" xlink:title="Tag.h">
<polygon fill="none" stroke="black" points="247.752,-56.5 247.752,-75.5 288.752,-75.5 288.752,-56.5 247.752,-56.5"/>
<text text-anchor="middle" x="268.252" y="-63.5" font-family="Helvetica,sans-Serif" font-size="10.00">Tag.h</text>
</a>
</g>
</g>
<!-- Node7&#45;&gt;Node10 -->
<g id="edge13" class="edge"><title>Node7&#45;&gt;Node10</title>
<path fill="none" stroke="midnightblue" d="M179.283,-112.324C196.282,-103.664 222.628,-90.2424 242.244,-80.249"/>
<polygon fill="midnightblue" stroke="midnightblue" points="243.942,-83.3125 251.263,-75.6545 240.764,-77.0752 243.942,-83.3125"/>
</g>
<!-- Node10&#45;&gt;Node2 -->
<g id="edge14" class="edge"><title>Node10&#45;&gt;Node2</title>
<path fill="none" stroke="midnightblue" d="M247.483,-57.7173C221.076,-48.4578 175.268,-32.3955 144.857,-21.7316"/>
<polygon fill="midnightblue" stroke="midnightblue" points="145.779,-18.3459 135.184,-18.3398 143.462,-24.9516 145.779,-18.3459"/>
</g>
</g>
</svg>
