<?xml version="1.0" encoding="UTF-8" standalone="no"?>
<!DOCTYPE svg PUBLIC "-//W3C//DTD SVG 1.1//EN"
 "http://www.w3.org/Graphics/SVG/1.1/DTD/svg11.dtd">
<!-- Generated by graphviz version 2.36.0 (20140111.2315)
 -->
<!-- Title: /home/travis/build/AliceO2Group/Monitoring/src/Exceptions/MonitoringInternalException.cxx Pages: 1 -->
<svg width="332pt" height="174pt"
 viewBox="0.00 0.00 332.00 174.00" xmlns="http://www.w3.org/2000/svg" xmlns:xlink="http://www.w3.org/1999/xlink">
<g id="graph0" class="graph" transform="scale(1 1) rotate(0) translate(4 170)">
<title>/home/travis/build/AliceO2Group/Monitoring/src/Exceptions/MonitoringInternalException.cxx</title>
<!-- Node1 -->
<g id="node1" class="node"><title>Node1</title>
<polygon fill="#bfbfbf" stroke="black" points="78.5,-113 78.5,-165 243.5,-165 243.5,-113 78.5,-113"/>
<text text-anchor="start" x="86.5" y="-153" font-family="Helvetica,sans-Serif" font-size="10.00">/home/travis/build</text>
<text text-anchor="start" x="86.5" y="-142" font-family="Helvetica,sans-Serif" font-size="10.00">/AliceO2Group/Monitoring</text>
<text text-anchor="start" x="86.5" y="-131" font-family="Helvetica,sans-Serif" font-size="10.00">/src/Exceptions/MonitoringInternal</text>
<text text-anchor="middle" x="161" y="-120" font-family="Helvetica,sans-Serif" font-size="10.00">Exception.cxx</text>
</g>
<!-- Node2 -->
<g id="node2" class="node"><title>Node2</title>
<g id="a_node2"><a xlink:href="../../dc/d75/MonitoringInternalException_8h.html" target="_top" xlink:title="MonitoringInternalException.h">
<polygon fill="none" stroke="black" points="22,-56.5 22,-75.5 168,-75.5 168,-56.5 22,-56.5"/>
<text text-anchor="middle" x="95" y="-63.5" font-family="Helvetica,sans-Serif" font-size="10.00">MonitoringInternalException.h</text>
</a>
</g>
</g>
<!-- Node1&#45;&gt;Node2 -->
<g id="edge1" class="edge"><title>Node1&#45;&gt;Node2</title>
<path fill="none" stroke="midnightblue" d="M137.545,-112.768C128.448,-102.982 118.292,-92.0561 110.184,-83.3346"/>
<polygon fill="midnightblue" stroke="midnightblue" points="112.512,-80.6985 103.14,-75.7572 107.385,-85.4644 112.512,-80.6985"/>
</g>
<!-- Node5 -->
<g id="node5" class="node"><title>Node5</title>
<g id="a_node5"><a xlink:href="../../df/de7/MonLogger_8h.html" target="_top" xlink:title="../MonLogger.h">
<polygon fill="none" stroke="black" points="186,-56.5 186,-75.5 268,-75.5 268,-56.5 186,-56.5"/>
<text text-anchor="middle" x="227" y="-63.5" font-family="Helvetica,sans-Serif" font-size="10.00">../MonLogger.h</text>
</a>
</g>
</g>
<!-- Node1&#45;&gt;Node5 -->
<g id="edge4" class="edge"><title>Node1&#45;&gt;Node5</title>
<path fill="none" stroke="midnightblue" d="M184.455,-112.768C193.552,-102.982 203.708,-92.0561 211.816,-83.3346"/>
<polygon fill="midnightblue" stroke="midnightblue" points="214.615,-85.4644 218.86,-75.7572 209.488,-80.6985 214.615,-85.4644"/>
</g>
<!-- Node3 -->
<g id="node3" class="node"><title>Node3</title>
<polygon fill="none" stroke="#bfbfbf" points="-0.5,-0.5 -0.5,-19.5 58.5,-19.5 58.5,-0.5 -0.5,-0.5"/>
<text text-anchor="middle" x="29" y="-7.5" font-family="Helvetica,sans-Serif" font-size="10.00">exception</text>
</g>
<!-- Node2&#45;&gt;Node3 -->
<g id="edge2" class="edge"><title>Node2&#45;&gt;Node3</title>
<path fill="none" stroke="midnightblue" d="M84.396,-56.324C74.5438,-48.2631 59.6491,-36.0765 47.7849,-26.3695"/>
<polygon fill="midnightblue" stroke="midnightblue" points="49.7529,-23.4575 39.797,-19.8339 45.3202,-28.8752 49.7529,-23.4575"/>
</g>
<!-- Node4 -->
<g id="node4" class="node"><title>Node4</title>
<polygon fill="none" stroke="#bfbfbf" points="76.5,-0.5 76.5,-19.5 117.5,-19.5 117.5,-0.5 76.5,-0.5"/>
<text text-anchor="middle" x="97" y="-7.5" font-family="Helvetica,sans-Serif" font-size="10.00">string</text>
</g>
<!-- Node2&#45;&gt;Node4 -->
<g id="edge3" class="edge"><title>Node2&#45;&gt;Node4</title>
<path fill="none" stroke="midnightblue" d="M95.3303,-56.083C95.5924,-49.0059 95.9681,-38.8611 96.2968,-29.9865"/>
<polygon fill="midnightblue" stroke="midnightblue" points="99.8033,-29.8738 96.6759,-19.7511 92.8081,-29.6147 99.8033,-29.8738"/>
</g>
<!-- Node6 -->
<g id="node6" class="node"><title>Node6</title>
<polygon fill="none" stroke="#bfbfbf" points="138,-0.5 138,-19.5 184,-19.5 184,-0.5 138,-0.5"/>
<text text-anchor="middle" x="161" y="-7.5" font-family="Helvetica,sans-Serif" font-size="10.00">chrono</text>
</g>
<!-- Node5&#45;&gt;Node6 -->
<g id="edge5" class="edge"><title>Node5&#45;&gt;Node6</title>
<path fill="none" stroke="midnightblue" d="M216.396,-56.324C206.544,-48.2631 191.649,-36.0765 179.785,-26.3695"/>
<polygon fill="midnightblue" stroke="midnightblue" points="181.753,-23.4575 171.797,-19.8339 177.32,-28.8752 181.753,-23.4575"/>
</g>
<!-- Node7 -->
<g id="node7" class="node"><title>Node7</title>
<polygon fill="none" stroke="#bfbfbf" points="202,-0.5 202,-19.5 252,-19.5 252,-0.5 202,-0.5"/>
<text text-anchor="middle" x="227" y="-7.5" font-family="Helvetica,sans-Serif" font-size="10.00">iomanip</text>
</g>
<!-- Node5&#45;&gt;Node7 -->
<g id="edge6" class="edge"><title>Node5&#45;&gt;Node7</title>
<path fill="none" stroke="midnightblue" d="M227,-56.083C227,-49.0059 227,-38.8611 227,-29.9865"/>
<polygon fill="midnightblue" stroke="midnightblue" points="230.5,-29.751 227,-19.7511 223.5,-29.7511 230.5,-29.751"/>
</g>
<!-- Node8 -->
<g id="node8" class="node"><title>Node8</title>
<polygon fill="none" stroke="#bfbfbf" points="270,-0.5 270,-19.5 324,-19.5 324,-0.5 270,-0.5"/>
<text text-anchor="middle" x="297" y="-7.5" font-family="Helvetica,sans-Serif" font-size="10.00">iostream</text>
</g>
<!-- Node5&#45;&gt;Node8 -->
<g id="edge7" class="edge"><title>Node5&#45;&gt;Node8</title>
<path fill="none" stroke="midnightblue" d="M238.247,-56.324C248.797,-48.1849 264.801,-35.8395 277.442,-26.0874"/>
<polygon fill="midnightblue" stroke="midnightblue" points="279.769,-28.7132 285.549,-19.8339 275.493,-23.1707 279.769,-28.7132"/>
</g>
</g>
</svg>
