<?xml version="1.0" encoding="UTF-8" standalone="no"?>
<!DOCTYPE svg PUBLIC "-//W3C//DTD SVG 1.1//EN"
 "http://www.w3.org/Graphics/SVG/1.1/DTD/svg11.dtd">
<!-- Generated by graphviz version 2.36.0 (20140111.2315)
 -->
<!-- Title: /home/travis/build/AliceO2Group/Monitoring/include/Monitoring/Monitoring.h Pages: 1 -->
<svg width="1107pt" height="274pt"
 viewBox="0.00 0.00 1107.31 274.00" xmlns="http://www.w3.org/2000/svg" xmlns:xlink="http://www.w3.org/1999/xlink">
<g id="graph0" class="graph" transform="scale(1 1) rotate(0) translate(4 270)">
<title>/home/travis/build/AliceO2Group/Monitoring/include/Monitoring/Monitoring.h</title>
<!-- Node1 -->
<g id="node1" class="node"><title>Node1</title>
<polygon fill="#bfbfbf" stroke="black" points="408.807,-224.5 408.807,-265.5 563.807,-265.5 563.807,-224.5 408.807,-224.5"/>
<text text-anchor="start" x="416.807" y="-253.5" font-family="Helvetica,sans-Serif" font-size="10.00">/home/travis/build</text>
<text text-anchor="start" x="416.807" y="-242.5" font-family="Helvetica,sans-Serif" font-size="10.00">/AliceO2Group/Monitoring</text>
<text text-anchor="middle" x="486.307" y="-231.5" font-family="Helvetica,sans-Serif" font-size="10.00">/include/Monitoring/Monitoring.h</text>
</g>
<!-- Node2 -->
<g id="node2" class="node"><title>Node2</title>
<polygon fill="none" stroke="#bfbfbf" points="533.307,-112.5 533.307,-131.5 579.307,-131.5 579.307,-112.5 533.307,-112.5"/>
<text text-anchor="middle" x="556.307" y="-119.5" font-family="Helvetica,sans-Serif" font-size="10.00">atomic</text>
</g>
<!-- Node1&#45;&gt;Node2 -->
<g id="edge1" class="edge"><title>Node1&#45;&gt;Node2</title>
<path fill="none" stroke="midnightblue" d="M497.986,-224.346C504.332,-213.626 512.294,-200.109 519.307,-188 528.539,-172.062 538.899,-153.831 546.304,-140.74"/>
<polygon fill="midnightblue" stroke="midnightblue" points="549.452,-142.284 551.322,-131.855 543.357,-138.841 549.452,-142.284"/>
</g>
<!-- Node3 -->
<g id="node3" class="node"><title>Node3</title>
<polygon fill="none" stroke="#bfbfbf" points="27.3072,-56.5 27.3072,-75.5 73.3072,-75.5 73.3072,-56.5 27.3072,-56.5"/>
<text text-anchor="middle" x="50.3072" y="-63.5" font-family="Helvetica,sans-Serif" font-size="10.00">chrono</text>
</g>
<!-- Node1&#45;&gt;Node3 -->
<g id="edge2" class="edge"><title>Node1&#45;&gt;Node3</title>
<path fill="none" stroke="midnightblue" d="M408.532,-244.092C301.884,-242.504 118.111,-233.071 71.3072,-188 43.6248,-161.342 44.5139,-112.237 47.4638,-85.511"/>
<polygon fill="midnightblue" stroke="midnightblue" points="50.9388,-85.9297 48.7769,-75.5578 43.999,-85.014 50.9388,-85.9297"/>
</g>
<!-- Node4 -->
<g id="node4" class="node"><title>Node4</title>
<polygon fill="none" stroke="#bfbfbf" points="771.807,-168.5 771.807,-187.5 806.807,-187.5 806.807,-168.5 771.807,-168.5"/>
<text text-anchor="middle" x="789.307" y="-175.5" font-family="Helvetica,sans-Serif" font-size="10.00">map</text>
</g>
<!-- Node1&#45;&gt;Node4 -->
<g id="edge3" class="edge"><title>Node1&#45;&gt;Node4</title>
<path fill="none" stroke="midnightblue" d="M564.02,-229.449C618.374,-218.904 692.542,-203.778 757.307,-188 758.779,-187.641 760.286,-187.262 761.804,-186.869"/>
<polygon fill="midnightblue" stroke="midnightblue" points="763.022,-190.165 771.761,-184.175 761.194,-183.408 763.022,-190.165"/>
</g>
<!-- Node5 -->
<g id="node5" class="node"><title>Node5</title>
<polygon fill="none" stroke="#bfbfbf" points="129.307,-112.5 129.307,-131.5 181.307,-131.5 181.307,-112.5 129.307,-112.5"/>
<text text-anchor="middle" x="155.307" y="-119.5" font-family="Helvetica,sans-Serif" font-size="10.00">memory</text>
</g>
<!-- Node1&#45;&gt;Node5 -->
<g id="edge4" class="edge"><title>Node1&#45;&gt;Node5</title>
<path fill="none" stroke="midnightblue" d="M408.636,-229.21C366.535,-219.897 314.105,-206.173 269.307,-188 235.132,-174.137 198.596,-151.816 176.348,-137.277"/>
<polygon fill="midnightblue" stroke="midnightblue" points="178.006,-134.177 167.737,-131.57 174.139,-140.012 178.006,-134.177"/>
</g>
<!-- Node6 -->
<g id="node6" class="node"><title>Node6</title>
<polygon fill="none" stroke="#bfbfbf" points="208.807,-0.5 208.807,-19.5 249.807,-19.5 249.807,-0.5 208.807,-0.5"/>
<text text-anchor="middle" x="229.307" y="-7.5" font-family="Helvetica,sans-Serif" font-size="10.00">string</text>
</g>
<!-- Node1&#45;&gt;Node6 -->
<g id="edge5" class="edge"><title>Node1&#45;&gt;Node6</title>
<path fill="none" stroke="midnightblue" d="M408.521,-243.64C298.938,-241.546 106.613,-231.554 54.3072,-188 7.5772,-149.089 -19.9453,-103.271 18.3072,-56 40.6258,-28.4195 145.465,-17.0158 198.466,-12.9506"/>
<polygon fill="midnightblue" stroke="midnightblue" points="198.918,-16.427 208.639,-12.2119 198.411,-9.44542 198.918,-16.427"/>
</g>
<!-- Node7 -->
<g id="node7" class="node"><title>Node7</title>
<polygon fill="none" stroke="#bfbfbf" points="1055.31,-112.5 1055.31,-131.5 1099.31,-131.5 1099.31,-112.5 1055.31,-112.5"/>
<text text-anchor="middle" x="1077.31" y="-119.5" font-family="Helvetica,sans-Serif" font-size="10.00">thread</text>
</g>
<!-- Node1&#45;&gt;Node7 -->
<g id="edge6" class="edge"><title>Node1&#45;&gt;Node7</title>
<path fill="none" stroke="midnightblue" d="M563.939,-230.38C610.864,-220.992 671.438,-206.807 723.307,-188 741.993,-181.225 744.291,-173.785 763.307,-168 881.119,-132.161 919.542,-155.895 1045.04,-131.707"/>
<polygon fill="midnightblue" stroke="midnightblue" points="1045.91,-135.104 1055.03,-129.717 1044.54,-128.239 1045.91,-135.104"/>
</g>
<!-- Node8 -->
<g id="node8" class="node"><title>Node8</title>
<polygon fill="none" stroke="#bfbfbf" points="825.307,-168.5 825.307,-187.5 863.307,-187.5 863.307,-168.5 825.307,-168.5"/>
<text text-anchor="middle" x="844.307" y="-175.5" font-family="Helvetica,sans-Serif" font-size="10.00">tuple</text>
</g>
<!-- Node1&#45;&gt;Node8 -->
<g id="edge7" class="edge"><title>Node1&#45;&gt;Node8</title>
<path fill="none" stroke="midnightblue" d="M564.003,-233.736C631.043,-224.177 730.218,-208.351 815.307,-188 815.407,-187.976 815.506,-187.952 815.606,-187.928"/>
<polygon fill="midnightblue" stroke="midnightblue" points="816.328,-191.359 825.063,-185.362 814.495,-184.603 816.328,-191.359"/>
</g>
<!-- Node9 -->
<g id="node9" class="node"><title>Node9</title>
<polygon fill="none" stroke="#bfbfbf" points="393.807,-112.5 393.807,-131.5 476.807,-131.5 476.807,-112.5 393.807,-112.5"/>
<text text-anchor="middle" x="435.307" y="-119.5" font-family="Helvetica,sans-Serif" font-size="10.00">unordered_map</text>
</g>
<!-- Node1&#45;&gt;Node9 -->
<g id="edge8" class="edge"><title>Node1&#45;&gt;Node9</title>
<path fill="none" stroke="midnightblue" d="M478,-224.29C468.253,-201.166 452.234,-163.16 442.837,-140.864"/>
<polygon fill="midnightblue" stroke="midnightblue" points="446.031,-139.43 438.921,-131.575 439.58,-142.149 446.031,-139.43"/>
</g>
<!-- Node10 -->
<g id="node10" class="node"><title>Node10</title>
<polygon fill="none" stroke="#bfbfbf" points="429.307,-56.5 429.307,-75.5 473.307,-75.5 473.307,-56.5 429.307,-56.5"/>
<text text-anchor="middle" x="451.307" y="-63.5" font-family="Helvetica,sans-Serif" font-size="10.00">vector</text>
</g>
<!-- Node1&#45;&gt;Node10 -->
<g id="edge9" class="edge"><title>Node1&#45;&gt;Node10</title>
<path fill="none" stroke="midnightblue" d="M489.943,-224.124C493.934,-197.715 498.201,-149.976 485.307,-112 481.662,-101.265 474.36,-91.0354 467.454,-83.0501"/>
<polygon fill="midnightblue" stroke="midnightblue" points="469.932,-80.5748 460.57,-75.6138 464.795,-85.3299 469.932,-80.5748"/>
</g>
<!-- Node11 -->
<g id="node11" class="node"><title>Node11</title>
<g id="a_node11"><a xlink:href="../../df/d83/Backend_8h.html" target="_top" xlink:title="Monitoring/Backend.h">
<polygon fill="none" stroke="black" points="80.8072,-168.5 80.8072,-187.5 191.807,-187.5 191.807,-168.5 80.8072,-168.5"/>
<text text-anchor="middle" x="136.307" y="-175.5" font-family="Helvetica,sans-Serif" font-size="10.00">Monitoring/Backend.h</text>
</a>
</g>
</g>
<!-- Node1&#45;&gt;Node11 -->
<g id="edge10" class="edge"><title>Node1&#45;&gt;Node11</title>
<path fill="none" stroke="midnightblue" d="M408.631,-229.574C343.086,-217.402 250.833,-200.269 192.311,-189.401"/>
<polygon fill="midnightblue" stroke="midnightblue" points="192.619,-185.898 182.148,-187.513 191.341,-192.78 192.619,-185.898"/>
</g>
<!-- Node15 -->
<g id="node15" class="node"><title>Node15</title>
<g id="a_node15"><a xlink:href="../../dc/de0/DerivedMetrics_8h.html" target="_top" xlink:title="Monitoring/DerivedMetrics.h">
<polygon fill="none" stroke="black" points="278.807,-168.5 278.807,-187.5 417.807,-187.5 417.807,-168.5 278.807,-168.5"/>
<text text-anchor="middle" x="348.307" y="-175.5" font-family="Helvetica,sans-Serif" font-size="10.00">Monitoring/DerivedMetrics.h</text>
</a>
</g>
</g>
<!-- Node1&#45;&gt;Node15 -->
<g id="edge20" class="edge"><title>Node1&#45;&gt;Node15</title>
<path fill="none" stroke="midnightblue" d="M444.903,-224.498C422.524,-213.957 395.509,-201.233 375.745,-191.923"/>
<polygon fill="midnightblue" stroke="midnightblue" points="377.215,-188.747 366.677,-187.652 374.232,-195.08 377.215,-188.747"/>
</g>
<!-- Node16 -->
<g id="node16" class="node"><title>Node16</title>
<g id="a_node16"><a xlink:href="../../df/d93/ProcessMonitor_8h.html" target="_top" xlink:title="Monitoring/ProcessMonitor.h">
<polygon fill="none" stroke="black" points="573.807,-168.5 573.807,-187.5 714.807,-187.5 714.807,-168.5 573.807,-168.5"/>
<text text-anchor="middle" x="644.307" y="-175.5" font-family="Helvetica,sans-Serif" font-size="10.00">Monitoring/ProcessMonitor.h</text>
</a>
</g>
</g>
<!-- Node1&#45;&gt;Node16 -->
<g id="edge26" class="edge"><title>Node1&#45;&gt;Node16</title>
<path fill="none" stroke="midnightblue" d="M533.712,-224.498C559.684,-213.813 591.109,-200.885 613.814,-191.545"/>
<polygon fill="midnightblue" stroke="midnightblue" points="615.359,-194.694 623.275,-187.652 612.695,-188.22 615.359,-194.694"/>
</g>
<!-- Node11&#45;&gt;Node3 -->
<g id="edge11" class="edge"><title>Node11&#45;&gt;Node3</title>
<path fill="none" stroke="midnightblue" d="M124.857,-168.216C114.274,-159.72 98.5343,-146.093 87.3072,-132 75.5728,-117.271 65.2588,-98.3685 58.522,-84.7489"/>
<polygon fill="midnightblue" stroke="midnightblue" points="61.5788,-83.0283 54.1034,-75.5203 55.2651,-86.0513 61.5788,-83.0283"/>
</g>
<!-- Node11&#45;&gt;Node6 -->
<g id="edge12" class="edge"><title>Node11&#45;&gt;Node6</title>
<path fill="none" stroke="midnightblue" d="M131.62,-168.498C120.702,-147.432 96.2704,-91.9281 120.307,-56 137.617,-30.1272 172.817,-19.1137 198.549,-14.4355"/>
<polygon fill="midnightblue" stroke="midnightblue" points="199.248,-17.8684 208.574,-12.8404 198.148,-10.9553 199.248,-17.8684"/>
</g>
<!-- Node12 -->
<g id="node12" class="node"><title>Node12</title>
<g id="a_node12"><a xlink:href="../../d9/d92/Metric_8h.html" target="_top" xlink:title="Monitoring/Metric.h">
<polygon fill="none" stroke="black" points="199.307,-112.5 199.307,-131.5 299.307,-131.5 299.307,-112.5 199.307,-112.5"/>
<text text-anchor="middle" x="249.307" y="-119.5" font-family="Helvetica,sans-Serif" font-size="10.00">Monitoring/Metric.h</text>
</a>
</g>
</g>
<!-- Node11&#45;&gt;Node12 -->
<g id="edge13" class="edge"><title>Node11&#45;&gt;Node12</title>
<path fill="none" stroke="midnightblue" d="M154.212,-168.444C172.561,-159.675 201.313,-145.935 222.401,-135.858"/>
<polygon fill="midnightblue" stroke="midnightblue" points="223.972,-138.986 231.486,-131.516 220.954,-132.67 223.972,-138.986"/>
</g>
<!-- Node12&#45;&gt;Node3 -->
<g id="edge15" class="edge"><title>Node12&#45;&gt;Node3</title>
<path fill="none" stroke="midnightblue" d="M217.775,-112.444C181.01,-102.467 120.531,-86.0556 83.1945,-75.9242"/>
<polygon fill="midnightblue" stroke="midnightblue" points="83.8841,-72.4848 73.3165,-73.2437 82.0509,-79.2405 83.8841,-72.4848"/>
</g>
<!-- Node12&#45;&gt;Node6 -->
<g id="edge14" class="edge"><title>Node12&#45;&gt;Node6</title>
<path fill="none" stroke="midnightblue" d="M261.388,-112.479C277.009,-100.343 301.012,-77.1995 290.307,-56 283.5,-42.5199 270.539,-32.083 258.309,-24.6696"/>
<polygon fill="midnightblue" stroke="midnightblue" points="259.651,-21.4099 249.213,-19.5896 256.237,-27.5214 259.651,-21.4099"/>
</g>
<!-- Node12&#45;&gt;Node10 -->
<g id="edge16" class="edge"><title>Node12&#45;&gt;Node10</title>
<path fill="none" stroke="midnightblue" d="M281.315,-112.444C319.04,-102.358 381.366,-85.6971 419.155,-75.5952"/>
<polygon fill="midnightblue" stroke="midnightblue" points="420.365,-78.8947 429.122,-72.9308 418.557,-72.1322 420.365,-78.8947"/>
</g>
<!-- Node13 -->
<g id="node13" class="node"><title>Node13</title>
<polygon fill="none" stroke="#bfbfbf" points="189.307,-56.5 189.307,-75.5 281.307,-75.5 281.307,-56.5 189.307,-56.5"/>
<text text-anchor="middle" x="235.307" y="-63.5" font-family="Helvetica,sans-Serif" font-size="10.00">boost/variant.hpp</text>
</g>
<!-- Node12&#45;&gt;Node13 -->
<g id="edge17" class="edge"><title>Node12&#45;&gt;Node13</title>
<path fill="none" stroke="midnightblue" d="M246.995,-112.083C245.14,-104.927 242.472,-94.6353 240.153,-85.6911"/>
<polygon fill="midnightblue" stroke="midnightblue" points="243.474,-84.5527 237.576,-75.7511 236.698,-86.3094 243.474,-84.5527"/>
</g>
<!-- Node14 -->
<g id="node14" class="node"><title>Node14</title>
<g id="a_node14"><a xlink:href="../../d9/d33/Tag_8h.html" target="_top" xlink:title="Tag.h">
<polygon fill="none" stroke="black" points="129.807,-56.5 129.807,-75.5 170.807,-75.5 170.807,-56.5 129.807,-56.5"/>
<text text-anchor="middle" x="150.307" y="-63.5" font-family="Helvetica,sans-Serif" font-size="10.00">Tag.h</text>
</a>
</g>
</g>
<!-- Node12&#45;&gt;Node14 -->
<g id="edge18" class="edge"><title>Node12&#45;&gt;Node14</title>
<path fill="none" stroke="midnightblue" d="M233.401,-112.324C217.669,-103.743 193.365,-90.486 175.098,-80.5224"/>
<polygon fill="midnightblue" stroke="midnightblue" points="176.629,-77.3704 166.174,-75.6545 173.277,-83.5157 176.629,-77.3704"/>
</g>
<!-- Node14&#45;&gt;Node6 -->
<g id="edge19" class="edge"><title>Node14&#45;&gt;Node6</title>
<path fill="none" stroke="midnightblue" d="M163,-56.324C175.208,-47.979 193.886,-35.2122 208.31,-25.3524"/>
<polygon fill="midnightblue" stroke="midnightblue" points="210.365,-28.1871 216.646,-19.6545 206.415,-22.4082 210.365,-28.1871"/>
</g>
<!-- Node15&#45;&gt;Node5 -->
<g id="edge22" class="edge"><title>Node15&#45;&gt;Node5</title>
<path fill="none" stroke="midnightblue" d="M317.726,-168.444C283.332,-158.821 227.54,-143.21 191.133,-133.024"/>
<polygon fill="midnightblue" stroke="midnightblue" points="191.986,-129.628 181.413,-130.304 190.1,-136.369 191.986,-129.628"/>
</g>
<!-- Node15&#45;&gt;Node6 -->
<g id="edge23" class="edge"><title>Node15&#45;&gt;Node6</title>
<path fill="none" stroke="midnightblue" d="M347.378,-168.388C344.68,-147.072 335.112,-91.0431 306.307,-56 294.013,-41.0428 275.357,-29.9609 259.488,-22.537"/>
<polygon fill="midnightblue" stroke="midnightblue" points="260.612,-19.2079 250.049,-18.3855 257.794,-25.6155 260.612,-19.2079"/>
</g>
<!-- Node15&#45;&gt;Node9 -->
<g id="edge21" class="edge"><title>Node15&#45;&gt;Node9</title>
<path fill="none" stroke="midnightblue" d="M362.285,-168.324C375.857,-159.9 396.687,-146.971 412.632,-137.074"/>
<polygon fill="midnightblue" stroke="midnightblue" points="414.713,-139.902 421.364,-131.655 411.022,-133.954 414.713,-139.902"/>
</g>
<!-- Node15&#45;&gt;Node10 -->
<g id="edge24" class="edge"><title>Node15&#45;&gt;Node10</title>
<path fill="none" stroke="midnightblue" d="M351.613,-168.182C356.934,-154.853 368.432,-129.297 384.307,-112 395.932,-99.3349 411.802,-88.4737 425.18,-80.5963"/>
<polygon fill="midnightblue" stroke="midnightblue" points="426.976,-83.6013 433.96,-75.6339 423.532,-77.5073 426.976,-83.6013"/>
</g>
<!-- Node15&#45;&gt;Node12 -->
<g id="edge25" class="edge"><title>Node15&#45;&gt;Node12</title>
<path fill="none" stroke="midnightblue" d="M332.401,-168.324C316.669,-159.743 292.365,-146.486 274.098,-136.522"/>
<polygon fill="midnightblue" stroke="midnightblue" points="275.629,-133.37 265.174,-131.655 272.277,-139.516 275.629,-133.37"/>
</g>
<!-- Node16&#45;&gt;Node2 -->
<g id="edge27" class="edge"><title>Node16&#45;&gt;Node2</title>
<path fill="none" stroke="midnightblue" d="M630.168,-168.324C616.441,-159.9 595.371,-146.971 579.243,-137.074"/>
<polygon fill="midnightblue" stroke="midnightblue" points="580.765,-133.902 570.411,-131.655 577.103,-139.868 580.765,-133.902"/>
</g>
<!-- Node16&#45;&gt;Node6 -->
<g id="edge31" class="edge"><title>Node16&#45;&gt;Node6</title>
<path fill="none" stroke="midnightblue" d="M642.425,-168.239C639.054,-154.52 630.749,-127.894 614.307,-112 568.194,-67.423 542.81,-74.1936 481.307,-56 403.256,-32.911 307.903,-19.8264 259.953,-14.2492"/>
<polygon fill="midnightblue" stroke="midnightblue" points="260.246,-10.76 249.915,-13.1115 259.457,-17.7155 260.246,-10.76"/>
</g>
<!-- Node16&#45;&gt;Node7 -->
<g id="edge32" class="edge"><title>Node16&#45;&gt;Node7</title>
<path fill="none" stroke="midnightblue" d="M715.165,-169.35C816.671,-158.352 995.855,-138.777 1044.97,-131.451"/>
<polygon fill="midnightblue" stroke="midnightblue" points="1045.76,-134.869 1055.04,-129.762 1044.6,-127.965 1045.76,-134.869"/>
</g>
<!-- Node16&#45;&gt;Node10 -->
<g id="edge33" class="edge"><title>Node16&#45;&gt;Node10</title>
<path fill="none" stroke="midnightblue" d="M638.92,-168.078C630.06,-154.137 611.104,-127.214 588.307,-112 556.037,-90.4635 512.634,-78.5111 483.401,-72.4313"/>
<polygon fill="midnightblue" stroke="midnightblue" points="483.806,-68.9441 473.319,-70.4502 482.456,-75.8127 483.806,-68.9441"/>
</g>
<!-- Node16&#45;&gt;Node12 -->
<g id="edge35" class="edge"><title>Node16&#45;&gt;Node12</title>
<path fill="none" stroke="midnightblue" d="M581.718,-168.444C507.027,-158.233 383.023,-141.28 309.435,-131.22"/>
<polygon fill="midnightblue" stroke="midnightblue" points="309.778,-127.734 299.396,-129.848 308.83,-134.67 309.778,-127.734"/>
</g>
<!-- Node17 -->
<g id="node17" class="node"><title>Node17</title>
<polygon fill="none" stroke="#bfbfbf" points="673.807,-112.5 673.807,-131.5 802.807,-131.5 802.807,-112.5 673.807,-112.5"/>
<text text-anchor="middle" x="738.307" y="-119.5" font-family="Helvetica,sans-Serif" font-size="10.00">boost/algorithm/string.hpp</text>
</g>
<!-- Node16&#45;&gt;Node17 -->
<g id="edge28" class="edge"><title>Node16&#45;&gt;Node17</title>
<path fill="none" stroke="midnightblue" d="M659.41,-168.324C674.21,-159.822 697.001,-146.729 714.289,-136.797"/>
<polygon fill="midnightblue" stroke="midnightblue" points="716.314,-139.671 723.242,-131.655 712.827,-133.601 716.314,-139.671"/>
</g>
<!-- Node18 -->
<g id="node18" class="node"><title>Node18</title>
<polygon fill="none" stroke="#bfbfbf" points="821.307,-112.5 821.307,-131.5 865.307,-131.5 865.307,-112.5 821.307,-112.5"/>
<text text-anchor="middle" x="843.307" y="-119.5" font-family="Helvetica,sans-Serif" font-size="10.00">mutex</text>
</g>
<!-- Node16&#45;&gt;Node18 -->
<g id="edge29" class="edge"><title>Node16&#45;&gt;Node18</title>
<path fill="none" stroke="midnightblue" d="M676.351,-168.477C709.991,-159.504 764.408,-144.913 811.307,-132 811.408,-131.972 811.509,-131.944 811.61,-131.917"/>
<polygon fill="midnightblue" stroke="midnightblue" points="812.584,-135.279 821.282,-129.229 810.71,-128.534 812.584,-135.279"/>
</g>
<!-- Node19 -->
<g id="node19" class="node"><title>Node19</title>
<polygon fill="none" stroke="#bfbfbf" points="883.307,-112.5 883.307,-131.5 937.307,-131.5 937.307,-112.5 883.307,-112.5"/>
<text text-anchor="middle" x="910.307" y="-119.5" font-family="Helvetica,sans-Serif" font-size="10.00">iostream</text>
</g>
<!-- Node16&#45;&gt;Node19 -->
<g id="edge30" class="edge"><title>Node16&#45;&gt;Node19</title>
<path fill="none" stroke="midnightblue" d="M690.924,-168.47C737.286,-159.838 810.386,-145.828 873.307,-132 873.408,-131.978 873.509,-131.956 873.61,-131.933"/>
<polygon fill="midnightblue" stroke="midnightblue" points="874.294,-135.367 883.262,-129.726 872.733,-128.544 874.294,-135.367"/>
</g>
<!-- Node20 -->
<g id="node20" class="node"><title>Node20</title>
<polygon fill="none" stroke="#bfbfbf" points="955.807,-112.5 955.807,-131.5 1036.81,-131.5 1036.81,-112.5 955.807,-112.5"/>
<text text-anchor="middle" x="996.307" y="-119.5" font-family="Helvetica,sans-Serif" font-size="10.00">sys/resource.h</text>
</g>
<!-- Node16&#45;&gt;Node20 -->
<g id="edge34" class="edge"><title>Node16&#45;&gt;Node20</title>
<path fill="none" stroke="midnightblue" d="M705.128,-168.487C763.971,-160.126 855.936,-146.732 945.594,-132.075"/>
<polygon fill="midnightblue" stroke="midnightblue" points="946.365,-135.495 955.666,-130.421 945.231,-128.588 946.365,-135.495"/>
</g>
</g>
</svg>
