<?xml version="1.0" encoding="UTF-8" standalone="no"?>
<!DOCTYPE svg PUBLIC "-//W3C//DTD SVG 1.1//EN"
 "http://www.w3.org/Graphics/SVG/1.1/DTD/svg11.dtd">
<!-- Generated by graphviz version 2.36.0 (20140111.2315)
 -->
<!-- Title: /home/travis/build/AliceO2Group/Monitoring/include/Monitoring/ProcessMonitor.h Pages: 1 -->
<svg width="757pt" height="218pt"
 viewBox="0.00 0.00 757.00 218.00" xmlns="http://www.w3.org/2000/svg" xmlns:xlink="http://www.w3.org/1999/xlink">
<g id="graph0" class="graph" transform="scale(1 1) rotate(0) translate(4 214)">
<title>/home/travis/build/AliceO2Group/Monitoring/include/Monitoring/ProcessMonitor.h</title>
<!-- Node1 -->
<g id="node1" class="node"><title>Node1</title>
<polygon fill="#bfbfbf" stroke="black" points="267,-168.5 267,-209.5 445,-209.5 445,-168.5 267,-168.5"/>
<text text-anchor="start" x="275" y="-197.5" font-family="Helvetica,sans-Serif" font-size="10.00">/home/travis/build</text>
<text text-anchor="start" x="275" y="-186.5" font-family="Helvetica,sans-Serif" font-size="10.00">/AliceO2Group/Monitoring</text>
<text text-anchor="middle" x="356" y="-175.5" font-family="Helvetica,sans-Serif" font-size="10.00">/include/Monitoring/ProcessMonitor.h</text>
</g>
<!-- Node2 -->
<g id="node2" class="node"><title>Node2</title>
<polygon fill="none" stroke="#bfbfbf" points="0,-112.5 0,-131.5 46,-131.5 46,-112.5 0,-112.5"/>
<text text-anchor="middle" x="23" y="-119.5" font-family="Helvetica,sans-Serif" font-size="10.00">atomic</text>
</g>
<!-- Node1&#45;&gt;Node2 -->
<g id="edge1" class="edge"><title>Node1&#45;&gt;Node2</title>
<path fill="none" stroke="midnightblue" d="M266.989,-173.61C209.307,-163.776 132.403,-149.715 55.8295,-132.028"/>
<polygon fill="midnightblue" stroke="midnightblue" points="56.5413,-128.6 46.0078,-129.739 54.9523,-135.417 56.5413,-128.6"/>
</g>
<!-- Node3 -->
<g id="node3" class="node"><title>Node3</title>
<polygon fill="none" stroke="#bfbfbf" points="64.5,-112.5 64.5,-131.5 193.5,-131.5 193.5,-112.5 64.5,-112.5"/>
<text text-anchor="middle" x="129" y="-119.5" font-family="Helvetica,sans-Serif" font-size="10.00">boost/algorithm/string.hpp</text>
</g>
<!-- Node1&#45;&gt;Node3 -->
<g id="edge2" class="edge"><title>Node1&#45;&gt;Node3</title>
<path fill="none" stroke="midnightblue" d="M287.893,-168.498C248.955,-157.348 201.484,-143.755 168.623,-134.346"/>
<polygon fill="midnightblue" stroke="midnightblue" points="169.496,-130.955 158.919,-131.567 167.569,-137.685 169.496,-130.955"/>
</g>
<!-- Node4 -->
<g id="node4" class="node"><title>Node4</title>
<polygon fill="none" stroke="#bfbfbf" points="212,-112.5 212,-131.5 256,-131.5 256,-112.5 212,-112.5"/>
<text text-anchor="middle" x="234" y="-119.5" font-family="Helvetica,sans-Serif" font-size="10.00">mutex</text>
</g>
<!-- Node1&#45;&gt;Node4 -->
<g id="edge3" class="edge"><title>Node1&#45;&gt;Node4</title>
<path fill="none" stroke="midnightblue" d="M319.396,-168.498C299.972,-158.149 276.596,-145.695 259.216,-136.435"/>
<polygon fill="midnightblue" stroke="midnightblue" points="260.711,-133.266 250.24,-131.652 257.42,-139.444 260.711,-133.266"/>
</g>
<!-- Node5 -->
<g id="node5" class="node"><title>Node5</title>
<polygon fill="none" stroke="#bfbfbf" points="274,-112.5 274,-131.5 328,-131.5 328,-112.5 274,-112.5"/>
<text text-anchor="middle" x="301" y="-119.5" font-family="Helvetica,sans-Serif" font-size="10.00">iostream</text>
</g>
<!-- Node1&#45;&gt;Node5 -->
<g id="edge4" class="edge"><title>Node1&#45;&gt;Node5</title>
<path fill="none" stroke="midnightblue" d="M339.498,-168.498C331.633,-159.203 322.331,-148.21 314.841,-139.358"/>
<polygon fill="midnightblue" stroke="midnightblue" points="317.453,-137.026 308.321,-131.652 312.109,-141.547 317.453,-137.026"/>
</g>
<!-- Node6 -->
<g id="node6" class="node"><title>Node6</title>
<polygon fill="none" stroke="#bfbfbf" points="485.5,-0.5 485.5,-19.5 526.5,-19.5 526.5,-0.5 485.5,-0.5"/>
<text text-anchor="middle" x="506" y="-7.5" font-family="Helvetica,sans-Serif" font-size="10.00">string</text>
</g>
<!-- Node1&#45;&gt;Node6 -->
<g id="edge5" class="edge"><title>Node1&#45;&gt;Node6</title>
<path fill="none" stroke="midnightblue" d="M358.263,-168.332C360.703,-152.411 365.582,-129.789 375,-112 390.612,-82.5119 398.941,-76.8378 425,-56 441.069,-43.1505 461.3,-31.9081 477.523,-23.8744"/>
<polygon fill="midnightblue" stroke="midnightblue" points="479.059,-27.0194 486.55,-19.527 476.022,-20.7127 479.059,-27.0194"/>
</g>
<!-- Node7 -->
<g id="node7" class="node"><title>Node7</title>
<polygon fill="none" stroke="#bfbfbf" points="384,-112.5 384,-131.5 428,-131.5 428,-112.5 384,-112.5"/>
<text text-anchor="middle" x="406" y="-119.5" font-family="Helvetica,sans-Serif" font-size="10.00">thread</text>
</g>
<!-- Node1&#45;&gt;Node7 -->
<g id="edge6" class="edge"><title>Node1&#45;&gt;Node7</title>
<path fill="none" stroke="midnightblue" d="M371.002,-168.498C378.078,-159.299 386.434,-148.436 393.206,-139.632"/>
<polygon fill="midnightblue" stroke="midnightblue" points="396.021,-141.713 399.344,-131.652 390.473,-137.445 396.021,-141.713"/>
</g>
<!-- Node8 -->
<g id="node8" class="node"><title>Node8</title>
<polygon fill="none" stroke="#bfbfbf" points="434,-56.5 434,-75.5 478,-75.5 478,-56.5 434,-56.5"/>
<text text-anchor="middle" x="456" y="-63.5" font-family="Helvetica,sans-Serif" font-size="10.00">vector</text>
</g>
<!-- Node1&#45;&gt;Node8 -->
<g id="edge7" class="edge"><title>Node1&#45;&gt;Node8</title>
<path fill="none" stroke="midnightblue" d="M394.493,-168.333C409.301,-159.082 425.223,-146.803 436,-132 445.881,-118.428 450.955,-99.8803 453.515,-86.071"/>
<polygon fill="midnightblue" stroke="midnightblue" points="457.034,-86.2201 455.123,-75.799 450.118,-85.1371 457.034,-86.2201"/>
</g>
<!-- Node9 -->
<g id="node9" class="node"><title>Node9</title>
<polygon fill="none" stroke="#bfbfbf" points="484.5,-112.5 484.5,-131.5 565.5,-131.5 565.5,-112.5 484.5,-112.5"/>
<text text-anchor="middle" x="525" y="-119.5" font-family="Helvetica,sans-Serif" font-size="10.00">sys/resource.h</text>
</g>
<!-- Node1&#45;&gt;Node9 -->
<g id="edge8" class="edge"><title>Node1&#45;&gt;Node9</title>
<path fill="none" stroke="midnightblue" d="M406.706,-168.498C434.734,-157.718 468.702,-144.653 493.035,-135.294"/>
<polygon fill="midnightblue" stroke="midnightblue" points="494.427,-138.509 502.504,-131.652 491.914,-131.976 494.427,-138.509"/>
</g>
<!-- Node10 -->
<g id="node10" class="node"><title>Node10</title>
<g id="a_node10"><a xlink:href="../../d9/d92/Metric_8h.html" target="_top" xlink:title="Monitoring/Metric.h">
<polygon fill="none" stroke="black" points="584,-112.5 584,-131.5 684,-131.5 684,-112.5 584,-112.5"/>
<text text-anchor="middle" x="634" y="-119.5" font-family="Helvetica,sans-Serif" font-size="10.00">Monitoring/Metric.h</text>
</a>
</g>
</g>
<!-- Node1&#45;&gt;Node10 -->
<g id="edge9" class="edge"><title>Node1&#45;&gt;Node10</title>
<path fill="none" stroke="midnightblue" d="M439.409,-168.498C487.917,-157.156 547.239,-143.286 587.541,-133.863"/>
<polygon fill="midnightblue" stroke="midnightblue" points="588.419,-137.252 597.359,-131.567 586.825,-130.436 588.419,-137.252"/>
</g>
<!-- Node10&#45;&gt;Node6 -->
<g id="edge10" class="edge"><title>Node10&#45;&gt;Node6</title>
<path fill="none" stroke="midnightblue" d="M590.205,-112.431C567.857,-105.944 541.895,-94.8102 525,-76 513.594,-63.301 509.014,-44.0991 507.186,-29.8551"/>
<polygon fill="midnightblue" stroke="midnightblue" points="510.654,-29.342 506.233,-19.7135 503.684,-29.9972 510.654,-29.342"/>
</g>
<!-- Node10&#45;&gt;Node8 -->
<g id="edge12" class="edge"><title>Node10&#45;&gt;Node8</title>
<path fill="none" stroke="midnightblue" d="M605.795,-112.444C573.724,-102.714 521.478,-86.8642 487.935,-76.688"/>
<polygon fill="midnightblue" stroke="midnightblue" points="488.753,-73.2789 478.168,-73.7251 486.721,-79.9775 488.753,-73.2789"/>
</g>
<!-- Node11 -->
<g id="node11" class="node"><title>Node11</title>
<polygon fill="none" stroke="#bfbfbf" points="534,-56.5 534,-75.5 580,-75.5 580,-56.5 534,-56.5"/>
<text text-anchor="middle" x="557" y="-63.5" font-family="Helvetica,sans-Serif" font-size="10.00">chrono</text>
</g>
<!-- Node10&#45;&gt;Node11 -->
<g id="edge11" class="edge"><title>Node10&#45;&gt;Node11</title>
<path fill="none" stroke="midnightblue" d="M621.629,-112.324C609.842,-104.058 591.868,-91.4527 577.864,-81.6322"/>
<polygon fill="midnightblue" stroke="midnightblue" points="579.538,-78.5307 569.341,-75.6545 575.518,-84.2619 579.538,-78.5307"/>
</g>
<!-- Node12 -->
<g id="node12" class="node"><title>Node12</title>
<polygon fill="none" stroke="#bfbfbf" points="598,-56.5 598,-75.5 690,-75.5 690,-56.5 598,-56.5"/>
<text text-anchor="middle" x="644" y="-63.5" font-family="Helvetica,sans-Serif" font-size="10.00">boost/variant.hpp</text>
</g>
<!-- Node10&#45;&gt;Node12 -->
<g id="edge13" class="edge"><title>Node10&#45;&gt;Node12</title>
<path fill="none" stroke="midnightblue" d="M635.651,-112.083C636.976,-104.927 638.882,-94.6353 640.539,-85.6911"/>
<polygon fill="midnightblue" stroke="midnightblue" points="644,-86.2212 642.379,-75.7511 637.117,-84.9466 644,-86.2212"/>
</g>
<!-- Node13 -->
<g id="node13" class="node"><title>Node13</title>
<g id="a_node13"><a xlink:href="../../d9/d33/Tag_8h.html" target="_top" xlink:title="Tag.h">
<polygon fill="none" stroke="black" points="708.5,-56.5 708.5,-75.5 749.5,-75.5 749.5,-56.5 708.5,-56.5"/>
<text text-anchor="middle" x="729" y="-63.5" font-family="Helvetica,sans-Serif" font-size="10.00">Tag.h</text>
</a>
</g>
</g>
<!-- Node10&#45;&gt;Node13 -->
<g id="edge14" class="edge"><title>Node10&#45;&gt;Node13</title>
<path fill="none" stroke="midnightblue" d="M649.263,-112.324C664.221,-103.822 687.255,-90.7288 704.727,-80.7975"/>
<polygon fill="midnightblue" stroke="midnightblue" points="706.81,-83.639 713.774,-75.6545 703.351,-77.5534 706.81,-83.639"/>
</g>
<!-- Node13&#45;&gt;Node6 -->
<g id="edge15" class="edge"><title>Node13&#45;&gt;Node6</title>
<path fill="none" stroke="midnightblue" d="M708.391,-58.6331C705.254,-57.7174 702.048,-56.8116 699,-56 642.019,-40.8258 574.83,-25.8001 536.64,-17.5252"/>
<polygon fill="midnightblue" stroke="midnightblue" points="537.183,-14.062 526.67,-15.3758 535.708,-20.9047 537.183,-14.062"/>
</g>
</g>
</svg>
