<?xml version="1.0" encoding="UTF-8" standalone="no"?>
<!DOCTYPE svg PUBLIC "-//W3C//DTD SVG 1.1//EN"
 "http://www.w3.org/Graphics/SVG/1.1/DTD/svg11.dtd">
<!-- Generated by graphviz version 2.36.0 (20140111.2315)
 -->
<!-- Title: /home/travis/build/AliceO2Group/Monitoring/test/testMonitoring.cxx Pages: 1 -->
<svg width="1465pt" height="398pt"
 viewBox="0.00 0.00 1465.00 398.00" xmlns="http://www.w3.org/2000/svg" xmlns:xlink="http://www.w3.org/1999/xlink">
<g id="graph0" class="graph" transform="scale(1 1) rotate(0) translate(4 394)">
<title>/home/travis/build/AliceO2Group/Monitoring/test/testMonitoring.cxx</title>
<!-- Node1 -->
<g id="node1" class="node"><title>Node1</title>
<polygon fill="#bfbfbf" stroke="black" points="1113,-348.5 1113,-389.5 1241,-389.5 1241,-348.5 1113,-348.5"/>
<text text-anchor="start" x="1121" y="-377.5" font-family="Helvetica,sans-Serif" font-size="10.00">/home/travis/build</text>
<text text-anchor="start" x="1121" y="-366.5" font-family="Helvetica,sans-Serif" font-size="10.00">/AliceO2Group/Monitoring</text>
<text text-anchor="middle" x="1177" y="-355.5" font-family="Helvetica,sans-Serif" font-size="10.00">/test/testMonitoring.cxx</text>
</g>
<!-- Node2 -->
<g id="node2" class="node"><title>Node2</title>
<polygon fill="none" stroke="#bfbfbf" points="1103,-56.5 1103,-75.5 1149,-75.5 1149,-56.5 1103,-56.5"/>
<text text-anchor="middle" x="1126" y="-63.5" font-family="Helvetica,sans-Serif" font-size="10.00">chrono</text>
</g>
<!-- Node1&#45;&gt;Node2 -->
<g id="edge1" class="edge"><title>Node1&#45;&gt;Node2</title>
<path fill="none" stroke="midnightblue" d="M1177,-348.171C1177,-322.181 1177,-275.177 1177,-235 1177,-235 1177,-235 1177,-177 1177,-141.244 1154.55,-104.508 1139.44,-83.8357"/>
<polygon fill="midnightblue" stroke="midnightblue" points="1142.14,-81.6137 1133.31,-75.7686 1136.57,-85.8485 1142.14,-81.6137"/>
</g>
<!-- Node3 -->
<g id="node3" class="node"><title>Node3</title>
<polygon fill="none" stroke="#bfbfbf" points="403,-56.5 403,-75.5 447,-75.5 447,-56.5 403,-56.5"/>
<text text-anchor="middle" x="425" y="-63.5" font-family="Helvetica,sans-Serif" font-size="10.00">vector</text>
</g>
<!-- Node1&#45;&gt;Node3 -->
<g id="edge2" class="edge"><title>Node1&#45;&gt;Node3</title>
<path fill="none" stroke="midnightblue" d="M1112.88,-367.551C867.27,-364.995 0,-347.974 0,-235 0,-235 0,-235 0,-177 0,-140.822 17.6397,-130.038 49,-112 107.239,-78.5016 312.153,-69.8086 392.413,-67.665"/>
<polygon fill="midnightblue" stroke="midnightblue" points="392.973,-71.1522 402.883,-67.4041 392.799,-64.1544 392.973,-71.1522"/>
</g>
<!-- Node4 -->
<g id="node4" class="node"><title>Node4</title>
<polygon fill="none" stroke="#bfbfbf" points="1205.5,-286.5 1205.5,-305.5 1324.5,-305.5 1324.5,-286.5 1205.5,-286.5"/>
<text text-anchor="middle" x="1265" y="-293.5" font-family="Helvetica,sans-Serif" font-size="10.00">boost/test/unit_test.hpp</text>
</g>
<!-- Node1&#45;&gt;Node4 -->
<g id="edge3" class="edge"><title>Node1&#45;&gt;Node4</title>
<path fill="none" stroke="midnightblue" d="M1201.51,-348.223C1215.7,-336.778 1233.27,-322.603 1246.33,-312.067"/>
<polygon fill="midnightblue" stroke="midnightblue" points="1248.59,-314.738 1254.17,-305.735 1244.19,-309.29 1248.59,-314.738"/>
</g>
<!-- Node5 -->
<g id="node5" class="node"><title>Node5</title>
<polygon fill="none" stroke="#bfbfbf" points="1343,-286.5 1343,-305.5 1457,-305.5 1457,-286.5 1343,-286.5"/>
<text text-anchor="middle" x="1400" y="-293.5" font-family="Helvetica,sans-Serif" font-size="10.00">boost/lexical_cast.hpp</text>
</g>
<!-- Node1&#45;&gt;Node5 -->
<g id="edge4" class="edge"><title>Node1&#45;&gt;Node5</title>
<path fill="none" stroke="midnightblue" d="M1238.53,-348.411C1278.6,-335.652 1329.53,-319.436 1363.37,-308.663"/>
<polygon fill="midnightblue" stroke="midnightblue" points="1364.82,-311.873 1373.29,-305.504 1362.7,-305.203 1364.82,-311.873"/>
</g>
<!-- Node6 -->
<g id="node6" class="node"><title>Node6</title>
<g id="a_node6"><a xlink:href="../../df/d4e/MonitoringFactory_8h.html" target="_top" xlink:title="../include/Monitoring\l/MonitoringFactory.h">
<polygon fill="none" stroke="black" points="864,-281 864,-311 970,-311 970,-281 864,-281"/>
<text text-anchor="start" x="872" y="-299" font-family="Helvetica,sans-Serif" font-size="10.00">../include/Monitoring</text>
<text text-anchor="middle" x="917" y="-288" font-family="Helvetica,sans-Serif" font-size="10.00">/MonitoringFactory.h</text>
</a>
</g>
</g>
<!-- Node1&#45;&gt;Node6 -->
<g id="edge5" class="edge"><title>Node1&#45;&gt;Node6</title>
<path fill="none" stroke="midnightblue" d="M1112.73,-350.449C1071.61,-339.22 1018.58,-324.739 978.093,-313.683"/>
<polygon fill="midnightblue" stroke="midnightblue" points="978.917,-310.28 968.348,-311.022 977.073,-317.033 978.917,-310.28"/>
</g>
<!-- Node7 -->
<g id="node7" class="node"><title>Node7</title>
<g id="a_node7"><a xlink:href="../../d0/d98/Monitoring_8h.html" target="_top" xlink:title="Monitoring/Monitoring.h">
<polygon fill="none" stroke="black" points="678,-224.5 678,-243.5 796,-243.5 796,-224.5 678,-224.5"/>
<text text-anchor="middle" x="737" y="-231.5" font-family="Helvetica,sans-Serif" font-size="10.00">Monitoring/Monitoring.h</text>
</a>
</g>
</g>
<!-- Node6&#45;&gt;Node7 -->
<g id="edge6" class="edge"><title>Node6&#45;&gt;Node7</title>
<path fill="none" stroke="midnightblue" d="M874.798,-280.933C843.659,-270.553 801.766,-256.589 772.375,-246.792"/>
<polygon fill="midnightblue" stroke="midnightblue" points="773.132,-243.355 762.538,-243.513 770.918,-249.995 773.132,-243.355"/>
</g>
<!-- Node7&#45;&gt;Node2 -->
<g id="edge8" class="edge"><title>Node7&#45;&gt;Node2</title>
<path fill="none" stroke="midnightblue" d="M796.144,-230.151C897.888,-224.656 1097.28,-211.056 1119,-188 1144.88,-160.529 1137.93,-112.149 1131.45,-85.6485"/>
<polygon fill="midnightblue" stroke="midnightblue" points="1134.77,-84.5083 1128.8,-75.7553 1128.01,-86.3205 1134.77,-84.5083"/>
</g>
<!-- Node7&#45;&gt;Node3 -->
<g id="edge15" class="edge"><title>Node7&#45;&gt;Node3</title>
<path fill="none" stroke="midnightblue" d="M677.847,-230.396C588.644,-225.775 414.632,-214.058 269,-188 173.07,-170.835 116.463,-209.21 57,-132 14.9807,-77.44 295.718,-68.6702 392.806,-67.266"/>
<polygon fill="midnightblue" stroke="midnightblue" points="392.969,-70.7643 402.924,-67.1371 392.88,-63.7649 392.969,-70.7643"/>
</g>
<!-- Node8 -->
<g id="node8" class="node"><title>Node8</title>
<polygon fill="none" stroke="#bfbfbf" points="66,-112.5 66,-131.5 112,-131.5 112,-112.5 66,-112.5"/>
<text text-anchor="middle" x="89" y="-119.5" font-family="Helvetica,sans-Serif" font-size="10.00">atomic</text>
</g>
<!-- Node7&#45;&gt;Node8 -->
<g id="edge7" class="edge"><title>Node7&#45;&gt;Node8</title>
<path fill="none" stroke="midnightblue" d="M677.927,-227.659C605.172,-220.644 477.957,-206.955 370,-188 260.412,-168.759 234.28,-157.594 126,-132 124.733,-131.701 123.443,-131.394 122.139,-131.083"/>
<polygon fill="midnightblue" stroke="midnightblue" points="122.623,-127.6 112.081,-128.663 120.985,-134.406 122.623,-127.6"/>
</g>
<!-- Node9 -->
<g id="node9" class="node"><title>Node9</title>
<polygon fill="none" stroke="#bfbfbf" points="617.5,-168.5 617.5,-187.5 652.5,-187.5 652.5,-168.5 617.5,-168.5"/>
<text text-anchor="middle" x="635" y="-175.5" font-family="Helvetica,sans-Serif" font-size="10.00">map</text>
</g>
<!-- Node7&#45;&gt;Node9 -->
<g id="edge9" class="edge"><title>Node7&#45;&gt;Node9</title>
<path fill="none" stroke="midnightblue" d="M720.612,-224.324C704.329,-215.703 679.133,-202.364 660.284,-192.386"/>
<polygon fill="midnightblue" stroke="midnightblue" points="661.823,-189.24 651.347,-187.655 658.548,-195.427 661.823,-189.24"/>
</g>
<!-- Node10 -->
<g id="node10" class="node"><title>Node10</title>
<polygon fill="none" stroke="#bfbfbf" points="945,-112.5 945,-131.5 997,-131.5 997,-112.5 945,-112.5"/>
<text text-anchor="middle" x="971" y="-119.5" font-family="Helvetica,sans-Serif" font-size="10.00">memory</text>
</g>
<!-- Node7&#45;&gt;Node10 -->
<g id="edge10" class="edge"><title>Node7&#45;&gt;Node10</title>
<path fill="none" stroke="midnightblue" d="M796.247,-226.71C832.093,-220.83 877.563,-209.546 913,-188 932.905,-175.897 949.855,-154.827 960.199,-139.962"/>
<polygon fill="midnightblue" stroke="midnightblue" points="963.111,-141.904 965.753,-131.644 957.289,-138.017 963.111,-141.904"/>
</g>
<!-- Node11 -->
<g id="node11" class="node"><title>Node11</title>
<polygon fill="none" stroke="#bfbfbf" points="930.5,-0.5 930.5,-19.5 971.5,-19.5 971.5,-0.5 930.5,-0.5"/>
<text text-anchor="middle" x="951" y="-7.5" font-family="Helvetica,sans-Serif" font-size="10.00">string</text>
</g>
<!-- Node7&#45;&gt;Node11 -->
<g id="edge11" class="edge"><title>Node7&#45;&gt;Node11</title>
<path fill="none" stroke="midnightblue" d="M796.116,-232.435C863.875,-228.041 970.192,-208.598 1006,-132 1011.4,-120.44 1018.64,-84.4619 1005,-56 998.84,-43.1485 987.063,-32.6578 976.075,-25.0483"/>
<polygon fill="midnightblue" stroke="midnightblue" points="977.86,-22.0348 967.555,-19.5733 974.076,-27.9238 977.86,-22.0348"/>
</g>
<!-- Node12 -->
<g id="node12" class="node"><title>Node12</title>
<polygon fill="none" stroke="#bfbfbf" points="587,-112.5 587,-131.5 631,-131.5 631,-112.5 587,-112.5"/>
<text text-anchor="middle" x="609" y="-119.5" font-family="Helvetica,sans-Serif" font-size="10.00">thread</text>
</g>
<!-- Node7&#45;&gt;Node12 -->
<g id="edge12" class="edge"><title>Node7&#45;&gt;Node12</title>
<path fill="none" stroke="midnightblue" d="M677.751,-227.472C651.913,-221.775 623.933,-210.432 608,-188 598.512,-174.641 600.107,-155.528 603.267,-141.484"/>
<polygon fill="midnightblue" stroke="midnightblue" points="606.73,-142.081 605.954,-131.515 599.972,-140.259 606.73,-142.081"/>
</g>
<!-- Node13 -->
<g id="node13" class="node"><title>Node13</title>
<polygon fill="none" stroke="#bfbfbf" points="671,-168.5 671,-187.5 709,-187.5 709,-168.5 671,-168.5"/>
<text text-anchor="middle" x="690" y="-175.5" font-family="Helvetica,sans-Serif" font-size="10.00">tuple</text>
</g>
<!-- Node7&#45;&gt;Node13 -->
<g id="edge13" class="edge"><title>Node7&#45;&gt;Node13</title>
<path fill="none" stroke="midnightblue" d="M729.239,-224.083C722.463,-216.298 712.457,-204.801 704.245,-195.367"/>
<polygon fill="midnightblue" stroke="midnightblue" points="706.822,-192.996 697.617,-187.751 701.542,-197.592 706.822,-192.996"/>
</g>
<!-- Node14 -->
<g id="node14" class="node"><title>Node14</title>
<polygon fill="none" stroke="#bfbfbf" points="649.5,-112.5 649.5,-131.5 732.5,-131.5 732.5,-112.5 649.5,-112.5"/>
<text text-anchor="middle" x="691" y="-119.5" font-family="Helvetica,sans-Serif" font-size="10.00">unordered_map</text>
</g>
<!-- Node7&#45;&gt;Node14 -->
<g id="edge14" class="edge"><title>Node7&#45;&gt;Node14</title>
<path fill="none" stroke="midnightblue" d="M735.213,-224.342C732.43,-211.647 726.482,-187.388 718,-168 713.801,-158.401 707.925,-148.345 702.728,-140.18"/>
<polygon fill="midnightblue" stroke="midnightblue" points="705.502,-138.029 697.078,-131.604 699.657,-141.88 705.502,-138.029"/>
</g>
<!-- Node15 -->
<g id="node15" class="node"><title>Node15</title>
<g id="a_node15"><a xlink:href="../../df/d83/Backend_8h.html" target="_top" xlink:title="Monitoring/Backend.h">
<polygon fill="none" stroke="black" points="999.5,-168.5 999.5,-187.5 1110.5,-187.5 1110.5,-168.5 999.5,-168.5"/>
<text text-anchor="middle" x="1055" y="-175.5" font-family="Helvetica,sans-Serif" font-size="10.00">Monitoring/Backend.h</text>
</a>
</g>
</g>
<!-- Node7&#45;&gt;Node15 -->
<g id="edge16" class="edge"><title>Node7&#45;&gt;Node15</title>
<path fill="none" stroke="midnightblue" d="M787.388,-224.444C843.676,-214.885 934.752,-199.419 994.758,-189.23"/>
<polygon fill="midnightblue" stroke="midnightblue" points="995.575,-192.641 1004.85,-187.516 994.403,-185.74 995.575,-192.641"/>
</g>
<!-- Node19 -->
<g id="node19" class="node"><title>Node19</title>
<g id="a_node19"><a xlink:href="../../dc/de0/DerivedMetrics_8h.html" target="_top" xlink:title="Monitoring/DerivedMetrics.h">
<polygon fill="none" stroke="black" points="765.5,-168.5 765.5,-187.5 904.5,-187.5 904.5,-168.5 765.5,-168.5"/>
<text text-anchor="middle" x="835" y="-175.5" font-family="Helvetica,sans-Serif" font-size="10.00">Monitoring/DerivedMetrics.h</text>
</a>
</g>
</g>
<!-- Node7&#45;&gt;Node19 -->
<g id="edge26" class="edge"><title>Node7&#45;&gt;Node19</title>
<path fill="none" stroke="midnightblue" d="M752.745,-224.324C768.319,-215.743 792.377,-202.486 810.459,-192.522"/>
<polygon fill="midnightblue" stroke="midnightblue" points="812.224,-195.546 819.294,-187.655 808.846,-189.415 812.224,-195.546"/>
</g>
<!-- Node20 -->
<g id="node20" class="node"><title>Node20</title>
<g id="a_node20"><a xlink:href="../../df/d93/ProcessMonitor_8h.html" target="_top" xlink:title="Monitoring/ProcessMonitor.h">
<polygon fill="none" stroke="black" points="379.5,-168.5 379.5,-187.5 520.5,-187.5 520.5,-168.5 379.5,-168.5"/>
<text text-anchor="middle" x="450" y="-175.5" font-family="Helvetica,sans-Serif" font-size="10.00">Monitoring/ProcessMonitor.h</text>
</a>
</g>
</g>
<!-- Node7&#45;&gt;Node20 -->
<g id="edge32" class="edge"><title>Node7&#45;&gt;Node20</title>
<path fill="none" stroke="midnightblue" d="M691.524,-224.444C641.038,-214.944 559.544,-199.611 505.38,-189.42"/>
<polygon fill="midnightblue" stroke="midnightblue" points="505.738,-185.926 495.263,-187.516 504.444,-192.805 505.738,-185.926"/>
</g>
<!-- Node15&#45;&gt;Node2 -->
<g id="edge17" class="edge"><title>Node15&#45;&gt;Node2</title>
<path fill="none" stroke="midnightblue" d="M1060.57,-168.368C1072.24,-150.296 1099.42,-108.176 1114.83,-84.3074"/>
<polygon fill="midnightblue" stroke="midnightblue" points="1117.97,-85.8913 1120.45,-75.5914 1112.09,-82.0952 1117.97,-85.8913"/>
</g>
<!-- Node15&#45;&gt;Node11 -->
<g id="edge18" class="edge"><title>Node15&#45;&gt;Node11</title>
<path fill="none" stroke="midnightblue" d="M1056.37,-168.422C1059.29,-147.182 1063.93,-91.3122 1039,-56 1025.43,-36.7818 1001.16,-25.2416 981.534,-18.6675"/>
<polygon fill="midnightblue" stroke="midnightblue" points="982.365,-15.2615 971.778,-15.668 980.308,-21.9524 982.365,-15.2615"/>
</g>
<!-- Node16 -->
<g id="node16" class="node"><title>Node16</title>
<g id="a_node16"><a xlink:href="../../d9/d92/Metric_8h.html" target="_top" xlink:title="Monitoring/Metric.h">
<polygon fill="none" stroke="black" points="827,-112.5 827,-131.5 927,-131.5 927,-112.5 827,-112.5"/>
<text text-anchor="middle" x="877" y="-119.5" font-family="Helvetica,sans-Serif" font-size="10.00">Monitoring/Metric.h</text>
</a>
</g>
</g>
<!-- Node15&#45;&gt;Node16 -->
<g id="edge19" class="edge"><title>Node15&#45;&gt;Node16</title>
<path fill="none" stroke="midnightblue" d="M1026.8,-168.444C996.59,-159.28 948.489,-144.688 914.971,-134.519"/>
<polygon fill="midnightblue" stroke="midnightblue" points="915.658,-131.07 905.073,-131.516 913.626,-137.769 915.658,-131.07"/>
</g>
<!-- Node16&#45;&gt;Node2 -->
<g id="edge21" class="edge"><title>Node16&#45;&gt;Node2</title>
<path fill="none" stroke="midnightblue" d="M916.455,-112.444C965.181,-101.876 1047.2,-84.0897 1092.83,-74.1934"/>
<polygon fill="midnightblue" stroke="midnightblue" points="1093.77,-77.5715 1102.8,-72.0315 1092.28,-70.7305 1093.77,-77.5715"/>
</g>
<!-- Node16&#45;&gt;Node3 -->
<g id="edge22" class="edge"><title>Node16&#45;&gt;Node3</title>
<path fill="none" stroke="midnightblue" d="M826.901,-115.015C733.603,-103.868 535.635,-80.2175 457.599,-70.8946"/>
<polygon fill="midnightblue" stroke="midnightblue" points="457.752,-67.3881 447.408,-69.677 456.922,-74.3386 457.752,-67.3881"/>
</g>
<!-- Node16&#45;&gt;Node11 -->
<g id="edge20" class="edge"><title>Node16&#45;&gt;Node11</title>
<path fill="none" stroke="midnightblue" d="M882.991,-112.406C889.271,-103.374 899.401,-88.7376 908,-76 918.844,-59.9375 931.015,-41.501 939.633,-28.3753"/>
<polygon fill="midnightblue" stroke="midnightblue" points="942.655,-30.1485 945.21,-19.8664 936.801,-26.3111 942.655,-30.1485"/>
</g>
<!-- Node17 -->
<g id="node17" class="node"><title>Node17</title>
<polygon fill="none" stroke="#bfbfbf" points="807,-56.5 807,-75.5 899,-75.5 899,-56.5 807,-56.5"/>
<text text-anchor="middle" x="853" y="-63.5" font-family="Helvetica,sans-Serif" font-size="10.00">boost/variant.hpp</text>
</g>
<!-- Node16&#45;&gt;Node17 -->
<g id="edge23" class="edge"><title>Node16&#45;&gt;Node17</title>
<path fill="none" stroke="midnightblue" d="M873.037,-112.083C869.787,-104.77 865.081,-94.1814 861.046,-85.1034"/>
<polygon fill="midnightblue" stroke="midnightblue" points="864.149,-83.4677 856.889,-75.7511 857.752,-86.3107 864.149,-83.4677"/>
</g>
<!-- Node18 -->
<g id="node18" class="node"><title>Node18</title>
<g id="a_node18"><a xlink:href="../../d9/d33/Tag_8h.html" target="_top" xlink:title="Tag.h">
<polygon fill="none" stroke="black" points="955.5,-56.5 955.5,-75.5 996.5,-75.5 996.5,-56.5 955.5,-56.5"/>
<text text-anchor="middle" x="976" y="-63.5" font-family="Helvetica,sans-Serif" font-size="10.00">Tag.h</text>
</a>
</g>
</g>
<!-- Node16&#45;&gt;Node18 -->
<g id="edge24" class="edge"><title>Node16&#45;&gt;Node18</title>
<path fill="none" stroke="midnightblue" d="M892.906,-112.324C908.638,-103.743 932.942,-90.486 951.209,-80.5224"/>
<polygon fill="midnightblue" stroke="midnightblue" points="953.03,-83.5157 960.133,-75.6545 949.678,-77.3704 953.03,-83.5157"/>
</g>
<!-- Node18&#45;&gt;Node11 -->
<g id="edge25" class="edge"><title>Node18&#45;&gt;Node11</title>
<path fill="none" stroke="midnightblue" d="M971.872,-56.083C968.486,-48.77 963.584,-38.1814 959.381,-29.1034"/>
<polygon fill="midnightblue" stroke="midnightblue" points="962.429,-27.3553 955.051,-19.7511 956.077,-30.2962 962.429,-27.3553"/>
</g>
<!-- Node19&#45;&gt;Node3 -->
<g id="edge30" class="edge"><title>Node19&#45;&gt;Node3</title>
<path fill="none" stroke="midnightblue" d="M825.724,-168.328C809.781,-153.976 775.549,-125.528 741,-112 642.876,-73.577 516.164,-67.4067 457.48,-66.7742"/>
<polygon fill="midnightblue" stroke="midnightblue" points="457.357,-63.2735 447.336,-66.714 457.315,-70.2734 457.357,-63.2735"/>
</g>
<!-- Node19&#45;&gt;Node10 -->
<g id="edge28" class="edge"><title>Node19&#45;&gt;Node10</title>
<path fill="none" stroke="midnightblue" d="M856.55,-168.444C879.031,-159.517 914.488,-145.439 939.98,-135.317"/>
<polygon fill="midnightblue" stroke="midnightblue" points="941.549,-138.46 949.551,-131.516 938.965,-131.954 941.549,-138.46"/>
</g>
<!-- Node19&#45;&gt;Node11 -->
<g id="edge29" class="edge"><title>Node19&#45;&gt;Node11</title>
<path fill="none" stroke="midnightblue" d="M827.717,-168.492C810.589,-147.413 771.153,-91.8807 798,-56 812.656,-36.4129 879.979,-22.4253 920.277,-15.6396"/>
<polygon fill="midnightblue" stroke="midnightblue" points="921.069,-19.0568 930.376,-13.9941 919.943,-12.1479 921.069,-19.0568"/>
</g>
<!-- Node19&#45;&gt;Node14 -->
<g id="edge27" class="edge"><title>Node19&#45;&gt;Node14</title>
<path fill="none" stroke="midnightblue" d="M812.183,-168.444C788.168,-159.438 750.171,-145.189 723.131,-135.049"/>
<polygon fill="midnightblue" stroke="midnightblue" points="724.303,-131.751 713.71,-131.516 721.845,-138.305 724.303,-131.751"/>
</g>
<!-- Node19&#45;&gt;Node16 -->
<g id="edge31" class="edge"><title>Node19&#45;&gt;Node16</title>
<path fill="none" stroke="midnightblue" d="M841.935,-168.083C847.929,-160.377 856.752,-149.033 864.048,-139.653"/>
<polygon fill="midnightblue" stroke="midnightblue" points="866.817,-141.793 870.194,-131.751 861.291,-137.496 866.817,-141.793"/>
</g>
<!-- Node20&#45;&gt;Node3 -->
<g id="edge39" class="edge"><title>Node20&#45;&gt;Node3</title>
<path fill="none" stroke="midnightblue" d="M448.038,-168.368C444.004,-150.617 434.697,-109.666 429.227,-85.5974"/>
<polygon fill="midnightblue" stroke="midnightblue" points="432.582,-84.567 426.953,-75.5914 425.756,-86.1185 432.582,-84.567"/>
</g>
<!-- Node20&#45;&gt;Node8 -->
<g id="edge33" class="edge"><title>Node20&#45;&gt;Node8</title>
<path fill="none" stroke="midnightblue" d="M379.194,-169.245C313.329,-161.541 212.608,-148.504 126,-132 124.721,-131.756 123.421,-131.497 122.109,-131.226"/>
<polygon fill="midnightblue" stroke="midnightblue" points="122.536,-127.735 112.014,-128.977 121.014,-134.568 122.536,-127.735"/>
</g>
<!-- Node20&#45;&gt;Node11 -->
<g id="edge37" class="edge"><title>Node20&#45;&gt;Node11</title>
<path fill="none" stroke="midnightblue" d="M379.407,-170.865C297.919,-163.054 173.203,-148.568 159,-132 153.215,-125.251 153.491,-118.976 159,-112 207.247,-50.9053 780.703,-19.2596 920.443,-12.4246"/>
<polygon fill="midnightblue" stroke="midnightblue" points="920.645,-15.919 930.464,-11.9408 920.307,-8.92713 920.645,-15.919"/>
</g>
<!-- Node20&#45;&gt;Node12 -->
<g id="edge38" class="edge"><title>Node20&#45;&gt;Node12</title>
<path fill="none" stroke="midnightblue" d="M475.194,-168.444C502.887,-159.038 547.419,-143.914 577.423,-133.724"/>
<polygon fill="midnightblue" stroke="midnightblue" points="578.653,-137.003 586.996,-130.473 576.402,-130.375 578.653,-137.003"/>
</g>
<!-- Node20&#45;&gt;Node16 -->
<g id="edge41" class="edge"><title>Node20&#45;&gt;Node16</title>
<path fill="none" stroke="midnightblue" d="M517.659,-168.444C599.918,-158.041 737.503,-140.641 816.422,-130.661"/>
<polygon fill="midnightblue" stroke="midnightblue" points="817.205,-134.09 826.687,-129.363 816.327,-127.145 817.205,-134.09"/>
</g>
<!-- Node21 -->
<g id="node21" class="node"><title>Node21</title>
<polygon fill="none" stroke="#bfbfbf" points="267.5,-112.5 267.5,-131.5 396.5,-131.5 396.5,-112.5 267.5,-112.5"/>
<text text-anchor="middle" x="332" y="-119.5" font-family="Helvetica,sans-Serif" font-size="10.00">boost/algorithm/string.hpp</text>
</g>
<!-- Node20&#45;&gt;Node21 -->
<g id="edge34" class="edge"><title>Node20&#45;&gt;Node21</title>
<path fill="none" stroke="midnightblue" d="M431.303,-168.444C412.056,-159.636 381.848,-145.812 359.8,-135.722"/>
<polygon fill="midnightblue" stroke="midnightblue" points="361.16,-132.495 350.61,-131.516 358.247,-138.86 361.16,-132.495"/>
</g>
<!-- Node22 -->
<g id="node22" class="node"><title>Node22</title>
<polygon fill="none" stroke="#bfbfbf" points="453,-112.5 453,-131.5 497,-131.5 497,-112.5 453,-112.5"/>
<text text-anchor="middle" x="475" y="-119.5" font-family="Helvetica,sans-Serif" font-size="10.00">mutex</text>
</g>
<!-- Node20&#45;&gt;Node22 -->
<g id="edge35" class="edge"><title>Node20&#45;&gt;Node22</title>
<path fill="none" stroke="midnightblue" d="M454.128,-168.083C457.514,-160.77 462.416,-150.181 466.619,-141.103"/>
<polygon fill="midnightblue" stroke="midnightblue" points="469.923,-142.296 470.949,-131.751 463.571,-139.355 469.923,-142.296"/>
</g>
<!-- Node23 -->
<g id="node23" class="node"><title>Node23</title>
<polygon fill="none" stroke="#bfbfbf" points="515,-112.5 515,-131.5 569,-131.5 569,-112.5 515,-112.5"/>
<text text-anchor="middle" x="542" y="-119.5" font-family="Helvetica,sans-Serif" font-size="10.00">iostream</text>
</g>
<!-- Node20&#45;&gt;Node23 -->
<g id="edge36" class="edge"><title>Node20&#45;&gt;Node23</title>
<path fill="none" stroke="midnightblue" d="M464.781,-168.324C479.267,-159.822 501.573,-146.729 518.493,-136.797"/>
<polygon fill="midnightblue" stroke="midnightblue" points="520.403,-139.735 527.255,-131.655 516.859,-133.698 520.403,-139.735"/>
</g>
<!-- Node24 -->
<g id="node24" class="node"><title>Node24</title>
<polygon fill="none" stroke="#bfbfbf" points="168.5,-112.5 168.5,-131.5 249.5,-131.5 249.5,-112.5 168.5,-112.5"/>
<text text-anchor="middle" x="209" y="-119.5" font-family="Helvetica,sans-Serif" font-size="10.00">sys/resource.h</text>
</g>
<!-- Node20&#45;&gt;Node24 -->
<g id="edge40" class="edge"><title>Node20&#45;&gt;Node24</title>
<path fill="none" stroke="midnightblue" d="M411.813,-168.444C369.859,-159.043 302.406,-143.929 256.929,-133.739"/>
<polygon fill="midnightblue" stroke="midnightblue" points="257.532,-130.288 247.009,-131.516 256.001,-137.118 257.532,-130.288"/>
</g>
</g>
</svg>
