<?xml version="1.0" encoding="UTF-8" standalone="no"?>
<!DOCTYPE svg PUBLIC "-//W3C//DTD SVG 1.1//EN"
 "http://www.w3.org/Graphics/SVG/1.1/DTD/svg11.dtd">
<!-- Generated by graphviz version 2.36.0 (20140111.2315)
 -->
<!-- Title: /home/travis/build/AliceO2Group/Monitoring/src/UriParser/UriParser.h Pages: 1 -->
<svg width="579pt" height="128pt"
 viewBox="0.00 0.00 579.00 128.00" xmlns="http://www.w3.org/2000/svg" xmlns:xlink="http://www.w3.org/1999/xlink">
<g id="graph0" class="graph" transform="scale(1 1) rotate(0) translate(4 124)">
<title>/home/travis/build/AliceO2Group/Monitoring/src/UriParser/UriParser.h</title>
<!-- Node1 -->
<g id="node1" class="node"><title>Node1</title>
<polygon fill="#bfbfbf" stroke="black" points="223,-78.5 223,-119.5 353,-119.5 353,-78.5 223,-78.5"/>
<text text-anchor="start" x="231" y="-107.5" font-family="Helvetica,sans-Serif" font-size="10.00">/home/travis/build</text>
<text text-anchor="start" x="231" y="-96.5" font-family="Helvetica,sans-Serif" font-size="10.00">/AliceO2Group/Monitoring</text>
<text text-anchor="middle" x="288" y="-85.5" font-family="Helvetica,sans-Serif" font-size="10.00">/src/UriParser/UriParser.h</text>
</g>
<!-- Node2 -->
<g id="node2" class="node"><title>Node2</title>
<g id="a_node2"><a xlink:href="../../d6/d98/MonitoringFactory_8cxx.html" target="_top" xlink:title="/home/travis/build\l/AliceO2Group/Monitoring\l/src/MonitoringFactory.cxx">
<polygon fill="none" stroke="black" points="-0.5,-0.5 -0.5,-41.5 132.5,-41.5 132.5,-0.5 -0.5,-0.5"/>
<text text-anchor="start" x="7.5" y="-29.5" font-family="Helvetica,sans-Serif" font-size="10.00">/home/travis/build</text>
<text text-anchor="start" x="7.5" y="-18.5" font-family="Helvetica,sans-Serif" font-size="10.00">/AliceO2Group/Monitoring</text>
<text text-anchor="middle" x="66" y="-7.5" font-family="Helvetica,sans-Serif" font-size="10.00">/src/MonitoringFactory.cxx</text>
</a>
</g>
</g>
<!-- Node1&#45;&gt;Node2 -->
<g id="edge1" class="edge"><title>Node1&#45;&gt;Node2</title>
<path fill="none" stroke="midnightblue" d="M221.298,-75.1652C189.96,-64.4366 152.985,-51.7786 122.977,-41.5056"/>
<polygon fill="midnightblue" stroke="midnightblue" points="220.235,-78.5005 230.829,-78.4281 222.502,-71.8778 220.235,-78.5005"/>
</g>
<!-- Node3 -->
<g id="node3" class="node"><title>Node3</title>
<g id="a_node3"><a xlink:href="../../d2/d31/testApMon_8cxx.html" target="_top" xlink:title="/home/travis/build\l/AliceO2Group/Monitoring\l/test/testApMon.cxx">
<polygon fill="none" stroke="black" points="151,-0.5 151,-41.5 279,-41.5 279,-0.5 151,-0.5"/>
<text text-anchor="start" x="159" y="-29.5" font-family="Helvetica,sans-Serif" font-size="10.00">/home/travis/build</text>
<text text-anchor="start" x="159" y="-18.5" font-family="Helvetica,sans-Serif" font-size="10.00">/AliceO2Group/Monitoring</text>
<text text-anchor="middle" x="215" y="-7.5" font-family="Helvetica,sans-Serif" font-size="10.00">/test/testApMon.cxx</text>
</a>
</g>
</g>
<!-- Node1&#45;&gt;Node3 -->
<g id="edge2" class="edge"><title>Node1&#45;&gt;Node3</title>
<path fill="none" stroke="midnightblue" d="M262.262,-71.204C252.86,-61.416 242.412,-50.5388 233.736,-41.5056"/>
<polygon fill="midnightblue" stroke="midnightblue" points="259.749,-73.6407 269.201,-78.4281 264.798,-68.7915 259.749,-73.6407"/>
</g>
<!-- Node4 -->
<g id="node4" class="node"><title>Node4</title>
<g id="a_node4"><a xlink:href="../../dd/d7a/testFlume_8cxx.html" target="_top" xlink:title="/home/travis/build\l/AliceO2Group/Monitoring\l/test/testFlume.cxx">
<polygon fill="none" stroke="black" points="297,-0.5 297,-41.5 425,-41.5 425,-0.5 297,-0.5"/>
<text text-anchor="start" x="305" y="-29.5" font-family="Helvetica,sans-Serif" font-size="10.00">/home/travis/build</text>
<text text-anchor="start" x="305" y="-18.5" font-family="Helvetica,sans-Serif" font-size="10.00">/AliceO2Group/Monitoring</text>
<text text-anchor="middle" x="361" y="-7.5" font-family="Helvetica,sans-Serif" font-size="10.00">/test/testFlume.cxx</text>
</a>
</g>
</g>
<!-- Node1&#45;&gt;Node4 -->
<g id="edge3" class="edge"><title>Node1&#45;&gt;Node4</title>
<path fill="none" stroke="midnightblue" d="M313.738,-71.204C323.14,-61.416 333.588,-50.5388 342.264,-41.5056"/>
<polygon fill="midnightblue" stroke="midnightblue" points="311.202,-68.7915 306.799,-78.4281 316.251,-73.6407 311.202,-68.7915"/>
</g>
<!-- Node5 -->
<g id="node5" class="node"><title>Node5</title>
<g id="a_node5"><a xlink:href="../../de/df5/testInfluxDb_8cxx.html" target="_top" xlink:title="/home/travis/build\l/AliceO2Group/Monitoring\l/test/testInfluxDb.cxx">
<polygon fill="none" stroke="black" points="443,-0.5 443,-41.5 571,-41.5 571,-0.5 443,-0.5"/>
<text text-anchor="start" x="451" y="-29.5" font-family="Helvetica,sans-Serif" font-size="10.00">/home/travis/build</text>
<text text-anchor="start" x="451" y="-18.5" font-family="Helvetica,sans-Serif" font-size="10.00">/AliceO2Group/Monitoring</text>
<text text-anchor="middle" x="507" y="-7.5" font-family="Helvetica,sans-Serif" font-size="10.00">/test/testInfluxDb.cxx</text>
</a>
</g>
</g>
<!-- Node1&#45;&gt;Node5 -->
<g id="edge4" class="edge"><title>Node1&#45;&gt;Node5</title>
<path fill="none" stroke="midnightblue" d="M354.2,-75.0264C385.03,-64.3275 421.318,-51.7343 450.793,-41.5056"/>
<polygon fill="midnightblue" stroke="midnightblue" points="352.698,-71.843 344.398,-78.4281 354.993,-78.4561 352.698,-71.843"/>
</g>
</g>
</svg>
