<?xml version="1.0" encoding="UTF-8" standalone="no"?>
<!DOCTYPE svg PUBLIC "-//W3C//DTD SVG 1.1//EN"
 "http://www.w3.org/Graphics/SVG/1.1/DTD/svg11.dtd">
<!-- Generated by graphviz version 2.36.0 (20140111.2315)
 -->
<!-- Title: /home/travis/build/AliceO2Group/Monitoring/src/Transports/TransportInterface.h Pages: 1 -->
<!--zoomable 206 -->
<svg id="main" version="1.1" xmlns="http://www.w3.org/2000/svg" xmlns:xlink="http://www.w3.org/1999/xlink" xml:space="preserve" onload="init(evt)">
<style type="text/css"><![CDATA[
.edge:hover path { stroke: red; }
.edge:hover polygon { stroke: red; fill: red; }
]]></style>
<script type="text/javascript"><![CDATA[
var edges = document.getElementsByTagName('g');
if (edges && edges.length) {
  for (var i=0;i<edges.length;i++) {
    if (edges[i].id.substr(0,4)=='edge') {
      edges[i].setAttribute('class','edge');
    }
  }
}
]]></script>
        <defs>
                <circle id="rim" cx="0" cy="0" r="7"/>
                <circle id="rim2" cx="0" cy="0" r="3.5"/>
                <g id="zoomPlus">
                        <use xlink:href="#rim" fill="#404040">
                                <set attributeName="fill" to="#808080" begin="zoomplus.mouseover" end="zoomplus.mouseout"/>
                        </use>
                        <path d="M-4,0h8M0,-4v8" fill="none" stroke="white" stroke-width="1.5" pointer-events="none"/>
                </g>
                <g id="zoomMin">
                        <use xlink:href="#rim" fill="#404040">
                                <set attributeName="fill" to="#808080" begin="zoomminus.mouseover" end="zoomminus.mouseout"/>
                        </use>
                        <path d="M-4,0h8" fill="none" stroke="white" stroke-width="1.5" pointer-events="none"/>
                </g>
                <g id="dirArrow">
                        <path fill="none" stroke="white" stroke-width="1.5" d="M0,-3.0v7 M-2.5,-0.5L0,-3.0L2.5,-0.5"/>
                </g>
               <g id="resetDef">
                       <use xlink:href="#rim2" fill="#404040">
                               <set attributeName="fill" to="#808080" begin="reset.mouseover" end="reset.mouseout"/>
                       </use>
               </g>
        </defs>

<script type="text/javascript">
var viewWidth = 1326;
var viewHeight = 206;
var sectionId = 'dynsection-1';
</script>
<script xlink:href="../../svgpan.js"/>
<svg id="graph" class="graph">
<g id="viewport">
<title>/home/travis/build/AliceO2Group/Monitoring/src/Transports/TransportInterface.h</title>
<!-- Node1 -->
<g id="node1" class="node"><title>Node1</title>
<polygon fill="#bfbfbf" stroke="black" points="717.5,-156.5 717.5,-197.5 890.5,-197.5 890.5,-156.5 717.5,-156.5"/>
<text text-anchor="start" x="725.5" y="-185.5" font-family="Helvetica,sans-Serif" font-size="10.00">/home/travis/build</text>
<text text-anchor="start" x="725.5" y="-174.5" font-family="Helvetica,sans-Serif" font-size="10.00">/AliceO2Group/Monitoring</text>
<text text-anchor="middle" x="804" y="-163.5" font-family="Helvetica,sans-Serif" font-size="10.00">/src/Transports/TransportInterface.h</text>
</g>
<!-- Node2 -->
<g id="node2" class="node"><title>Node2</title>
<g id="a_node2"><a xlink:href="../../d4/d57/Flume_8h.html" target="_top" xlink:title="/home/travis/build\l/AliceO2Group/Monitoring\l/src/Backends/Flume.h">
<polygon fill="none" stroke="black" points="298,-78.5 298,-119.5 426,-119.5 426,-78.5 298,-78.5"/>
<text text-anchor="start" x="306" y="-107.5" font-family="Helvetica,sans-Serif" font-size="10.00">/home/travis/build</text>
<text text-anchor="start" x="306" y="-96.5" font-family="Helvetica,sans-Serif" font-size="10.00">/AliceO2Group/Monitoring</text>
<text text-anchor="middle" x="362" y="-85.5" font-family="Helvetica,sans-Serif" font-size="10.00">/src/Backends/Flume.h</text>
</a>
</g>
</g>
<!-- Node1&#45;&gt;Node2 -->
<g id="edge1" class="edge"><title>Node1&#45;&gt;Node2</title>
<path fill="none" stroke="midnightblue" d="M707.505,-159.408C622.143,-144.73 499.998,-123.728 426.126,-111.026"/>
<polygon fill="midnightblue" stroke="midnightblue" points="707.017,-162.876 717.466,-161.121 708.203,-155.977 707.017,-162.876"/>
</g>
<!-- Node7 -->
<g id="node7" class="node"><title>Node7</title>
<g id="a_node7"><a xlink:href="../../d2/d5c/UDP_8h.html" target="_top" xlink:title="/home/travis/build\l/AliceO2Group/Monitoring\l/src/Transports/UDP.h">
<polygon fill="none" stroke="black" points="591,-78.5 591,-119.5 719,-119.5 719,-78.5 591,-78.5"/>
<text text-anchor="start" x="599" y="-107.5" font-family="Helvetica,sans-Serif" font-size="10.00">/home/travis/build</text>
<text text-anchor="start" x="599" y="-96.5" font-family="Helvetica,sans-Serif" font-size="10.00">/AliceO2Group/Monitoring</text>
<text text-anchor="middle" x="655" y="-85.5" font-family="Helvetica,sans-Serif" font-size="10.00">/src/Transports/UDP.h</text>
</a>
</g>
</g>
<!-- Node1&#45;&gt;Node7 -->
<g id="edge6" class="edge"><title>Node1&#45;&gt;Node7</title>
<path fill="none" stroke="midnightblue" d="M756.492,-151.768C736.067,-141.35 712.514,-129.336 693.241,-119.506"/>
<polygon fill="midnightblue" stroke="midnightblue" points="755.13,-155.002 765.629,-156.428 758.311,-148.766 755.13,-155.002"/>
</g>
<!-- Node10 -->
<g id="node10" class="node"><title>Node10</title>
<g id="a_node10"><a xlink:href="../../d1/d78/InfluxDB_8h.html" target="_top" xlink:title="/home/travis/build\l/AliceO2Group/Monitoring\l/src/Backends/InfluxDB.h">
<polygon fill="none" stroke="black" points="739.5,-78.5 739.5,-119.5 868.5,-119.5 868.5,-78.5 739.5,-78.5"/>
<text text-anchor="start" x="747.5" y="-107.5" font-family="Helvetica,sans-Serif" font-size="10.00">/home/travis/build</text>
<text text-anchor="start" x="747.5" y="-96.5" font-family="Helvetica,sans-Serif" font-size="10.00">/AliceO2Group/Monitoring</text>
<text text-anchor="middle" x="804" y="-85.5" font-family="Helvetica,sans-Serif" font-size="10.00">/src/Backends/InfluxDB.h</text>
</a>
</g>
</g>
<!-- Node1&#45;&gt;Node10 -->
<g id="edge10" class="edge"><title>Node1&#45;&gt;Node10</title>
<path fill="none" stroke="midnightblue" d="M804,-146.297C804,-137.301 804,-127.653 804,-119.506"/>
<polygon fill="midnightblue" stroke="midnightblue" points="800.5,-146.428 804,-156.428 807.5,-146.428 800.5,-146.428"/>
</g>
<!-- Node12 -->
<g id="node12" class="node"><title>Node12</title>
<g id="a_node12"><a xlink:href="../../dd/d7d/HTTP_8h.html" target="_top" xlink:title="/home/travis/build\l/AliceO2Group/Monitoring\l/src/Transports/HTTP.h">
<polygon fill="none" stroke="black" points="888,-78.5 888,-119.5 1016,-119.5 1016,-78.5 888,-78.5"/>
<text text-anchor="start" x="896" y="-107.5" font-family="Helvetica,sans-Serif" font-size="10.00">/home/travis/build</text>
<text text-anchor="start" x="896" y="-96.5" font-family="Helvetica,sans-Serif" font-size="10.00">/AliceO2Group/Monitoring</text>
<text text-anchor="middle" x="952" y="-85.5" font-family="Helvetica,sans-Serif" font-size="10.00">/src/Transports/HTTP.h</text>
</a>
</g>
</g>
<!-- Node1&#45;&gt;Node12 -->
<g id="edge13" class="edge"><title>Node1&#45;&gt;Node12</title>
<path fill="none" stroke="midnightblue" d="M851.19,-151.768C871.477,-141.35 894.872,-129.336 914.015,-119.506"/>
<polygon fill="midnightblue" stroke="midnightblue" points="849.411,-148.747 842.114,-156.428 852.608,-154.973 849.411,-148.747"/>
</g>
<!-- Node14 -->
<g id="node14" class="node"><title>Node14</title>
<g id="a_node14"><a xlink:href="../../d3/d41/TCP_8h.html" target="_top" xlink:title="/home/travis/build\l/AliceO2Group/Monitoring\l/src/Transports/TCP.h">
<polygon fill="none" stroke="black" points="1112,-78.5 1112,-119.5 1240,-119.5 1240,-78.5 1112,-78.5"/>
<text text-anchor="start" x="1120" y="-107.5" font-family="Helvetica,sans-Serif" font-size="10.00">/home/travis/build</text>
<text text-anchor="start" x="1120" y="-96.5" font-family="Helvetica,sans-Serif" font-size="10.00">/AliceO2Group/Monitoring</text>
<text text-anchor="middle" x="1176" y="-85.5" font-family="Helvetica,sans-Serif" font-size="10.00">/src/Transports/TCP.h</text>
</a>
</g>
</g>
<!-- Node1&#45;&gt;Node14 -->
<g id="edge16" class="edge"><title>Node1&#45;&gt;Node14</title>
<path fill="none" stroke="midnightblue" d="M900.825,-156.219C967.324,-142.633 1053.74,-124.977 1111.84,-113.107"/>
<polygon fill="midnightblue" stroke="midnightblue" points="899.845,-152.846 890.748,-158.277 901.246,-159.705 899.845,-152.846"/>
</g>
<!-- Node3 -->
<g id="node3" class="node"><title>Node3</title>
<g id="a_node3"><a xlink:href="../../d7/d21/Flume_8cxx.html" target="_top" xlink:title="/home/travis/build\l/AliceO2Group/Monitoring\l/src/Backends/Flume.cxx">
<polygon fill="none" stroke="black" points="444,-0.5 444,-41.5 572,-41.5 572,-0.5 444,-0.5"/>
<text text-anchor="start" x="452" y="-29.5" font-family="Helvetica,sans-Serif" font-size="10.00">/home/travis/build</text>
<text text-anchor="start" x="452" y="-18.5" font-family="Helvetica,sans-Serif" font-size="10.00">/AliceO2Group/Monitoring</text>
<text text-anchor="middle" x="508" y="-7.5" font-family="Helvetica,sans-Serif" font-size="10.00">/src/Backends/Flume.cxx</text>
</a>
</g>
</g>
<!-- Node2&#45;&gt;Node3 -->
<g id="edge2" class="edge"><title>Node2&#45;&gt;Node3</title>
<path fill="none" stroke="midnightblue" d="M408.552,-73.7675C428.565,-63.3498 451.644,-51.3358 470.529,-41.5056"/>
<polygon fill="midnightblue" stroke="midnightblue" points="406.853,-70.7061 399.599,-78.4281 410.085,-76.9153 406.853,-70.7061"/>
</g>
<!-- Node4 -->
<g id="node4" class="node"><title>Node4</title>
<g id="a_node4"><a xlink:href="../../d5/db4/Monitoring_8cxx.html" target="_top" xlink:title="/home/travis/build\l/AliceO2Group/Monitoring\l/src/Monitoring.cxx">
<polygon fill="none" stroke="black" points="0,-0.5 0,-41.5 128,-41.5 128,-0.5 0,-0.5"/>
<text text-anchor="start" x="8" y="-29.5" font-family="Helvetica,sans-Serif" font-size="10.00">/home/travis/build</text>
<text text-anchor="start" x="8" y="-18.5" font-family="Helvetica,sans-Serif" font-size="10.00">/AliceO2Group/Monitoring</text>
<text text-anchor="middle" x="64" y="-7.5" font-family="Helvetica,sans-Serif" font-size="10.00">/src/Monitoring.cxx</text>
</a>
</g>
</g>
<!-- Node2&#45;&gt;Node4 -->
<g id="edge3" class="edge"><title>Node2&#45;&gt;Node4</title>
<path fill="none" stroke="midnightblue" d="M288.143,-80.0808C244.179,-69.2989 187.328,-55.1554 137,-42 134.076,-41.2357 131.088,-40.4472 128.071,-39.6452"/>
<polygon fill="midnightblue" stroke="midnightblue" points="287.343,-83.4882 297.889,-82.4676 289.008,-76.6892 287.343,-83.4882"/>
</g>
<!-- Node5 -->
<g id="node5" class="node"><title>Node5</title>
<g id="a_node5"><a xlink:href="../../d6/d98/MonitoringFactory_8cxx.html" target="_top" xlink:title="/home/travis/build\l/AliceO2Group/Monitoring\l/src/MonitoringFactory.cxx">
<polygon fill="none" stroke="black" points="146.5,-0.5 146.5,-41.5 279.5,-41.5 279.5,-0.5 146.5,-0.5"/>
<text text-anchor="start" x="154.5" y="-29.5" font-family="Helvetica,sans-Serif" font-size="10.00">/home/travis/build</text>
<text text-anchor="start" x="154.5" y="-18.5" font-family="Helvetica,sans-Serif" font-size="10.00">/AliceO2Group/Monitoring</text>
<text text-anchor="middle" x="213" y="-7.5" font-family="Helvetica,sans-Serif" font-size="10.00">/src/MonitoringFactory.cxx</text>
</a>
</g>
</g>
<!-- Node2&#45;&gt;Node5 -->
<g id="edge4" class="edge"><title>Node2&#45;&gt;Node5</title>
<path fill="none" stroke="midnightblue" d="M314.492,-73.7675C294.067,-63.3498 270.514,-51.3358 251.241,-41.5056"/>
<polygon fill="midnightblue" stroke="midnightblue" points="313.13,-77.0022 323.629,-78.4281 316.311,-70.7665 313.13,-77.0022"/>
</g>
<!-- Node6 -->
<g id="node6" class="node"><title>Node6</title>
<g id="a_node6"><a xlink:href="../../dd/d7a/testFlume_8cxx.html" target="_top" xlink:title="/home/travis/build\l/AliceO2Group/Monitoring\l/test/testFlume.cxx">
<polygon fill="none" stroke="black" points="298,-0.5 298,-41.5 426,-41.5 426,-0.5 298,-0.5"/>
<text text-anchor="start" x="306" y="-29.5" font-family="Helvetica,sans-Serif" font-size="10.00">/home/travis/build</text>
<text text-anchor="start" x="306" y="-18.5" font-family="Helvetica,sans-Serif" font-size="10.00">/AliceO2Group/Monitoring</text>
<text text-anchor="middle" x="362" y="-7.5" font-family="Helvetica,sans-Serif" font-size="10.00">/test/testFlume.cxx</text>
</a>
</g>
</g>
<!-- Node2&#45;&gt;Node6 -->
<g id="edge5" class="edge"><title>Node2&#45;&gt;Node6</title>
<path fill="none" stroke="midnightblue" d="M362,-68.2965C362,-59.3009 362,-49.6532 362,-41.5056"/>
<polygon fill="midnightblue" stroke="midnightblue" points="358.5,-68.4281 362,-78.4281 365.5,-68.4281 358.5,-68.4281"/>
</g>
<!-- Node7&#45;&gt;Node3 -->
<g id="edge7" class="edge"><title>Node7&#45;&gt;Node3</title>
<path fill="none" stroke="midnightblue" d="M608.129,-73.7675C587.979,-63.3498 564.742,-51.3358 545.728,-41.5056"/>
<polygon fill="midnightblue" stroke="midnightblue" points="606.653,-76.9445 617.144,-78.4281 609.868,-70.7264 606.653,-76.9445"/>
</g>
<!-- Node8 -->
<g id="node8" class="node"><title>Node8</title>
<g id="a_node8"><a xlink:href="../../d8/dd1/InfluxDB_8cxx.html" target="_top" xlink:title="/home/travis/build\l/AliceO2Group/Monitoring\l/src/Backends/InfluxDB.cxx">
<polygon fill="none" stroke="black" points="882,-0.5 882,-41.5 1022,-41.5 1022,-0.5 882,-0.5"/>
<text text-anchor="start" x="890" y="-29.5" font-family="Helvetica,sans-Serif" font-size="10.00">/home/travis/build</text>
<text text-anchor="start" x="890" y="-18.5" font-family="Helvetica,sans-Serif" font-size="10.00">/AliceO2Group/Monitoring</text>
<text text-anchor="middle" x="952" y="-7.5" font-family="Helvetica,sans-Serif" font-size="10.00">/src/Backends/InfluxDB.cxx</text>
</a>
</g>
</g>
<!-- Node7&#45;&gt;Node8 -->
<g id="edge8" class="edge"><title>Node7&#45;&gt;Node8</title>
<path fill="none" stroke="midnightblue" d="M729.007,-78.2575C729.339,-78.1714 729.67,-78.0856 730,-78 793.442,-61.5562 809.455,-58.0423 873,-42 875.881,-41.2728 878.82,-40.5302 881.79,-39.7798"/>
<polygon fill="midnightblue" stroke="midnightblue" points="728.01,-74.9003 719.218,-80.812 729.778,-81.6735 728.01,-74.9003"/>
</g>
<!-- Node9 -->
<g id="node9" class="node"><title>Node9</title>
<g id="a_node9"><a xlink:href="../../d9/de9/UDP_8cxx.html" target="_top" xlink:title="/home/travis/build\l/AliceO2Group/Monitoring\l/src/Transports/UDP.cxx">
<polygon fill="none" stroke="black" points="590,-0.5 590,-41.5 718,-41.5 718,-0.5 590,-0.5"/>
<text text-anchor="start" x="598" y="-29.5" font-family="Helvetica,sans-Serif" font-size="10.00">/home/travis/build</text>
<text text-anchor="start" x="598" y="-18.5" font-family="Helvetica,sans-Serif" font-size="10.00">/AliceO2Group/Monitoring</text>
<text text-anchor="middle" x="654" y="-7.5" font-family="Helvetica,sans-Serif" font-size="10.00">/src/Transports/UDP.cxx</text>
</a>
</g>
</g>
<!-- Node7&#45;&gt;Node9 -->
<g id="edge9" class="edge"><title>Node7&#45;&gt;Node9</title>
<path fill="none" stroke="midnightblue" d="M654.609,-68.2965C654.491,-59.3009 654.364,-49.6532 654.257,-41.5056"/>
<polygon fill="midnightblue" stroke="midnightblue" points="651.111,-68.4751 654.742,-78.4281 658.111,-68.3829 651.111,-68.4751"/>
</g>
<!-- Node10&#45;&gt;Node8 -->
<g id="edge11" class="edge"><title>Node10&#45;&gt;Node8</title>
<path fill="none" stroke="midnightblue" d="M851.19,-73.7675C871.477,-63.3498 894.872,-51.3358 914.015,-41.5056"/>
<polygon fill="midnightblue" stroke="midnightblue" points="849.411,-70.7465 842.114,-78.4281 852.608,-76.9735 849.411,-70.7465"/>
</g>
<!-- Node11 -->
<g id="node11" class="node"><title>Node11</title>
<g id="a_node11"><a xlink:href="../../de/df5/testInfluxDb_8cxx.html" target="_top" xlink:title="/home/travis/build\l/AliceO2Group/Monitoring\l/test/testInfluxDb.cxx">
<polygon fill="none" stroke="black" points="736,-0.5 736,-41.5 864,-41.5 864,-0.5 736,-0.5"/>
<text text-anchor="start" x="744" y="-29.5" font-family="Helvetica,sans-Serif" font-size="10.00">/home/travis/build</text>
<text text-anchor="start" x="744" y="-18.5" font-family="Helvetica,sans-Serif" font-size="10.00">/AliceO2Group/Monitoring</text>
<text text-anchor="middle" x="800" y="-7.5" font-family="Helvetica,sans-Serif" font-size="10.00">/test/testInfluxDb.cxx</text>
</a>
</g>
</g>
<!-- Node10&#45;&gt;Node11 -->
<g id="edge12" class="edge"><title>Node10&#45;&gt;Node11</title>
<path fill="none" stroke="midnightblue" d="M802.437,-68.2965C801.963,-59.3009 801.455,-49.6532 801.027,-41.5056"/>
<polygon fill="midnightblue" stroke="midnightblue" points="798.949,-68.6259 802.97,-78.4281 805.939,-68.2579 798.949,-68.6259"/>
</g>
<!-- Node12&#45;&gt;Node8 -->
<g id="edge14" class="edge"><title>Node12&#45;&gt;Node8</title>
<path fill="none" stroke="midnightblue" d="M952,-68.2965C952,-59.3009 952,-49.6532 952,-41.5056"/>
<polygon fill="midnightblue" stroke="midnightblue" points="948.5,-68.4281 952,-78.4281 955.5,-68.4281 948.5,-68.4281"/>
</g>
<!-- Node13 -->
<g id="node13" class="node"><title>Node13</title>
<g id="a_node13"><a xlink:href="../../d3/d77/HTTP_8cxx.html" target="_top" xlink:title="/home/travis/build\l/AliceO2Group/Monitoring\l/src/Transports/HTTP.cxx">
<polygon fill="none" stroke="black" points="1040.5,-0.5 1040.5,-41.5 1171.5,-41.5 1171.5,-0.5 1040.5,-0.5"/>
<text text-anchor="start" x="1048.5" y="-29.5" font-family="Helvetica,sans-Serif" font-size="10.00">/home/travis/build</text>
<text text-anchor="start" x="1048.5" y="-18.5" font-family="Helvetica,sans-Serif" font-size="10.00">/AliceO2Group/Monitoring</text>
<text text-anchor="middle" x="1106" y="-7.5" font-family="Helvetica,sans-Serif" font-size="10.00">/src/Transports/HTTP.cxx</text>
</a>
</g>
</g>
<!-- Node12&#45;&gt;Node13 -->
<g id="edge15" class="edge"><title>Node12&#45;&gt;Node13</title>
<path fill="none" stroke="midnightblue" d="M1000.82,-73.9082C1021.99,-63.4581 1046.47,-51.3801 1066.48,-41.5056"/>
<polygon fill="midnightblue" stroke="midnightblue" points="999.077,-70.864 991.659,-78.4281 1002.18,-77.1412 999.077,-70.864"/>
</g>
<!-- Node15 -->
<g id="node15" class="node"><title>Node15</title>
<g id="a_node15"><a xlink:href="../../db/ddf/TCP_8cxx.html" target="_top" xlink:title="/home/travis/build\l/AliceO2Group/Monitoring\l/src/Transports/TCP.cxx">
<polygon fill="none" stroke="black" points="1190,-0.5 1190,-41.5 1318,-41.5 1318,-0.5 1190,-0.5"/>
<text text-anchor="start" x="1198" y="-29.5" font-family="Helvetica,sans-Serif" font-size="10.00">/home/travis/build</text>
<text text-anchor="start" x="1198" y="-18.5" font-family="Helvetica,sans-Serif" font-size="10.00">/AliceO2Group/Monitoring</text>
<text text-anchor="middle" x="1254" y="-7.5" font-family="Helvetica,sans-Serif" font-size="10.00">/src/Transports/TCP.cxx</text>
</a>
</g>
</g>
<!-- Node14&#45;&gt;Node15 -->
<g id="edge17" class="edge"><title>Node14&#45;&gt;Node15</title>
<path fill="none" stroke="midnightblue" d="M1203.5,-71.204C1213.55,-61.416 1224.71,-50.5388 1233.98,-41.5056"/>
<polygon fill="midnightblue" stroke="midnightblue" points="1200.81,-68.9426 1196.09,-78.4281 1205.69,-73.9562 1200.81,-68.9426"/>
</g>
</g>
</svg>
        <g id="navigator" transform="translate(0 0)" fill="#404254">
                <rect fill="#f2f5e9" fill-opacity="0.5" stroke="#606060" stroke-width=".5" x="0" y="0" width="60" height="60"/>
                <use id="zoomplus" xlink:href="#zoomPlus" x="17" y="9" onmousedown="handleZoom(evt,'in')"/>
                <use id="zoomminus" xlink:href="#zoomMin" x="42" y="9" onmousedown="handleZoom(evt,'out')"/>
                <use id="reset" xlink:href="#resetDef" x="30" y="36" onmousedown="handleReset()"/>
                <g id="arrowUp" xlink:href="#dirArrow" transform="translate(30 24)" onmousedown="handlePan(0,-1)">
                  <use xlink:href="#rim" fill="#404040">
                        <set attributeName="fill" to="#808080" begin="arrowUp.mouseover" end="arrowUp.mouseout"/>
                  </use>
                  <path fill="none" stroke="white" stroke-width="1.5" d="M0,-3.0v7 M-2.5,-0.5L0,-3.0L2.5,-0.5"/>
                </g>
                <g id="arrowRight" xlink:href="#dirArrow" transform="rotate(90) translate(36 -43)" onmousedown="handlePan(1,0)">
                  <use xlink:href="#rim" fill="#404040">
                        <set attributeName="fill" to="#808080" begin="arrowRight.mouseover" end="arrowRight.mouseout"/>
                  </use>
                  <path fill="none" stroke="white" stroke-width="1.5" d="M0,-3.0v7 M-2.5,-0.5L0,-3.0L2.5,-0.5"/>
                </g>
                <g id="arrowDown" xlink:href="#dirArrow" transform="rotate(180) translate(-30 -48)" onmousedown="handlePan(0,1)">
                  <use xlink:href="#rim" fill="#404040">
                        <set attributeName="fill" to="#808080" begin="arrowDown.mouseover" end="arrowDown.mouseout"/>
                  </use>
                  <path fill="none" stroke="white" stroke-width="1.5" d="M0,-3.0v7 M-2.5,-0.5L0,-3.0L2.5,-0.5"/>
                </g>
                <g id="arrowLeft" xlink:href="#dirArrow" transform="rotate(270) translate(-36 17)" onmousedown="handlePan(-1,0)">
                  <use xlink:href="#rim" fill="#404040">
                        <set attributeName="fill" to="#808080" begin="arrowLeft.mouseover" end="arrowLeft.mouseout"/>
                  </use>
                  <path fill="none" stroke="white" stroke-width="1.5" d="M0,-3.0v7 M-2.5,-0.5L0,-3.0L2.5,-0.5"/>
                </g>
        </g>
        <svg viewBox="0 0 15 15" width="100%" height="30px" preserveAspectRatio="xMaxYMin meet">
         <g id="arrow_out" transform="scale(0.3 0.3)">
          <a xlink:href="TransportInterface_8h__dep__incl_org.svg" target="_base">
           <rect id="button" ry="5" rx="5" y="6" x="6" height="38" width="38"
                fill="#f2f5e9" fill-opacity="0.5" stroke="#606060" stroke-width="1.0"/>
           <path id="arrow"
             d="M 11.500037,31.436501 C 11.940474,20.09759 22.043105,11.32322 32.158766,21.979434 L 37.068811,17.246167 C 37.068811,17.246167 37.088388,32 37.088388,32 L 22.160133,31.978069 C 22.160133,31.978069 26.997745,27.140456 26.997745,27.140456 C 18.528582,18.264221 13.291696,25.230495 11.500037,31.436501 z"
             style="fill:#404040;"/>
          </a>
         </g>
        </svg>
</svg>
