<?xml version="1.0" encoding="UTF-8" standalone="no"?>
<!DOCTYPE svg PUBLIC "-//W3C//DTD SVG 1.1//EN"
 "http://www.w3.org/Graphics/SVG/1.1/DTD/svg11.dtd">
<!-- Generated by graphviz version 2.36.0 (20140111.2315)
 -->
<!-- Title: o2::monitoring::MonitoringInternalException Pages: 1 -->
<svg width="164pt" height="204pt"
 viewBox="0.00 0.00 164.00 204.00" xmlns="http://www.w3.org/2000/svg" xmlns:xlink="http://www.w3.org/1999/xlink">
<g id="graph0" class="graph" transform="scale(1 1) rotate(0) translate(4 200)">
<title>o2::monitoring::MonitoringInternalException</title>
<!-- Node1 -->
<g id="node1" class="node"><title>Node1</title>
<polygon fill="#bfbfbf" stroke="black" points="-1,-0.5 -1,-101.5 157,-101.5 157,-0.5 -1,-0.5"/>
<text text-anchor="start" x="7" y="-89.5" font-family="Helvetica,sans-Serif" font-size="10.00">o2::monitoring::Monitoring</text>
<text text-anchor="middle" x="78" y="-78.5" font-family="Helvetica,sans-Serif" font-size="10.00">InternalException</text>
<polyline fill="none" stroke="black" points="-1,-71.5 157,-71.5 "/>
<text text-anchor="middle" x="78" y="-59.5" font-family="Helvetica,sans-Serif" font-size="10.00"> </text>
<polyline fill="none" stroke="black" points="-1,-52.5 157,-52.5 "/>
<text text-anchor="start" x="7" y="-40.5" font-family="Helvetica,sans-Serif" font-size="10.00">+ MonitoringInternalException()</text>
<text text-anchor="start" x="7" y="-29.5" font-family="Helvetica,sans-Serif" font-size="10.00">+ MonitoringInternalException()</text>
<text text-anchor="start" x="7" y="-18.5" font-family="Helvetica,sans-Serif" font-size="10.00">+ ~MonitoringInternalException()</text>
<text text-anchor="start" x="7" y="-7.5" font-family="Helvetica,sans-Serif" font-size="10.00">+ what()</text>
</g>
<!-- Node2 -->
<g id="node2" class="node"><title>Node2</title>
<polygon fill="none" stroke="#bfbfbf" points="39,-138.5 39,-195.5 117,-195.5 117,-138.5 39,-138.5"/>
<text text-anchor="middle" x="78" y="-183.5" font-family="Helvetica,sans-Serif" font-size="10.00">std::exception</text>
<polyline fill="none" stroke="#bfbfbf" points="39,-176.5 117,-176.5 "/>
<text text-anchor="middle" x="78" y="-164.5" font-family="Helvetica,sans-Serif" font-size="10.00"> </text>
<polyline fill="none" stroke="#bfbfbf" points="39,-157.5 117,-157.5 "/>
<text text-anchor="middle" x="78" y="-145.5" font-family="Helvetica,sans-Serif" font-size="10.00"> </text>
</g>
<!-- Node2&#45;&gt;Node1 -->
<g id="edge1" class="edge"><title>Node2&#45;&gt;Node1</title>
<path fill="none" stroke="midnightblue" d="M78,-128.354C78,-119.796 78,-110.578 78,-101.608"/>
<polygon fill="none" stroke="midnightblue" points="74.5001,-128.404 78,-138.404 81.5001,-128.404 74.5001,-128.404"/>
</g>
</g>
</svg>
