<?xml version="1.0" encoding="UTF-8" standalone="no"?>
<!DOCTYPE svg PUBLIC "-//W3C//DTD SVG 1.1//EN"
 "http://www.w3.org/Graphics/SVG/1.1/DTD/svg11.dtd">
<!-- Generated by graphviz version 2.36.0 (20140111.2315)
 -->
<!-- Title: o2::monitoring::Backend Pages: 1 -->
<!--zoomable 304 -->
<svg id="main" version="1.1" xmlns="http://www.w3.org/2000/svg" xmlns:xlink="http://www.w3.org/1999/xlink" xml:space="preserve" onload="init(evt)">
<style type="text/css"><![CDATA[
.edge:hover path { stroke: red; }
.edge:hover polygon { stroke: red; fill: red; }
]]></style>
<script type="text/javascript"><![CDATA[
var edges = document.getElementsByTagName('g');
if (edges && edges.length) {
  for (var i=0;i<edges.length;i++) {
    if (edges[i].id.substr(0,4)=='edge') {
      edges[i].setAttribute('class','edge');
    }
  }
}
]]></script>
        <defs>
                <circle id="rim" cx="0" cy="0" r="7"/>
                <circle id="rim2" cx="0" cy="0" r="3.5"/>
                <g id="zoomPlus">
                        <use xlink:href="#rim" fill="#404040">
                                <set attributeName="fill" to="#808080" begin="zoomplus.mouseover" end="zoomplus.mouseout"/>
                        </use>
                        <path d="M-4,0h8M0,-4v8" fill="none" stroke="white" stroke-width="1.5" pointer-events="none"/>
                </g>
                <g id="zoomMin">
                        <use xlink:href="#rim" fill="#404040">
                                <set attributeName="fill" to="#808080" begin="zoomminus.mouseover" end="zoomminus.mouseout"/>
                        </use>
                        <path d="M-4,0h8" fill="none" stroke="white" stroke-width="1.5" pointer-events="none"/>
                </g>
                <g id="dirArrow">
                        <path fill="none" stroke="white" stroke-width="1.5" d="M0,-3.0v7 M-2.5,-0.5L0,-3.0L2.5,-0.5"/>
                </g>
               <g id="resetDef">
                       <use xlink:href="#rim2" fill="#404040">
                               <set attributeName="fill" to="#808080" begin="reset.mouseover" end="reset.mouseout"/>
                       </use>
               </g>
        </defs>

<script type="text/javascript">
var viewWidth = 566;
var viewHeight = 304;
var sectionId = 'dynsection-0';
</script>
<script xlink:href="../../svgpan.js"/>
<svg id="graph" class="graph">
<g id="viewport">
<title>o2::monitoring::Backend</title>
<!-- Node1 -->
<g id="node1" class="node"><title>Node1</title>
<polygon fill="#bfbfbf" stroke="black" points="218,-183 218,-295 340,-295 340,-183 218,-183"/>
<text text-anchor="middle" x="279" y="-283" font-family="Helvetica,sans-Serif" font-size="10.00">o2::monitoring::Backend</text>
<polyline fill="none" stroke="black" points="218,-276 340,-276 "/>
<text text-anchor="middle" x="279" y="-264" font-family="Helvetica,sans-Serif" font-size="10.00"> </text>
<polyline fill="none" stroke="black" points="218,-257 340,-257 "/>
<text text-anchor="start" x="226" y="-245" font-family="Helvetica,sans-Serif" font-size="10.00">+ Backend()</text>
<text text-anchor="start" x="226" y="-234" font-family="Helvetica,sans-Serif" font-size="10.00">+ ~Backend()</text>
<text text-anchor="start" x="226" y="-223" font-family="Helvetica,sans-Serif" font-size="10.00">+ send()</text>
<text text-anchor="start" x="226" y="-212" font-family="Helvetica,sans-Serif" font-size="10.00">+ send()</text>
<text text-anchor="start" x="226" y="-201" font-family="Helvetica,sans-Serif" font-size="10.00">+ sendMultiple()</text>
<text text-anchor="start" x="226" y="-190" font-family="Helvetica,sans-Serif" font-size="10.00">+ addGlobalTag()</text>
</g>
<!-- Node2 -->
<g id="node2" class="node"><title>Node2</title>
<g id="a_node2"><a xlink:href="../../d0/d1b/classo2_1_1monitoring_1_1backends_1_1ApMonBackend.html" target="_top" xlink:title="Backend that uses AppMon (MonALISA) ">
<polygon fill="none" stroke="black" points="0,-11.5 0,-134.5 126,-134.5 126,-11.5 0,-11.5"/>
<text text-anchor="start" x="8" y="-122.5" font-family="Helvetica,sans-Serif" font-size="10.00">o2::monitoring::backends</text>
<text text-anchor="middle" x="63" y="-111.5" font-family="Helvetica,sans-Serif" font-size="10.00">::ApMonBackend</text>
<polyline fill="none" stroke="black" points="0,-104.5 126,-104.5 "/>
<text text-anchor="middle" x="63" y="-92.5" font-family="Helvetica,sans-Serif" font-size="10.00"> </text>
<polyline fill="none" stroke="black" points="0,-85.5 126,-85.5 "/>
<text text-anchor="start" x="8" y="-73.5" font-family="Helvetica,sans-Serif" font-size="10.00">+ ApMonBackend()</text>
<text text-anchor="start" x="8" y="-62.5" font-family="Helvetica,sans-Serif" font-size="10.00">+ ~ApMonBackend()</text>
<text text-anchor="start" x="8" y="-51.5" font-family="Helvetica,sans-Serif" font-size="10.00">+ send()</text>
<text text-anchor="start" x="8" y="-40.5" font-family="Helvetica,sans-Serif" font-size="10.00">+ send()</text>
<text text-anchor="start" x="8" y="-29.5" font-family="Helvetica,sans-Serif" font-size="10.00">+ sendMultiple()</text>
<text text-anchor="start" x="8" y="-18.5" font-family="Helvetica,sans-Serif" font-size="10.00">+ addGlobalTag()</text>
</a>
</g>
</g>
<!-- Node1&#45;&gt;Node2 -->
<g id="edge1" class="edge"><title>Node1&#45;&gt;Node2</title>
<path fill="none" stroke="midnightblue" d="M209.004,-197.533C184.78,-182.436 157.964,-164.455 135,-146 130.591,-142.456 126.159,-138.674 121.778,-134.767"/>
<polygon fill="none" stroke="midnightblue" points="207.452,-200.688 217.8,-202.96 211.128,-194.731 207.452,-200.688"/>
</g>
<!-- Node3 -->
<g id="node3" class="node"><title>Node3</title>
<g id="a_node3"><a xlink:href="../../d9/df5/classo2_1_1monitoring_1_1backends_1_1Flume.html" target="_top" xlink:title="Backend that sends metrics to custum Apache Flume source. ">
<polygon fill="none" stroke="black" points="144,-6 144,-140 270,-140 270,-6 144,-6"/>
<text text-anchor="start" x="152" y="-128" font-family="Helvetica,sans-Serif" font-size="10.00">o2::monitoring::backends</text>
<text text-anchor="middle" x="207" y="-117" font-family="Helvetica,sans-Serif" font-size="10.00">::Flume</text>
<polyline fill="none" stroke="black" points="144,-110 270,-110 "/>
<text text-anchor="middle" x="207" y="-98" font-family="Helvetica,sans-Serif" font-size="10.00"> </text>
<polyline fill="none" stroke="black" points="144,-91 270,-91 "/>
<text text-anchor="start" x="152" y="-79" font-family="Helvetica,sans-Serif" font-size="10.00">+ Flume()</text>
<text text-anchor="start" x="152" y="-68" font-family="Helvetica,sans-Serif" font-size="10.00">+ ~Flume()</text>
<text text-anchor="start" x="152" y="-57" font-family="Helvetica,sans-Serif" font-size="10.00">+ convertTimestamp()</text>
<text text-anchor="start" x="152" y="-46" font-family="Helvetica,sans-Serif" font-size="10.00">+ send()</text>
<text text-anchor="start" x="152" y="-35" font-family="Helvetica,sans-Serif" font-size="10.00">+ send()</text>
<text text-anchor="start" x="152" y="-24" font-family="Helvetica,sans-Serif" font-size="10.00">+ sendMultiple()</text>
<text text-anchor="start" x="152" y="-13" font-family="Helvetica,sans-Serif" font-size="10.00">+ addGlobalTag()</text>
</a>
</g>
</g>
<!-- Node1&#45;&gt;Node3 -->
<g id="edge2" class="edge"><title>Node1&#45;&gt;Node3</title>
<path fill="none" stroke="midnightblue" d="M250.793,-173.752C245.928,-162.67 240.864,-151.134 235.979,-140.007"/>
<polygon fill="none" stroke="midnightblue" points="247.6,-175.185 254.825,-182.934 254.01,-172.371 247.6,-175.185"/>
</g>
<!-- Node4 -->
<g id="node4" class="node"><title>Node4</title>
<g id="a_node4"><a xlink:href="../../dd/d09/classo2_1_1monitoring_1_1backends_1_1InfluxDB.html" target="_top" xlink:title="Backend that sends metrics to InfluxDB time&#45;series databse. ">
<polygon fill="none" stroke="black" points="288,-0.5 288,-145.5 414,-145.5 414,-0.5 288,-0.5"/>
<text text-anchor="start" x="296" y="-133.5" font-family="Helvetica,sans-Serif" font-size="10.00">o2::monitoring::backends</text>
<text text-anchor="middle" x="351" y="-122.5" font-family="Helvetica,sans-Serif" font-size="10.00">::InfluxDB</text>
<polyline fill="none" stroke="black" points="288,-115.5 414,-115.5 "/>
<text text-anchor="middle" x="351" y="-103.5" font-family="Helvetica,sans-Serif" font-size="10.00"> </text>
<polyline fill="none" stroke="black" points="288,-96.5 414,-96.5 "/>
<text text-anchor="start" x="296" y="-84.5" font-family="Helvetica,sans-Serif" font-size="10.00">+ InfluxDB()</text>
<text text-anchor="start" x="296" y="-73.5" font-family="Helvetica,sans-Serif" font-size="10.00">+ InfluxDB()</text>
<text text-anchor="start" x="296" y="-62.5" font-family="Helvetica,sans-Serif" font-size="10.00">+ ~InfluxDB()</text>
<text text-anchor="start" x="296" y="-51.5" font-family="Helvetica,sans-Serif" font-size="10.00">+ convertTimestamp()</text>
<text text-anchor="start" x="296" y="-40.5" font-family="Helvetica,sans-Serif" font-size="10.00">+ send()</text>
<text text-anchor="start" x="296" y="-29.5" font-family="Helvetica,sans-Serif" font-size="10.00">+ send()</text>
<text text-anchor="start" x="296" y="-18.5" font-family="Helvetica,sans-Serif" font-size="10.00">+ sendMultiple()</text>
<text text-anchor="start" x="296" y="-7.5" font-family="Helvetica,sans-Serif" font-size="10.00">+ addGlobalTag()</text>
</a>
</g>
</g>
<!-- Node1&#45;&gt;Node4 -->
<g id="edge3" class="edge"><title>Node1&#45;&gt;Node4</title>
<path fill="none" stroke="midnightblue" d="M307.318,-173.498C311.349,-164.316 315.515,-154.827 319.6,-145.522"/>
<polygon fill="none" stroke="midnightblue" points="303.99,-172.371 303.175,-182.934 310.4,-175.185 303.99,-172.371"/>
</g>
<!-- Node5 -->
<g id="node5" class="node"><title>Node5</title>
<g id="a_node5"><a xlink:href="../../d7/db9/classo2_1_1monitoring_1_1backends_1_1InfoLoggerBackend.html" target="_top" xlink:title="Backend that injects metrics to InfoLogger. ">
<polygon fill="none" stroke="black" points="432,-11.5 432,-134.5 558,-134.5 558,-11.5 432,-11.5"/>
<text text-anchor="start" x="440" y="-122.5" font-family="Helvetica,sans-Serif" font-size="10.00">o2::monitoring::backends</text>
<text text-anchor="middle" x="495" y="-111.5" font-family="Helvetica,sans-Serif" font-size="10.00">::InfoLoggerBackend</text>
<polyline fill="none" stroke="black" points="432,-104.5 558,-104.5 "/>
<text text-anchor="middle" x="495" y="-92.5" font-family="Helvetica,sans-Serif" font-size="10.00"> </text>
<polyline fill="none" stroke="black" points="432,-85.5 558,-85.5 "/>
<text text-anchor="start" x="440" y="-73.5" font-family="Helvetica,sans-Serif" font-size="10.00">+ InfoLoggerBackend()</text>
<text text-anchor="start" x="440" y="-62.5" font-family="Helvetica,sans-Serif" font-size="10.00">+ ~InfoLoggerBackend()</text>
<text text-anchor="start" x="440" y="-51.5" font-family="Helvetica,sans-Serif" font-size="10.00">+ send()</text>
<text text-anchor="start" x="440" y="-40.5" font-family="Helvetica,sans-Serif" font-size="10.00">+ send()</text>
<text text-anchor="start" x="440" y="-29.5" font-family="Helvetica,sans-Serif" font-size="10.00">+ sendMultiple()</text>
<text text-anchor="start" x="440" y="-18.5" font-family="Helvetica,sans-Serif" font-size="10.00">+ addGlobalTag()</text>
</a>
</g>
</g>
<!-- Node1&#45;&gt;Node5 -->
<g id="edge4" class="edge"><title>Node1&#45;&gt;Node5</title>
<path fill="none" stroke="midnightblue" d="M348.996,-197.533C373.22,-182.436 400.036,-164.455 423,-146 427.409,-142.456 431.841,-138.674 436.222,-134.767"/>
<polygon fill="none" stroke="midnightblue" points="346.872,-194.731 340.2,-202.96 350.548,-200.688 346.872,-194.731"/>
</g>
</g>
</svg>
        <g id="navigator" transform="translate(0 0)" fill="#404254">
                <rect fill="#f2f5e9" fill-opacity="0.5" stroke="#606060" stroke-width=".5" x="0" y="0" width="60" height="60"/>
                <use id="zoomplus" xlink:href="#zoomPlus" x="17" y="9" onmousedown="handleZoom(evt,'in')"/>
                <use id="zoomminus" xlink:href="#zoomMin" x="42" y="9" onmousedown="handleZoom(evt,'out')"/>
                <use id="reset" xlink:href="#resetDef" x="30" y="36" onmousedown="handleReset()"/>
                <g id="arrowUp" xlink:href="#dirArrow" transform="translate(30 24)" onmousedown="handlePan(0,-1)">
                  <use xlink:href="#rim" fill="#404040">
                        <set attributeName="fill" to="#808080" begin="arrowUp.mouseover" end="arrowUp.mouseout"/>
                  </use>
                  <path fill="none" stroke="white" stroke-width="1.5" d="M0,-3.0v7 M-2.5,-0.5L0,-3.0L2.5,-0.5"/>
                </g>
                <g id="arrowRight" xlink:href="#dirArrow" transform="rotate(90) translate(36 -43)" onmousedown="handlePan(1,0)">
                  <use xlink:href="#rim" fill="#404040">
                        <set attributeName="fill" to="#808080" begin="arrowRight.mouseover" end="arrowRight.mouseout"/>
                  </use>
                  <path fill="none" stroke="white" stroke-width="1.5" d="M0,-3.0v7 M-2.5,-0.5L0,-3.0L2.5,-0.5"/>
                </g>
                <g id="arrowDown" xlink:href="#dirArrow" transform="rotate(180) translate(-30 -48)" onmousedown="handlePan(0,1)">
                  <use xlink:href="#rim" fill="#404040">
                        <set attributeName="fill" to="#808080" begin="arrowDown.mouseover" end="arrowDown.mouseout"/>
                  </use>
                  <path fill="none" stroke="white" stroke-width="1.5" d="M0,-3.0v7 M-2.5,-0.5L0,-3.0L2.5,-0.5"/>
                </g>
                <g id="arrowLeft" xlink:href="#dirArrow" transform="rotate(270) translate(-36 17)" onmousedown="handlePan(-1,0)">
                  <use xlink:href="#rim" fill="#404040">
                        <set attributeName="fill" to="#808080" begin="arrowLeft.mouseover" end="arrowLeft.mouseout"/>
                  </use>
                  <path fill="none" stroke="white" stroke-width="1.5" d="M0,-3.0v7 M-2.5,-0.5L0,-3.0L2.5,-0.5"/>
                </g>
        </g>
        <svg viewBox="0 0 15 15" width="100%" height="30px" preserveAspectRatio="xMaxYMin meet">
         <g id="arrow_out" transform="scale(0.3 0.3)">
          <a xlink:href="classo2_1_1monitoring_1_1Backend__inherit__graph_org.svg" target="_base">
           <rect id="button" ry="5" rx="5" y="6" x="6" height="38" width="38"
                fill="#f2f5e9" fill-opacity="0.5" stroke="#606060" stroke-width="1.0"/>
           <path id="arrow"
             d="M 11.500037,31.436501 C 11.940474,20.09759 22.043105,11.32322 32.158766,21.979434 L 37.068811,17.246167 C 37.068811,17.246167 37.088388,32 37.088388,32 L 22.160133,31.978069 C 22.160133,31.978069 26.997745,27.140456 26.997745,27.140456 C 18.528582,18.264221 13.291696,25.230495 11.500037,31.436501 z"
             style="fill:#404040;"/>
          </a>
         </g>
        </svg>
</svg>
