<?xml version="1.0" encoding="UTF-8" standalone="no"?>
<!DOCTYPE svg PUBLIC "-//W3C//DTD SVG 1.1//EN"
 "http://www.w3.org/Graphics/SVG/1.1/DTD/svg11.dtd">
<!-- Generated by graphviz version 2.36.0 (20140111.2315)
 -->
<!-- Title: o2::monitoring::Backend Pages: 1 -->
<svg width="566pt" height="304pt"
 viewBox="0.00 0.00 566.00 304.00" xmlns="http://www.w3.org/2000/svg" xmlns:xlink="http://www.w3.org/1999/xlink">
<g id="graph0" class="graph" transform="scale(1 1) rotate(0) translate(4 300)">
<title>o2::monitoring::Backend</title>
<!-- Node1 -->
<g id="node1" class="node"><title>Node1</title>
<polygon fill="#bfbfbf" stroke="black" points="218,-183 218,-295 340,-295 340,-183 218,-183"/>
<text text-anchor="middle" x="279" y="-283" font-family="Helvetica,sans-Serif" font-size="10.00">o2::monitoring::Backend</text>
<polyline fill="none" stroke="black" points="218,-276 340,-276 "/>
<text text-anchor="middle" x="279" y="-264" font-family="Helvetica,sans-Serif" font-size="10.00"> </text>
<polyline fill="none" stroke="black" points="218,-257 340,-257 "/>
<text text-anchor="start" x="226" y="-245" font-family="Helvetica,sans-Serif" font-size="10.00">+ Backend()</text>
<text text-anchor="start" x="226" y="-234" font-family="Helvetica,sans-Serif" font-size="10.00">+ ~Backend()</text>
<text text-anchor="start" x="226" y="-223" font-family="Helvetica,sans-Serif" font-size="10.00">+ send()</text>
<text text-anchor="start" x="226" y="-212" font-family="Helvetica,sans-Serif" font-size="10.00">+ send()</text>
<text text-anchor="start" x="226" y="-201" font-family="Helvetica,sans-Serif" font-size="10.00">+ sendMultiple()</text>
<text text-anchor="start" x="226" y="-190" font-family="Helvetica,sans-Serif" font-size="10.00">+ addGlobalTag()</text>
</g>
<!-- Node2 -->
<g id="node2" class="node"><title>Node2</title>
<g id="a_node2"><a xlink:href="../../d0/d1b/classo2_1_1monitoring_1_1backends_1_1ApMonBackend.html" target="_top" xlink:title="Backend that uses AppMon (MonALISA) ">
<polygon fill="none" stroke="black" points="0,-11.5 0,-134.5 126,-134.5 126,-11.5 0,-11.5"/>
<text text-anchor="start" x="8" y="-122.5" font-family="Helvetica,sans-Serif" font-size="10.00">o2::monitoring::backends</text>
<text text-anchor="middle" x="63" y="-111.5" font-family="Helvetica,sans-Serif" font-size="10.00">::ApMonBackend</text>
<polyline fill="none" stroke="black" points="0,-104.5 126,-104.5 "/>
<text text-anchor="middle" x="63" y="-92.5" font-family="Helvetica,sans-Serif" font-size="10.00"> </text>
<polyline fill="none" stroke="black" points="0,-85.5 126,-85.5 "/>
<text text-anchor="start" x="8" y="-73.5" font-family="Helvetica,sans-Serif" font-size="10.00">+ ApMonBackend()</text>
<text text-anchor="start" x="8" y="-62.5" font-family="Helvetica,sans-Serif" font-size="10.00">+ ~ApMonBackend()</text>
<text text-anchor="start" x="8" y="-51.5" font-family="Helvetica,sans-Serif" font-size="10.00">+ send()</text>
<text text-anchor="start" x="8" y="-40.5" font-family="Helvetica,sans-Serif" font-size="10.00">+ send()</text>
<text text-anchor="start" x="8" y="-29.5" font-family="Helvetica,sans-Serif" font-size="10.00">+ sendMultiple()</text>
<text text-anchor="start" x="8" y="-18.5" font-family="Helvetica,sans-Serif" font-size="10.00">+ addGlobalTag()</text>
</a>
</g>
</g>
<!-- Node1&#45;&gt;Node2 -->
<g id="edge1" class="edge"><title>Node1&#45;&gt;Node2</title>
<path fill="none" stroke="midnightblue" d="M209.004,-197.533C184.78,-182.436 157.964,-164.455 135,-146 130.591,-142.456 126.159,-138.674 121.778,-134.767"/>
<polygon fill="none" stroke="midnightblue" points="207.452,-200.688 217.8,-202.96 211.128,-194.731 207.452,-200.688"/>
</g>
<!-- Node3 -->
<g id="node3" class="node"><title>Node3</title>
<g id="a_node3"><a xlink:href="../../d9/df5/classo2_1_1monitoring_1_1backends_1_1Flume.html" target="_top" xlink:title="Backend that sends metrics to custum Apache Flume source. ">
<polygon fill="none" stroke="black" points="144,-6 144,-140 270,-140 270,-6 144,-6"/>
<text text-anchor="start" x="152" y="-128" font-family="Helvetica,sans-Serif" font-size="10.00">o2::monitoring::backends</text>
<text text-anchor="middle" x="207" y="-117" font-family="Helvetica,sans-Serif" font-size="10.00">::Flume</text>
<polyline fill="none" stroke="black" points="144,-110 270,-110 "/>
<text text-anchor="middle" x="207" y="-98" font-family="Helvetica,sans-Serif" font-size="10.00"> </text>
<polyline fill="none" stroke="black" points="144,-91 270,-91 "/>
<text text-anchor="start" x="152" y="-79" font-family="Helvetica,sans-Serif" font-size="10.00">+ Flume()</text>
<text text-anchor="start" x="152" y="-68" font-family="Helvetica,sans-Serif" font-size="10.00">+ ~Flume()</text>
<text text-anchor="start" x="152" y="-57" font-family="Helvetica,sans-Serif" font-size="10.00">+ convertTimestamp()</text>
<text text-anchor="start" x="152" y="-46" font-family="Helvetica,sans-Serif" font-size="10.00">+ send()</text>
<text text-anchor="start" x="152" y="-35" font-family="Helvetica,sans-Serif" font-size="10.00">+ send()</text>
<text text-anchor="start" x="152" y="-24" font-family="Helvetica,sans-Serif" font-size="10.00">+ sendMultiple()</text>
<text text-anchor="start" x="152" y="-13" font-family="Helvetica,sans-Serif" font-size="10.00">+ addGlobalTag()</text>
</a>
</g>
</g>
<!-- Node1&#45;&gt;Node3 -->
<g id="edge2" class="edge"><title>Node1&#45;&gt;Node3</title>
<path fill="none" stroke="midnightblue" d="M250.793,-173.752C245.928,-162.67 240.864,-151.134 235.979,-140.007"/>
<polygon fill="none" stroke="midnightblue" points="247.6,-175.185 254.825,-182.934 254.01,-172.371 247.6,-175.185"/>
</g>
<!-- Node4 -->
<g id="node4" class="node"><title>Node4</title>
<g id="a_node4"><a xlink:href="../../dd/d09/classo2_1_1monitoring_1_1backends_1_1InfluxDB.html" target="_top" xlink:title="Backend that sends metrics to InfluxDB time&#45;series databse. ">
<polygon fill="none" stroke="black" points="288,-0.5 288,-145.5 414,-145.5 414,-0.5 288,-0.5"/>
<text text-anchor="start" x="296" y="-133.5" font-family="Helvetica,sans-Serif" font-size="10.00">o2::monitoring::backends</text>
<text text-anchor="middle" x="351" y="-122.5" font-family="Helvetica,sans-Serif" font-size="10.00">::InfluxDB</text>
<polyline fill="none" stroke="black" points="288,-115.5 414,-115.5 "/>
<text text-anchor="middle" x="351" y="-103.5" font-family="Helvetica,sans-Serif" font-size="10.00"> </text>
<polyline fill="none" stroke="black" points="288,-96.5 414,-96.5 "/>
<text text-anchor="start" x="296" y="-84.5" font-family="Helvetica,sans-Serif" font-size="10.00">+ InfluxDB()</text>
<text text-anchor="start" x="296" y="-73.5" font-family="Helvetica,sans-Serif" font-size="10.00">+ InfluxDB()</text>
<text text-anchor="start" x="296" y="-62.5" font-family="Helvetica,sans-Serif" font-size="10.00">+ ~InfluxDB()</text>
<text text-anchor="start" x="296" y="-51.5" font-family="Helvetica,sans-Serif" font-size="10.00">+ convertTimestamp()</text>
<text text-anchor="start" x="296" y="-40.5" font-family="Helvetica,sans-Serif" font-size="10.00">+ send()</text>
<text text-anchor="start" x="296" y="-29.5" font-family="Helvetica,sans-Serif" font-size="10.00">+ send()</text>
<text text-anchor="start" x="296" y="-18.5" font-family="Helvetica,sans-Serif" font-size="10.00">+ sendMultiple()</text>
<text text-anchor="start" x="296" y="-7.5" font-family="Helvetica,sans-Serif" font-size="10.00">+ addGlobalTag()</text>
</a>
</g>
</g>
<!-- Node1&#45;&gt;Node4 -->
<g id="edge3" class="edge"><title>Node1&#45;&gt;Node4</title>
<path fill="none" stroke="midnightblue" d="M307.318,-173.498C311.349,-164.316 315.515,-154.827 319.6,-145.522"/>
<polygon fill="none" stroke="midnightblue" points="303.99,-172.371 303.175,-182.934 310.4,-175.185 303.99,-172.371"/>
</g>
<!-- Node5 -->
<g id="node5" class="node"><title>Node5</title>
<g id="a_node5"><a xlink:href="../../d7/db9/classo2_1_1monitoring_1_1backends_1_1InfoLoggerBackend.html" target="_top" xlink:title="Backend that injects metrics to InfoLogger. ">
<polygon fill="none" stroke="black" points="432,-11.5 432,-134.5 558,-134.5 558,-11.5 432,-11.5"/>
<text text-anchor="start" x="440" y="-122.5" font-family="Helvetica,sans-Serif" font-size="10.00">o2::monitoring::backends</text>
<text text-anchor="middle" x="495" y="-111.5" font-family="Helvetica,sans-Serif" font-size="10.00">::InfoLoggerBackend</text>
<polyline fill="none" stroke="black" points="432,-104.5 558,-104.5 "/>
<text text-anchor="middle" x="495" y="-92.5" font-family="Helvetica,sans-Serif" font-size="10.00"> </text>
<polyline fill="none" stroke="black" points="432,-85.5 558,-85.5 "/>
<text text-anchor="start" x="440" y="-73.5" font-family="Helvetica,sans-Serif" font-size="10.00">+ InfoLoggerBackend()</text>
<text text-anchor="start" x="440" y="-62.5" font-family="Helvetica,sans-Serif" font-size="10.00">+ ~InfoLoggerBackend()</text>
<text text-anchor="start" x="440" y="-51.5" font-family="Helvetica,sans-Serif" font-size="10.00">+ send()</text>
<text text-anchor="start" x="440" y="-40.5" font-family="Helvetica,sans-Serif" font-size="10.00">+ send()</text>
<text text-anchor="start" x="440" y="-29.5" font-family="Helvetica,sans-Serif" font-size="10.00">+ sendMultiple()</text>
<text text-anchor="start" x="440" y="-18.5" font-family="Helvetica,sans-Serif" font-size="10.00">+ addGlobalTag()</text>
</a>
</g>
</g>
<!-- Node1&#45;&gt;Node5 -->
<g id="edge4" class="edge"><title>Node1&#45;&gt;Node5</title>
<path fill="none" stroke="midnightblue" d="M348.996,-197.533C373.22,-182.436 400.036,-164.455 423,-146 427.409,-142.456 431.841,-138.674 436.222,-134.767"/>
<polygon fill="none" stroke="midnightblue" points="346.872,-194.731 340.2,-202.96 350.548,-200.688 346.872,-194.731"/>
</g>
</g>
</svg>
