<?xml version="1.0" encoding="UTF-8" standalone="no"?>
<!DOCTYPE svg PUBLIC "-//W3C//DTD SVG 1.1//EN"
 "http://www.w3.org/Graphics/SVG/1.1/DTD/svg11.dtd">
<!-- Generated by graphviz version 2.36.0 (20140111.2315)
 -->
<!-- Title: /home/travis/build/AliceO2Group/Monitoring/test/testFlume.cxx Pages: 1 -->
<svg width="942pt" height="354pt"
 viewBox="0.00 0.00 942.00 354.00" xmlns="http://www.w3.org/2000/svg" xmlns:xlink="http://www.w3.org/1999/xlink">
<g id="graph0" class="graph" transform="scale(1 1) rotate(0) translate(4 350)">
<title>/home/travis/build/AliceO2Group/Monitoring/test/testFlume.cxx</title>
<!-- Node1 -->
<g id="node1" class="node"><title>Node1</title>
<polygon fill="#bfbfbf" stroke="black" points="156,-304.5 156,-345.5 284,-345.5 284,-304.5 156,-304.5"/>
<text text-anchor="start" x="164" y="-333.5" font-family="Helvetica,sans-Serif" font-size="10.00">/home/travis/build</text>
<text text-anchor="start" x="164" y="-322.5" font-family="Helvetica,sans-Serif" font-size="10.00">/AliceO2Group/Monitoring</text>
<text text-anchor="middle" x="220" y="-311.5" font-family="Helvetica,sans-Serif" font-size="10.00">/test/testFlume.cxx</text>
</g>
<!-- Node2 -->
<g id="node2" class="node"><title>Node2</title>
<g id="a_node2"><a xlink:href="../../d7/d79/UriParser_8h.html" target="_top" xlink:title="../src/UriParser/UriParser.h">
<polygon fill="none" stroke="black" points="0,-174.5 0,-193.5 136,-193.5 136,-174.5 0,-174.5"/>
<text text-anchor="middle" x="68" y="-181.5" font-family="Helvetica,sans-Serif" font-size="10.00">../src/UriParser/UriParser.h</text>
</a>
</g>
</g>
<!-- Node1&#45;&gt;Node2 -->
<g id="edge1" class="edge"><title>Node1&#45;&gt;Node2</title>
<path fill="none" stroke="midnightblue" d="M155.834,-310.381C131.038,-302.045 104.484,-288.814 87,-268 71.8824,-250.003 68.2143,-222.344 67.605,-203.967"/>
<polygon fill="midnightblue" stroke="midnightblue" points="71.1046,-203.873 67.5459,-193.894 64.1047,-203.914 71.1046,-203.873"/>
</g>
<!-- Node6 -->
<g id="node6" class="node"><title>Node6</title>
<polygon fill="none" stroke="#bfbfbf" points="96.5,-242.5 96.5,-261.5 215.5,-261.5 215.5,-242.5 96.5,-242.5"/>
<text text-anchor="middle" x="156" y="-249.5" font-family="Helvetica,sans-Serif" font-size="10.00">boost/test/unit_test.hpp</text>
</g>
<!-- Node1&#45;&gt;Node6 -->
<g id="edge5" class="edge"><title>Node1&#45;&gt;Node6</title>
<path fill="none" stroke="midnightblue" d="M202.172,-304.223C192.25,-293.214 180.048,-279.679 170.681,-269.287"/>
<polygon fill="midnightblue" stroke="midnightblue" points="173.169,-266.819 163.874,-261.735 167.969,-271.506 173.169,-266.819"/>
</g>
<!-- Node7 -->
<g id="node7" class="node"><title>Node7</title>
<polygon fill="none" stroke="#bfbfbf" points="233.5,-237 233.5,-267 334.5,-267 334.5,-237 233.5,-237"/>
<text text-anchor="start" x="241.5" y="-255" font-family="Helvetica,sans-Serif" font-size="10.00">boost/property_tree</text>
<text text-anchor="middle" x="284" y="-244" font-family="Helvetica,sans-Serif" font-size="10.00">/json_parser.hpp</text>
</g>
<!-- Node1&#45;&gt;Node7 -->
<g id="edge6" class="edge"><title>Node1&#45;&gt;Node7</title>
<path fill="none" stroke="midnightblue" d="M237.828,-304.223C246.15,-294.99 256.074,-283.98 264.585,-274.538"/>
<polygon fill="midnightblue" stroke="midnightblue" points="267.241,-276.82 271.337,-267.049 262.041,-272.133 267.241,-276.82"/>
</g>
<!-- Node8 -->
<g id="node8" class="node"><title>Node8</title>
<g id="a_node8"><a xlink:href="../../d4/d57/Flume_8h.html" target="_top" xlink:title="../src/Backends/Flume.h">
<polygon fill="none" stroke="black" points="353,-242.5 353,-261.5 477,-261.5 477,-242.5 353,-242.5"/>
<text text-anchor="middle" x="415" y="-249.5" font-family="Helvetica,sans-Serif" font-size="10.00">../src/Backends/Flume.h</text>
</a>
</g>
</g>
<!-- Node1&#45;&gt;Node8 -->
<g id="edge7" class="edge"><title>Node1&#45;&gt;Node8</title>
<path fill="none" stroke="midnightblue" d="M273.801,-304.411C308.541,-291.762 352.613,-275.715 382.199,-264.943"/>
<polygon fill="midnightblue" stroke="midnightblue" points="383.444,-268.215 391.643,-261.504 381.049,-261.637 383.444,-268.215"/>
</g>
<!-- Node3 -->
<g id="node3" class="node"><title>Node3</title>
<polygon fill="none" stroke="#bfbfbf" points="123,-112.5 123,-131.5 177,-131.5 177,-112.5 123,-112.5"/>
<text text-anchor="middle" x="150" y="-119.5" font-family="Helvetica,sans-Serif" font-size="10.00">iostream</text>
</g>
<!-- Node2&#45;&gt;Node3 -->
<g id="edge2" class="edge"><title>Node2&#45;&gt;Node3</title>
<path fill="none" stroke="midnightblue" d="M79.7486,-174.403C92.9011,-164.78 114.434,-149.024 130.198,-137.489"/>
<polygon fill="midnightblue" stroke="midnightblue" points="132.27,-140.31 138.273,-131.581 128.136,-134.661 132.27,-140.31"/>
</g>
<!-- Node4 -->
<g id="node4" class="node"><title>Node4</title>
<polygon fill="none" stroke="#bfbfbf" points="573.5,-0.5 573.5,-19.5 614.5,-19.5 614.5,-0.5 573.5,-0.5"/>
<text text-anchor="middle" x="594" y="-7.5" font-family="Helvetica,sans-Serif" font-size="10.00">string</text>
</g>
<!-- Node2&#45;&gt;Node4 -->
<g id="edge3" class="edge"><title>Node2&#45;&gt;Node4</title>
<path fill="none" stroke="midnightblue" d="M71.0462,-174.479C76.8963,-159.394 91.183,-128.066 114,-112 187.917,-59.9522 469.392,-24.7652 563.299,-14.2723"/>
<polygon fill="midnightblue" stroke="midnightblue" points="563.741,-17.7448 573.298,-13.1697 562.974,-10.787 563.741,-17.7448"/>
</g>
<!-- Node5 -->
<g id="node5" class="node"><title>Node5</title>
<polygon fill="none" stroke="#bfbfbf" points="19,-112.5 19,-131.5 67,-131.5 67,-112.5 19,-112.5"/>
<text text-anchor="middle" x="43" y="-119.5" font-family="Helvetica,sans-Serif" font-size="10.00">stdlib.h</text>
</g>
<!-- Node2&#45;&gt;Node5 -->
<g id="edge4" class="edge"><title>Node2&#45;&gt;Node5</title>
<path fill="none" stroke="midnightblue" d="M64.4181,-174.403C60.8166,-165.76 55.1542,-152.17 50.5559,-141.134"/>
<polygon fill="midnightblue" stroke="midnightblue" points="53.6522,-139.465 46.5752,-131.581 47.1907,-142.158 53.6522,-139.465"/>
</g>
<!-- Node8&#45;&gt;Node4 -->
<g id="edge26" class="edge"><title>Node8&#45;&gt;Node4</title>
<path fill="none" stroke="midnightblue" d="M450.07,-242.455C514.82,-224.506 651.159,-176.014 702,-76 719.359,-41.8525 662.486,-24.0131 624.779,-16.145"/>
<polygon fill="midnightblue" stroke="midnightblue" points="625.215,-12.6641 614.73,-14.185 623.875,-19.5346 625.215,-12.6641"/>
</g>
<!-- Node9 -->
<g id="node9" class="node"><title>Node9</title>
<g id="a_node9"><a xlink:href="../../df/d83/Backend_8h.html" target="_top" xlink:title="Monitoring/Backend.h">
<polygon fill="none" stroke="black" points="412.5,-174.5 412.5,-193.5 523.5,-193.5 523.5,-174.5 412.5,-174.5"/>
<text text-anchor="middle" x="468" y="-181.5" font-family="Helvetica,sans-Serif" font-size="10.00">Monitoring/Backend.h</text>
</a>
</g>
</g>
<!-- Node8&#45;&gt;Node9 -->
<g id="edge8" class="edge"><title>Node8&#45;&gt;Node9</title>
<path fill="none" stroke="midnightblue" d="M421.929,-242.372C430.136,-232.151 444.002,-214.884 454.383,-201.957"/>
<polygon fill="midnightblue" stroke="midnightblue" points="457.368,-203.83 460.9,-193.841 451.91,-199.447 457.368,-203.83"/>
</g>
<!-- Node10 -->
<g id="node10" class="node"><title>Node10</title>
<polygon fill="none" stroke="#bfbfbf" points="361,-56.5 361,-75.5 407,-75.5 407,-56.5 361,-56.5"/>
<text text-anchor="middle" x="384" y="-63.5" font-family="Helvetica,sans-Serif" font-size="10.00">chrono</text>
</g>
<!-- Node8&#45;&gt;Node10 -->
<g id="edge25" class="edge"><title>Node8&#45;&gt;Node10</title>
<path fill="none" stroke="midnightblue" d="M412.725,-242.387C410.116,-232.288 405.833,-215.016 403,-200 395.387,-159.651 389.26,-111.903 386.175,-86.0117"/>
<polygon fill="midnightblue" stroke="midnightblue" points="389.614,-85.285 384.977,-75.7586 382.661,-86.0972 389.614,-85.285"/>
</g>
<!-- Node15 -->
<g id="node15" class="node"><title>Node15</title>
<g id="a_node15"><a xlink:href="../../de/dac/TransportInterface_8h.html" target="_top" xlink:title="../Transports/TransportInterface.h">
<polygon fill="none" stroke="black" points="771.5,-112.5 771.5,-131.5 934.5,-131.5 934.5,-112.5 771.5,-112.5"/>
<text text-anchor="middle" x="853" y="-119.5" font-family="Helvetica,sans-Serif" font-size="10.00">../Transports/TransportInterface.h</text>
</a>
</g>
</g>
<!-- Node8&#45;&gt;Node15 -->
<g id="edge18" class="edge"><title>Node8&#45;&gt;Node15</title>
<path fill="none" stroke="midnightblue" d="M477.275,-251.343C547.94,-249.59 665.275,-240.087 757,-200 789.596,-185.754 820.401,-157.467 837.956,-139.43"/>
<polygon fill="midnightblue" stroke="midnightblue" points="840.707,-141.616 845.048,-131.951 835.627,-136.799 840.707,-141.616"/>
</g>
<!-- Node16 -->
<g id="node16" class="node"><title>Node16</title>
<g id="a_node16"><a xlink:href="../../df/de7/MonLogger_8h.html" target="_top" xlink:title="../MonLogger.h">
<polygon fill="none" stroke="black" points="154,-174.5 154,-193.5 236,-193.5 236,-174.5 154,-174.5"/>
<text text-anchor="middle" x="195" y="-181.5" font-family="Helvetica,sans-Serif" font-size="10.00">../MonLogger.h</text>
</a>
</g>
</g>
<!-- Node8&#45;&gt;Node16 -->
<g id="edge20" class="edge"><title>Node8&#45;&gt;Node16</title>
<path fill="none" stroke="midnightblue" d="M386.239,-242.372C347.015,-230.604 276.654,-209.496 233.086,-196.426"/>
<polygon fill="midnightblue" stroke="midnightblue" points="234.004,-193.047 223.42,-193.526 231.992,-199.752 234.004,-193.047"/>
</g>
<!-- Node18 -->
<g id="node18" class="node"><title>Node18</title>
<polygon fill="none" stroke="#bfbfbf" points="254.5,-169 254.5,-199 355.5,-199 355.5,-169 254.5,-169"/>
<text text-anchor="start" x="262.5" y="-187" font-family="Helvetica,sans-Serif" font-size="10.00">boost/property_tree</text>
<text text-anchor="middle" x="305" y="-176" font-family="Helvetica,sans-Serif" font-size="10.00">/ptree.hpp</text>
</g>
<!-- Node8&#45;&gt;Node18 -->
<g id="edge24" class="edge"><title>Node8&#45;&gt;Node18</title>
<path fill="none" stroke="midnightblue" d="M400.619,-242.372C384.619,-232.771 358.256,-216.954 337.26,-204.356"/>
<polygon fill="midnightblue" stroke="midnightblue" points="339.011,-201.325 328.636,-199.181 335.41,-207.328 339.011,-201.325"/>
</g>
<!-- Node9&#45;&gt;Node4 -->
<g id="edge10" class="edge"><title>Node9&#45;&gt;Node4</title>
<path fill="none" stroke="midnightblue" d="M463.365,-174.262C452.305,-152.08 427.213,-92.7465 454,-56 478.902,-21.8397 530.159,-13.0434 563.261,-11.0912"/>
<polygon fill="midnightblue" stroke="midnightblue" points="563.468,-14.5857 573.314,-10.6744 563.178,-7.59172 563.468,-14.5857"/>
</g>
<!-- Node9&#45;&gt;Node10 -->
<g id="edge9" class="edge"><title>Node9&#45;&gt;Node10</title>
<path fill="none" stroke="midnightblue" d="M461.686,-174.281C447.754,-155.041 414.18,-108.677 396.067,-83.6641"/>
<polygon fill="midnightblue" stroke="midnightblue" points="398.859,-81.5514 390.159,-75.5048 393.189,-85.657 398.859,-81.5514"/>
</g>
<!-- Node11 -->
<g id="node11" class="node"><title>Node11</title>
<g id="a_node11"><a xlink:href="../../d9/d92/Metric_8h.html" target="_top" xlink:title="Monitoring/Metric.h">
<polygon fill="none" stroke="black" points="504,-112.5 504,-131.5 604,-131.5 604,-112.5 504,-112.5"/>
<text text-anchor="middle" x="554" y="-119.5" font-family="Helvetica,sans-Serif" font-size="10.00">Monitoring/Metric.h</text>
</a>
</g>
</g>
<!-- Node9&#45;&gt;Node11 -->
<g id="edge11" class="edge"><title>Node9&#45;&gt;Node11</title>
<path fill="none" stroke="midnightblue" d="M480.322,-174.403C494.116,-164.78 516.699,-149.024 533.232,-137.489"/>
<polygon fill="midnightblue" stroke="midnightblue" points="535.503,-140.173 541.701,-131.581 531.497,-134.432 535.503,-140.173"/>
</g>
<!-- Node11&#45;&gt;Node4 -->
<g id="edge12" class="edge"><title>Node11&#45;&gt;Node4</title>
<path fill="none" stroke="midnightblue" d="M604.107,-117.63C632.823,-112.822 666.697,-101.64 685,-76 704.167,-49.1491 657.798,-29.3059 624.447,-18.9973"/>
<polygon fill="midnightblue" stroke="midnightblue" points="625.183,-15.5657 614.602,-16.107 623.212,-22.2823 625.183,-15.5657"/>
</g>
<!-- Node11&#45;&gt;Node10 -->
<g id="edge13" class="edge"><title>Node11&#45;&gt;Node10</title>
<path fill="none" stroke="midnightblue" d="M527.063,-112.444C497.241,-102.971 449.154,-87.6961 417.071,-77.5048"/>
<polygon fill="midnightblue" stroke="midnightblue" points="417.85,-74.0801 407.26,-74.3884 415.731,-80.7516 417.85,-74.0801"/>
</g>
<!-- Node12 -->
<g id="node12" class="node"><title>Node12</title>
<polygon fill="none" stroke="#bfbfbf" points="633,-56.5 633,-75.5 677,-75.5 677,-56.5 633,-56.5"/>
<text text-anchor="middle" x="655" y="-63.5" font-family="Helvetica,sans-Serif" font-size="10.00">vector</text>
</g>
<!-- Node11&#45;&gt;Node12 -->
<g id="edge14" class="edge"><title>Node11&#45;&gt;Node12</title>
<path fill="none" stroke="midnightblue" d="M570.227,-112.324C586.351,-103.703 611.3,-90.3643 629.964,-80.3855"/>
<polygon fill="midnightblue" stroke="midnightblue" points="631.644,-83.456 638.813,-75.6545 628.344,-77.283 631.644,-83.456"/>
</g>
<!-- Node13 -->
<g id="node13" class="node"><title>Node13</title>
<polygon fill="none" stroke="#bfbfbf" points="523,-56.5 523,-75.5 615,-75.5 615,-56.5 523,-56.5"/>
<text text-anchor="middle" x="569" y="-63.5" font-family="Helvetica,sans-Serif" font-size="10.00">boost/variant.hpp</text>
</g>
<!-- Node11&#45;&gt;Node13 -->
<g id="edge15" class="edge"><title>Node11&#45;&gt;Node13</title>
<path fill="none" stroke="midnightblue" d="M556.477,-112.083C558.486,-104.849 561.386,-94.4087 563.89,-85.3968"/>
<polygon fill="midnightblue" stroke="midnightblue" points="567.265,-86.323 566.569,-75.7511 560.52,-84.4495 567.265,-86.323"/>
</g>
<!-- Node14 -->
<g id="node14" class="node"><title>Node14</title>
<g id="a_node14"><a xlink:href="../../d9/d33/Tag_8h.html" target="_top" xlink:title="Tag.h">
<polygon fill="none" stroke="black" points="463.5,-56.5 463.5,-75.5 504.5,-75.5 504.5,-56.5 463.5,-56.5"/>
<text text-anchor="middle" x="484" y="-63.5" font-family="Helvetica,sans-Serif" font-size="10.00">Tag.h</text>
</a>
</g>
</g>
<!-- Node11&#45;&gt;Node14 -->
<g id="edge16" class="edge"><title>Node11&#45;&gt;Node14</title>
<path fill="none" stroke="midnightblue" d="M542.753,-112.324C532.203,-104.185 516.199,-91.8395 503.558,-82.0874"/>
<polygon fill="midnightblue" stroke="midnightblue" points="505.507,-79.1707 495.451,-75.8339 501.231,-84.7132 505.507,-79.1707"/>
</g>
<!-- Node14&#45;&gt;Node4 -->
<g id="edge17" class="edge"><title>Node14&#45;&gt;Node4</title>
<path fill="none" stroke="midnightblue" d="M501.673,-56.324C519.394,-47.6247 546.903,-34.1202 567.288,-24.113"/>
<polygon fill="midnightblue" stroke="midnightblue" points="568.936,-27.2031 576.37,-19.6545 565.851,-20.9195 568.936,-27.2031"/>
</g>
<!-- Node15&#45;&gt;Node4 -->
<g id="edge19" class="edge"><title>Node15&#45;&gt;Node4</title>
<path fill="none" stroke="midnightblue" d="M842.745,-112.374C825.889,-98.5979 790.811,-71.5995 757,-56 713.102,-35.7467 658.232,-22.9292 624.67,-16.3618"/>
<polygon fill="midnightblue" stroke="midnightblue" points="625.04,-12.8697 614.563,-14.4477 623.737,-19.7474 625.04,-12.8697"/>
</g>
<!-- Node16&#45;&gt;Node3 -->
<g id="edge23" class="edge"><title>Node16&#45;&gt;Node3</title>
<path fill="none" stroke="midnightblue" d="M188.553,-174.403C181.803,-165.403 171.031,-151.041 162.587,-139.782"/>
<polygon fill="midnightblue" stroke="midnightblue" points="165.235,-137.481 156.435,-131.581 159.635,-141.681 165.235,-137.481"/>
</g>
<!-- Node16&#45;&gt;Node10 -->
<g id="edge21" class="edge"><title>Node16&#45;&gt;Node10</title>
<path fill="none" stroke="midnightblue" d="M208.898,-174.47C241.255,-154.61 321.872,-105.131 361.411,-80.8643"/>
<polygon fill="midnightblue" stroke="midnightblue" points="363.39,-83.7562 370.082,-75.5423 359.728,-77.7902 363.39,-83.7562"/>
</g>
<!-- Node17 -->
<g id="node17" class="node"><title>Node17</title>
<polygon fill="none" stroke="#bfbfbf" points="195,-112.5 195,-131.5 245,-131.5 245,-112.5 195,-112.5"/>
<text text-anchor="middle" x="220" y="-119.5" font-family="Helvetica,sans-Serif" font-size="10.00">iomanip</text>
</g>
<!-- Node16&#45;&gt;Node17 -->
<g id="edge22" class="edge"><title>Node16&#45;&gt;Node17</title>
<path fill="none" stroke="midnightblue" d="M198.582,-174.403C202.183,-165.76 207.846,-152.17 212.444,-141.134"/>
<polygon fill="midnightblue" stroke="midnightblue" points="215.809,-142.158 216.425,-131.581 209.348,-139.465 215.809,-142.158"/>
</g>
</g>
</svg>
