<?xml version="1.0" encoding="UTF-8" standalone="no"?>
<!DOCTYPE svg PUBLIC "-//W3C//DTD SVG 1.1//EN"
 "http://www.w3.org/Graphics/SVG/1.1/DTD/svg11.dtd">
<!-- Generated by graphviz version 2.36.0 (20140111.2315)
 -->
<!-- Title: /home/travis/build/AliceO2Group/Monitoring/src/Transports/HTTP.cxx Pages: 1 -->
<svg width="607pt" height="230pt"
 viewBox="0.00 0.00 607.00 230.00" xmlns="http://www.w3.org/2000/svg" xmlns:xlink="http://www.w3.org/1999/xlink">
<g id="graph0" class="graph" transform="scale(1 1) rotate(0) translate(4 226)">
<title>/home/travis/build/AliceO2Group/Monitoring/src/Transports/HTTP.cxx</title>
<!-- Node1 -->
<g id="node1" class="node"><title>Node1</title>
<polygon fill="#bfbfbf" stroke="black" points="324.5,-180.5 324.5,-221.5 455.5,-221.5 455.5,-180.5 324.5,-180.5"/>
<text text-anchor="start" x="332.5" y="-209.5" font-family="Helvetica,sans-Serif" font-size="10.00">/home/travis/build</text>
<text text-anchor="start" x="332.5" y="-198.5" font-family="Helvetica,sans-Serif" font-size="10.00">/AliceO2Group/Monitoring</text>
<text text-anchor="middle" x="390" y="-187.5" font-family="Helvetica,sans-Serif" font-size="10.00">/src/Transports/HTTP.cxx</text>
</g>
<!-- Node2 -->
<g id="node2" class="node"><title>Node2</title>
<g id="a_node2"><a xlink:href="../../dd/d7d/HTTP_8h.html" target="_top" xlink:title="HTTP.h">
<polygon fill="none" stroke="black" points="164.5,-118.5 164.5,-137.5 215.5,-137.5 215.5,-118.5 164.5,-118.5"/>
<text text-anchor="middle" x="190" y="-125.5" font-family="Helvetica,sans-Serif" font-size="10.00">HTTP.h</text>
</a>
</g>
</g>
<!-- Node1&#45;&gt;Node2 -->
<g id="edge1" class="edge"><title>Node1&#45;&gt;Node2</title>
<path fill="none" stroke="midnightblue" d="M334.82,-180.411C299.189,-167.762 253.986,-151.715 223.642,-140.943"/>
<polygon fill="midnightblue" stroke="midnightblue" points="224.551,-137.552 213.956,-137.504 222.209,-144.148 224.551,-137.552"/>
</g>
<!-- Node7 -->
<g id="node7" class="node"><title>Node7</title>
<g id="a_node7"><a xlink:href="../../dc/d75/MonitoringInternalException_8h.html" target="_top" xlink:title="../Exceptions/Monitoring\lInternalException.h">
<polygon fill="none" stroke="black" points="257,-113 257,-143 379,-143 379,-113 257,-113"/>
<text text-anchor="start" x="265" y="-131" font-family="Helvetica,sans-Serif" font-size="10.00">../Exceptions/Monitoring</text>
<text text-anchor="middle" x="318" y="-120" font-family="Helvetica,sans-Serif" font-size="10.00">InternalException.h</text>
</a>
</g>
</g>
<!-- Node1&#45;&gt;Node7 -->
<g id="edge7" class="edge"><title>Node1&#45;&gt;Node7</title>
<path fill="none" stroke="midnightblue" d="M369.944,-180.223C360.488,-170.898 349.193,-159.76 339.555,-150.255"/>
<polygon fill="midnightblue" stroke="midnightblue" points="341.824,-147.578 332.246,-143.049 336.909,-152.562 341.824,-147.578"/>
</g>
<!-- Node9 -->
<g id="node9" class="node"><title>Node9</title>
<polygon fill="none" stroke="#bfbfbf" points="397.5,-118.5 397.5,-137.5 526.5,-137.5 526.5,-118.5 397.5,-118.5"/>
<text text-anchor="middle" x="462" y="-125.5" font-family="Helvetica,sans-Serif" font-size="10.00">boost/algorithm/string.hpp</text>
</g>
<!-- Node1&#45;&gt;Node9 -->
<g id="edge10" class="edge"><title>Node1&#45;&gt;Node9</title>
<path fill="none" stroke="midnightblue" d="M410.056,-180.223C421.33,-169.105 435.218,-155.411 445.796,-144.979"/>
<polygon fill="midnightblue" stroke="midnightblue" points="448.479,-147.249 453.142,-137.735 443.564,-142.264 448.479,-147.249"/>
</g>
<!-- Node10 -->
<g id="node10" class="node"><title>Node10</title>
<polygon fill="none" stroke="#bfbfbf" points="545,-118.5 545,-137.5 599,-137.5 599,-118.5 545,-118.5"/>
<text text-anchor="middle" x="572" y="-125.5" font-family="Helvetica,sans-Serif" font-size="10.00">iostream</text>
</g>
<!-- Node1&#45;&gt;Node10 -->
<g id="edge11" class="edge"><title>Node1&#45;&gt;Node10</title>
<path fill="none" stroke="midnightblue" d="M441.417,-180.381C469.176,-169.729 504.011,-156.265 535,-144 537.095,-143.171 539.254,-142.311 541.427,-141.44"/>
<polygon fill="midnightblue" stroke="midnightblue" points="542.925,-144.611 550.893,-137.627 540.309,-138.118 542.925,-144.611"/>
</g>
<!-- Node3 -->
<g id="node3" class="node"><title>Node3</title>
<g id="a_node3"><a xlink:href="../../de/dac/TransportInterface_8h.html" target="_top" xlink:title="TransportInterface.h">
<polygon fill="none" stroke="black" points="0,-56.5 0,-75.5 104,-75.5 104,-56.5 0,-56.5"/>
<text text-anchor="middle" x="52" y="-63.5" font-family="Helvetica,sans-Serif" font-size="10.00">TransportInterface.h</text>
</a>
</g>
</g>
<!-- Node2&#45;&gt;Node3 -->
<g id="edge2" class="edge"><title>Node2&#45;&gt;Node3</title>
<path fill="none" stroke="midnightblue" d="M170.228,-118.403C146.864,-108.245 107.786,-91.2547 80.997,-79.6074"/>
<polygon fill="midnightblue" stroke="midnightblue" points="82.3016,-76.3582 71.7354,-75.5806 79.5105,-82.7777 82.3016,-76.3582"/>
</g>
<!-- Node4 -->
<g id="node4" class="node"><title>Node4</title>
<polygon fill="none" stroke="#bfbfbf" points="111.5,-0.5 111.5,-19.5 152.5,-19.5 152.5,-0.5 111.5,-0.5"/>
<text text-anchor="middle" x="132" y="-7.5" font-family="Helvetica,sans-Serif" font-size="10.00">string</text>
</g>
<!-- Node2&#45;&gt;Node4 -->
<g id="edge6" class="edge"><title>Node2&#45;&gt;Node4</title>
<path fill="none" stroke="midnightblue" d="M181.709,-118.293C172.94,-108.653 159.256,-92.3093 151,-76 143.533,-61.2492 138.536,-43.0904 135.549,-29.7189"/>
<polygon fill="midnightblue" stroke="midnightblue" points="138.95,-28.8798 133.502,-19.7926 132.094,-30.2934 138.95,-28.8798"/>
</g>
<!-- Node5 -->
<g id="node5" class="node"><title>Node5</title>
<polygon fill="none" stroke="#bfbfbf" points="160.5,-56.5 160.5,-75.5 219.5,-75.5 219.5,-56.5 160.5,-56.5"/>
<text text-anchor="middle" x="190" y="-63.5" font-family="Helvetica,sans-Serif" font-size="10.00">curl/curl.h</text>
</g>
<!-- Node2&#45;&gt;Node5 -->
<g id="edge4" class="edge"><title>Node2&#45;&gt;Node5</title>
<path fill="none" stroke="midnightblue" d="M190,-118.403C190,-109.938 190,-96.7283 190,-85.8199"/>
<polygon fill="midnightblue" stroke="midnightblue" points="193.5,-85.5806 190,-75.5806 186.5,-85.5806 193.5,-85.5806"/>
</g>
<!-- Node6 -->
<g id="node6" class="node"><title>Node6</title>
<polygon fill="none" stroke="#bfbfbf" points="238,-56.5 238,-75.5 290,-75.5 290,-56.5 238,-56.5"/>
<text text-anchor="middle" x="264" y="-63.5" font-family="Helvetica,sans-Serif" font-size="10.00">memory</text>
</g>
<!-- Node2&#45;&gt;Node6 -->
<g id="edge5" class="edge"><title>Node2&#45;&gt;Node6</title>
<path fill="none" stroke="midnightblue" d="M200.602,-118.403C212.252,-108.958 231.186,-93.6056 245.335,-82.1342"/>
<polygon fill="midnightblue" stroke="midnightblue" points="247.854,-84.5973 253.417,-75.5806 243.445,-79.16 247.854,-84.5973"/>
</g>
<!-- Node3&#45;&gt;Node4 -->
<g id="edge3" class="edge"><title>Node3&#45;&gt;Node4</title>
<path fill="none" stroke="midnightblue" d="M64.8534,-56.324C77.2164,-47.979 96.1301,-35.2122 110.737,-25.3524"/>
<polygon fill="midnightblue" stroke="midnightblue" points="112.848,-28.1503 119.179,-19.6545 108.932,-22.3483 112.848,-28.1503"/>
</g>
<!-- Node7&#45;&gt;Node4 -->
<g id="edge9" class="edge"><title>Node7&#45;&gt;Node4</title>
<path fill="none" stroke="midnightblue" d="M318.177,-112.977C317.595,-97.0075 314.145,-71.1714 299,-56 262.701,-19.6379 200.318,-11.7805 162.937,-10.5678"/>
<polygon fill="midnightblue" stroke="midnightblue" points="162.709,-7.06318 152.647,-10.3819 162.582,-14.062 162.709,-7.06318"/>
</g>
<!-- Node8 -->
<g id="node8" class="node"><title>Node8</title>
<polygon fill="none" stroke="#bfbfbf" points="346.5,-56.5 346.5,-75.5 405.5,-75.5 405.5,-56.5 346.5,-56.5"/>
<text text-anchor="middle" x="376" y="-63.5" font-family="Helvetica,sans-Serif" font-size="10.00">exception</text>
</g>
<!-- Node7&#45;&gt;Node8 -->
<g id="edge8" class="edge"><title>Node7&#45;&gt;Node8</title>
<path fill="none" stroke="midnightblue" d="M331.745,-112.781C340.347,-103.882 351.452,-92.3943 360.386,-83.1524"/>
<polygon fill="midnightblue" stroke="midnightblue" points="363.127,-85.353 367.56,-75.7305 358.094,-80.4879 363.127,-85.353"/>
</g>
</g>
</svg>
