<?xml version="1.0" encoding="UTF-8" standalone="no"?>
<!DOCTYPE svg PUBLIC "-//W3C//DTD SVG 1.1//EN"
 "http://www.w3.org/Graphics/SVG/1.1/DTD/svg11.dtd">
<!-- Generated by graphviz version 2.36.0 (20140111.2315)
 -->
<!-- Title: /home/travis/build/AliceO2Group/Monitoring/src/MonitoringFactory.cxx Pages: 1 -->
<svg width="1627pt" height="398pt"
 viewBox="0.00 0.00 1626.70 398.00" xmlns="http://www.w3.org/2000/svg" xmlns:xlink="http://www.w3.org/1999/xlink">
<g id="graph0" class="graph" transform="scale(1 1) rotate(0) translate(4 394)">
<title>/home/travis/build/AliceO2Group/Monitoring/src/MonitoringFactory.cxx</title>
<!-- Node1 -->
<g id="node1" class="node"><title>Node1</title>
<polygon fill="#bfbfbf" stroke="black" points="652.199,-348.5 652.199,-389.5 785.199,-389.5 785.199,-348.5 652.199,-348.5"/>
<text text-anchor="start" x="660.199" y="-377.5" font-family="Helvetica,sans-Serif" font-size="10.00">/home/travis/build</text>
<text text-anchor="start" x="660.199" y="-366.5" font-family="Helvetica,sans-Serif" font-size="10.00">/AliceO2Group/Monitoring</text>
<text text-anchor="middle" x="718.699" y="-355.5" font-family="Helvetica,sans-Serif" font-size="10.00">/src/MonitoringFactory.cxx</text>
</g>
<!-- Node2 -->
<g id="node2" class="node"><title>Node2</title>
<g id="a_node2"><a xlink:href="../../df/d4e/MonitoringFactory_8h.html" target="_top" xlink:title="Monitoring/MonitoringFactory.h">
<polygon fill="none" stroke="black" points="739.199,-292.5 739.199,-311.5 890.199,-311.5 890.199,-292.5 739.199,-292.5"/>
<text text-anchor="middle" x="814.699" y="-299.5" font-family="Helvetica,sans-Serif" font-size="10.00">Monitoring/MonitoringFactory.h</text>
</a>
</g>
</g>
<!-- Node1&#45;&gt;Node2 -->
<g id="edge1" class="edge"><title>Node1&#45;&gt;Node2</title>
<path fill="none" stroke="midnightblue" d="M747.502,-348.498C762.221,-338.532 779.823,-326.614 793.318,-317.476"/>
<polygon fill="midnightblue" stroke="midnightblue" points="795.602,-320.157 801.92,-311.652 791.677,-314.361 795.602,-320.157"/>
</g>
<!-- Node19 -->
<g id="node19" class="node"><title>Node19</title>
<polygon fill="none" stroke="#bfbfbf" points="1489.2,-112.5 1489.2,-131.5 1618.2,-131.5 1618.2,-112.5 1489.2,-112.5"/>
<text text-anchor="middle" x="1553.7" y="-119.5" font-family="Helvetica,sans-Serif" font-size="10.00">boost/algorithm/string.hpp</text>
</g>
<!-- Node1&#45;&gt;Node19 -->
<g id="edge40" class="edge"><title>Node1&#45;&gt;Node19</title>
<path fill="none" stroke="midnightblue" d="M785.538,-352.476C901.268,-325.087 1146.03,-264.91 1348.7,-200 1411.78,-179.796 1483.96,-151.426 1523.63,-135.364"/>
<polygon fill="midnightblue" stroke="midnightblue" points="1525.04,-138.567 1532.99,-131.558 1522.4,-132.083 1525.04,-138.567"/>
</g>
<!-- Node23 -->
<g id="node23" class="node"><title>Node23</title>
<polygon fill="none" stroke="#bfbfbf" points="1399.2,-292.5 1399.2,-311.5 1458.2,-311.5 1458.2,-292.5 1399.2,-292.5"/>
<text text-anchor="middle" x="1428.7" y="-299.5" font-family="Helvetica,sans-Serif" font-size="10.00">functional</text>
</g>
<!-- Node1&#45;&gt;Node23 -->
<g id="edge38" class="edge"><title>Node1&#45;&gt;Node23</title>
<path fill="none" stroke="midnightblue" d="M785.637,-364.986C906.007,-358.987 1166.77,-343.339 1384.7,-312 1386.15,-311.792 1387.62,-311.566 1389.1,-311.326"/>
<polygon fill="midnightblue" stroke="midnightblue" points="1389.72,-314.77 1398.96,-309.578 1388.5,-307.878 1389.72,-314.77"/>
</g>
<!-- Node24 -->
<g id="node24" class="node"><title>Node24</title>
<polygon fill="none" stroke="#bfbfbf" points="1476.2,-292.5 1476.2,-311.5 1535.2,-311.5 1535.2,-292.5 1476.2,-292.5"/>
<text text-anchor="middle" x="1505.7" y="-299.5" font-family="Helvetica,sans-Serif" font-size="10.00">stdexcept</text>
</g>
<!-- Node1&#45;&gt;Node24 -->
<g id="edge39" class="edge"><title>Node1&#45;&gt;Node24</title>
<path fill="none" stroke="midnightblue" d="M785.372,-366.406C914.814,-362.574 1209.19,-350.25 1465.72,-311.9"/>
<polygon fill="midnightblue" stroke="midnightblue" points="1466.61,-315.304 1475.98,-310.349 1465.57,-308.383 1466.61,-315.304"/>
</g>
<!-- Node25 -->
<g id="node25" class="node"><title>Node25</title>
<g id="a_node25"><a xlink:href="../../df/de7/MonLogger_8h.html" target="_top" xlink:title="MonLogger.h">
<polygon fill="none" stroke="black" points="415.199,-174.5 415.199,-193.5 488.199,-193.5 488.199,-174.5 415.199,-174.5"/>
<text text-anchor="middle" x="451.699" y="-181.5" font-family="Helvetica,sans-Serif" font-size="10.00">MonLogger.h</text>
</a>
</g>
</g>
<!-- Node1&#45;&gt;Node25 -->
<g id="edge41" class="edge"><title>Node1&#45;&gt;Node25</title>
<path fill="none" stroke="midnightblue" d="M690.125,-348.416C636.033,-311.341 519.855,-231.714 472.467,-199.234"/>
<polygon fill="midnightblue" stroke="midnightblue" points="474.424,-196.332 464.197,-193.566 470.466,-202.106 474.424,-196.332"/>
</g>
<!-- Node27 -->
<g id="node27" class="node"><title>Node27</title>
<g id="a_node27"><a xlink:href="../../d7/d79/UriParser_8h.html" target="_top" xlink:title="UriParser/UriParser.h">
<polygon fill="none" stroke="black" points="506.699,-174.5 506.699,-193.5 616.699,-193.5 616.699,-174.5 506.699,-174.5"/>
<text text-anchor="middle" x="561.699" y="-181.5" font-family="Helvetica,sans-Serif" font-size="10.00">UriParser/UriParser.h</text>
</a>
</g>
</g>
<!-- Node1&#45;&gt;Node27 -->
<g id="edge45" class="edge"><title>Node1&#45;&gt;Node27</title>
<path fill="none" stroke="midnightblue" d="M701.897,-348.416C670.818,-312.189 604.881,-235.334 575.885,-201.535"/>
<polygon fill="midnightblue" stroke="midnightblue" points="578.216,-198.876 569.048,-193.566 572.903,-203.434 578.216,-198.876"/>
</g>
<!-- Node29 -->
<g id="node29" class="node"><title>Node29</title>
<g id="a_node29"><a xlink:href="../../d9/de4/InfoLoggerBackend_8h.html" target="_top" xlink:title="Backends/InfoLoggerBackend.h">
<polygon fill="none" stroke="black" points="276.199,-236.5 276.199,-255.5 431.199,-255.5 431.199,-236.5 276.199,-236.5"/>
<text text-anchor="middle" x="353.699" y="-243.5" font-family="Helvetica,sans-Serif" font-size="10.00">Backends/InfoLoggerBackend.h</text>
</a>
</g>
</g>
<!-- Node1&#45;&gt;Node29 -->
<g id="edge49" class="edge"><title>Node1&#45;&gt;Node29</title>
<path fill="none" stroke="midnightblue" d="M651.864,-350.961C613.002,-340.615 563.252,-326.615 519.699,-312 471.17,-295.715 416.059,-273.342 383.127,-259.544"/>
<polygon fill="midnightblue" stroke="midnightblue" points="384.225,-256.209 373.65,-255.554 381.508,-262.66 384.225,-256.209"/>
</g>
<!-- Node30 -->
<g id="node30" class="node"><title>Node30</title>
<g id="a_node30"><a xlink:href="../../d4/d57/Flume_8h.html" target="_top" xlink:title="Backends/Flume.h">
<polygon fill="none" stroke="black" points="159.699,-236.5 159.699,-255.5 257.699,-255.5 257.699,-236.5 159.699,-236.5"/>
<text text-anchor="middle" x="208.699" y="-243.5" font-family="Helvetica,sans-Serif" font-size="10.00">Backends/Flume.h</text>
</a>
</g>
</g>
<!-- Node1&#45;&gt;Node30 -->
<g id="edge52" class="edge"><title>Node1&#45;&gt;Node30</title>
<path fill="none" stroke="midnightblue" d="M651.987,-354.26C599.8,-343.333 525.474,-327.378 460.699,-312 386.26,-294.328 300.04,-271.595 250.194,-258.229"/>
<polygon fill="midnightblue" stroke="midnightblue" points="250.991,-254.819 240.425,-255.604 249.175,-261.579 250.991,-254.819"/>
</g>
<!-- Node3 -->
<g id="node3" class="node"><title>Node3</title>
<g id="a_node3"><a xlink:href="../../d0/d98/Monitoring_8h.html" target="_top" xlink:title="Monitoring/Monitoring.h">
<polygon fill="none" stroke="black" points="781.699,-236.5 781.699,-255.5 899.699,-255.5 899.699,-236.5 781.699,-236.5"/>
<text text-anchor="middle" x="840.699" y="-243.5" font-family="Helvetica,sans-Serif" font-size="10.00">Monitoring/Monitoring.h</text>
</a>
</g>
</g>
<!-- Node2&#45;&gt;Node3 -->
<g id="edge2" class="edge"><title>Node2&#45;&gt;Node3</title>
<path fill="none" stroke="midnightblue" d="M818.992,-292.083C822.551,-284.691 827.721,-273.953 832.123,-264.811"/>
<polygon fill="midnightblue" stroke="midnightblue" points="835.301,-266.279 836.486,-255.751 828.994,-263.243 835.301,-266.279"/>
</g>
<!-- Node4 -->
<g id="node4" class="node"><title>Node4</title>
<polygon fill="none" stroke="#bfbfbf" points="1124.7,-112.5 1124.7,-131.5 1170.7,-131.5 1170.7,-112.5 1124.7,-112.5"/>
<text text-anchor="middle" x="1147.7" y="-119.5" font-family="Helvetica,sans-Serif" font-size="10.00">atomic</text>
</g>
<!-- Node3&#45;&gt;Node4 -->
<g id="edge3" class="edge"><title>Node3&#45;&gt;Node4</title>
<path fill="none" stroke="midnightblue" d="M899.788,-241.457C968.973,-236.243 1078.25,-224.359 1110.7,-200 1129.56,-185.841 1139.26,-159.567 1143.91,-141.689"/>
<polygon fill="midnightblue" stroke="midnightblue" points="1147.35,-142.357 1146.19,-131.826 1140.53,-140.782 1147.35,-142.357"/>
</g>
<!-- Node5 -->
<g id="node5" class="node"><title>Node5</title>
<polygon fill="none" stroke="#bfbfbf" points="417.699,-56.5 417.699,-75.5 463.699,-75.5 463.699,-56.5 417.699,-56.5"/>
<text text-anchor="middle" x="440.699" y="-63.5" font-family="Helvetica,sans-Serif" font-size="10.00">chrono</text>
</g>
<!-- Node3&#45;&gt;Node5 -->
<g id="edge4" class="edge"><title>Node3&#45;&gt;Node5</title>
<path fill="none" stroke="midnightblue" d="M781.69,-236.741C749.495,-230.301 709.951,-219.112 678.699,-200 633.35,-172.267 642.934,-139.919 597.699,-112 559.053,-88.1478 507.309,-76.5271 473.984,-71.1694"/>
<polygon fill="midnightblue" stroke="midnightblue" points="474.261,-67.6717 463.852,-69.6423 473.218,-74.5936 474.261,-67.6717"/>
</g>
<!-- Node6 -->
<g id="node6" class="node"><title>Node6</title>
<polygon fill="none" stroke="#bfbfbf" points="721.199,-174.5 721.199,-193.5 756.199,-193.5 756.199,-174.5 721.199,-174.5"/>
<text text-anchor="middle" x="738.699" y="-181.5" font-family="Helvetica,sans-Serif" font-size="10.00">map</text>
</g>
<!-- Node3&#45;&gt;Node6 -->
<g id="edge5" class="edge"><title>Node3&#45;&gt;Node6</title>
<path fill="none" stroke="midnightblue" d="M826.085,-236.403C809.346,-226.557 781.694,-210.291 761.98,-198.695"/>
<polygon fill="midnightblue" stroke="midnightblue" points="763.68,-195.634 753.286,-193.581 760.131,-201.668 763.68,-195.634"/>
</g>
<!-- Node7 -->
<g id="node7" class="node"><title>Node7</title>
<polygon fill="none" stroke="#bfbfbf" points="720.699,-112.5 720.699,-131.5 772.699,-131.5 772.699,-112.5 720.699,-112.5"/>
<text text-anchor="middle" x="746.699" y="-119.5" font-family="Helvetica,sans-Serif" font-size="10.00">memory</text>
</g>
<!-- Node3&#45;&gt;Node7 -->
<g id="edge6" class="edge"><title>Node3&#45;&gt;Node7</title>
<path fill="none" stroke="midnightblue" d="M840.661,-236.481C840.179,-221.266 837.241,-189.044 821.699,-168 811.191,-153.772 794.717,-143.175 779.883,-135.851"/>
<polygon fill="midnightblue" stroke="midnightblue" points="780.997,-132.511 770.45,-131.505 778.068,-138.868 780.997,-132.511"/>
</g>
<!-- Node8 -->
<g id="node8" class="node"><title>Node8</title>
<polygon fill="none" stroke="#bfbfbf" points="653.199,-0.5 653.199,-19.5 694.199,-19.5 694.199,-0.5 653.199,-0.5"/>
<text text-anchor="middle" x="673.699" y="-7.5" font-family="Helvetica,sans-Serif" font-size="10.00">string</text>
</g>
<!-- Node3&#45;&gt;Node8 -->
<g id="edge7" class="edge"><title>Node3&#45;&gt;Node8</title>
<path fill="none" stroke="midnightblue" d="M781.396,-237.479C756.505,-231.343 729.308,-220.207 711.699,-200 668.857,-150.835 669.217,-67.0247 671.834,-29.7874"/>
<polygon fill="midnightblue" stroke="midnightblue" points="675.322,-30.0745 672.673,-19.8161 668.347,-29.4873 675.322,-30.0745"/>
</g>
<!-- Node9 -->
<g id="node9" class="node"><title>Node9</title>
<polygon fill="none" stroke="#bfbfbf" points="1426.7,-112.5 1426.7,-131.5 1470.7,-131.5 1470.7,-112.5 1426.7,-112.5"/>
<text text-anchor="middle" x="1448.7" y="-119.5" font-family="Helvetica,sans-Serif" font-size="10.00">thread</text>
</g>
<!-- Node3&#45;&gt;Node9 -->
<g id="edge8" class="edge"><title>Node3&#45;&gt;Node9</title>
<path fill="none" stroke="midnightblue" d="M899.738,-243.245C1009.06,-239.361 1238.6,-228.053 1312.7,-200 1335.31,-191.438 1335.98,-180.47 1356.7,-168 1376.97,-155.797 1401.03,-144.12 1419.46,-135.72"/>
<polygon fill="midnightblue" stroke="midnightblue" points="1421.11,-138.817 1428.79,-131.525 1418.24,-132.432 1421.11,-138.817"/>
</g>
<!-- Node10 -->
<g id="node10" class="node"><title>Node10</title>
<polygon fill="none" stroke="#bfbfbf" points="774.699,-174.5 774.699,-193.5 812.699,-193.5 812.699,-174.5 774.699,-174.5"/>
<text text-anchor="middle" x="793.699" y="-181.5" font-family="Helvetica,sans-Serif" font-size="10.00">tuple</text>
</g>
<!-- Node3&#45;&gt;Node10 -->
<g id="edge9" class="edge"><title>Node3&#45;&gt;Node10</title>
<path fill="none" stroke="midnightblue" d="M833.965,-236.403C826.915,-227.403 815.664,-213.041 806.845,-201.782"/>
<polygon fill="midnightblue" stroke="midnightblue" points="809.342,-199.295 800.42,-193.581 803.832,-203.611 809.342,-199.295"/>
</g>
<!-- Node11 -->
<g id="node11" class="node"><title>Node11</title>
<polygon fill="none" stroke="#bfbfbf" points="985.199,-112.5 985.199,-131.5 1068.2,-131.5 1068.2,-112.5 985.199,-112.5"/>
<text text-anchor="middle" x="1026.7" y="-119.5" font-family="Helvetica,sans-Serif" font-size="10.00">unordered_map</text>
</g>
<!-- Node3&#45;&gt;Node11 -->
<g id="edge10" class="edge"><title>Node3&#45;&gt;Node11</title>
<path fill="none" stroke="midnightblue" d="M899.98,-237.059C944.819,-229.782 1001.23,-217.472 1016.7,-200 1030.7,-184.188 1031.31,-158.888 1029.67,-141.637"/>
<polygon fill="midnightblue" stroke="midnightblue" points="1033.14,-141.117 1028.39,-131.643 1026.19,-142.007 1033.14,-141.117"/>
</g>
<!-- Node12 -->
<g id="node12" class="node"><title>Node12</title>
<polygon fill="none" stroke="#bfbfbf" points="1045.7,-56.5 1045.7,-75.5 1089.7,-75.5 1089.7,-56.5 1045.7,-56.5"/>
<text text-anchor="middle" x="1067.7" y="-63.5" font-family="Helvetica,sans-Serif" font-size="10.00">vector</text>
</g>
<!-- Node3&#45;&gt;Node12 -->
<g id="edge11" class="edge"><title>Node3&#45;&gt;Node12</title>
<path fill="none" stroke="midnightblue" d="M899.73,-243.774C941.824,-240.172 997.802,-229.539 1037.7,-200 1065.7,-179.269 1067.73,-165.666 1076.7,-132 1080.82,-116.519 1077.7,-98.4327 1074.05,-85.2742"/>
<polygon fill="midnightblue" stroke="midnightblue" points="1077.33,-84.0436 1071,-75.5456 1070.65,-86.1346 1077.33,-84.0436"/>
</g>
<!-- Node13 -->
<g id="node13" class="node"><title>Node13</title>
<g id="a_node13"><a xlink:href="../../df/d83/Backend_8h.html" target="_top" xlink:title="Monitoring/Backend.h">
<polygon fill="none" stroke="black" points="286.199,-174.5 286.199,-193.5 397.199,-193.5 397.199,-174.5 286.199,-174.5"/>
<text text-anchor="middle" x="341.699" y="-181.5" font-family="Helvetica,sans-Serif" font-size="10.00">Monitoring/Backend.h</text>
</a>
</g>
</g>
<!-- Node3&#45;&gt;Node13 -->
<g id="edge12" class="edge"><title>Node3&#45;&gt;Node13</title>
<path fill="none" stroke="midnightblue" d="M781.629,-241.281C697.661,-235.453 539.158,-222.449 405.699,-200 398.818,-198.843 391.573,-197.382 384.531,-195.83"/>
<polygon fill="midnightblue" stroke="midnightblue" points="384.953,-192.336 374.424,-193.514 383.39,-199.159 384.953,-192.336"/>
</g>
<!-- Node17 -->
<g id="node17" class="node"><title>Node17</title>
<g id="a_node17"><a xlink:href="../../dc/de0/DerivedMetrics_8h.html" target="_top" xlink:title="Monitoring/DerivedMetrics.h">
<polygon fill="none" stroke="black" points="869.199,-174.5 869.199,-193.5 1008.2,-193.5 1008.2,-174.5 869.199,-174.5"/>
<text text-anchor="middle" x="938.699" y="-181.5" font-family="Helvetica,sans-Serif" font-size="10.00">Monitoring/DerivedMetrics.h</text>
</a>
</g>
</g>
<!-- Node3&#45;&gt;Node17 -->
<g id="edge22" class="edge"><title>Node3&#45;&gt;Node17</title>
<path fill="none" stroke="midnightblue" d="M854.74,-236.403C870.75,-226.601 897.149,-210.439 916.073,-198.853"/>
<polygon fill="midnightblue" stroke="midnightblue" points="917.983,-201.787 924.684,-193.581 914.328,-195.817 917.983,-201.787"/>
</g>
<!-- Node18 -->
<g id="node18" class="node"><title>Node18</title>
<g id="a_node18"><a xlink:href="../../df/d93/ProcessMonitor_8h.html" target="_top" xlink:title="Monitoring/ProcessMonitor.h">
<polygon fill="none" stroke="black" points="1163.2,-174.5 1163.2,-193.5 1304.2,-193.5 1304.2,-174.5 1163.2,-174.5"/>
<text text-anchor="middle" x="1233.7" y="-181.5" font-family="Helvetica,sans-Serif" font-size="10.00">Monitoring/ProcessMonitor.h</text>
</a>
</g>
</g>
<!-- Node3&#45;&gt;Node18 -->
<g id="edge28" class="edge"><title>Node3&#45;&gt;Node18</title>
<path fill="none" stroke="midnightblue" d="M899.824,-236.891C961.889,-228.255 1062.27,-213.937 1148.7,-200 1157.82,-198.528 1167.49,-196.895 1176.9,-195.263"/>
<polygon fill="midnightblue" stroke="midnightblue" points="1177.73,-198.672 1186.98,-193.501 1176.52,-191.776 1177.73,-198.672"/>
</g>
<!-- Node13&#45;&gt;Node5 -->
<g id="edge13" class="edge"><title>Node13&#45;&gt;Node5</title>
<path fill="none" stroke="midnightblue" d="M340.825,-174.19C339.868,-159.752 339.992,-130.782 353.699,-112 366.785,-94.069 389.147,-82.724 407.922,-75.9106"/>
<polygon fill="midnightblue" stroke="midnightblue" points="409.251,-79.1569 417.623,-72.6643 407.029,-72.5187 409.251,-79.1569"/>
</g>
<!-- Node13&#45;&gt;Node8 -->
<g id="edge14" class="edge"><title>Node13&#45;&gt;Node8</title>
<path fill="none" stroke="midnightblue" d="M339.209,-174.178C335.77,-160.217 331.018,-132.513 340.699,-112 357.408,-76.5932 373.088,-72.2701 408.699,-56 487.754,-19.8808 592.048,-12.4988 643.009,-11.1575"/>
<polygon fill="midnightblue" stroke="midnightblue" points="643.119,-14.6561 653.046,-10.9548 642.978,-7.65752 643.119,-14.6561"/>
</g>
<!-- Node14 -->
<g id="node14" class="node"><title>Node14</title>
<g id="a_node14"><a xlink:href="../../d9/d92/Metric_8h.html" target="_top" xlink:title="Monitoring/Metric.h">
<polygon fill="none" stroke="black" points="828.699,-112.5 828.699,-131.5 928.699,-131.5 928.699,-112.5 828.699,-112.5"/>
<text text-anchor="middle" x="878.699" y="-119.5" font-family="Helvetica,sans-Serif" font-size="10.00">Monitoring/Metric.h</text>
</a>
</g>
</g>
<!-- Node13&#45;&gt;Node14 -->
<g id="edge15" class="edge"><title>Node13&#45;&gt;Node14</title>
<path fill="none" stroke="midnightblue" d="M374.416,-174.433C384.401,-172.062 395.451,-169.681 405.699,-168 415.769,-166.349 693.034,-140.349 818.291,-128.64"/>
<polygon fill="midnightblue" stroke="midnightblue" points="818.855,-132.103 828.486,-127.687 818.203,-125.133 818.855,-132.103"/>
</g>
<!-- Node14&#45;&gt;Node5 -->
<g id="edge17" class="edge"><title>Node14&#45;&gt;Node5</title>
<path fill="none" stroke="midnightblue" d="M828.455,-114.806C738.104,-103.666 550.519,-80.5394 474.144,-71.1233"/>
<polygon fill="midnightblue" stroke="midnightblue" points="474.48,-67.6384 464.127,-69.8884 473.623,-74.5858 474.48,-67.6384"/>
</g>
<!-- Node14&#45;&gt;Node8 -->
<g id="edge16" class="edge"><title>Node14&#45;&gt;Node8</title>
<path fill="none" stroke="midnightblue" d="M880.163,-112.121C881.905,-98.239 882.993,-71.3954 868.699,-56 846.675,-32.2791 753.408,-19.2494 704.274,-13.9141"/>
<polygon fill="midnightblue" stroke="midnightblue" points="704.526,-10.4215 694.216,-12.8628 703.798,-17.3836 704.526,-10.4215"/>
</g>
<!-- Node14&#45;&gt;Node12 -->
<g id="edge18" class="edge"><title>Node14&#45;&gt;Node12</title>
<path fill="none" stroke="midnightblue" d="M908.647,-112.444C943.32,-102.537 1000.2,-86.2846 1035.72,-76.1375"/>
<polygon fill="midnightblue" stroke="midnightblue" points="1036.91,-79.4356 1045.57,-73.323 1034.99,-72.7049 1036.91,-79.4356"/>
</g>
<!-- Node15 -->
<g id="node15" class="node"><title>Node15</title>
<polygon fill="none" stroke="#bfbfbf" points="916.699,-56.5 916.699,-75.5 1008.7,-75.5 1008.7,-56.5 916.699,-56.5"/>
<text text-anchor="middle" x="962.699" y="-63.5" font-family="Helvetica,sans-Serif" font-size="10.00">boost/variant.hpp</text>
</g>
<!-- Node14&#45;&gt;Node15 -->
<g id="edge19" class="edge"><title>Node14&#45;&gt;Node15</title>
<path fill="none" stroke="midnightblue" d="M892.195,-112.324C905.299,-103.9 925.411,-90.9709 940.806,-81.0741"/>
<polygon fill="midnightblue" stroke="midnightblue" points="942.717,-84.0063 949.236,-75.6545 938.932,-78.118 942.717,-84.0063"/>
</g>
<!-- Node16 -->
<g id="node16" class="node"><title>Node16</title>
<g id="a_node16"><a xlink:href="../../d9/d33/Tag_8h.html" target="_top" xlink:title="Tag.h">
<polygon fill="none" stroke="black" points="819.199,-56.5 819.199,-75.5 860.199,-75.5 860.199,-56.5 819.199,-56.5"/>
<text text-anchor="middle" x="839.699" y="-63.5" font-family="Helvetica,sans-Serif" font-size="10.00">Tag.h</text>
</a>
</g>
</g>
<!-- Node14&#45;&gt;Node16 -->
<g id="edge20" class="edge"><title>Node14&#45;&gt;Node16</title>
<path fill="none" stroke="midnightblue" d="M872.259,-112.083C866.75,-104.455 858.668,-93.2645 851.934,-83.9408"/>
<polygon fill="midnightblue" stroke="midnightblue" points="854.712,-81.8087 846.019,-75.7511 849.037,-85.9071 854.712,-81.8087"/>
</g>
<!-- Node16&#45;&gt;Node8 -->
<g id="edge21" class="edge"><title>Node16&#45;&gt;Node8</title>
<path fill="none" stroke="midnightblue" d="M819.011,-58.27C790.104,-48.8667 737.435,-31.7333 704.073,-20.8806"/>
<polygon fill="midnightblue" stroke="midnightblue" points="704.979,-17.4949 694.387,-17.7297 702.813,-24.1516 704.979,-17.4949"/>
</g>
<!-- Node17&#45;&gt;Node7 -->
<g id="edge24" class="edge"><title>Node17&#45;&gt;Node7</title>
<path fill="none" stroke="midnightblue" d="M911.19,-174.403C877.448,-163.859 820.153,-145.954 782.872,-134.304"/>
<polygon fill="midnightblue" stroke="midnightblue" points="783.513,-130.838 772.924,-131.195 781.425,-137.519 783.513,-130.838"/>
</g>
<!-- Node17&#45;&gt;Node8 -->
<g id="edge25" class="edge"><title>Node17&#45;&gt;Node8</title>
<path fill="none" stroke="midnightblue" d="M913.057,-174.441C888.231,-165.603 850.004,-150.516 819.699,-132 767.988,-100.405 715.155,-51.685 689.55,-26.8038"/>
<polygon fill="midnightblue" stroke="midnightblue" points="691.817,-24.1244 682.23,-19.615 686.913,-29.1189 691.817,-24.1244"/>
</g>
<!-- Node17&#45;&gt;Node11 -->
<g id="edge23" class="edge"><title>Node17&#45;&gt;Node11</title>
<path fill="none" stroke="midnightblue" d="M951.307,-174.403C965.422,-164.78 988.53,-149.024 1005.45,-137.489"/>
<polygon fill="midnightblue" stroke="midnightblue" points="1007.82,-140.106 1014.11,-131.581 1003.88,-134.322 1007.82,-140.106"/>
</g>
<!-- Node17&#45;&gt;Node12 -->
<g id="edge26" class="edge"><title>Node17&#45;&gt;Node12</title>
<path fill="none" stroke="midnightblue" d="M941.183,-174.494C945.804,-159.981 956.987,-130.241 975.699,-112 992.613,-95.5121 1016.75,-84.0185 1036.05,-76.7757"/>
<polygon fill="midnightblue" stroke="midnightblue" points="1037.39,-80.0147 1045.64,-73.3718 1035.05,-73.4178 1037.39,-80.0147"/>
</g>
<!-- Node17&#45;&gt;Node14 -->
<g id="edge27" class="edge"><title>Node17&#45;&gt;Node14</title>
<path fill="none" stroke="midnightblue" d="M930.102,-174.403C920.835,-165.136 905.882,-150.183 894.487,-138.788"/>
<polygon fill="midnightblue" stroke="midnightblue" points="896.826,-136.177 887.28,-131.581 891.876,-141.127 896.826,-136.177"/>
</g>
<!-- Node18&#45;&gt;Node4 -->
<g id="edge29" class="edge"><title>Node18&#45;&gt;Node4</title>
<path fill="none" stroke="midnightblue" d="M1221.38,-174.403C1207.58,-164.78 1185,-149.024 1168.47,-137.489"/>
<polygon fill="midnightblue" stroke="midnightblue" points="1170.2,-134.432 1160,-131.581 1166.2,-140.173 1170.2,-134.432"/>
</g>
<!-- Node18&#45;&gt;Node8 -->
<g id="edge33" class="edge"><title>Node18&#45;&gt;Node8</title>
<path fill="none" stroke="midnightblue" d="M1231.97,-174.092C1228.74,-159.511 1220.52,-130.342 1203.7,-112 1167.68,-72.7351 1148.67,-71.5361 1097.7,-56 955.59,-12.6805 775.704,-9.62604 704.615,-10.328"/>
<polygon fill="midnightblue" stroke="midnightblue" points="704.5,-6.82907 694.547,-10.4608 704.593,-13.8285 704.5,-6.82907"/>
</g>
<!-- Node18&#45;&gt;Node9 -->
<g id="edge34" class="edge"><title>Node18&#45;&gt;Node9</title>
<path fill="none" stroke="midnightblue" d="M1264.47,-174.45C1300.83,-164.337 1363.18,-146.983 1416.7,-132 1416.8,-131.972 1416.9,-131.944 1417,-131.915"/>
<polygon fill="midnightblue" stroke="midnightblue" points="1417.98,-135.275 1426.67,-129.204 1416.09,-128.535 1417.98,-135.275"/>
</g>
<!-- Node18&#45;&gt;Node12 -->
<g id="edge35" class="edge"><title>Node18&#45;&gt;Node12</title>
<path fill="none" stroke="midnightblue" d="M1229.19,-174.369C1221.12,-159.667 1202.85,-129.65 1179.7,-112 1155.89,-93.8517 1123.78,-81.9449 1100.04,-74.9652"/>
<polygon fill="midnightblue" stroke="midnightblue" points="1100.68,-71.51 1090.11,-72.186 1098.79,-78.2511 1100.68,-71.51"/>
</g>
<!-- Node18&#45;&gt;Node14 -->
<g id="edge37" class="edge"><title>Node18&#45;&gt;Node14</title>
<path fill="none" stroke="midnightblue" d="M1183.21,-174.467C1118.85,-163.589 1007.69,-144.802 938.962,-133.185"/>
<polygon fill="midnightblue" stroke="midnightblue" points="939.168,-129.67 928.724,-131.455 938.001,-136.573 939.168,-129.67"/>
</g>
<!-- Node18&#45;&gt;Node19 -->
<g id="edge30" class="edge"><title>Node18&#45;&gt;Node19</title>
<path fill="none" stroke="midnightblue" d="M1279.21,-174.467C1336.91,-163.649 1436.32,-145.009 1498.35,-133.378"/>
<polygon fill="midnightblue" stroke="midnightblue" points="1499.16,-136.786 1508.35,-131.503 1497.87,-129.906 1499.16,-136.786"/>
</g>
<!-- Node20 -->
<g id="node20" class="node"><title>Node20</title>
<polygon fill="none" stroke="#bfbfbf" points="1264.7,-112.5 1264.7,-131.5 1308.7,-131.5 1308.7,-112.5 1264.7,-112.5"/>
<text text-anchor="middle" x="1286.7" y="-119.5" font-family="Helvetica,sans-Serif" font-size="10.00">mutex</text>
</g>
<!-- Node18&#45;&gt;Node20 -->
<g id="edge31" class="edge"><title>Node18&#45;&gt;Node20</title>
<path fill="none" stroke="midnightblue" d="M1241.29,-174.403C1249.4,-165.225 1262.43,-150.47 1272.46,-139.117"/>
<polygon fill="midnightblue" stroke="midnightblue" points="1275.12,-141.392 1279.12,-131.581 1269.88,-136.758 1275.12,-141.392"/>
</g>
<!-- Node21 -->
<g id="node21" class="node"><title>Node21</title>
<polygon fill="none" stroke="#bfbfbf" points="534.699,-112.5 534.699,-131.5 588.699,-131.5 588.699,-112.5 534.699,-112.5"/>
<text text-anchor="middle" x="561.699" y="-119.5" font-family="Helvetica,sans-Serif" font-size="10.00">iostream</text>
</g>
<!-- Node18&#45;&gt;Node21 -->
<g id="edge32" class="edge"><title>Node18&#45;&gt;Node21</title>
<path fill="none" stroke="midnightblue" d="M1163.05,-176.692C1021.35,-164.041 706.787,-135.954 598.877,-126.319"/>
<polygon fill="midnightblue" stroke="midnightblue" points="599.07,-122.823 588.798,-125.42 598.447,-129.795 599.07,-122.823"/>
</g>
<!-- Node22 -->
<g id="node22" class="node"><title>Node22</title>
<polygon fill="none" stroke="#bfbfbf" points="1327.2,-112.5 1327.2,-131.5 1408.2,-131.5 1408.2,-112.5 1327.2,-112.5"/>
<text text-anchor="middle" x="1367.7" y="-119.5" font-family="Helvetica,sans-Serif" font-size="10.00">sys/resource.h</text>
</g>
<!-- Node18&#45;&gt;Node22 -->
<g id="edge36" class="edge"><title>Node18&#45;&gt;Node22</title>
<path fill="none" stroke="midnightblue" d="M1252.9,-174.403C1275.49,-164.29 1313.2,-147.404 1339.2,-135.761"/>
<polygon fill="midnightblue" stroke="midnightblue" points="1340.84,-138.862 1348.54,-131.581 1337.98,-132.473 1340.84,-138.862"/>
</g>
<!-- Node25&#45;&gt;Node5 -->
<g id="edge42" class="edge"><title>Node25&#45;&gt;Node5</title>
<path fill="none" stroke="midnightblue" d="M450.872,-174.281C449.096,-155.547 444.881,-111.098 442.471,-85.6822"/>
<polygon fill="midnightblue" stroke="midnightblue" points="445.934,-85.1297 441.505,-75.5048 438.965,-85.7906 445.934,-85.1297"/>
</g>
<!-- Node25&#45;&gt;Node21 -->
<g id="edge44" class="edge"><title>Node25&#45;&gt;Node21</title>
<path fill="none" stroke="midnightblue" d="M467.459,-174.403C485.675,-164.468 515.872,-147.997 537.167,-136.381"/>
<polygon fill="midnightblue" stroke="midnightblue" points="538.865,-139.442 545.968,-131.581 535.513,-133.297 538.865,-139.442"/>
</g>
<!-- Node26 -->
<g id="node26" class="node"><title>Node26</title>
<polygon fill="none" stroke="#bfbfbf" points="362.699,-112.5 362.699,-131.5 412.699,-131.5 412.699,-112.5 362.699,-112.5"/>
<text text-anchor="middle" x="387.699" y="-119.5" font-family="Helvetica,sans-Serif" font-size="10.00">iomanip</text>
</g>
<!-- Node25&#45;&gt;Node26 -->
<g id="edge43" class="edge"><title>Node25&#45;&gt;Node26</title>
<path fill="none" stroke="midnightblue" d="M442.529,-174.403C432.549,-165.047 416.387,-149.895 404.19,-138.46"/>
<polygon fill="midnightblue" stroke="midnightblue" points="406.541,-135.867 396.852,-131.581 401.753,-140.973 406.541,-135.867"/>
</g>
<!-- Node27&#45;&gt;Node8 -->
<g id="edge47" class="edge"><title>Node27&#45;&gt;Node8</title>
<path fill="none" stroke="midnightblue" d="M567.957,-174.435C575.254,-164.381 587.603,-147.152 597.699,-132 621.891,-95.692 648.713,-52.1619 663.134,-28.4698"/>
<polygon fill="midnightblue" stroke="midnightblue" points="666.315,-29.9743 668.511,-19.6095 660.331,-26.3426 666.315,-29.9743"/>
</g>
<!-- Node27&#45;&gt;Node21 -->
<g id="edge46" class="edge"><title>Node27&#45;&gt;Node21</title>
<path fill="none" stroke="midnightblue" d="M561.699,-174.403C561.699,-165.938 561.699,-152.728 561.699,-141.82"/>
<polygon fill="midnightblue" stroke="midnightblue" points="565.199,-141.581 561.699,-131.581 558.199,-141.581 565.199,-141.581"/>
</g>
<!-- Node28 -->
<g id="node28" class="node"><title>Node28</title>
<polygon fill="none" stroke="#bfbfbf" points="468.699,-112.5 468.699,-131.5 516.699,-131.5 516.699,-112.5 468.699,-112.5"/>
<text text-anchor="middle" x="492.699" y="-119.5" font-family="Helvetica,sans-Serif" font-size="10.00">stdlib.h</text>
</g>
<!-- Node27&#45;&gt;Node28 -->
<g id="edge48" class="edge"><title>Node27&#45;&gt;Node28</title>
<path fill="none" stroke="midnightblue" d="M551.813,-174.403C541.053,-165.047 523.628,-149.895 510.478,-138.46"/>
<polygon fill="midnightblue" stroke="midnightblue" points="512.409,-135.501 502.567,-131.581 507.816,-140.784 512.409,-135.501"/>
</g>
<!-- Node29&#45;&gt;Node8 -->
<g id="edge51" class="edge"><title>Node29&#45;&gt;Node8</title>
<path fill="none" stroke="midnightblue" d="M325.327,-236.495C307.947,-229.653 287.103,-218.13 276.699,-200 239.27,-134.773 325.886,-78.9123 365.699,-56 412.603,-29.0069 574.64,-16.7065 642.948,-12.631"/>
<polygon fill="midnightblue" stroke="midnightblue" points="643.293,-16.117 653.075,-12.0465 642.889,-9.12862 643.293,-16.117"/>
</g>
<!-- Node29&#45;&gt;Node13 -->
<g id="edge50" class="edge"><title>Node29&#45;&gt;Node13</title>
<path fill="none" stroke="midnightblue" d="M351.98,-236.403C350.269,-227.849 347.589,-214.45 345.394,-203.476"/>
<polygon fill="midnightblue" stroke="midnightblue" points="348.808,-202.7 343.415,-193.581 341.944,-204.073 348.808,-202.7"/>
</g>
<!-- Node30&#45;&gt;Node5 -->
<g id="edge58" class="edge"><title>Node30&#45;&gt;Node5</title>
<path fill="none" stroke="midnightblue" d="M215.128,-236.247C232.702,-212.888 284.035,-148.387 340.699,-112 361.9,-98.3858 387.906,-86.8213 408.083,-78.8257"/>
<polygon fill="midnightblue" stroke="midnightblue" points="409.409,-82.0656 417.473,-75.194 406.884,-75.5369 409.409,-82.0656"/>
</g>
<!-- Node30&#45;&gt;Node8 -->
<g id="edge59" class="edge"><title>Node30&#45;&gt;Node8</title>
<path fill="none" stroke="midnightblue" d="M159.5,-240.248C129.317,-234.945 91.7784,-223.727 66.699,-200 17.7942,-153.733 -26.2424,-105.211 19.699,-56 62.6238,-10.0202 519.149,-9.89526 642.905,-10.7168"/>
<polygon fill="midnightblue" stroke="midnightblue" points="643.154,-14.2187 653.18,-10.7926 643.206,-7.21886 643.154,-14.2187"/>
</g>
<!-- Node30&#45;&gt;Node13 -->
<g id="edge53" class="edge"><title>Node30&#45;&gt;Node13</title>
<path fill="none" stroke="midnightblue" d="M227.755,-236.403C250.174,-226.29 287.604,-209.404 313.412,-197.761"/>
<polygon fill="midnightblue" stroke="midnightblue" points="315.003,-200.883 322.679,-193.581 312.124,-194.502 315.003,-200.883"/>
</g>
<!-- Node30&#45;&gt;Node25 -->
<g id="edge56" class="edge"><title>Node30&#45;&gt;Node25</title>
<path fill="none" stroke="midnightblue" d="M251.248,-236.445C291.337,-228.11 352.952,-214.592 405.699,-200 409.507,-198.947 413.468,-197.774 417.397,-196.562"/>
<polygon fill="midnightblue" stroke="midnightblue" points="418.526,-199.876 426.996,-193.511 416.405,-193.204 418.526,-199.876"/>
</g>
<!-- Node31 -->
<g id="node31" class="node"><title>Node31</title>
<g id="a_node31"><a xlink:href="../../de/dac/TransportInterface_8h.html" target="_top" xlink:title="../Transports/TransportInterface.h">
<polygon fill="none" stroke="black" points="29.199,-56.5 29.199,-75.5 192.199,-75.5 192.199,-56.5 29.199,-56.5"/>
<text text-anchor="middle" x="110.699" y="-63.5" font-family="Helvetica,sans-Serif" font-size="10.00">../Transports/TransportInterface.h</text>
</a>
</g>
</g>
<!-- Node30&#45;&gt;Node31 -->
<g id="edge54" class="edge"><title>Node30&#45;&gt;Node31</title>
<path fill="none" stroke="midnightblue" d="M159.386,-241.244C131.384,-236.287 98.4689,-225.083 80.699,-200 55.4845,-164.408 82.1138,-111.143 99.0153,-84.0896"/>
<polygon fill="midnightblue" stroke="midnightblue" points="101.964,-85.9754 104.487,-75.6854 96.0977,-82.1561 101.964,-85.9754"/>
</g>
<!-- Node32 -->
<g id="node32" class="node"><title>Node32</title>
<polygon fill="none" stroke="#bfbfbf" points="90.199,-169 90.199,-199 191.199,-199 191.199,-169 90.199,-169"/>
<text text-anchor="start" x="98.199" y="-187" font-family="Helvetica,sans-Serif" font-size="10.00">boost/property_tree</text>
<text text-anchor="middle" x="140.699" y="-176" font-family="Helvetica,sans-Serif" font-size="10.00">/ptree.hpp</text>
</g>
<!-- Node30&#45;&gt;Node32 -->
<g id="edge57" class="edge"><title>Node30&#45;&gt;Node32</title>
<path fill="none" stroke="midnightblue" d="M198.956,-236.403C190.005,-228.505 176.373,-216.477 164.545,-206.041"/>
<polygon fill="midnightblue" stroke="midnightblue" points="166.539,-203.133 156.725,-199.141 161.908,-208.382 166.539,-203.133"/>
</g>
<!-- Node31&#45;&gt;Node8 -->
<g id="edge55" class="edge"><title>Node31&#45;&gt;Node8</title>
<path fill="none" stroke="midnightblue" d="M192.263,-57.1768C319.244,-44.9974 558.405,-22.0584 643.055,-13.9392"/>
<polygon fill="midnightblue" stroke="midnightblue" points="643.428,-17.4196 653.048,-12.9808 642.759,-10.4516 643.428,-17.4196"/>
</g>
</g>
</svg>
