<?xml version="1.0" encoding="UTF-8" standalone="no"?>
<!DOCTYPE svg PUBLIC "-//W3C//DTD SVG 1.1//EN"
 "http://www.w3.org/Graphics/SVG/1.1/DTD/svg11.dtd">
<!-- Generated by graphviz version 2.36.0 (20140111.2315)
 -->
<!-- Title: /home/travis/build/AliceO2Group/Monitoring/src/Transports/UDP.cxx Pages: 1 -->
<svg width="581pt" height="218pt"
 viewBox="0.00 0.00 581.48 218.00" xmlns="http://www.w3.org/2000/svg" xmlns:xlink="http://www.w3.org/1999/xlink">
<g id="graph0" class="graph" transform="scale(1 1) rotate(0) translate(4 214)">
<title>/home/travis/build/AliceO2Group/Monitoring/src/Transports/UDP.cxx</title>
<!-- Node1 -->
<g id="node1" class="node"><title>Node1</title>
<polygon fill="#bfbfbf" stroke="black" points="378,-168.5 378,-209.5 506,-209.5 506,-168.5 378,-168.5"/>
<text text-anchor="start" x="386" y="-197.5" font-family="Helvetica,sans-Serif" font-size="10.00">/home/travis/build</text>
<text text-anchor="start" x="386" y="-186.5" font-family="Helvetica,sans-Serif" font-size="10.00">/AliceO2Group/Monitoring</text>
<text text-anchor="middle" x="442" y="-175.5" font-family="Helvetica,sans-Serif" font-size="10.00">/src/Transports/UDP.cxx</text>
</g>
<!-- Node2 -->
<g id="node2" class="node"><title>Node2</title>
<g id="a_node2"><a xlink:href="../../d2/d5c/UDP_8h.html" target="_top" xlink:title="UDP.h">
<polygon fill="none" stroke="black" points="278.5,-112.5 278.5,-131.5 325.5,-131.5 325.5,-112.5 278.5,-112.5"/>
<text text-anchor="middle" x="302" y="-119.5" font-family="Helvetica,sans-Serif" font-size="10.00">UDP.h</text>
</a>
</g>
</g>
<!-- Node1&#45;&gt;Node2 -->
<g id="edge1" class="edge"><title>Node1&#45;&gt;Node2</title>
<path fill="none" stroke="midnightblue" d="M399.995,-168.498C377.292,-157.957 349.886,-145.233 329.835,-135.923"/>
<polygon fill="midnightblue" stroke="midnightblue" points="331.18,-132.689 320.636,-131.652 328.232,-139.038 331.18,-132.689"/>
</g>
<!-- Node4 -->
<g id="node4" class="node"><title>Node4</title>
<polygon fill="none" stroke="#bfbfbf" points="111.5,-0.5 111.5,-19.5 152.5,-19.5 152.5,-0.5 111.5,-0.5"/>
<text text-anchor="middle" x="132" y="-7.5" font-family="Helvetica,sans-Serif" font-size="10.00">string</text>
</g>
<!-- Node1&#45;&gt;Node4 -->
<g id="edge9" class="edge"><title>Node1&#45;&gt;Node4</title>
<path fill="none" stroke="midnightblue" d="M482.436,-168.416C530.298,-142.725 599.209,-96.1866 563,-56 536.239,-26.2994 256.783,-14.8966 162.71,-11.8819"/>
<polygon fill="midnightblue" stroke="midnightblue" points="162.788,-8.38275 152.684,-11.5702 162.57,-15.3794 162.788,-8.38275"/>
</g>
<!-- Node3 -->
<g id="node3" class="node"><title>Node3</title>
<g id="a_node3"><a xlink:href="../../de/dac/TransportInterface_8h.html" target="_top" xlink:title="TransportInterface.h">
<polygon fill="none" stroke="black" points="0,-56.5 0,-75.5 104,-75.5 104,-56.5 0,-56.5"/>
<text text-anchor="middle" x="52" y="-63.5" font-family="Helvetica,sans-Serif" font-size="10.00">TransportInterface.h</text>
</a>
</g>
</g>
<!-- Node2&#45;&gt;Node3 -->
<g id="edge2" class="edge"><title>Node2&#45;&gt;Node3</title>
<path fill="none" stroke="midnightblue" d="M278.481,-115.92C238.171,-107.213 155.065,-89.2619 101.512,-77.6946"/>
<polygon fill="midnightblue" stroke="midnightblue" points="102.059,-74.2321 91.5453,-75.5418 100.581,-81.0743 102.059,-74.2321"/>
</g>
<!-- Node2&#45;&gt;Node4 -->
<g id="edge8" class="edge"><title>Node2&#45;&gt;Node4</title>
<path fill="none" stroke="midnightblue" d="M278.33,-120.642C245.263,-118.838 185.436,-110.617 151,-76 138.962,-63.8983 134.467,-44.6163 132.831,-30.1909"/>
<polygon fill="midnightblue" stroke="midnightblue" points="136.296,-29.5968 132.043,-19.8932 129.316,-30.1312 136.296,-29.5968"/>
</g>
<!-- Node5 -->
<g id="node5" class="node"><title>Node5</title>
<polygon fill="none" stroke="#bfbfbf" points="160,-56.5 160,-75.5 244,-75.5 244,-56.5 160,-56.5"/>
<text text-anchor="middle" x="202" y="-63.5" font-family="Helvetica,sans-Serif" font-size="10.00">boost/array.hpp</text>
</g>
<!-- Node2&#45;&gt;Node5 -->
<g id="edge4" class="edge"><title>Node2&#45;&gt;Node5</title>
<path fill="none" stroke="midnightblue" d="M285.933,-112.324C270.042,-103.743 245.493,-90.486 227.042,-80.5224"/>
<polygon fill="midnightblue" stroke="midnightblue" points="228.489,-77.3264 218.027,-75.6545 225.163,-83.4857 228.489,-77.3264"/>
</g>
<!-- Node6 -->
<g id="node6" class="node"><title>Node6</title>
<polygon fill="none" stroke="#bfbfbf" points="262,-56.5 262,-75.5 342,-75.5 342,-56.5 262,-56.5"/>
<text text-anchor="middle" x="302" y="-63.5" font-family="Helvetica,sans-Serif" font-size="10.00">boost/asio.hpp</text>
</g>
<!-- Node2&#45;&gt;Node6 -->
<g id="edge5" class="edge"><title>Node2&#45;&gt;Node6</title>
<path fill="none" stroke="midnightblue" d="M302,-112.083C302,-105.006 302,-94.8611 302,-85.9865"/>
<polygon fill="midnightblue" stroke="midnightblue" points="305.5,-85.751 302,-75.7511 298.5,-85.7511 305.5,-85.751"/>
</g>
<!-- Node7 -->
<g id="node7" class="node"><title>Node7</title>
<polygon fill="none" stroke="#bfbfbf" points="360.5,-56.5 360.5,-75.5 489.5,-75.5 489.5,-56.5 360.5,-56.5"/>
<text text-anchor="middle" x="425" y="-63.5" font-family="Helvetica,sans-Serif" font-size="10.00">boost/algorithm/string.hpp</text>
</g>
<!-- Node2&#45;&gt;Node7 -->
<g id="edge6" class="edge"><title>Node2&#45;&gt;Node7</title>
<path fill="none" stroke="midnightblue" d="M321.49,-112.444C341.642,-103.596 373.323,-89.6875 396.331,-79.5865"/>
<polygon fill="midnightblue" stroke="midnightblue" points="397.852,-82.7411 405.601,-75.5164 395.038,-76.3316 397.852,-82.7411"/>
</g>
<!-- Node8 -->
<g id="node8" class="node"><title>Node8</title>
<polygon fill="none" stroke="#bfbfbf" points="508,-56.5 508,-75.5 554,-75.5 554,-56.5 508,-56.5"/>
<text text-anchor="middle" x="531" y="-63.5" font-family="Helvetica,sans-Serif" font-size="10.00">chrono</text>
</g>
<!-- Node2&#45;&gt;Node8 -->
<g id="edge7" class="edge"><title>Node2&#45;&gt;Node8</title>
<path fill="none" stroke="midnightblue" d="M325.607,-115.904C362.503,-107.867 436.032,-91.5571 498,-76 498.101,-75.9747 498.202,-75.9493 498.303,-75.9239"/>
<polygon fill="midnightblue" stroke="midnightblue" points="499.156,-79.3186 507.952,-73.4137 497.393,-72.5441 499.156,-79.3186"/>
</g>
<!-- Node3&#45;&gt;Node4 -->
<g id="edge3" class="edge"><title>Node3&#45;&gt;Node4</title>
<path fill="none" stroke="midnightblue" d="M64.8534,-56.324C77.2164,-47.979 96.1301,-35.2122 110.737,-25.3524"/>
<polygon fill="midnightblue" stroke="midnightblue" points="112.848,-28.1503 119.179,-19.6545 108.932,-22.3483 112.848,-28.1503"/>
</g>
</g>
</svg>
