<?xml version="1.0" encoding="UTF-8" standalone="no"?>
<!DOCTYPE svg PUBLIC "-//W3C//DTD SVG 1.1//EN"
 "http://www.w3.org/Graphics/SVG/1.1/DTD/svg11.dtd">
<!-- Generated by graphviz version 2.36.0 (20140111.2315)
 -->
<!-- Title: /home/travis/build/AliceO2Group/Monitoring/src/Backends/InfoLoggerBackend.h Pages: 1 -->
<svg width="411pt" height="274pt"
 viewBox="0.00 0.00 410.89 274.00" xmlns="http://www.w3.org/2000/svg" xmlns:xlink="http://www.w3.org/1999/xlink">
<g id="graph0" class="graph" transform="scale(1 1) rotate(0) translate(4 270)">
<title>/home/travis/build/AliceO2Group/Monitoring/src/Backends/InfoLoggerBackend.h</title>
<!-- Node1 -->
<g id="node1" class="node"><title>Node1</title>
<polygon fill="#bfbfbf" stroke="black" points="228.39,-224.5 228.39,-265.5 403.39,-265.5 403.39,-224.5 228.39,-224.5"/>
<text text-anchor="start" x="236.39" y="-253.5" font-family="Helvetica,sans-Serif" font-size="10.00">/home/travis/build</text>
<text text-anchor="start" x="236.39" y="-242.5" font-family="Helvetica,sans-Serif" font-size="10.00">/AliceO2Group/Monitoring</text>
<text text-anchor="middle" x="315.89" y="-231.5" font-family="Helvetica,sans-Serif" font-size="10.00">/src/Backends/InfoLoggerBackend.h</text>
</g>
<!-- Node2 -->
<g id="node2" class="node"><title>Node2</title>
<g id="a_node2"><a xlink:href="../../df/d83/Backend_8h.html" target="_top" xlink:title="Monitoring/Backend.h">
<polygon fill="none" stroke="black" points="183.39,-168.5 183.39,-187.5 294.39,-187.5 294.39,-168.5 183.39,-168.5"/>
<text text-anchor="middle" x="238.89" y="-175.5" font-family="Helvetica,sans-Serif" font-size="10.00">Monitoring/Backend.h</text>
</a>
</g>
</g>
<!-- Node1&#45;&gt;Node2 -->
<g id="edge1" class="edge"><title>Node1&#45;&gt;Node2</title>
<path fill="none" stroke="midnightblue" d="M292.787,-224.498C281.322,-214.82 267.676,-203.3 256.984,-194.274"/>
<polygon fill="midnightblue" stroke="midnightblue" points="259.039,-191.429 249.14,-187.652 254.523,-196.778 259.039,-191.429"/>
</g>
<!-- Node4 -->
<g id="node4" class="node"><title>Node4</title>
<polygon fill="none" stroke="#bfbfbf" points="149.39,-0.5 149.39,-19.5 190.39,-19.5 190.39,-0.5 149.39,-0.5"/>
<text text-anchor="middle" x="169.89" y="-7.5" font-family="Helvetica,sans-Serif" font-size="10.00">string</text>
</g>
<!-- Node1&#45;&gt;Node4 -->
<g id="edge11" class="edge"><title>Node1&#45;&gt;Node4</title>
<path fill="none" stroke="midnightblue" d="M326.718,-224.302C345.486,-187.202 378.525,-106.192 339.89,-56 322.994,-34.0503 244.642,-20.6086 200.443,-14.6414"/>
<polygon fill="midnightblue" stroke="midnightblue" points="200.888,-11.17 190.52,-13.3499 199.985,-18.1114 200.888,-11.17"/>
</g>
<!-- Node3 -->
<g id="node3" class="node"><title>Node3</title>
<polygon fill="none" stroke="#bfbfbf" points="284.89,-56.5 284.89,-75.5 330.89,-75.5 330.89,-56.5 284.89,-56.5"/>
<text text-anchor="middle" x="307.89" y="-63.5" font-family="Helvetica,sans-Serif" font-size="10.00">chrono</text>
</g>
<!-- Node2&#45;&gt;Node3 -->
<g id="edge2" class="edge"><title>Node2&#45;&gt;Node3</title>
<path fill="none" stroke="midnightblue" d="M244.304,-168.368C255.641,-150.296 282.061,-108.176 297.033,-84.3074"/>
<polygon fill="midnightblue" stroke="midnightblue" points="300.152,-85.9226 302.501,-75.5914 294.222,-82.2029 300.152,-85.9226"/>
</g>
<!-- Node2&#45;&gt;Node4 -->
<g id="edge3" class="edge"><title>Node2&#45;&gt;Node4</title>
<path fill="none" stroke="midnightblue" d="M183.312,-170.252C127.723,-160.218 45.0237,-135.616 5.88978,-76 -26.5573,-26.5705 83.2034,-14.7273 139.138,-11.8916"/>
<polygon fill="midnightblue" stroke="midnightblue" points="139.393,-15.3838 149.23,-11.4479 139.086,-8.39059 139.393,-15.3838"/>
</g>
<!-- Node5 -->
<g id="node5" class="node"><title>Node5</title>
<g id="a_node5"><a xlink:href="../../d9/d92/Metric_8h.html" target="_top" xlink:title="Monitoring/Metric.h">
<polygon fill="none" stroke="black" points="153.89,-112.5 153.89,-131.5 253.89,-131.5 253.89,-112.5 153.89,-112.5"/>
<text text-anchor="middle" x="203.89" y="-119.5" font-family="Helvetica,sans-Serif" font-size="10.00">Monitoring/Metric.h</text>
</a>
</g>
</g>
<!-- Node2&#45;&gt;Node5 -->
<g id="edge4" class="edge"><title>Node2&#45;&gt;Node5</title>
<path fill="none" stroke="midnightblue" d="M233.11,-168.083C228.217,-160.534 221.062,-149.495 215.057,-140.23"/>
<polygon fill="midnightblue" stroke="midnightblue" points="217.938,-138.239 209.562,-131.751 212.064,-142.046 217.938,-138.239"/>
</g>
<!-- Node5&#45;&gt;Node3 -->
<g id="edge6" class="edge"><title>Node5&#45;&gt;Node3</title>
<path fill="none" stroke="midnightblue" d="M220.599,-112.324C237.202,-103.703 262.892,-90.3643 282.11,-80.3855"/>
<polygon fill="midnightblue" stroke="midnightblue" points="283.96,-83.3689 291.222,-75.6545 280.734,-77.1565 283.96,-83.3689"/>
</g>
<!-- Node5&#45;&gt;Node4 -->
<g id="edge5" class="edge"><title>Node5&#45;&gt;Node4</title>
<path fill="none" stroke="midnightblue" d="M201.222,-112.368C195.71,-94.5366 182.963,-53.2953 175.537,-29.2717"/>
<polygon fill="midnightblue" stroke="midnightblue" points="178.842,-28.1119 172.545,-19.5914 172.155,-30.179 178.842,-28.1119"/>
</g>
<!-- Node6 -->
<g id="node6" class="node"><title>Node6</title>
<polygon fill="none" stroke="#bfbfbf" points="222.89,-56.5 222.89,-75.5 266.89,-75.5 266.89,-56.5 222.89,-56.5"/>
<text text-anchor="middle" x="244.89" y="-63.5" font-family="Helvetica,sans-Serif" font-size="10.00">vector</text>
</g>
<!-- Node5&#45;&gt;Node6 -->
<g id="edge7" class="edge"><title>Node5&#45;&gt;Node6</title>
<path fill="none" stroke="midnightblue" d="M210.66,-112.083C216.451,-104.455 224.948,-93.2645 232.027,-83.9408"/>
<polygon fill="midnightblue" stroke="midnightblue" points="234.986,-85.8321 238.245,-75.7511 229.411,-81.5991 234.986,-85.8321"/>
</g>
<!-- Node7 -->
<g id="node7" class="node"><title>Node7</title>
<polygon fill="none" stroke="#bfbfbf" points="14.8898,-56.5 14.8898,-75.5 106.89,-75.5 106.89,-56.5 14.8898,-56.5"/>
<text text-anchor="middle" x="60.8898" y="-63.5" font-family="Helvetica,sans-Serif" font-size="10.00">boost/variant.hpp</text>
</g>
<!-- Node5&#45;&gt;Node7 -->
<g id="edge8" class="edge"><title>Node5&#45;&gt;Node7</title>
<path fill="none" stroke="midnightblue" d="M181.231,-112.444C157.488,-103.478 119.981,-89.314 93.1514,-79.1827"/>
<polygon fill="midnightblue" stroke="midnightblue" points="94.0342,-75.7749 83.4425,-75.5164 91.5613,-82.3235 94.0342,-75.7749"/>
</g>
<!-- Node8 -->
<g id="node8" class="node"><title>Node8</title>
<g id="a_node8"><a xlink:href="../../d9/d33/Tag_8h.html" target="_top" xlink:title="Tag.h">
<polygon fill="none" stroke="black" points="125.39,-56.5 125.39,-75.5 166.39,-75.5 166.39,-56.5 125.39,-56.5"/>
<text text-anchor="middle" x="145.89" y="-63.5" font-family="Helvetica,sans-Serif" font-size="10.00">Tag.h</text>
</a>
</g>
</g>
<!-- Node5&#45;&gt;Node8 -->
<g id="edge9" class="edge"><title>Node5&#45;&gt;Node8</title>
<path fill="none" stroke="midnightblue" d="M194.571,-112.324C185.997,-104.341 173.078,-92.3128 162.702,-82.6529"/>
<polygon fill="midnightblue" stroke="midnightblue" points="165.082,-80.0865 155.378,-75.8339 160.312,-85.2098 165.082,-80.0865"/>
</g>
<!-- Node8&#45;&gt;Node4 -->
<g id="edge10" class="edge"><title>Node8&#45;&gt;Node4</title>
<path fill="none" stroke="midnightblue" d="M149.853,-56.083C153.103,-48.77 157.809,-38.1814 161.844,-29.1034"/>
<polygon fill="midnightblue" stroke="midnightblue" points="165.137,-30.3107 166,-19.7511 158.741,-27.4677 165.137,-30.3107"/>
</g>
</g>
</svg>
