<?xml version="1.0" encoding="UTF-8" standalone="no"?>
<!DOCTYPE svg PUBLIC "-//W3C//DTD SVG 1.1//EN"
 "http://www.w3.org/Graphics/SVG/1.1/DTD/svg11.dtd">
<!-- Generated by graphviz version 2.36.0 (20140111.2315)
 -->
<!-- Title: /home/travis/build/AliceO2Group/Monitoring/src/ProcessMonitor.cxx Pages: 1 -->
<svg width="1197pt" height="286pt"
 viewBox="0.00 0.00 1197.00 286.00" xmlns="http://www.w3.org/2000/svg" xmlns:xlink="http://www.w3.org/1999/xlink">
<g id="graph0" class="graph" transform="scale(1 1) rotate(0) translate(4 282)">
<title>/home/travis/build/AliceO2Group/Monitoring/src/ProcessMonitor.cxx</title>
<!-- Node1 -->
<g id="node1" class="node"><title>Node1</title>
<polygon fill="#bfbfbf" stroke="black" points="828,-236.5 828,-277.5 956,-277.5 956,-236.5 828,-236.5"/>
<text text-anchor="start" x="836" y="-265.5" font-family="Helvetica,sans-Serif" font-size="10.00">/home/travis/build</text>
<text text-anchor="start" x="836" y="-254.5" font-family="Helvetica,sans-Serif" font-size="10.00">/AliceO2Group/Monitoring</text>
<text text-anchor="middle" x="892" y="-243.5" font-family="Helvetica,sans-Serif" font-size="10.00">/src/ProcessMonitor.cxx</text>
</g>
<!-- Node2 -->
<g id="node2" class="node"><title>Node2</title>
<g id="a_node2"><a xlink:href="../../df/d93/ProcessMonitor_8h.html" target="_top" xlink:title="Monitoring/ProcessMonitor.h">
<polygon fill="none" stroke="black" points="447.5,-174.5 447.5,-193.5 588.5,-193.5 588.5,-174.5 447.5,-174.5"/>
<text text-anchor="middle" x="518" y="-181.5" font-family="Helvetica,sans-Serif" font-size="10.00">Monitoring/ProcessMonitor.h</text>
</a>
</g>
</g>
<!-- Node1&#45;&gt;Node2 -->
<g id="edge1" class="edge"><title>Node1&#45;&gt;Node2</title>
<path fill="none" stroke="midnightblue" d="M827.707,-243.795C755.894,-230.162 640.853,-208.322 573.036,-195.448"/>
<polygon fill="midnightblue" stroke="midnightblue" points="573.455,-191.965 562.977,-193.538 572.149,-198.842 573.455,-191.965"/>
</g>
<!-- Node12 -->
<g id="node12" class="node"><title>Node12</title>
<polygon fill="none" stroke="#bfbfbf" points="804,-56.5 804,-75.5 850,-75.5 850,-56.5 804,-56.5"/>
<text text-anchor="middle" x="827" y="-63.5" font-family="Helvetica,sans-Serif" font-size="10.00">chrono</text>
</g>
<!-- Node1&#45;&gt;Node12 -->
<g id="edge25" class="edge"><title>Node1&#45;&gt;Node12</title>
<path fill="none" stroke="midnightblue" d="M872.019,-236.476C862.93,-226.43 852.908,-213.479 847,-200 830.261,-161.81 827.143,-112.184 826.788,-85.6587"/>
<polygon fill="midnightblue" stroke="midnightblue" points="830.288,-85.5086 826.777,-75.5125 823.288,-85.5164 830.288,-85.5086"/>
</g>
<!-- Node15 -->
<g id="node15" class="node"><title>Node15</title>
<g id="a_node15"><a xlink:href="../../dc/d75/MonitoringInternalException_8h.html" target="_top" xlink:title="Exceptions/MonitoringInternal\lException.h">
<polygon fill="none" stroke="black" points="14,-169 14,-199 160,-199 160,-169 14,-169"/>
<text text-anchor="start" x="22" y="-187" font-family="Helvetica,sans-Serif" font-size="10.00">Exceptions/MonitoringInternal</text>
<text text-anchor="middle" x="87" y="-176" font-family="Helvetica,sans-Serif" font-size="10.00">Exception.h</text>
</a>
</g>
</g>
<!-- Node1&#45;&gt;Node15 -->
<g id="edge17" class="edge"><title>Node1&#45;&gt;Node15</title>
<path fill="none" stroke="midnightblue" d="M827.823,-250.34C683.214,-237.585 331.97,-206.606 170.598,-192.373"/>
<polygon fill="midnightblue" stroke="midnightblue" points="170.516,-188.853 160.247,-191.46 169.901,-195.825 170.516,-188.853"/>
</g>
<!-- Node17 -->
<g id="node17" class="node"><title>Node17</title>
<g id="a_node17"><a xlink:href="../../df/de7/MonLogger_8h.html" target="_top" xlink:title="MonLogger.h">
<polygon fill="none" stroke="black" points="855.5,-174.5 855.5,-193.5 928.5,-193.5 928.5,-174.5 855.5,-174.5"/>
<text text-anchor="middle" x="892" y="-181.5" font-family="Helvetica,sans-Serif" font-size="10.00">MonLogger.h</text>
</a>
</g>
</g>
<!-- Node1&#45;&gt;Node17 -->
<g id="edge20" class="edge"><title>Node1&#45;&gt;Node17</title>
<path fill="none" stroke="midnightblue" d="M892,-236.223C892,-226.086 892,-213.807 892,-203.813"/>
<polygon fill="midnightblue" stroke="midnightblue" points="895.5,-203.735 892,-193.735 888.5,-203.735 895.5,-203.735"/>
</g>
<!-- Node19 -->
<g id="node19" class="node"><title>Node19</title>
<polygon fill="none" stroke="#bfbfbf" points="947,-169 947,-199 1057,-199 1057,-169 947,-169"/>
<text text-anchor="start" x="955" y="-187" font-family="Helvetica,sans-Serif" font-size="10.00">boost/algorithm/string</text>
<text text-anchor="middle" x="1002" y="-176" font-family="Helvetica,sans-Serif" font-size="10.00">/classification.hpp</text>
</g>
<!-- Node1&#45;&gt;Node19 -->
<g id="edge24" class="edge"><title>Node1&#45;&gt;Node19</title>
<path fill="none" stroke="midnightblue" d="M922.349,-236.411C937.659,-226.529 956.182,-214.573 971.511,-204.679"/>
<polygon fill="midnightblue" stroke="midnightblue" points="973.616,-207.487 980.12,-199.123 969.82,-201.605 973.616,-207.487"/>
</g>
<!-- Node20 -->
<g id="node20" class="node"><title>Node20</title>
<polygon fill="none" stroke="#bfbfbf" points="1075,-174.5 1075,-193.5 1127,-193.5 1127,-174.5 1075,-174.5"/>
<text text-anchor="middle" x="1101" y="-181.5" font-family="Helvetica,sans-Serif" font-size="10.00">sstream</text>
</g>
<!-- Node1&#45;&gt;Node20 -->
<g id="edge26" class="edge"><title>Node1&#45;&gt;Node20</title>
<path fill="none" stroke="midnightblue" d="M956.127,-236.934C989.199,-226.706 1030.04,-213.46 1066,-200 1068.11,-199.209 1070.28,-198.363 1072.46,-197.489"/>
<polygon fill="midnightblue" stroke="midnightblue" points="1073.98,-200.647 1081.88,-193.579 1071.3,-194.183 1073.98,-200.647"/>
</g>
<!-- Node21 -->
<g id="node21" class="node"><title>Node21</title>
<polygon fill="none" stroke="#bfbfbf" points="1145,-174.5 1145,-193.5 1189,-193.5 1189,-174.5 1145,-174.5"/>
<text text-anchor="middle" x="1167" y="-181.5" font-family="Helvetica,sans-Serif" font-size="10.00">cmath</text>
</g>
<!-- Node1&#45;&gt;Node21 -->
<g id="edge27" class="edge"><title>Node1&#45;&gt;Node21</title>
<path fill="none" stroke="midnightblue" d="M956.049,-245.384C1005.92,-236.147 1076.45,-220.942 1136,-200 1137.86,-199.345 1139.76,-198.61 1141.65,-197.827"/>
<polygon fill="midnightblue" stroke="midnightblue" points="1143.22,-200.959 1150.88,-193.646 1140.33,-194.582 1143.22,-200.959"/>
</g>
<!-- Node3 -->
<g id="node3" class="node"><title>Node3</title>
<polygon fill="none" stroke="#bfbfbf" points="277,-112.5 277,-131.5 323,-131.5 323,-112.5 277,-112.5"/>
<text text-anchor="middle" x="300" y="-119.5" font-family="Helvetica,sans-Serif" font-size="10.00">atomic</text>
</g>
<!-- Node2&#45;&gt;Node3 -->
<g id="edge2" class="edge"><title>Node2&#45;&gt;Node3</title>
<path fill="none" stroke="midnightblue" d="M486.718,-174.49C451.62,-164.927 392.731,-148.838 332.707,-132.184"/>
<polygon fill="midnightblue" stroke="midnightblue" points="333.639,-128.81 323.067,-129.507 331.766,-135.555 333.639,-128.81"/>
</g>
<!-- Node4 -->
<g id="node4" class="node"><title>Node4</title>
<polygon fill="none" stroke="#bfbfbf" points="341.5,-112.5 341.5,-131.5 470.5,-131.5 470.5,-112.5 341.5,-112.5"/>
<text text-anchor="middle" x="406" y="-119.5" font-family="Helvetica,sans-Serif" font-size="10.00">boost/algorithm/string.hpp</text>
</g>
<!-- Node2&#45;&gt;Node4 -->
<g id="edge3" class="edge"><title>Node2&#45;&gt;Node4</title>
<path fill="none" stroke="midnightblue" d="M501.953,-174.403C483.407,-164.468 452.66,-147.997 430.978,-136.381"/>
<polygon fill="midnightblue" stroke="midnightblue" points="432.485,-133.218 422.017,-131.581 429.179,-139.388 432.485,-133.218"/>
</g>
<!-- Node5 -->
<g id="node5" class="node"><title>Node5</title>
<polygon fill="none" stroke="#bfbfbf" points="683,-112.5 683,-131.5 727,-131.5 727,-112.5 683,-112.5"/>
<text text-anchor="middle" x="705" y="-119.5" font-family="Helvetica,sans-Serif" font-size="10.00">mutex</text>
</g>
<!-- Node2&#45;&gt;Node5 -->
<g id="edge4" class="edge"><title>Node2&#45;&gt;Node5</title>
<path fill="none" stroke="midnightblue" d="M544.793,-174.403C578.763,-163.504 637.247,-144.739 673.372,-133.148"/>
<polygon fill="midnightblue" stroke="midnightblue" points="674.477,-136.469 682.93,-130.081 672.339,-129.804 674.477,-136.469"/>
</g>
<!-- Node6 -->
<g id="node6" class="node"><title>Node6</title>
<polygon fill="none" stroke="#bfbfbf" points="745,-112.5 745,-131.5 799,-131.5 799,-112.5 745,-112.5"/>
<text text-anchor="middle" x="772" y="-119.5" font-family="Helvetica,sans-Serif" font-size="10.00">iostream</text>
</g>
<!-- Node2&#45;&gt;Node6 -->
<g id="edge5" class="edge"><title>Node2&#45;&gt;Node6</title>
<path fill="none" stroke="midnightblue" d="M554.88,-174.424C598.073,-164.36 671.767,-147.121 735,-132 735.1,-131.976 735.201,-131.952 735.302,-131.928"/>
<polygon fill="midnightblue" stroke="midnightblue" points="736.025,-135.354 744.928,-129.611 734.387,-128.548 736.025,-135.354"/>
</g>
<!-- Node7 -->
<g id="node7" class="node"><title>Node7</title>
<polygon fill="none" stroke="#bfbfbf" points="582.5,-0.5 582.5,-19.5 623.5,-19.5 623.5,-0.5 582.5,-0.5"/>
<text text-anchor="middle" x="603" y="-7.5" font-family="Helvetica,sans-Serif" font-size="10.00">string</text>
</g>
<!-- Node2&#45;&gt;Node7 -->
<g id="edge6" class="edge"><title>Node2&#45;&gt;Node7</title>
<path fill="none" stroke="midnightblue" d="M514.538,-174.464C506.335,-152.755 488.126,-94.4395 512,-56 525.186,-34.7701 551.683,-23.2525 572.7,-17.2013"/>
<polygon fill="midnightblue" stroke="midnightblue" points="573.7,-20.5579 582.495,-14.6513 571.936,-13.7837 573.7,-20.5579"/>
</g>
<!-- Node8 -->
<g id="node8" class="node"><title>Node8</title>
<polygon fill="none" stroke="#bfbfbf" points="115,-112.5 115,-131.5 159,-131.5 159,-112.5 115,-112.5"/>
<text text-anchor="middle" x="137" y="-119.5" font-family="Helvetica,sans-Serif" font-size="10.00">thread</text>
</g>
<!-- Node2&#45;&gt;Node8 -->
<g id="edge7" class="edge"><title>Node2&#45;&gt;Node8</title>
<path fill="none" stroke="midnightblue" d="M447.431,-175.613C378.599,-167.751 270.857,-153.709 169.086,-131.986"/>
<polygon fill="midnightblue" stroke="midnightblue" points="169.771,-128.553 159.257,-129.86 168.291,-135.395 169.771,-128.553"/>
</g>
<!-- Node9 -->
<g id="node9" class="node"><title>Node9</title>
<polygon fill="none" stroke="#bfbfbf" points="521,-56.5 521,-75.5 565,-75.5 565,-56.5 521,-56.5"/>
<text text-anchor="middle" x="543" y="-63.5" font-family="Helvetica,sans-Serif" font-size="10.00">vector</text>
</g>
<!-- Node2&#45;&gt;Node9 -->
<g id="edge8" class="edge"><title>Node2&#45;&gt;Node9</title>
<path fill="none" stroke="midnightblue" d="M519.879,-174.281C523.935,-155.463 533.583,-110.697 539.047,-85.3399"/>
<polygon fill="midnightblue" stroke="midnightblue" points="542.482,-86.0177 541.167,-75.5048 535.639,-84.5429 542.482,-86.0177"/>
</g>
<!-- Node10 -->
<g id="node10" class="node"><title>Node10</title>
<polygon fill="none" stroke="#bfbfbf" points="177.5,-112.5 177.5,-131.5 258.5,-131.5 258.5,-112.5 177.5,-112.5"/>
<text text-anchor="middle" x="218" y="-119.5" font-family="Helvetica,sans-Serif" font-size="10.00">sys/resource.h</text>
</g>
<!-- Node2&#45;&gt;Node10 -->
<g id="edge9" class="edge"><title>Node2&#45;&gt;Node10</title>
<path fill="none" stroke="midnightblue" d="M475.336,-174.467C420.856,-163.571 326.707,-144.741 268.647,-133.129"/>
<polygon fill="midnightblue" stroke="midnightblue" points="269.087,-129.648 258.595,-131.119 267.715,-136.512 269.087,-129.648"/>
</g>
<!-- Node11 -->
<g id="node11" class="node"><title>Node11</title>
<g id="a_node11"><a xlink:href="../../d9/d92/Metric_8h.html" target="_top" xlink:title="Monitoring/Metric.h">
<polygon fill="none" stroke="black" points="565,-112.5 565,-131.5 665,-131.5 665,-112.5 565,-112.5"/>
<text text-anchor="middle" x="615" y="-119.5" font-family="Helvetica,sans-Serif" font-size="10.00">Monitoring/Metric.h</text>
</a>
</g>
</g>
<!-- Node2&#45;&gt;Node11 -->
<g id="edge10" class="edge"><title>Node2&#45;&gt;Node11</title>
<path fill="none" stroke="midnightblue" d="M531.898,-174.403C547.744,-164.601 573.874,-148.439 592.605,-136.853"/>
<polygon fill="midnightblue" stroke="midnightblue" points="594.465,-139.818 601.128,-131.581 590.782,-133.865 594.465,-139.818"/>
</g>
<!-- Node11&#45;&gt;Node7 -->
<g id="edge11" class="edge"><title>Node11&#45;&gt;Node7</title>
<path fill="none" stroke="midnightblue" d="M654.122,-112.47C687.749,-104.251 732.447,-90.8962 743,-76 748.138,-68.7468 748.236,-63.183 743,-56 718.098,-21.8397 666.841,-13.0434 633.739,-11.0912"/>
<polygon fill="midnightblue" stroke="midnightblue" points="633.822,-7.59172 623.686,-10.6744 633.532,-14.5857 633.822,-7.59172"/>
</g>
<!-- Node11&#45;&gt;Node9 -->
<g id="edge13" class="edge"><title>Node11&#45;&gt;Node9</title>
<path fill="none" stroke="midnightblue" d="M603.432,-112.324C592.58,-104.185 576.119,-91.8395 563.117,-82.0874"/>
<polygon fill="midnightblue" stroke="midnightblue" points="564.879,-79.0339 554.779,-75.8339 560.679,-84.6339 564.879,-79.0339"/>
</g>
<!-- Node11&#45;&gt;Node12 -->
<g id="edge12" class="edge"><title>Node11&#45;&gt;Node12</title>
<path fill="none" stroke="midnightblue" d="M648.592,-112.444C688.439,-102.294 754.436,-85.4832 794.015,-75.4017"/>
<polygon fill="midnightblue" stroke="midnightblue" points="794.89,-78.7909 803.716,-72.9308 793.162,-72.0075 794.89,-78.7909"/>
</g>
<!-- Node13 -->
<g id="node13" class="node"><title>Node13</title>
<polygon fill="none" stroke="#bfbfbf" points="583,-56.5 583,-75.5 675,-75.5 675,-56.5 583,-56.5"/>
<text text-anchor="middle" x="629" y="-63.5" font-family="Helvetica,sans-Serif" font-size="10.00">boost/variant.hpp</text>
</g>
<!-- Node11&#45;&gt;Node13 -->
<g id="edge14" class="edge"><title>Node11&#45;&gt;Node13</title>
<path fill="none" stroke="midnightblue" d="M617.312,-112.083C619.167,-104.927 621.835,-94.6353 624.154,-85.6911"/>
<polygon fill="midnightblue" stroke="midnightblue" points="627.609,-86.3094 626.731,-75.7511 620.834,-84.5527 627.609,-86.3094"/>
</g>
<!-- Node14 -->
<g id="node14" class="node"><title>Node14</title>
<g id="a_node14"><a xlink:href="../../d9/d33/Tag_8h.html" target="_top" xlink:title="Tag.h">
<polygon fill="none" stroke="black" points="693.5,-56.5 693.5,-75.5 734.5,-75.5 734.5,-56.5 693.5,-56.5"/>
<text text-anchor="middle" x="714" y="-63.5" font-family="Helvetica,sans-Serif" font-size="10.00">Tag.h</text>
</a>
</g>
</g>
<!-- Node11&#45;&gt;Node14 -->
<g id="edge15" class="edge"><title>Node11&#45;&gt;Node14</title>
<path fill="none" stroke="midnightblue" d="M630.906,-112.324C646.638,-103.743 670.942,-90.486 689.209,-80.5224"/>
<polygon fill="midnightblue" stroke="midnightblue" points="691.03,-83.5157 698.133,-75.6545 687.678,-77.3704 691.03,-83.5157"/>
</g>
<!-- Node14&#45;&gt;Node7 -->
<g id="edge16" class="edge"><title>Node14&#45;&gt;Node7</title>
<path fill="none" stroke="midnightblue" d="M696.166,-56.324C678.284,-47.6247 650.525,-34.1202 629.954,-24.113"/>
<polygon fill="midnightblue" stroke="midnightblue" points="631.313,-20.8819 620.79,-19.6545 628.251,-27.1765 631.313,-20.8819"/>
</g>
<!-- Node15&#45;&gt;Node7 -->
<g id="edge19" class="edge"><title>Node15&#45;&gt;Node7</title>
<path fill="none" stroke="midnightblue" d="M86.657,-168.806C87.0832,-152.676 90.3866,-126.689 106,-112 174.457,-47.5962 474.399,-20.3679 572.11,-13.1019"/>
<polygon fill="midnightblue" stroke="midnightblue" points="572.503,-16.5827 582.223,-12.368 571.996,-9.60104 572.503,-16.5827"/>
</g>
<!-- Node16 -->
<g id="node16" class="node"><title>Node16</title>
<polygon fill="none" stroke="#bfbfbf" points="-0.5,-112.5 -0.5,-131.5 58.5,-131.5 58.5,-112.5 -0.5,-112.5"/>
<text text-anchor="middle" x="29" y="-119.5" font-family="Helvetica,sans-Serif" font-size="10.00">exception</text>
</g>
<!-- Node15&#45;&gt;Node16 -->
<g id="edge18" class="edge"><title>Node15&#45;&gt;Node16</title>
<path fill="none" stroke="midnightblue" d="M73.2548,-168.781C64.6529,-159.882 53.5479,-148.394 44.614,-139.152"/>
<polygon fill="midnightblue" stroke="midnightblue" points="46.9062,-136.488 37.4395,-131.731 41.8733,-141.353 46.9062,-136.488"/>
</g>
<!-- Node17&#45;&gt;Node6 -->
<g id="edge23" class="edge"><title>Node17&#45;&gt;Node6</title>
<path fill="none" stroke="midnightblue" d="M874.807,-174.403C854.757,-164.379 821.401,-147.701 798.14,-136.07"/>
<polygon fill="midnightblue" stroke="midnightblue" points="799.671,-132.922 789.161,-131.581 796.54,-139.183 799.671,-132.922"/>
</g>
<!-- Node17&#45;&gt;Node12 -->
<g id="edge21" class="edge"><title>Node17&#45;&gt;Node12</title>
<path fill="none" stroke="midnightblue" d="M887.114,-174.281C876.428,-155.21 850.808,-109.488 836.709,-84.3272"/>
<polygon fill="midnightblue" stroke="midnightblue" points="839.707,-82.5176 831.766,-75.5048 833.601,-85.9395 839.707,-82.5176"/>
</g>
<!-- Node18 -->
<g id="node18" class="node"><title>Node18</title>
<polygon fill="none" stroke="#bfbfbf" points="893,-112.5 893,-131.5 943,-131.5 943,-112.5 893,-112.5"/>
<text text-anchor="middle" x="918" y="-119.5" font-family="Helvetica,sans-Serif" font-size="10.00">iomanip</text>
</g>
<!-- Node17&#45;&gt;Node18 -->
<g id="edge22" class="edge"><title>Node17&#45;&gt;Node18</title>
<path fill="none" stroke="midnightblue" d="M895.725,-174.403C899.509,-165.671 905.481,-151.889 910.289,-140.794"/>
<polygon fill="midnightblue" stroke="midnightblue" points="913.517,-142.148 914.282,-131.581 907.094,-139.365 913.517,-142.148"/>
</g>
</g>
</svg>
