<?xml version="1.0" encoding="UTF-8" standalone="no"?>
<!DOCTYPE svg PUBLIC "-//W3C//DTD SVG 1.1//EN"
 "http://www.w3.org/Graphics/SVG/1.1/DTD/svg11.dtd">
<!-- Generated by graphviz version 2.36.0 (20140111.2315)
 -->
<!-- Title: /home/travis/build/AliceO2Group/Monitoring/build/include/Monitoring/Version.h Pages: 1 -->
<svg width="136pt" height="118pt"
 viewBox="0.00 0.00 136.00 118.00" xmlns="http://www.w3.org/2000/svg" xmlns:xlink="http://www.w3.org/1999/xlink">
<g id="graph0" class="graph" transform="scale(1 1) rotate(0) translate(4 114)">
<title>/home/travis/build/AliceO2Group/Monitoring/build/include/Monitoring/Version.h</title>
<!-- Node1 -->
<g id="node1" class="node"><title>Node1</title>
<polygon fill="#bfbfbf" stroke="black" points="0,-57 0,-109 128,-109 128,-57 0,-57"/>
<text text-anchor="start" x="8" y="-97" font-family="Helvetica,sans-Serif" font-size="10.00">/home/travis/build</text>
<text text-anchor="start" x="8" y="-86" font-family="Helvetica,sans-Serif" font-size="10.00">/AliceO2Group/Monitoring</text>
<text text-anchor="start" x="8" y="-75" font-family="Helvetica,sans-Serif" font-size="10.00">/build/include/Monitoring</text>
<text text-anchor="middle" x="64" y="-64" font-family="Helvetica,sans-Serif" font-size="10.00">/Version.h</text>
</g>
<!-- Node2 -->
<g id="node2" class="node"><title>Node2</title>
<polygon fill="none" stroke="#bfbfbf" points="11.5,-0.5 11.5,-19.5 52.5,-19.5 52.5,-0.5 11.5,-0.5"/>
<text text-anchor="middle" x="32" y="-7.5" font-family="Helvetica,sans-Serif" font-size="10.00">string</text>
</g>
<!-- Node1&#45;&gt;Node2 -->
<g id="edge1" class="edge"><title>Node1&#45;&gt;Node2</title>
<path fill="none" stroke="midnightblue" d="M52.6279,-56.7681C48.4899,-47.587 43.9001,-37.4034 40.1025,-28.9775"/>
<polygon fill="midnightblue" stroke="midnightblue" points="43.2468,-27.4358 35.9469,-19.7572 36.865,-30.3121 43.2468,-27.4358"/>
</g>
<!-- Node3 -->
<g id="node3" class="node"><title>Node3</title>
<polygon fill="none" stroke="#bfbfbf" points="71,-0.5 71,-19.5 123,-19.5 123,-0.5 71,-0.5"/>
<text text-anchor="middle" x="97" y="-7.5" font-family="Helvetica,sans-Serif" font-size="10.00">sstream</text>
</g>
<!-- Node1&#45;&gt;Node3 -->
<g id="edge2" class="edge"><title>Node1&#45;&gt;Node3</title>
<path fill="none" stroke="midnightblue" d="M75.7275,-56.7681C79.9948,-47.587 84.728,-37.4034 88.6442,-28.9775"/>
<polygon fill="midnightblue" stroke="midnightblue" points="91.8888,-30.3007 92.9298,-19.7572 85.5409,-27.3503 91.8888,-30.3007"/>
</g>
</g>
</svg>
