<?xml version="1.0" encoding="UTF-8" standalone="no"?>
<!DOCTYPE svg PUBLIC "-//W3C//DTD SVG 1.1//EN"
 "http://www.w3.org/Graphics/SVG/1.1/DTD/svg11.dtd">
<!-- Generated by graphviz version 2.36.0 (20140111.2315)
 -->
<!-- Title: /home/travis/build/AliceO2Group/Monitoring/src/Backends/Flume.cxx Pages: 1 -->
<svg width="970pt" height="354pt"
 viewBox="0.00 0.00 970.46 354.00" xmlns="http://www.w3.org/2000/svg" xmlns:xlink="http://www.w3.org/1999/xlink">
<g id="graph0" class="graph" transform="scale(1 1) rotate(0) translate(4 350)">
<title>/home/travis/build/AliceO2Group/Monitoring/src/Backends/Flume.cxx</title>
<!-- Node1 -->
<g id="node1" class="node"><title>Node1</title>
<polygon fill="#bfbfbf" stroke="black" points="592,-304.5 592,-345.5 720,-345.5 720,-304.5 592,-304.5"/>
<text text-anchor="start" x="600" y="-333.5" font-family="Helvetica,sans-Serif" font-size="10.00">/home/travis/build</text>
<text text-anchor="start" x="600" y="-322.5" font-family="Helvetica,sans-Serif" font-size="10.00">/AliceO2Group/Monitoring</text>
<text text-anchor="middle" x="656" y="-311.5" font-family="Helvetica,sans-Serif" font-size="10.00">/src/Backends/Flume.cxx</text>
</g>
<!-- Node2 -->
<g id="node2" class="node"><title>Node2</title>
<g id="a_node2"><a xlink:href="../../d4/d57/Flume_8h.html" target="_top" xlink:title="Flume.h">
<polygon fill="none" stroke="black" points="376,-242.5 376,-261.5 428,-261.5 428,-242.5 376,-242.5"/>
<text text-anchor="middle" x="402" y="-249.5" font-family="Helvetica,sans-Serif" font-size="10.00">Flume.h</text>
</a>
</g>
</g>
<!-- Node1&#45;&gt;Node2 -->
<g id="edge1" class="edge"><title>Node1&#45;&gt;Node2</title>
<path fill="none" stroke="midnightblue" d="M591.905,-306.084C543.235,-292.479 478.075,-274.265 438.119,-263.096"/>
<polygon fill="midnightblue" stroke="midnightblue" points="438.858,-259.669 428.285,-260.347 436.974,-266.41 438.858,-259.669"/>
</g>
<!-- Node5 -->
<g id="node5" class="node"><title>Node5</title>
<polygon fill="none" stroke="#bfbfbf" points="276.5,-0.5 276.5,-19.5 317.5,-19.5 317.5,-0.5 276.5,-0.5"/>
<text text-anchor="middle" x="297" y="-7.5" font-family="Helvetica,sans-Serif" font-size="10.00">string</text>
</g>
<!-- Node1&#45;&gt;Node5 -->
<g id="edge21" class="edge"><title>Node1&#45;&gt;Node5</title>
<path fill="none" stroke="midnightblue" d="M591.906,-323.901C426.839,-321.927 0,-305.201 0,-185 0,-185 0,-185 0,-121 0,-84.5528 18.8833,-74.9776 50,-56 85.9959,-34.0467 208.645,-19.5749 266.423,-13.8142"/>
<polygon fill="midnightblue" stroke="midnightblue" points="266.807,-17.2934 276.421,-12.8401 266.128,-10.3264 266.807,-17.2934"/>
</g>
<!-- Node15 -->
<g id="node15" class="node"><title>Node15</title>
<g id="a_node15"><a xlink:href="../../d2/d5c/UDP_8h.html" target="_top" xlink:title="../Transports/UDP.h">
<polygon fill="none" stroke="black" points="646.5,-112.5 646.5,-131.5 751.5,-131.5 751.5,-112.5 646.5,-112.5"/>
<text text-anchor="middle" x="699" y="-119.5" font-family="Helvetica,sans-Serif" font-size="10.00">../Transports/UDP.h</text>
</a>
</g>
</g>
<!-- Node1&#45;&gt;Node15 -->
<g id="edge22" class="edge"><title>Node1&#45;&gt;Node15</title>
<path fill="none" stroke="midnightblue" d="M660.201,-304.361C668.475,-265.688 686.781,-180.118 694.939,-141.982"/>
<polygon fill="midnightblue" stroke="midnightblue" points="698.453,-142.285 697.123,-131.774 691.608,-140.821 698.453,-142.285"/>
</g>
<!-- Node19 -->
<g id="node19" class="node"><title>Node19</title>
<polygon fill="none" stroke="#bfbfbf" points="684.5,-237 684.5,-267 785.5,-267 785.5,-237 684.5,-237"/>
<text text-anchor="start" x="692.5" y="-255" font-family="Helvetica,sans-Serif" font-size="10.00">boost/property_tree</text>
<text text-anchor="middle" x="735" y="-244" font-family="Helvetica,sans-Serif" font-size="10.00">/json_parser.hpp</text>
</g>
<!-- Node1&#45;&gt;Node19 -->
<g id="edge29" class="edge"><title>Node1&#45;&gt;Node19</title>
<path fill="none" stroke="midnightblue" d="M678.006,-304.223C688.484,-294.806 701.02,-283.539 711.663,-273.973"/>
<polygon fill="midnightblue" stroke="midnightblue" points="714.27,-276.336 719.369,-267.049 709.591,-271.13 714.27,-276.336"/>
</g>
<!-- Node20 -->
<g id="node20" class="node"><title>Node20</title>
<polygon fill="none" stroke="#bfbfbf" points="804,-242.5 804,-261.5 918,-261.5 918,-242.5 804,-242.5"/>
<text text-anchor="middle" x="861" y="-249.5" font-family="Helvetica,sans-Serif" font-size="10.00">boost/lexical_cast.hpp</text>
</g>
<!-- Node1&#45;&gt;Node20 -->
<g id="edge30" class="edge"><title>Node1&#45;&gt;Node20</title>
<path fill="none" stroke="midnightblue" d="M712.56,-304.411C749.24,-291.707 795.817,-275.576 826.922,-264.803"/>
<polygon fill="midnightblue" stroke="midnightblue" points="828.141,-268.084 836.445,-261.504 825.85,-261.47 828.141,-268.084"/>
</g>
<!-- Node3 -->
<g id="node3" class="node"><title>Node3</title>
<g id="a_node3"><a xlink:href="../../df/d83/Backend_8h.html" target="_top" xlink:title="Monitoring/Backend.h">
<polygon fill="none" stroke="black" points="224.5,-174.5 224.5,-193.5 335.5,-193.5 335.5,-174.5 224.5,-174.5"/>
<text text-anchor="middle" x="280" y="-181.5" font-family="Helvetica,sans-Serif" font-size="10.00">Monitoring/Backend.h</text>
</a>
</g>
</g>
<!-- Node2&#45;&gt;Node3 -->
<g id="edge2" class="edge"><title>Node2&#45;&gt;Node3</title>
<path fill="none" stroke="midnightblue" d="M386.051,-242.372C365.409,-231.205 329.219,-211.627 304.932,-198.488"/>
<polygon fill="midnightblue" stroke="midnightblue" points="306.414,-195.31 295.953,-193.63 303.083,-201.467 306.414,-195.31"/>
</g>
<!-- Node4 -->
<g id="node4" class="node"><title>Node4</title>
<polygon fill="none" stroke="#bfbfbf" points="336,-56.5 336,-75.5 382,-75.5 382,-56.5 336,-56.5"/>
<text text-anchor="middle" x="359" y="-63.5" font-family="Helvetica,sans-Serif" font-size="10.00">chrono</text>
</g>
<!-- Node2&#45;&gt;Node4 -->
<g id="edge19" class="edge"><title>Node2&#45;&gt;Node4</title>
<path fill="none" stroke="midnightblue" d="M399.481,-242.374C396.563,-232.262 391.686,-214.978 388,-200 378.014,-159.42 367.987,-111.442 362.74,-85.649"/>
<polygon fill="midnightblue" stroke="midnightblue" points="366.151,-84.8602 360.74,-75.7514 359.29,-86.2465 366.151,-84.8602"/>
</g>
<!-- Node2&#45;&gt;Node5 -->
<g id="edge20" class="edge"><title>Node2&#45;&gt;Node5</title>
<path fill="none" stroke="midnightblue" d="M404.367,-242.257C411.757,-212.94 431.58,-116.564 391,-56 376.654,-34.5897 349.171,-23.0736 327.611,-17.0696"/>
<polygon fill="midnightblue" stroke="midnightblue" points="328.442,-13.6696 317.889,-14.6144 326.728,-20.4565 328.442,-13.6696"/>
</g>
<!-- Node10 -->
<g id="node10" class="node"><title>Node10</title>
<g id="a_node10"><a xlink:href="../../de/dac/TransportInterface_8h.html" target="_top" xlink:title="../Transports/TransportInterface.h">
<polygon fill="none" stroke="black" points="438.5,-56.5 438.5,-75.5 601.5,-75.5 601.5,-56.5 438.5,-56.5"/>
<text text-anchor="middle" x="520" y="-63.5" font-family="Helvetica,sans-Serif" font-size="10.00">../Transports/TransportInterface.h</text>
</a>
</g>
</g>
<!-- Node2&#45;&gt;Node10 -->
<g id="edge12" class="edge"><title>Node2&#45;&gt;Node10</title>
<path fill="none" stroke="midnightblue" d="M428.053,-245.538C474.641,-234.102 570.056,-202.616 599,-132 602.371,-123.775 603.467,-119.685 599,-112 590.264,-96.9696 574.422,-86.5428 559.205,-79.5405"/>
<polygon fill="midnightblue" stroke="midnightblue" points="560.455,-76.2692 549.881,-75.6125 557.738,-82.7202 560.455,-76.2692"/>
</g>
<!-- Node11 -->
<g id="node11" class="node"><title>Node11</title>
<g id="a_node11"><a xlink:href="../../df/de7/MonLogger_8h.html" target="_top" xlink:title="../MonLogger.h">
<polygon fill="none" stroke="black" points="441,-174.5 441,-193.5 523,-193.5 523,-174.5 441,-174.5"/>
<text text-anchor="middle" x="482" y="-181.5" font-family="Helvetica,sans-Serif" font-size="10.00">../MonLogger.h</text>
</a>
</g>
</g>
<!-- Node2&#45;&gt;Node11 -->
<g id="edge14" class="edge"><title>Node2&#45;&gt;Node11</title>
<path fill="none" stroke="midnightblue" d="M412.459,-242.372C425.395,-231.699 447.645,-213.343 463.493,-200.268"/>
<polygon fill="midnightblue" stroke="midnightblue" points="466.052,-202.694 471.539,-193.63 461.598,-197.295 466.052,-202.694"/>
</g>
<!-- Node14 -->
<g id="node14" class="node"><title>Node14</title>
<polygon fill="none" stroke="#bfbfbf" points="105.5,-169 105.5,-199 206.5,-199 206.5,-169 105.5,-169"/>
<text text-anchor="start" x="113.5" y="-187" font-family="Helvetica,sans-Serif" font-size="10.00">boost/property_tree</text>
<text text-anchor="middle" x="156" y="-176" font-family="Helvetica,sans-Serif" font-size="10.00">/ptree.hpp</text>
</g>
<!-- Node2&#45;&gt;Node14 -->
<g id="edge18" class="edge"><title>Node2&#45;&gt;Node14</title>
<path fill="none" stroke="midnightblue" d="M375.674,-243.937C338.025,-233.836 267.731,-214.977 216.777,-201.306"/>
<polygon fill="midnightblue" stroke="midnightblue" points="217.425,-197.856 206.859,-198.645 215.611,-204.617 217.425,-197.856"/>
</g>
<!-- Node3&#45;&gt;Node4 -->
<g id="edge3" class="edge"><title>Node3&#45;&gt;Node4</title>
<path fill="none" stroke="midnightblue" d="M285.938,-174.281C298.983,-155.126 330.34,-109.083 347.426,-83.9944"/>
<polygon fill="midnightblue" stroke="midnightblue" points="350.472,-85.7402 353.208,-75.5048 344.686,-81.7999 350.472,-85.7402"/>
</g>
<!-- Node3&#45;&gt;Node5 -->
<g id="edge4" class="edge"><title>Node3&#45;&gt;Node5</title>
<path fill="none" stroke="midnightblue" d="M253.926,-174.414C200.05,-156.087 79.5861,-111.889 57,-76 52.2655,-68.4769 51.3232,-62.8401 57,-56 83.2518,-24.3685 207.457,-14.8373 266.144,-12.0749"/>
<polygon fill="midnightblue" stroke="midnightblue" points="266.463,-15.5644 276.302,-11.634 266.159,-8.57102 266.463,-15.5644"/>
</g>
<!-- Node6 -->
<g id="node6" class="node"><title>Node6</title>
<g id="a_node6"><a xlink:href="../../d9/d92/Metric_8h.html" target="_top" xlink:title="Monitoring/Metric.h">
<polygon fill="none" stroke="black" points="198,-112.5 198,-131.5 298,-131.5 298,-112.5 198,-112.5"/>
<text text-anchor="middle" x="248" y="-119.5" font-family="Helvetica,sans-Serif" font-size="10.00">Monitoring/Metric.h</text>
</a>
</g>
</g>
<!-- Node3&#45;&gt;Node6 -->
<g id="edge5" class="edge"><title>Node3&#45;&gt;Node6</title>
<path fill="none" stroke="midnightblue" d="M275.415,-174.403C270.71,-165.582 263.257,-151.608 257.309,-140.455"/>
<polygon fill="midnightblue" stroke="midnightblue" points="260.37,-138.757 252.576,-131.581 254.194,-142.051 260.37,-138.757"/>
</g>
<!-- Node6&#45;&gt;Node4 -->
<g id="edge7" class="edge"><title>Node6&#45;&gt;Node4</title>
<path fill="none" stroke="midnightblue" d="M265.834,-112.324C283.716,-103.625 311.475,-90.1202 332.046,-80.113"/>
<polygon fill="midnightblue" stroke="midnightblue" points="333.749,-83.1765 341.21,-75.6545 330.687,-76.8819 333.749,-83.1765"/>
</g>
<!-- Node6&#45;&gt;Node5 -->
<g id="edge6" class="edge"><title>Node6&#45;&gt;Node5</title>
<path fill="none" stroke="midnightblue" d="M249.665,-112.287C252.298,-99.5237 258.059,-75.181 267,-56 271.554,-46.2305 278.056,-36.1739 283.844,-28.0522"/>
<polygon fill="midnightblue" stroke="midnightblue" points="286.798,-29.9438 289.932,-19.8232 281.171,-25.7803 286.798,-29.9438"/>
</g>
<!-- Node7 -->
<g id="node7" class="node"><title>Node7</title>
<polygon fill="none" stroke="#bfbfbf" points="66,-56.5 66,-75.5 110,-75.5 110,-56.5 66,-56.5"/>
<text text-anchor="middle" x="88" y="-63.5" font-family="Helvetica,sans-Serif" font-size="10.00">vector</text>
</g>
<!-- Node6&#45;&gt;Node7 -->
<g id="edge8" class="edge"><title>Node6&#45;&gt;Node7</title>
<path fill="none" stroke="midnightblue" d="M222.648,-112.444C194.781,-103.038 149.968,-87.9142 119.775,-77.7242"/>
<polygon fill="midnightblue" stroke="midnightblue" points="120.736,-74.3546 110.142,-74.473 118.498,-80.9871 120.736,-74.3546"/>
</g>
<!-- Node8 -->
<g id="node8" class="node"><title>Node8</title>
<polygon fill="none" stroke="#bfbfbf" points="128,-56.5 128,-75.5 220,-75.5 220,-56.5 128,-56.5"/>
<text text-anchor="middle" x="174" y="-63.5" font-family="Helvetica,sans-Serif" font-size="10.00">boost/variant.hpp</text>
</g>
<!-- Node6&#45;&gt;Node8 -->
<g id="edge9" class="edge"><title>Node6&#45;&gt;Node8</title>
<path fill="none" stroke="midnightblue" d="M236.111,-112.324C224.85,-104.107 207.713,-91.6017 194.291,-81.8069"/>
<polygon fill="midnightblue" stroke="midnightblue" points="196.247,-78.9014 186.106,-75.8339 192.12,-84.5559 196.247,-78.9014"/>
</g>
<!-- Node9 -->
<g id="node9" class="node"><title>Node9</title>
<g id="a_node9"><a xlink:href="../../d9/d33/Tag_8h.html" target="_top" xlink:title="Tag.h">
<polygon fill="none" stroke="black" points="276.5,-56.5 276.5,-75.5 317.5,-75.5 317.5,-56.5 276.5,-56.5"/>
<text text-anchor="middle" x="297" y="-63.5" font-family="Helvetica,sans-Serif" font-size="10.00">Tag.h</text>
</a>
</g>
</g>
<!-- Node6&#45;&gt;Node9 -->
<g id="edge10" class="edge"><title>Node6&#45;&gt;Node9</title>
<path fill="none" stroke="midnightblue" d="M256.091,-112.083C263.155,-104.298 273.588,-92.8015 282.149,-83.3665"/>
<polygon fill="midnightblue" stroke="midnightblue" points="284.931,-85.5087 289.059,-75.7511 279.747,-80.8047 284.931,-85.5087"/>
</g>
<!-- Node9&#45;&gt;Node5 -->
<g id="edge11" class="edge"><title>Node9&#45;&gt;Node5</title>
<path fill="none" stroke="midnightblue" d="M297,-56.083C297,-49.0059 297,-38.8611 297,-29.9865"/>
<polygon fill="midnightblue" stroke="midnightblue" points="300.5,-29.751 297,-19.7511 293.5,-29.7511 300.5,-29.751"/>
</g>
<!-- Node10&#45;&gt;Node5 -->
<g id="edge13" class="edge"><title>Node10&#45;&gt;Node5</title>
<path fill="none" stroke="midnightblue" d="M484.665,-56.4435C441.394,-45.9655 368.809,-28.3888 327.745,-18.445"/>
<polygon fill="midnightblue" stroke="midnightblue" points="328.321,-14.9834 317.778,-16.0315 326.674,-21.7868 328.321,-14.9834"/>
</g>
<!-- Node11&#45;&gt;Node4 -->
<g id="edge15" class="edge"><title>Node11&#45;&gt;Node4</title>
<path fill="none" stroke="midnightblue" d="M472.755,-174.281C451.996,-154.704 401.458,-107.041 375.295,-82.3676"/>
<polygon fill="midnightblue" stroke="midnightblue" points="377.694,-79.8196 368.018,-75.5048 372.892,-84.9121 377.694,-79.8196"/>
</g>
<!-- Node12 -->
<g id="node12" class="node"><title>Node12</title>
<polygon fill="none" stroke="#bfbfbf" points="468,-112.5 468,-131.5 518,-131.5 518,-112.5 468,-112.5"/>
<text text-anchor="middle" x="493" y="-119.5" font-family="Helvetica,sans-Serif" font-size="10.00">iomanip</text>
</g>
<!-- Node11&#45;&gt;Node12 -->
<g id="edge16" class="edge"><title>Node11&#45;&gt;Node12</title>
<path fill="none" stroke="midnightblue" d="M483.576,-174.403C485.144,-165.849 487.601,-152.45 489.613,-141.476"/>
<polygon fill="midnightblue" stroke="midnightblue" points="493.066,-142.048 491.427,-131.581 486.181,-140.785 493.066,-142.048"/>
</g>
<!-- Node13 -->
<g id="node13" class="node"><title>Node13</title>
<polygon fill="none" stroke="#bfbfbf" points="536,-112.5 536,-131.5 590,-131.5 590,-112.5 536,-112.5"/>
<text text-anchor="middle" x="563" y="-119.5" font-family="Helvetica,sans-Serif" font-size="10.00">iostream</text>
</g>
<!-- Node11&#45;&gt;Node13 -->
<g id="edge17" class="edge"><title>Node11&#45;&gt;Node13</title>
<path fill="none" stroke="midnightblue" d="M493.605,-174.403C506.477,-164.869 527.474,-149.315 543.006,-137.811"/>
<polygon fill="midnightblue" stroke="midnightblue" points="545.464,-140.345 551.416,-131.581 541.297,-134.72 545.464,-140.345"/>
</g>
<!-- Node15&#45;&gt;Node4 -->
<g id="edge27" class="edge"><title>Node15&#45;&gt;Node4</title>
<path fill="none" stroke="midnightblue" d="M646.248,-112.622C575.337,-101.359 451.36,-81.6689 392.219,-72.2759"/>
<polygon fill="midnightblue" stroke="midnightblue" points="392.718,-68.8114 382.293,-70.6994 391.62,-75.7248 392.718,-68.8114"/>
</g>
<!-- Node15&#45;&gt;Node5 -->
<g id="edge28" class="edge"><title>Node15&#45;&gt;Node5</title>
<path fill="none" stroke="midnightblue" d="M751.786,-119.554C819.743,-116.45 932.182,-106.69 958,-76 963.722,-69.1979 964.068,-62.4953 958,-56 914.557,-9.49933 452.271,-9.7664 327.747,-10.6932"/>
<polygon fill="midnightblue" stroke="midnightblue" points="327.709,-7.19324 317.738,-10.7747 327.766,-14.193 327.709,-7.19324"/>
</g>
<!-- Node15&#45;&gt;Node10 -->
<g id="edge23" class="edge"><title>Node15&#45;&gt;Node10</title>
<path fill="none" stroke="midnightblue" d="M670.637,-112.444C640.262,-103.28 591.89,-88.6876 558.184,-78.5192"/>
<polygon fill="midnightblue" stroke="midnightblue" points="558.815,-75.0538 548.23,-75.5164 556.793,-81.7555 558.815,-75.0538"/>
</g>
<!-- Node16 -->
<g id="node16" class="node"><title>Node16</title>
<polygon fill="none" stroke="#bfbfbf" points="620,-56.5 620,-75.5 704,-75.5 704,-56.5 620,-56.5"/>
<text text-anchor="middle" x="662" y="-63.5" font-family="Helvetica,sans-Serif" font-size="10.00">boost/array.hpp</text>
</g>
<!-- Node15&#45;&gt;Node16 -->
<g id="edge24" class="edge"><title>Node15&#45;&gt;Node16</title>
<path fill="none" stroke="midnightblue" d="M692.89,-112.083C687.718,-104.534 680.154,-93.4948 673.806,-84.2298"/>
<polygon fill="midnightblue" stroke="midnightblue" points="676.536,-82.0221 667.996,-75.7511 670.761,-85.9787 676.536,-82.0221"/>
</g>
<!-- Node17 -->
<g id="node17" class="node"><title>Node17</title>
<polygon fill="none" stroke="#bfbfbf" points="722,-56.5 722,-75.5 802,-75.5 802,-56.5 722,-56.5"/>
<text text-anchor="middle" x="762" y="-63.5" font-family="Helvetica,sans-Serif" font-size="10.00">boost/asio.hpp</text>
</g>
<!-- Node15&#45;&gt;Node17 -->
<g id="edge25" class="edge"><title>Node15&#45;&gt;Node17</title>
<path fill="none" stroke="midnightblue" d="M709.122,-112.324C718.526,-104.263 732.744,-92.0765 744.069,-82.3695"/>
<polygon fill="midnightblue" stroke="midnightblue" points="746.379,-84.9993 751.694,-75.8339 741.823,-79.6844 746.379,-84.9993"/>
</g>
<!-- Node18 -->
<g id="node18" class="node"><title>Node18</title>
<polygon fill="none" stroke="#bfbfbf" points="820.5,-56.5 820.5,-75.5 949.5,-75.5 949.5,-56.5 820.5,-56.5"/>
<text text-anchor="middle" x="885" y="-63.5" font-family="Helvetica,sans-Serif" font-size="10.00">boost/algorithm/string.hpp</text>
</g>
<!-- Node15&#45;&gt;Node18 -->
<g id="edge26" class="edge"><title>Node15&#45;&gt;Node18</title>
<path fill="none" stroke="midnightblue" d="M728.472,-112.444C760.171,-103.241 810.732,-88.5617 845.775,-78.3879"/>
<polygon fill="midnightblue" stroke="midnightblue" points="847.038,-81.6658 855.666,-75.5164 845.086,-74.9434 847.038,-81.6658"/>
</g>
</g>
</svg>
