<?xml version="1.0" encoding="UTF-8" standalone="no"?>
<!DOCTYPE svg PUBLIC "-//W3C//DTD SVG 1.1//EN"
 "http://www.w3.org/Graphics/SVG/1.1/DTD/svg11.dtd">
<!-- Generated by graphviz version 2.36.0 (20140111.2315)
 -->
<!-- Title: /home/travis/build/AliceO2Group/Monitoring/include/Monitoring/Tag.h Pages: 1 -->
<svg width="2521pt" height="452pt"
 viewBox="0.00 0.00 2521.00 452.00" xmlns="http://www.w3.org/2000/svg" xmlns:xlink="http://www.w3.org/1999/xlink">
<g id="graph0" class="graph" transform="scale(1 1) rotate(0) translate(4 448)">
<title>/home/travis/build/AliceO2Group/Monitoring/include/Monitoring/Tag.h</title>
<!-- Node1 -->
<g id="node1" class="node"><title>Node1</title>
<polygon fill="#bfbfbf" stroke="black" points="1417,-402.5 1417,-443.5 1545,-443.5 1545,-402.5 1417,-402.5"/>
<text text-anchor="start" x="1425" y="-431.5" font-family="Helvetica,sans-Serif" font-size="10.00">/home/travis/build</text>
<text text-anchor="start" x="1425" y="-420.5" font-family="Helvetica,sans-Serif" font-size="10.00">/AliceO2Group/Monitoring</text>
<text text-anchor="middle" x="1481" y="-409.5" font-family="Helvetica,sans-Serif" font-size="10.00">/include/Monitoring/Tag.h</text>
</g>
<!-- Node2 -->
<g id="node2" class="node"><title>Node2</title>
<g id="a_node2"><a xlink:href="../../d9/d92/Metric_8h.html" target="_top" xlink:title="/home/travis/build\l/AliceO2Group/Monitoring\l/include/Monitoring/Metric.h">
<polygon fill="none" stroke="black" points="1412.5,-324.5 1412.5,-365.5 1549.5,-365.5 1549.5,-324.5 1412.5,-324.5"/>
<text text-anchor="start" x="1420.5" y="-353.5" font-family="Helvetica,sans-Serif" font-size="10.00">/home/travis/build</text>
<text text-anchor="start" x="1420.5" y="-342.5" font-family="Helvetica,sans-Serif" font-size="10.00">/AliceO2Group/Monitoring</text>
<text text-anchor="middle" x="1481" y="-331.5" font-family="Helvetica,sans-Serif" font-size="10.00">/include/Monitoring/Metric.h</text>
</a>
</g>
</g>
<!-- Node1&#45;&gt;Node2 -->
<g id="edge1" class="edge"><title>Node1&#45;&gt;Node2</title>
<path fill="none" stroke="midnightblue" d="M1481,-392.297C1481,-383.301 1481,-373.653 1481,-365.506"/>
<polygon fill="midnightblue" stroke="midnightblue" points="1477.5,-392.428 1481,-402.428 1484.5,-392.428 1477.5,-392.428"/>
</g>
<!-- Node3 -->
<g id="node3" class="node"><title>Node3</title>
<g id="a_node3"><a xlink:href="../../df/d83/Backend_8h.html" target="_top" xlink:title="/home/travis/build\l/AliceO2Group/Monitoring\l/include/Monitoring/Backend.h">
<polygon fill="none" stroke="black" points="1407,-246.5 1407,-287.5 1555,-287.5 1555,-246.5 1407,-246.5"/>
<text text-anchor="start" x="1415" y="-275.5" font-family="Helvetica,sans-Serif" font-size="10.00">/home/travis/build</text>
<text text-anchor="start" x="1415" y="-264.5" font-family="Helvetica,sans-Serif" font-size="10.00">/AliceO2Group/Monitoring</text>
<text text-anchor="middle" x="1481" y="-253.5" font-family="Helvetica,sans-Serif" font-size="10.00">/include/Monitoring/Backend.h</text>
</a>
</g>
</g>
<!-- Node2&#45;&gt;Node3 -->
<g id="edge2" class="edge"><title>Node2&#45;&gt;Node3</title>
<path fill="none" stroke="midnightblue" d="M1481,-314.297C1481,-305.301 1481,-295.653 1481,-287.506"/>
<polygon fill="midnightblue" stroke="midnightblue" points="1477.5,-314.428 1481,-324.428 1484.5,-314.428 1477.5,-314.428"/>
</g>
<!-- Node30 -->
<g id="node30" class="node"><title>Node30</title>
<g id="a_node30"><a xlink:href="../../dc/de0/DerivedMetrics_8h.html" target="_top" xlink:title="/home/travis/build\l/AliceO2Group/Monitoring\l/include/Monitoring/DerivedMetrics.h">
<polygon fill="none" stroke="black" points="839,-246.5 839,-287.5 1015,-287.5 1015,-246.5 839,-246.5"/>
<text text-anchor="start" x="847" y="-275.5" font-family="Helvetica,sans-Serif" font-size="10.00">/home/travis/build</text>
<text text-anchor="start" x="847" y="-264.5" font-family="Helvetica,sans-Serif" font-size="10.00">/AliceO2Group/Monitoring</text>
<text text-anchor="middle" x="927" y="-253.5" font-family="Helvetica,sans-Serif" font-size="10.00">/include/Monitoring/DerivedMetrics.h</text>
</a>
</g>
</g>
<!-- Node2&#45;&gt;Node30 -->
<g id="edge33" class="edge"><title>Node2&#45;&gt;Node30</title>
<path fill="none" stroke="midnightblue" d="M1402.28,-333.201C1300.04,-319.175 1122.07,-294.76 1015.33,-280.117"/>
<polygon fill="midnightblue" stroke="midnightblue" points="1401.85,-336.675 1412.23,-334.566 1402.8,-329.74 1401.85,-336.675"/>
</g>
<!-- Node33 -->
<g id="node33" class="node"><title>Node33</title>
<g id="a_node33"><a xlink:href="../../df/d93/ProcessMonitor_8h.html" target="_top" xlink:title="/home/travis/build\l/AliceO2Group/Monitoring\l/include/Monitoring/ProcessMonitor.h">
<polygon fill="none" stroke="black" points="1130,-246.5 1130,-287.5 1308,-287.5 1308,-246.5 1130,-246.5"/>
<text text-anchor="start" x="1138" y="-275.5" font-family="Helvetica,sans-Serif" font-size="10.00">/home/travis/build</text>
<text text-anchor="start" x="1138" y="-264.5" font-family="Helvetica,sans-Serif" font-size="10.00">/AliceO2Group/Monitoring</text>
<text text-anchor="middle" x="1219" y="-253.5" font-family="Helvetica,sans-Serif" font-size="10.00">/include/Monitoring/ProcessMonitor.h</text>
</a>
</g>
</g>
<!-- Node2&#45;&gt;Node33 -->
<g id="edge37" class="edge"><title>Node2&#45;&gt;Node33</title>
<path fill="none" stroke="midnightblue" d="M1403.71,-321.58C1366.42,-310.764 1322.12,-297.911 1286.24,-287.506"/>
<polygon fill="midnightblue" stroke="midnightblue" points="1402.95,-325.004 1413.53,-324.428 1404.9,-318.281 1402.95,-325.004"/>
</g>
<!-- Node36 -->
<g id="node36" class="node"><title>Node36</title>
<g id="a_node36"><a xlink:href="../../dd/d6f/Metric_8cxx.html" target="_top" xlink:title="/home/travis/build\l/AliceO2Group/Monitoring\l/src/Metric.cxx">
<polygon fill="none" stroke="black" points="1573,-246.5 1573,-287.5 1701,-287.5 1701,-246.5 1573,-246.5"/>
<text text-anchor="start" x="1581" y="-275.5" font-family="Helvetica,sans-Serif" font-size="10.00">/home/travis/build</text>
<text text-anchor="start" x="1581" y="-264.5" font-family="Helvetica,sans-Serif" font-size="10.00">/AliceO2Group/Monitoring</text>
<text text-anchor="middle" x="1637" y="-253.5" font-family="Helvetica,sans-Serif" font-size="10.00">/src/Metric.cxx</text>
</a>
</g>
</g>
<!-- Node2&#45;&gt;Node36 -->
<g id="edge41" class="edge"><title>Node2&#45;&gt;Node36</title>
<path fill="none" stroke="midnightblue" d="M1530.45,-319.908C1551.9,-309.458 1576.69,-297.38 1596.96,-287.506"/>
<polygon fill="midnightblue" stroke="midnightblue" points="1528.63,-316.902 1521.17,-324.428 1531.7,-323.195 1528.63,-316.902"/>
</g>
<!-- Node37 -->
<g id="node37" class="node"><title>Node37</title>
<g id="a_node37"><a xlink:href="../../d0/de5/testMetric_8cxx.html" target="_top" xlink:title="/home/travis/build\l/AliceO2Group/Monitoring\l/test/testMetric.cxx">
<polygon fill="none" stroke="black" points="1719,-246.5 1719,-287.5 1847,-287.5 1847,-246.5 1719,-246.5"/>
<text text-anchor="start" x="1727" y="-275.5" font-family="Helvetica,sans-Serif" font-size="10.00">/home/travis/build</text>
<text text-anchor="start" x="1727" y="-264.5" font-family="Helvetica,sans-Serif" font-size="10.00">/AliceO2Group/Monitoring</text>
<text text-anchor="middle" x="1783" y="-253.5" font-family="Helvetica,sans-Serif" font-size="10.00">/test/testMetric.cxx</text>
</a>
</g>
</g>
<!-- Node2&#45;&gt;Node37 -->
<g id="edge42" class="edge"><title>Node2&#45;&gt;Node37</title>
<path fill="none" stroke="midnightblue" d="M1559.35,-325.406C1603.64,-314.752 1660,-300.961 1710,-288 1712.93,-287.242 1715.91,-286.458 1718.93,-285.66"/>
<polygon fill="midnightblue" stroke="midnightblue" points="1558.42,-322.029 1549.51,-327.768 1560.05,-328.836 1558.42,-322.029"/>
</g>
<!-- Node4 -->
<g id="node4" class="node"><title>Node4</title>
<g id="a_node4"><a xlink:href="../../d0/d98/Monitoring_8h.html" target="_top" xlink:title="/home/travis/build\l/AliceO2Group/Monitoring\l/include/Monitoring/Monitoring.h">
<polygon fill="none" stroke="black" points="1059.5,-168.5 1059.5,-209.5 1214.5,-209.5 1214.5,-168.5 1059.5,-168.5"/>
<text text-anchor="start" x="1067.5" y="-197.5" font-family="Helvetica,sans-Serif" font-size="10.00">/home/travis/build</text>
<text text-anchor="start" x="1067.5" y="-186.5" font-family="Helvetica,sans-Serif" font-size="10.00">/AliceO2Group/Monitoring</text>
<text text-anchor="middle" x="1137" y="-175.5" font-family="Helvetica,sans-Serif" font-size="10.00">/include/Monitoring/Monitoring.h</text>
</a>
</g>
</g>
<!-- Node3&#45;&gt;Node4 -->
<g id="edge3" class="edge"><title>Node3&#45;&gt;Node4</title>
<path fill="none" stroke="midnightblue" d="M1397.09,-248.114C1346.6,-237.271 1281.06,-223.053 1223,-210 1220.31,-209.395 1217.57,-208.776 1214.8,-208.148"/>
<polygon fill="midnightblue" stroke="midnightblue" points="1396.47,-251.561 1406.98,-250.237 1397.94,-244.716 1396.47,-251.561"/>
</g>
<!-- Node19 -->
<g id="node19" class="node"><title>Node19</title>
<g id="a_node19"><a xlink:href="../../db/df5/ApMonBackend_8h.html" target="_top" xlink:title="/home/travis/build\l/AliceO2Group/Monitoring\l/src/Backends/ApMonBackend.h">
<polygon fill="none" stroke="black" points="1877,-168.5 1877,-209.5 2037,-209.5 2037,-168.5 1877,-168.5"/>
<text text-anchor="start" x="1885" y="-197.5" font-family="Helvetica,sans-Serif" font-size="10.00">/home/travis/build</text>
<text text-anchor="start" x="1885" y="-186.5" font-family="Helvetica,sans-Serif" font-size="10.00">/AliceO2Group/Monitoring</text>
<text text-anchor="middle" x="1957" y="-175.5" font-family="Helvetica,sans-Serif" font-size="10.00">/src/Backends/ApMonBackend.h</text>
</a>
</g>
</g>
<!-- Node3&#45;&gt;Node19 -->
<g id="edge18" class="edge"><title>Node3&#45;&gt;Node19</title>
<path fill="none" stroke="midnightblue" d="M1565.05,-245.882C1678.7,-224.477 1799.42,-208.523 1876.85,-199.16"/>
<polygon fill="midnightblue" stroke="midnightblue" points="1564.31,-242.461 1555.14,-247.767 1565.61,-249.338 1564.31,-242.461"/>
</g>
<!-- Node22 -->
<g id="node22" class="node"><title>Node22</title>
<g id="a_node22"><a xlink:href="../../d4/d57/Flume_8h.html" target="_top" xlink:title="/home/travis/build\l/AliceO2Group/Monitoring\l/src/Backends/Flume.h">
<polygon fill="none" stroke="black" points="1587,-168.5 1587,-209.5 1715,-209.5 1715,-168.5 1587,-168.5"/>
<text text-anchor="start" x="1595" y="-197.5" font-family="Helvetica,sans-Serif" font-size="10.00">/home/travis/build</text>
<text text-anchor="start" x="1595" y="-186.5" font-family="Helvetica,sans-Serif" font-size="10.00">/AliceO2Group/Monitoring</text>
<text text-anchor="middle" x="1651" y="-175.5" font-family="Helvetica,sans-Serif" font-size="10.00">/src/Backends/Flume.h</text>
</a>
</g>
</g>
<!-- Node3&#45;&gt;Node22 -->
<g id="edge21" class="edge"><title>Node3&#45;&gt;Node22</title>
<path fill="none" stroke="midnightblue" d="M1533.95,-242.329C1557.54,-231.783 1584.98,-219.513 1607.37,-209.506"/>
<polygon fill="midnightblue" stroke="midnightblue" points="1532.48,-239.152 1524.78,-246.428 1535.34,-245.542 1532.48,-239.152"/>
</g>
<!-- Node25 -->
<g id="node25" class="node"><title>Node25</title>
<g id="a_node25"><a xlink:href="../../d1/d78/InfluxDB_8h.html" target="_top" xlink:title="/home/travis/build\l/AliceO2Group/Monitoring\l/src/Backends/InfluxDB.h">
<polygon fill="none" stroke="black" points="2226.5,-168.5 2226.5,-209.5 2355.5,-209.5 2355.5,-168.5 2226.5,-168.5"/>
<text text-anchor="start" x="2234.5" y="-197.5" font-family="Helvetica,sans-Serif" font-size="10.00">/home/travis/build</text>
<text text-anchor="start" x="2234.5" y="-186.5" font-family="Helvetica,sans-Serif" font-size="10.00">/AliceO2Group/Monitoring</text>
<text text-anchor="middle" x="2291" y="-175.5" font-family="Helvetica,sans-Serif" font-size="10.00">/src/Backends/InfluxDB.h</text>
</a>
</g>
</g>
<!-- Node3&#45;&gt;Node25 -->
<g id="edge26" class="edge"><title>Node3&#45;&gt;Node25</title>
<path fill="none" stroke="midnightblue" d="M1565.02,-245.971C1777.95,-213.147 1835.08,-226.486 2046,-210 2107.16,-205.22 2176.89,-199.502 2226.27,-195.406"/>
<polygon fill="midnightblue" stroke="midnightblue" points="1564.43,-242.52 1555.09,-247.518 1565.51,-249.437 1564.43,-242.52"/>
</g>
<!-- Node28 -->
<g id="node28" class="node"><title>Node28</title>
<g id="a_node28"><a xlink:href="../../d9/de4/InfoLoggerBackend_8h.html" target="_top" xlink:title="/home/travis/build\l/AliceO2Group/Monitoring\l/src/Backends/InfoLoggerBackend.h">
<polygon fill="none" stroke="black" points="1393.5,-168.5 1393.5,-209.5 1568.5,-209.5 1568.5,-168.5 1393.5,-168.5"/>
<text text-anchor="start" x="1401.5" y="-197.5" font-family="Helvetica,sans-Serif" font-size="10.00">/home/travis/build</text>
<text text-anchor="start" x="1401.5" y="-186.5" font-family="Helvetica,sans-Serif" font-size="10.00">/AliceO2Group/Monitoring</text>
<text text-anchor="middle" x="1481" y="-175.5" font-family="Helvetica,sans-Serif" font-size="10.00">/src/Backends/InfoLoggerBackend.h</text>
</a>
</g>
</g>
<!-- Node3&#45;&gt;Node28 -->
<g id="edge29" class="edge"><title>Node3&#45;&gt;Node28</title>
<path fill="none" stroke="midnightblue" d="M1481,-236.297C1481,-227.301 1481,-217.653 1481,-209.506"/>
<polygon fill="midnightblue" stroke="midnightblue" points="1477.5,-236.428 1481,-246.428 1484.5,-236.428 1477.5,-236.428"/>
</g>
<!-- Node5 -->
<g id="node5" class="node"><title>Node5</title>
<g id="a_node5"><a xlink:href="../../df/d4e/MonitoringFactory_8h.html" target="_top" xlink:title="/home/travis/build\l/AliceO2Group/Monitoring\l/include/Monitoring/Monitoring\lFactory.h">
<polygon fill="none" stroke="black" points="1012,-79 1012,-131 1158,-131 1158,-79 1012,-79"/>
<text text-anchor="start" x="1020" y="-119" font-family="Helvetica,sans-Serif" font-size="10.00">/home/travis/build</text>
<text text-anchor="start" x="1020" y="-108" font-family="Helvetica,sans-Serif" font-size="10.00">/AliceO2Group/Monitoring</text>
<text text-anchor="start" x="1020" y="-97" font-family="Helvetica,sans-Serif" font-size="10.00">/include/Monitoring/Monitoring</text>
<text text-anchor="middle" x="1085" y="-86" font-family="Helvetica,sans-Serif" font-size="10.00">Factory.h</text>
</a>
</g>
</g>
<!-- Node4&#45;&gt;Node5 -->
<g id="edge4" class="edge"><title>Node4&#45;&gt;Node5</title>
<path fill="none" stroke="midnightblue" d="M1119.03,-159.661C1113.18,-150.431 1106.72,-140.251 1101.02,-131.261"/>
<polygon fill="midnightblue" stroke="midnightblue" points="1116.1,-161.579 1124.41,-168.15 1122.01,-157.831 1116.1,-161.579"/>
</g>
<!-- Node18 -->
<g id="node18" class="node"><title>Node18</title>
<g id="a_node18"><a xlink:href="../../d5/db4/Monitoring_8cxx.html" target="_top" xlink:title="/home/travis/build\l/AliceO2Group/Monitoring\l/src/Monitoring.cxx">
<polygon fill="none" stroke="black" points="1417,-84.5 1417,-125.5 1545,-125.5 1545,-84.5 1417,-84.5"/>
<text text-anchor="start" x="1425" y="-113.5" font-family="Helvetica,sans-Serif" font-size="10.00">/home/travis/build</text>
<text text-anchor="start" x="1425" y="-102.5" font-family="Helvetica,sans-Serif" font-size="10.00">/AliceO2Group/Monitoring</text>
<text text-anchor="middle" x="1481" y="-91.5" font-family="Helvetica,sans-Serif" font-size="10.00">/src/Monitoring.cxx</text>
</a>
</g>
</g>
<!-- Node4&#45;&gt;Node18 -->
<g id="edge17" class="edge"><title>Node4&#45;&gt;Node18</title>
<path fill="none" stroke="midnightblue" d="M1225,-167.628C1306.3,-150.78 1329.73,-153.014 1407,-132 1413.96,-130.106 1421.22,-127.882 1428.34,-125.545"/>
<polygon fill="midnightblue" stroke="midnightblue" points="1223.85,-164.293 1214.79,-169.78 1225.3,-171.142 1223.85,-164.293"/>
</g>
<!-- Node6 -->
<g id="node6" class="node"><title>Node6</title>
<g id="a_node6"><a xlink:href="../../d0/d18/1-Basic_8cxx.html" target="_top" xlink:title="/home/travis/build\l/AliceO2Group/Monitoring\l/examples/1&#45;Basic.cxx">
<polygon fill="none" stroke="black" points="1629,-0.5 1629,-41.5 1757,-41.5 1757,-0.5 1629,-0.5"/>
<text text-anchor="start" x="1637" y="-29.5" font-family="Helvetica,sans-Serif" font-size="10.00">/home/travis/build</text>
<text text-anchor="start" x="1637" y="-18.5" font-family="Helvetica,sans-Serif" font-size="10.00">/AliceO2Group/Monitoring</text>
<text text-anchor="middle" x="1693" y="-7.5" font-family="Helvetica,sans-Serif" font-size="10.00">/examples/1&#45;Basic.cxx</text>
</a>
</g>
</g>
<!-- Node5&#45;&gt;Node6 -->
<g id="edge5" class="edge"><title>Node5&#45;&gt;Node6</title>
<path fill="none" stroke="midnightblue" d="M1168.19,-78.7436C1169.46,-78.4851 1170.74,-78.2369 1172,-78 1368.33,-41.1985 1423.26,-76.5421 1620,-42 1622.85,-41.5001 1625.74,-40.9384 1628.66,-40.3292"/>
<polygon fill="midnightblue" stroke="midnightblue" points="1167.32,-75.3501 1158.3,-80.9121 1168.82,-82.1874 1167.32,-75.3501"/>
</g>
<!-- Node7 -->
<g id="node7" class="node"><title>Node7</title>
<g id="a_node7"><a xlink:href="../../dd/d84/10-Buffering_8cxx.html" target="_top" xlink:title="/home/travis/build\l/AliceO2Group/Monitoring\l/examples/10&#45;Buffering.cxx">
<polygon fill="none" stroke="black" points="0,-0.5 0,-41.5 136,-41.5 136,-0.5 0,-0.5"/>
<text text-anchor="start" x="8" y="-29.5" font-family="Helvetica,sans-Serif" font-size="10.00">/home/travis/build</text>
<text text-anchor="start" x="8" y="-18.5" font-family="Helvetica,sans-Serif" font-size="10.00">/AliceO2Group/Monitoring</text>
<text text-anchor="middle" x="68" y="-7.5" font-family="Helvetica,sans-Serif" font-size="10.00">/examples/10&#45;Buffering.cxx</text>
</a>
</g>
</g>
<!-- Node5&#45;&gt;Node7 -->
<g id="edge6" class="edge"><title>Node5&#45;&gt;Node7</title>
<path fill="none" stroke="midnightblue" d="M1001.89,-103.751C837.264,-102.107 458.53,-92.5953 145,-42 142.137,-41.5379 139.225,-41.0171 136.292,-40.4502"/>
<polygon fill="midnightblue" stroke="midnightblue" points="1001.91,-107.251 1011.94,-103.844 1001.98,-100.251 1001.91,-107.251"/>
</g>
<!-- Node8 -->
<g id="node8" class="node"><title>Node8</title>
<g id="a_node8"><a xlink:href="../../d0/dfe/2-TaggedMetrics_8cxx.html" target="_top" xlink:title="/home/travis/build\l/AliceO2Group/Monitoring\l/examples/2&#45;TaggedMetrics.cxx">
<polygon fill="none" stroke="black" points="154,-0.5 154,-41.5 310,-41.5 310,-0.5 154,-0.5"/>
<text text-anchor="start" x="162" y="-29.5" font-family="Helvetica,sans-Serif" font-size="10.00">/home/travis/build</text>
<text text-anchor="start" x="162" y="-18.5" font-family="Helvetica,sans-Serif" font-size="10.00">/AliceO2Group/Monitoring</text>
<text text-anchor="middle" x="232" y="-7.5" font-family="Helvetica,sans-Serif" font-size="10.00">/examples/2&#45;TaggedMetrics.cxx</text>
</a>
</g>
</g>
<!-- Node5&#45;&gt;Node8 -->
<g id="edge7" class="edge"><title>Node5&#45;&gt;Node8</title>
<path fill="none" stroke="midnightblue" d="M1001.67,-101.217C860.474,-95.6189 565.499,-80.1026 319,-42 316.09,-41.5502 313.133,-41.0569 310.151,-40.5292"/>
<polygon fill="midnightblue" stroke="midnightblue" points="1001.85,-104.727 1011.98,-101.619 1002.12,-97.7322 1001.85,-104.727"/>
</g>
<!-- Node9 -->
<g id="node9" class="node"><title>Node9</title>
<g id="a_node9"><a xlink:href="../../d7/d1d/3-UserDefinedTimestamp_8cxx.html" target="_top" xlink:title="/home/travis/build\l/AliceO2Group/Monitoring\l/examples/3&#45;UserDefinedTimestamp.cxx">
<polygon fill="none" stroke="black" points="328.5,-0.5 328.5,-41.5 523.5,-41.5 523.5,-0.5 328.5,-0.5"/>
<text text-anchor="start" x="336.5" y="-29.5" font-family="Helvetica,sans-Serif" font-size="10.00">/home/travis/build</text>
<text text-anchor="start" x="336.5" y="-18.5" font-family="Helvetica,sans-Serif" font-size="10.00">/AliceO2Group/Monitoring</text>
<text text-anchor="middle" x="426" y="-7.5" font-family="Helvetica,sans-Serif" font-size="10.00">/examples/3&#45;UserDefinedTimestamp.cxx</text>
</a>
</g>
</g>
<!-- Node5&#45;&gt;Node9 -->
<g id="edge8" class="edge"><title>Node5&#45;&gt;Node9</title>
<path fill="none" stroke="midnightblue" d="M1001.64,-96.6149C893.175,-86.5565 697.899,-66.915 532,-42 529.222,-41.5828 526.406,-41.1458 523.565,-40.6928"/>
<polygon fill="midnightblue" stroke="midnightblue" points="1001.59,-100.124 1011.87,-97.5583 1002.23,-93.154 1001.59,-100.124"/>
</g>
<!-- Node10 -->
<g id="node10" class="node"><title>Node10</title>
<g id="a_node10"><a xlink:href="../../d2/dbd/4-RateDerivedMetric_8cxx.html" target="_top" xlink:title="/home/travis/build\l/AliceO2Group/Monitoring\l/examples/4&#45;RateDerivedMetric.cxx">
<polygon fill="none" stroke="black" points="541.5,-0.5 541.5,-41.5 714.5,-41.5 714.5,-0.5 541.5,-0.5"/>
<text text-anchor="start" x="549.5" y="-29.5" font-family="Helvetica,sans-Serif" font-size="10.00">/home/travis/build</text>
<text text-anchor="start" x="549.5" y="-18.5" font-family="Helvetica,sans-Serif" font-size="10.00">/AliceO2Group/Monitoring</text>
<text text-anchor="middle" x="628" y="-7.5" font-family="Helvetica,sans-Serif" font-size="10.00">/examples/4&#45;RateDerivedMetric.cxx</text>
</a>
</g>
</g>
<!-- Node5&#45;&gt;Node10 -->
<g id="edge9" class="edge"><title>Node5&#45;&gt;Node10</title>
<path fill="none" stroke="midnightblue" d="M1001.58,-90.6341C928.109,-78.6414 818.261,-60.1784 723,-42 720.268,-41.4787 717.494,-40.9415 714.694,-40.3927"/>
<polygon fill="midnightblue" stroke="midnightblue" points="1001.27,-94.1294 1011.71,-92.2827 1002.4,-87.2205 1001.27,-94.1294"/>
</g>
<!-- Node11 -->
<g id="node11" class="node"><title>Node11</title>
<g id="a_node11"><a xlink:href="../../d5/d3e/5-Benchmark_8cxx.html" target="_top" xlink:title="/home/travis/build\l/AliceO2Group/Monitoring\l/examples/5&#45;Benchmark.cxx">
<polygon fill="none" stroke="black" points="732.5,-0.5 732.5,-41.5 873.5,-41.5 873.5,-0.5 732.5,-0.5"/>
<text text-anchor="start" x="740.5" y="-29.5" font-family="Helvetica,sans-Serif" font-size="10.00">/home/travis/build</text>
<text text-anchor="start" x="740.5" y="-18.5" font-family="Helvetica,sans-Serif" font-size="10.00">/AliceO2Group/Monitoring</text>
<text text-anchor="middle" x="803" y="-7.5" font-family="Helvetica,sans-Serif" font-size="10.00">/examples/5&#45;Benchmark.cxx</text>
</a>
</g>
</g>
<!-- Node5&#45;&gt;Node11 -->
<g id="edge10" class="edge"><title>Node5&#45;&gt;Node11</title>
<path fill="none" stroke="midnightblue" d="M1001.99,-79.8632C960.007,-67.6546 909.714,-53.0303 870.193,-41.5385"/>
<polygon fill="midnightblue" stroke="midnightblue" points="1001.06,-83.2381 1011.64,-82.6695 1003.02,-76.5165 1001.06,-83.2381"/>
</g>
<!-- Node12 -->
<g id="node12" class="node"><title>Node12</title>
<g id="a_node12"><a xlink:href="../../d5/d20/6-Increment_8cxx.html" target="_top" xlink:title="/home/travis/build\l/AliceO2Group/Monitoring\l/examples/6&#45;Increment.cxx">
<polygon fill="none" stroke="black" points="891.5,-0.5 891.5,-41.5 1026.5,-41.5 1026.5,-0.5 891.5,-0.5"/>
<text text-anchor="start" x="899.5" y="-29.5" font-family="Helvetica,sans-Serif" font-size="10.00">/home/travis/build</text>
<text text-anchor="start" x="899.5" y="-18.5" font-family="Helvetica,sans-Serif" font-size="10.00">/AliceO2Group/Monitoring</text>
<text text-anchor="middle" x="959" y="-7.5" font-family="Helvetica,sans-Serif" font-size="10.00">/examples/6&#45;Increment.cxx</text>
</a>
</g>
</g>
<!-- Node5&#45;&gt;Node12 -->
<g id="edge11" class="edge"><title>Node5&#45;&gt;Node12</title>
<path fill="none" stroke="midnightblue" d="M1037.68,-73.2061C1021.46,-62.6507 1003.76,-51.1315 989.265,-41.6965"/>
<polygon fill="midnightblue" stroke="midnightblue" points="1036.22,-76.4306 1046.51,-78.9517 1040.04,-70.5636 1036.22,-76.4306"/>
</g>
<!-- Node13 -->
<g id="node13" class="node"><title>Node13</title>
<g id="a_node13"><a xlink:href="../../db/d78/7-Latency_8cxx.html" target="_top" xlink:title="/home/travis/build\l/AliceO2Group/Monitoring\l/examples/7&#45;Latency.cxx">
<polygon fill="none" stroke="black" points="1045,-0.5 1045,-41.5 1173,-41.5 1173,-0.5 1045,-0.5"/>
<text text-anchor="start" x="1053" y="-29.5" font-family="Helvetica,sans-Serif" font-size="10.00">/home/travis/build</text>
<text text-anchor="start" x="1053" y="-18.5" font-family="Helvetica,sans-Serif" font-size="10.00">/AliceO2Group/Monitoring</text>
<text text-anchor="middle" x="1109" y="-7.5" font-family="Helvetica,sans-Serif" font-size="10.00">/examples/7&#45;Latency.cxx</text>
</a>
</g>
</g>
<!-- Node5&#45;&gt;Node13 -->
<g id="edge12" class="edge"><title>Node5&#45;&gt;Node13</title>
<path fill="none" stroke="midnightblue" d="M1095.23,-69.0593C1097.97,-59.6993 1100.83,-49.9085 1103.24,-41.6965"/>
<polygon fill="midnightblue" stroke="midnightblue" points="1091.78,-68.3712 1092.33,-78.9517 1098.5,-70.3375 1091.78,-68.3712"/>
</g>
<!-- Node14 -->
<g id="node14" class="node"><title>Node14</title>
<g id="a_node14"><a xlink:href="../../d4/df8/8-Multiple_8cxx.html" target="_top" xlink:title="/home/travis/build\l/AliceO2Group/Monitoring\l/examples/8&#45;Multiple.cxx">
<polygon fill="none" stroke="black" points="1191,-0.5 1191,-41.5 1319,-41.5 1319,-0.5 1191,-0.5"/>
<text text-anchor="start" x="1199" y="-29.5" font-family="Helvetica,sans-Serif" font-size="10.00">/home/travis/build</text>
<text text-anchor="start" x="1199" y="-18.5" font-family="Helvetica,sans-Serif" font-size="10.00">/AliceO2Group/Monitoring</text>
<text text-anchor="middle" x="1255" y="-7.5" font-family="Helvetica,sans-Serif" font-size="10.00">/examples/8&#45;Multiple.cxx</text>
</a>
</g>
</g>
<!-- Node5&#45;&gt;Node14 -->
<g id="edge13" class="edge"><title>Node5&#45;&gt;Node14</title>
<path fill="none" stroke="midnightblue" d="M1146.15,-74.5026C1168.85,-63.5523 1194.03,-51.411 1214.44,-41.5645"/>
<polygon fill="midnightblue" stroke="midnightblue" points="1144.42,-71.4547 1136.93,-78.9517 1147.46,-77.7596 1144.42,-71.4547"/>
</g>
<!-- Node15 -->
<g id="node15" class="node"><title>Node15</title>
<g id="a_node15"><a xlink:href="../../d6/d9f/9-Timer_8cxx.html" target="_top" xlink:title="/home/travis/build\l/AliceO2Group/Monitoring\l/examples/9&#45;Timer.cxx">
<polygon fill="none" stroke="black" points="1337,-0.5 1337,-41.5 1465,-41.5 1465,-0.5 1337,-0.5"/>
<text text-anchor="start" x="1345" y="-29.5" font-family="Helvetica,sans-Serif" font-size="10.00">/home/travis/build</text>
<text text-anchor="start" x="1345" y="-18.5" font-family="Helvetica,sans-Serif" font-size="10.00">/AliceO2Group/Monitoring</text>
<text text-anchor="middle" x="1401" y="-7.5" font-family="Helvetica,sans-Serif" font-size="10.00">/examples/9&#45;Timer.cxx</text>
</a>
</g>
</g>
<!-- Node5&#45;&gt;Node15 -->
<g id="edge14" class="edge"><title>Node5&#45;&gt;Node15</title>
<path fill="none" stroke="midnightblue" d="M1167.68,-79.1543C1169.13,-78.7631 1170.57,-78.3779 1172,-78 1240.79,-59.8036 1259.01,-59.4045 1328,-42 1330.93,-41.2607 1333.92,-40.4929 1336.94,-39.7075"/>
<polygon fill="midnightblue" stroke="midnightblue" points="1166.72,-75.7885 1158.01,-81.8152 1168.58,-82.5379 1166.72,-75.7885"/>
</g>
<!-- Node16 -->
<g id="node16" class="node"><title>Node16</title>
<g id="a_node16"><a xlink:href="../../d6/d98/MonitoringFactory_8cxx.html" target="_top" xlink:title="/home/travis/build\l/AliceO2Group/Monitoring\l/src/MonitoringFactory.cxx">
<polygon fill="none" stroke="black" points="1775.5,-0.5 1775.5,-41.5 1908.5,-41.5 1908.5,-0.5 1775.5,-0.5"/>
<text text-anchor="start" x="1783.5" y="-29.5" font-family="Helvetica,sans-Serif" font-size="10.00">/home/travis/build</text>
<text text-anchor="start" x="1783.5" y="-18.5" font-family="Helvetica,sans-Serif" font-size="10.00">/AliceO2Group/Monitoring</text>
<text text-anchor="middle" x="1842" y="-7.5" font-family="Helvetica,sans-Serif" font-size="10.00">/src/MonitoringFactory.cxx</text>
</a>
</g>
</g>
<!-- Node5&#45;&gt;Node16 -->
<g id="edge15" class="edge"><title>Node5&#45;&gt;Node16</title>
<path fill="none" stroke="midnightblue" d="M1168.18,-78.7086C1169.46,-78.461 1170.73,-78.2245 1172,-78 1432.42,-31.8295 1504.85,-83.8572 1766,-42 1769.1,-41.5034 1772.25,-40.9345 1775.43,-40.3105"/>
<polygon fill="midnightblue" stroke="midnightblue" points="1167.34,-75.3087 1158.29,-80.8078 1168.79,-82.1563 1167.34,-75.3087"/>
</g>
<!-- Node17 -->
<g id="node17" class="node"><title>Node17</title>
<g id="a_node17"><a xlink:href="../../d7/dd5/testMonitoring_8cxx.html" target="_top" xlink:title="/home/travis/build\l/AliceO2Group/Monitoring\l/test/testMonitoring.cxx">
<polygon fill="none" stroke="black" points="1483,-0.5 1483,-41.5 1611,-41.5 1611,-0.5 1483,-0.5"/>
<text text-anchor="start" x="1491" y="-29.5" font-family="Helvetica,sans-Serif" font-size="10.00">/home/travis/build</text>
<text text-anchor="start" x="1491" y="-18.5" font-family="Helvetica,sans-Serif" font-size="10.00">/AliceO2Group/Monitoring</text>
<text text-anchor="middle" x="1547" y="-7.5" font-family="Helvetica,sans-Serif" font-size="10.00">/test/testMonitoring.cxx</text>
</a>
</g>
</g>
<!-- Node5&#45;&gt;Node17 -->
<g id="edge16" class="edge"><title>Node5&#45;&gt;Node17</title>
<path fill="none" stroke="midnightblue" d="M1168.2,-78.8118C1169.47,-78.532 1170.74,-78.2611 1172,-78 1304.36,-50.5464 1341.34,-67.9304 1474,-42 1476.84,-41.4454 1479.73,-40.8385 1482.64,-40.1922"/>
<polygon fill="midnightblue" stroke="midnightblue" points="1167.29,-75.4312 1158.34,-81.1155 1168.88,-82.2475 1167.29,-75.4312"/>
</g>
<!-- Node20 -->
<g id="node20" class="node"><title>Node20</title>
<g id="a_node20"><a xlink:href="../../dc/d7a/ApMonBackend_8cxx.html" target="_top" xlink:title="/home/travis/build\l/AliceO2Group/Monitoring\l/src/Backends/ApMonBackend.cxx">
<polygon fill="none" stroke="black" points="2039,-84.5 2039,-125.5 2209,-125.5 2209,-84.5 2039,-84.5"/>
<text text-anchor="start" x="2047" y="-113.5" font-family="Helvetica,sans-Serif" font-size="10.00">/home/travis/build</text>
<text text-anchor="start" x="2047" y="-102.5" font-family="Helvetica,sans-Serif" font-size="10.00">/AliceO2Group/Monitoring</text>
<text text-anchor="middle" x="2124" y="-91.5" font-family="Helvetica,sans-Serif" font-size="10.00">/src/Backends/ApMonBackend.cxx</text>
</a>
</g>
</g>
<!-- Node19&#45;&gt;Node20 -->
<g id="edge19" class="edge"><title>Node19&#45;&gt;Node20</title>
<path fill="none" stroke="midnightblue" d="M2006.24,-163.823C2031.02,-151.652 2060.68,-137.089 2084.04,-125.623"/>
<polygon fill="midnightblue" stroke="midnightblue" points="2004.43,-160.81 1997,-168.359 2007.52,-167.093 2004.43,-160.81"/>
</g>
<!-- Node21 -->
<g id="node21" class="node"><title>Node21</title>
<g id="a_node21"><a xlink:href="../../d2/d31/testApMon_8cxx.html" target="_top" xlink:title="/home/travis/build\l/AliceO2Group/Monitoring\l/test/testApMon.cxx">
<polygon fill="none" stroke="black" points="1893,-84.5 1893,-125.5 2021,-125.5 2021,-84.5 1893,-84.5"/>
<text text-anchor="start" x="1901" y="-113.5" font-family="Helvetica,sans-Serif" font-size="10.00">/home/travis/build</text>
<text text-anchor="start" x="1901" y="-102.5" font-family="Helvetica,sans-Serif" font-size="10.00">/AliceO2Group/Monitoring</text>
<text text-anchor="middle" x="1957" y="-91.5" font-family="Helvetica,sans-Serif" font-size="10.00">/test/testApMon.cxx</text>
</a>
</g>
</g>
<!-- Node19&#45;&gt;Node21 -->
<g id="edge20" class="edge"><title>Node19&#45;&gt;Node21</title>
<path fill="none" stroke="midnightblue" d="M1957,-157.881C1957,-147.133 1957,-135.309 1957,-125.667"/>
<polygon fill="midnightblue" stroke="midnightblue" points="1953.5,-158.15 1957,-168.15 1960.5,-158.15 1953.5,-158.15"/>
</g>
<!-- Node22&#45;&gt;Node16 -->
<g id="edge24" class="edge"><title>Node22&#45;&gt;Node16</title>
<path fill="none" stroke="midnightblue" d="M1725.1,-176.171C1773.78,-166.716 1831.11,-151.774 1846,-132 1865.66,-105.898 1857.27,-65.5868 1849.53,-41.695"/>
<polygon fill="midnightblue" stroke="midnightblue" points="1724.36,-172.75 1715.18,-178.047 1725.66,-179.628 1724.36,-172.75"/>
</g>
<!-- Node22&#45;&gt;Node18 -->
<g id="edge23" class="edge"><title>Node22&#45;&gt;Node18</title>
<path fill="none" stroke="midnightblue" d="M1601.21,-163.984C1575.91,-151.781 1545.56,-137.14 1521.68,-125.623"/>
<polygon fill="midnightblue" stroke="midnightblue" points="1599.75,-167.167 1610.28,-168.359 1602.79,-160.862 1599.75,-167.167"/>
</g>
<!-- Node23 -->
<g id="node23" class="node"><title>Node23</title>
<g id="a_node23"><a xlink:href="../../d7/d21/Flume_8cxx.html" target="_top" xlink:title="/home/travis/build\l/AliceO2Group/Monitoring\l/src/Backends/Flume.cxx">
<polygon fill="none" stroke="black" points="1563,-84.5 1563,-125.5 1691,-125.5 1691,-84.5 1563,-84.5"/>
<text text-anchor="start" x="1571" y="-113.5" font-family="Helvetica,sans-Serif" font-size="10.00">/home/travis/build</text>
<text text-anchor="start" x="1571" y="-102.5" font-family="Helvetica,sans-Serif" font-size="10.00">/AliceO2Group/Monitoring</text>
<text text-anchor="middle" x="1627" y="-91.5" font-family="Helvetica,sans-Serif" font-size="10.00">/src/Backends/Flume.cxx</text>
</a>
</g>
</g>
<!-- Node22&#45;&gt;Node23 -->
<g id="edge22" class="edge"><title>Node22&#45;&gt;Node23</title>
<path fill="none" stroke="midnightblue" d="M1642.38,-158.551C1639.18,-147.626 1635.64,-135.51 1632.76,-125.667"/>
<polygon fill="midnightblue" stroke="midnightblue" points="1639.02,-159.536 1645.19,-168.15 1645.74,-157.57 1639.02,-159.536"/>
</g>
<!-- Node24 -->
<g id="node24" class="node"><title>Node24</title>
<g id="a_node24"><a xlink:href="../../dd/d7a/testFlume_8cxx.html" target="_top" xlink:title="/home/travis/build\l/AliceO2Group/Monitoring\l/test/testFlume.cxx">
<polygon fill="none" stroke="black" points="1709,-84.5 1709,-125.5 1837,-125.5 1837,-84.5 1709,-84.5"/>
<text text-anchor="start" x="1717" y="-113.5" font-family="Helvetica,sans-Serif" font-size="10.00">/home/travis/build</text>
<text text-anchor="start" x="1717" y="-102.5" font-family="Helvetica,sans-Serif" font-size="10.00">/AliceO2Group/Monitoring</text>
<text text-anchor="middle" x="1773" y="-91.5" font-family="Helvetica,sans-Serif" font-size="10.00">/test/testFlume.cxx</text>
</a>
</g>
</g>
<!-- Node22&#45;&gt;Node24 -->
<g id="edge25" class="edge"><title>Node22&#45;&gt;Node24</title>
<path fill="none" stroke="midnightblue" d="M1688.62,-162.712C1706.31,-150.825 1727.08,-136.862 1743.59,-125.765"/>
<polygon fill="midnightblue" stroke="midnightblue" points="1686.57,-159.876 1680.22,-168.359 1690.47,-165.685 1686.57,-159.876"/>
</g>
<!-- Node26 -->
<g id="node26" class="node"><title>Node26</title>
<g id="a_node26"><a xlink:href="../../d8/dd1/InfluxDB_8cxx.html" target="_top" xlink:title="/home/travis/build\l/AliceO2Group/Monitoring\l/src/Backends/InfluxDB.cxx">
<polygon fill="none" stroke="black" points="2373,-84.5 2373,-125.5 2513,-125.5 2513,-84.5 2373,-84.5"/>
<text text-anchor="start" x="2381" y="-113.5" font-family="Helvetica,sans-Serif" font-size="10.00">/home/travis/build</text>
<text text-anchor="start" x="2381" y="-102.5" font-family="Helvetica,sans-Serif" font-size="10.00">/AliceO2Group/Monitoring</text>
<text text-anchor="middle" x="2443" y="-91.5" font-family="Helvetica,sans-Serif" font-size="10.00">/src/Backends/InfluxDB.cxx</text>
</a>
</g>
</g>
<!-- Node25&#45;&gt;Node26 -->
<g id="edge27" class="edge"><title>Node25&#45;&gt;Node26</title>
<path fill="none" stroke="midnightblue" d="M2336.41,-163.501C2358.85,-151.396 2385.56,-136.988 2406.63,-125.623"/>
<polygon fill="midnightblue" stroke="midnightblue" points="2334.55,-160.531 2327.41,-168.359 2337.87,-166.691 2334.55,-160.531"/>
</g>
<!-- Node27 -->
<g id="node27" class="node"><title>Node27</title>
<g id="a_node27"><a xlink:href="../../de/df5/testInfluxDb_8cxx.html" target="_top" xlink:title="/home/travis/build\l/AliceO2Group/Monitoring\l/test/testInfluxDb.cxx">
<polygon fill="none" stroke="black" points="2227,-84.5 2227,-125.5 2355,-125.5 2355,-84.5 2227,-84.5"/>
<text text-anchor="start" x="2235" y="-113.5" font-family="Helvetica,sans-Serif" font-size="10.00">/home/travis/build</text>
<text text-anchor="start" x="2235" y="-102.5" font-family="Helvetica,sans-Serif" font-size="10.00">/AliceO2Group/Monitoring</text>
<text text-anchor="middle" x="2291" y="-91.5" font-family="Helvetica,sans-Serif" font-size="10.00">/test/testInfluxDb.cxx</text>
</a>
</g>
</g>
<!-- Node25&#45;&gt;Node27 -->
<g id="edge28" class="edge"><title>Node25&#45;&gt;Node27</title>
<path fill="none" stroke="midnightblue" d="M2291,-157.881C2291,-147.133 2291,-135.309 2291,-125.667"/>
<polygon fill="midnightblue" stroke="midnightblue" points="2287.5,-158.15 2291,-168.15 2294.5,-158.15 2287.5,-158.15"/>
</g>
<!-- Node28&#45;&gt;Node16 -->
<g id="edge32" class="edge"><title>Node28&#45;&gt;Node16</title>
<path fill="none" stroke="midnightblue" d="M1383.45,-168.115C1300.36,-154.909 1253.75,-192.69 1204,-132 1188.78,-113.44 1187.58,-95.5046 1204,-78 1246.81,-32.3623 1704.23,-52.0089 1766,-42 1769.1,-41.498 1772.25,-40.9249 1775.43,-40.2973"/>
<polygon fill="midnightblue" stroke="midnightblue" points="1383.03,-171.596 1393.5,-169.933 1384.28,-164.708 1383.03,-171.596"/>
</g>
<!-- Node28&#45;&gt;Node18 -->
<g id="edge31" class="edge"><title>Node28&#45;&gt;Node18</title>
<path fill="none" stroke="midnightblue" d="M1481,-157.881C1481,-147.133 1481,-135.309 1481,-125.667"/>
<polygon fill="midnightblue" stroke="midnightblue" points="1477.5,-158.15 1481,-168.15 1484.5,-158.15 1477.5,-158.15"/>
</g>
<!-- Node29 -->
<g id="node29" class="node"><title>Node29</title>
<g id="a_node29"><a xlink:href="../../dc/d95/InfoLoggerBackend_8cxx.html" target="_top" xlink:title="/home/travis/build\l/AliceO2Group/Monitoring\l/src/Backends/InfoLoggerBackend.cxx">
<polygon fill="none" stroke="black" points="1213.5,-84.5 1213.5,-125.5 1398.5,-125.5 1398.5,-84.5 1213.5,-84.5"/>
<text text-anchor="start" x="1221.5" y="-113.5" font-family="Helvetica,sans-Serif" font-size="10.00">/home/travis/build</text>
<text text-anchor="start" x="1221.5" y="-102.5" font-family="Helvetica,sans-Serif" font-size="10.00">/AliceO2Group/Monitoring</text>
<text text-anchor="middle" x="1306" y="-91.5" font-family="Helvetica,sans-Serif" font-size="10.00">/src/Backends/InfoLoggerBackend.cxx</text>
</a>
</g>
</g>
<!-- Node28&#45;&gt;Node29 -->
<g id="edge30" class="edge"><title>Node28&#45;&gt;Node29</title>
<path fill="none" stroke="midnightblue" d="M1429.75,-163.984C1403.7,-151.781 1372.46,-137.14 1347.88,-125.623"/>
<polygon fill="midnightblue" stroke="midnightblue" points="1428.54,-167.285 1439.08,-168.359 1431.51,-160.947 1428.54,-167.285"/>
</g>
<!-- Node30&#45;&gt;Node4 -->
<g id="edge34" class="edge"><title>Node30&#45;&gt;Node4</title>
<path fill="none" stroke="midnightblue" d="M990.864,-242.887C1020.34,-232.219 1054.96,-219.69 1083.1,-209.506"/>
<polygon fill="midnightblue" stroke="midnightblue" points="989.292,-239.734 981.08,-246.428 991.674,-246.316 989.292,-239.734"/>
</g>
<!-- Node31 -->
<g id="node31" class="node"><title>Node31</title>
<g id="a_node31"><a xlink:href="../../d3/da1/DerivedMetrics_8cxx.html" target="_top" xlink:title="/home/travis/build\l/AliceO2Group/Monitoring\l/src/DerivedMetrics.cxx">
<polygon fill="none" stroke="black" points="767,-168.5 767,-209.5 895,-209.5 895,-168.5 767,-168.5"/>
<text text-anchor="start" x="775" y="-197.5" font-family="Helvetica,sans-Serif" font-size="10.00">/home/travis/build</text>
<text text-anchor="start" x="775" y="-186.5" font-family="Helvetica,sans-Serif" font-size="10.00">/AliceO2Group/Monitoring</text>
<text text-anchor="middle" x="831" y="-175.5" font-family="Helvetica,sans-Serif" font-size="10.00">/src/DerivedMetrics.cxx</text>
</a>
</g>
</g>
<!-- Node30&#45;&gt;Node31 -->
<g id="edge35" class="edge"><title>Node30&#45;&gt;Node31</title>
<path fill="none" stroke="midnightblue" d="M894.24,-240.065C881.599,-230.057 867.385,-218.804 855.639,-209.506"/>
<polygon fill="midnightblue" stroke="midnightblue" points="892.265,-242.965 902.278,-246.428 896.61,-237.477 892.265,-242.965"/>
</g>
<!-- Node32 -->
<g id="node32" class="node"><title>Node32</title>
<g id="a_node32"><a xlink:href="../../d6/dfa/testDerived_8cxx.html" target="_top" xlink:title="/home/travis/build\l/AliceO2Group/Monitoring\l/test/testDerived.cxx">
<polygon fill="none" stroke="black" points="621,-168.5 621,-209.5 749,-209.5 749,-168.5 621,-168.5"/>
<text text-anchor="start" x="629" y="-197.5" font-family="Helvetica,sans-Serif" font-size="10.00">/home/travis/build</text>
<text text-anchor="start" x="629" y="-186.5" font-family="Helvetica,sans-Serif" font-size="10.00">/AliceO2Group/Monitoring</text>
<text text-anchor="middle" x="685" y="-175.5" font-family="Helvetica,sans-Serif" font-size="10.00">/test/testDerived.cxx</text>
</a>
</g>
</g>
<!-- Node30&#45;&gt;Node32 -->
<g id="edge36" class="edge"><title>Node30&#45;&gt;Node32</title>
<path fill="none" stroke="midnightblue" d="M854.731,-243.304C820.475,-232.546 779.962,-219.823 747.11,-209.506"/>
<polygon fill="midnightblue" stroke="midnightblue" points="854.09,-246.771 864.679,-246.428 856.187,-240.093 854.09,-246.771"/>
</g>
<!-- Node33&#45;&gt;Node4 -->
<g id="edge38" class="edge"><title>Node33&#45;&gt;Node4</title>
<path fill="none" stroke="midnightblue" d="M1190.4,-239.492C1179.76,-229.629 1167.89,-218.627 1158.05,-209.506"/>
<polygon fill="midnightblue" stroke="midnightblue" points="1188.17,-242.197 1197.88,-246.428 1192.93,-237.063 1188.17,-242.197"/>
</g>
<!-- Node34 -->
<g id="node34" class="node"><title>Node34</title>
<g id="a_node34"><a xlink:href="../../d3/d6e/ProcessMonitor_8cxx.html" target="_top" xlink:title="/home/travis/build\l/AliceO2Group/Monitoring\l/src/ProcessMonitor.cxx">
<polygon fill="none" stroke="black" points="913,-168.5 913,-209.5 1041,-209.5 1041,-168.5 913,-168.5"/>
<text text-anchor="start" x="921" y="-197.5" font-family="Helvetica,sans-Serif" font-size="10.00">/home/travis/build</text>
<text text-anchor="start" x="921" y="-186.5" font-family="Helvetica,sans-Serif" font-size="10.00">/AliceO2Group/Monitoring</text>
<text text-anchor="middle" x="977" y="-175.5" font-family="Helvetica,sans-Serif" font-size="10.00">/src/ProcessMonitor.cxx</text>
</a>
</g>
</g>
<!-- Node33&#45;&gt;Node34 -->
<g id="edge39" class="edge"><title>Node33&#45;&gt;Node34</title>
<path fill="none" stroke="midnightblue" d="M1146.73,-243.304C1112.47,-232.546 1071.96,-219.823 1039.11,-209.506"/>
<polygon fill="midnightblue" stroke="midnightblue" points="1146.09,-246.771 1156.68,-246.428 1148.19,-240.093 1146.09,-246.771"/>
</g>
<!-- Node35 -->
<g id="node35" class="node"><title>Node35</title>
<g id="a_node35"><a xlink:href="../../d5/d84/testProcessMonitor_8cxx.html" target="_top" xlink:title="/home/travis/build\l/AliceO2Group/Monitoring\l/test/testProcessMonitor.cxx">
<polygon fill="none" stroke="black" points="1232.5,-168.5 1232.5,-209.5 1375.5,-209.5 1375.5,-168.5 1232.5,-168.5"/>
<text text-anchor="start" x="1240.5" y="-197.5" font-family="Helvetica,sans-Serif" font-size="10.00">/home/travis/build</text>
<text text-anchor="start" x="1240.5" y="-186.5" font-family="Helvetica,sans-Serif" font-size="10.00">/AliceO2Group/Monitoring</text>
<text text-anchor="middle" x="1304" y="-175.5" font-family="Helvetica,sans-Serif" font-size="10.00">/test/testProcessMonitor.cxx</text>
</a>
</g>
</g>
<!-- Node33&#45;&gt;Node35 -->
<g id="edge40" class="edge"><title>Node33&#45;&gt;Node35</title>
<path fill="none" stroke="midnightblue" d="M1248.65,-239.492C1259.68,-229.629 1271.98,-218.627 1282.18,-209.506"/>
<polygon fill="midnightblue" stroke="midnightblue" points="1246.01,-237.154 1240.89,-246.428 1250.68,-242.372 1246.01,-237.154"/>
</g>
</g>
</svg>
