<?xml version="1.0" encoding="UTF-8" standalone="no"?>
<!DOCTYPE svg PUBLIC "-//W3C//DTD SVG 1.1//EN"
 "http://www.w3.org/Graphics/SVG/1.1/DTD/svg11.dtd">
<!-- Generated by graphviz version 2.36.0 (20140111.2315)
 -->
<!-- Title: /home/travis/build/AliceO2Group/Monitoring/test/testDerived.cxx Pages: 1 -->
<svg width="860pt" height="286pt"
 viewBox="0.00 0.00 860.00 286.00" xmlns="http://www.w3.org/2000/svg" xmlns:xlink="http://www.w3.org/1999/xlink">
<g id="graph0" class="graph" transform="scale(1 1) rotate(0) translate(4 282)">
<title>/home/travis/build/AliceO2Group/Monitoring/test/testDerived.cxx</title>
<!-- Node1 -->
<g id="node1" class="node"><title>Node1</title>
<polygon fill="#bfbfbf" stroke="black" points="507,-236.5 507,-277.5 635,-277.5 635,-236.5 507,-236.5"/>
<text text-anchor="start" x="515" y="-265.5" font-family="Helvetica,sans-Serif" font-size="10.00">/home/travis/build</text>
<text text-anchor="start" x="515" y="-254.5" font-family="Helvetica,sans-Serif" font-size="10.00">/AliceO2Group/Monitoring</text>
<text text-anchor="middle" x="571" y="-243.5" font-family="Helvetica,sans-Serif" font-size="10.00">/test/testDerived.cxx</text>
</g>
<!-- Node2 -->
<g id="node2" class="node"><title>Node2</title>
<g id="a_node2"><a xlink:href="../../dc/de0/DerivedMetrics_8h.html" target="_top" xlink:title="Monitoring/DerivedMetrics.h">
<polygon fill="none" stroke="black" points="318.5,-174.5 318.5,-193.5 457.5,-193.5 457.5,-174.5 318.5,-174.5"/>
<text text-anchor="middle" x="388" y="-181.5" font-family="Helvetica,sans-Serif" font-size="10.00">Monitoring/DerivedMetrics.h</text>
</a>
</g>
</g>
<!-- Node1&#45;&gt;Node2 -->
<g id="edge1" class="edge"><title>Node1&#45;&gt;Node2</title>
<path fill="none" stroke="midnightblue" d="M520.51,-236.411C488.286,-223.909 447.505,-208.087 419.753,-197.319"/>
<polygon fill="midnightblue" stroke="midnightblue" points="420.747,-193.951 410.158,-193.597 418.215,-200.477 420.747,-193.951"/>
</g>
<!-- Node6 -->
<g id="node6" class="node"><title>Node6</title>
<polygon fill="none" stroke="#bfbfbf" points="183,-56.5 183,-75.5 227,-75.5 227,-56.5 183,-56.5"/>
<text text-anchor="middle" x="205" y="-63.5" font-family="Helvetica,sans-Serif" font-size="10.00">vector</text>
</g>
<!-- Node1&#45;&gt;Node6 -->
<g id="edge18" class="edge"><title>Node1&#45;&gt;Node6</title>
<path fill="none" stroke="midnightblue" d="M506.982,-249.323C452.607,-242.029 373.371,-227.51 309,-200 259.578,-178.878 235.591,-178.708 209,-132 201.047,-118.029 200.694,-99.526 201.953,-85.8348"/>
<polygon fill="midnightblue" stroke="midnightblue" points="205.456,-86.0354 203.258,-75.6712 198.513,-85.1441 205.456,-86.0354"/>
</g>
<!-- Node8 -->
<g id="node8" class="node"><title>Node8</title>
<polygon fill="none" stroke="#bfbfbf" points="634,-56.5 634,-75.5 680,-75.5 680,-56.5 634,-56.5"/>
<text text-anchor="middle" x="657" y="-63.5" font-family="Helvetica,sans-Serif" font-size="10.00">chrono</text>
</g>
<!-- Node1&#45;&gt;Node8 -->
<g id="edge16" class="edge"><title>Node1&#45;&gt;Node8</title>
<path fill="none" stroke="midnightblue" d="M573.095,-236.491C575.541,-218.229 580.523,-190.466 590,-168 603.626,-135.697 627.896,-102.66 643.183,-83.5272"/>
<polygon fill="midnightblue" stroke="midnightblue" points="646.087,-85.504 649.692,-75.5413 640.661,-81.0813 646.087,-85.504"/>
</g>
<!-- Node11 -->
<g id="node11" class="node"><title>Node11</title>
<g id="a_node11"><a xlink:href="../../dc/d75/MonitoringInternalException_8h.html" target="_top" xlink:title="../src/Exceptions/Monitoring\lInternalException.h">
<polygon fill="none" stroke="black" points="-0.5,-169 -0.5,-199 138.5,-199 138.5,-169 -0.5,-169"/>
<text text-anchor="start" x="7.5" y="-187" font-family="Helvetica,sans-Serif" font-size="10.00">../src/Exceptions/Monitoring</text>
<text text-anchor="middle" x="69" y="-176" font-family="Helvetica,sans-Serif" font-size="10.00">InternalException.h</text>
</a>
</g>
</g>
<!-- Node1&#45;&gt;Node11 -->
<g id="edge13" class="edge"><title>Node1&#45;&gt;Node11</title>
<path fill="none" stroke="midnightblue" d="M506.784,-248.278C424.619,-238.196 277.969,-219.52 153,-200 151.536,-199.771 150.059,-199.538 148.571,-199.3"/>
<polygon fill="midnightblue" stroke="midnightblue" points="149.066,-195.834 138.633,-197.675 147.937,-202.743 149.066,-195.834"/>
</g>
<!-- Node13 -->
<g id="node13" class="node"><title>Node13</title>
<polygon fill="none" stroke="#bfbfbf" points="599,-174.5 599,-193.5 643,-193.5 643,-174.5 599,-174.5"/>
<text text-anchor="middle" x="621" y="-181.5" font-family="Helvetica,sans-Serif" font-size="10.00">thread</text>
</g>
<!-- Node1&#45;&gt;Node13 -->
<g id="edge17" class="edge"><title>Node1&#45;&gt;Node13</title>
<path fill="none" stroke="midnightblue" d="M584.928,-236.223C592.45,-225.541 601.647,-212.481 608.873,-202.221"/>
<polygon fill="midnightblue" stroke="midnightblue" points="611.952,-203.926 614.849,-193.735 606.229,-199.896 611.952,-203.926"/>
</g>
<!-- Node14 -->
<g id="node14" class="node"><title>Node14</title>
<polygon fill="none" stroke="#bfbfbf" points="661,-174.5 661,-193.5 715,-193.5 715,-174.5 661,-174.5"/>
<text text-anchor="middle" x="688" y="-181.5" font-family="Helvetica,sans-Serif" font-size="10.00">iostream</text>
</g>
<!-- Node1&#45;&gt;Node14 -->
<g id="edge19" class="edge"><title>Node1&#45;&gt;Node14</title>
<path fill="none" stroke="midnightblue" d="M603.28,-236.411C622.799,-224.567 647.227,-209.743 664.83,-199.06"/>
<polygon fill="midnightblue" stroke="midnightblue" points="667.1,-201.777 673.833,-193.597 663.469,-195.793 667.1,-201.777"/>
</g>
<!-- Node15 -->
<g id="node15" class="node"><title>Node15</title>
<polygon fill="none" stroke="#bfbfbf" points="733.5,-174.5 733.5,-193.5 852.5,-193.5 852.5,-174.5 733.5,-174.5"/>
<text text-anchor="middle" x="793" y="-181.5" font-family="Helvetica,sans-Serif" font-size="10.00">boost/test/unit_test.hpp</text>
</g>
<!-- Node1&#45;&gt;Node15 -->
<g id="edge20" class="edge"><title>Node1&#45;&gt;Node15</title>
<path fill="none" stroke="midnightblue" d="M632.25,-236.411C672.144,-223.652 722.848,-207.436 756.532,-196.663"/>
<polygon fill="midnightblue" stroke="midnightblue" points="757.95,-199.884 766.409,-193.504 755.818,-193.217 757.95,-199.884"/>
</g>
<!-- Node3 -->
<g id="node3" class="node"><title>Node3</title>
<polygon fill="none" stroke="#bfbfbf" points="233.5,-112.5 233.5,-131.5 316.5,-131.5 316.5,-112.5 233.5,-112.5"/>
<text text-anchor="middle" x="275" y="-119.5" font-family="Helvetica,sans-Serif" font-size="10.00">unordered_map</text>
</g>
<!-- Node2&#45;&gt;Node3 -->
<g id="edge2" class="edge"><title>Node2&#45;&gt;Node3</title>
<path fill="none" stroke="midnightblue" d="M371.81,-174.403C353.098,-164.468 322.077,-147.997 300.201,-136.381"/>
<polygon fill="midnightblue" stroke="midnightblue" points="301.634,-133.179 291.16,-131.581 298.351,-139.362 301.634,-133.179"/>
</g>
<!-- Node4 -->
<g id="node4" class="node"><title>Node4</title>
<polygon fill="none" stroke="#bfbfbf" points="335,-112.5 335,-131.5 387,-131.5 387,-112.5 335,-112.5"/>
<text text-anchor="middle" x="361" y="-119.5" font-family="Helvetica,sans-Serif" font-size="10.00">memory</text>
</g>
<!-- Node2&#45;&gt;Node4 -->
<g id="edge3" class="edge"><title>Node2&#45;&gt;Node4</title>
<path fill="none" stroke="midnightblue" d="M384.132,-174.403C380.202,-165.671 374,-151.889 369.007,-140.794"/>
<polygon fill="midnightblue" stroke="midnightblue" points="372.157,-139.264 364.861,-131.581 365.773,-142.136 372.157,-139.264"/>
</g>
<!-- Node5 -->
<g id="node5" class="node"><title>Node5</title>
<polygon fill="none" stroke="#bfbfbf" points="396.5,-0.5 396.5,-19.5 437.5,-19.5 437.5,-0.5 396.5,-0.5"/>
<text text-anchor="middle" x="417" y="-7.5" font-family="Helvetica,sans-Serif" font-size="10.00">string</text>
</g>
<!-- Node2&#45;&gt;Node5 -->
<g id="edge4" class="edge"><title>Node2&#45;&gt;Node5</title>
<path fill="none" stroke="midnightblue" d="M389.478,-174.234C393.997,-147.433 407.697,-66.1778 413.895,-29.4153"/>
<polygon fill="midnightblue" stroke="midnightblue" points="417.348,-29.987 415.559,-19.5442 410.445,-28.8231 417.348,-29.987"/>
</g>
<!-- Node2&#45;&gt;Node6 -->
<g id="edge5" class="edge"><title>Node2&#45;&gt;Node6</title>
<path fill="none" stroke="midnightblue" d="M318.325,-176.474C285.748,-169.995 248.77,-157.197 224,-132 212.034,-119.827 207.529,-100.555 205.872,-86.1509"/>
<polygon fill="midnightblue" stroke="midnightblue" points="209.337,-85.5671 205.065,-75.8718 202.358,-86.1151 209.337,-85.5671"/>
</g>
<!-- Node7 -->
<g id="node7" class="node"><title>Node7</title>
<g id="a_node7"><a xlink:href="../../d9/d92/Metric_8h.html" target="_top" xlink:title="Monitoring/Metric.h">
<polygon fill="none" stroke="black" points="443,-112.5 443,-131.5 543,-131.5 543,-112.5 443,-112.5"/>
<text text-anchor="middle" x="493" y="-119.5" font-family="Helvetica,sans-Serif" font-size="10.00">Monitoring/Metric.h</text>
</a>
</g>
</g>
<!-- Node2&#45;&gt;Node7 -->
<g id="edge6" class="edge"><title>Node2&#45;&gt;Node7</title>
<path fill="none" stroke="midnightblue" d="M403.044,-174.403C420.275,-164.557 448.74,-148.291 469.034,-136.695"/>
<polygon fill="midnightblue" stroke="midnightblue" points="471.038,-139.581 477.984,-131.581 467.565,-133.503 471.038,-139.581"/>
</g>
<!-- Node7&#45;&gt;Node5 -->
<g id="edge7" class="edge"><title>Node7&#45;&gt;Node5</title>
<path fill="none" stroke="midnightblue" d="M484.96,-112.399C476.925,-103.599 464.441,-89.3615 455,-76 444.18,-60.6873 433.555,-42.1281 426.304,-28.7676"/>
<polygon fill="midnightblue" stroke="midnightblue" points="429.264,-26.8798 421.469,-19.7041 423.087,-30.1745 429.264,-26.8798"/>
</g>
<!-- Node7&#45;&gt;Node6 -->
<g id="edge9" class="edge"><title>Node7&#45;&gt;Node6</title>
<path fill="none" stroke="midnightblue" d="M447.366,-112.444C388.604,-101.426 287.984,-82.5594 236.847,-72.9714"/>
<polygon fill="midnightblue" stroke="midnightblue" points="237.487,-69.5303 227.013,-71.1274 236.197,-76.4104 237.487,-69.5303"/>
</g>
<!-- Node7&#45;&gt;Node8 -->
<g id="edge8" class="edge"><title>Node7&#45;&gt;Node8</title>
<path fill="none" stroke="midnightblue" d="M518.986,-112.444C547.388,-103.092 592.961,-88.0859 623.901,-77.8984"/>
<polygon fill="midnightblue" stroke="midnightblue" points="625.383,-81.0953 633.787,-74.6433 623.194,-74.4465 625.383,-81.0953"/>
</g>
<!-- Node9 -->
<g id="node9" class="node"><title>Node9</title>
<polygon fill="none" stroke="#bfbfbf" points="464,-56.5 464,-75.5 556,-75.5 556,-56.5 464,-56.5"/>
<text text-anchor="middle" x="510" y="-63.5" font-family="Helvetica,sans-Serif" font-size="10.00">boost/variant.hpp</text>
</g>
<!-- Node7&#45;&gt;Node9 -->
<g id="edge10" class="edge"><title>Node7&#45;&gt;Node9</title>
<path fill="none" stroke="midnightblue" d="M495.807,-112.083C498.085,-104.849 501.371,-94.4087 504.208,-85.3968"/>
<polygon fill="midnightblue" stroke="midnightblue" points="507.581,-86.3406 507.245,-75.7511 500.904,-84.2385 507.581,-86.3406"/>
</g>
<!-- Node10 -->
<g id="node10" class="node"><title>Node10</title>
<g id="a_node10"><a xlink:href="../../d9/d33/Tag_8h.html" target="_top" xlink:title="Tag.h">
<polygon fill="none" stroke="black" points="574.5,-56.5 574.5,-75.5 615.5,-75.5 615.5,-56.5 574.5,-56.5"/>
<text text-anchor="middle" x="595" y="-63.5" font-family="Helvetica,sans-Serif" font-size="10.00">Tag.h</text>
</a>
</g>
</g>
<!-- Node7&#45;&gt;Node10 -->
<g id="edge11" class="edge"><title>Node7&#45;&gt;Node10</title>
<path fill="none" stroke="midnightblue" d="M509.388,-112.324C525.671,-103.703 550.867,-90.3643 569.716,-80.3855"/>
<polygon fill="midnightblue" stroke="midnightblue" points="571.452,-83.4267 578.653,-75.6545 568.177,-77.2402 571.452,-83.4267"/>
</g>
<!-- Node10&#45;&gt;Node5 -->
<g id="edge12" class="edge"><title>Node10&#45;&gt;Node5</title>
<path fill="none" stroke="midnightblue" d="M574.233,-58.6998C543.016,-49.2294 483.808,-31.2677 447.627,-20.2914"/>
<polygon fill="midnightblue" stroke="midnightblue" points="448.22,-16.8139 437.635,-17.26 446.188,-23.5124 448.22,-16.8139"/>
</g>
<!-- Node11&#45;&gt;Node5 -->
<g id="edge15" class="edge"><title>Node11&#45;&gt;Node5</title>
<path fill="none" stroke="midnightblue" d="M65.2306,-168.778C62.0505,-153.561 59.5109,-129.283 70,-112 97.2365,-67.121 124.482,-73.4342 174,-56 247.589,-30.091 339.236,-18.2847 386.162,-13.6185"/>
<polygon fill="midnightblue" stroke="midnightblue" points="386.66,-17.087 396.284,-12.6548 385.997,-10.1185 386.66,-17.087"/>
</g>
<!-- Node12 -->
<g id="node12" class="node"><title>Node12</title>
<polygon fill="none" stroke="#bfbfbf" points="79.5,-112.5 79.5,-131.5 138.5,-131.5 138.5,-112.5 79.5,-112.5"/>
<text text-anchor="middle" x="109" y="-119.5" font-family="Helvetica,sans-Serif" font-size="10.00">exception</text>
</g>
<!-- Node11&#45;&gt;Node12 -->
<g id="edge14" class="edge"><title>Node11&#45;&gt;Node12</title>
<path fill="none" stroke="midnightblue" d="M78.4794,-168.781C84.1721,-160.242 91.4544,-149.318 97.4778,-140.283"/>
<polygon fill="midnightblue" stroke="midnightblue" points="100.545,-141.993 103.18,-131.731 94.7204,-138.11 100.545,-141.993"/>
</g>
</g>
</svg>
