<?xml version="1.0" encoding="UTF-8" standalone="no"?>
<!DOCTYPE svg PUBLIC "-//W3C//DTD SVG 1.1//EN"
 "http://www.w3.org/Graphics/SVG/1.1/DTD/svg11.dtd">
<!-- Generated by graphviz version 2.36.0 (20140111.2315)
 -->
<!-- Title: o2::monitoring::DerivedMetrics Pages: 1 -->
<svg width="156pt" height="228pt"
 viewBox="0.00 0.00 156.00 228.00" xmlns="http://www.w3.org/2000/svg" xmlns:xlink="http://www.w3.org/1999/xlink">
<g id="graph0" class="graph" transform="scale(1 1) rotate(0) translate(4 224)">
<title>o2::monitoring::DerivedMetrics</title>
<!-- Node1 -->
<g id="node1" class="node"><title>Node1</title>
<polygon fill="#bfbfbf" stroke="black" points="-1,-1 -1,-91 149,-91 149,-1 -1,-1"/>
<text text-anchor="middle" x="74" y="-79" font-family="Helvetica,sans-Serif" font-size="10.00">o2::monitoring::DerivedMetrics</text>
<polyline fill="none" stroke="black" points="-1,-72 149,-72 "/>
<text text-anchor="middle" x="74" y="-60" font-family="Helvetica,sans-Serif" font-size="10.00"> </text>
<polyline fill="none" stroke="black" points="-1,-53 149,-53 "/>
<text text-anchor="start" x="7" y="-41" font-family="Helvetica,sans-Serif" font-size="10.00">+ DerivedMetrics()</text>
<text text-anchor="start" x="7" y="-30" font-family="Helvetica,sans-Serif" font-size="10.00">+ ~DerivedMetrics()</text>
<text text-anchor="start" x="7" y="-19" font-family="Helvetica,sans-Serif" font-size="10.00">+ rate()</text>
<text text-anchor="start" x="7" y="-8" font-family="Helvetica,sans-Serif" font-size="10.00">+ increment()</text>
</g>
<!-- Node2 -->
<g id="node2" class="node"><title>Node2</title>
<polygon fill="none" stroke="#bfbfbf" points="17,-140.5 17,-219.5 131,-219.5 131,-140.5 17,-140.5"/>
<text text-anchor="start" x="25" y="-207.5" font-family="Helvetica,sans-Serif" font-size="10.00">unordered_map&lt; std</text>
<text text-anchor="start" x="25" y="-196.5" font-family="Helvetica,sans-Serif" font-size="10.00">::string, o2::monitoring</text>
<text text-anchor="middle" x="74" y="-185.5" font-family="Helvetica,sans-Serif" font-size="10.00">::Metric &gt;</text>
<polyline fill="none" stroke="#bfbfbf" points="17,-178.5 131,-178.5 "/>
<text text-anchor="middle" x="74" y="-166.5" font-family="Helvetica,sans-Serif" font-size="10.00"> </text>
<polyline fill="none" stroke="#bfbfbf" points="17,-159.5 131,-159.5 "/>
<text text-anchor="middle" x="74" y="-147.5" font-family="Helvetica,sans-Serif" font-size="10.00"> </text>
</g>
<!-- Node2&#45;&gt;Node1 -->
<g id="edge1" class="edge"><title>Node2&#45;&gt;Node1</title>
<path fill="none" stroke="#404040" d="M74,-140.465C74,-128.937 74,-116.047 74,-103.612"/>
<polygon fill="none" stroke="#404040" points="74.0001,-103.395 70,-97.3946 74,-91.3945 78,-97.3945 74.0001,-103.395"/>
<text text-anchor="middle" x="100" y="-113.5" font-family="Helvetica,sans-Serif" font-size="10.00"> +mStorage</text>
</g>
</g>
</svg>
