<?xml version="1.0" encoding="UTF-8" standalone="no"?>
<!DOCTYPE svg PUBLIC "-//W3C//DTD SVG 1.1//EN"
 "http://www.w3.org/Graphics/SVG/1.1/DTD/svg11.dtd">
<!-- Generated by graphviz version 2.36.0 (20140111.2315)
 -->
<!-- Title: /home/travis/build/AliceO2Group/Monitoring/src/Backends/InfoLoggerBackend.cxx Pages: 1 -->
<svg width="359pt" height="330pt"
 viewBox="0.00 0.00 358.95 330.00" xmlns="http://www.w3.org/2000/svg" xmlns:xlink="http://www.w3.org/1999/xlink">
<g id="graph0" class="graph" transform="scale(1 1) rotate(0) translate(4 326)">
<title>/home/travis/build/AliceO2Group/Monitoring/src/Backends/InfoLoggerBackend.cxx</title>
<!-- Node1 -->
<g id="node1" class="node"><title>Node1</title>
<polygon fill="#bfbfbf" stroke="black" points="112.447,-280.5 112.447,-321.5 297.447,-321.5 297.447,-280.5 112.447,-280.5"/>
<text text-anchor="start" x="120.447" y="-309.5" font-family="Helvetica,sans-Serif" font-size="10.00">/home/travis/build</text>
<text text-anchor="start" x="120.447" y="-298.5" font-family="Helvetica,sans-Serif" font-size="10.00">/AliceO2Group/Monitoring</text>
<text text-anchor="middle" x="204.947" y="-287.5" font-family="Helvetica,sans-Serif" font-size="10.00">/src/Backends/InfoLoggerBackend.cxx</text>
</g>
<!-- Node2 -->
<g id="node2" class="node"><title>Node2</title>
<g id="a_node2"><a xlink:href="../../d9/de4/InfoLoggerBackend_8h.html" target="_top" xlink:title="InfoLoggerBackend.h">
<polygon fill="none" stroke="black" points="49.4467,-224.5 49.4467,-243.5 158.447,-243.5 158.447,-224.5 49.4467,-224.5"/>
<text text-anchor="middle" x="103.947" y="-231.5" font-family="Helvetica,sans-Serif" font-size="10.00">InfoLoggerBackend.h</text>
</a>
</g>
</g>
<!-- Node1&#45;&gt;Node2 -->
<g id="edge1" class="edge"><title>Node1&#45;&gt;Node2</title>
<path fill="none" stroke="midnightblue" d="M174.643,-280.498C159.009,-270.436 140.283,-258.385 126.032,-249.214"/>
<polygon fill="midnightblue" stroke="midnightblue" points="127.695,-246.121 117.391,-243.652 123.906,-252.008 127.695,-246.121"/>
</g>
<!-- Node10 -->
<g id="node10" class="node"><title>Node10</title>
<polygon fill="none" stroke="#bfbfbf" points="177.947,-168.5 177.947,-187.5 231.947,-187.5 231.947,-168.5 177.947,-168.5"/>
<text text-anchor="middle" x="204.947" y="-175.5" font-family="Helvetica,sans-Serif" font-size="10.00">iostream</text>
</g>
<!-- Node1&#45;&gt;Node10 -->
<g id="edge13" class="edge"><title>Node1&#45;&gt;Node10</title>
<path fill="none" stroke="midnightblue" d="M204.947,-280.29C204.947,-257.48 204.947,-220.189 204.947,-197.781"/>
<polygon fill="midnightblue" stroke="midnightblue" points="208.447,-197.575 204.947,-187.575 201.447,-197.575 208.447,-197.575"/>
</g>
<!-- Node11 -->
<g id="node11" class="node"><title>Node11</title>
<g id="a_node11"><a xlink:href="../../df/de7/MonLogger_8h.html" target="_top" xlink:title="../MonLogger.h">
<polygon fill="none" stroke="black" points="232.947,-224.5 232.947,-243.5 314.947,-243.5 314.947,-224.5 232.947,-224.5"/>
<text text-anchor="middle" x="273.947" y="-231.5" font-family="Helvetica,sans-Serif" font-size="10.00">../MonLogger.h</text>
</a>
</g>
</g>
<!-- Node1&#45;&gt;Node11 -->
<g id="edge14" class="edge"><title>Node1&#45;&gt;Node11</title>
<path fill="none" stroke="midnightblue" d="M225.649,-280.498C235.821,-270.915 247.909,-259.528 257.447,-250.543"/>
<polygon fill="midnightblue" stroke="midnightblue" points="259.883,-253.057 264.762,-243.652 255.083,-247.962 259.883,-253.057"/>
</g>
<!-- Node3 -->
<g id="node3" class="node"><title>Node3</title>
<g id="a_node3"><a xlink:href="../../df/d83/Backend_8h.html" target="_top" xlink:title="Monitoring/Backend.h">
<polygon fill="none" stroke="black" points="48.4467,-168.5 48.4467,-187.5 159.447,-187.5 159.447,-168.5 48.4467,-168.5"/>
<text text-anchor="middle" x="103.947" y="-175.5" font-family="Helvetica,sans-Serif" font-size="10.00">Monitoring/Backend.h</text>
</a>
</g>
</g>
<!-- Node2&#45;&gt;Node3 -->
<g id="edge2" class="edge"><title>Node2&#45;&gt;Node3</title>
<path fill="none" stroke="midnightblue" d="M103.947,-224.083C103.947,-217.006 103.947,-206.861 103.947,-197.986"/>
<polygon fill="midnightblue" stroke="midnightblue" points="107.447,-197.751 103.947,-187.751 100.447,-197.751 107.447,-197.751"/>
</g>
<!-- Node5 -->
<g id="node5" class="node"><title>Node5</title>
<polygon fill="none" stroke="#bfbfbf" points="96.4467,-0.5 96.4467,-19.5 137.447,-19.5 137.447,-0.5 96.4467,-0.5"/>
<text text-anchor="middle" x="116.947" y="-7.5" font-family="Helvetica,sans-Serif" font-size="10.00">string</text>
</g>
<!-- Node2&#45;&gt;Node5 -->
<g id="edge12" class="edge"><title>Node2&#45;&gt;Node5</title>
<path fill="none" stroke="midnightblue" d="M84.3758,-224.475C69.5818,-217.004 49.9936,-204.719 38.9467,-188 6.11772,-138.316 -16.4803,-105.948 15.9467,-56 31.4261,-32.1569 62.7933,-20.8407 86.4878,-15.537"/>
<polygon fill="midnightblue" stroke="midnightblue" points="87.3034,-18.9433 96.4264,-13.5563 85.9352,-12.0783 87.3034,-18.9433"/>
</g>
<!-- Node4 -->
<g id="node4" class="node"><title>Node4</title>
<polygon fill="none" stroke="#bfbfbf" points="304.947,-56.5 304.947,-75.5 350.947,-75.5 350.947,-56.5 304.947,-56.5"/>
<text text-anchor="middle" x="327.947" y="-63.5" font-family="Helvetica,sans-Serif" font-size="10.00">chrono</text>
</g>
<!-- Node3&#45;&gt;Node4 -->
<g id="edge3" class="edge"><title>Node3&#45;&gt;Node4</title>
<path fill="none" stroke="midnightblue" d="M129.13,-168.498C152.776,-160.201 188.909,-146.709 218.947,-132 250.632,-116.485 285.324,-94.9482 306.866,-80.9932"/>
<polygon fill="midnightblue" stroke="midnightblue" points="308.79,-83.9171 315.245,-75.5163 304.96,-78.0576 308.79,-83.9171"/>
</g>
<!-- Node3&#45;&gt;Node5 -->
<g id="edge4" class="edge"><title>Node3&#45;&gt;Node5</title>
<path fill="none" stroke="midnightblue" d="M90.5964,-168.259C62.0159,-148.43 -0.426475,-98.4633 25.9467,-56 39.1322,-34.7701 65.6296,-23.2525 86.6469,-17.2013"/>
<polygon fill="midnightblue" stroke="midnightblue" points="87.6463,-20.5579 96.4419,-14.6513 85.8827,-13.7837 87.6463,-20.5579"/>
</g>
<!-- Node6 -->
<g id="node6" class="node"><title>Node6</title>
<g id="a_node6"><a xlink:href="../../d9/d92/Metric_8h.html" target="_top" xlink:title="Monitoring/Metric.h">
<polygon fill="none" stroke="black" points="109.947,-112.5 109.947,-131.5 209.947,-131.5 209.947,-112.5 109.947,-112.5"/>
<text text-anchor="middle" x="159.947" y="-119.5" font-family="Helvetica,sans-Serif" font-size="10.00">Monitoring/Metric.h</text>
</a>
</g>
</g>
<!-- Node3&#45;&gt;Node6 -->
<g id="edge5" class="edge"><title>Node3&#45;&gt;Node6</title>
<path fill="none" stroke="midnightblue" d="M112.944,-168.324C121.141,-160.42 133.452,-148.548 143.419,-138.938"/>
<polygon fill="midnightblue" stroke="midnightblue" points="146.017,-141.295 150.786,-131.834 141.158,-136.256 146.017,-141.295"/>
</g>
<!-- Node6&#45;&gt;Node4 -->
<g id="edge7" class="edge"><title>Node6&#45;&gt;Node4</title>
<path fill="none" stroke="midnightblue" d="M186.567,-112.444C215.954,-102.998 263.29,-87.7826 294.995,-77.5916"/>
<polygon fill="midnightblue" stroke="midnightblue" points="296.248,-80.8653 304.697,-74.473 294.106,-74.2011 296.248,-80.8653"/>
</g>
<!-- Node6&#45;&gt;Node5 -->
<g id="edge6" class="edge"><title>Node6&#45;&gt;Node5</title>
<path fill="none" stroke="midnightblue" d="M195.472,-112.445C230.659,-102.218 276.65,-83.0291 256.947,-56 232.045,-21.8397 180.788,-13.0434 147.685,-11.0912"/>
<polygon fill="midnightblue" stroke="midnightblue" points="147.769,-7.59172 137.632,-10.6744 147.479,-14.5857 147.769,-7.59172"/>
</g>
<!-- Node7 -->
<g id="node7" class="node"><title>Node7</title>
<polygon fill="none" stroke="#bfbfbf" points="34.9467,-56.5 34.9467,-75.5 78.9467,-75.5 78.9467,-56.5 34.9467,-56.5"/>
<text text-anchor="middle" x="56.9467" y="-63.5" font-family="Helvetica,sans-Serif" font-size="10.00">vector</text>
</g>
<!-- Node6&#45;&gt;Node7 -->
<g id="edge8" class="edge"><title>Node6&#45;&gt;Node7</title>
<path fill="none" stroke="midnightblue" d="M143.398,-112.324C126.955,-103.703 101.512,-90.3643 82.4783,-80.3855"/>
<polygon fill="midnightblue" stroke="midnightblue" points="83.9362,-77.198 73.4544,-75.6545 80.6858,-83.3977 83.9362,-77.198"/>
</g>
<!-- Node8 -->
<g id="node8" class="node"><title>Node8</title>
<polygon fill="none" stroke="#bfbfbf" points="96.9467,-56.5 96.9467,-75.5 188.947,-75.5 188.947,-56.5 96.9467,-56.5"/>
<text text-anchor="middle" x="142.947" y="-63.5" font-family="Helvetica,sans-Serif" font-size="10.00">boost/variant.hpp</text>
</g>
<!-- Node6&#45;&gt;Node8 -->
<g id="edge9" class="edge"><title>Node6&#45;&gt;Node8</title>
<path fill="none" stroke="midnightblue" d="M157.139,-112.083C154.862,-104.849 151.575,-94.4087 148.738,-85.3968"/>
<polygon fill="midnightblue" stroke="midnightblue" points="152.043,-84.2385 145.702,-75.7511 145.366,-86.3406 152.043,-84.2385"/>
</g>
<!-- Node9 -->
<g id="node9" class="node"><title>Node9</title>
<g id="a_node9"><a xlink:href="../../d9/d33/Tag_8h.html" target="_top" xlink:title="Tag.h">
<polygon fill="none" stroke="black" points="207.447,-56.5 207.447,-75.5 248.447,-75.5 248.447,-56.5 207.447,-56.5"/>
<text text-anchor="middle" x="227.947" y="-63.5" font-family="Helvetica,sans-Serif" font-size="10.00">Tag.h</text>
</a>
</g>
</g>
<!-- Node6&#45;&gt;Node9 -->
<g id="edge10" class="edge"><title>Node6&#45;&gt;Node9</title>
<path fill="none" stroke="midnightblue" d="M170.872,-112.324C181.121,-104.185 196.667,-91.8395 208.948,-82.0874"/>
<polygon fill="midnightblue" stroke="midnightblue" points="211.168,-84.7937 216.823,-75.8339 206.815,-79.3119 211.168,-84.7937"/>
</g>
<!-- Node9&#45;&gt;Node5 -->
<g id="edge11" class="edge"><title>Node9&#45;&gt;Node5</title>
<path fill="none" stroke="midnightblue" d="M210.113,-56.324C192.231,-47.6247 164.472,-34.1202 143.901,-24.113"/>
<polygon fill="midnightblue" stroke="midnightblue" points="145.26,-20.8819 134.737,-19.6545 142.198,-27.1765 145.26,-20.8819"/>
</g>
<!-- Node11&#45;&gt;Node4 -->
<g id="edge15" class="edge"><title>Node11&#45;&gt;Node4</title>
<path fill="none" stroke="midnightblue" d="M282.989,-224.252C291.159,-215.781 302.815,-202.17 308.947,-188 323.673,-153.968 327.153,-110.155 327.875,-85.6773"/>
<polygon fill="midnightblue" stroke="midnightblue" points="331.375,-85.6756 328.044,-75.6181 324.376,-85.5578 331.375,-85.6756"/>
</g>
<!-- Node11&#45;&gt;Node10 -->
<g id="edge17" class="edge"><title>Node11&#45;&gt;Node10</title>
<path fill="none" stroke="midnightblue" d="M262.861,-224.324C252.461,-216.185 236.686,-203.839 224.225,-194.087"/>
<polygon fill="midnightblue" stroke="midnightblue" points="226.267,-191.241 216.234,-187.834 221.952,-196.753 226.267,-191.241"/>
</g>
<!-- Node12 -->
<g id="node12" class="node"><title>Node12</title>
<polygon fill="none" stroke="#bfbfbf" points="249.947,-168.5 249.947,-187.5 299.947,-187.5 299.947,-168.5 249.947,-168.5"/>
<text text-anchor="middle" x="274.947" y="-175.5" font-family="Helvetica,sans-Serif" font-size="10.00">iomanip</text>
</g>
<!-- Node11&#45;&gt;Node12 -->
<g id="edge16" class="edge"><title>Node11&#45;&gt;Node12</title>
<path fill="none" stroke="midnightblue" d="M274.112,-224.083C274.243,-217.006 274.431,-206.861 274.595,-197.986"/>
<polygon fill="midnightblue" stroke="midnightblue" points="278.099,-197.814 274.785,-187.751 271.1,-197.685 278.099,-197.814"/>
</g>
</g>
</svg>
