<?xml version="1.0" encoding="UTF-8" standalone="no"?>
<!DOCTYPE svg PUBLIC "-//W3C//DTD SVG 1.1//EN"
 "http://www.w3.org/Graphics/SVG/1.1/DTD/svg11.dtd">
<!-- Generated by graphviz version 2.36.0 (20140111.2315)
 -->
<!-- Title: /home/travis/build/AliceO2Group/Monitoring/include/Monitoring/Metric.h Pages: 1 -->
<svg width="299pt" height="162pt"
 viewBox="0.00 0.00 299.08 162.00" xmlns="http://www.w3.org/2000/svg" xmlns:xlink="http://www.w3.org/1999/xlink">
<g id="graph0" class="graph" transform="scale(1 1) rotate(0) translate(4 158)">
<title>/home/travis/build/AliceO2Group/Monitoring/include/Monitoring/Metric.h</title>
<!-- Node1 -->
<g id="node1" class="node"><title>Node1</title>
<polygon fill="#bfbfbf" stroke="black" points="31.5756,-112.5 31.5756,-153.5 168.576,-153.5 168.576,-112.5 31.5756,-112.5"/>
<text text-anchor="start" x="39.5756" y="-141.5" font-family="Helvetica,sans-Serif" font-size="10.00">/home/travis/build</text>
<text text-anchor="start" x="39.5756" y="-130.5" font-family="Helvetica,sans-Serif" font-size="10.00">/AliceO2Group/Monitoring</text>
<text text-anchor="middle" x="100.076" y="-119.5" font-family="Helvetica,sans-Serif" font-size="10.00">/include/Monitoring/Metric.h</text>
</g>
<!-- Node2 -->
<g id="node2" class="node"><title>Node2</title>
<polygon fill="none" stroke="#bfbfbf" points="107.576,-0.5 107.576,-19.5 148.576,-19.5 148.576,-0.5 107.576,-0.5"/>
<text text-anchor="middle" x="128.076" y="-7.5" font-family="Helvetica,sans-Serif" font-size="10.00">string</text>
</g>
<!-- Node1&#45;&gt;Node2 -->
<g id="edge1" class="edge"><title>Node1&#45;&gt;Node2</title>
<path fill="none" stroke="midnightblue" d="M44.8655,-112.475C15.65,-98.9333 -11.1388,-79.1977 5.07565,-56 25.7271,-26.4544 67.97,-16.2449 97.1433,-12.7536"/>
<polygon fill="midnightblue" stroke="midnightblue" points="97.6321,-16.2223 107.236,-11.7479 96.938,-9.2568 97.6321,-16.2223"/>
</g>
<!-- Node3 -->
<g id="node3" class="node"><title>Node3</title>
<polygon fill="none" stroke="#bfbfbf" points="14.0756,-56.5 14.0756,-75.5 60.0756,-75.5 60.0756,-56.5 14.0756,-56.5"/>
<text text-anchor="middle" x="37.0756" y="-63.5" font-family="Helvetica,sans-Serif" font-size="10.00">chrono</text>
</g>
<!-- Node1&#45;&gt;Node3 -->
<g id="edge2" class="edge"><title>Node1&#45;&gt;Node3</title>
<path fill="none" stroke="midnightblue" d="M81.1736,-112.498C72.0717,-103.107 61.2898,-91.9829 52.6655,-83.0848"/>
<polygon fill="midnightblue" stroke="midnightblue" points="54.9349,-80.3973 45.4619,-75.6525 49.9084,-85.2691 54.9349,-80.3973"/>
</g>
<!-- Node4 -->
<g id="node4" class="node"><title>Node4</title>
<polygon fill="none" stroke="#bfbfbf" points="78.0756,-56.5 78.0756,-75.5 122.076,-75.5 122.076,-56.5 78.0756,-56.5"/>
<text text-anchor="middle" x="100.076" y="-63.5" font-family="Helvetica,sans-Serif" font-size="10.00">vector</text>
</g>
<!-- Node1&#45;&gt;Node4 -->
<g id="edge3" class="edge"><title>Node1&#45;&gt;Node4</title>
<path fill="none" stroke="midnightblue" d="M100.076,-112.498C100.076,-104.065 100.076,-94.2351 100.076,-85.874"/>
<polygon fill="midnightblue" stroke="midnightblue" points="103.576,-85.6525 100.076,-75.6525 96.5757,-85.6525 103.576,-85.6525"/>
</g>
<!-- Node5 -->
<g id="node5" class="node"><title>Node5</title>
<polygon fill="none" stroke="#bfbfbf" points="140.076,-56.5 140.076,-75.5 232.076,-75.5 232.076,-56.5 140.076,-56.5"/>
<text text-anchor="middle" x="186.076" y="-63.5" font-family="Helvetica,sans-Serif" font-size="10.00">boost/variant.hpp</text>
</g>
<!-- Node1&#45;&gt;Node5 -->
<g id="edge4" class="edge"><title>Node1&#45;&gt;Node5</title>
<path fill="none" stroke="midnightblue" d="M125.878,-112.498C138.937,-102.628 154.529,-90.8432 166.573,-81.7407"/>
<polygon fill="midnightblue" stroke="midnightblue" points="168.76,-84.4744 174.628,-75.6525 164.54,-78.89 168.76,-84.4744"/>
</g>
<!-- Node6 -->
<g id="node6" class="node"><title>Node6</title>
<g id="a_node6"><a xlink:href="../../d9/d33/Tag_8h.html" target="_top" xlink:title="Tag.h">
<polygon fill="none" stroke="black" points="250.576,-56.5 250.576,-75.5 291.576,-75.5 291.576,-56.5 250.576,-56.5"/>
<text text-anchor="middle" x="271.076" y="-63.5" font-family="Helvetica,sans-Serif" font-size="10.00">Tag.h</text>
</a>
</g>
</g>
<!-- Node1&#45;&gt;Node6 -->
<g id="edge5" class="edge"><title>Node1&#45;&gt;Node6</title>
<path fill="none" stroke="midnightblue" d="M151.381,-112.498C180.606,-101.389 216.213,-87.8543 240.957,-78.4487"/>
<polygon fill="midnightblue" stroke="midnightblue" points="242.417,-81.6381 250.521,-74.8133 239.93,-75.0948 242.417,-81.6381"/>
</g>
<!-- Node6&#45;&gt;Node2 -->
<g id="edge6" class="edge"><title>Node6&#45;&gt;Node2</title>
<path fill="none" stroke="midnightblue" d="M250.282,-57.1479C226.136,-48.0297 186.093,-32.9087 158.461,-22.4741"/>
<polygon fill="midnightblue" stroke="midnightblue" points="159.486,-19.12 148.894,-18.8615 157.013,-25.6687 159.486,-19.12"/>
</g>
</g>
</svg>
