<?xml version="1.0" encoding="UTF-8" standalone="no"?>
<!DOCTYPE svg PUBLIC "-//W3C//DTD SVG 1.1//EN"
 "http://www.w3.org/Graphics/SVG/1.1/DTD/svg11.dtd">
<!-- Generated by graphviz version 2.36.0 (20140111.2315)
 -->
<!-- Title: o2::monitoring::backends::InfoLoggerBackend Pages: 1 -->
<svg width="134pt" height="282pt"
 viewBox="0.00 0.00 134.00 282.00" xmlns="http://www.w3.org/2000/svg" xmlns:xlink="http://www.w3.org/1999/xlink">
<g id="graph0" class="graph" transform="scale(1 1) rotate(0) translate(4 278)">
<title>o2::monitoring::backends::InfoLoggerBackend</title>
<!-- Node1 -->
<g id="node1" class="node"><title>Node1</title>
<polygon fill="#bfbfbf" stroke="black" points="0,-0.5 0,-123.5 126,-123.5 126,-0.5 0,-0.5"/>
<text text-anchor="start" x="8" y="-111.5" font-family="Helvetica,sans-Serif" font-size="10.00">o2::monitoring::backends</text>
<text text-anchor="middle" x="63" y="-100.5" font-family="Helvetica,sans-Serif" font-size="10.00">::InfoLoggerBackend</text>
<polyline fill="none" stroke="black" points="0,-93.5 126,-93.5 "/>
<text text-anchor="middle" x="63" y="-81.5" font-family="Helvetica,sans-Serif" font-size="10.00"> </text>
<polyline fill="none" stroke="black" points="0,-74.5 126,-74.5 "/>
<text text-anchor="start" x="8" y="-62.5" font-family="Helvetica,sans-Serif" font-size="10.00">+ InfoLoggerBackend()</text>
<text text-anchor="start" x="8" y="-51.5" font-family="Helvetica,sans-Serif" font-size="10.00">+ ~InfoLoggerBackend()</text>
<text text-anchor="start" x="8" y="-40.5" font-family="Helvetica,sans-Serif" font-size="10.00">+ send()</text>
<text text-anchor="start" x="8" y="-29.5" font-family="Helvetica,sans-Serif" font-size="10.00">+ send()</text>
<text text-anchor="start" x="8" y="-18.5" font-family="Helvetica,sans-Serif" font-size="10.00">+ sendMultiple()</text>
<text text-anchor="start" x="8" y="-7.5" font-family="Helvetica,sans-Serif" font-size="10.00">+ addGlobalTag()</text>
</g>
<!-- Node2 -->
<g id="node2" class="node"><title>Node2</title>
<g id="a_node2"><a xlink:href="../../d6/dec/classo2_1_1monitoring_1_1Backend.html" target="_top" xlink:title="Backend pure virtual interface. ">
<polygon fill="none" stroke="black" points="2,-161 2,-273 124,-273 124,-161 2,-161"/>
<text text-anchor="middle" x="63" y="-261" font-family="Helvetica,sans-Serif" font-size="10.00">o2::monitoring::Backend</text>
<polyline fill="none" stroke="black" points="2,-254 124,-254 "/>
<text text-anchor="middle" x="63" y="-242" font-family="Helvetica,sans-Serif" font-size="10.00"> </text>
<polyline fill="none" stroke="black" points="2,-235 124,-235 "/>
<text text-anchor="start" x="10" y="-223" font-family="Helvetica,sans-Serif" font-size="10.00">+ Backend()</text>
<text text-anchor="start" x="10" y="-212" font-family="Helvetica,sans-Serif" font-size="10.00">+ ~Backend()</text>
<text text-anchor="start" x="10" y="-201" font-family="Helvetica,sans-Serif" font-size="10.00">+ send()</text>
<text text-anchor="start" x="10" y="-190" font-family="Helvetica,sans-Serif" font-size="10.00">+ send()</text>
<text text-anchor="start" x="10" y="-179" font-family="Helvetica,sans-Serif" font-size="10.00">+ sendMultiple()</text>
<text text-anchor="start" x="10" y="-168" font-family="Helvetica,sans-Serif" font-size="10.00">+ addGlobalTag()</text>
</a>
</g>
</g>
<!-- Node2&#45;&gt;Node1 -->
<g id="edge1" class="edge"><title>Node2&#45;&gt;Node1</title>
<path fill="none" stroke="midnightblue" d="M63,-150.718C63,-141.717 63,-132.505 63,-123.593"/>
<polygon fill="none" stroke="midnightblue" points="59.5001,-150.763 63,-160.763 66.5001,-150.764 59.5001,-150.763"/>
</g>
</g>
</svg>
